<svg xmlns="http://www.w3.org/2000/svg" width="42.699" height="68.824" viewBox="0 0 42.699 68.824">
  <g id="abuelo" transform="translate(-97.177)">
    <g id="Group_425" data-name="Group 425" transform="translate(98.227 1.075)">
      <path id="Path_1278" data-name="Path 1278" d="M161.718,32.454C164.65,10.965,153.105,8,144.936,8s-19.714,2.965-16.782,24.454Z" transform="translate(-124.636 -8)" fill="#b9c1cb"/>
      <path id="Path_1279" data-name="Path 1279" d="M133.287,156.55a4.236,4.236,0,0,0-3.872,2.518q.1.957.234,1.968h4.077v-4.463A4.289,4.289,0,0,0,133.287,156.55Z" transform="translate(-126.131 -136.582)" fill="#a0aab7"/>
      <path id="Path_1280" data-name="Path 1280" d="M354.6,161.036q.138-1.011.234-1.968a4.236,4.236,0,0,0-3.872-2.518,4.287,4.287,0,0,0-.438.022v4.463Z" transform="translate(-317.516 -136.582)" fill="#a0aab7"/>
      <path id="Path_1281" data-name="Path 1281" d="M145.587,333.585h-40.6v-10.81a15.655,15.655,0,0,1,15.655-15.655h9.289a15.655,15.655,0,0,1,15.655,15.655Z" transform="translate(-104.988 -266.911)" fill="#9ec8fc"/>
      <path id="Path_1282" data-name="Path 1282" d="M104.988,486h40.6v2.42h-40.6Z" transform="translate(-104.988 -421.746)" fill="#80b6fc"/>
      <path id="Path_1283" data-name="Path 1283" d="M174.185,91.89A12.706,12.706,0,0,0,186.89,79.184V71.732a7.122,7.122,0,0,0-3.432-6.053,6.648,6.648,0,0,1-2.29-2.941c-2-4.152-4.858-4.273-6.983-4.273s-4.984.121-6.983,4.273a6.648,6.648,0,0,1-2.29,2.941,7.123,7.123,0,0,0-3.432,6.053v7.452A12.706,12.706,0,0,0,174.186,91.89Z" transform="translate(-153.886 -51.681)" fill="#f0c69e"/>
      <g id="Group_424" data-name="Group 424" transform="translate(7.594 25.083)">
        <path id="Path_1284" data-name="Path 1284" d="M174.184,207.306h0A12.706,12.706,0,0,1,161.479,194.6v2.42a12.705,12.705,0,1,0,25.411,0V194.6A12.706,12.706,0,0,1,174.184,207.306Z" transform="translate(-161.479 -194.6)" fill="#e6ba94"/>
        <path id="Path_1285" data-name="Path 1285" d="M255.995,307.12h0Z" transform="translate(-243.289 -291.995)" fill="#e6ba94"/>
      </g>
      <path id="Path_1286" data-name="Path 1286" d="M131.378,179.665v-5.092a4.289,4.289,0,0,0-.438-.022,4.237,4.237,0,1,0,.864,8.385A12.721,12.721,0,0,1,131.378,179.665Z" transform="translate(-123.784 -152.162)" fill="#e2ae84"/>
      <path id="Path_1287" data-name="Path 1287" d="M348.218,174.549a4.287,4.287,0,0,0-.438.022v5.092a12.722,12.722,0,0,1-.426,3.27,4.237,4.237,0,1,0,.864-8.385Z" transform="translate(-314.775 -152.161)" fill="#e2ae84"/>
      <path id="Path_1288" data-name="Path 1288" d="M130.94,200.093a4.238,4.238,0,0,1-4.06-3.027,4.239,4.239,0,0,0,4.924,5.358,12.7,12.7,0,0,1-.392-2.358A4.234,4.234,0,0,1,130.94,200.093Z" transform="translate(-123.784 -171.651)" fill="#d7a379"/>
      <path id="Path_1289" data-name="Path 1289" d="M348.219,200.094a4.268,4.268,0,0,1-.471-.027,12.707,12.707,0,0,1-.392,2.358,4.237,4.237,0,0,0,4.924-5.358A4.238,4.238,0,0,1,348.219,200.094Z" transform="translate(-314.775 -171.652)" fill="#d7a379"/>
      <path id="Path_1290" data-name="Path 1290" d="M218.67,214.9c1.63,3.127,5.784,1.864,5.784,1.864s.571-5.49-5.784-5.49-5.783,5.49-5.783,5.49,4.154,1.263,5.784-1.864Z" transform="translate(-198.371 -183.95)" fill="#b9c1cb"/>
      <path id="Path_1291" data-name="Path 1291" d="M181.742,308.126l4.185,10.179,5.8-3.684-5.205-7.417a15.6,15.6,0,0,0-4.776.923Z" transform="translate(-171.425 -266.983)" fill="#fcf5f5"/>
      <path id="Path_1292" data-name="Path 1292" d="M261.2,307.2,256,314.619l5.8,3.684,4.185-10.179A15.6,15.6,0,0,0,261.2,307.2Z" transform="translate(-235.698 -266.982)" fill="#fcf5f5"/>
      <path id="Path_1293" data-name="Path 1293" d="M222.43,314.548l-5.213-7.428h10.426Z" transform="translate(-202.131 -266.911)" fill="#e2ae84"/>
    </g>
    <g id="Group_426" data-name="Group 426" transform="translate(97.177 0)">
      <path id="Path_1294" data-name="Path 1294" d="M138.866,378.667a1.01,1.01,0,0,0-1.01,1.01v3.842h-6.015v-7.882a1.01,1.01,0,0,0-2.02,0v7.882H107.232v-7.882a1.01,1.01,0,0,0-2.02,0v7.882H99.2V373.7a14.538,14.538,0,0,1,1.441-6.35,1.01,1.01,0,1,0-1.821-.875,16.543,16.543,0,0,0-1.64,7.225v10.831a1.01,1.01,0,0,0,1.01,1.01h40.678a1.01,1.01,0,0,0,1.01-1.01v-4.852A1.01,1.01,0,0,0,138.866,378.667Z" transform="translate(-97.177 -316.714)"/>
      <path id="Path_1295" data-name="Path 1295" d="M144.268,40.44a13.811,13.811,0,0,0,6.119-7.5c.048,0,.1,0,.143,0a5.253,5.253,0,0,0,4.689-7.625c1.182-9.051-.09-15.788-3.786-20.022C148.366,1.781,143.631,0,137.36,0c-5.49,0-9.651,1.292-12.721,3.948a1.01,1.01,0,1,0,1.322,1.528c2.687-2.325,6.415-3.456,11.4-3.456,5.742,0,9.847,1.506,12.551,4.6,3.066,3.513,4.242,9.118,3.505,16.676a5.222,5.222,0,0,0-2.317-.836V21.1a8.1,8.1,0,0,0-3.92-6.925,5.7,5.7,0,0,1-1.914-2.525C142.929,6.8,139.306,6.8,137.359,6.8s-5.57,0-7.907,4.853a5.7,5.7,0,0,1-1.914,2.525,8.1,8.1,0,0,0-3.92,6.925v1.363a5.221,5.221,0,0,0-2.317.837c-.627-6.445.136-11.482,2.276-14.993a1.01,1.01,0,1,0-1.725-1.051c-2.576,4.226-3.366,10.3-2.352,18.061a5.253,5.253,0,0,0,4.689,7.624c.047,0,.095,0,.142,0a13.811,13.811,0,0,0,6.119,7.5,16.683,16.683,0,0,0-10.437,5.7,1.01,1.01,0,1,0,1.535,1.313,14.683,14.683,0,0,1,5.257-3.9l3.811,9.27a1.016,1.016,0,0,0,1.476.468l4.256-2.7v6.45a1.01,1.01,0,0,0,2.02,0v-6.45l4.256,2.7a1.016,1.016,0,0,0,1.476-.468l3.811-9.269a14.7,14.7,0,0,1,8.776,13.436v1.939a1.01,1.01,0,1,0,2.02,0V56.983A16.72,16.72,0,0,0,144.268,40.44ZM151.1,28.567V24.5a3.234,3.234,0,0,1-.2,6.4,13.777,13.777,0,0,0,.2-2.333Zm-30.144-.88a3.239,3.239,0,0,1,2.664-3.183v4.063a13.773,13.773,0,0,0,.2,2.333A3.239,3.239,0,0,1,120.955,27.687Zm4.684.88V21.1a6.1,6.1,0,0,1,2.959-5.2,7.5,7.5,0,0,0,2.675-3.369c1.786-3.71,4.171-3.71,6.087-3.71s4.3,0,6.087,3.71a7.5,7.5,0,0,0,2.675,3.369,6.1,6.1,0,0,1,2.959,5.2v7.467a11.72,11.72,0,1,1-23.44,0Zm6.388,22.366-3.318-8.07a14.665,14.665,0,0,1,2.93-.515l4.286,6.108Zm5.332-3.951-3.28-4.674h6.56Zm5.332,3.951-3.9-2.477,4.287-6.109a14.588,14.588,0,0,1,2.93.514Z" transform="translate(-116.01 0)"/>
      <path id="Path_1296" data-name="Path 1296" d="M204.614,170.739v-2.854a1.01,1.01,0,1,0-2.02,0v2.854a1.01,1.01,0,0,0,2.02,0Z" transform="translate(-188.424 -144.443)"/>
      <path id="Path_1297" data-name="Path 1297" d="M295.386,171.749a1.01,1.01,0,0,0,1.01-1.01v-2.854a1.01,1.01,0,1,0-2.02,0v2.854A1.01,1.01,0,0,0,295.386,171.749Z" transform="translate(-267.868 -144.443)"/>
      <path id="Path_1298" data-name="Path 1298" d="M218.187,211.15a1.01,1.01,0,0,0,.711-.862,6.453,6.453,0,0,0-1.484-4.616,8.065,8.065,0,0,0-10.632,0,6.453,6.453,0,0,0-1.484,4.616,1.01,1.01,0,0,0,.711.862c1.446.44,4.276.634,6.089-1.146a5.558,5.558,0,0,0,3.959,1.446A7.538,7.538,0,0,0,218.187,211.15Zm-5.177-3.271c-.014-.03-.03-.059-.047-.088a1.01,1.01,0,0,0-.864-.486h0a1.01,1.01,0,0,0-.864.486c-.017.029-.033.058-.047.088-.888,1.658-2.807,1.643-3.862,1.489a4.1,4.1,0,0,1,.97-2.357,6.143,6.143,0,0,1,7.607,0,4.1,4.1,0,0,1,.97,2.357c-1.056.154-2.974.168-3.862-1.489Z" transform="translate(-190.749 -176.294)"/>
      <path id="Path_1299" data-name="Path 1299" d="M221.134,131.117h7.625a1.01,1.01,0,1,0,0-2.02h-7.625a1.01,1.01,0,0,0,0,2.02Z" transform="translate(-203.597 -111.743)"/>
      <path id="Path_1300" data-name="Path 1300" d="M233.657,102.5h4.258a1.01,1.01,0,0,0,0-2.02h-4.258a1.01,1.01,0,1,0,0,2.02Z" transform="translate(-214.437 -86.974)"/>
    </g>
  </g>
</svg>
