<svg xmlns="http://www.w3.org/2000/svg" width="68.55" height="57.502" viewBox="0 0 68.55 57.502">
  <g id="autobus" transform="translate(0 -41.261)">
    <path id="Path_2116" data-name="Path 2116" d="M127.917,179.764H75.037a4.45,4.45,0,0,0-4.352,3.524l-.785,3.686a4.449,4.449,0,0,0,4.352,5.375h53.68S127.926,179.9,127.917,179.764Z" transform="translate(-60.456 -119.96)" fill="#ade4f9"/>
    <path id="Path_2117" data-name="Path 2117" d="M69.855,166.863h4.552V160.3H61.287V147.718H74.392a5.355,5.355,0,0,0-5.34-4.954H13.357A5.355,5.355,0,0,0,8,148.119v24.634a5.355,5.355,0,0,0,5.355,5.355h3.481a7.5,7.5,0,1,1,14.995,0h17.4a7.5,7.5,0,1,1,14.995,0h4.82a5.355,5.355,0,0,0,5.355-5.355v-1.607H69.855a2.142,2.142,0,1,1,0-4.284ZM20.727,160.3a4.449,4.449,0,0,1-4.352-5.375l.785-3.686a4.45,4.45,0,0,1,4.352-3.524h4.162V160.3Zm7.089,0V147.718H41.74V160.3Zm16.066,0V147.718H59.144V160.3Z" transform="translate(-6.931 -87.914)" fill="#a3d19d"/>
    <path id="Path_2118" data-name="Path 2118" d="M417.339,360.764v.8a5.355,5.355,0,0,1-5.355,5.355h-4.82a7.486,7.486,0,0,0-3.221-6.159Z" transform="translate(-349.863 -276.728)" fill="#85b27c"/>
    <path id="Path_2119" data-name="Path 2119" d="M20.351,305.434a7.488,7.488,0,0,0-3.513,6.351H13.357A5.355,5.355,0,0,1,8,306.43V297.1l.673.989A17.22,17.22,0,0,0,20.351,305.434Z" transform="translate(-6.931 -221.591)" fill="#85b27c"/>
    <path id="Path_2120" data-name="Path 2120" d="M161.942,360.764h23.847a7.487,7.487,0,0,0-3.221,6.159h-17.4A7.487,7.487,0,0,0,161.942,360.764Z" transform="translate(-140.261 -276.728)" fill="#85b27c"/>
    <path id="Path_2121" data-name="Path 2121" d="M74.392,147.718H21.512a4.449,4.449,0,0,0-4.33,3.427c-.023.093.045-.225-.629,2.945A19.166,19.166,0,0,1,8,148.347a5.365,5.365,0,0,1,5.355-5.583H69.052A5.355,5.355,0,0,1,74.392,147.718Z" transform="translate(-6.931 -87.914)" fill="#c8e3c4"/>
    <path id="Path_2122" data-name="Path 2122" d="M460.694,322.764v4.284h-4.552a2.142,2.142,0,1,1,0-4.284Z" transform="translate(-393.218 -243.816)" fill="#fee8b4"/>
    <path id="Path_2123" data-name="Path 2123" d="M197.419,107.977v1.874H176v-1.874a3.214,3.214,0,0,1,3.213-3.213h14.995A3.214,3.214,0,0,1,197.419,107.977Z" transform="translate(-152.435 -55.002)" fill="#fcdca0"/>
    <g id="Group_625" data-name="Group 625" transform="translate(9.345 59.804)">
      <path id="Path_2124" data-name="Path 2124" d="M76.967,179.764l-5.051,11.925a4.448,4.448,0,0,1-2.018-4.715l.785-3.686a4.45,4.45,0,0,1,4.352-3.524Z" transform="translate(-69.799 -179.764)" fill="#d6f7ff"/>
      <path id="Path_2125" data-name="Path 2125" d="M171.129,179.764,165.8,192.349h-2.276l5.331-12.585Z" transform="translate(-150.974 -179.764)" fill="#d6f7ff"/>
      <path id="Path_2126" data-name="Path 2126" d="M199.866,179.764l-5.331,12.585h-4.016l5.331-12.585Z" transform="translate(-174.356 -179.764)" fill="#d6f7ff"/>
      <path id="Path_2127" data-name="Path 2127" d="M299.866,179.764l-5.331,12.585h-4.016l5.331-12.585Z" transform="translate(-260.968 -179.764)" fill="#d6f7ff"/>
      <path id="Path_2128" data-name="Path 2128" d="M449.017,192.349h-8.5l5.331-12.585H449C449.025,180.086,449.017,179.241,449.017,192.349Z" transform="translate(-390.886 -179.764)" fill="#d6f7ff"/>
      <path id="Path_2129" data-name="Path 2129" d="M340.723,179.764l-5.331,12.585h-1.874l5.331-12.585Z" transform="translate(-298.211 -179.764)" fill="#d6f7ff"/>
      <path id="Path_2130" data-name="Path 2130" d="M419.383,179.764l-5.331,12.585h-1.874l5.331-12.585Z" transform="translate(-366.34 -179.764)" fill="#d6f7ff"/>
    </g>
    <path id="Path_2131" data-name="Path 2131" d="M323.5,350.764a7.5,7.5,0,1,1-7.5,7.5A7.5,7.5,0,0,1,323.5,350.764Zm1.071,7.5a1.071,1.071,0,1,0-1.071,1.071A1.071,1.071,0,0,0,324.569,358.261Z" transform="translate(-273.695 -268.067)" fill="#414754"/>
    <path id="Path_2132" data-name="Path 2132" d="M81.5,350.764a7.5,7.5,0,1,1-7.5,7.5A7.5,7.5,0,0,1,81.5,350.764Zm1.071,7.5a1.071,1.071,0,1,0-1.071,1.071A1.071,1.071,0,0,0,82.569,358.261Z" transform="translate(-64.094 -268.067)" fill="#414754"/>
    <path id="Path_2133" data-name="Path 2133" d="M.181,230.389a1.071,1.071,0,1,0,.133-1.352,1.072,1.072,0,0,0-.133,1.352Z" transform="translate(0 -162.36)"/>
    <path id="Path_2134" data-name="Path 2134" d="M17.4,269.359a8.579,8.579,0,0,0-8.5,7.5H6.426a4.289,4.289,0,0,1-4.284-4.284v-1.74H5.221a1.071,1.071,0,1,0,0-2.142H2.142v-1.874H6.56a1.071,1.071,0,1,0,0-2.142H2.142v-5.59a1.071,1.071,0,0,0-2.142,0v13.488A6.433,6.433,0,0,0,6.426,279H8.905a8.567,8.567,0,1,0,8.5-9.639Zm0,14.995a6.426,6.426,0,1,1,6.426-6.426A6.433,6.433,0,0,1,17.4,284.354Z" transform="translate(0 -187.733)"/>
    <path id="Path_2135" data-name="Path 2135" d="M116.142,390.763a2.142,2.142,0,1,0,2.142,2.142A2.145,2.145,0,0,0,116.142,390.763Z" transform="translate(-98.738 -302.711)"/>
    <path id="Path_2136" data-name="Path 2136" d="M358.142,390.763a2.142,2.142,0,1,0,2.142,2.142A2.145,2.145,0,0,0,358.142,390.763Z" transform="translate(-308.339 -302.711)"/>
    <path id="Path_2137" data-name="Path 2137" d="M68.512,59.537a6.435,6.435,0,0,0-6.391-5.758H46.055v-.8a4.289,4.289,0,0,0-4.284-4.284H40.483l-4.437-6.937a1.071,1.071,0,0,0-1.8,1.154l3.7,5.782h-8.7L24.8,41.755A1.071,1.071,0,1,0,23,42.909l3.7,5.784a4.289,4.289,0,0,0-4.2,4.282v.8H6.426A6.434,6.434,0,0,0,0,60.205v2.812a1.071,1.071,0,0,0,2.142,0V60.205a4.289,4.289,0,0,1,4.284-4.284H62.121a4.292,4.292,0,0,1,4.023,2.811H14.581a5.547,5.547,0,0,0-5.4,4.371L8.4,66.79a5.52,5.52,0,0,0,5.4,6.669H66.4v4.418H62.924a3.213,3.213,0,1,0,0,6.426H66.4v.536a4.289,4.289,0,0,1-4.284,4.284H58.3a8.566,8.566,0,0,0-17,0H29.722a1.071,1.071,0,0,0,0,2.142H41.3a8.566,8.566,0,0,0,17,0h3.818a6.434,6.434,0,0,0,6.426-6.426C68.547,58.076,68.566,59.748,68.512,59.537ZM24.634,53.779v-.8a2.145,2.145,0,0,1,2.142-2.142H41.771a2.145,2.145,0,0,1,2.142,2.142v.8ZM49.8,96.621a6.426,6.426,0,1,1,6.426-6.426A6.433,6.433,0,0,1,49.8,96.621ZM36.951,60.874H52.214V71.317H36.951ZM34.809,71.317H20.885V60.874H34.809ZM10.492,67.236l.784-3.686a3.4,3.4,0,0,1,3.3-2.675h4.163V71.317H13.8A3.378,3.378,0,0,1,10.492,67.236Zm43.864,4.081V60.874H66.4V71.317Zm8.568,10.844a1.071,1.071,0,1,1,0-2.142H66.4v2.142Z" transform="translate(0)"/>
    <path id="Path_2138" data-name="Path 2138" d="M319.213,309.905a1.071,1.071,0,0,0,0-2.142h-2.142a1.071,1.071,0,0,0,0,2.142Z" transform="translate(-273.694 -230.823)"/>
  </g>
</svg>
