<svg xmlns="http://www.w3.org/2000/svg" width="61.195" height="58.228" viewBox="0 0 61.195 58.228">
  <g id="bicycle" transform="translate(0 -12.413)">
    <path id="Path_2078" data-name="Path 2078" d="M97.65,213.739H93.491a3.318,3.318,0,0,1-3.318-3.318v-1.463h3.39Z" transform="translate(-79.395 -173.054)" fill="#6e87f5"/>
    <circle id="Ellipse_120" data-name="Ellipse 120" cx="4.183" cy="4.183" r="4.183" transform="translate(31.972 13.608)" fill="#ffe6c3"/>
    <path id="Path_2079" data-name="Path 2079" d="M227.873,371.739v-4.781h4.349A4.781,4.781,0,0,1,237,371.739h-9.13Z" transform="translate(-200.637 -312.169)" fill="#f5c86e"/>
    <path id="Path_2080" data-name="Path 2080" d="M132.512,203.081l-2.376-10.359-7.738-4.468c-2.47-1.426-3.583-5.139-1.869-7.419l9.117,2.517,4.612,4.612a8.907,8.907,0,0,1,2.464,4.7l1.713,10.646Z" transform="translate(-105.396 -148.292)" fill="#7d9bff"/>
    <path id="Path_2081" data-name="Path 2081" d="M154.854,96.677l-10.721-9.518a5.466,5.466,0,0,0-7.73,0l-9.787,9.787,9.117,2.517,6.529-6.529,12.592,9.121V96.677Z" transform="translate(-111.483 -64.403)" fill="#a5dc69"/>
    <g id="Group_618" data-name="Group 618" transform="translate(1.195 45.6)">
      <circle id="Ellipse_121" data-name="Ellipse 121" cx="11.922" cy="11.922" r="11.922" fill="#c8f5ff"/>
      <circle id="Ellipse_122" data-name="Ellipse 122" cx="11.922" cy="11.922" r="11.922" transform="translate(34.96)" fill="#c8f5ff"/>
    </g>
    <path id="Path_2082" data-name="Path 2082" d="M59.535,61.042a1.2,1.2,0,0,0-1.565.638,10.73,10.73,0,0,1-20.412-2.053c0-.019,0-.037,0-.057a5.961,5.961,0,0,0-.2-1.524q-.013-.26-.013-.523a10.744,10.744,0,0,1,6.688-9.937l2.889,10.261a1.2,1.2,0,1,0,2.3-.648L46.339,46.937a10.734,10.734,0,0,1,11.575,6.3,1.2,1.2,0,0,0,2.191-.956,13.127,13.127,0,0,0-14.417-7.657l-.1-.364a27.242,27.242,0,0,1-.774-3.74h0q-.148-1.1-.207-2.2a1.2,1.2,0,0,0,1.172.961H47.41a4.1,4.1,0,1,0,0-8.2H43.825l-9.167-8.123a5.383,5.383,0,1,0-3.114-2.4,6.668,6.668,0,0,0-7.469,1.355L14.288,31.7l-.007.008a1.2,1.2,0,0,0-.089.1l-.01.012,0,0a5.384,5.384,0,0,0-1.051,2.884H10.778a1.2,1.2,0,0,0-1.2,1.2v1.463A4.519,4.519,0,0,0,14.1,41.881h1.417L14.9,44.527A13.114,13.114,0,0,0,5.577,68.25H1.2a1.2,1.2,0,0,0,0,2.39H13.118A13.139,13.139,0,0,0,26.051,59.718a1.2,1.2,0,0,0,1.185,1.047h8.13a13.158,13.158,0,0,0,5.171,7.485H32.948a1.2,1.2,0,1,0,0,2.39H48.078a13.1,13.1,0,0,0,12.1-8.034A1.2,1.2,0,0,0,59.535,61.042Zm-24.3-6.2a5.986,5.986,0,0,0-1.123-.687l-.455-2.827,9.165-8.3q.2.946.463,1.88l.1.365A13.167,13.167,0,0,0,35.235,54.843Zm-7.167-1.25L25.9,44.163a1.2,1.2,0,0,0-.567-.768L17.6,38.927a4.465,4.465,0,0,1-2.01-2.933,3.671,3.671,0,0,1,.124-2.051l3.481.961,4.435,1.224,4.389,4.389a7.677,7.677,0,0,1,2.131,4.054L31.6,53.594H28.068ZM16.687,47.407a10.755,10.755,0,0,1,7.091,8.921H14.621Zm25.523-9.12q.029.6.082,1.2H30.313c-.191-.228-.392-.45-.605-.663L25.941,35.06,30.9,30.1Zm-9.7,5.891,0-.025a10.116,10.116,0,0,0-.7-2.273h8.726L33.2,48.515Zm16.613-9a1.712,1.712,0,0,1-1.71,1.71H45.777a1.2,1.2,0,0,0-1.189,1.072q-.022-.541-.022-1.082V33.469H47.41A1.712,1.712,0,0,1,49.12,35.179ZM36.155,14.8a2.988,2.988,0,1,1-2.988,2.988A2.991,2.991,0,0,1,36.155,14.8Zm-10.39,8.8a4.271,4.271,0,0,1,6.04,0l10.371,9.21v2.5l-10.7-7.747a1.2,1.2,0,0,0-1.546.123L23.9,33.723l-3.989-1.1-2.479-.685ZM11.973,37.367V37.1h1.435a7.073,7.073,0,0,0,1.258,2.39H14.1A2.126,2.126,0,0,1,11.973,37.367Zm5.99,4.53L23.692,45.2l1.881,8.2a13.179,13.179,0,0,0-8.343-8.339ZM13.118,68.25a10.727,10.727,0,1,1,1.241-21.382l-2.4,10.386a1.2,1.2,0,0,0,1.164,1.465h10.66A10.742,10.742,0,0,1,13.118,68.25Zm15.313-9.876v-2.39h3.154a3.592,3.592,0,0,1,3.381,2.39Z"/>
    <path id="Path_2083" data-name="Path 2083" d="M493.194,379.833a1.2,1.2,0,0,0-1.2,1.2v.056a1.2,1.2,0,0,0,1.192,1.2h0a1.2,1.2,0,0,0,1.2-1.192v-.063A1.2,1.2,0,0,0,493.194,379.833Z" transform="translate(-433.194 -323.505)"/>
    <path id="Path_2084" data-name="Path 2084" d="M227.525,479.587a1.2,1.2,0,1,0,.845.35A1.2,1.2,0,0,0,227.525,479.587Z" transform="translate(-199.279 -411.336)"/>
  </g>
</svg>
