<svg xmlns="http://www.w3.org/2000/svg" width="198.24" height="198.24" viewBox="0 0 198.24 198.24">
  <g id="cancer" transform="translate(-0.001 -0.001)">
    <g id="Group_454" data-name="Group 454" transform="translate(0.001 18.809)">
      <path id="Path_1500" data-name="Path 1500" d="M83.714,348.771,68.406,364.079H54.386a5.808,5.808,0,1,0,0,11.616H65v10.617a5.808,5.808,0,1,0,11.616,0v-14.02l15.308-15.308a5.807,5.807,0,1,0-8.213-8.213Z" transform="translate(-29.769 -231.497)" fill="#ff435b"/>
      <path id="Path_1501" data-name="Path 1501" d="M76.619,68.406V54.386a5.808,5.808,0,1,0-11.616,0V65H54.386a5.808,5.808,0,0,0,0,11.616h14.02L83.714,91.927a5.807,5.807,0,0,0,8.213-8.213Z" transform="translate(-29.769 -48.578)" fill="#ff435b"/>
      <path id="Path_1502" data-name="Path 1502" d="M41.042,234.232a5.808,5.808,0,1,0,0-11.616H19.829L9.915,212.7A5.807,5.807,0,0,0,1.7,220.915l7.509,7.509L1.7,235.933a5.807,5.807,0,0,0,8.213,8.213l9.914-9.914Z" transform="translate(-0.001 -148.112)" fill="#ff435b"/>
    </g>
    <path id="Path_1503" data-name="Path 1503" d="M356.984,91.927l15.308-15.308h14.021a5.808,5.808,0,0,0,0-11.616H375.695V54.386a5.808,5.808,0,0,0-11.616,0v14.02L348.771,83.714a5.807,5.807,0,0,0,8.213,8.213Z" transform="translate(-212.688 -29.769)" fill="#d0004f"/>
    <path id="Path_1504" data-name="Path 1504" d="M386.312,364.079H372.292l-15.308-15.308a5.807,5.807,0,0,0-8.213,8.213l15.308,15.308v14.021a5.808,5.808,0,1,0,11.616,0V375.695h10.617a5.808,5.808,0,1,0,0-11.616Z" transform="translate(-212.688 -212.688)" fill="#d0004f"/>
    <path id="Path_1505" data-name="Path 1505" d="M428.639,228.423l7.51-7.51a5.807,5.807,0,0,0-8.213-8.213l-9.914,9.914H396.808a5.808,5.808,0,1,0,0,11.616h21.214l9.914,9.914a5.807,5.807,0,0,0,8.213-8.213Z" transform="translate(-239.609 -129.303)" fill="#d0004f"/>
    <path id="Path_1506" data-name="Path 1506" d="M222.616,19.829V41.042a5.808,5.808,0,0,0,11.616,0V19.829l9.914-9.914A5.807,5.807,0,0,0,235.932,1.7l-7.509,7.509L220.914,1.7A5.807,5.807,0,1,0,212.7,9.915Z" transform="translate(-129.303 0)" fill="#ff435b"/>
    <path id="Path_1507" data-name="Path 1507" d="M234.232,418.022V396.808a5.808,5.808,0,1,0-11.616,0v21.214l-9.914,9.914a5.807,5.807,0,0,0,8.213,8.213l7.509-7.509,7.51,7.51a5.807,5.807,0,0,0,8.213-8.213Z" transform="translate(-129.303 -239.609)" fill="#ff435b"/>
    <path id="Path_1508" data-name="Path 1508" d="M261.808,41.042V19.829l9.914-9.914A5.807,5.807,0,0,0,263.509,1.7L256,9.211V46.85A5.8,5.8,0,0,0,261.808,41.042Z" transform="translate(-156.879 0)" fill="#d0004f"/>
    <path id="Path_1509" data-name="Path 1509" d="M271.722,436.148a5.806,5.806,0,0,0,0-8.213l-9.914-9.914V396.808A5.8,5.8,0,0,0,256,391v37.639l7.51,7.51A5.805,5.805,0,0,0,271.722,436.148Z" transform="translate(-156.879 -239.609)" fill="#d0004f"/>
    <path id="Path_1510" data-name="Path 1510" d="M218.772,154.886a29.057,29.057,0,0,0-12.279-23.651,22.171,22.171,0,0,0,.664-5.388,23.254,23.254,0,0,0-23.231-23.231,22.169,22.169,0,0,0-5.388.664,28.917,28.917,0,0,0-47.3,0,22.168,22.168,0,0,0-5.388-.664,23.254,23.254,0,0,0-23.231,23.231,22.169,22.169,0,0,0,.664,5.388,28.917,28.917,0,0,0,0,47.3,22.171,22.171,0,0,0-.664,5.388,23.254,23.254,0,0,0,23.231,23.231,22.169,22.169,0,0,0,5.388-.664,28.917,28.917,0,0,0,47.3,0,22.171,22.171,0,0,0,5.388.664,23.254,23.254,0,0,0,23.231-23.231,22.169,22.169,0,0,0-.664-5.388,29.057,29.057,0,0,0,12.279-23.651Z" transform="translate(-55.765 -55.765)" fill="#ff7b4a"/>
    <path id="Path_1511" data-name="Path 1511" d="M279.651,206.493a22.171,22.171,0,0,0,5.388.664,23.254,23.254,0,0,0,23.231-23.231,22.168,22.168,0,0,0-.664-5.388,28.917,28.917,0,0,0,0-47.3,22.171,22.171,0,0,0,.664-5.388,23.254,23.254,0,0,0-23.231-23.231,22.169,22.169,0,0,0-5.388.664A29.057,29.057,0,0,0,256,91V218.772a29.057,29.057,0,0,0,23.651-12.279Z" transform="translate(-156.879 -55.765)" fill="#ff435b"/>
    <circle id="Ellipse_99" data-name="Ellipse 99" cx="6" cy="6" r="6" transform="translate(58.001 93.242)" fill="#ff435b"/>
    <circle id="Ellipse_100" data-name="Ellipse 100" cx="6" cy="6" r="6" transform="translate(128.001 93.242)" fill="#d0004f"/>
    <g id="Group_455" data-name="Group 455" transform="translate(81.697 58.466)">
      <circle id="Ellipse_101" data-name="Ellipse 101" cx="6" cy="6" r="6" transform="translate(11.304 -0.224)" fill="#ff435b"/>
      <circle id="Ellipse_102" data-name="Ellipse 102" cx="17.5" cy="17.5" r="17.5" transform="translate(0.304 22.776)" fill="#ff435b"/>
      <circle id="Ellipse_103" data-name="Ellipse 103" cx="6" cy="6" r="6" transform="translate(11.304 69.776)" fill="#ff435b"/>
    </g>
    <path id="Path_1512" data-name="Path 1512" d="M273.423,228.423A17.443,17.443,0,0,0,256,211v34.847A17.443,17.443,0,0,0,273.423,228.423Z" transform="translate(-156.879 -129.303)" fill="#d0004f"/>
    <path id="Path_1513" data-name="Path 1513" d="M261.808,156.808A5.808,5.808,0,0,0,256,151v11.616A5.808,5.808,0,0,0,261.808,156.808Z" transform="translate(-156.879 -92.534)" fill="#d0004f"/>
    <path id="Path_1514" data-name="Path 1514" d="M261.808,336.808A5.808,5.808,0,0,0,256,331v11.616A5.808,5.808,0,0,0,261.808,336.808Z" transform="translate(-156.879 -202.84)" fill="#d0004f"/>
  </g>
</svg>
