<svg xmlns="http://www.w3.org/2000/svg" width="193.122" height="231.538" viewBox="0 0 193.122 231.538">
  <g id="cardiovascular" transform="translate(-9624 -5745)">
    <path id="Path_1527" data-name="Path 1527" d="M145.341,185.109H135.9c-.02,0-.04,0-.061,0l0,0H73.755a29.7,29.7,0,0,0-29.7,29.7v26.962H175.039V214.807a29.7,29.7,0,0,0-29.7-29.7Z" transform="translate(9592.817 5732.769)" fill="#6bdddd"/>
    <path id="Path_1528" data-name="Path 1528" d="M168.147,100.54c-.124,0-.244.016-.368.018V95.106c0-31.871-26.071-57.707-58.232-57.707S51.315,63.235,51.315,95.106v5.452c-.124,0-.244-.018-.368-.018a17.607,17.607,0,1,0,0,35.212,18.184,18.184,0,0,0,1.906-.1,58.347,58.347,0,0,0,113.386,0,18.188,18.188,0,0,0,1.906.1,17.607,17.607,0,1,0,0-35.212Z" transform="translate(9592.817 5732.769)" fill="#f9cfcf"/>
    <path id="Path_1529" data-name="Path 1529" d="M109.548,182.2a59.853,59.853,0,0,1-58.229-44.453,19.6,19.6,0,0,1-2-39.141v-3.5c0-32.923,27.02-59.707,60.231-59.707s60.231,26.784,60.231,59.707v3.5a19.6,19.6,0,0,1-1.632,39.144c-.123,0-.247,0-.37,0A59.854,59.854,0,0,1,109.548,182.2ZM52.856,133.646a2,2,0,0,1,1.945,1.542,56.347,56.347,0,0,0,109.493,0,2,2,0,0,1,2.158-1.531,15.9,15.9,0,0,0,1.7.094,15.606,15.606,0,1,0,.011-31.21c-.158.011-.252.017-.348.019a2.052,2.052,0,0,1-1.435-.574,2,2,0,0,1-.6-1.426V95.108c0-30.717-25.226-55.707-56.231-55.707S53.316,64.391,53.316,95.108v5.452a2,2,0,0,1-.6,1.426,2.078,2.078,0,0,1-1.435.574c-.1,0-.19-.008-.285-.015h-.008a15.6,15.6,0,1,0,1.652,31.113,1.929,1.929,0,0,1,.213-.012Z" transform="translate(9592.817 5732.769)"/>
    <path id="Path_1530" data-name="Path 1530" d="M109.548,180.2a58.379,58.379,0,0,1-26.424-6.275V184.01a26.416,26.416,0,0,0,52.832,0V173.933a58.377,58.377,0,0,1-26.408,6.267Z" transform="translate(9592.817 5732.769)" fill="#f9cfcf"/>
    <path id="Path_1531" data-name="Path 1531" d="M175.039,243.769H44.057a2,2,0,0,1-2-2V214.807a31.733,31.733,0,0,1,31.7-31.7h7.37v-9.185a2,2,0,0,1,2.9-1.784,56.769,56.769,0,0,0,51.028.007,2,2,0,0,1,2.9,1.785v9.177h7.384a31.733,31.733,0,0,1,31.7,31.7v26.962a2,2,0,0,1-2,2Zm-128.982-4H173.039V214.807a27.729,27.729,0,0,0-27.7-27.7h-9.412a2,2,0,0,1-2-2.086c.015-.336.026-.674.026-1.015v-6.918a60.859,60.859,0,0,1-48.832-.007v6.925c0,.342.012.68.026,1.018a2,2,0,0,1-2,2.083h-9.4a27.729,27.729,0,0,0-27.7,27.7v24.962Z" transform="translate(9592.817 5732.769)"/>
    <path id="Path_1532" data-name="Path 1532" d="M93.278,91.181H35.134V70.992A56.761,56.761,0,0,1,91.9,14.231h16.327a14.944,14.944,0,0,1,14.944,14.944V61.293A29.888,29.888,0,0,1,93.278,91.181Z" transform="translate(9592.817 5732.769)" fill="#4671c6"/>
    <path id="Path_1533" data-name="Path 1533" d="M183.036,89.182H149.2a26.033,26.033,0,0,1-26.033-26.033V27.889a13.657,13.657,0,0,1,13.657-13.657,46.213,46.213,0,0,1,46.213,46.213Z" transform="translate(9592.817 5732.769)" fill="#4671c6"/>
    <path id="Path_1534" data-name="Path 1534" d="M41.255,91.181V103.4a17.779,17.779,0,0,1,9.693-2.863c.124,0,.244.016.368.018V95.106c0-1.32.053-2.628.141-3.926h-10.2Z" transform="translate(9592.817 5732.769)" fill="#4671c6"/>
    <path id="Path_1535" data-name="Path 1535" d="M167.466,89.182a57.693,57.693,0,0,1,.314,5.925v5.452c.124,0,.244-.018.368-.018a17.783,17.783,0,0,1,9.679,2.854V89.182Z" transform="translate(9592.817 5732.769)" fill="#4671c6"/>
    <path id="Path_1536" data-name="Path 1536" d="M72.758,128.453A2,2,0,0,1,71.8,124.7l14.138-7.732a.078.078,0,0,0,.05-.086l-14.163-7.533a2,2,0,0,1,1.867-3.537L87.8,113.258a4.1,4.1,0,0,1,.054,7.218l-14.139,7.732a1.986,1.986,0,0,1-.956.245Z" transform="translate(9592.817 5732.769)"/>
    <path id="Path_1537" data-name="Path 1537" d="M146.153,128.453a2,2,0,0,1-.958-.245l-14.139-7.732a4.1,4.1,0,0,1,.054-7.218l14.111-7.448a2,2,0,1,1,1.867,3.537L132.977,116.8c-.053.144-.028.156,0,.171l14.139,7.732a2,2,0,0,1-.962,3.755Z" transform="translate(9592.817 5732.769)"/>
    <path id="Path_1538" data-name="Path 1538" d="M124.539,154.072H94.556a3.045,3.045,0,0,1-3.045-3.045,13.863,13.863,0,0,1,13.863-13.863h8.347a13.863,13.863,0,0,1,13.863,13.863A3.045,3.045,0,0,1,124.539,154.072Z" transform="translate(9592.817 5732.769)" fill="#f9a7a7"/>
    <g id="Group_456" data-name="Group 456" transform="translate(9592.817 5732.769)">
      <path id="Path_1539" data-name="Path 1539" d="M93.278,93.181H35.134a2,2,0,0,1-2-2V70.992A58.828,58.828,0,0,1,91.9,12.231h16.328a16.962,16.962,0,0,1,16.943,16.943V61.292A31.924,31.924,0,0,1,93.278,93.181Zm-56.144-4H93.279a27.919,27.919,0,0,0,27.887-27.888V29.175a12.957,12.957,0,0,0-12.943-12.943H91.9A54.823,54.823,0,0,0,37.134,70.993Z"/>
      <path id="Path_1540" data-name="Path 1540" d="M183.036,91.182H149.2a28.065,28.065,0,0,1-28.034-28.033V27.889a15.675,15.675,0,0,1,15.658-15.657,48.267,48.267,0,0,1,48.213,48.213V89.182A2,2,0,0,1,183.036,91.182ZM136.823,16.231a11.671,11.671,0,0,0-11.658,11.657v35.26A24.061,24.061,0,0,0,149.2,87.181h31.837V60.444a44.263,44.263,0,0,0-44.213-44.213Z"/>
      <path id="Path_1541" data-name="Path 1541" d="M41.255,105.4a2,2,0,0,1-2-2V91.181a2,2,0,0,1,2-2h10.2a2,2,0,0,1,1.995,2.136c-.092,1.349-.137,2.589-.137,3.79v5.452a2,2,0,0,1-.6,1.426,2.078,2.078,0,0,1-1.435.574c-.1,0-.19-.008-.285-.015h-.022a15.819,15.819,0,0,0-8.637,2.538,1.984,1.984,0,0,1-1.085.321Zm2-12.222v6.91a19.756,19.756,0,0,1,6.062-1.484v-3.5c0-.631.011-1.27.034-1.926Z"/>
      <path id="Path_1542" data-name="Path 1542" d="M177.826,105.395a2,2,0,0,1-1.085-.319,15.813,15.813,0,0,0-8.594-2.535c-.146.011-.24.017-.337.019a2.052,2.052,0,0,1-1.435-.574,2,2,0,0,1-.6-1.426V95.108a55.976,55.976,0,0,0-.3-5.72,2,2,0,0,1,1.989-2.205h10.36a2,2,0,0,1,2,2V103.4a2,2,0,0,1-2,2Zm-8.047-6.789a19.814,19.814,0,0,1,6.047,1.479v-8.9h-6.183c.091,1.33.136,2.644.136,3.925Z"/>
      <path id="Path_1543" data-name="Path 1543" d="M124.54,156.072H94.556a5.05,5.05,0,0,1-5.044-5.045,15.881,15.881,0,0,1,15.863-15.862h8.347a15.881,15.881,0,0,1,15.863,15.862,5.051,5.051,0,0,1-5.045,5.045Zm-19.165-16.907a11.876,11.876,0,0,0-11.863,11.862,1.046,1.046,0,0,0,1.044,1.045h29.983a1.046,1.046,0,0,0,1.044-1.045,11.876,11.876,0,0,0-11.863-11.862Z"/>
    </g>
    <path id="Path_1544" data-name="Path 1544" d="M159.026,201.013a13.979,13.979,0,0,0-12.87,2.748,13.981,13.981,0,0,0-12.87-2.748c-7.752,2.349-11.735,10.97-8.87,18.84a15.115,15.115,0,0,0,5.055,6.9l.005,0,14.85,11.452a3.246,3.246,0,0,0,.747.565,1.486,1.486,0,0,0,.253.125,2.09,2.09,0,0,0,2.208-.275v0l.053-.043.052-.042,1.872-1.508,13.325-10.276.005,0a15.122,15.122,0,0,0,5.055-6.9C170.761,211.983,166.778,203.362,159.026,201.013Z" transform="translate(9592.817 5732.769)" fill="#f9a7a7"/>
    <path id="Path_1545" data-name="Path 1545" d="M155.714,234.245a2,2,0,0,1-1.387-.559l-7.172-6.9a2.013,2.013,0,0,1-.562-.987l-2.387-10.246a2,2,0,0,1,3.9-.908l2.252,9.67L157.1,230.8a2,2,0,0,1-1.385,3.441Z" transform="translate(9592.817 5732.769)"/>
    <path id="Path_1546" data-name="Path 1546" d="M147.583,223.222a2.072,2.072,0,0,1-.381-.036l-7.536-1.452a2,2,0,0,1,.758-3.928l7.536,1.452a2,2,0,0,1-.377,3.964Z" transform="translate(9592.817 5732.769)"/>
    <path id="Path_1547" data-name="Path 1547" d="M146.217,241.088a4.244,4.244,0,0,1-1.686-.357,2.975,2.975,0,0,1-.471-.234,5.389,5.389,0,0,1-1.06-.786l-14.748-11.373a17.214,17.214,0,0,1-5.011-21.205A15.553,15.553,0,0,1,132.7,199.1a15.84,15.84,0,0,1,13.45,2.171A15.828,15.828,0,0,1,159.6,199.1a15.553,15.553,0,0,1,9.463,8.033,17.212,17.212,0,0,1-5.019,21.209l-13.317,10.271-1.839,1.482-.079.063c-.023.019-.048.036-.072.054a4.145,4.145,0,0,1-2.524.876Zm-.133-4.043a.583.583,0,0,0,.14.046,1.013,1.013,0,0,0,.1-.064c.02-.016.04-.03.061-.045v0l1.872-1.509,13.358-10.3a13.217,13.217,0,0,0,3.877-16.248,11.594,11.594,0,0,0-7.046-5.994,11.964,11.964,0,0,0-11.023,2.382,2,2,0,0,1-2.533,0,11.968,11.968,0,0,0-11.023-2.382,11.593,11.593,0,0,0-7.045,5.994,13.211,13.211,0,0,0,3.836,16.217l.04.03,14.851,11.453a2,2,0,0,1,.249.229,1.628,1.628,0,0,0,.243.17l.043.025Zm-.058-.024.027.012Z" transform="translate(9592.817 5732.769)"/>
    <path id="Path_1548" data-name="Path 1548" d="M171.056,202.992a3.2,3.2,0,0,1,.352-5.421l15.9-8.578-4.079-2.933a3.2,3.2,0,0,1,.347-5.42L204.017,169.6a3.2,3.2,0,0,1,3.048,5.638l-15.936,8.61,4.083,2.936a3.2,3.2,0,0,1-.35,5.421l-20.413,11.009a3.2,3.2,0,0,1-3.393-.219Z" transform="translate(9592.817 5732.769)" fill="#ffea92"/>
    <path id="Path_1549" data-name="Path 1549" d="M223.973,206.98a3.2,3.2,0,0,1-2.849,4.625l-18.07.133,2.231,4.5a3.2,3.2,0,0,1-2.844,4.627l-23.229.188a3.2,3.2,0,0,1-.052-6.409l18.113-.146-2.233-4.506a3.2,3.2,0,0,1,2.848-4.626l23.192-.17a3.206,3.206,0,0,1,2.893,1.783Z" transform="translate(9592.817 5732.769)" fill="#ffea92"/>
    <path id="Path_1550" data-name="Path 1550" d="M159.118,195.653a3.2,3.2,0,0,1-3.583-4.081l5.18-17.312-4.958.81a3.2,3.2,0,0,1-3.588-4.078l6.643-22.26a3.2,3.2,0,0,1,6.141,1.832l-5.18,17.357,4.963-.811a3.2,3.2,0,0,1,3.586,4.081l-6.65,22.219a3.2,3.2,0,0,1-2.554,2.243Z" transform="translate(9592.817 5732.769)" fill="#ffea92"/>
  </g>
</svg>
