<svg xmlns="http://www.w3.org/2000/svg" width="44" height="44" viewBox="0 0 44 44">
  <path id="close-declaration" d="M30.34,102,42.849,89.491a3.932,3.932,0,0,0,0-5.56l-2.78-2.78a3.932,3.932,0,0,0-5.56,0L22,93.66,9.491,81.151a3.932,3.932,0,0,0-5.56,0l-2.78,2.78a3.932,3.932,0,0,0,0,5.56L13.66,102,1.151,114.509a3.932,3.932,0,0,0,0,5.56l2.78,2.78a3.932,3.932,0,0,0,5.56,0L22,110.34l12.509,12.509a3.932,3.932,0,0,0,5.56,0l2.78-2.78a3.932,3.932,0,0,0,0-5.56Z" transform="translate(0 -80)" fill="#fff"/>
</svg>
