<svg xmlns="http://www.w3.org/2000/svg" width="12.282" height="12.282" viewBox="0 0 12.282 12.282">
  <path id="close" d="M-5823.869,2617.379l3.492-3.492a1.1,1.1,0,0,0,0-1.552l-.776-.776a1.1,1.1,0,0,0-1.552,0l-3.492,3.492-3.492-3.492a1.1,1.1,0,0,0-1.552,0l-.776.776a1.1,1.1,0,0,0,0,1.552l3.491,3.492-3.491,3.492a1.1,1.1,0,0,0,0,1.552l.776.776a1.1,1.1,0,0,0,1.552,0l3.492-3.491,3.492,3.491a1.1,1.1,0,0,0,1.552,0l.776-.776a1.1,1.1,0,0,0,0-1.552Z" transform="translate(5832.338 -2611.238)" fill="#d1d1d1"/>
</svg>
