<svg xmlns="http://www.w3.org/2000/svg" width="17" height="17" viewBox="0 0 17 17">
  <path id="close_two" d="M11.722,88.5l4.833-4.833a1.519,1.519,0,0,0,0-2.148l-1.074-1.074a1.519,1.519,0,0,0-2.148,0L8.5,85.278,3.667,80.445a1.519,1.519,0,0,0-2.148,0L.445,81.519a1.519,1.519,0,0,0,0,2.148L5.278,88.5.445,93.333a1.519,1.519,0,0,0,0,2.148l1.074,1.074a1.519,1.519,0,0,0,2.148,0L8.5,91.722l4.833,4.833a1.519,1.519,0,0,0,2.148,0l1.074-1.074a1.519,1.519,0,0,0,0-2.148Z" transform="translate(0 -80)" fill="#1472ba"/>
</svg>
