<svg xmlns="http://www.w3.org/2000/svg" width="103.042" height="40.861" viewBox="0 0 103.042 40.861">
  <g id="coche" transform="translate(0.001 -154.484)">
    <path id="Path_2085" data-name="Path 2085" d="M98.578,171.617c-3.346-2.061-14.14-4.7-29.287-4.7l-8-9.334a8.883,8.883,0,0,0-6.744-3.1H30.6a10.66,10.66,0,0,0-6.937,2.566l-9.442,8.093L4.147,166.583A3.553,3.553,0,0,0,1.2,169.239L0,174.027l26.649,12.436H101.27V176.42A5.635,5.635,0,0,0,98.578,171.617Z" transform="translate(-0.005 -0.001)" fill="#ffb47d"/>
    <path id="Path_2086" data-name="Path 2086" d="M101.269,241.037c0-3.553-5.33-7.106-30.2-7.106H1.78A1.777,1.777,0,0,0,0,235.707v10.659l33.755,5.33h67.51V241.037Z" transform="translate(-0.004 -63.458)" fill="#ff9164"/>
    <path id="Path_2087" data-name="Path 2087" d="M101.265,290.454H17.96l-15.8-3.51a1.776,1.776,0,1,0-.77,3.468l15.989,3.553a1.744,1.744,0,0,0,.385.042h83.5a1.777,1.777,0,0,0,0-3.553Z" transform="translate(0 -105.769)" fill="#ff7d5a"/>
    <circle id="Ellipse_123" data-name="Ellipse 123" cx="8.883" cy="8.883" r="8.883" transform="translate(76.392 175.802)" fill="#ededee"/>
    <path id="Path_2088" data-name="Path 2088" d="M381.419,272.9a10.659,10.659,0,1,1,10.659-10.659A10.671,10.671,0,0,1,381.419,272.9Zm0-17.766a7.106,7.106,0,1,0,7.106,7.106A7.114,7.114,0,0,0,381.419,255.139Z" transform="translate(-296.144 -77.56)" fill="#504b5a"/>
    <circle id="Ellipse_124" data-name="Ellipse 124" cx="3.553" cy="3.553" r="3.553" transform="translate(81.721 181.132)" fill="#dcdbde"/>
    <circle id="Ellipse_125" data-name="Ellipse 125" cx="8.883" cy="8.883" r="8.883" transform="translate(8.882 175.802)" fill="#ededee"/>
    <path id="Path_2089" data-name="Path 2089" d="M45.973,272.9a10.659,10.659,0,1,1,10.659-10.659A10.671,10.671,0,0,1,45.973,272.9Zm0-17.766a7.106,7.106,0,1,0,7.106,7.106A7.114,7.114,0,0,0,45.973,255.139Z" transform="translate(-28.208 -77.56)" fill="#504b5a"/>
    <circle id="Ellipse_126" data-name="Ellipse 126" cx="3.553" cy="3.553" r="3.553" transform="translate(14.212 181.132)" fill="#dcdbde"/>
    <g id="Group_619" data-name="Group 619" transform="translate(31.979 177.58)">
      <path id="Path_2090" data-name="Path 2090" d="M197.985,272.795H160.677a1.777,1.777,0,0,1-1.776-1.776h0a1.777,1.777,0,0,1,1.776-1.776h37.308a1.776,1.776,0,0,1,1.776,1.776h0A1.776,1.776,0,0,1,197.985,272.795Z" transform="translate(-158.901 -269.242)" fill="#ff7d5a"/>
      <path id="Path_2091" data-name="Path 2091" d="M489.071,272.795h-1.776a1.777,1.777,0,0,1-1.777-1.776h0a1.777,1.777,0,0,1,1.777-1.776h1.776a1.776,1.776,0,0,1,1.776,1.776h0A1.776,1.776,0,0,1,489.071,272.795Z" transform="translate(-419.785 -269.242)" fill="#ff7d5a"/>
    </g>
    <path id="Path_2092" data-name="Path 2092" d="M70.624,165.143l9.442-8.093A10.66,10.66,0,0,1,87,154.484h23.95a8.883,8.883,0,0,1,6.744,3.1l8,9.334H83.635a28.429,28.429,0,0,1-4.673-.387Z" transform="translate(-56.411)" fill="#ff9164"/>
    <path id="Path_2093" data-name="Path 2093" d="M151.3,164.59a3.553,3.553,0,0,0-2.73-1.278H132.163a3.552,3.552,0,0,0-2.512,1.041l-5.33,5.33a2.512,2.512,0,0,0-.736,1.776h0a2.513,2.513,0,0,0,2.512,2.512h31.123a.888.888,0,0,0,.682-1.457Z" transform="translate(-98.714 -7.051)" fill="#625d6b"/>
    <path id="Path_2094" data-name="Path 2094" d="M164.228,173.971H158.9l3.553-10.659H166Z" transform="translate(-126.92 -7.051)" fill="#504b5a"/>
    <path id="Path_2095" data-name="Path 2095" d="M480.112,242.759h-1.646a1.776,1.776,0,0,0,0,3.553h3.474A5.564,5.564,0,0,0,480.112,242.759Z" transform="translate(-380.754 -70.509)" fill="#ededee"/>
    <path id="Path_2096" data-name="Path 2096" d="M283.863,164.637a8.872,8.872,0,0,0-1.416-1.325h-2.9a.888.888,0,0,0-.682,1.457l6.6,7.924a3.553,3.553,0,0,0,2.729,1.278h3.665Z" transform="translate(-222.578 -7.051)" fill="#625d6b"/>
    <path id="Path_2097" data-name="Path 2097" d="M0,235.708v1.776H3.557a1.776,1.776,0,0,0,0-3.553H1.78A1.776,1.776,0,0,0,0,235.708Z" transform="translate(-0.004 -63.459)" fill="#ff6464"/>
  </g>
</svg>
