<svg id="codigo-qr" xmlns="http://www.w3.org/2000/svg" width="63.531" height="63.531" viewBox="0 0 63.531 63.531">
  <g id="Group_681" data-name="Group 681" transform="translate(9.927 9.927)">
    <path id="Path_2257" data-name="Path 2257" d="M83.723,80H94.146a3.722,3.722,0,0,1,3.723,3.723V94.146a3.722,3.722,0,0,1-3.723,3.723H83.723A3.722,3.722,0,0,1,80,94.146V83.723A3.722,3.722,0,0,1,83.723,80Z" transform="translate(-80 -80)" fill="#acebe2"/>
    <path id="Path_2258" data-name="Path 2258" d="M83.723,288H94.146a3.722,3.722,0,0,1,3.723,3.723v10.423a3.722,3.722,0,0,1-3.723,3.723H83.723A3.722,3.722,0,0,1,80,302.146V291.723A3.722,3.722,0,0,1,83.723,288Z" transform="translate(-80 -262.191)" fill="#acebe2"/>
    <path id="Path_2259" data-name="Path 2259" d="M291.723,80h10.423a3.722,3.722,0,0,1,3.723,3.723V94.146a3.722,3.722,0,0,1-3.723,3.723H291.723A3.722,3.722,0,0,1,288,94.146V83.723A3.722,3.722,0,0,1,291.723,80Z" transform="translate(-262.191 -80)" fill="#acebe2"/>
  </g>
  <path id="Path_2260" data-name="Path 2260" d="M169.693,83.723V94.146a3.722,3.722,0,0,1-3.723,3.723H162a3.722,3.722,0,0,0,3.723-3.723V83.723A3.722,3.722,0,0,0,162,80h3.971A3.722,3.722,0,0,1,169.693,83.723Z" transform="translate(-141.898 -70.073)" fill="#98d7ce"/>
  <path id="Path_2261" data-name="Path 2261" d="M169.693,291.723v10.423a3.722,3.722,0,0,1-3.723,3.723H162a3.722,3.722,0,0,0,3.723-3.723V291.723A3.722,3.722,0,0,0,162,288h3.971A3.722,3.722,0,0,1,169.693,291.723Z" transform="translate(-141.898 -252.264)" fill="#98d7ce"/>
  <path id="Path_2262" data-name="Path 2262" d="M377.693,83.723V94.146a3.722,3.722,0,0,1-3.723,3.723H370a3.722,3.722,0,0,0,3.723-3.723V83.723A3.722,3.722,0,0,0,370,80h3.971A3.722,3.722,0,0,1,377.693,83.723Z" transform="translate(-324.089 -70.073)" fill="#98d7ce"/>
  <path id="Path_2263" data-name="Path 2263" d="M289.241,288h7.445a1.241,1.241,0,0,1,1.241,1.241v7.445a1.241,1.241,0,0,1-1.241,1.241h-7.445A1.241,1.241,0,0,1,288,296.686v-7.445A1.241,1.241,0,0,1,289.241,288Z" transform="translate(-252.264 -252.264)" fill="#acebe2"/>
  <path id="Path_2264" data-name="Path 2264" d="M369.241,368h5.46a1.241,1.241,0,0,1,1.241,1.241v5.46a1.241,1.241,0,0,1-1.241,1.241h-5.46A1.241,1.241,0,0,1,368,374.7v-5.46A1.241,1.241,0,0,1,369.241,368Z" transform="translate(-322.337 -322.337)" fill="#98d7ce"/>
  <path id="Path_2265" data-name="Path 2265" d="M383.883,17.868a1.985,1.985,0,0,1-1.985-1.985V5.708a1.739,1.739,0,0,0-1.737-1.737H369.985a1.985,1.985,0,1,1,0-3.971H380.16a5.714,5.714,0,0,1,5.708,5.708V15.883A1.985,1.985,0,0,1,383.883,17.868Z" transform="translate(-322.337)"/>
  <path id="Path_2266" data-name="Path 2266" d="M1.985,17.868A1.985,1.985,0,0,1,0,15.883V5.708A5.714,5.714,0,0,1,5.708,0H15.883a1.985,1.985,0,0,1,0,3.971H5.708A1.739,1.739,0,0,0,3.971,5.708V15.883A1.985,1.985,0,0,1,1.985,17.868Z"/>
  <path id="Path_2267" data-name="Path 2267" d="M15.883,385.868H5.708A5.714,5.714,0,0,1,0,380.16V369.985a1.985,1.985,0,1,1,3.971,0V380.16A1.739,1.739,0,0,0,5.708,381.9H15.883a1.985,1.985,0,0,1,0,3.971Z" transform="translate(0 -322.337)"/>
  <path id="Path_2268" data-name="Path 2268" d="M380.16,385.868H369.985a1.985,1.985,0,0,1,0-3.971H380.16a1.739,1.739,0,0,0,1.737-1.737V369.985a1.985,1.985,0,0,1,3.971,0V380.16A5.714,5.714,0,0,1,380.16,385.868Z" transform="translate(-322.337 -322.337)"/>
  <path id="Path_2269" data-name="Path 2269" d="M80.131,85.839H69.708A5.714,5.714,0,0,1,64,80.131V69.708A5.714,5.714,0,0,1,69.708,64H80.131a5.714,5.714,0,0,1,5.708,5.708V80.131A5.714,5.714,0,0,1,80.131,85.839ZM69.708,67.971a1.739,1.739,0,0,0-1.737,1.737V80.131a1.739,1.739,0,0,0,1.737,1.737H80.131a1.739,1.739,0,0,0,1.737-1.737V69.708a1.739,1.739,0,0,0-1.737-1.737Z" transform="translate(-56.059 -56.059)"/>
  <path id="Path_2270" data-name="Path 2270" d="M80.131,293.839H69.708A5.714,5.714,0,0,1,64,288.131V277.708A5.714,5.714,0,0,1,69.708,272H80.131a5.714,5.714,0,0,1,5.708,5.708v10.423A5.714,5.714,0,0,1,80.131,293.839ZM69.708,275.971a1.739,1.739,0,0,0-1.737,1.737v10.423a1.739,1.739,0,0,0,1.737,1.737H80.131a1.739,1.739,0,0,0,1.737-1.737V277.708a1.739,1.739,0,0,0-1.737-1.737Z" transform="translate(-56.059 -238.249)"/>
  <path id="Path_2271" data-name="Path 2271" d="M288.131,85.839H277.708A5.714,5.714,0,0,1,272,80.131V69.708A5.714,5.714,0,0,1,277.708,64h10.423a5.714,5.714,0,0,1,5.708,5.708V80.131A5.714,5.714,0,0,1,288.131,85.839ZM277.708,67.971a1.739,1.739,0,0,0-1.737,1.737V80.131a1.739,1.739,0,0,0,1.737,1.737h10.423a1.739,1.739,0,0,0,1.737-1.737V69.708a1.739,1.739,0,0,0-1.737-1.737Z" transform="translate(-238.249 -56.059)"/>
  <path id="Path_2272" data-name="Path 2272" d="M290.613,281.927H285.9v-6.7A3.23,3.23,0,0,0,282.671,272h-7.445A3.23,3.23,0,0,0,272,275.226v7.445a3.23,3.23,0,0,0,3.226,3.226h6.7v4.715a3.23,3.23,0,0,0,3.226,3.226h5.46a3.23,3.23,0,0,0,3.226-3.226v-5.46A3.23,3.23,0,0,0,290.613,281.927Zm-14.642-5.956h5.956v5.956h-5.956Zm13.9,13.9H285.9V285.9h3.971Z" transform="translate(-238.249 -238.249)"/>
  <path id="Path_2273" data-name="Path 2273" d="M131.971,133.956h-1.985A1.985,1.985,0,0,1,128,131.971v-1.985A1.985,1.985,0,0,1,129.985,128h1.985a1.985,1.985,0,0,1,1.985,1.985v1.985A1.985,1.985,0,0,1,131.971,133.956Z" transform="translate(-112.117 -112.117)"/>
  <path id="Path_2274" data-name="Path 2274" d="M339.971,133.956h-1.985A1.985,1.985,0,0,1,336,131.971v-1.985A1.985,1.985,0,0,1,337.985,128h1.985a1.985,1.985,0,0,1,1.985,1.985v1.985A1.985,1.985,0,0,1,339.971,133.956Z" transform="translate(-294.308 -112.117)"/>
  <path id="Path_2275" data-name="Path 2275" d="M131.971,341.956h-1.985A1.985,1.985,0,0,1,128,339.971v-1.985A1.985,1.985,0,0,1,129.985,336h1.985a1.985,1.985,0,0,1,1.985,1.985v1.985A1.985,1.985,0,0,1,131.971,341.956Z" transform="translate(-112.117 -294.308)"/>
</svg>
