<svg xmlns="http://www.w3.org/2000/svg" width="18.296" height="18.299" viewBox="0 0 18.296 18.299">
  <path id="collaborators__search" d="M-5462.291,959.471l-3.563-3.563a.856.856,0,0,0-.607-.25h-.583a7.4,7.4,0,0,0,1.572-4.574,7.432,7.432,0,0,0-7.433-7.433,7.432,7.432,0,0,0-7.433,7.433,7.432,7.432,0,0,0,7.433,7.433,7.4,7.4,0,0,0,4.574-1.572v.583a.858.858,0,0,0,.25.608l3.563,3.563a.855.855,0,0,0,1.212,0l1.011-1.011A.861.861,0,0,0-5462.291,959.471Zm-10.614-3.813a4.571,4.571,0,0,1-4.574-4.574,4.572,4.572,0,0,1,4.574-4.574,4.571,4.571,0,0,1,4.574,4.574A4.572,4.572,0,0,1-5472.9,955.658Z" transform="translate(5480.338 -943.65)" fill="#d4d4d4"/>
</svg>
