<svg xmlns="http://www.w3.org/2000/svg" width="71.004" height="66.549" viewBox="0 0 71.004 66.549">
  <g id="comment" transform="translate(378 -4624.026)">
    <path id="Path_2212" data-name="Path 2212" d="M7.515,23.576V74.71H24.189V88.049L37.528,74.71H76.434V23.576Z" transform="translate(-384.473 4601.493)" fill="#eeebea"/>
    <path id="Path_2213" data-name="Path 2213" d="M10.85,71.375v-47.8H7.515V74.71H24.189V88.049l3.335-3.335V71.375Z" transform="translate(-384.473 4601.493)" fill="#d8d7dd"/>
    <path id="Path_2215" data-name="Path 2215" d="M69.961,30.442A1.042,1.042,0,0,0,71,29.4V17.1a1.042,1.042,0,0,0-1.042-1.042H1.042A1.042,1.042,0,0,0,0,17.1V68.237a1.042,1.042,0,0,0,1.042,1.042H16.674v12.3a1.051,1.051,0,0,0,1.779.737L31.487,69.279H69.961A1.042,1.042,0,0,0,71,68.237v-33.9a1.042,1.042,0,0,0-2.084,0V67.195H31.055a1.043,1.043,0,0,0-.737.305L18.758,79.06V68.237a1.042,1.042,0,0,0-1.042-1.042H2.084V18.145H68.919V29.4A1.042,1.042,0,0,0,69.961,30.442Z" transform="translate(-378 4607.965)"/>
    <path id="Path_2216" data-name="Path 2216" d="M100.33,104.173H89.214a1.042,1.042,0,1,0,0,2.084H100.33a1.042,1.042,0,1,0,0-2.084Z" transform="translate(-453.944 4532.073)"/>
    <path id="Path_2217" data-name="Path 2217" d="M89.214,170.382h5.558a1.042,1.042,0,1,0,0-2.084H89.214a1.042,1.042,0,1,0,0,2.084Z" transform="translate(-453.944 4476.84)"/>
    <path id="Path_2218" data-name="Path 2218" d="M168.329,169.34a1.042,1.042,0,0,0,1.042,1.042h16.674a1.042,1.042,0,1,0,0-2.084H169.371A1.042,1.042,0,0,0,168.329,169.34Z" transform="translate(-522.985 4476.84)"/>
    <path id="Path_2219" data-name="Path 2219" d="M102.484,233.465a1.042,1.042,0,0,0-1.042-1.042H89.214a1.042,1.042,0,0,0,0,2.084h12.228A1.042,1.042,0,0,0,102.484,233.465Z" transform="translate(-453.944 4421.608)"/>
    <path id="Path_2220" data-name="Path 2220" d="M217.464,232.424a1.042,1.042,0,1,0,0,2.084H220.8a1.042,1.042,0,0,0,0-2.084Z" transform="translate(-564.409 4421.607)"/>
    <path id="Path_2221" data-name="Path 2221" d="M89.214,296.549a1.042,1.042,0,0,0,0,2.084h5.558a1.042,1.042,0,0,0,0-2.084Z" transform="translate(-453.944 4366.375)"/>
    <path id="Path_2222" data-name="Path 2222" d="M169.37,298.632H172.7a1.042,1.042,0,0,0,0-2.084H169.37a1.042,1.042,0,1,0,0,2.084Z" transform="translate(-522.984 4366.376)"/>
    <path id="Path_2223" data-name="Path 2223" d="M213.895,106.257a1.042,1.042,0,1,0,0-2.084h-4.446a1.042,1.042,0,1,0,0,2.084Z" transform="translate(-557.505 4532.073)"/>
    <path id="Path_2224" data-name="Path 2224" d="M292.705,106.257a1.042,1.042,0,1,0,0-2.084H281.589a1.042,1.042,0,1,0,0,2.084Z" transform="translate(-619.641 4532.073)"/>
    <path id="Path_2225" data-name="Path 2225" d="M375.32,232.424h-5.558a1.042,1.042,0,1,0,0,2.084h5.558a1.042,1.042,0,1,0,0-2.084Z" transform="translate(-695.586 4421.607)"/>
    <path id="Path_2226" data-name="Path 2226" d="M305.637,296.549a1.042,1.042,0,1,0,0,2.084h3.335a1.042,1.042,0,0,0,0-2.084Z" transform="translate(-640.354 4366.375)"/>
    <path id="Path_2227" data-name="Path 2227" d="M375.32,296.549h-5.558a1.042,1.042,0,1,0,0,2.084h5.558a1.042,1.042,0,1,0,0-2.084Z" transform="translate(-695.586 4366.375)"/>
  </g>
</svg>
