<svg id="consultamedica" xmlns="http://www.w3.org/2000/svg" width="63" height="63.999" viewBox="0 0 63 63.999">
  <path id="Path_1832" data-name="Path 1832" d="M53,1V25.01H50v2l-6-2-15,.011V1Z" fill="#e6e9ed"/>
  <path id="Path_1833" data-name="Path 1833" d="M41,6a7,7,0,1,1-7,7A7.008,7.008,0,0,1,41,6Z"/>
  <path id="Path_1834" data-name="Path 1834" d="M29,8.01V21.021h-.01L22,21l-5,2V21H14V8.01H28.99Z" fill="#ccd1d9"/>
  <path id="Path_1835" data-name="Path 1835" d="M48,13a7,7,0,1,0-7,7A7.008,7.008,0,0,0,48,13Z" fill="#ed5565"/>
  <path id="Path_1836" data-name="Path 1836" d="M18,52.061V56l-.01.021L14,61l-4-5V52.061a8.989,8.989,0,0,0,8,0Z" fill="#eac6bb"/>
  <path id="Path_1837" data-name="Path 1837" d="M62,61v2H52l2-7h3A5,5,0,0,1,62,61Z" fill="#e6e9ed"/>
  <path id="Path_1838" data-name="Path 1838" d="M57,56H54a5,5,0,0,1,5,5v2h3V61A5,5,0,0,0,57,56Z" fill="#ccd1d9"/>
  <path id="Path_1839" data-name="Path 1839" d="M46,56l2,7H38V61a5,5,0,0,1,5-5Z" fill="#e6e9ed"/>
  <path id="Path_1840" data-name="Path 1840" d="M5,34a3,3,0,0,1,3-3v6a3,3,0,0,1-3,3Z" fill="#e9573f"/>
  <path id="Path_1841" data-name="Path 1841" d="M50,53a8.969,8.969,0,0,0,4-.939V56l-2,1-2-1-2,1-2-1V52.06A8.956,8.956,0,0,0,50,53Z" fill="#87bcf4"/>
  <path id="Path_1842" data-name="Path 1842" d="M59,40.04V44a9,9,0,0,1-18,0V40.04H59Z" fill="#eac6bb"/>
  <path id="Path_1843" data-name="Path 1843" d="M56,40.04V44a8.944,8.944,0,0,1-7.5,8.86A9.089,9.089,0,0,0,50,53a9,9,0,0,0,9-9V40.04Z" fill="#d3b1a9"/>
  <path id="Path_1844" data-name="Path 1844" d="M26,38.51v8.511a6.981,6.981,0,0,0-3-5.74v-.01a6.955,6.955,0,0,0-4-1.25V40H11a3,3,0,0,1-3-3V31a10.317,10.317,0,0,1,7.5-2.99A10.5,10.5,0,0,1,26,38.51Z" fill="#fc6e51"/>
  <path id="Path_1845" data-name="Path 1845" d="M15.5,28.01a11.8,11.8,0,0,0-1.551.112A10.492,10.492,0,0,1,23,38.51v2.759l0,0v.01a6.981,6.981,0,0,1,3,5.74V38.51a10.5,10.5,0,0,0-10.5-10.5Z" fill="#e9573f"/>
  <path id="Path_1846" data-name="Path 1846" d="M54,56l-2,7H48l-2-7,2,1,2-1,2,1Z" fill="#5d9cec"/>
  <path id="Path_1847" data-name="Path 1847" d="M26,63H2V61a5,5,0,0,1,5-5h3l4,5,3.99-4.979L18,56h3a5,5,0,0,1,5,5Z" fill="#48cfad"/>
  <path id="Path_1848" data-name="Path 1848" d="M21,56H18a5,5,0,0,1,5,5v2h3V61A5,5,0,0,0,21,56Z" fill="#37bc9b"/>
  <path id="Path_1849" data-name="Path 1849" d="M43.01,30h14a2.005,2.005,0,0,1,2,2v8.04h-18V32a2.006,2.006,0,0,1,2-2Z" fill="#e6e9ed"/>
  <path id="Path_1850" data-name="Path 1850" d="M57.01,30h-3a2.005,2.005,0,0,1,2,2v8.04h3V32A2.006,2.006,0,0,0,57.01,30Z" fill="#ccd1d9"/>
  <path id="Path_1851" data-name="Path 1851" d="M23,41.28V44A9,9,0,0,1,5,44V40a3,3,0,0,0,3-3,3,3,0,0,0,3,3h8v.021a6.955,6.955,0,0,1,4,1.25Z" fill="#eac6bb"/>
  <path id="Path_1852" data-name="Path 1852" d="M20,40.1V44a8.944,8.944,0,0,1-7.5,8.86A9.089,9.089,0,0,0,14,53a9,9,0,0,0,9-9V41.27A6.913,6.913,0,0,0,20,40.1Z" fill="#d3b1a9"/>
  <path id="Path_1853" data-name="Path 1853" d="M38,62a1,1,0,0,1-1-1,6.006,6.006,0,0,1,6-6,1,1,0,0,1,0,2,4,4,0,0,0-4,4A1,1,0,0,1,38,62Z"/>
  <path id="Path_1854" data-name="Path 1854" d="M46,57H43a1,1,0,0,1,0-2h3a1,1,0,0,1,0,2Z"/>
  <path id="Path_1855" data-name="Path 1855" d="M38,64a1,1,0,0,1-1-1V61a1,1,0,0,1,2,0v2A1,1,0,0,1,38,64Z"/>
  <path id="Path_1856" data-name="Path 1856" d="M62,62a1,1,0,0,1-1-1,4,4,0,0,0-4-4,1,1,0,0,1,0-2,6.006,6.006,0,0,1,6,6A1,1,0,0,1,62,62Z"/>
  <path id="Path_1857" data-name="Path 1857" d="M57,57H54a1,1,0,0,1,0-2h3a1,1,0,0,1,0,2Z"/>
  <path id="Path_1858" data-name="Path 1858" d="M62,64a1,1,0,0,1-1-1V61a1,1,0,0,1,2,0v2A1,1,0,0,1,62,64Z"/>
  <path id="Path_1859" data-name="Path 1859" d="M46,57a1,1,0,0,1-1-1V52.064a1,1,0,0,1,2,0V56A1,1,0,0,1,46,57Z"/>
  <path id="Path_1860" data-name="Path 1860" d="M54,57a1,1,0,0,1-1-1V52.064a1,1,0,0,1,2,0V56A1,1,0,0,1,54,57Z"/>
  <path id="Path_1861" data-name="Path 1861" d="M48,58a1,1,0,0,1-.446-.1l-2-1a1,1,0,1,1,.9-1.789l2,1A1,1,0,0,1,48,58Z"/>
  <path id="Path_1862" data-name="Path 1862" d="M48,58a1,1,0,0,1-.449-1.9l2-1a1,1,0,0,1,.9,1.789l-2,1A.991.991,0,0,1,48,58Z"/>
  <path id="Path_1863" data-name="Path 1863" d="M52,58a1,1,0,0,1-.449-1.9l2-1a1,1,0,0,1,.9,1.789l-2,1A.991.991,0,0,1,52,58Z"/>
  <path id="Path_1864" data-name="Path 1864" d="M52,58a1,1,0,0,1-.446-.1l-2-1a1,1,0,1,1,.9-1.789l2,1A1,1,0,0,1,52,58Z"/>
  <path id="Path_1865" data-name="Path 1865" d="M2,62a1,1,0,0,1-1-1,6.006,6.006,0,0,1,6-6,1,1,0,0,1,0,2,4,4,0,0,0-4,4A1,1,0,0,1,2,62Z"/>
  <path id="Path_1866" data-name="Path 1866" d="M10,57H7a1,1,0,0,1,0-2h3a1,1,0,0,1,0,2Z"/>
  <path id="Path_1867" data-name="Path 1867" d="M2,64a1,1,0,0,1-1-1V61a1,1,0,0,1,2,0v2A1,1,0,0,1,2,64Z"/>
  <path id="Path_1868" data-name="Path 1868" d="M26,62a1,1,0,0,1-1-1,4,4,0,0,0-4-4,1,1,0,1,1,0-2,6.006,6.006,0,0,1,6,6A1,1,0,0,1,26,62Z"/>
  <path id="Path_1869" data-name="Path 1869" d="M21,57H18a1,1,0,1,1,0-2h3a1,1,0,0,1,0,2Z"/>
  <path id="Path_1870" data-name="Path 1870" d="M26,64a1,1,0,0,1-1-1V61a1,1,0,1,1,2,0v2A1,1,0,0,1,26,64Z"/>
  <path id="Path_1871" data-name="Path 1871" d="M10,57a1,1,0,0,1-1-1V52.063a1,1,0,0,1,2,0V56A1,1,0,0,1,10,57Z"/>
  <path id="Path_1872" data-name="Path 1872" d="M18,57a1,1,0,0,1-1-1V52.063a1,1,0,0,1,2,0V56A1,1,0,0,1,18,57Z"/>
  <path id="Path_1873" data-name="Path 1873" d="M14,54A10.009,10.009,0,0,1,4,44a1,1,0,0,1,2,0,8,8,0,0,0,16,0,1,1,0,0,1,2,0A10.011,10.011,0,0,1,14,54Z"/>
  <path id="Path_1874" data-name="Path 1874" d="M26,39.512a1,1,0,0,1-1-1,9.509,9.509,0,0,0-9.5-9.5A9.366,9.366,0,0,0,8.714,31.7a1,1,0,0,1-1.428-1.4A11.353,11.353,0,0,1,15.5,27.015,11.51,11.51,0,0,1,27,38.513,1,1,0,0,1,26,39.512Z"/>
  <path id="Path_1875" data-name="Path 1875" d="M50,28.006a.983.983,0,0,1-.316-.052l-5.847-1.948L29,26.018h0a1,1,0,0,1-1-1V1a1,1,0,0,1,1-1H53a1,1,0,0,1,1,1v24a1,1,0,0,1-1,1H51v1a1,1,0,0,1-1,1Zm-6-4a1,1,0,0,1,.316.052L49,25.62v-.614a1,1,0,0,1,1-1h2V2H30V24.017Z"/>
  <path id="Path_1876" data-name="Path 1876" d="M17,24a1,1,0,0,1-1-1V22H14a1,1,0,0,1-1-1v-13a1,1,0,0,1,1-1H28.992a1,1,0,0,1,0,2H15V20h2a1,1,0,0,1,1,1v.523l3.629-1.452A1,1,0,0,1,22,20h0l6.994.012a1,1,0,0,1,0,2h0L22.189,22l-4.82,1.929A1.011,1.011,0,0,1,17,24Z"/>
  <path id="Path_1877" data-name="Path 1877" d="M5,45a1,1,0,0,1-1-1V34a1,1,0,0,1,2,0V44A1,1,0,0,1,5,45Z"/>
  <path id="Path_1878" data-name="Path 1878" d="M5,41a1,1,0,0,1,0-2,2,2,0,0,0,2-2,1,1,0,0,1,2,0A4,4,0,0,1,5,41Z"/>
  <path id="Path_1879" data-name="Path 1879" d="M11,41a4,4,0,0,1-4-4,1,1,0,0,1,2,0,2,2,0,0,0,2,2,1,1,0,1,1,0,2Z"/>
  <path id="Path_1880" data-name="Path 1880" d="M5,35a1,1,0,0,1-1-1,4,4,0,0,1,4-4,1,1,0,0,1,0,2,2,2,0,0,0-2,2A1,1,0,0,1,5,35Z"/>
  <path id="Path_1881" data-name="Path 1881" d="M8,38a1,1,0,0,1-1-1l0-6a1,1,0,1,1,2,0l0,6A1,1,0,0,1,8,38Z"/>
  <path id="Path_1882" data-name="Path 1882" d="M26,48.027a1,1,0,0,1-1-1A6.015,6.015,0,0,0,19,41.017a1,1,0,0,1,0-2A8.017,8.017,0,0,1,27,47.027,1,1,0,0,1,26,48.027Z"/>
  <path id="Path_1883" data-name="Path 1883" d="M19,41H11a1,1,0,0,1,0-2h8a1,1,0,1,1,0,2Z"/>
  <path id="Path_1884" data-name="Path 1884" d="M23,45a1,1,0,0,1-1-1V41.273a1,1,0,0,1,2,0V44A1,1,0,0,1,23,45Z"/>
  <path id="Path_1885" data-name="Path 1885" d="M26,48.02a1,1,0,0,1-1-1V38.512a1,1,0,1,1,2,0V47.02A1,1,0,0,1,26,48.02Z"/>
  <path id="Path_1886" data-name="Path 1886" d="M14,62a1,1,0,0,1-.779-1.625l3.994-4.982a1,1,0,0,1,1.56,1.25L14.78,61.624A1,1,0,0,1,14,62Z"/>
  <path id="Path_1887" data-name="Path 1887" d="M14,62a1,1,0,0,1-.782-.375l-4-5a1,1,0,0,1,1.562-1.25l4,5A1,1,0,0,1,14,62Z"/>
  <path id="Path_1888" data-name="Path 1888" fill="none" stroke="#000" stroke-linecap="round" stroke-linejoin="round" stroke-miterlimit="10" stroke-width="2"/>
  <path id="Path_1889" data-name="Path 1889" fill="none" stroke="#000" stroke-linecap="round" stroke-linejoin="round" stroke-miterlimit="10" stroke-width="2"/>
  <path id="Path_1890" data-name="Path 1890" d="M41,44.961a1,1,0,0,1-1-1V40a1,1,0,1,1,2,0v3.962A1,1,0,0,1,41,44.961Z"/>
  <path id="Path_1891" data-name="Path 1891" d="M59,45a1,1,0,0,1-1-1V40a1,1,0,1,1,2,0v4A1,1,0,0,1,59,45Z"/>
  <path id="Path_1892" data-name="Path 1892" d="M50,54A10.009,10.009,0,0,1,40,44a1,1,0,0,1,2,0,8,8,0,0,0,16,0,1,1,0,0,1,2,0A10.01,10.01,0,0,1,50,54Z"/>
  <path id="Path_1893" data-name="Path 1893" d="M59.015,41.042H41.008a1,1,0,0,1-1-1V32a3,3,0,0,1,3-3H57.015a3,3,0,0,1,3,3v8.04A1,1,0,0,1,59.015,41.042Zm-17.007-2H58.015V32a1,1,0,0,0-1-1H43.008a1,1,0,0,0-1,1Z"/>
  <path id="Path_1894" data-name="Path 1894" d="M50,38.015a1,1,0,0,1-1-1V33a1,1,0,0,1,2,0v4.012A1,1,0,0,1,50,38.015Z"/>
  <path id="Path_1895" data-name="Path 1895" d="M52,36.021H48a1,1,0,0,1,0-2h4a1,1,0,0,1,0,2Z"/>
  <path id="Path_1896" data-name="Path 1896" d="M48,64a1,1,0,0,1-.961-.726l-2-7a1,1,0,1,1,1.924-.548l2,7a1,1,0,0,1-.688,1.236A1.036,1.036,0,0,1,48,64Z"/>
  <path id="Path_1897" data-name="Path 1897" d="M52,64a1.036,1.036,0,0,1-.275-.038,1,1,0,0,1-.688-1.236l2-7a1,1,0,0,1,1.924.548l-2,7A1,1,0,0,1,52,64Z"/>
  <path id="Path_1898" data-name="Path 1898" d="M41,21a8,8,0,1,1,8-8A8.009,8.009,0,0,1,41,21ZM41,7a6,6,0,1,0,6,6A6.006,6.006,0,0,0,41,7Z"/>
  <path id="Path_1899" data-name="Path 1899" d="M41,17a1,1,0,0,1-1-1V10a1,1,0,0,1,2,0v6A1,1,0,0,1,41,17Z"/>
  <path id="Path_1900" data-name="Path 1900" d="M44,14H38a1,1,0,0,1,0-2h6a1,1,0,0,1,0,2Z"/>
</svg>
