<svg xmlns="http://www.w3.org/2000/svg" width="36.508" height="36.46" viewBox="0 0 36.508 36.46">
  <g id="consultaenclinica" transform="translate(0 -0.34)">
    <path id="Path_1816" data-name="Path 1816" d="M50.958,34.178H66.944V66.427H35.5V34.178h4.33" transform="translate(-32.967 -31.425)" fill="#ecedf2"/>
    <path id="Path_1817" data-name="Path 1817" d="M50.958,34.178H66.944v3.316H35.5V34.178h4.33" transform="translate(-32.967 -31.425)" fill="#c6cad5"/>
    <path id="Path_1818" data-name="Path 1818" d="M25.056,19.083H43.031V16.572H7.607v2.511h6.319" transform="translate(-7.065 -15.075)" fill="#525c66"/>
    <circle id="Ellipse_113" data-name="Ellipse 113" cx="6.515" cy="6.515" r="6.515" transform="translate(5.911 0.882)" fill="#fff"/>
    <path id="Path_1819" data-name="Path 1819" d="M125.051,44.721h-2.814V41.907h-2.558v2.814h-2.814v2.558h2.814v2.814h2.558V47.279h2.814Z" transform="translate(-108.532 -38.603)" fill="#d81616"/>
    <rect id="Rectangle_196" data-name="Rectangle 196" width="35.424" height="2.511" transform="translate(0.542 33.747)" fill="#423e3e"/>
    <g id="Group_524" data-name="Group 524" transform="translate(4.872 7.479)">
      <rect id="Rectangle_197" data-name="Rectangle 197" width="3.523" height="6.434" transform="translate(17.431 8.62)" fill="#a0d9f2"/>
      <rect id="Rectangle_198" data-name="Rectangle 198" width="3.523" height="6.434" transform="translate(5.81 8.62)" fill="#a0d9f2"/>
      <rect id="Rectangle_199" data-name="Rectangle 199" width="3.523" height="6.434" transform="translate(23.242 8.62)" fill="#a0d9f2"/>
      <rect id="Rectangle_200" data-name="Rectangle 200" width="3.523" height="6.434" transform="translate(11.62 8.62)" fill="#a0d9f2"/>
      <rect id="Rectangle_201" data-name="Rectangle 201" width="3.523" height="6.434" transform="translate(0 8.62)" fill="#a0d9f2"/>
      <rect id="Rectangle_202" data-name="Rectangle 202" width="3.523" height="6.434" transform="translate(5.81 17.24)" fill="#a0d9f2"/>
      <rect id="Rectangle_203" data-name="Rectangle 203" width="3.523" height="6.434" transform="translate(11.62 17.24)" fill="#a0d9f2"/>
      <rect id="Rectangle_204" data-name="Rectangle 204" width="3.523" height="6.434" transform="translate(0 17.24)" fill="#a0d9f2"/>
      <rect id="Rectangle_205" data-name="Rectangle 205" width="3.523" height="6.434" transform="translate(17.431)" fill="#a0d9f2"/>
      <rect id="Rectangle_206" data-name="Rectangle 206" width="3.523" height="6.434" transform="translate(23.242)" fill="#a0d9f2"/>
      <rect id="Rectangle_207" data-name="Rectangle 207" width="9.334" height="9.027" transform="translate(17.431 17.24)" fill="#a0d9f2"/>
    </g>
    <path id="Path_1820" data-name="Path 1820" d="M115.719,37.117V34.845a.542.542,0,0,0-.542-.542h-2.558a.542.542,0,0,0-.542.542v2.272H109.8a.542.542,0,0,0-.542.542v2.558a.542.542,0,0,0,.542.542h2.272v2.272a.542.542,0,0,0,.542.542h2.558a.542.542,0,0,0,.542-.542V40.76h2.272a.542.542,0,0,0,.542-.542V37.659a.542.542,0,0,0-.542-.542Zm1.73,2.558h-2.272a.542.542,0,0,0-.542.542v2.272H113.16V40.217a.542.542,0,0,0-.542-.542h-2.272V38.2h2.272a.542.542,0,0,0,.542-.542V35.387h1.474v2.272a.542.542,0,0,0,.542.542h2.272Z" transform="translate(-101.471 -31.541)"/>
    <path id="Path_1821" data-name="Path 1821" d="M35.966,4.55a.542.542,0,0,0,.542-.542V1.5a.542.542,0,0,0-.542-.542H32.5a.542.542,0,0,0-.542.542h0a.542.542,0,0,0,.542.542h2.92V3.466H18.284a7.113,7.113,0,0,0-1.27-1.426H29.974a.542.542,0,0,0,.542-.542h0a.542.542,0,0,0-.542-.542H15.307a7.052,7.052,0,0,0-5.762,0h-9A.542.542,0,0,0,0,1.5V4.008a.542.542,0,0,0,.542.542H1.989V23.514a.542.542,0,0,0,.542.542h0a.542.542,0,0,0,.542-.542V4.55h2.9a7.057,7.057,0,1,0,12.913,0H33.435V33.2H32.179V24.719a.542.542,0,0,0-.542-.542H22.3a.542.542,0,0,0-.542.542V33.2H3.073v-7.16a.542.542,0,0,0-.542-.542h0a.542.542,0,0,0-.542.542V33.2H.542A.542.542,0,0,0,0,33.747v2.511a.542.542,0,0,0,.542.542H35.966a.542.542,0,0,0,.542-.542V33.747a.542.542,0,0,0-.542-.542H34.52V4.55ZM2.531,3.466H1.085V2.04H7.838a7.113,7.113,0,0,0-1.27,1.426H2.531Zm9.9,9.9A5.973,5.973,0,1,1,18.4,7.4,5.979,5.979,0,0,1,12.426,13.37ZM27.512,33.2V27.466h3.582V33.2Zm3.582-7.943v1.121H22.845V25.261Zm-8.249,2.2h3.582V33.2H22.845V27.466Zm12.579,8.249H1.084V34.289H35.424Z"/>
    <path id="Path_1822" data-name="Path 1822" d="M305.178,220.715a.542.542,0,0,0,.542.542h3.523a.542.542,0,0,0,.542-.542v-6.434a.542.542,0,0,0-.542-.542H305.72a.542.542,0,0,0-.542.542Zm1.084-.542v-3.289H308.7v3.289Zm2.439-5.349v.976h-2.439v-.976Z" transform="translate(-283.417 -198.183)"/>
    <path id="Path_1823" data-name="Path 1823" d="M142.749,221.257h3.523a.542.542,0,0,0,.542-.542v-6.434a.542.542,0,0,0-.542-.542h-3.523a.542.542,0,0,0-.542.542v6.434A.542.542,0,0,0,142.749,221.257Zm.542-1.084v-3.289h2.439v3.289Zm2.439-5.349v.976h-2.439v-.976Z" transform="translate(-132.067 -198.182)"/>
    <path id="Path_1824" data-name="Path 1824" d="M386.662,220.715a.542.542,0,0,0,.542.542h3.523a.542.542,0,0,0,.542-.542v-6.434a.542.542,0,0,0-.542-.542H387.2a.542.542,0,0,0-.542.542Zm1.084-.542v-3.289h2.439v3.289Zm2.439-5.349v.976h-2.439v-.976Z" transform="translate(-359.091 -198.183)"/>
    <path id="Path_1825" data-name="Path 1825" d="M224.234,221.257h3.523a.542.542,0,0,0,.542-.542v-6.434a.542.542,0,0,0-.542-.542h-3.523a.542.542,0,0,0-.542.542v6.434A.542.542,0,0,0,224.234,221.257Zm.542-1.084v-3.289h2.439v3.289Zm2.439-5.349v.976h-2.439v-.976Z" transform="translate(-207.742 -198.182)"/>
    <path id="Path_1826" data-name="Path 1826" d="M61.264,221.257h3.523a.542.542,0,0,0,.542-.542v-6.434a.542.542,0,0,0-.542-.542H61.264a.542.542,0,0,0-.542.542v6.434A.542.542,0,0,0,61.264,221.257Zm.542-1.084v-3.289h2.439v3.289Zm2.439-5.349v.976H61.806v-.976Z" transform="translate(-56.392 -198.182)"/>
    <path id="Path_1827" data-name="Path 1827" d="M142.207,341.611a.542.542,0,0,0,.542.542h3.523a.542.542,0,0,0,.542-.542v-6.434a.542.542,0,0,0-.542-.542h-3.523a.542.542,0,0,0-.542.542Zm1.084-.542v-3.289h2.439v3.289Zm2.439-5.349v.976h-2.439v-.976Z" transform="translate(-132.067 -310.458)"/>
    <path id="Path_1828" data-name="Path 1828" d="M223.692,341.61a.542.542,0,0,0,.542.542h3.523a.542.542,0,0,0,.542-.542v-4.37s0,0,0,0v-2.06h0a.542.542,0,0,0-.542-.542h-3.523a.542.542,0,0,0-.542.542v6.434Zm1.084-.542v-3.289h2.439v3.289Zm2.439-5.349v.976h-2.439v-.976Z" transform="translate(-207.742 -310.457)"/>
    <path id="Path_1829" data-name="Path 1829" d="M60.722,341.611a.542.542,0,0,0,.542.542h3.523a.542.542,0,0,0,.542-.542v-6.434a.542.542,0,0,0-.542-.542H61.264a.542.542,0,0,0-.542.542Zm1.084-.542v-3.289h2.439v3.289Zm2.439-5.349v.976H61.806v-.976Z" transform="translate(-56.392 -310.458)"/>
    <path id="Path_1830" data-name="Path 1830" d="M305.719,100.361h3.523a.542.542,0,0,0,.542-.542V93.385a.542.542,0,0,0-.542-.542h-3.523a.542.542,0,0,0-.542.542v6.434A.542.542,0,0,0,305.719,100.361Zm.542-1.084V95.988H308.7v3.289Zm2.439-5.349V94.9h-2.439v-.976Z" transform="translate(-283.416 -85.907)"/>
    <path id="Path_1831" data-name="Path 1831" d="M387.2,100.361h3.523a.542.542,0,0,0,.542-.542V93.385a.542.542,0,0,0-.542-.542H387.2a.542.542,0,0,0-.542.542v6.434A.542.542,0,0,0,387.2,100.361Zm.542-1.084V95.988h2.439v3.289Zm2.439-5.349V94.9h-2.439v-.976Z" transform="translate(-359.091 -85.907)"/>
  </g>
</svg>
