<svg xmlns="http://www.w3.org/2000/svg" width="43.767" height="43.232" viewBox="0 0 43.767 43.232">
  <g id="consultadomicilio" transform="translate(-29.5 -265.767)">
    <g id="icon_4_" data-name="icon (4)" transform="translate(29.5 265.767)">
      <rect id="Rectangle_208" data-name="Rectangle 208" width="4.324" height="7.547" transform="translate(28.221 5.424)" fill="#f05540"/>
      <rect id="Rectangle_209" data-name="Rectangle 209" width="7.625" height="4.088" transform="translate(26.57 1.572)" fill="#f3705a"/>
      <path id="Path_1919" data-name="Path 1919" d="M44.8,82.608V99.98H75.615V82.608L60.207,67.2h0C54.233,73.253,50.853,76.633,44.8,82.608Z" transform="translate(-41.498 -62.248)" fill="#ffd15c"/>
      <path id="Path_1920" data-name="Path 1920" d="M75.694,82.608,60.286,67.2c-3.066,2.987-5.424,5.345-7.782,7.7l-7.7,7.7v3.537L60.208,70.737,75.615,86.145v.472h0V82.607h.079Z" transform="translate(-41.498 -62.248)" fill="#f7b64c"/>
      <path id="Path_1921" data-name="Path 1921" d="M99.943,339.091H90.667v-9.119a4.646,4.646,0,0,1,4.638-4.638h0a4.646,4.646,0,0,1,4.638,4.638Z" transform="translate(-83.985 -301.358)" fill="#415a6b"/>
      <rect id="Rectangle_210" data-name="Rectangle 210" width="12.106" height="10.612" transform="translate(18.709 23.976)" fill="#344a5e"/>
      <g id="Group_525" data-name="Group 525" transform="translate(19.967 25.234)">
        <rect id="Rectangle_211" data-name="Rectangle 211" width="4.166" height="8.097" fill="#8ad7f8"/>
        <rect id="Rectangle_212" data-name="Rectangle 212" width="4.166" height="8.097" transform="translate(5.424)" fill="#8ad7f8"/>
      </g>
      <path id="Path_1922" data-name="Path 1922" d="M37.025,17.137,20.6.707a2.565,2.565,0,0,0-3.537,0L.707,17.137a2.565,2.565,0,0,0,0,3.537,2.565,2.565,0,0,0,3.537,0L18.866,6.053,33.488,20.674a2.5,2.5,0,0,0,3.537-3.537Z" transform="translate(0 0)" fill="#f3705a"/>
    </g>
    <g id="Group_526" data-name="Group 526" transform="translate(-187 9.063)">
      <path id="Path_1837" data-name="Path 1837" d="M59.41,59.705v1.482H52L53.482,56h2.223A3.7,3.7,0,0,1,59.41,59.705Z" transform="translate(200.115 238.008)" fill="#e6e9ed"/>
      <path id="Path_1838" data-name="Path 1838" d="M56.223,56H54a3.7,3.7,0,0,1,3.7,3.705v1.482h2.225V59.705A3.7,3.7,0,0,0,56.223,56Z" transform="translate(199.597 238.008)" fill="#ccd1d9"/>
      <path id="Path_1839" data-name="Path 1839" d="M43.928,56l1.482,5.187H38V59.705A3.706,3.706,0,0,1,41.705,56Z" transform="translate(203.741 238.008)" fill="#e6e9ed"/>
      <path id="Path_1841" data-name="Path 1841" d="M48.964,52.757a6.646,6.646,0,0,0,2.964-.7V54.98l-1.482.741-1.482-.741-1.482.741L46,54.98V52.06A6.637,6.637,0,0,0,48.964,52.757Z" transform="translate(201.669 239.029)" fill="#87bcf4"/>
      <path id="Path_1842" data-name="Path 1842" d="M54.338,40.04v2.934a6.669,6.669,0,0,1-13.338,0V40.04H54.338Z" transform="translate(202.964 242.141)" fill="#eac6bb"/>
      <path id="Path_1843" data-name="Path 1843" d="M54.055,40.04v2.934A6.628,6.628,0,0,1,48.5,49.54a6.735,6.735,0,0,0,1.113.1,6.672,6.672,0,0,0,6.669-6.669V40.04Z" transform="translate(201.022 242.141)" fill="#d3b1a9"/>
      <path id="Path_1846" data-name="Path 1846" d="M51.928,56l-1.482,5.187H47.482L46,56l1.482.741L48.964,56l1.482.741Z" transform="translate(201.669 238.008)" fill="#5d9cec"/>
      <path id="Path_1849" data-name="Path 1849" d="M42.492,30H52.866a1.486,1.486,0,0,1,1.482,1.482V37.44H41.01V31.482A1.486,1.486,0,0,1,42.492,30Z" transform="translate(202.962 244.742)" fill="#e6e9ed"/>
      <path id="Path_1850" data-name="Path 1850" d="M56.232,30H54.007a1.486,1.486,0,0,1,1.482,1.482V37.44h2.225V31.482A1.486,1.486,0,0,0,56.232,30Z" transform="translate(199.596 244.742)" fill="#ccd1d9"/>
      <path id="Path_1853" data-name="Path 1853" d="M37.741,60.187A.74.74,0,0,1,37,59.446,4.451,4.451,0,0,1,41.446,55a.741.741,0,0,1,0,1.482,2.967,2.967,0,0,0-2.964,2.964A.74.74,0,0,1,37.741,60.187Z" transform="translate(204 238.267)"/>
      <path id="Path_1854" data-name="Path 1854" d="M44.964,56.482H42.741a.741.741,0,1,1,0-1.482h2.223a.741.741,0,1,1,0,1.482Z" transform="translate(202.705 238.267)"/>
      <path id="Path_1855" data-name="Path 1855" d="M37.741,62.962A.74.74,0,0,1,37,62.221v-1.48a.741.741,0,0,1,1.482,0v1.48A.74.74,0,0,1,37.741,62.962Z" transform="translate(204 236.972)"/>
      <path id="Path_1856" data-name="Path 1856" d="M60.446,60.187a.74.74,0,0,1-.741-.741,2.967,2.967,0,0,0-2.964-2.964.741.741,0,1,1,0-1.482,4.451,4.451,0,0,1,4.446,4.446A.74.74,0,0,1,60.446,60.187Z" transform="translate(199.079 238.267)"/>
      <path id="Path_1857" data-name="Path 1857" d="M55.964,56.482H53.741a.741.741,0,1,1,0-1.482h2.223a.741.741,0,0,1,0,1.482Z" transform="translate(199.856 238.267)"/>
      <path id="Path_1858" data-name="Path 1858" d="M61.741,62.962A.74.74,0,0,1,61,62.221v-1.48a.741.741,0,0,1,1.482,0v1.48A.74.74,0,0,1,61.741,62.962Z" transform="translate(197.785 236.972)"/>
      <path id="Path_1859" data-name="Path 1859" d="M45.741,55.463A.74.74,0,0,1,45,54.722V51.805a.741.741,0,0,1,1.482,0v2.917A.74.74,0,0,1,45.741,55.463Z" transform="translate(201.928 239.286)"/>
      <path id="Path_1860" data-name="Path 1860" d="M53.741,55.463A.74.74,0,0,1,53,54.722V51.805a.741.741,0,0,1,1.482,0v2.917A.74.74,0,0,1,53.741,55.463Z" transform="translate(199.856 239.286)"/>
      <path id="Path_1861" data-name="Path 1861" d="M47.222,57.223a.743.743,0,0,1-.33-.078L45.41,56.4a.741.741,0,0,1,.663-1.326l1.482.741a.741.741,0,0,1-.333,1.4Z" transform="translate(201.928 238.267)"/>
      <path id="Path_1862" data-name="Path 1862" d="M47.742,57.223a.741.741,0,0,1-.333-1.4l1.482-.741a.741.741,0,1,1,.663,1.326l-1.482.741A.734.734,0,0,1,47.742,57.223Z" transform="translate(201.41 238.267)"/>
      <path id="Path_1863" data-name="Path 1863" d="M51.742,57.223a.741.741,0,0,1-.333-1.4l1.482-.741a.741.741,0,1,1,.663,1.326l-1.482.741A.734.734,0,0,1,51.742,57.223Z" transform="translate(200.375 238.267)"/>
      <path id="Path_1864" data-name="Path 1864" d="M51.222,57.223a.743.743,0,0,1-.33-.078L49.41,56.4a.741.741,0,0,1,.663-1.326l1.482.741a.741.741,0,0,1-.333,1.4Z" transform="translate(200.892 238.267)"/>
      <path id="Path_1890" data-name="Path 1890" d="M40.741,43.417A.74.74,0,0,1,40,42.676V39.74a.741.741,0,0,1,1.482,0v2.936A.74.74,0,0,1,40.741,43.417Z" transform="translate(203.223 242.411)"/>
      <path id="Path_1891" data-name="Path 1891" d="M58.741,43.447A.74.74,0,0,1,58,42.706V39.74a.741.741,0,0,1,1.482,0v2.966A.74.74,0,0,1,58.741,43.447Z" transform="translate(198.561 242.411)"/>
      <path id="Path_1892" data-name="Path 1892" d="M47.409,51.153A7.417,7.417,0,0,1,40,43.744a.741.741,0,1,1,1.482,0,5.928,5.928,0,0,0,11.856,0,.741.741,0,1,1,1.482,0A7.418,7.418,0,0,1,47.409,51.153Z" transform="translate(203.223 241.374)"/>
      <path id="Path_1893" data-name="Path 1893" d="M54.093,37.924H40.749a.74.74,0,0,1-.741-.741V31.225A2.226,2.226,0,0,1,42.231,29h10.38a2.226,2.226,0,0,1,2.223,2.223v5.958A.741.741,0,0,1,54.093,37.924Zm-12.6-1.482H53.352V31.225a.741.741,0,0,0-.741-.741H42.231a.741.741,0,0,0-.741.741Z" transform="translate(203.221 245)"/>
      <path id="Path_1894" data-name="Path 1894" d="M49.738,36.458A.74.74,0,0,1,49,35.717V32.744a.741.741,0,0,1,1.482,0v2.973A.741.741,0,0,1,49.738,36.458Z" transform="translate(200.893 244.223)"/>
      <path id="Path_1895" data-name="Path 1895" d="M50.7,35.5H47.737a.741.741,0,1,1,0-1.482H50.7a.741.741,0,0,1,0,1.482Z" transform="translate(201.411 243.7)"/>
      <path id="Path_1896" data-name="Path 1896" d="M47.222,61.669a.741.741,0,0,1-.712-.538l-1.482-5.186a.741.741,0,1,1,1.426-.406l1.482,5.186a.742.742,0,0,1-.51.916A.768.768,0,0,1,47.222,61.669Z" transform="translate(201.928 238.267)"/>
      <path id="Path_1897" data-name="Path 1897" d="M51.742,61.669a.768.768,0,0,1-.2-.028.742.742,0,0,1-.51-.916l1.482-5.186a.741.741,0,1,1,1.426.406l-1.482,5.186A.741.741,0,0,1,51.742,61.669Z" transform="translate(200.374 238.267)"/>
    </g>
  </g>
</svg>
