<svg xmlns="http://www.w3.org/2000/svg" width="62" height="62" viewBox="0 0 62 62">
  <g id="declaration-icon" transform="translate(-1 -1)">
    <g id="Group_399" data-name="Group 399">
      <g id="Group_398" data-name="Group 398">
        <path id="Path_1221" data-name="Path 1221" d="M12,23A11,11,0,1,1,23,12,11.013,11.013,0,0,1,12,23Z" fill="#f0bc5e"/>
      </g>
    </g>
    <g id="Group_400" data-name="Group 400">
      <path id="Path_1222" data-name="Path 1222" d="M25,16V28H41V21H51V16Z" fill="#f0bc5e"/>
    </g>
    <g id="Group_402" data-name="Group 402">
      <g id="Group_401" data-name="Group 401">
        <path id="Path_1223" data-name="Path 1223" d="M51,13H25V5H51Z" fill="#f0bc5e"/>
      </g>
    </g>
    <g id="Group_403" data-name="Group 403">
      <path id="Path_1224" data-name="Path 1224" d="M11,16.855V19h2V16.855a2.844,2.844,0,0,0,.422-5.262l-1.949-.975A.854.854,0,0,1,11.854,9h.291A.856.856,0,0,1,13,9.854V11h2V9.854a2.849,2.849,0,0,0-2-2.709V5H11V7.145a2.844,2.844,0,0,0-.422,5.262l1.949.975A.854.854,0,0,1,12.146,15h-.291A.856.856,0,0,1,11,14.146V13H9v1.146A2.849,2.849,0,0,0,11,16.855Z"/>
      <path id="Path_1225" data-name="Path 1225" d="M63,48.387V31.613l-6.923,2.308L52.8,32.285l3.771-3.52A4.469,4.469,0,0,0,55,21.272V4a3,3,0,0,0-3-3H12a10.93,10.93,0,0,1,6.305,2H52a1,1,0,0,1,1,1V21.039a4.448,4.448,0,0,0-2.705,1.213L42.239,30H38.281a6.992,6.992,0,0,0-3.6,1H9V59H51V47.468l2-.571V60a1,1,0,0,1-1,1H8a1,1,0,0,1-1-1V21.786a11.013,11.013,0,0,1-2-1.307V60a3,3,0,0,0,3,3H52a3,3,0,0,0,3-3V46.326l.977-.279ZM57,35.721l4-1.333V45.614l-4-1.333Zm-2-.1v8.628l-5.468,1.562A5.012,5.012,0,0,1,48.16,46H31a1,1,0,0,1-1-1,3,3,0,0,1,3-3h8.586l2.707,2.707,1.414-1.414-2.268-2.268,7.805-7.285ZM27.745,37H27V33h5.245ZM25,37H19V33h6Zm1.216,2A3.6,3.6,0,0,0,26,40.171a3.836,3.836,0,0,0,2.1,3.41l-2.953,2.848-1.96,4.9A2.665,2.665,0,0,0,25,54.9V57H19V39Zm-.289,13.952A.7.7,0,0,1,25,52.323a.68.68,0,0,1,.049-.251l1.317-3.292,2.855,2.855ZM27,54.677l4.371-1.748L33,51.634V57H27Zm4.073-4.018-3.646-3.646.833-.8A3,3,0,0,0,31,48h3.382ZM41.606,40H34.729L48.418,26.832l3.522,3.522ZM51.681,23.693A2.474,2.474,0,0,1,53.4,23h.111a2.485,2.485,0,0,1,1.7,4.3L53.4,28.989,49.86,25.445ZM40.16,32l-8.545,8.22a4.972,4.972,0,0,0-2.47,1.636A1.827,1.827,0,0,1,28,40.171a1.61,1.61,0,0,1,.54-1.2l6.419-5.706A5,5,0,0,1,38.281,32ZM17,33v4H11V33Zm-6,6h6V57H11ZM35,57V50.044L37.571,48H41v9Zm8,0V48h5.16a6.947,6.947,0,0,0,.84-.059V57Z"/>
      <path id="Path_1226" data-name="Path 1226" d="M25,15H51v2H25Z"/>
      <path id="Path_1227" data-name="Path 1227" d="M25,19H47v2H25Z"/>
      <path id="Path_1228" data-name="Path 1228" d="M49,19h2v2H49Z"/>
      <path id="Path_1229" data-name="Path 1229" d="M25,23H41v2H25Z"/>
      <path id="Path_1230" data-name="Path 1230" d="M25,27H41v2H25Z"/>
    </g>
  </g>
</svg>
