<svg xmlns="http://www.w3.org/2000/svg" width="44.725" height="58.338" viewBox="0 0 44.725 58.338">
  <g id="declaration-diary-icon" transform="translate(-9 -2)">
    <path id="Path_1390" data-name="Path 1390" d="M46.947,59.393H10V3H52.781V53.559Z" transform="translate(-0.028 -0.028)" fill="#cdeef6"/>
    <path id="Path_1391" data-name="Path 1391" d="M48,60.834V55h5.834Z" transform="translate(-1.081 -1.469)" fill="#b6d6db"/>
    <g id="Group_439" data-name="Group 439" transform="translate(13.861 23.39)">
      <path id="Path_1392" data-name="Path 1392" d="M14,28h5.834v1.945H14Z" transform="translate(-14 -24.111)" fill="#394d5c"/>
      <path id="Path_1393" data-name="Path 1393" d="M30,28H49.446v1.945H30Z" transform="translate(-14.443 -24.111)" fill="#394d5c"/>
      <path id="Path_1394" data-name="Path 1394" d="M26,28h1.945v1.945H26Z" transform="translate(-14.332 -24.111)" fill="#394d5c"/>
      <path id="Path_1395" data-name="Path 1395" d="M14,24h5.834v1.945H14Z" transform="translate(-14 -24)" fill="#394d5c"/>
      <path id="Path_1396" data-name="Path 1396" d="M26,24H45.446v1.945H26Z" transform="translate(-14.332 -24)" fill="#394d5c"/>
      <path id="Path_1397" data-name="Path 1397" d="M48,24h1.945v1.945H48Z" transform="translate(-14.942 -24)" fill="#394d5c"/>
      <path id="Path_1398" data-name="Path 1398" d="M14,36h5.834v1.945H14Z" transform="translate(-14 -24.332)" fill="#394d5c"/>
      <path id="Path_1399" data-name="Path 1399" d="M30,36H49.446v1.945H30Z" transform="translate(-14.443 -24.332)" fill="#394d5c"/>
      <path id="Path_1400" data-name="Path 1400" d="M26,36h1.945v1.945H26Z" transform="translate(-14.332 -24.332)" fill="#394d5c"/>
      <path id="Path_1401" data-name="Path 1401" d="M14,32h5.834v1.945H14Z" transform="translate(-14 -24.222)" fill="#394d5c"/>
      <path id="Path_1402" data-name="Path 1402" d="M26,32H45.446v1.945H26Z" transform="translate(-14.332 -24.222)" fill="#394d5c"/>
      <path id="Path_1403" data-name="Path 1403" d="M48,32h1.945v1.945H48Z" transform="translate(-14.942 -24.222)" fill="#394d5c"/>
      <path id="Path_1404" data-name="Path 1404" d="M14,44h5.834v1.945H14Z" transform="translate(-14 -24.554)" fill="#394d5c"/>
      <path id="Path_1405" data-name="Path 1405" d="M30,44H49.446v1.945H30Z" transform="translate(-14.443 -24.554)" fill="#394d5c"/>
      <path id="Path_1406" data-name="Path 1406" d="M26,44h1.945v1.945H26Z" transform="translate(-14.332 -24.554)" fill="#394d5c"/>
      <path id="Path_1407" data-name="Path 1407" d="M14,40h5.834v1.945H14Z" transform="translate(-14 -24.443)" fill="#394d5c"/>
      <path id="Path_1408" data-name="Path 1408" d="M26,40H45.446v1.945H26Z" transform="translate(-14.332 -24.443)" fill="#394d5c"/>
      <path id="Path_1409" data-name="Path 1409" d="M48,40h1.945v1.945H48Z" transform="translate(-14.942 -24.443)" fill="#394d5c"/>
    </g>
    <path id="Path_1410" data-name="Path 1410" d="M13,18H49.947v1.945H13Z" transform="translate(-0.111 -0.443)" fill="#7fcac9"/>
    <ellipse id="Ellipse_95" data-name="Ellipse 95" cx="4" cy="3.5" rx="4" ry="3.5" transform="translate(14 7.338)" fill="#e1462b"/>
    <path id="Path_1411" data-name="Path 1411" d="M25,6h9.723V7.945H25Z" transform="translate(-0.443 -0.111)" fill="#7d8d9c"/>
    <path id="Path_1412" data-name="Path 1412" d="M25,10h5.834v1.945H25Z" transform="translate(-0.443 -0.222)" fill="#7d8d9c"/>
    <path id="Path_1413" data-name="Path 1413" d="M37,6H50.612V7.945H37Z" transform="translate(-0.776 -0.111)" fill="#7d8d9c"/>
    <path id="Path_1414" data-name="Path 1414" d="M33,10H50.5v1.945H33Z" transform="translate(-0.665 -0.222)" fill="#7d8d9c"/>
    <path id="Path_1415" data-name="Path 1415" d="M25,14H38.612v1.945H25Z" transform="translate(-0.443 -0.332)" fill="#7d8d9c"/>
    <path id="Path_1416" data-name="Path 1416" d="M41,14h1.945v1.945H41Z" transform="translate(-0.887 -0.332)" fill="#7d8d9c"/>
    <path id="Path_1417" data-name="Path 1417" d="M14,51H37.335v5.834H14Z" transform="translate(-0.139 -1.358)" fill="#fff69a"/>
    <path id="Path_1418" data-name="Path 1418" d="M52.753,2H9.972A.972.972,0,0,0,9,2.972V59.365a.972.972,0,0,0,.972.972H46.919a.972.972,0,0,0,.687-.285l5.834-5.834a.972.972,0,0,0,.285-.687V2.972A.972.972,0,0,0,52.753,2ZM10.945,3.945H51.781V52.559H46.919a.972.972,0,0,0-.972.972v4.861h-35ZM50.406,54.5l-2.514,2.514V54.5Z"/>
    <path id="Path_1419" data-name="Path 1419" d="M14,28h5.834v1.945H14Z" transform="translate(-0.139 -0.72)"/>
    <path id="Path_1420" data-name="Path 1420" d="M30,28H49.446v1.945H30Z" transform="translate(-0.582 -0.72)"/>
    <path id="Path_1421" data-name="Path 1421" d="M26,28h1.945v1.945H26Z" transform="translate(-0.471 -0.72)"/>
    <path id="Path_1422" data-name="Path 1422" d="M14,24h5.834v1.945H14Z" transform="translate(-0.139 -0.61)"/>
    <path id="Path_1423" data-name="Path 1423" d="M26,24H45.446v1.945H26Z" transform="translate(-0.471 -0.61)"/>
    <path id="Path_1424" data-name="Path 1424" d="M48,24h1.945v1.945H48Z" transform="translate(-1.081 -0.61)"/>
    <path id="Path_1425" data-name="Path 1425" d="M14,36h5.834v1.945H14Z" transform="translate(-0.139 -0.942)"/>
    <path id="Path_1426" data-name="Path 1426" d="M30,36H49.446v1.945H30Z" transform="translate(-0.582 -0.942)"/>
    <path id="Path_1427" data-name="Path 1427" d="M26,36h1.945v1.945H26Z" transform="translate(-0.471 -0.942)"/>
    <path id="Path_1428" data-name="Path 1428" d="M14,32h5.834v1.945H14Z" transform="translate(-0.139 -0.831)"/>
    <path id="Path_1429" data-name="Path 1429" d="M26,32H45.446v1.945H26Z" transform="translate(-0.471 -0.831)"/>
    <path id="Path_1430" data-name="Path 1430" d="M48,32h1.945v1.945H48Z" transform="translate(-1.081 -0.831)"/>
    <path id="Path_1431" data-name="Path 1431" d="M14,44h5.834v1.945H14Z" transform="translate(-0.139 -1.164)"/>
    <path id="Path_1432" data-name="Path 1432" d="M30,44H49.446v1.945H30Z" transform="translate(-0.582 -1.164)"/>
    <path id="Path_1433" data-name="Path 1433" d="M26,44h1.945v1.945H26Z" transform="translate(-0.471 -1.164)"/>
    <path id="Path_1434" data-name="Path 1434" d="M14,40h5.834v1.945H14Z" transform="translate(-0.139 -1.053)"/>
    <path id="Path_1435" data-name="Path 1435" d="M26,40H45.446v1.945H26Z" transform="translate(-0.471 -1.053)"/>
    <path id="Path_1436" data-name="Path 1436" d="M48,40h1.945v1.945H48Z" transform="translate(-1.081 -1.053)"/>
    <path id="Path_1437" data-name="Path 1437" d="M13,18H49.947v1.945H13Z" transform="translate(-0.111 -0.443)"/>
    <path id="Path_1438" data-name="Path 1438" d="M17.861,15.723A4.861,4.861,0,1,0,13,10.861a4.861,4.861,0,0,0,4.861,4.861Zm0-7.778a2.917,2.917,0,1,1-2.917,2.917A2.917,2.917,0,0,1,17.861,7.945Z" transform="translate(-0.111 -0.111)"/>
    <path id="Path_1439" data-name="Path 1439" d="M25,6h9.723V7.945H25Z" transform="translate(-0.443 -0.111)"/>
    <path id="Path_1440" data-name="Path 1440" d="M25,10h5.834v1.945H25Z" transform="translate(-0.443 -0.222)"/>
    <path id="Path_1441" data-name="Path 1441" d="M37,6H50.612V7.945H37Z" transform="translate(-0.776 -0.111)"/>
    <path id="Path_1442" data-name="Path 1442" d="M33,10H50.5v1.945H33Z" transform="translate(-0.665 -0.222)"/>
    <path id="Path_1443" data-name="Path 1443" d="M25,14H38.612v1.945H25Z" transform="translate(-0.443 -0.332)"/>
    <path id="Path_1444" data-name="Path 1444" d="M41,14h1.945v1.945H41Z" transform="translate(-0.887 -0.332)"/>
    <path id="Path_1445" data-name="Path 1445" d="M13,50v7.778H38.28V50Zm23.335,5.834H14.945V51.945h21.39Z" transform="translate(-0.111 -1.33)"/>
  </g>
</svg>
