<svg xmlns="http://www.w3.org/2000/svg" width="73.809" height="73.809" viewBox="0 0 73.809 73.809">
  <g id="dj11" transform="translate(0)">
    <g id="Group_69" data-name="Group 69" transform="translate(1.19 1.19)">
      <g id="Group_65" data-name="Group 65" transform="translate(9.524 0)">
        <path id="Path_118" data-name="Path 118" d="M-885.955-1669.308a34.6,34.6,0,0,1-2.059,11.738,34.549,34.549,0,0,1-5.94,10.345l-3.9,4.69-10.714-10.714.655-.655A9.937,9.937,0,0,0-905-1660.94v-.083a4.125,4.125,0,0,0-4.131-4.131h-.06a4.223,4.223,0,0,0-3,1.238l-1.143,1.143a12.871,12.871,0,0,1-3.964-3.071,12.758,12.758,0,0,1-2.476-4.357l-.9-2.69a4.34,4.34,0,0,0-4.119-2.976h-.059a4.422,4.422,0,0,0-2.786.964c-.607.488-1.369,1.107-2.107,1.691a9.548,9.548,0,0,1-6,2.107h-.524a11.551,11.551,0,0,1-11.583-11.548v-.357a11.909,11.909,0,0,1,11.9-11.9,7.354,7.354,0,0,1,2.321.381l3.75,1.25a14.7,14.7,0,0,0,4.643.75,14.7,14.7,0,0,0,4.643-.75l.94-.322a25.623,25.623,0,0,1,8.1-1.309,25.533,25.533,0,0,1,18.107,7.5,25.534,25.534,0,0,1,7.5,18.107Z" transform="translate(947.859 1694.915)" fill="#fcd770"/>
      </g>
      <g id="Group_66" data-name="Group 66" transform="translate(47.619 64.285)">
        <path id="Path_119" data-name="Path 119" d="M-674.312-1256.7l.31.928h-17.857l.309-.928a9.1,9.1,0,0,1,3.309-4.5,9.032,9.032,0,0,1,5.31-1.714,8.879,8.879,0,0,1,2.976.512,9.049,9.049,0,0,1,5.643,5.7Z" transform="translate(691.859 1262.915)" fill="#ecc19c"/>
      </g>
      <g id="Group_67" data-name="Group 67" transform="translate(19.047 19.047)">
        <path id="Path_120" data-name="Path 120" d="M-846.359-1521.677a9.032,9.032,0,0,0-5.31,1.714,9.106,9.106,0,0,0-3.309,4.5l-.31.928h-11.9a11.62,11.62,0,0,1,4.25-5.762l3.274-2.333a4.751,4.751,0,0,0,2-3.881v-1.512l-6.167,1.369a9.207,9.207,0,0,1-1.976.214,9.083,9.083,0,0,1-8.428-5.7l-.1-.25.7-.7a5.749,5.749,0,0,0,1.678-4.06h-5.952l-1.19-4.762a10.213,10.213,0,0,1-4.512-1.06l-.25-.131.548-2.2a21.259,21.259,0,0,0,.643-5.2v-4.31a23.305,23.305,0,0,1,1.19-7.333h.2a9.547,9.547,0,0,0,6-2.107c.738-.583,1.5-1.2,2.107-1.69a4.422,4.422,0,0,1,2.786-.964h.06a4.34,4.34,0,0,1,4.119,2.976l.9,2.691a12.751,12.751,0,0,0,2.476,4.357,12.862,12.862,0,0,0,3.964,3.071l1.143-1.143a4.223,4.223,0,0,1,3-1.238h.06a4.125,4.125,0,0,1,4.131,4.131v.083a9.938,9.938,0,0,1-2.917,7.036l-.655.655,10.714,10.714v12.417a8.885,8.885,0,0,0-2.976-.512Z" transform="translate(883.859 1566.915)" fill="#f0d0b4"/>
      </g>
      <g id="Group_68" data-name="Group 68" transform="translate(0 38.095)">
        <path id="Path_121" data-name="Path 121" d="M-986.859-1416.3v7.143l-3.928,2.94a3.061,3.061,0,0,1-1.881.631,2.539,2.539,0,0,1-1.786-.738,2.539,2.539,0,0,1-.738-1.786,2.521,2.521,0,0,1,.738-1.786l.9-.905a2.522,2.522,0,0,0,.738-1.785,2.538,2.538,0,0,0-.738-1.786,2.538,2.538,0,0,0-1.786-.738h-.167a2.523,2.523,0,0,0-1.571.548l-4,3.2a2.966,2.966,0,0,1-2.8.5,2.97,2.97,0,0,1-2.036-2.821,2.94,2.94,0,0,1,1.119-2.322l3.929-3.143a2.428,2.428,0,0,0,.9-1.881,2.372,2.372,0,0,0-.714-1.7,2.373,2.373,0,0,0-1.7-.714h-7.107a2.388,2.388,0,0,1-2.381-2.381,2.327,2.327,0,0,1,.7-1.678,2.326,2.326,0,0,1,1.679-.7h7.321a2.205,2.205,0,0,0,2.2-2.2,2.207,2.207,0,0,0-1.214-1.976l-1.869-.94a3.009,3.009,0,0,1-1.679-2.7,2.886,2.886,0,0,1,.845-2.047,2.888,2.888,0,0,1,2.048-.845,2.843,2.843,0,0,1,1.286.31l4.155,2.072v9.524a4.742,4.742,0,0,0,1.619,3.571,4.763,4.763,0,0,0,3.143,1.19,4.791,4.791,0,0,1,3.369,1.393,4.791,4.791,0,0,1,1.393,3.369Z" transform="translate(1011.859 1438.915)" fill="#ccd1d9"/>
      </g>
    </g>
    <g id="Group_70" data-name="Group 70" transform="translate(0)">
      <path id="Path_122" data-name="Path 122" d="M-842.94-1490.888l-1.683-1.683-4.739,4.739,6.239,3.12,1.064-2.131-3.285-1.642Z" transform="translate(874.734 1523.872)"/>
      <path id="Path_123" data-name="Path 123" d="M-903.479-1637.72v-11.193l3.633-4.361a35.747,35.747,0,0,0,8.271-22.844,26.827,26.827,0,0,0-26.8-26.8,26.8,26.8,0,0,0-8.475,1.375l-.942.314a13.55,13.55,0,0,1-8.527,0l-3.754-1.251a8.494,8.494,0,0,0-2.7-.438,13.11,13.11,0,0,0-13.1,13.095v.357a12.769,12.769,0,0,0,11.531,12.675,24.3,24.3,0,0,0-.817,6.208v4.312a20.261,20.261,0,0,1-.6,4.908l-.782,3.13,1.106.552a11.378,11.378,0,0,0,4.1,1.151l1.2,4.8h5.531a4.585,4.585,0,0,1-1.174,2.032l-1.252,1.253.389.973a10.221,10.221,0,0,0,9.535,6.456,10.275,10.275,0,0,0,2.227-.244l4.721-1.049v.033a3.58,3.58,0,0,1-1.5,2.906l-3.276,2.341a12.682,12.682,0,0,0-4.692,6.351l-.521,1.567h33.064l-.832-2.5a10.24,10.24,0,0,0-5.581-6.115Zm-50-51.742v-.357a10.727,10.727,0,0,1,10.714-10.714,6.1,6.1,0,0,1,1.944.317l3.753,1.25a15.925,15.925,0,0,0,10.033,0l.942-.313a24.358,24.358,0,0,1,7.721-1.254,24.443,24.443,0,0,1,24.415,24.417,33.361,33.361,0,0,1-7.719,21.319l-3.075,3.692-8.952-8.954a11.125,11.125,0,0,0,3.083-7.77,5.277,5.277,0,0,0-1.558-3.763,5.326,5.326,0,0,0-3.83-1.56,5.386,5.386,0,0,0-3.836,1.583l-.517.518a11.567,11.567,0,0,1-5.1-6.338l-.9-2.687a5.554,5.554,0,0,0-5.314-3.791,5.582,5.582,0,0,0-3.525,1.23l-2.107,1.685a8.441,8.441,0,0,1-5.258,1.848h-.521a10.388,10.388,0,0,1-10.4-10.357Zm36.046,57.976h-9.25a10.322,10.322,0,0,1,3.149-3.6l3.276-2.34a5.967,5.967,0,0,0,2.493-4.844v-.562l2.639-.587-.517-2.325-9.742,2.167a7.914,7.914,0,0,1-1.711.187,7.848,7.848,0,0,1-7.118-4.488l.13-.13a6.985,6.985,0,0,0,2.032-4.906v-1.19h-6.213l-1.19-4.762h-.93a8.918,8.918,0,0,1-3.369-.664l.313-1.251a22.647,22.647,0,0,0,.675-5.484v-4.312a21.987,21.987,0,0,1,.9-6.175,10.841,10.841,0,0,0,6.046-2.338l2.108-1.686a3.267,3.267,0,0,1,2.092-.708,3.156,3.156,0,0,1,3,2.162l.9,2.687a13.948,13.948,0,0,0,7.042,8.12l.768.383,1.754-1.755a3.07,3.07,0,0,1,2.218-.884,2.92,2.92,0,0,1,2.079.862,2.974,2.974,0,0,1,.861,2.161,8.7,8.7,0,0,1-2.567,6.19l-1.5,1.5,11.207,11.207v10.388a10.31,10.31,0,0,0-1.786-.167,10.262,10.262,0,0,0-9.747,7.025Zm2.541,0a7.883,7.883,0,0,1,7.246-4.762,7.883,7.883,0,0,1,7.247,4.762Z" transform="translate(965.383 1702.915)"/>
      <path id="Path_124" data-name="Path 124" d="M-998.308-1413.971a1.933,1.933,0,0,1-1.169.389,1.336,1.336,0,0,1-1.335-1.334,1.349,1.349,0,0,1,.391-.944l.9-.9a3.741,3.741,0,0,0,1.088-2.627,3.72,3.72,0,0,0-3.715-3.716h-.161a3.733,3.733,0,0,0-2.321.814l-4,3.2a1.785,1.785,0,0,1-1.682.3,1.784,1.784,0,0,1-1.218-1.693,1.773,1.773,0,0,1,.669-1.392l3.932-3.147a3.582,3.582,0,0,0,1.351-2.812,3.606,3.606,0,0,0-3.6-3.6h-7.112a1.192,1.192,0,0,1-1.191-1.19,1.192,1.192,0,0,1,1.191-1.19h7.316a3.4,3.4,0,0,0,3.4-3.4,3.381,3.381,0,0,0-1.879-3.04l-1.868-.933a1.829,1.829,0,0,1-1.016-1.645,1.7,1.7,0,0,1,1.7-1.7,1.719,1.719,0,0,1,.76.178l4.151,2.076,1.065-2.129-4.154-2.078a4.124,4.124,0,0,0-1.823-.428,4.085,4.085,0,0,0-4.08,4.08,4.2,4.2,0,0,0,2.332,3.775l1.867.934a1.009,1.009,0,0,1,.563.909,1.019,1.019,0,0,1-1.017,1.017h-7.316a3.575,3.575,0,0,0-3.571,3.571,3.576,3.576,0,0,0,3.571,3.571h7.112a1.222,1.222,0,0,1,1.221,1.221,1.219,1.219,0,0,1-.458.954l-3.932,3.146a4.144,4.144,0,0,0-1.562,3.25,4.159,4.159,0,0,0,2.852,3.951,4.154,4.154,0,0,0,3.917-.7l4-3.2a1.342,1.342,0,0,1,.833-.292h.161a1.336,1.336,0,0,1,1.334,1.335,1.349,1.349,0,0,1-.39.944l-.9.9a3.74,3.74,0,0,0-1.088,2.627,3.72,3.72,0,0,0,3.715,3.716,4.353,4.353,0,0,0,2.6-.867l3.925-2.943-1.428-1.9Z" transform="translate(1019.859 1485.01)"/>
      <path id="Path_125" data-name="Path 125" d="M-907.859-1342.915h2.381v2.381h-2.381Z" transform="translate(924.526 1396.486)"/>
      <path id="Path_126" data-name="Path 126" d="M-891.859-1374.915h2.381v2.381h-2.381Z" transform="translate(910.906 1423.724)"/>
      <path id="Path_127" data-name="Path 127" d="M-875.859-1326.915h2.381v2.381h-2.381Z" transform="translate(897.288 1382.867)"/>
      <path id="Path_128" data-name="Path 128" d="M-859.859-1294.915h2.381v2.381h-2.381Z" transform="translate(883.668 1355.629)"/>
    </g>
  </g>
</svg>
