<svg id="dj15" xmlns="http://www.w3.org/2000/svg" width="45.212" height="67.256" viewBox="0 0 45.212 67.256">
  <g id="Group_89" data-name="Group 89" transform="translate(0.993 0.988)">
    <path id="Path_150" data-name="Path 150" d="M526.519-1668.534l-6.911-12.646a17.735,17.735,0,0,1-2.165-8.988c0-.166.007-.333.007-.5a18.059,18.059,0,0,0-7.727-14.812l-.88-.614a5.107,5.107,0,0,0-5.847,0l-.88.614a18.059,18.059,0,0,0-7.721,15.308c0,.16.007.321.007.481a17.731,17.731,0,0,1-2.172,8.507l-6.911,12.646a8.269,8.269,0,0,0,2.279,10.567,8.265,8.265,0,0,0,4.978,1.667,8.25,8.25,0,0,0,3.379-.724l4.258-2.241a.3.3,0,0,1,.374.074l.161.191a6.667,6.667,0,0,0,10.209,0l.138-.165a.3.3,0,0,1,.369-.076l2.776,1.393a13.9,13.9,0,0,0,5.3,1.542,7.134,7.134,0,0,0,4.7-1.662,8.263,8.263,0,0,0,3.292-6.607,8.243,8.243,0,0,0-1.013-3.96Z" transform="translate(-484.306 1707.009)" fill="#fed2a4"/>
    <path id="Path_151" data-name="Path 151" d="M490.026-1665.128l6.911-12.646a17.73,17.73,0,0,0,2.172-8.507c0-.16,0-.321-.007-.481a18.058,18.058,0,0,1,7.721-15.308l.88-.614a5.106,5.106,0,0,1,4.56-.647,18.037,18.037,0,0,0-2.54-2.145l-.88-.614a5.107,5.107,0,0,0-5.847,0l-.88.614a18.059,18.059,0,0,0-7.721,15.308c0,.16.007.321.007.481a17.731,17.731,0,0,1-2.172,8.507l-6.911,12.646a8.269,8.269,0,0,0,2.279,10.567,8.267,8.267,0,0,0,2.794,1.373,8.273,8.273,0,0,1-.366-8.535Z" transform="translate(-484.306 1707.009)" fill="#ffbd86"/>
    <g id="Group_87" data-name="Group 87" transform="translate(5.577 41.354)">
      <g id="Group_84" data-name="Group 84" transform="translate(20.989 0)">
        <g id="Group_82" data-name="Group 82" transform="translate(1.73)">
          <path id="Path_152" data-name="Path 152" d="M708.931-1389.559a2.4,2.4,0,0,1-.39,1.314,2.429,2.429,0,0,1-.868.807,2.439,2.439,0,0,1-1.133.3l-6.679-.149a.154.154,0,0,1-.115-.254l2.628-3.129a4.281,4.281,0,0,1,5.246-1.048,2.425,2.425,0,0,1,1.311,2.157Z" transform="translate(-699.71 1392.196)" fill="#ffbd86"/>
        </g>
        <g id="Group_83" data-name="Group 83" transform="translate(0 4.949)">
          <path id="Path_153" data-name="Path 153" d="M697.344-1344.76a15.64,15.64,0,0,1-2.6-8.773v-.886l-4.588-.1v1.033a16.439,16.439,0,0,1-2.683,8.852,5.884,5.884,0,0,0-.924,3.43,5.93,5.93,0,0,0,5.876,5.656,5.906,5.906,0,0,0,5.93-5.906,5.878,5.878,0,0,0-1.01-3.3Z" transform="translate(-686.543 1354.522)" fill="#99e6fc"/>
        </g>
      </g>
      <g id="Group_86" data-name="Group 86">
        <g id="Group_85" data-name="Group 85">
          <path id="Path_154" data-name="Path 154" d="M533.317-1390.67l1.952,2.324a.118.118,0,0,1-.075.192l-.649.084-4.926.892a2.426,2.426,0,0,1-2.469-1.068,2.4,2.4,0,0,1-.39-1.315,2.425,2.425,0,0,1,1.311-2.157,4.27,4.27,0,0,1,1.967-.48A4.281,4.281,0,0,1,533.317-1390.67Z" transform="translate(-526.76 1392.198)" fill="#ffbd86"/>
        </g>
      </g>
    </g>
    <path id="Path_155" data-name="Path 155" d="M718.624-1387.14v-5.018a4.282,4.282,0,0,0-3.805,1.495l-.782.931v2.49Z" transform="translate(-683.859 1433.545)" fill="#99e6fc"/>
    <g id="Group_88" data-name="Group 88" transform="translate(26.566 41.355)">
      <path id="Path_156" data-name="Path 156" d="M689.045-1341.208a5.884,5.884,0,0,1,.924-3.43,16.438,16.438,0,0,0,2.683-8.852v-.977l-2.5-.056v1.033a16.439,16.439,0,0,1-2.683,8.852,5.885,5.885,0,0,0-.924,3.43,5.93,5.93,0,0,0,5.876,5.656,5.935,5.935,0,0,0,1.279-.133,5.938,5.938,0,0,1-4.659-5.522Z" transform="translate(-686.543 1359.471)" fill="#62dbfb"/>
      <path id="Path_157" data-name="Path 157" d="M716.534-1387.241v-1.273a3.339,3.339,0,0,1,.782-2.148,5.2,5.2,0,0,1,1.309-1.495,4.281,4.281,0,0,0-3.805,1.495l-.778.926a.017.017,0,0,0,0,.011v2.467a.017.017,0,0,0,.017.017l2.48.055v-.056Z" transform="translate(-710.426 1392.189)" fill="#62dbfb"/>
    </g>
  </g>
  <g id="Group_90" data-name="Group 90" transform="translate(0)">
    <path id="Path_158" data-name="Path 158" d="M520.826-1628.442l-6.91-12.646a16.754,16.754,0,0,1-2.043-8.484,19.031,19.031,0,0,0-2.663-10.247.994.994,0,0,0-1.362-.347.994.994,0,0,0-.348,1.362,17.046,17.046,0,0,1,2.385,9.178,18.741,18.741,0,0,0,2.286,9.492l6.91,12.646a7.316,7.316,0,0,1-2,9.3,7.234,7.234,0,0,1-3.4,1.4,15.8,15.8,0,0,1-.176-2.307,3.412,3.412,0,0,0,2.2-1.5,3.425,3.425,0,0,0,.435-2.734,3.427,3.427,0,0,0-1.732-2.16,5.246,5.246,0,0,0-6.465,1.291l-4.308,5.128a5.66,5.66,0,0,1-4.343,2.024,5.66,5.66,0,0,1-4.343-2.024l-4.308-5.128a5.246,5.246,0,0,0-6.465-1.291,3.426,3.426,0,0,0-1.732,2.16,3.426,3.426,0,0,0,.435,2.734,3.411,3.411,0,0,0,3.48,1.507l4.926-.893a1,1,0,0,0,.239-.075l.792.942-3.355,1.766a7.275,7.275,0,0,1-7.325-.843,7.316,7.316,0,0,1-2-9.3l3.412-6.243a.994.994,0,0,0-.4-1.349.994.994,0,0,0-1.349.4l-3.411,6.243a9.264,9.264,0,0,0-.926,6.394,9.265,9.265,0,0,0,3.479,5.444,9.261,9.261,0,0,0,5.577,1.866,9.252,9.252,0,0,0,3.785-.809l.057-.028,3.774-1.986a7.641,7.641,0,0,0,5.661,2.5,7.64,7.64,0,0,0,5.645-2.485l1.776.892a15.923,15.923,0,0,1-2.311,5.863,6.867,6.867,0,0,0-1.08,4.007,6.853,6.853,0,0,0,2.115,4.673,6.866,6.866,0,0,0,4.75,1.936h.027a6.931,6.931,0,0,0,6.457-4.465.994.994,0,0,0-.579-1.281.994.994,0,0,0-1.281.579,4.934,4.934,0,0,1-4.6,3.179h-.019a4.96,4.96,0,0,1-4.887-4.7,4.892,4.892,0,0,1,.768-2.854,17.432,17.432,0,0,0,2.84-9.388v-3.161l.549-.654a3.275,3.275,0,0,1,2.051-1.143v4.913a16.562,16.562,0,0,0,2.772,9.33,4.918,4.918,0,0,1,.5.957.994.994,0,0,0,.926.632,1,1,0,0,0,.362-.069.994.994,0,0,0,.563-1.288,6.884,6.884,0,0,0-.707-1.346,13.928,13.928,0,0,1-1.827-3.912,9.211,9.211,0,0,0,4.169-1.759,9.266,9.266,0,0,0,3.479-5.444A9.266,9.266,0,0,0,520.826-1628.442Zm-34.826,7.4a1.428,1.428,0,0,1-1.457-.631,1.415,1.415,0,0,1-.182-1.145,1.414,1.414,0,0,1,.725-.9,3.3,3.3,0,0,1,1.519-.373,3.271,3.271,0,0,1,2.51,1.177l.956,1.137Zm20.925,1.939c0,.111,0,.223-.006.334l-.662-.333.669-.8Zm7.291-3.715a1.415,1.415,0,0,1-.182,1.145,1.429,1.429,0,0,1-.533.487v-2.53a1.414,1.414,0,0,1,.715.9Z" transform="translate(-476.748 1667.429)"/>
    <path id="Path_159" data-name="Path 159" d="M526.452-1684.169a.986.986,0,0,0,.476.122.993.993,0,0,0,.873-.518l1.462-2.675a18.742,18.742,0,0,0,2.286-9.492,17.02,17.02,0,0,1,7.3-14.467l.879-.613a4.131,4.131,0,0,1,4.71,0l.88.614a17.124,17.124,0,0,1,2.456,2.084.994.994,0,0,0,1.406.018.994.994,0,0,0,.018-1.405,19.107,19.107,0,0,0-2.742-2.327l-.879-.614a6.127,6.127,0,0,0-6.985,0l-.88.613a19,19,0,0,0-8.146,16.151,16.756,16.756,0,0,1-2.043,8.484l-1.462,2.675a.994.994,0,0,0,.4,1.349Z" transform="translate(-519.473 1714.534)"/>
  </g>
</svg>
