<svg xmlns="http://www.w3.org/2000/svg" width="61.212" height="68.417" viewBox="0 0 61.212 68.417">
  <g id="dj16" transform="translate(-14.403 -1.033)">
    <g id="Group_467" data-name="Group 467" transform="translate(27.114 38.013)">
      <path id="Path_1618" data-name="Path 1618" d="M167.592,138.286v21.883a3.622,3.622,0,0,0,7.244,0V143.04Z" transform="translate(-139.029 -138.286)" fill="#44c7b6"/>
      <path id="Path_1619" data-name="Path 1619" d="M68.822,147.744v24.229a3.622,3.622,0,0,1-7.244,0V150.423Z" transform="translate(-61.578 -145.196)" fill="#44c7b6"/>
      <path id="Path_1620" data-name="Path 1620" d="M88.466,150.423V161.96a3.622,3.622,0,1,0,7.244,0V147.744Z" transform="translate(-81.222 -145.196)" fill="#44c7b6"/>
    </g>
    <path id="Path_1621" data-name="Path 1621" d="M65.619,150.424v21.549a3.61,3.61,0,0,0,1.062,2.56,3.554,3.554,0,0,0,.539.445,3.622,3.622,0,0,1-5.642-3V150.424l7.245-2.681v1.5Z" transform="translate(-34.464 -107.182)" fill="#4bdbc3"/>
    <path id="Path_1622" data-name="Path 1622" d="M92.509,150.424v11.534a3.606,3.606,0,0,0,1.062,2.562,3.422,3.422,0,0,0,.542.445,3.623,3.623,0,0,1-5.645-3.007V150.424l7.245-2.681v1.5Z" transform="translate(-54.11 -107.182)" fill="#4bdbc3"/>
    <path id="Path_1623" data-name="Path 1623" d="M173.232,163.173a3.623,3.623,0,0,1-5.645-3.007V138.283l4.041,2.654v19.229a3.606,3.606,0,0,0,1.062,2.562A3.422,3.422,0,0,0,173.232,163.173Z" transform="translate(-111.912 -100.271)" fill="#4bdbc3"/>
    <path id="Path_1624" data-name="Path 1624" d="M84.818,31.316a8.655,8.655,0,0,0-6.148-2.549h-.886L72.419,12.685l-.574-1.719a8.681,8.681,0,0,0-16.47,0L54.8,12.685,49.434,28.767h-.687a8.826,8.826,0,0,0-8.894,8.525,8.7,8.7,0,0,0,8.694,8.87H78.47a8.828,8.828,0,0,0,8.894-8.525,8.669,8.669,0,0,0-2.546-6.321Z" transform="translate(-18.592 -2.921)" fill="#ffbb98"/>
    <path id="Path_1625" data-name="Path 1625" d="M88.464,133.241V137.2a10.66,10.66,0,0,0,21.319,0v-3.962Z" transform="translate(-54.107 -96.588)" fill="#ffbb98"/>
    <path id="Path_1626" data-name="Path 1626" d="M144.478,37.643a8.828,8.828,0,0,1-8.894,8.525H130.2a8.828,8.828,0,0,0,8.894-8.525,8.7,8.7,0,0,0-8.694-8.87h-.886l-5.364-16.082-.574-1.719a8.451,8.451,0,0,0-5.542-5.521,8.642,8.642,0,0,1,10.931,5.521l.574,1.719L134.9,28.773h.886a8.7,8.7,0,0,1,8.694,8.87Z" transform="translate(-75.705 -2.926)" fill="#ffaa80"/>
    <path id="Path_1627" data-name="Path 1627" d="M66.3,5.451a8.442,8.442,0,0,0-5.539,5.521l-.577,1.719L54.823,28.773h-.687A8.826,8.826,0,0,0,45.242,37.3a8.7,8.7,0,0,0,8.694,8.87H48.548a8.7,8.7,0,0,1-8.694-8.87,8.826,8.826,0,0,1,8.894-8.525h.687L54.8,12.691l.577-1.719A8.638,8.638,0,0,1,66.3,5.451Z" transform="translate(-18.592 -2.926)" fill="#ffcaa6"/>
    <path id="Path_1628" data-name="Path 1628" d="M133.207,133.243V137.2a10.668,10.668,0,0,1-12.679,10.47,10.665,10.665,0,0,0,8.638-10.47v-3.961Z" transform="translate(-77.532 -96.589)" fill="#ffaa80"/>
    <path id="Path_1629" data-name="Path 1629" d="M101.147,147.674A10.668,10.668,0,0,1,88.468,137.2v-3.961h4.041V137.2A10.665,10.665,0,0,0,101.147,147.674Z" transform="translate(-54.11 -96.589)" fill="#ffcaa6"/>
    <g id="Group_468" data-name="Group 468" transform="translate(14.403 1.033)">
      <path id="Path_1630" data-name="Path 1630" d="M21.932,51.422l.927-2.408,3.657,3.657a1.078,1.078,0,0,0,1.524-1.524l-4.829-4.829a1.078,1.078,0,0,0-1.768.375L20.516,49.1l-4.257-4.258a1.078,1.078,0,0,0-1.524,1.524l5.43,5.43A1.078,1.078,0,0,0,21.932,51.422Z" transform="translate(-14.403 -32.798)"/>
      <path id="Path_1631" data-name="Path 1631" d="M20.164,15.3a1.079,1.079,0,0,0,1.768-.375l.927-2.408,3.657,3.657a1.078,1.078,0,0,0,1.524-1.524L23.211,9.82a1.078,1.078,0,0,0-1.768.375L20.516,12.6,16.258,8.345a1.078,1.078,0,0,0-1.524,1.524Z" transform="translate(-14.403 -6.133)"/>
      <path id="Path_1632" data-name="Path 1632" d="M201.966,44.882l-4.258,4.258-.927-2.408a1.078,1.078,0,0,0-1.768-.375l-4.829,4.829a1.078,1.078,0,0,0,1.524,1.524l3.657-3.657.927,2.408a1.078,1.078,0,0,0,1.768.375l5.43-5.43a1.078,1.078,0,1,0-1.524-1.524Z" transform="translate(-142.593 -32.837)"/>
      <path id="Path_1633" data-name="Path 1633" d="M190.946,16.528a1.076,1.076,0,0,0,.762-.316l3.657-3.657.927,2.408a1.078,1.078,0,0,0,1.768.375l5.43-5.43a1.078,1.078,0,1,0-1.524-1.524l-4.258,4.258-.927-2.408a1.078,1.078,0,0,0-1.768-.375l-4.829,4.829a1.078,1.078,0,0,0,.762,1.84Z" transform="translate(-142.593 -6.173)"/>
      <path id="Path_1634" data-name="Path 1634" d="M75.747,24.77h-.11L69.944,7.7a9.758,9.758,0,0,0-18.512,0l-5.7,17.068a9.929,9.929,0,0,0-9.883,9.581A9.772,9.772,0,0,0,41.7,43.5V64.79c0,6.224,9.4,6.2,9.4,0V58.728a4.707,4.707,0,0,0,7.245-3.952V52.119a11.731,11.731,0,0,0,11.917-4.731V59.9c0,6.215,9.4,6.207,9.4,0V43.435a9.737,9.737,0,0,0-3.92-18.666ZM48.95,64.79c0,3.358-5.089,3.365-5.089,0V44.16a9.838,9.838,0,0,0,1.765.159H48.95Zm7.245-10.015c0,3.359-5.089,3.372-5.089,0V47.388a11.8,11.8,0,0,0,5.089,4.071ZM77.512,59.9c0,3.359-5.089,3.365-5.089,0V44.319h3.125a10.265,10.265,0,0,0,1.964-.191ZM75.548,42.164H72.422V37.732h4.621a1.078,1.078,0,0,0,0-2.155h-5.7a1.077,1.077,0,0,0-1.078,1.078v3.961a9.591,9.591,0,0,1-.3,2.393.024.024,0,0,0,0,.013,9.583,9.583,0,0,1-18.553,0,.024.024,0,0,0,0-.013,9.591,9.591,0,0,1-.3-2.393V36.654a1.077,1.077,0,0,0-1.078-1.078h-5.7a1.078,1.078,0,0,0,0,2.155H48.95v4.432H45.625a7.616,7.616,0,0,1-7.617-7.773,7.762,7.762,0,0,1,7.816-7.466c.56,0,1.421.128,1.708-.738,6.1-18.274,5.172-15.506,5.941-17.8a7.605,7.605,0,0,1,14.428,0l5.938,17.8c.29.874,1.136.738,1.908.738a7.614,7.614,0,0,1,7.617,7.77,7.764,7.764,0,0,1-7.816,7.469Z" transform="translate(-30.073 -1.033)"/>
      <path id="Path_1635" data-name="Path 1635" d="M105.982,30.308l-1.485,4.9a1.077,1.077,0,0,0,2.061.628l1.487-4.9a1.078,1.078,0,0,0-2.064-.625Z" transform="translate(-80.183 -21.864)"/>
      <path id="Path_1636" data-name="Path 1636" d="M99,62.846l-.42,1.385a1.077,1.077,0,0,0,2.061.628l.423-1.388A1.078,1.078,0,0,0,99,62.846Z" transform="translate(-75.861 -45.635)"/>
    </g>
  </g>
</svg>
