<svg xmlns="http://www.w3.org/2000/svg" width="50.04" height="61.377" viewBox="0 0 50.04 61.377">
  <g id="dj17" transform="translate(2534 121.375)">
    <g id="_038---Improved-Sense-of-Smell" data-name="038---Improved-Sense-of-Smell" transform="translate(-2534.97 -119.999)">
      <g id="Layer_3" transform="translate(2 1)">
        <path id="Shape" d="M7.46,27.13l-.53,1.84" fill="#dfc49c"/>
        <path id="Shape-2" data-name="Shape" d="M35.07,28.97l-.53-1.84" fill="#dfc49c"/>
        <path id="Shape-3" data-name="Shape" d="M42,36a9,9,0,0,1-11.81,8.55,13.965,13.965,0,0,1-18.38,0A9,9,0,1,1,7.46,27.13L13.62,5.57a7.674,7.674,0,0,1,14.76,0l6.16,21.56A9,9,0,0,1,42,36Z" fill="#ffe0b2"/>
        <path id="Shape-4" data-name="Shape" d="M34.54,27.13,28.38,5.57A7.668,7.668,0,0,0,21,0a7.571,7.571,0,0,0-1.5.164A7.656,7.656,0,0,1,25.38,5.57l6.16,21.56a9,9,0,0,1-.058,17.738A9,9,0,0,0,34.54,27.13Z" fill="#dfc49c"/>
        <g id="Group_440" data-name="Group 440">
          <path id="Shape-5" data-name="Shape" d="M8.09,39.43A2.474,2.474,0,0,1,6.5,40a2.5,2.5,0,0,1,0-5,2.352,2.352,0,0,1,.54.06Z" fill="#91562d"/>
          <path id="Shape-6" data-name="Shape" d="M34.96,35.06A2.352,2.352,0,0,1,35.5,35a2.5,2.5,0,0,1,0,5,2.474,2.474,0,0,1-1.59-.57Z" fill="#91562d"/>
        </g>
      </g>
      <g id="Layer_2" transform="translate(0 -1)">
        <path id="Shape-7" data-name="Shape" d="M37.343,28.283l-6-20.988a8.681,8.681,0,0,0-16.694,0l-6,20.988a9.994,9.994,0,1,0,4.919,19.371,14.94,14.94,0,0,0,18.848,0,9.994,9.994,0,1,0,4.919-19.371ZM34.206,45.937A15.029,15.029,0,0,0,36.351,42.8,3.493,3.493,0,1,0,38,36.05,1,1,0,1,0,36,36a13,13,0,0,1-26,0,1,1,0,1,0-2,.05A3.493,3.493,0,1,0,9.649,42.8a15.029,15.029,0,0,0,2.145,3.133A7.986,7.986,0,0,1,8,30.585a1,1,0,0,0,1.894.655c14.3-50.049.181-.634,6.684-23.4a6.68,6.68,0,0,1,12.846,0c6.547,22.914-7.642-26.745,6.684,23.4a1,1,0,0,0,1.924-.55L38,30.585A7.986,7.986,0,0,1,34.2,45.937Zm3.638-7.893A1.5,1.5,0,0,1,39,39.5a1.477,1.477,0,0,1-1.853,1.44,14.852,14.852,0,0,0,.7-2.9ZM8.853,40.94A1.478,1.478,0,0,1,7,39.5a1.5,1.5,0,0,1,1.156-1.456,14.852,14.852,0,0,0,.7,2.9Z"/>
        <path id="Shape-8" data-name="Shape" d="M12.707,50.294a1,1,0,0,0-1.09-.217c-.268.111-.075-.034-3.325,3.216a1,1,0,0,0,1.414,1.414L11,53.414V55a4,4,0,0,1-4,4H2a1,1,0,0,0,0,2H7a6.006,6.006,0,0,0,6-6V53.414l1.293,1.293a1,1,0,0,0,1.414-1.414Z"/>
        <path id="Shape-9" data-name="Shape" d="M44,59H39a4,4,0,0,1-4-4V53.414l1.293,1.293a1,1,0,0,0,1.414-1.414l-3-3a1,1,0,0,0-1.09-.217c-.268.111-.075-.034-3.325,3.216a1,1,0,0,0,1.414,1.414L33,53.414V55a6.006,6.006,0,0,0,6,6h5a1,1,0,0,0,0-2Z"/>
        <path id="Shape-10" data-name="Shape" d="M23.707,53.294a1,1,0,0,0-1.09-.217c-.268.111-.075-.034-3.325,3.216a1,1,0,0,0,1.414,1.414L22,56.414V60a1,1,0,0,0,2,0V56.414l1.293,1.293a1,1,0,1,0,1.414-1.414Z"/>
      </g>
    </g>
    <g id="senales" transform="translate(-2508.116 -136.175)">
      <path id="Path_1446" data-name="Path 1446" d="M23.659,32.209,15.121,16.527a3.545,3.545,0,0,0-6.086,0L.5,32.209a3.534,3.534,0,0,0-.028,3.567A3.492,3.492,0,0,0,3.54,37.56H20.616a3.492,3.492,0,0,0,3.071-1.783A3.534,3.534,0,0,0,23.659,32.209Z" transform="translate(0)"/>
      <path id="Path_1447" data-name="Path 1447" d="M267.609,35.776a3.492,3.492,0,0,1-3.071,1.783H256V14.8a3.534,3.534,0,0,1,3.043,1.727l8.538,15.683A3.534,3.534,0,0,1,267.609,35.776Z" transform="translate(-243.922)"/>
      <path id="Path_1448" data-name="Path 1448" d="M51.028,61.516,42.49,45.833a2.13,2.13,0,0,0-3.652,0L30.3,61.516a2.132,2.132,0,0,0,1.826,3.213H49.2a2.132,2.132,0,0,0,1.826-3.213Z" transform="translate(-28.586 -28.585)" fill="#ffde33"/>
      <path id="Path_1449" data-name="Path 1449" d="M266.378,63.653a2.089,2.089,0,0,1-1.84,1.076H256V44.8a2.1,2.1,0,0,1,1.826,1.033l8.538,15.683A2.1,2.1,0,0,1,266.378,63.653Z" transform="translate(-243.922 -28.585)" fill="#ffbc33"/>
      <g id="Group_441" data-name="Group 441" transform="translate(10.663 20.575)">
        <path id="Path_1450" data-name="Path 1450" d="M227.415,380.031a1.415,1.415,0,1,1,1.415-1.415A1.417,1.417,0,0,1,227.415,380.031Z" transform="translate(-226 -365.877)"/>
        <path id="Path_1451" data-name="Path 1451" d="M228.831,145.692a1.415,1.415,0,0,1-2.831,0v-7.077a1.415,1.415,0,0,1,2.831,0Z" transform="translate(-226 -137.2)"/>
      </g>
      <g id="Group_442" data-name="Group 442" transform="translate(12.078 20.575)">
        <path id="Path_1452" data-name="Path 1452" d="M257.415,378.615A1.417,1.417,0,0,0,256,377.2v2.831A1.417,1.417,0,0,0,257.415,378.615Z" transform="translate(-256 -365.877)"/>
        <path id="Path_1453" data-name="Path 1453" d="M257.415,145.692v-7.077A1.417,1.417,0,0,0,256,137.2v9.908A1.417,1.417,0,0,0,257.415,145.692Z" transform="translate(-256 -137.2)"/>
      </g>
    </g>
  </g>
</svg>
