<svg xmlns="http://www.w3.org/2000/svg" width="81.262" height="68.226" viewBox="0 0 81.262 68.226">
  <g id="dj18" transform="translate(2526.172 -408.215)">
    <path id="Path_1637" data-name="Path 1637" d="M238.43,35.7h5.578V49.458H238.43Zm0,0" transform="translate(-2726.76 378.182)" fill="#d2d2d7"/>
    <path id="Path_1638" data-name="Path 1638" d="M217.776,14.465h-9.3a3.44,3.44,0,1,1,0-6.879h9.3a3.44,3.44,0,0,1,0,6.879Zm0,0" transform="translate(-2698.668 401.833)" fill="#b9b9be"/>
    <path id="Path_1639" data-name="Path 1639" d="M100.623,126.112v10.871H28.364V126.112a36.13,36.13,0,0,1,72.259,0Zm0,0" transform="translate(-2550.034 332.373)" fill="#b9b9be"/>
    <path id="Path_1640" data-name="Path 1640" d="M165.178,128.8v10.871H105.1V128.8a35.946,35.946,0,0,1,30.04-35.454,35.944,35.944,0,0,1,30.04,35.454Zm0,0" transform="translate(-2614.589 329.684)" fill="#d2d2d7"/>
    <path id="Path_1641" data-name="Path 1641" d="M86.435,369.481v.144a4.472,4.472,0,0,1-4.473,4.473H12.051a4.472,4.472,0,0,1-4.473-4.473v-.144a4.472,4.472,0,0,1,4.473-4.473h69.91a4.474,4.474,0,0,1,4.314,3.293A4.407,4.407,0,0,1,86.435,369.481Zm0,0" transform="translate(-2532.547 101.14)" fill="#5a5f64"/>
    <path id="Path_1642" data-name="Path 1642" d="M103.94,368.3H33.179a4.943,4.943,0,0,1-4.6-3.145,4.464,4.464,0,0,1,1.141-.148h69.91a4.474,4.474,0,0,1,4.314,3.293Zm0,0" transform="translate(-2550.211 101.14)" fill="#7d8287"/>
    <g id="Group_469" data-name="Group 469" transform="translate(-2500.661 432.777)">
      <path id="Path_1643" data-name="Path 1643" d="M231.373,148.756v-7.538a5.907,5.907,0,0,0-5.891-5.893H213.868a2.783,2.783,0,0,0-2.775,2.775v12.774a2.783,2.783,0,0,0,2.775,2.775H216.4a.815.815,0,0,1,.632.3l5.952,7.185a3.108,3.108,0,0,0,4.157.619,3.069,3.069,0,0,0,.613-4.457l-1.91-2.316a.818.818,0,0,1,.639-1.329,4.892,4.892,0,0,0,4.893-4.893Zm0,0" transform="translate(-202.266 -134.192)" fill="#ffa90b"/>
      <path id="Path_1644" data-name="Path 1644" d="M156.172,200.389v13.958a1.741,1.741,0,0,0,1.742,1.741h3.894a2.066,2.066,0,0,0,2.06-2.06v-13.32a2.066,2.066,0,0,0-2.06-2.06h-3.894a1.741,1.741,0,0,0-1.742,1.741Zm0,0" transform="translate(-155.039 -196.864)" fill="#2476ed"/>
      <path id="Path_1645" data-name="Path 1645" d="M175.362,152.885a4.2,4.2,0,0,1-7.429,2.045l-5.86-7.074c-1.587-.149-3.422.491-5.073-1.079a3.18,3.18,0,0,1-2.143.829h-3.894a2.877,2.877,0,0,1-2.874-2.874V130.775a2.877,2.877,0,0,1,2.874-2.874h3.894a3.177,3.177,0,0,1,1.937.657,3.9,3.9,0,0,1,2.9-1.29H171.3a7.033,7.033,0,0,1,7.026,7.025v7.538a6.035,6.035,0,0,1-5.387,5.992l1.506,1.828A4.207,4.207,0,0,1,175.362,152.885Zm-19.577-21.792a.929.929,0,0,0-.928-.927h-3.894a.609.609,0,0,0-.609.609v13.957a.609.609,0,0,0,.609.609h3.894a.929.929,0,0,0,.928-.927Zm15,17.667a1.951,1.951,0,0,1,1.523-3.17,3.765,3.765,0,0,0,3.761-3.761v-7.537a4.765,4.765,0,0,0-4.76-4.76H159.692a1.644,1.644,0,0,0-1.642,1.641v12.774a1.644,1.644,0,0,0,1.642,1.642h2.529a1.944,1.944,0,0,1,1.5.708l5.955,7.189a1.932,1.932,0,0,0,3.438-.91c.162-1.187-.561-1.6-2.337-3.817Zm0,0" transform="translate(-148.089 -127.267)"/>
    </g>
    <path id="Path_1646" data-name="Path 1646" d="M114.152,22.381a34.377,34.377,0,0,1,16.906-6.64A34.856,34.856,0,0,1,169.9,48a1.2,1.2,0,0,0,1.2,1.126c.025,0,.051,0,.079,0a1.2,1.2,0,0,0,1.122-1.278,37.144,37.144,0,0,0-33.262-34.517V9.287h.656A4.643,4.643,0,1,0,139.7,0H130.4a4.643,4.643,0,0,0,0,9.286h.656v4.036a36.787,36.787,0,0,0-18.342,7.127,1.2,1.2,0,1,0,1.437,1.931Zm22.483-9.222c-.93-.039-2.26-.037-3.172,0V9.286h3.172ZM130.4,6.88a2.237,2.237,0,1,1,0-4.474H139.7a2.237,2.237,0,1,1,0,4.474Zm0,0" transform="translate(-2620.59 408.215)"/>
    <path id="Path_1647" data-name="Path 1647" d="M77.964,180.924V176.4a1.2,1.2,0,0,0-2.406,0v4H5.7v-6.459A34.466,34.466,0,0,1,16.2,149.067a1.2,1.2,0,1,0-1.679-1.722,36.848,36.848,0,0,0-11.22,26.6v6.983A5.684,5.684,0,0,0,0,186.076v.144A5.682,5.682,0,0,0,5.676,191.9H9.288a1.2,1.2,0,1,0,0-2.406H5.676a3.274,3.274,0,0,1-3.27-3.27v-.144a3.275,3.275,0,0,1,3.262-3.27H75.595a3.275,3.275,0,0,1,3.262,3.27v.144a3.275,3.275,0,0,1-3.27,3.27H14.1a1.2,1.2,0,1,0,0,2.406H75.587a5.682,5.682,0,0,0,5.676-5.676v-.144a5.684,5.684,0,0,0-3.3-5.153Zm0,0" transform="translate(-2526.172 284.544)"/>
  </g>
</svg>
