<svg xmlns="http://www.w3.org/2000/svg" width="51.032" height="73.788" viewBox="0 0 51.032 73.788">
  <g id="dj19" transform="translate(-42.748 -5.609)">
    <path id="Path_1582" data-name="Path 1582" d="M105.776,136.453H85.5a3.686,3.686,0,0,0-3.686,3.686v27.41h27.645v-27.41A3.686,3.686,0,0,0,105.776,136.453Z" transform="translate(-27.375 -91.682)" fill="#6bdddd"/>
    <path id="Path_1583" data-name="Path 1583" d="M108.061,166.747H80.416a.6.6,0,0,1-.6-.6V138.738a4.289,4.289,0,0,1,4.285-4.285h20.273a4.289,4.289,0,0,1,4.285,4.285v27.411A.6.6,0,0,1,108.061,166.747Zm-27.047-1.2h26.448V138.738a3.091,3.091,0,0,0-3.087-3.087H84.1a3.091,3.091,0,0,0-3.087,3.087v26.812Z" transform="translate(-25.974 -90.281)" fill="#3762cc"/>
    <path id="Path_1584" data-name="Path 1584" d="M99.836,39.291c-.029,0-.057,0-.086,0V38.019a13.647,13.647,0,0,0-27.294,0V39.3c-.029,0-.057,0-.086,0a4.12,4.12,0,1,0,0,8.24,4.236,4.236,0,0,0,.447-.025,13.679,13.679,0,0,0,26.573,0,4.236,4.236,0,0,0,.447.025,4.12,4.12,0,1,0,0-8.24Z" transform="translate(-17.839 -13.247)" fill="#f9cfcf"/>
    <path id="Path_1585" data-name="Path 1585" d="M84.7,57.131a14.154,14.154,0,0,1-13.746-10.4,4.717,4.717,0,0,1-.5-9.411v-.7a14.246,14.246,0,0,1,28.491,0v.7a4.717,4.717,0,0,1-.5,9.411A14.154,14.154,0,0,1,84.7,57.131ZM71.415,45.507a.6.6,0,0,1,.582.461,13.08,13.08,0,0,0,25.408,0,.6.6,0,0,1,.645-.458,3.7,3.7,0,0,0,.384.021,3.522,3.522,0,1,0,.006-7.044l-.081,0a.607.607,0,0,1-.431-.171.6.6,0,0,1-.18-.427V36.618a13.049,13.049,0,0,0-26.1,0v1.276a.6.6,0,0,1-.18.427.617.617,0,0,1-.431.171l-.07,0h0a3.522,3.522,0,1,0,0,7.043,3.607,3.607,0,0,0,.384-.021A.57.57,0,0,1,71.415,45.507Z" transform="translate(-16.437 -11.845)"/>
    <path id="Path_1586" data-name="Path 1586" d="M123.112,109.28a.6.6,0,0,1-.6-.6,1.159,1.159,0,0,0-.371-.816,2.1,2.1,0,0,0-.881-.506,2.932,2.932,0,0,0-1.491,0,2.1,2.1,0,0,0-.881.506,1.158,1.158,0,0,0-.371.816.6.6,0,1,1-1.2,0,2.361,2.361,0,0,1,.718-1.659,3.3,3.3,0,0,1,1.383-.808,4.109,4.109,0,0,1,2.187,0,3.292,3.292,0,0,1,1.383.808,2.359,2.359,0,0,1,.718,1.659A.6.6,0,0,1,123.112,109.28Z" transform="translate(-52.253 -70.39)"/>
    <path id="Path_1587" data-name="Path 1587" d="M66.259,32.7a7.872,7.872,0,0,1-.125-5.148l.046-.145a7.873,7.873,0,0,1,10.04-5.057l.151.051a1.833,1.833,0,0,0,.041.235,18.433,18.433,0,0,0,3.3,6.871,17.661,17.661,0,0,1-4.232,7.045h0L73.84,38.215l-3.183-.738a4.173,4.173,0,0,0-2.344.716Z" transform="translate(-16.126 -11.433)" fill="#4671c6"/>
    <path id="Path_1588" data-name="Path 1588" d="M125.372,16.96A11.751,11.751,0,0,0,118.729,9.7v0c-10.992-5.411-17,1.117-17,1.117a1.825,1.825,0,0,0-.5,1.747,18.227,18.227,0,0,0,9.315,11.9l.007,0a18.22,18.22,0,0,0,3.133,1.262.3.3,0,0,0,.322-.463l-2.26-3.225a.3.3,0,0,1,.418-.414c2.5,1.957,7.355,5.2,12.267,5.362l.8-2.19a12.06,12.06,0,0,0,.15-7.831Z" transform="translate(-40.935 -1.359)" fill="#4671c6"/>
    <g id="Group_466" data-name="Group 466" transform="translate(49.04 5.609)">
      <path id="Path_1589" data-name="Path 1589" d="M72.444,37.415a.6.6,0,0,1-.135-.016l-3.114-.722a3.575,3.575,0,0,0-1.943.613.6.6,0,0,1-.9-.286l-2.053-5.5a8.509,8.509,0,0,1-.134-5.54l.046-.145a8.471,8.471,0,0,1,10.8-5.441l.15.051a.6.6,0,0,1,.4.5,1.376,1.376,0,0,0,.028.16,17.725,17.725,0,0,0,3.194,6.647.6.6,0,0,1,.09.567A18.286,18.286,0,0,1,74.5,35.585l-1.626,1.651A.6.6,0,0,1,72.444,37.415ZM69.261,35.48a.605.605,0,0,1,.135.016l2.857.662,1.406-1.428a16.866,16.866,0,0,0,3.985-6.524,18.9,18.9,0,0,1-3.189-6.749,7.274,7.274,0,0,0-9.1,4.73l-.046.145a7.3,7.3,0,0,0,.115,4.757l1.808,4.841A4.772,4.772,0,0,1,69.261,35.48Z" transform="translate(-63.769 -15.643)"/>
      <path id="Path_1590" data-name="Path 1590" d="M123.023,26.222H123c-4.222-.14-8.377-2.46-11.113-4.376l1.2,1.711a.9.9,0,0,1-.007,1.047.88.88,0,0,1-.977.334A18.726,18.726,0,0,1,99.241,11.342,2.428,2.428,0,0,1,99.9,9.029c.383-.394,6.722-6.63,17.691-1.23l.008,0a12.33,12.33,0,0,1,6.94,7.615,12.711,12.711,0,0,1-.157,8.22l-.8,2.19a.6.6,0,0,1-.562.393ZM110.577,19.6a.887.887,0,0,1,.549.191C113.463,21.62,118,24.675,122.612,25l.648-1.775a11.512,11.512,0,0,0,.142-7.443,11.133,11.133,0,0,0-6.3-6.894.609.609,0,0,1-.074-.037c-10.4-5.1-16.027.755-16.261,1.006l-.024.025a1.227,1.227,0,0,0-.337,1.174,17.614,17.614,0,0,0,9.008,11.508,17.728,17.728,0,0,0,2.184.946l-1.747-2.493a.9.9,0,0,1,.118-1.174.884.884,0,0,1,.61-.245Z" transform="translate(-88.575 -5.609)"/>
      <path id="Path_1591" data-name="Path 1591" d="M101.775,84.03a1.565,1.565,0,0,1-1.565-1.563v-2.6a1.565,1.565,0,0,1,3.13,0v2.6a1.566,1.566,0,0,1-1.565,1.563Z" transform="translate(-89.303 -56.543)"/>
      <path id="Path_1592" data-name="Path 1592" d="M146.875,84.03a1.565,1.565,0,0,1-1.565-1.563v-2.6a1.565,1.565,0,0,1,3.13,0v2.6A1.566,1.566,0,0,1,146.875,84.03Z" transform="translate(-120.905 -56.543)"/>
      <path id="Path_1593" data-name="Path 1593" d="M145.973,76.821a.586.586,0,0,1-.12-.012L140.912,75.8a.6.6,0,1,1,.239-1.173l4.941,1.008a.6.6,0,0,1-.119,1.185Z" transform="translate(-117.487 -53.961)"/>
      <path id="Path_1594" data-name="Path 1594" d="M95.643,76.821a.6.6,0,0,1-.119-1.185l4.941-1.008A.6.6,0,1,1,100.7,75.8l-4.941,1.008A.585.585,0,0,1,95.643,76.821Z" transform="translate(-85.684 -53.961)"/>
    </g>
    <path id="Path_1595" data-name="Path 1595" d="M96.2,161.639a.609.609,0,0,1-.653-.317l-1.648-3.3-.711.878a.632.632,0,0,1-.526.23.6.6,0,0,1-.486-.289l-1.994-3.34a.58.58,0,0,1,.229-.8.62.62,0,0,1,.833.208l1.544,2.587.757-.935a.631.631,0,0,1,.548-.228.6.6,0,0,1,.484.324l2.072,4.143a.584.584,0,0,1-.289.787.62.62,0,0,1-.162.052Z" transform="translate(-33.178 -104.412)" fill="#f9a7a7"/>
    <path id="Path_1596" data-name="Path 1596" d="M144.337,161.639a.609.609,0,0,0,.653-.317l1.648-3.3.711.878a.632.632,0,0,0,.526.23.6.6,0,0,0,.486-.289l1.994-3.34a.58.58,0,0,0-.229-.8.62.62,0,0,0-.833.208l-1.544,2.587-.757-.935a.631.631,0,0,0-.548-.228.6.6,0,0,0-.484.324l-2.072,4.143a.584.584,0,0,0,.289.787.627.627,0,0,0,.162.052Z" transform="translate(-70.825 -104.412)" fill="#f9a7a7"/>
    <path id="Path_1597" data-name="Path 1597" d="M101.9,199.57a11.228,11.228,0,1,1,11.228-11.228A11.241,11.241,0,0,1,101.9,199.57Zm0-21.259a10.031,10.031,0,1,0,10.031,10.031A10.042,10.042,0,0,0,101.9,178.311Z" transform="translate(-33.58 -120.173)" fill="#f9a7a7"/>
    <path id="Path_1598" data-name="Path 1598" d="M107.149,202.577a8.986,8.986,0,1,1,8.986-8.987A9,9,0,0,1,107.149,202.577Zm0-16.776a7.789,7.789,0,1,0,7.789,7.789A7.8,7.8,0,0,0,107.149,185.8Z" transform="translate(-38.828 -125.421)" fill="#f9a7a7"/>
    <path id="Path_1599" data-name="Path 1599" d="M112.612,205.707a6.652,6.652,0,1,1,6.652-6.652A6.652,6.652,0,0,1,112.612,205.707Z" transform="translate(-44.292 -130.885)" fill="#f9a7a7"/>
    <path id="Path_1600" data-name="Path 1600" d="M125.323,221.476l2.169-.355v-2.234l-2.169.783Z" transform="translate(-57.86 -149.443)" fill="#f9cfcf"/>
    <path id="Path_1601" data-name="Path 1601" d="M71.532,185.947a2.486,2.486,0,0,0-1.089-.356L68,185.35a11.257,11.257,0,0,0-2.945.1l-2.479.409-6.311-1.183-.421-.079v-.8l-6.958-4.872-3.649,5.211a2.688,2.688,0,0,0-.27,2.6l1.63,3.82a1.8,1.8,0,0,0,.677.8l.477.309,15.228.969a11.27,11.27,0,0,0,5.886.84h0l.022,0c.25-.032.5-.073.747-.122l1.4-.229v0a1.434,1.434,0,0,0,1.244-1.28l.359-3.628a2.394,2.394,0,0,0-1.111-2.262Z" transform="translate(-1.407 -121.442)" fill="#f9cfcf"/>
    <path id="Path_1602" data-name="Path 1602" d="M66.057,192.59a11.876,11.876,0,0,1-4.621-.936l-15.125-.962a.6.6,0,0,1-.287-.095l-.477-.309a2.39,2.39,0,0,1-.9-1.072l-1.63-3.82a3.268,3.268,0,0,1,.331-3.175l3.7-5.283a.6.6,0,0,1,.981.687l-3.7,5.284a2.076,2.076,0,0,0-.21,2.018l1.63,3.82a1.2,1.2,0,0,0,.452.536l.346.224,15.071.959a.6.6,0,0,1,.2.048,10.673,10.673,0,0,0,5.574.8l.018,0h0c.227-.029.459-.067.708-.116l1.363-.223a.629.629,0,0,1,.075-.015.832.832,0,0,0,.725-.745l.359-3.629a1.793,1.793,0,0,0-.835-1.7,1.881,1.881,0,0,0-.828-.266l-2.438-.242a10.686,10.686,0,0,0-2.788.09l-2.479.409a.6.6,0,0,1-.207,0l-9.717-1.821a.6.6,0,0,1,.22-1.177l9.614,1.8,2.375-.391a11.876,11.876,0,0,1,3.1-.1l2.438.242a3.059,3.059,0,0,1,1.351.446,2.984,2.984,0,0,1,1.386,2.827l-.359,3.629a2.023,2.023,0,0,1-1.7,1.8l-.047.01-1.4.229c-.257.051-.514.093-.768.125l-.023,0A11.987,11.987,0,0,1,66.057,192.59Z" transform="translate(0 -119.872)" fill="#3762cc"/>
    <path id="Path_1603" data-name="Path 1603" d="M64.128,159.049a.6.6,0,0,1-.343-.108l-6.958-4.872a.6.6,0,0,1-.147-.834l7.162-10.229a.6.6,0,0,1,1.056.539,3.078,3.078,0,0,0-.172,1.007v13.9a.6.6,0,0,1-.6.6ZM58,153.431l5.525,3.869V145.54Z" transform="translate(-9.686 -96.095)" fill="#3762cc"/>
    <path id="Path_1604" data-name="Path 1604" d="M58.571,154.989l6.958,4.872v-13.9a3.657,3.657,0,0,1,.2-1.2Z" transform="translate(-11.087 -97.506)" fill="#6bdddd"/>
    <path id="Path_1605" data-name="Path 1605" d="M64.128,159.059a.6.6,0,0,1-.343-.108l-6.958-4.872a.6.6,0,0,1-.147-.834l7.159-10.224a.6.6,0,0,1,1.056.539,3.057,3.057,0,0,0-.169,1v13.9a.6.6,0,0,1-.6.6ZM58,153.441l5.525,3.869V145.55Z" transform="translate(-9.686 -96.105)" fill="#3762cc"/>
    <path id="Path_1606" data-name="Path 1606" d="M113.6,132.214l-.165.013-.257.013c-.194.009-.389.015-.586.015s-.392-.006-.586-.015l-.257-.013-.165-.013a13.65,13.65,0,0,1-5.572-1.633v1.568a6.488,6.488,0,0,0,6.369,6.6h.424a6.488,6.488,0,0,0,6.369-6.6V130.58A13.646,13.646,0,0,1,113.6,132.214Z" transform="translate(-44.33 -87.567)" fill="#f9cfcf"/>
    <path id="Path_1607" data-name="Path 1607" d="M108.061,162.632H80.416a.6.6,0,0,1-.6-.6V134.623a4.289,4.289,0,0,1,4.285-4.285h2.957V129.18a.6.6,0,0,1,.885-.525,13,13,0,0,0,5.329,1.561l.16.012.245.013c.373.016.749.016,1.12,0l.247-.013.155-.012a12.992,12.992,0,0,0,5.332-1.562.6.6,0,0,1,.885.525v1.159h2.957a4.289,4.289,0,0,1,4.285,4.285v27.411a.6.6,0,0,1-.6.6Zm-27.047-1.2h26.448V134.623a3.091,3.091,0,0,0-3.087-3.087h-3.561a.6.6,0,0,1-.6-.615l0-.057c0-.038,0-.077,0-.115v-.6a14.2,14.2,0,0,1-4.93,1.26l-.171.013-.27.014c-.4.018-.818.018-1.224,0l-.267-.014-.175-.013a14.2,14.2,0,0,1-4.928-1.26v.6c0,.039,0,.077,0,.115l0,.057a.6.6,0,0,1-.6.615H84.1a3.091,3.091,0,0,0-3.087,3.087v26.812Z" transform="translate(-25.974 -86.166)"/>
    <path id="Path_1608" data-name="Path 1608" d="M71.532,185.947a2.486,2.486,0,0,0-1.089-.356L68,185.35a11.257,11.257,0,0,0-2.945.1l-2.479.409-6.311-1.183-.421-.079v-.8l-6.958-4.872-3.649,5.211a2.688,2.688,0,0,0-.27,2.6l1.63,3.82a1.8,1.8,0,0,0,.677.8l.477.309,15.228.969a11.27,11.27,0,0,0,5.886.84h0l.022,0c.25-.032.5-.073.747-.122l1.4-.229v0a1.434,1.434,0,0,0,1.244-1.28l.359-3.628a2.394,2.394,0,0,0-1.111-2.262Z" transform="translate(-1.407 -121.442)" fill="#f9cfcf"/>
    <path id="Path_1609" data-name="Path 1609" d="M66.057,192.59a11.876,11.876,0,0,1-4.621-.936l-15.125-.962a.6.6,0,0,1-.287-.095l-.477-.309a2.39,2.39,0,0,1-.9-1.072l-1.63-3.82a3.268,3.268,0,0,1,.331-3.175l3.7-5.283a.6.6,0,0,1,.981.687l-3.7,5.284a2.076,2.076,0,0,0-.21,2.018l1.63,3.82a1.2,1.2,0,0,0,.452.536l.346.224,15.071.959a.6.6,0,0,1,.2.048,10.673,10.673,0,0,0,5.574.8l.018,0h0c.227-.029.459-.067.708-.116l1.363-.223a.629.629,0,0,1,.075-.015.832.832,0,0,0,.725-.745l.359-3.629a1.793,1.793,0,0,0-.835-1.7,1.881,1.881,0,0,0-.828-.266l-2.438-.242a10.686,10.686,0,0,0-2.788.09l-2.479.409a.6.6,0,0,1-.207,0l-9.717-1.821a.6.6,0,0,1,.22-1.177l9.614,1.8,2.375-.391a11.876,11.876,0,0,1,3.1-.1l2.438.242a3.059,3.059,0,0,1,1.351.446,2.984,2.984,0,0,1,1.386,2.827l-.359,3.629a2.023,2.023,0,0,1-1.7,1.8l-.047.01-1.4.229c-.257.051-.514.093-.768.125l-.023,0A11.987,11.987,0,0,1,66.057,192.59Z" transform="translate(0 -119.872)"/>
    <path id="Path_1610" data-name="Path 1610" d="M64.128,159.049a.6.6,0,0,1-.343-.108l-6.958-4.872a.6.6,0,0,1-.147-.834l7.162-10.229a.6.6,0,0,1,1.056.539,3.078,3.078,0,0,0-.172,1.007v13.9a.6.6,0,0,1-.6.6ZM58,153.431l5.525,3.869V145.54Z" transform="translate(-9.686 -96.095)" fill="#3762cc"/>
    <path id="Path_1611" data-name="Path 1611" d="M58.571,154.989l6.958,4.872v-13.9a3.657,3.657,0,0,1,.2-1.2Z" transform="translate(-11.087 -97.506)" fill="#6bdddd"/>
    <path id="Path_1612" data-name="Path 1612" d="M64.128,159.059a.6.6,0,0,1-.343-.108l-6.958-4.872a.6.6,0,0,1-.147-.834l7.159-10.224a.6.6,0,0,1,1.056.539,3.057,3.057,0,0,0-.169,1v13.9a.6.6,0,0,1-.6.6ZM58,153.441l5.525,3.869V145.55Z" transform="translate(-9.686 -96.105)"/>
    <path id="Path_1613" data-name="Path 1613" d="M119.157,185.947a2.486,2.486,0,0,1,1.089-.356l2.438-.242a11.257,11.257,0,0,1,2.945.1l2.479.409,6.311-1.183.421-.079v-.8l6.958-4.872,3.649,5.211a2.689,2.689,0,0,1,.271,2.6l-1.63,3.82a1.8,1.8,0,0,1-.677.8l-.477.309-15.228.969a11.27,11.27,0,0,1-5.886.84h0l-.022,0c-.25-.032-.5-.073-.747-.122l-1.4-.229v0a1.434,1.434,0,0,1-1.244-1.28l-.359-3.628a2.393,2.393,0,0,1,1.111-2.262Z" transform="translate(-52.753 -121.442)" fill="#f9cfcf"/>
    <path id="Path_1614" data-name="Path 1614" d="M121.824,192.589a11.894,11.894,0,0,1-1.443-.088.553.553,0,0,1-.063-.007c-.252-.032-.509-.075-.785-.129l-1.382-.226-.047-.01a2.024,2.024,0,0,1-1.7-1.8l-.359-3.629a2.984,2.984,0,0,1,1.386-2.827,3.063,3.063,0,0,1,1.351-.445l2.438-.242a11.874,11.874,0,0,1,3.1.1l2.375.391,9.614-1.8a.6.6,0,1,1,.22,1.177l-9.717,1.821a.6.6,0,0,1-.207,0l-2.479-.409a10.7,10.7,0,0,0-2.788-.09l-2.438.242a1.879,1.879,0,0,0-.828.265,1.793,1.793,0,0,0-.835,1.7l.359,3.629a.833.833,0,0,0,.725.745.578.578,0,0,1,.076.015l1.344.22c.268.052.5.09.726.119h0l.018,0a10.682,10.682,0,0,0,5.574-.8.6.6,0,0,1,.2-.048l15.071-.959.346-.224a1.2,1.2,0,0,0,.452-.536l1.63-3.82a2.077,2.077,0,0,0-.21-2.018l-3.7-5.283a.6.6,0,0,1,.981-.687l3.7,5.284a3.267,3.267,0,0,1,.331,3.175l-1.63,3.82a2.388,2.388,0,0,1-.9,1.072l-.477.309a.6.6,0,0,1-.287.095l-15.125.962a11.867,11.867,0,0,1-4.621.936Zm19.708-2.5h0Z" transform="translate(-51.352 -119.871)"/>
    <path id="Path_1615" data-name="Path 1615" d="M172.3,159.049a.6.6,0,0,1-.6-.6v-13.9a3.076,3.076,0,0,0-.172-1.007.6.6,0,0,1,1.056-.539l7.162,10.229a.6.6,0,0,1-.147.834l-6.958,4.872A.6.6,0,0,1,172.3,159.049Zm.6-13.508V157.3l5.525-3.869Z" transform="translate(-90.216 -96.095)" fill="#3762cc"/>
    <path id="Path_1616" data-name="Path 1616" d="M180.669,154.989l-6.958,4.872v-13.9a3.657,3.657,0,0,0-.2-1.2Z" transform="translate(-91.624 -97.506)" fill="#6bdddd"/>
    <path id="Path_1617" data-name="Path 1617" d="M172.31,159.059a.6.6,0,0,1-.6-.6v-13.9a3.049,3.049,0,0,0-.169-1,.6.6,0,0,1,1.056-.539l7.159,10.224a.6.6,0,0,1-.147.834l-6.958,4.872A.6.6,0,0,1,172.31,159.059Zm.6-13.509v11.76l5.525-3.869Z" transform="translate(-90.223 -96.105)"/>
  </g>
</svg>
