<svg id="dj20" xmlns="http://www.w3.org/2000/svg" width="63.576" height="63.577" viewBox="0 0 63.576 63.577">
  <g id="Group_115" data-name="Group 115" transform="translate(11.28 37.941)">
    <path id="Path_252" data-name="Path 252" d="M-4389.075-1371.138l-8.987,2.766a6.15,6.15,0,0,0-4.343,5.88v15.965h41.017v-15.965a6.154,6.154,0,0,0-4.343-5.881l-8.987-2.764" transform="translate(4402.405 1371.138)" fill="#669e4f"/>
  </g>
  <g id="Group_116" data-name="Group 116" transform="translate(11.28 37.941)">
    <path id="Path_253" data-name="Path 253" d="M-4393.177-1350.629c13.593,0,24.61-7.8,24.61-17.433,0-.4-.027-.8-.064-1.2l-6.088-1.874h-14.356l-8.987,2.766a6.15,6.15,0,0,0-4.343,5.88v10.592a33.546,33.546,0,0,0,9.229,1.271Z" transform="translate(4402.405 1371.138)" fill="#78b75b"/>
  </g>
  <g id="Group_117" data-name="Group 117" transform="translate(11.28 55.373)">
    <path id="Path_254" data-name="Path 254" d="M-4402.405-1235.138h7.178v7.178h-7.178Z" transform="translate(4402.405 1235.138)" fill="#efbe9a"/>
  </g>
  <g id="Group_118" data-name="Group 118" transform="translate(45.119 55.373)">
    <path id="Path_255" data-name="Path 255" d="M-4138.406-1235.138h7.178v7.178h-7.178Z" transform="translate(4138.406 1235.138)" fill="#efbe9a"/>
  </g>
  <g id="Group_119" data-name="Group 119" transform="translate(16.407 1.025)">
    <path id="Path_256" data-name="Path 256" d="M-4362.406-1638.629v-10.005a10.5,10.5,0,0,1,10.5-10.5h7.706a10.5,10.5,0,0,1,7.426,3.076,5.128,5.128,0,0,1,5.128,5.127v12.305" transform="translate(4362.406 1659.138)" fill="#976947"/>
  </g>
  <g id="Group_120" data-name="Group 120" transform="translate(18.458 11.28)">
    <path id="Path_257" data-name="Path 257" d="M-4346.405-1569.909a4.1,4.1,0,0,0,4.1-4.1v-1.979a3.148,3.148,0,0,1,3.148-3.148,3.143,3.143,0,0,1,1.746.529l.575.385a6.787,6.787,0,0,0,3.759,1.137,6.779,6.779,0,0,0,3.758-1.137l.576-.385a3.143,3.143,0,0,1,1.747-.529,3.148,3.148,0,0,1,3.148,3.148v1.979a4.1,4.1,0,0,0,4.1,4.1v6.153a13.33,13.33,0,0,1-13.331,13.331,13.33,13.33,0,0,1-13.33-13.331Z" transform="translate(4346.405 1579.138)" fill="#efbe9a"/>
  </g>
  <g id="Group_121" data-name="Group 121" transform="translate(14.356 20.509)">
    <path id="Path_258" data-name="Path 258" d="M-4374.3-1507.138a4.1,4.1,0,0,0-4.1,4.1,4.1,4.1,0,0,0,4.1,4.1" transform="translate(4378.406 1507.138)" fill="#db9b7c"/>
  </g>
  <g id="Group_122" data-name="Group 122" transform="translate(45.119 20.509)">
    <path id="Path_259" data-name="Path 259" d="M-4138.406-1507.138a4.1,4.1,0,0,1,4.1,4.1,4.1,4.1,0,0,1-4.1,4.1" transform="translate(4138.406 1507.138)" fill="#db9b7c"/>
  </g>
  <g id="Group_123" data-name="Group 123" transform="translate(24.61 37.941)">
    <path id="Path_260" data-name="Path 260" d="M-4284.049-1371.138v3.076a7.179,7.179,0,0,1-7.179,7.178,7.178,7.178,0,0,1-7.178-7.178v-3.076" transform="translate(4298.406 1371.138)" fill="#efbe9a"/>
  </g>
  <g id="Group_124" data-name="Group 124" transform="translate(17.432 50.246)">
    <path id="Path_261" data-name="Path 261" d="M-4354.406-1275.138h2.051v12.305h-2.051Z" transform="translate(4354.406 1275.138)"/>
  </g>
  <g id="Group_125" data-name="Group 125" transform="translate(44.093 50.246)">
    <path id="Path_262" data-name="Path 262" d="M-4146.405-1275.138h2.051v12.305h-2.051Z" transform="translate(4146.405 1275.138)"/>
  </g>
  <g id="Group_126" data-name="Group 126" transform="translate(10.255 36.962)">
    <path id="Path_263" data-name="Path 263" d="M-4368.363-1352.163h-41.017a1.025,1.025,0,0,1-1.025-1.025v-15.964a7.142,7.142,0,0,1,5.067-6.861l8.987-2.765.6,1.961-8.988,2.764a5.1,5.1,0,0,0-3.618,4.9v14.938h38.965v-14.938a5.1,5.1,0,0,0-3.618-4.9l-8.988-2.764.6-1.961,8.988,2.765a7.142,7.142,0,0,1,5.067,6.861v15.964A1.025,1.025,0,0,1-4368.363-1352.163Z" transform="translate(4410.406 1378.778)"/>
  </g>
  <g id="Group_127" data-name="Group 127" transform="translate(17.432 10.254)">
    <path id="Path_264" data-name="Path 264" d="M-4340.049-1556.375a14.372,14.372,0,0,1-14.356-14.356v-6.152a1.025,1.025,0,0,1,1.026-1.026,3.08,3.08,0,0,0,3.076-3.076v-1.979a4.178,4.178,0,0,1,4.173-4.173,4.154,4.154,0,0,1,2.315.7l.577.385a5.838,5.838,0,0,0,6.377,0l.577-.385a4.16,4.16,0,0,1,2.316-.7,4.179,4.179,0,0,1,4.174,4.173v1.979a3.08,3.08,0,0,0,3.076,3.076,1.024,1.024,0,0,1,1.025,1.026v6.152A14.372,14.372,0,0,1-4340.049-1556.375Zm-12.305-19.587v5.231a12.319,12.319,0,0,0,12.305,12.305,12.319,12.319,0,0,0,12.305-12.305v-5.231a5.136,5.136,0,0,1-4.1-5.023v-1.979a2.126,2.126,0,0,0-2.124-2.123,2.106,2.106,0,0,0-1.177.357l-.576.385a7.921,7.921,0,0,1-8.653,0l-.576-.385a2.123,2.123,0,0,0-1.18-.357,2.125,2.125,0,0,0-2.122,2.123v1.979a5.135,5.135,0,0,1-4.1,5.023Z" transform="translate(4354.406 1587.138)"/>
  </g>
  <g id="Group_128" data-name="Group 128" transform="translate(15.381)">
    <path id="Path_265" data-name="Path 265" d="M-4337.593-1645.6h-2.05v-12.305a4.106,4.106,0,0,0-4.1-4.1,1.022,1.022,0,0,1-.726-.3,9.411,9.411,0,0,0-6.7-2.776h-7.707a9.488,9.488,0,0,0-9.478,9.477v10.006h-2.051v-10.006a11.541,11.541,0,0,1,11.528-11.528h7.707a11.444,11.444,0,0,1,7.855,3.092,6.159,6.159,0,0,1,5.722,6.137Z" transform="translate(4370.406 1667.138)"/>
  </g>
  <g id="Group_129" data-name="Group 129" transform="translate(13.331 19.483)">
    <path id="Path_266" data-name="Path 266" d="M-4381.278-1504.884a5.133,5.133,0,0,1-5.127-5.127,5.133,5.133,0,0,1,5.127-5.127v2.051a3.08,3.08,0,0,0-3.076,3.076,3.08,3.08,0,0,0,3.076,3.076Z" transform="translate(4386.405 1515.138)"/>
  </g>
  <g id="Group_130" data-name="Group 130" transform="translate(45.119 19.483)">
    <path id="Path_267" data-name="Path 267" d="M-4138.406-1504.884v-2.051a3.08,3.08,0,0,0,3.076-3.076,3.08,3.08,0,0,0-3.076-3.076v-2.051a5.133,5.133,0,0,1,5.127,5.127A5.133,5.133,0,0,1-4138.406-1504.884Z" transform="translate(4138.406 1515.138)"/>
  </g>
  <g id="Group_131" data-name="Group 131" transform="translate(23.585 37.941)">
    <path id="Path_268" data-name="Path 268" d="M-4298.2-1359.858a8.214,8.214,0,0,1-8.2-8.2v-3.076h2.052v3.076a6.159,6.159,0,0,0,6.152,6.153,6.159,6.159,0,0,0,6.152-6.153v-3.076H-4290v3.076A8.213,8.213,0,0,1-4298.2-1359.858Z" transform="translate(4306.406 1371.138)"/>
  </g>
  <g id="Group_132" data-name="Group 132" transform="translate(45.119 54.348)">
    <path id="Path_269" data-name="Path 269" d="M-4138.406-1243.138h7.178v2.051h-7.178Z" transform="translate(4138.406 1243.138)"/>
  </g>
  <g id="Group_133" data-name="Group 133" transform="translate(11.28 54.348)">
    <path id="Path_270" data-name="Path 270" d="M-4402.405-1243.138h7.178v2.051h-7.178Z" transform="translate(4402.405 1243.138)"/>
  </g>
  <g id="Group_134" data-name="Group 134" transform="translate(10.255 6.672)">
    <path id="Path_271" data-name="Path 271" d="M-4388.872-1598.169c-12.075,0-21.534-4.279-21.534-9.742,0-2.8,2.41-5.349,6.783-7.171l.79,1.893c-3.509,1.461-5.521,3.385-5.521,5.278,0,3.714,7.829,7.691,19.483,7.691s19.482-3.977,19.482-7.691c0-1.71-1.613-3.43-4.545-4.841l.888-1.849c3.681,1.773,5.709,4.148,5.709,6.69,0,5.463-9.46,9.742-21.534,9.742Z" transform="translate(4410.406 1615.082)"/>
  </g>
  <g id="Group_135" data-name="Group 135" transform="translate(57.424 2.051)">
    <path id="Path_272" data-name="Path 272" d="M-4042.406-1651.138h6.152v2.051h-6.152Z" transform="translate(4042.406 1651.138)"/>
  </g>
  <g id="Group_136" data-name="Group 136" transform="translate(59.475)">
    <path id="Path_273" data-name="Path 273" d="M-4026.405-1667.138h2.051v6.153h-2.051Z" transform="translate(4026.405 1667.138)"/>
  </g>
  <g id="Group_137" data-name="Group 137" transform="translate(55.373 12.305)">
    <path id="Path_274" data-name="Path 274" d="M-4058.406-1571.138h6.153v2.051h-6.153Z" transform="translate(4058.406 1571.138)"/>
  </g>
  <g id="Group_138" data-name="Group 138" transform="translate(57.424 10.254)">
    <path id="Path_275" data-name="Path 275" d="M-4042.406-1587.138h2.051v6.153h-2.051Z" transform="translate(4042.406 1587.138)"/>
  </g>
  <g id="Group_139" data-name="Group 139" transform="translate(49.22 2.051)">
    <path id="Path_276" data-name="Path 276" d="M-4106.406-1651.138h6.153v2.051h-6.153Z" transform="translate(4106.406 1651.138)"/>
  </g>
  <g id="Group_140" data-name="Group 140" transform="translate(51.271)">
    <path id="Path_277" data-name="Path 277" d="M-4090.406-1667.138h2.051v6.153h-2.051Z" transform="translate(4090.406 1667.138)"/>
  </g>
  <g id="Group_141" data-name="Group 141" transform="translate(0 2.051)">
    <path id="Path_278" data-name="Path 278" d="M-4490.405-1651.138h6.152v2.051h-6.152Z" transform="translate(4490.405 1651.138)"/>
  </g>
  <g id="Group_142" data-name="Group 142" transform="translate(2.051)">
    <path id="Path_279" data-name="Path 279" d="M-4474.405-1667.138h2.05v6.153h-2.05Z" transform="translate(4474.405 1667.138)"/>
  </g>
  <g id="Group_143" data-name="Group 143" transform="translate(2.051 12.305)">
    <path id="Path_280" data-name="Path 280" d="M-4474.405-1571.138h6.152v2.051h-6.152Z" transform="translate(4474.405 1571.138)"/>
  </g>
  <g id="Group_144" data-name="Group 144" transform="translate(4.101 10.254)">
    <path id="Path_281" data-name="Path 281" d="M-4458.405-1587.138h2.051v6.153h-2.051Z" transform="translate(4458.405 1587.138)"/>
  </g>
  <g id="Group_145" data-name="Group 145" transform="translate(8.203 2.051)">
    <path id="Path_282" data-name="Path 282" d="M-4426.406-1651.138h6.153v2.051h-6.153Z" transform="translate(4426.406 1651.138)"/>
  </g>
  <g id="Group_146" data-name="Group 146" transform="translate(10.255)">
    <path id="Path_283" data-name="Path 283" d="M-4410.406-1667.138h2.051v6.153h-2.051Z" transform="translate(4410.406 1667.138)"/>
  </g>
</svg>
