<svg xmlns="http://www.w3.org/2000/svg" width="39.212" height="65.112" viewBox="0 0 39.212 65.112">
  <g id="dj22" transform="translate(-1169.918 1847.101)">
    <path id="Path_1467" data-name="Path 1467" d="M1243.629-1577.442H1224.99a3.389,3.389,0,0,0-3.389,3.389v25.2h25.417v-25.2A3.389,3.389,0,0,0,1243.629-1577.442Z" transform="translate(-44.785 -233.671)" fill="#6bdddd"/>
    <path id="Path_1468" data-name="Path 1468" d="M1175.525-1550.61l5.946,4.163v-12.778a3.374,3.374,0,0,1,.188-1.105l-6.269,8.953a.55.55,0,0,0,.135.766Z" transform="translate(-4.655 -248.499)" fill="#6bdddd"/>
    <path id="Path_1469" data-name="Path 1469" d="M1410.851-1551.8v5.344l5.946-4.163a.55.55,0,0,0,.135-.767l-6.266-8.949,0,0a3.375,3.375,0,0,1,.188,1.105v7.434Z" transform="translate(-208.615 -248.492)" fill="#6bdddd"/>
    <path id="Path_1470" data-name="Path 1470" d="M1243.551-1551.785h-25.417a.534.534,0,0,1-.534-.534v-25.2a3.927,3.927,0,0,1,3.923-3.923h18.639a3.927,3.927,0,0,1,3.923,3.923v25.2A.534.534,0,0,1,1243.551-1551.785Zm-24.883-1.068h24.349v-24.667a2.858,2.858,0,0,0-2.855-2.855h-18.639a2.858,2.858,0,0,0-2.855,2.855v24.667Z" transform="translate(-41.319 -230.204)"/>
    <path id="Path_1471" data-name="Path 1471" d="M1243.551-1562.276h-25.416a.534.534,0,0,1-.534-.534v-25.2a3.927,3.927,0,0,1,3.923-3.923h2.735v-1.082a.534.534,0,0,1,.261-.459.533.533,0,0,1,.528-.009,11.959,11.959,0,0,0,4.906,1.438l.147.011.226.012c.343.015.689.015,1.031,0l.228-.012.143-.011a11.965,11.965,0,0,0,4.908-1.438.534.534,0,0,1,.528.009.534.534,0,0,1,.261.459v1.082h2.735a3.927,3.927,0,0,1,3.922,3.923v25.2a.534.534,0,0,1-.534.534Zm-24.882-1.068h24.349v-24.667a2.858,2.858,0,0,0-2.855-2.855h-3.274a.534.534,0,0,1-.383-.161.533.533,0,0,1-.151-.387l0-.058c0-.034,0-.067,0-.1v-.576a13.039,13.039,0,0,1-4.551,1.168l-.156.012-.248.013c-.371.017-.751.017-1.124,0l-.246-.013-.16-.012a13.031,13.031,0,0,1-4.548-1.168v.576c0,.036,0,.071,0,.107l0,.052a.534.534,0,0,1-.151.387.534.534,0,0,1-.383.161h-3.273a2.858,2.858,0,0,0-2.855,2.855Z" transform="translate(-41.319 -219.714)"/>
    <path id="Path_1472" data-name="Path 1472" d="M1403.848-1603.508a.534.534,0,0,1-.534-.534,4.81,4.81,0,0,0-4.805-4.8.534.534,0,0,1-.534-.534.534.534,0,0,1,.534-.534,5.879,5.879,0,0,1,5.873,5.872A.534.534,0,0,1,1403.848-1603.508Z" transform="translate(-197.62 -205.532)"/>
    <path id="Path_1473" data-name="Path 1473" d="M1398.1-1588.847a.534.534,0,0,1-.534-.534,3.186,3.186,0,0,0-3.182-3.182.534.534,0,0,1-.534-.534.534.534,0,0,1,.534-.534,4.254,4.254,0,0,1,4.25,4.25A.534.534,0,0,1,1398.1-1588.847Z" transform="translate(-194.049 -219.643)"/>
    <path id="Path_1474" data-name="Path 1474" d="M1188.2-1603.508a.534.534,0,0,1-.534-.534,5.879,5.879,0,0,1,5.873-5.872.534.534,0,0,1,.534.534.534.534,0,0,1-.534.534,4.81,4.81,0,0,0-4.805,4.8A.534.534,0,0,1,1188.2-1603.508Z" transform="translate(-15.38 -205.532)"/>
    <path id="Path_1475" data-name="Path 1475" d="M1204.485-1588.847a.534.534,0,0,1-.534-.534,4.254,4.254,0,0,1,4.25-4.25.534.534,0,0,1,.534.534.534.534,0,0,1-.534.534,3.186,3.186,0,0,0-3.182,3.182A.534.534,0,0,1,1204.485-1588.847Z" transform="translate(-29.491 -219.643)"/>
    <path id="Path_1476" data-name="Path 1476" d="M1410.065-1451.352a.532.532,0,0,1-.312-.1l-1.459-1.055a.534.534,0,0,1-.12-.745.534.534,0,0,1,.745-.12l1.46,1.055a.534.534,0,0,1,.12.745A.533.533,0,0,1,1410.065-1451.352Z" transform="translate(-206.37 -341.094)"/>
    <path id="Path_1477" data-name="Path 1477" d="M1310.757-1503.952l-2.856,1.148a1.653,1.653,0,0,1-.963.083l-.511-.109-10.529-9.27a10.359,10.359,0,0,1-4.373-3.28h0l-.012-.016c-.142-.183-.276-.372-.406-.565l-.762-1.06,0,0a1.319,1.319,0,0,1,.023-1.641l2.126-2.593a2.2,2.2,0,0,1,2.306-.72,2.282,2.282,0,0,1,.826.449l1.742,1.428a10.363,10.363,0,0,1,1.852,1.976l1.346,1.877,4.871,3.334.325.223.59.317v-.913l3.745-2.623s1.638,5.359,2.481,8.168a3.116,3.116,0,0,1-.647,2.957,3.118,3.118,0,0,1-1.176.832Z" transform="translate(-104.118 -281.661)" fill="#f9cfcf"/>
    <path id="Path_1478" data-name="Path 1478" d="M1303.806-1505.612a2.187,2.187,0,0,1-.46-.049l-.511-.109a.53.53,0,0,1-.241-.121l-10.46-9.209a10.9,10.9,0,0,1-4.49-3.388.5.5,0,0,1-.033-.041c-.144-.186-.283-.38-.428-.6l-.752-1.046a.4.4,0,0,1-.024-.036,1.844,1.844,0,0,1,.07-2.256l2.126-2.593a2.745,2.745,0,0,1,2.862-.9,2.809,2.809,0,0,1,1.021.55l1.742,1.428a10.876,10.876,0,0,1,1.948,2.078l1.291,1.8,4.874,3.336a.533.533,0,0,1,.228-.424l3.745-2.623a.533.533,0,0,1,.48-.068.535.535,0,0,1,.337.349c.016.054,1.649,5.393,2.482,8.17a3.63,3.63,0,0,1-.758,3.463,3.668,3.668,0,0,1-1.378.974l-2.856,1.148a2.186,2.186,0,0,1-.815.158Zm-.611-1.173.374.08a1.117,1.117,0,0,0,.652-.056l2.856-1.148a2.6,2.6,0,0,0,.975-.689,2.569,2.569,0,0,0,.536-2.45c-.651-2.172-1.793-5.913-2.265-7.462l-2.916,2.042v.635a.534.534,0,0,1-.26.458.534.534,0,0,1-.527.012l-.59-.317c-.017-.009-.033-.019-.049-.03l-5.2-3.557a.535.535,0,0,1-.132-.13l-1.346-1.877a9.836,9.836,0,0,0-1.757-1.874l-1.742-1.428a1.756,1.756,0,0,0-.63-.347,1.677,1.677,0,0,0-1.75.544l-2.125,2.593a.782.782,0,0,0-.013.977.543.543,0,0,1,.039.057l.731,1.017c.141.209.267.385.4.55h0l.011.014a9.833,9.833,0,0,0,4.147,3.112.529.529,0,0,1,.156.1Zm4.082-.628h0Z" transform="translate(-100.638 -278.2)"/>
    <path id="Path_1479" data-name="Path 1479" d="M1175.891-1503.968l2.856,1.148a1.652,1.652,0,0,0,.963.082l.511-.109,10.529-9.27a10.359,10.359,0,0,0,4.373-3.28h0l.012-.016c.142-.183.276-.372.406-.565l.762-1.059,0,0a1.319,1.319,0,0,0-.023-1.641l-2.125-2.593a2.2,2.2,0,0,0-2.306-.72,2.282,2.282,0,0,0-.826.449l-1.742,1.428a10.36,10.36,0,0,0-1.852,1.976l-1.346,1.877-4.871,3.334-.325.223-.59.317v-.913l-3.745-2.623s-1.638,5.359-2.481,8.168a3.116,3.116,0,0,0,.647,2.957,3.114,3.114,0,0,0,1.176.831Z" transform="translate(-3.481 -281.647)" fill="#f9cfcf"/>
    <path id="Path_1480" data-name="Path 1480" d="M1278.467-1588.046l-.152.012-.237.012c-.179.008-.358.014-.539.014s-.36-.006-.539-.014l-.237-.012-.151-.012a12.554,12.554,0,0,1-5.123-1.5v1.442a5.965,5.965,0,0,0,5.856,6.069h.389a5.965,5.965,0,0,0,5.856-6.069v-1.442a12.549,12.549,0,0,1-5.123,1.5Z" transform="translate(-88.015 -223.18)" fill="#f9cfcf"/>
    <path id="Path_1481" data-name="Path 1481" d="M1222.615-1794.654c-.027,0-.052,0-.079,0v-1.173a12.482,12.482,0,0,0-12.547-12.416,12.482,12.482,0,0,0-12.547,12.416v1.173c-.027,0-.052,0-.079,0a3.808,3.808,0,0,0-3.828,3.788,3.808,3.808,0,0,0,3.828,3.788,3.935,3.935,0,0,0,.411-.022,12.522,12.522,0,0,0,12.215,9.586,12.521,12.521,0,0,0,12.215-9.586,3.931,3.931,0,0,0,.411.022,3.808,3.808,0,0,0,3.828-3.788,3.808,3.808,0,0,0-3.828-3.788Z" transform="translate(-20.465 -33.675)" fill="#f9cfcf"/>
    <path id="Path_1482" data-name="Path 1482" d="M1206.523-1780.448a13,13,0,0,1-12.625-9.564h0a4.347,4.347,0,0,1-4.362-4.322,4.343,4.343,0,0,1,3.907-4.3v-.659a13.031,13.031,0,0,1,13.081-12.95,13.031,13.031,0,0,1,13.081,12.95v.659a4.344,4.344,0,0,1,3.907,4.3,4.347,4.347,0,0,1-4.362,4.322h0a13,13,0,0,1-12.625,9.564Zm-12.215-10.654a.534.534,0,0,1,.519.411,11.93,11.93,0,0,0,11.7,9.175,11.93,11.93,0,0,0,11.7-9.175.536.536,0,0,1,.575-.408,3.348,3.348,0,0,0,.355.02,3.278,3.278,0,0,0,3.294-3.254,3.278,3.278,0,0,0-3.289-3.254l-.074,0a.514.514,0,0,1-.384-.152.534.534,0,0,1-.16-.381v-1.173a11.962,11.962,0,0,0-12.013-11.883,11.962,11.962,0,0,0-12.013,11.883v1.173a.533.533,0,0,1-.16.381.515.515,0,0,1-.384.153l-.064,0h0a3.278,3.278,0,0,0-3.3,3.254,3.278,3.278,0,0,0,3.294,3.254,3.345,3.345,0,0,0,.355-.02.487.487,0,0,1,.056,0Z" transform="translate(-16.999 -30.207)"/>
    <path id="Path_1483" data-name="Path 1483" d="M1188.956-1803.676a7.238,7.238,0,0,1-.115-4.733l.043-.133a7.238,7.238,0,0,1,5.542-4.909,7.236,7.236,0,0,1,3.688.26l.139.047a1.713,1.713,0,0,0,.038.216,16.945,16.945,0,0,0,3.035,6.317,16.236,16.236,0,0,1-3.891,6.477h0l-1.509,1.532-2.927-.678a3.837,3.837,0,0,0-2.156.658Z" transform="translate(-16.1 -29.048)" fill="#4671c6"/>
    <path id="Path_1484" data-name="Path 1484" d="M1283.755-1834.569a10.8,10.8,0,0,0-6.108-6.678h0c-10.106-4.975-15.633,1.027-15.633,1.027a1.678,1.678,0,0,0-.463,1.607,16.757,16.757,0,0,0,8.564,10.939l.006,0a16.749,16.749,0,0,0,2.881,1.16.275.275,0,0,0,.3-.426l-2.078-2.965a.273.273,0,0,1,.384-.38c2.3,1.8,6.762,4.78,11.278,4.93l.735-2.014A11.1,11.1,0,0,0,1283.755-1834.569Z" transform="translate(-79.362 -3.361)" fill="#4671c6"/>
    <ellipse id="Ellipse_97" data-name="Ellipse 97" cx="4.011" cy="3.234" rx="4.011" ry="3.234" transform="translate(1185.513 -1820.673)" fill="#f9a7a7"/>
    <path id="Path_1485" data-name="Path 1485" d="M1192.471-1801.532a.536.536,0,0,1-.121-.014l-2.865-.664a3.3,3.3,0,0,0-1.8.566.534.534,0,0,1-.462.066.534.534,0,0,1-.338-.322l-1.887-5.054a7.806,7.806,0,0,1-.123-5.082l.042-.133a7.765,7.765,0,0,1,5.951-5.271,7.791,7.791,0,0,1,3.96.279l.139.047a.533.533,0,0,1,.358.445,1.169,1.169,0,0,0,.026.148,16.316,16.316,0,0,0,2.94,6.119.534.534,0,0,1,.08.506,16.8,16.8,0,0,1-4.027,6.685l-1.5,1.518a.534.534,0,0,1-.381.16Zm-2.927-1.746a.528.528,0,0,1,.121.014l2.635.611,1.3-1.319a15.515,15.515,0,0,0,3.67-6.013,17.365,17.365,0,0,1-2.937-6.215,6.71,6.71,0,0,0-3.262-.19,6.7,6.7,0,0,0-5.134,4.547l-.042.133a6.734,6.734,0,0,0,.106,4.384l1.668,4.467a4.373,4.373,0,0,1,1.875-.419Z" transform="translate(-12.646 -25.585)"/>
    <path id="Path_1486" data-name="Path 1486" d="M1279.421-1828.183h-.018c-3.917-.13-7.773-2.3-10.286-4.074l1.156,1.65a.815.815,0,0,1-.006.943.793.793,0,0,1-.88.3,17.32,17.32,0,0,1-2.972-1.2,17.281,17.281,0,0,1-8.844-11.289,2.216,2.216,0,0,1,.6-2.112c.346-.356,6.168-6.089,16.246-1.128l.007,0a11.32,11.32,0,0,1,6.373,6.991,11.669,11.669,0,0,1-.144,7.547l-.735,2.014a.534.534,0,0,1-.5.351Zm-11.443-6.056a.8.8,0,0,1,.495.172c2.153,1.686,6.337,4.5,10.582,4.8l.6-1.644a10.6,10.6,0,0,0,.131-6.853,10.254,10.254,0,0,0-5.805-6.349.527.527,0,0,1-.066-.033c-9.579-4.7-14.754.7-14.97.928l-.022.022a1.145,1.145,0,0,0-.314,1.095,16.211,16.211,0,0,0,8.29,10.591,16.29,16.29,0,0,0,2.059.888l-1.636-2.334a.81.81,0,0,1,.106-1.058.8.8,0,0,1,.55-.221Z" transform="translate(-75.9 0)"/>
    <path id="Path_1487" data-name="Path 1487" d="M1345.218-1700.44a7.466,7.466,0,0,1-5.124-2.125.533.533,0,0,1,.024-.755.534.534,0,0,1,.753.022,6.461,6.461,0,0,0,4.887,1.766.533.533,0,0,1,.579.484.534.534,0,0,1-.484.579C1345.637-1700.449,1345.424-1700.44,1345.218-1700.44Z" transform="translate(-147.338 -124.467)"/>
    <path id="Path_1488" data-name="Path 1488" d="M1345.335-1673.566h-4.854a.534.534,0,0,1-.534-.534.534.534,0,0,1,.534-.534h4.854a.534.534,0,0,1,.534.534A.534.534,0,0,1,1345.335-1673.566Z" transform="translate(-147.337 -149.45)"/>
    <path id="Path_1489" data-name="Path 1489" d="M1246.934-1700.438q-.31,0-.635-.028a.534.534,0,0,1-.484-.579.534.534,0,0,1,.579-.484,6.4,6.4,0,0,0,4.887-1.764.534.534,0,0,1,.754-.023.533.533,0,0,1,.023.755,7.468,7.468,0,0,1-5.125,2.125Z" transform="translate(-65.765 -124.469)"/>
    <path id="Path_1490" data-name="Path 1490" d="M1255-1673.566h-4.854a.534.534,0,0,1-.534-.534.534.534,0,0,1,.534-.534H1255a.534.534,0,0,1,.534.534A.534.534,0,0,1,1255-1673.566Z" transform="translate(-69.06 -149.45)"/>
    <g id="Group_450" data-name="Group 450" transform="translate(1169.918 -1821.074)">
      <path id="Path_1491" data-name="Path 1491" d="M1175.881-1505.627a2.181,2.181,0,0,1-.814-.158l-2.856-1.148a3.666,3.666,0,0,1-1.378-.974,3.631,3.631,0,0,1-.758-3.463c.834-2.778,2.466-8.117,2.482-8.17a.534.534,0,0,1,.337-.349.534.534,0,0,1,.48.067l3.745,2.623a.534.534,0,0,1,.227.424l4.874-3.336,1.291-1.8a10.877,10.877,0,0,1,1.948-2.078l1.742-1.428a2.808,2.808,0,0,1,1.021-.55,2.749,2.749,0,0,1,2.862.9l2.125,2.593a1.845,1.845,0,0,1,.068,2.259l-.022.034-.761,1.059c-.131.2-.274.4-.417.58l-.013.016a10.905,10.905,0,0,1-4.51,3.414l-10.46,9.209a.531.531,0,0,1-.241.122l-.511.109a2.159,2.159,0,0,1-.46.05Zm-3.272-2.3,2.856,1.148a1.112,1.112,0,0,0,.651.056l.375-.08,10.425-9.178a.527.527,0,0,1,.156-.1,9.834,9.834,0,0,0,4.147-3.112l.011-.014h0c.128-.166.258-.346.385-.536l.743-1.034a.583.583,0,0,1,.037-.055.781.781,0,0,0-.014-.977l-2.125-2.593a1.68,1.68,0,0,0-1.75-.544,1.751,1.751,0,0,0-.63.347l-1.742,1.428a9.851,9.851,0,0,0-1.757,1.874l-1.346,1.877a.537.537,0,0,1-.132.129l-5.2,3.556a.475.475,0,0,1-.049.03l-.59.317a.534.534,0,0,1-.527-.012.534.534,0,0,1-.26-.458v-.635l-2.916-2.042c-.473,1.549-1.614,5.29-2.265,7.462a2.568,2.568,0,0,0,.536,2.45,2.594,2.594,0,0,0,.976.69Z" transform="translate(-1169.918 1542.887)"/>
      <path id="Path_1492" data-name="Path 1492" d="M1207.172-1451.368a.534.534,0,0,1-.433-.221.534.534,0,0,1,.12-.745l1.46-1.055a.534.534,0,0,1,.745.12.534.534,0,0,1-.12.745l-1.459,1.055A.532.532,0,0,1,1207.172-1451.368Z" transform="translate(-1201.737 1479.994)"/>
      <path id="Path_1493" data-name="Path 1493" d="M1178-1549.38a.533.533,0,0,1-.306-.1l-5.946-4.163a1.077,1.077,0,0,1-.446-.7,1.075,1.075,0,0,1,.18-.81l6.269-8.953a.533.533,0,0,1,.68-.169.533.533,0,0,1,.262.65,2.838,2.838,0,0,0-.159.931v12.778a.534.534,0,0,1-.287.474.538.538,0,0,1-.247.06Zm-5.64-5.134,5.106,3.575v-10.9l-5.11,7.3-.3.46Z" transform="translate(-1171.107 1576.042)"/>
      <path id="Path_1494" data-name="Path 1494" d="M1407.383-1549.386a.532.532,0,0,1-.247-.061.533.533,0,0,1-.287-.473V-1562.7a2.838,2.838,0,0,0-.159-.931.533.533,0,0,1,.26-.649.533.533,0,0,1,.679.166l6.271,8.956a1.077,1.077,0,0,1,.18.81,1.076,1.076,0,0,1-.446.7l-5.945,4.163a.535.535,0,0,1-.306.1Zm.534-12.45v10.89l5.105-3.575Z" transform="translate(-1375.065 1576.048)"/>
      <path id="Path_1495" data-name="Path 1495" d="M1288.18-1644.813c-2.432,0-4.411-1.63-4.411-3.634s1.979-3.635,4.411-3.635,4.411,1.63,4.411,3.634S1290.613-1644.813,1288.18-1644.813Zm0-6.468c-1.991,0-3.611,1.271-3.611,2.834s1.62,2.834,3.611,2.834,3.611-1.271,3.611-2.834S1290.171-1651.281,1288.18-1651.281Z" transform="translate(-1268.575 1652.082)"/>
    </g>
    <path id="Path_1496" data-name="Path 1496" d="M1288.715-1584.493a.55.55,0,0,1-.5-.6l.594-6.785a.55.55,0,0,1,.6-.5.55.55,0,0,1,.5.6l-.594,6.785A.55.55,0,0,1,1288.715-1584.493Z" transform="translate(-102.507 -220.73)" fill="#fff"/>
    <path id="Path_1497" data-name="Path 1497" d="M1335.131-1584.493a.551.551,0,0,1-.6-.5l-.594-6.785a.551.551,0,0,1,.5-.6.551.551,0,0,1,.6.5l.594,6.785A.55.55,0,0,1,1335.131-1584.493Z" transform="translate(-142.131 -220.73)" fill="#fff"/>
    <path id="Path_1498" data-name="Path 1498" d="M1314.3-1604.493a.55.55,0,0,1-.55-.55v-6.811a.55.55,0,0,1,.55-.55.55.55,0,0,1,.55.55v6.811A.55.55,0,0,1,1314.3-1604.493Z" transform="translate(-124.639 -203.375)" fill="#fff"/>
  </g>
</svg>
