<svg xmlns="http://www.w3.org/2000/svg" width="62" height="62" viewBox="0 0 62 62">
  <g id="dj24" transform="translate(-1 -1)">
    <path id="Path_1454" data-name="Path 1454" d="M49,9A12.955,12.955,0,0,0,36.379,25.066a2.113,2.113,0,0,1,1.257,3.241c.007.012.015.023.021.035l2.721-2.721a2.122,2.122,0,0,1,3,3l-3.047,3.047,1.047-1.047a2.121,2.121,0,0,1,3,3L44,34A13,13,0,1,0,49,9Z" transform="translate(-4 7)" fill="#f0bc5e"/>
    <path id="Path_1455" data-name="Path 1455" d="M55.247,23.494l2.441-1.22L55.6,20.182l6.934-4.333-1.06-1.7L52.4,19.82l1.908,1.908-1.02.51a18.864,18.864,0,0,0-3.05-1.384l-1.576-.548L52.869,14H49.443l2.494-6.649-1.873-.7L46.557,16h2.574l-2.416,3.625-4.029-1.4A4.005,4.005,0,0,1,40,14.445v-.922a26.467,26.467,0,0,0,9.564-11.1L50.217,1H13.783l.653,1.418A26.461,26.461,0,0,0,24,13.523v.922a4,4,0,0,1-2.686,3.778l-7.556,2.628A19.016,19.016,0,0,0,1,38.8V52A11.013,11.013,0,0,0,12,63H63V38.8a19.014,19.014,0,0,0-7.753-15.3ZM16.961,3H47.038A24.38,24.38,0,0,1,32,14.964,24.385,24.385,0,0,1,16.961,3ZM61,61H51V43.243a9.182,9.182,0,0,1,2.707-6.536l-1.414-1.414A11.168,11.168,0,0,0,49,43.243V61H18.546L30.46,49.937l3.808-.635a6.954,6.954,0,0,0,3.8-1.955l8.02-8.02a3.116,3.116,0,0,0-.951-5.059,3.108,3.108,0,0,0-1-5A3.093,3.093,0,0,0,45,27.121a3.121,3.121,0,0,0-5.328-2.207l-.944.944a3.117,3.117,0,0,0-5.056-.944l-3.825,3.825A6.826,6.826,0,0,0,26.96,24.43,2.545,2.545,0,0,0,23,26.544v1.031a4.824,4.824,0,0,1-1.421,3.432l-1.528,1.528A6.954,6.954,0,0,0,18,37.485v3.1l-3,3v-.343a11.168,11.168,0,0,0-3.293-7.95l-1.414,1.414A9.185,9.185,0,0,1,13,43.243v2.343L6.293,52.293l1.414,1.414L20,41.414V37.485a4.971,4.971,0,0,1,1.464-3.536l1.528-1.528A6.805,6.805,0,0,0,25,27.575V26.544a.562.562,0,0,1,.848-.452A4.847,4.847,0,0,1,28,30.125v.461l-3.707,3.707-.051.051,1.414,1.414.051-.051L30,31.414l5.086-5.086a1.121,1.121,0,0,1,1.586,1.586l-7.379,7.379,1.414,1.414,7.379-7.379,3-3a1.121,1.121,0,0,1,1.586,1.586l-2,2-8.379,8.379,1.414,1.414,8.379-8.379a1.121,1.121,0,0,1,1.586,1.586l-2,2-6.379,6.379,1.414,1.414,6.379-6.379a1.121,1.121,0,0,1,1.586,1.586l-8.02,8.02a4.968,4.968,0,0,1-2.713,1.4l-4.4.733L15.607,61H12a9.011,9.011,0,0,1-9-9V38.8A17.014,17.014,0,0,1,14.415,22.74l7.556-2.628A6,6,0,0,0,25.98,14.7a26.508,26.508,0,0,0,5.765,2.271l.255.067.254-.067A26.488,26.488,0,0,0,38.019,14.7a6,6,0,0,0,4.009,5.416l3.54,1.231-1.4,2.1,1.664,1.109,1.688-2.532,2.065.718c.51.177,1,.384,1.487.606l-5.519,2.759.9,1.789,6.765-3.383A17.021,17.021,0,0,1,61,38.8Z"/>
    <path id="Path_1456" data-name="Path 1456" d="M34,11h2c0-1.682-1.757-3-4-3s-4,1.318-4,3h2c0-.408.779-1,2-1S34,10.592,34,11Z"/>
  </g>
</svg>
