<svg xmlns="http://www.w3.org/2000/svg" width="47" height="76.281" viewBox="0 0 47 76.281">
  <g id="embarazo" transform="translate(-104 -15.592)">
    <path id="Path_1269" data-name="Path 1269" d="M117.081,296,112,302.351v4.741a1.61,1.61,0,0,0,1.61,1.61h3.471l3.811-5.081,16.513-1.27V296Z" transform="translate(-6.73 -235.883)" fill="#feb784"/>
    <path id="Path_1270" data-name="Path 1270" d="M227.949,192A3.949,3.949,0,0,0,224,195.949v6.213h12.7V192Z" transform="translate(-100.946 -148.397)" fill="#feb784"/>
    <path id="Path_1271" data-name="Path 1271" d="M228.664,50.757c-.287-2.858-1.363-8.3-2.346-12.942-.091-.43-.181-.854-.27-1.267-.823-3.835-1.516-6.834-1.516-6.834a8.279,8.279,0,0,0-10.864-5.145,7.84,7.84,0,0,0-3.773,3.095,8.431,8.431,0,0,0-.433.754,9.053,9.053,0,0,0-.521,6.893l.627,1.761-.905,4.011,2.769,1.837,1.226,3.747,5.918-1.065v6.351l-6.161,5.081h9.972Z" transform="translate(-87.9 -7.08)" fill="#fec9a3"/>
    <path id="Path_1272" data-name="Path 1272" d="M154.3,193.666V239.4H132.7a12.675,12.675,0,0,1-12.585-11.237,13.713,13.713,0,0,1-.118-1.8,13.036,13.036,0,0,1,10.958-12.869l5.313-.857-1.081-.721a6.523,6.523,0,0,1-.1-10.788l2.882-2.377h9.972l6.277-6.277C154.27,192.945,154.3,193.35,154.3,193.666Z" transform="translate(-13.459 -148.792)" fill="#f59898"/>
    <path id="Path_1273" data-name="Path 1273" d="M154.92,219.23v42.676H133.325a12.675,12.675,0,0,1-12.585-11.237C134.156,247.355,147.081,238.263,154.92,219.23Z" transform="translate(-14.082 -171.303)" fill="#ed9191"/>
    <path id="Path_1274" data-name="Path 1274" d="M181.4,205.308l2.01,20.1-8.892,5.081-5.081-3.811-2.541,1.27,2.541,3.811-5.769,2.593,3.229,5.028,8.892-2.541,12.9-5.374a3.811,3.811,0,0,0,2.345-3.518V204.827A4.827,4.827,0,0,0,186.2,200h0a4.827,4.827,0,0,0-4.8,5.308Z" transform="translate(-50.193 -155.127)" fill="#fec9a3"/>
    <path id="Path_1275" data-name="Path 1275" d="M223.753,23.6a11,11,0,0,1,9.063,4.9h0a11,11,0,0,1,1.847,6.1h0a8.338,8.338,0,0,0,3.492,6.785l1.537,1.1a9.225,9.225,0,0,1,3.863,7.507v.333a8.892,8.892,0,0,1-8.892,8.892h0A10.162,10.162,0,0,1,224.5,49.051V35.078h0a12.656,12.656,0,0,1-8.966-7.3S217.383,23.249,223.753,23.6Z" transform="translate(-93.826 -6.718)" fill="#92563a"/>
    <path id="Path_1276" data-name="Path 1276" d="M144,321.27v5.081h2.541L149.081,320" transform="translate(-33.649 -256.073)" fill="#feb784"/>
    <path id="Path_1277" data-name="Path 1277" d="M146.6,34.729l-1.537-1.1a7.082,7.082,0,0,1-2.96-5.752,12.271,12.271,0,0,0-12.141-12.27,10.052,10.052,0,0,0-9.537,5.151,10.336,10.336,0,0,0-.6,7.866l.011.031.5,1.414-.824,3.652a1.27,1.27,0,0,0,.537,1.338l2.4,1.593,1.088,3.328a1.27,1.27,0,0,0,1.432.855l4.423-.8v2.291H127a5.226,5.226,0,0,0-5.22,5.22V50.56l-.92.759a7.831,7.831,0,0,0-3.221,7.527h-7.291a1.27,1.27,0,0,0-.992.476l-5.081,6.351a1.27,1.27,0,0,0-.278.794v4.741a2.885,2.885,0,0,0,1.76,2.653,14.258,14.258,0,0,0-.49,3.7,14.433,14.433,0,0,0,4.008,10.1,13.119,13.119,0,0,0,8.443,4.2l2.792.007V90.6a1.27,1.27,0,0,0-1.27-1.27,11.2,11.2,0,0,1-8.137-3.431,11.909,11.909,0,0,1-3.3-8.335,11.705,11.705,0,0,1,1.8-6.256,1.264,1.264,0,0,0,.738.238h2.541a1.27,1.27,0,0,0,1.179-.8l1.731-4.326a11.778,11.778,0,0,1,1.9-.473l5.313-.857a1.27,1.27,0,0,0,.5-2.311l-1.081-.721a5.36,5.36,0,0,1-2.267-3.506,5.279,5.279,0,0,1,2.189-5.182q.043-.03.084-.064l2.53-2.087h5.063l1.124,11.237c0,.007,0,.013,0,.02l.71,7.1-7.451,4.258-4.414-3.31a1.269,1.269,0,0,0-1.33-.12l-2.541,1.27a1.27,1.27,0,0,0-.489,1.841l1.708,2.562-4.4,1.978a1.27,1.27,0,0,0-.548,1.845l3.228,5.029a1.27,1.27,0,0,0,1.069.584c.116,0,9.241-2.59,9.241-2.59.048-.014,13.037-5.423,13.037-5.423a5.107,5.107,0,0,0,.587-.293V91.873h2.541V53.683A10.175,10.175,0,0,0,151,43.6V43.27A10.517,10.517,0,0,0,146.6,34.729ZM117.3,63.443a14.311,14.311,0,0,0-1.939.454l-1.1-.442-2.221,5.553h-.41V65.2h-2.541v2.654a14.176,14.176,0,0,0-2.436,3.6.339.339,0,0,1-.1-.245v-4.3l4.421-5.527s7.528,0,7.529,0a7.771,7.771,0,0,0,1.2,1.667Zm8.325-25.3-.882-2.7a1.27,1.27,0,0,0-.5-.664l-2.04-1.353.712-3.157a1.27,1.27,0,0,0-.043-.706l-.621-1.745a7.822,7.822,0,0,1-.265-3.753,13.811,13.811,0,0,0,7.427,5.291v8.1ZM127,44.873h1.676l-4.354,3.592v-.913A2.682,2.682,0,0,1,127,44.873Zm3.317,1.939c.049.114.1.226.153.337A6.058,6.058,0,0,0,130,48.684h-1.948ZM138,75.164l-12.83,5.346-7.912,2.261-1.921-2.994,4.424-1.988a1.27,1.27,0,0,0,.536-1.863l-1.742-2.614.551-.276,4.453,3.34a1.27,1.27,0,0,0,1.392.087l8.892-5.081a1.27,1.27,0,0,0,.634-1.229l-.791-7.905c0-.007,0-.013,0-.02l-1.212-12.109a11.411,11.411,0,0,0,7.091,3.575V72.819A2.533,2.533,0,0,1,138,75.164ZM148.459,43.6a7.63,7.63,0,0,1-7.622,7.622,8.9,8.9,0,0,1-8.892-8.892V28.36a1.27,1.27,0,0,0-1.021-1.246,11.318,11.318,0,0,1-7.791-6.024c.621-.984,2.488-3.177,6.725-2.942l.059,0a9.729,9.729,0,0,1,9.65,9.729,9.628,9.628,0,0,0,4.024,7.819l1.537,1.1a7.971,7.971,0,0,1,3.331,6.473Z" transform="translate(0 0)"/>
  </g>
</svg>
