<svg xmlns="http://www.w3.org/2000/svg" width="62" height="62" viewBox="0 0 62 62">
  <g id="enfermedadhepatica" transform="translate(-1 -1)">
    <path id="Path_1706" data-name="Path 1706" d="M32,25.98v1.17a6.013,6.013,0,0,1-4.74,5.87L26,33.28a24.1,24.1,0,0,0-13.29,7.97L8.02,46.79A3.413,3.413,0,0,1,2,44.58V26A24,24,0,0,1,26,2a6,6,0,0,1,6,6Z" fill="#ecc19c"/>
    <path id="Path_1707" data-name="Path 1707" d="M57.33,2a4.665,4.665,0,0,1,2.8,8.4l-3.48,2.61a24,24,0,0,0-4.66,4.62L42.81,29.64A6.17,6.17,0,0,1,40,31.67V28H36v3.65a6.026,6.026,0,0,1-4-5.67V8a6,6,0,0,1,6-6Z" fill="#ecc19c"/>
    <path id="Path_1708" data-name="Path 1708" d="M32,44v8H30a2.006,2.006,0,0,1-2-2V46a2.006,2.006,0,0,1,2-2Z" fill="#b4dd7f"/>
    <path id="Path_1709" data-name="Path 1709" d="M44,40V56a6.009,6.009,0,0,1-6,6,6,6,0,0,1-6-6h6V40Z" fill="#fcd770"/>
    <path id="Path_1710" data-name="Path 1710" d="M38,40V56H32V40Z" fill="#e6e9ed"/>
    <path id="Path_1711" data-name="Path 1711" d="M44,36v4H32V36H44Z" fill="#ffeaa7"/>
    <path id="Path_1712" data-name="Path 1712" d="M40,31.67V36H36V28h4Z" fill="#e6e9ed"/>
    <path id="Path_1713" data-name="Path 1713" d="M27,27.149a1.007,1.007,0,0,1-.791.979l-1.253.269a29.182,29.182,0,0,0-12.174,5.826l1.257,1.555a27.208,27.208,0,0,1,11.336-5.426l1.253-.269A3.016,3.016,0,0,0,29,27.149V24H27Z"/>
    <path id="Path_1714" data-name="Path 1714" d="M26,5A21.024,21.024,0,0,0,5,26v3H7V26A19.021,19.021,0,0,1,26,7Z"/>
    <path id="Path_1715" data-name="Path 1715" d="M5,31H7v2H5Z"/>
    <path id="Path_1716" data-name="Path 1716" d="M5,35H7v2H5Z"/>
    <path id="Path_1717" data-name="Path 1717" d="M5,39H7v2H5Z"/>
    <path id="Path_1718" data-name="Path 1718" d="M35,8v9h2V8a1,1,0,0,1,1-1h5V5H38A3,3,0,0,0,35,8Z"/>
    <path id="Path_1719" data-name="Path 1719" d="M35,19h2v2H35Z"/>
    <path id="Path_1720" data-name="Path 1720" d="M57.333,1H38a7,7,0,0,0-6,3.413A7,7,0,0,0,26,1,25.028,25.028,0,0,0,1,26V44.584a4.417,4.417,0,0,0,7.788,2.853L13.476,41.9a23.123,23.123,0,0,1,12.739-7.632l1.252-.269a7.007,7.007,0,0,0,4.859-3.922A7.015,7.015,0,0,0,35,32.3V35H31v8H30a3,3,0,0,0-3,3v4a3,3,0,0,0,3,3h1v3a7,7,0,1,0,14,0V35H41V32.321a6.984,6.984,0,0,0,2.6-2.078l9.179-12a23.011,23.011,0,0,1,4.47-4.429L60.734,11.2A5.667,5.667,0,0,0,57.333,1ZM31,27.149a5.027,5.027,0,0,1-3.952,4.89l-1.252.269a25.121,25.121,0,0,0-13.847,8.3L7.26,46.145A2.416,2.416,0,0,1,3,44.584V26A23.026,23.026,0,0,1,26,3a5.006,5.006,0,0,1,5,5V27.149ZM33,41h4V55H33ZM30,51a1,1,0,0,1-1-1V46a1,1,0,0,1,1-1h1v6Zm8,10a5.009,5.009,0,0,1-4.9-4H39V41h4V56A5.006,5.006,0,0,1,38,61Zm5-22H33V37H43Zm-6-4V29h2v6ZM59.533,9.6l-3.482,2.611a25,25,0,0,0-4.859,4.813l-9.179,12A5.015,5.015,0,0,1,41,30.02V27H35v2.986a5.034,5.034,0,0,1-2-4.009V8a5.006,5.006,0,0,1,5-5H57.332a3.667,3.667,0,0,1,2.2,6.6Z"/>
    <path id="Path_1721" data-name="Path 1721" d="M27,20h2v2H27Z"/>
  </g>
</svg>
