<svg xmlns="http://www.w3.org/2000/svg" width="57" height="57" viewBox="0 0 57 57">
  <g id="enfermedad_cronica" transform="translate(-1 -1)">
    <path id="Path_1318" data-name="Path 1318" d="M55.258,2H27.677A3.676,3.676,0,0,0,24,5.677v23.9H55.258A3.676,3.676,0,0,0,58.935,25.9V5.677A3.676,3.676,0,0,0,55.258,2Z" transform="translate(-1.855 -0.081)" fill="#ccd1d9"/>
    <path id="Path_1319" data-name="Path 1319" d="M54.661,6H28.919A.922.922,0,0,0,28,6.919V26.226H54.661a.922.922,0,0,0,.919-.919V6.919A.922.922,0,0,0,54.661,6Z" transform="translate(-2.177 -0.403)" fill="#69d6f4"/>
    <path id="Path_1320" data-name="Path 1320" d="M35.742,21.575v.377a11.948,11.948,0,0,1-6.785,10.756c.193-.23.386-.46.561-.7a12.929,12.929,0,0,0,2.547-7.7v-.156a3.119,3.119,0,0,0-3.117-3.117,2.948,2.948,0,0,0-1.085.2L21.032,23.79,20.131,22a3.409,3.409,0,0,0-6.454,1.526v.781a12.9,12.9,0,0,0,3.107,8.4A11.917,11.917,0,0,1,10,21.952V20.186a6.595,6.595,0,0,1,5.516-6.509l1.425-1.14a11.588,11.588,0,0,1,5.93-2.464,12.115,12.115,0,0,1,1.3-.074,11.311,11.311,0,0,1,2.381.248,11.546,11.546,0,0,1,8.945,8.945,11.311,11.311,0,0,1,.248,2.381Z" transform="translate(-0.726 -0.726)" fill="#fcd770"/>
    <path id="Path_1321" data-name="Path 1321" d="M28.652,41.75l-.4-.156A3.678,3.678,0,0,1,25.9,38.164v-.818l-.129-.193-3.549,1.692a12.853,12.853,0,0,1-3.677-1.774v1.094A3.678,3.678,0,0,1,16.2,41.593L9.033,44.379A11.047,11.047,0,0,0,2,54.666V59.99H38.774V45.28Z" transform="translate(-0.081 -2.909)" fill="#f0d0b4"/>
    <path id="Path_1322" data-name="Path 1322" d="M29.28,33.6a12.667,12.667,0,0,1-2.537,2.262l-3.549,1.692a12.853,12.853,0,0,1-3.677-1.774A12.662,12.662,0,0,1,17.107,33.6,12.9,12.9,0,0,1,14,25.192v-.781a3.406,3.406,0,0,1,6.454-1.526l.9,1.793,6.831-2.556a2.948,2.948,0,0,1,1.085-.2,3.119,3.119,0,0,1,3.117,3.117v.156a12.929,12.929,0,0,1-2.547,7.7C29.666,33.135,29.473,33.365,29.28,33.6Z" transform="translate(-1.048 -1.613)" fill="#f0d0b4"/>
    <path id="Path_1323" data-name="Path 1323" d="M51,41.9a6.5,6.5,0,0,0-9.194,0l-.855.855L40.1,41.9a6.5,6.5,0,0,0-9.194,0,.6.6,0,0,0-.074.083A6.493,6.493,0,0,0,30.9,51.1l8.476,8.476a2.22,2.22,0,0,0,3.144,0l.726-.726L51,51.1A6.5,6.5,0,0,0,51,41.9Z" transform="translate(-2.258 -3.145)" fill="#ef7385"/>
    <path id="Path_1324" data-name="Path 1324" d="M0,0H2.154V1.839H0Z" transform="translate(41.107 49.075) rotate(-45)"/>
    <path id="Path_1325" data-name="Path 1325" d="M50.551,49.39A3.743,3.743,0,0,0,47.992,43l-.042,1.838a1.9,1.9,0,0,1,1.3,3.25L47.636,49.7l1.3,1.3Z" transform="translate(-3.761 -3.387)"/>
    <path id="Path_1326" data-name="Path 1326" d="M41,46h1.839v8.274H41Z" transform="translate(-3.226 -3.629)"/>
    <ellipse id="Ellipse_94" data-name="Ellipse 94" cx="0.5" cy="1.5" rx="0.5" ry="1.5" transform="translate(38 52)"/>
    <path id="Path_1327" data-name="Path 1327" d="M53.4,1H25.823a4.6,4.6,0,0,0-4.6,4.6V8.56a12.529,12.529,0,0,0-5.582,2.532l-1.247,1a7.5,7.5,0,0,0-6.042,7.374v1.762a12.931,12.931,0,0,0,7.1,11.482,13.674,13.674,0,0,0,2.1,1.923v.627a2.74,2.74,0,0,1-1.759,2.571L8.62,40.617A11.877,11.877,0,0,0,1,51.757V58H38.694a3.116,3.116,0,0,0,2.219-.919L49.391,48.6A7.42,7.42,0,1,0,38.9,38.109l-.2.2-.2-.2a7.4,7.4,0,0,0-10.115-.34,2.733,2.733,0,0,1-1.633-2.51v-.627a13.674,13.674,0,0,0,2.1-1.923,12.829,12.829,0,0,0,3.2-2.288H53.4a4.6,4.6,0,0,0,4.6-4.6V5.6A4.6,4.6,0,0,0,53.4,1ZM33.243,37.774a5.544,5.544,0,0,1,3.947,1.635l1.5,1.5,1.5-1.5A5.582,5.582,0,0,1,48.091,47.3l-8.478,8.478a1.347,1.347,0,0,1-1.839,0L29.3,47.3a5.582,5.582,0,0,1,3.947-9.528Zm-6.13,1.408A7.411,7.411,0,0,0,28,48.6l7.559,7.559H10.194V46.968H8.355v9.194H2.839v-4.4a10.049,10.049,0,0,1,6.447-9.425l7.17-2.788a4.556,4.556,0,0,0,2.892-3.775,13.994,13.994,0,0,0,2.532,1.048l.265.079.265-.079a13.994,13.994,0,0,0,2.532-1.048,4.545,4.545,0,0,0,2.171,3.414Zm-4.967-4.209a11.9,11.9,0,0,1-8.274-11.394V22.8a2.49,2.49,0,0,1,4.716-1.113l1.267,2.533,7.6-2.851a2.195,2.195,0,0,1,2.963,2.055v.159A11.906,11.906,0,0,1,22.145,34.973Zm6.081-15.586a4.031,4.031,0,0,0-1.416.257l-6.052,2.269-.526-1.053a4.328,4.328,0,0,0-8.2,1.936v.783a13.928,13.928,0,0,0,.882,4.868,11.043,11.043,0,0,1-2.72-7.222V19.463a5.664,5.664,0,0,1,4.748-5.6l.236-.04,1.614-1.292a10.65,10.65,0,0,1,17.3,8.316v.382a11.039,11.039,0,0,1-2.72,7.221,13.9,13.9,0,0,0,.882-4.867V23.42A4.038,4.038,0,0,0,28.226,19.387Zm7.617,0H40.33l1.41-5.64,4.4,8.8,2.368-5.92h3.974V24.9h-17.1a12.723,12.723,0,0,0,.548-3.677v-.382a12.5,12.5,0,0,0-.093-1.457Zm16.641-4.6H47.265l-1.309,3.274L41.163,8.479l-2.268,9.069H35.479a12.515,12.515,0,0,0-8.738-8.738V6.516H52.484Zm3.677,11.032A2.761,2.761,0,0,1,53.4,28.581H33.6a13.027,13.027,0,0,0,1.074-1.839H52.484A1.841,1.841,0,0,0,54.323,24.9V6.516a1.841,1.841,0,0,0-1.839-1.839H26.742A1.841,1.841,0,0,0,24.9,6.516V8.448a12.5,12.5,0,0,0-1.457-.093c-.128,0-.255.012-.382.017V5.6a2.761,2.761,0,0,1,2.758-2.758H53.4A2.761,2.761,0,0,1,56.161,5.6Z"/>
  </g>
</svg>
