<svg xmlns="http://www.w3.org/2000/svg" width="73.202" height="63.711" viewBox="0 0 73.202 63.711">
  <g id="enfermedadrenal" transform="translate(0 -33.158)">
    <g id="Group_473" data-name="Group 473" transform="translate(1.083 34.224)">
      <path id="Path_1722" data-name="Path 1722" d="M31.3,65.185a19.285,19.285,0,0,0,.959,3.42,8.928,8.928,0,0,1,.585,3.177v3.181A8.9,8.9,0,0,1,23.693,83.9q-.151-.005-.306-.014C15.973,83.449,10.3,76.82,8.645,72.022c-1.323-3.829-2.791-19.157,4.62-27.143A13.291,13.291,0,0,1,28.05,41.6a13.158,13.158,0,0,1,1.866.951,7.73,7.73,0,0,1,2.692,2.832h0a7.817,7.817,0,0,1,.986,3.8v3.458A7.815,7.815,0,0,1,33.1,55.36L30.987,61v2.474Z" transform="translate(-7.565 -40.609)" fill="#f07281"/>
      <path id="Path_1723" data-name="Path 1723" d="M14.178,72.034c-1.323-3.829-2.791-19.157,4.62-27.143a13.355,13.355,0,0,1,7-3.974,13.327,13.327,0,0,0-12.536,3.974c-7.41,7.986-5.942,23.315-4.62,27.143,1.657,4.8,7.328,11.427,14.742,11.864q.155.009.306.014a8.7,8.7,0,0,0,2.847-.373C20.306,82.025,15.653,76.3,14.178,72.034Z" transform="translate(-7.565 -40.621)" fill="#eb5569"/>
      <g id="Group_471" data-name="Group 471" transform="translate(18.548 18.73)">
        <path id="Path_1724" data-name="Path 1724" d="M151.953,210.053V180.613a9.125,9.125,0,0,0-9.125-9.125h-3.537a2.1,2.1,0,0,0-2.122,1.966,2.066,2.066,0,0,0,2.064,2.166h3.6a4.993,4.993,0,0,1,4.993,4.993v29.441a.751.751,0,0,0,.751.751H151.2A.751.751,0,0,0,151.953,210.053Z" transform="translate(-137.168 -171.488)" fill="#62dbfb"/>
      </g>
      <path id="Path_1725" data-name="Path 1725" d="M324.414,65.106a20.933,20.933,0,0,1-1,3.607,8.928,8.928,0,0,0-.545,3.07v3.181a8.9,8.9,0,0,0,9.149,8.936q.151-.005.306-.014c7.415-.436,13.085-7.066,14.742-11.864,1.323-3.829,2.791-19.157-4.62-27.143A13.29,13.29,0,0,0,327.666,41.6a13.157,13.157,0,0,0-1.866.951,7.729,7.729,0,0,0-2.692,2.832h0a7.818,7.818,0,0,0-.986,3.8v3.458a7.814,7.814,0,0,0,.489,2.717l2.18,5.282v2.295Z" transform="translate(-277.106 -40.609)" fill="#f07281"/>
      <path id="Path_1726" data-name="Path 1726" d="M327.21,74.975V71.794c0-1.052,1.917-8.845,1.917-8.845V60.654l-2.18-5.282a7.815,7.815,0,0,1-.489-2.717V49.2a7.816,7.816,0,0,1,.986-3.8h0a7.729,7.729,0,0,1,2.692-2.832,13.137,13.137,0,0,1,4.709-1.764,13.134,13.134,0,0,0-9.047,1.763,7.73,7.73,0,0,0-2.692,2.832h0a7.818,7.818,0,0,0-.986,3.8v3.458a7.815,7.815,0,0,0,.489,2.717l2.18,5.282v2.295l-.377,2.169c-.214,1.232-1.541,5.625-1.541,6.677v3.181a8.9,8.9,0,0,0,9.149,8.936q.151-.005.306-.014a13.31,13.31,0,0,0,1.712-.213A8.947,8.947,0,0,1,327.21,74.975Z" transform="translate(-277.105 -40.619)" fill="#eb5569"/>
      <g id="Group_472" data-name="Group 472" transform="translate(37.711 18.73)">
        <path id="Path_1727" data-name="Path 1727" d="M275.206,213.578V180.613a4.993,4.993,0,0,1,4.993-4.993h3.537a2.1,2.1,0,0,0,2.122-1.966,2.066,2.066,0,0,0-2.064-2.166h-3.6a9.125,9.125,0,0,0-9.125,9.125v32.966a.751.751,0,0,0,.751.751h2.629A.752.752,0,0,0,275.206,213.578Z" transform="translate(-271.074 -171.488)" fill="#fae2c0"/>
      </g>
    </g>
    <g id="Group_474" data-name="Group 474" transform="translate(0 33.158)">
      <path id="Path_1728" data-name="Path 1728" d="M32.066,40.795a1.073,1.073,0,0,0,1.5-.231,15.028,15.028,0,0,1,1.274-1.52,12.235,12.235,0,0,1,13.488-2.8,12.08,12.08,0,0,1,1.738.9,6.582,6.582,0,0,1,2.224,2.385,6.76,6.76,0,0,1,.849,3.275V46.26a6.721,6.721,0,0,1-.422,2.344,1.073,1.073,0,1,0,2.013.746,8.859,8.859,0,0,0,.555-3.09V42.8a8.916,8.916,0,0,0-1.121-4.322,8.727,8.727,0,0,0-2.955-3.155,14.289,14.289,0,0,0-17.917,2.231,17.182,17.182,0,0,0-1.456,1.738,1.073,1.073,0,0,0,.231,1.5Z" transform="translate(-27.102 -33.158)"/>
      <path id="Path_1729" data-name="Path 1729" d="M24.7,118.216a1.073,1.073,0,0,0-.413,1.461,7.881,7.881,0,0,1,1,3.839V126.7a7.85,7.85,0,0,1-2.418,5.7,7.651,7.651,0,0,1-5.619,2.168c-.093,0-.187-.008-.281-.013-7-.412-12.278-6.764-13.791-11.142-1.011-2.926-2.108-13.1,1.175-20.934a1.073,1.073,0,1,0-1.98-.83c-3.439,8.2-2.475,18.845-1.224,22.465a20.558,20.558,0,0,0,5.506,8.012,16.876,16.876,0,0,0,10.188,4.572c.111.006.221.012.33.015s.237.006.355.006a9.77,9.77,0,0,0,6.831-2.775,10.113,10.113,0,0,0,3.074-7.24v-3.181a10.033,10.033,0,0,0-1.276-4.888,1.073,1.073,0,0,0-1.461-.412Z" transform="translate(0 -91.276)"/>
      <path id="Path_1730" data-name="Path 1730" d="M234.059,294.608a1.073,1.073,0,0,0-1.073,1.073V316.3a1.073,1.073,0,1,0,2.147,0V295.681A1.073,1.073,0,0,0,234.059,294.608Z" transform="translate(-199.643 -257.192)"/>
      <path id="Path_1731" data-name="Path 1731" d="M136.4,163.987h-3.6a3.139,3.139,0,1,0,0,6.279h3.6a3.924,3.924,0,0,1,3.92,3.92v30.192a1.073,1.073,0,1,0,2.147,0V174.185a6.073,6.073,0,0,0-6.066-6.066h-3.6a.993.993,0,0,1,0-1.986h3.6a8.061,8.061,0,0,1,8.052,8.052v4.994a1.073,1.073,0,0,0,2.147,0v-4.994A10.21,10.21,0,0,0,136.4,163.987Z" transform="translate(-111.109 -145.264)"/>
      <path id="Path_1732" data-name="Path 1732" d="M104.582,148.559a1.073,1.073,0,1,0-1.461-1.573,7.258,7.258,0,0,0,0,10.653,1.073,1.073,0,1,0,1.461-1.573,5.112,5.112,0,0,1,0-7.507Z" transform="translate(-86.369 -130.45)"/>
      <path id="Path_1733" data-name="Path 1733" d="M342.667,53.412c-.367-4.74-1.715-11.339-6.054-15.855a14.393,14.393,0,0,0-15.87-3.3,14.237,14.237,0,0,0-2.048,1.064,8.732,8.732,0,0,0-2.957,3.159A8.912,8.912,0,0,0,314.62,42.8v3.458a8.863,8.863,0,0,0,.555,3.09,1.073,1.073,0,1,0,2.013-.746,6.721,6.721,0,0,1-.422-2.344V42.8a6.763,6.763,0,0,1,.851-3.279,6.574,6.574,0,0,1,2.221-2.38,12.083,12.083,0,0,1,1.738-.9,12.234,12.234,0,0,1,13.488,2.8c3.9,4.058,5.122,10.144,5.462,14.534a34.312,34.312,0,0,1-.9,11.709c-1.513,4.379-6.791,10.731-13.79,11.142-.094.005-.188.01-.281.013a7.647,7.647,0,0,1-5.62-2.168,7.85,7.85,0,0,1-2.418-5.7V65.4a7.882,7.882,0,0,1,1-3.839,1.073,1.073,0,0,0-1.873-1.048,10.032,10.032,0,0,0-1.276,4.888V68.58a10.114,10.114,0,0,0,3.074,7.24,9.768,9.768,0,0,0,6.83,2.775c.118,0,.237,0,.355-.006s.22-.009.332-.015A16.876,16.876,0,0,0,336.15,74a20.558,20.558,0,0,0,5.506-8.012,36.033,36.033,0,0,0,1.011-12.576Z" transform="translate(-269.595 -33.158)"/>
      <path id="Path_1734" data-name="Path 1734" d="M277.366,170.265a3.139,3.139,0,1,0,0-6.279h-3.6a10.21,10.21,0,0,0-10.2,10.2V207.9a1.073,1.073,0,1,0,2.147,0V174.184a8.061,8.061,0,0,1,8.052-8.052h3.6a.993.993,0,1,1,0,1.986h-3.6a6.073,6.073,0,0,0-6.066,6.066v21.133a1.073,1.073,0,1,0,2.147,0V174.184a3.924,3.924,0,0,1,3.92-3.92h3.6Z" transform="translate(-225.853 -145.263)"/>
      <path id="Path_1735" data-name="Path 1735" d="M293.52,407.38a1.073,1.073,0,0,0-1.073,1.073v8.01a1.073,1.073,0,0,0,2.147,0v-8.01A1.073,1.073,0,0,0,293.52,407.38Z" transform="translate(-250.595 -353.825)"/>
      <path id="Path_1736" data-name="Path 1736" d="M382.239,156.066a1.073,1.073,0,1,0,1.461,1.573,7.258,7.258,0,0,0,0-10.653,1.073,1.073,0,0,0-1.461,1.573,5.112,5.112,0,0,1,0,7.507Z" transform="translate(-327.243 -130.451)"/>
    </g>
  </g>
</svg>
