<svg xmlns="http://www.w3.org/2000/svg" width="62" height="62" viewBox="0 0 62 62">
  <g id="enfermedadcronica" transform="translate(-1 -1)">
    <g id="Group_494" data-name="Group 494">
      <g id="Group_475" data-name="Group 475">
        <path id="Path_1754" data-name="Path 1754" d="M20.12,48.99,16,62H5L18.5,48.5a1.928,1.928,0,0,0,1.62.48Z" fill="#dfb28b"/>
      </g>
      <g id="Group_476" data-name="Group 476">
        <path id="Path_1755" data-name="Path 1755" d="M24.28,35.85,22.02,43v.01a4.2,4.2,0,0,0-2.68,1.33,4.809,4.809,0,0,0-.71.88L2,55V48Z" fill="#dfb28b"/>
      </g>
      <g id="Group_477" data-name="Group 477">
        <path id="Path_1756" data-name="Path 1756" d="M58,21,32.24,40.82l1.04-5.2A4.243,4.243,0,0,0,35,32a5.015,5.015,0,0,0-.51-2.23L56.02,19.43a1.711,1.711,0,0,0,.48,1.07,1.9,1.9,0,0,0,1.5.49Z" fill="#dfb28b"/>
      </g>
      <g id="Group_478" data-name="Group 478">
        <path id="Path_1757" data-name="Path 1757" d="M46.42,11.16,51,2h7l-8.85,9.56a2.913,2.913,0,0,0-2.73-.39Z" fill="#dfb28b"/>
      </g>
      <g id="Group_479" data-name="Group 479">
        <path id="Path_1758" data-name="Path 1758" d="M40,2H51l-4.58,9.16v.01A4.762,4.762,0,0,0,44.4,12.4c-1.55,1.55-1.86,3.74-.7,4.9l.07.07L35.04,26.8Z" fill="#dfb28b"/>
      </g>
      <g id="Group_480" data-name="Group 480">
        <path id="Path_1759" data-name="Path 1759" d="M62,16.84V29L51.56,35.06l-.01.01a3.256,3.256,0,0,0-3.63-.88c-1.9.58-3.19,2.31-2.87,3.86a2.412,2.412,0,0,0,.24.65L31,47l1.24-6.18L58,21v-.01a4.257,4.257,0,0,0,2.66-1.33A4.173,4.173,0,0,0,62,16.84Z" fill="#f0d0b4"/>
      </g>
      <g id="Group_481" data-name="Group 481">
        <path id="Path_1760" data-name="Path 1760" d="M18.63,45.22c-.77,1.21-.86,2.55-.13,3.28L5,62H2V55Z" fill="#f0d0b4"/>
      </g>
      <g id="Group_482" data-name="Group 482">
        <path id="Path_1761" data-name="Path 1761" d="M26.89,27.6l-2.61,8.25L2,48V41l7.47-4.02.01-.01a3.282,3.282,0,0,0,3.6.84c1.9-.58,3.19-2.31,2.87-3.86a2.643,2.643,0,0,0-.12-.4l5.07-2.72v-.01l2.61-1.4Z" fill="#f0d0b4"/>
      </g>
      <g id="Group_483" data-name="Group 483">
        <path id="Path_1762" data-name="Path 1762" d="M62,7v9.84a1.842,1.842,0,0,0-.5-1.34c-.92-.91-2.79-.54-4.16.84a3.979,3.979,0,0,0-1.32,3.09L34.49,29.77l-.03-.06.58-2.91,8.73-9.43c1.18,1.08,3.31.75,4.83-.77,1.55-1.55,1.86-3.74.7-4.9a1.919,1.919,0,0,0-.15-.14L58,2h4Z" fill="#f0d0b4"/>
      </g>
      <g id="Group_484" data-name="Group 484">
        <path id="Path_1763" data-name="Path 1763" d="M35,2,26.89,27.6l-3.38,1.82L24.36,20c1.27.03,2.63-1.1,3.28-2.84.79-2.11.24-4.35-1.22-4.99a2.026,2.026,0,0,0-1.33-.11L26,2Z" fill="#f0d0b4"/>
      </g>
      <g id="Group_485" data-name="Group 485">
        <path id="Path_1764" data-name="Path 1764" d="M22.95,47.35,21,62H16l4.12-13.01v-.01a4.284,4.284,0,0,0,2.54-1.32C22.76,47.56,22.86,47.46,22.95,47.35Z" fill="#f0d0b4"/>
      </g>
      <g id="Group_486" data-name="Group 486">
        <path id="Path_1765" data-name="Path 1765" d="M35.04,26.8l-.58,2.91A2.877,2.877,0,0,0,32,28c-1.66,0-3,1.79-3,4s1.34,4,3,4a2.424,2.424,0,0,0,1.28-.38l-1.04,5.2L31,47,28,62H21l1.95-14.65c1.14-1.33,1.39-3,.55-3.85a1.851,1.851,0,0,0-1.48-.49V43l2.26-7.15,2.61-8.25L35,2h5Z" fill="#ecc19c"/>
      </g>
      <g id="Group_487" data-name="Group 487">
        <path id="Path_1766" data-name="Path 1766" d="M58,20.99a1.9,1.9,0,0,1-1.5-.49,1.711,1.711,0,0,1-.48-1.07,3.979,3.979,0,0,1,1.32-3.09c1.37-1.38,3.24-1.75,4.16-.84a1.842,1.842,0,0,1,.5,1.34,4.173,4.173,0,0,1-1.34,2.82A4.257,4.257,0,0,1,58,20.99Z" fill="#ef7385"/>
      </g>
      <g id="Group_488" data-name="Group 488">
        <path id="Path_1767" data-name="Path 1767" d="M49.3,11.7c1.16,1.16.85,3.35-.7,4.9-1.52,1.52-3.65,1.85-4.83.77l-.07-.07c-1.16-1.16-.85-3.35.7-4.9a4.762,4.762,0,0,1,2.02-1.23,2.913,2.913,0,0,1,2.73.39,1.92,1.92,0,0,1,.15.14Z" fill="#ef7385"/>
      </g>
      <g id="Group_489" data-name="Group 489">
        <path id="Path_1768" data-name="Path 1768" d="M26.42,12.17c1.46.64,2.01,2.88,1.22,4.99-.65,1.74-2.01,2.87-3.28,2.84a1.922,1.922,0,0,1-.78-.17c-1.46-.64-2.01-2.88-1.22-4.99a4.214,4.214,0,0,1,2.73-2.78,2.026,2.026,0,0,1,1.33.11Z" fill="#ef7385"/>
      </g>
      <g id="Group_490" data-name="Group 490">
        <path id="Path_1769" data-name="Path 1769" d="M15.83,33.55a2.643,2.643,0,0,1,.12.4c.32,1.55-.97,3.28-2.87,3.86a3.282,3.282,0,0,1-3.6-.84,2.115,2.115,0,0,1-.43-.92c-.32-1.55.97-3.28,2.87-3.86,1.74-.53,3.38.08,3.91,1.36Z" fill="#ef7385"/>
      </g>
      <g id="Group_491" data-name="Group 491">
        <path id="Path_1770" data-name="Path 1770" d="M20.12,48.98a1.928,1.928,0,0,1-1.62-.48c-.73-.73-.64-2.07.13-3.28a4.809,4.809,0,0,1,.71-.88,4.2,4.2,0,0,1,2.68-1.33,1.851,1.851,0,0,1,1.48.49c.84.85.59,2.52-.55,3.85-.09.11-.19.21-.29.31a4.284,4.284,0,0,1-2.54,1.32Z" fill="#ef7385"/>
      </g>
      <g id="Group_492" data-name="Group 492">
        <path id="Path_1771" data-name="Path 1771" d="M34.46,29.71l.03.06A5.015,5.015,0,0,1,35,32a4.243,4.243,0,0,1-1.72,3.62A2.424,2.424,0,0,1,32,36c-1.66,0-3-1.79-3-4s1.34-4,3-4a2.877,2.877,0,0,1,2.46,1.71Z" fill="#ef7385"/>
      </g>
      <g id="Group_493" data-name="Group 493">
        <path id="Path_1772" data-name="Path 1772" d="M51.55,35.07a2.214,2.214,0,0,1,.4.88c.32,1.55-.97,3.28-2.87,3.86a4.017,4.017,0,0,1-.88.17,2.931,2.931,0,0,1-2.91-1.28,2.413,2.413,0,0,1-.24-.65c-.32-1.55.97-3.28,2.87-3.86A3.256,3.256,0,0,1,51.55,35.07Z" fill="#ef7385"/>
      </g>
    </g>
    <g id="Group_495" data-name="Group 495">
      <path id="Path_1773" data-name="Path 1773" d="M41.438,6h4.123V8H41.438Z" transform="translate(26.154 47.501) rotate(-75.936)"/>
      <path id="Path_1774" data-name="Path 1774" d="M51.1,27.5h7.81v2H51.1Z" transform="matrix(0.768, -0.64, 0.64, 0.768, -5.497, 41.82)"/>
      <path id="Path_1775" data-name="Path 1775" d="M25.087,1l-.94,10.335a5.5,5.5,0,0,0-2.724,3.155c-.983,2.641-.215,5.387,1.75,6.252.037.016.078.022.115.037l-.729,8.015-1.3.7L12.566,15H1v2H11.434L19.5,30.442l-3.345,1.8a3.42,3.42,0,0,0-.8-.673,4.656,4.656,0,0,0-3.725-.335c-2.424.739-3.99,2.944-3.564,5.019.021.1.063.195.093.293L1,40.4V63H28.82l3.072-15.362,13.166-7.644a3.5,3.5,0,0,0,.584.436,4.158,4.158,0,0,0,1.733.543L50.18,55H63V53H51.82L49.372,40.763c2.421-.741,3.984-2.943,3.559-5.016-.019-.1-.059-.182-.087-.274L63,29.576V1ZM61,6.551l-8.665,7.7,1.329,1.495L61,9.227v4.882a4.721,4.721,0,0,0-4.371,1.519,5.3,5.3,0,0,0-1.6,3.168L35.816,28.02l.15-.751,7.981-8.62a3.755,3.755,0,0,0,1.565.341,5.487,5.487,0,0,0,3.8-1.683c1.7-1.7,2.146-4.1,1.169-5.709L58.437,3H61ZM44.407,16.593c-.755-.755-.435-2.351.7-3.486A3.548,3.548,0,0,1,47.484,12a1.524,1.524,0,0,1,1.108.41c.755.755.434,2.351-.7,3.486S45.162,17.347,44.407,16.593Zm4.535-6.282a3.605,3.605,0,0,0-.86-.24L51.618,3h4.093Zm-3.255.078a5.875,5.875,0,0,0-1.994,1.3A4.847,4.847,0,0,0,42.469,17.3l-5.752,6.212L40.82,3h8.562ZM34,32c0,1.626-.916,3-2,3s-2-1.374-2-3,.916-3,2-3S34,30.374,34,32Zm.184,4.179A5.394,5.394,0,0,0,36,32a6.057,6.057,0,0,0-.26-1.726L55.486,20.8a2.573,2.573,0,0,0,.312.407c.045.045.1.077.146.118L33.74,38.4Zm23.027-16.39c-.452-.452-.192-1.722.832-2.746A3.246,3.246,0,0,1,60.155,16a.88.88,0,0,1,.634.213c.452.452.192,1.722-.832,2.746S57.662,20.241,57.211,19.789ZM23.3,15.188a3.531,3.531,0,0,1,1.735-2.063A1.43,1.43,0,0,1,25.594,13a1.059,1.059,0,0,1,.428.089c.84.37,1.326,1.99.681,3.724a3.531,3.531,0,0,1-1.735,2.063,1.213,1.213,0,0,1-.989.035C23.138,18.542,22.652,16.921,23.3,15.188Zm1.993,5.673a3.55,3.55,0,0,0,.457-.144,5.463,5.463,0,0,0,2.83-3.208c.983-2.641.215-5.387-1.75-6.252a3.013,3.013,0,0,0-.646-.2L26.913,3h6.722L26.064,26.907l-1.392.75ZM12.217,33.148A3.271,3.271,0,0,1,13.174,33a2.28,2.28,0,0,1,1.163.288,1.273,1.273,0,0,1,.636.858c.213,1.039-.79,2.277-2.188,2.7a2.7,2.7,0,0,1-2.12-.141,1.273,1.273,0,0,1-.636-.858C9.815,34.813,10.817,33.575,12.217,33.148Zm-2.9,5.045a3.566,3.566,0,0,0,.32.236,4.261,4.261,0,0,0,2.184.57,5.314,5.314,0,0,0,1.542-.235,4.718,4.718,0,0,0,3.594-4.685L25.2,29.644,23.451,35.16,3,46.315V41.6Zm9.328,11.572c.052.022.1.042.157.061L15.268,61H7.414Zm2.25.076a4.7,4.7,0,0,0,.748-.257L20.124,61H17.365Zm1.058-2.884c-1.023,1.024-2.3,1.284-2.746.832s-.192-1.722.832-2.746A3.246,3.246,0,0,1,22.155,44a.88.88,0,0,1,.634.213c.452.452.192,1.722-.832,2.746Zm-.712-4.832a5.531,5.531,0,0,0-2.616,1.5,6.209,6.209,0,0,0-.692.836L3,53.252V48.594L22.578,37.915ZM3,55.572l14-8.237a3,3,0,0,0,.242,1.006L4.586,61H3ZM27.18,61H25.23l4.749-22.8L28.021,37.8,23.187,61H22.142l1.767-13.251c1.312-1.706,1.476-3.77.294-4.953a2.6,2.6,0,0,0-.9-.565L35.732,3H38.78L33.86,27.6A3.354,3.354,0,0,0,32,27c-2.206,0-4,2.243-4,5s1.784,4.984,3.981,5Zm21.6-22.148a2.7,2.7,0,0,1-2.12-.141,1.273,1.273,0,0,1-.636-.858c-.213-1.039.79-2.277,2.189-2.7A3.271,3.271,0,0,1,49.174,35a2.28,2.28,0,0,1,1.163.288,1.273,1.273,0,0,1,.636.858C51.185,37.187,50.183,38.425,48.784,38.852ZM51.7,33.823a3.488,3.488,0,0,0-.343-.253,4.661,4.661,0,0,0-3.725-.335c-2.424.739-3.99,2.944-3.564,5.019h0L32.416,45.022l.728-3.64L58.427,21.934A5.232,5.232,0,0,0,61,20.684v7.741Z"/>
      <path id="Path_1776" data-name="Path 1776" d="M1,11H13v2H1Z"/>
      <path id="Path_1777" data-name="Path 1777" d="M1,7H13V9H1Z"/>
      <path id="Path_1778" data-name="Path 1778" d="M15,7h2V9H15Z"/>
      <path id="Path_1779" data-name="Path 1779" d="M19,7h2V9H19Z"/>
      <path id="Path_1780" data-name="Path 1780" d="M61,49h2v2H61Z"/>
      <path id="Path_1781" data-name="Path 1781" d="M57,49h2v2H57Z"/>
      <path id="Path_1782" data-name="Path 1782" d="M53,49h2v2H53Z"/>
      <path id="Path_1783" data-name="Path 1783" d="M53,45H63v2H53Z"/>
      <path id="Path_1784" data-name="Path 1784" d="M53,41H63v2H53Z"/>
    </g>
  </g>
</svg>
