<svg xmlns="http://www.w3.org/2000/svg" width="62" height="62.31" viewBox="0 0 62 62.31">
  <g id="enfermedadcardiovascular" transform="translate(-1 -1)">
    <circle id="Ellipse_84" data-name="Ellipse 84" cx="9" cy="9" r="9" transform="translate(37 2)" fill="#69d6f4"/>
    <circle id="Ellipse_85" data-name="Ellipse 85" cx="3" cy="3" r="3" transform="translate(43 14)" fill="#e6e9ed"/>
    <path id="Path_1259" data-name="Path 1259" d="M62,47.07v.65a2.621,2.621,0,0,1-.01.28H56l-2-3-3,8-3-5-3,5-3-5H38a2.015,2.015,0,0,0,2-2V40.7a7.077,7.077,0,0,1,8.07,1.37L49,43l.93-.93a7.07,7.07,0,0,1,12.07,5Z" fill="#ff826e"/>
    <path id="Path_1260" data-name="Path 1260" d="M38,48h4l3,5,3-5,3,5,3-8,2,3h5.99a7.066,7.066,0,0,1-2.49,5.12L49,62,38.5,53.12a7.108,7.108,0,0,1-2.5-5.4v-.65c0-.23.01-.47.03-.7A2.015,2.015,0,0,0,38,48Z" fill="#ff826e"/>
    <path id="Path_1261" data-name="Path 1261" d="M21,62H2V48H14.77a1.025,1.025,0,0,1,.98.79l2.32,10.84A3.007,3.007,0,0,0,21,62Z" fill="#969faa"/>
    <path id="Path_1262" data-name="Path 1262" d="M23.93,58.37a2.987,2.987,0,0,1-2.3,3.56A2.7,2.7,0,0,1,21,62a3.007,3.007,0,0,1-2.93-2.37L15.75,48.79a1.025,1.025,0,0,0-.98-.79H9.7a5.7,5.7,0,0,1-4.65-2.25A5.542,5.542,0,0,1,4.02,42H14.8a7.043,7.043,0,0,1,6.81,5.53Z" fill="#cf9e76"/>
    <path id="Path_1263" data-name="Path 1263" d="M32,26v5a1,1,0,0,1-1,1H25a1,1,0,0,1-1-1V26a1,1,0,0,1,1-1h6A1,1,0,0,1,32,26Z" fill="#ccd1d9"/>
    <path id="Path_1264" data-name="Path 1264" d="M24,26v5H18.64a2,2,0,0,0-1.96,1.61L14.8,42H4.02c.02-.17.04-.34.07-.5l1.69-8.97A8,8,0,0,1,13.64,26H24Z" fill="#fcd770"/>
    <path id="Path_1265" data-name="Path 1265" d="M38,28.5v.01A2.49,2.49,0,0,1,35.51,31H32V26h3.5A2.5,2.5,0,0,1,38,28.5Z" fill="#fcd770"/>
    <circle id="Ellipse_86" data-name="Ellipse 86" cx="6" cy="6" r="6" transform="translate(9 14)" fill="#f0d0b4"/>
    <path id="Path_1266" data-name="Path 1266" d="M54.929,39a8.019,8.019,0,0,0-5.707,2.364L49,41.586l-.222-.222A8.011,8.011,0,0,0,41,39.279V35a1,1,0,0,1,1-1h2a3,3,0,0,0,3-3V20.949a10,10,0,1,0-2,0V31a1,1,0,0,1-1,1H42a3,3,0,0,0-3,3V46a1,1,0,0,1-2,0V38a3,3,0,0,0-6,0v5a1,1,0,0,1-2,0V33h2a1.992,1.992,0,0,0,1.722-1H35.51a3.5,3.5,0,0,0-.008-7H32.723A2,2,0,0,0,31,24H25a1.993,1.993,0,0,0-1.722,1H19.889a7,7,0,1,0-9.2.5,9,9,0,0,0-5.895,6.839L3.111,41.314A6.471,6.471,0,0,0,4.24,46.331,6.055,6.055,0,0,0,4.809,47H1V63H21a4,4,0,0,0,3.911-4.84L22.588,47.324A8.057,8.057,0,0,0,16,41.1l1.659-8.3a1,1,0,0,1,.979-.8h4.64A1.993,1.993,0,0,0,25,33h2V43a3,3,0,1,0,6,0V38a1,1,0,0,1,2,0v8a2.819,2.819,0,0,0,.035.345c-.021.239-.035.481-.035.726v.649a8.057,8.057,0,0,0,2.857,6.161L49,63.31l11.143-9.428A8.059,8.059,0,0,0,63,47.72v-.649A8.081,8.081,0,0,0,54.929,39ZM44,17a2,2,0,1,1,2,2A2,2,0,0,1,44,17Zm-5.931-5H40V10H38.069a7.953,7.953,0,0,1,1.619-3.9L41.05,7.464,42.464,6.05,41.1,4.688A7.953,7.953,0,0,1,45,3.069V5h2V3.069a7.953,7.953,0,0,1,3.9,1.619L49.536,6.05,50.95,7.464,52.312,6.1A7.953,7.953,0,0,1,53.931,10H52v2h1.931a8.013,8.013,0,0,1-4.074,6.005A3.923,3.923,0,0,0,47,13.142V7H45v6.142A4,4,0,0,0,42,17a3.928,3.928,0,0,0,.144,1A8.014,8.014,0,0,1,38.069,12ZM10,20a5,5,0,1,1,5,5A5.006,5.006,0,0,1,10,20ZM3,49H14.767l2.322,10.837A3.953,3.953,0,0,0,17.549,61H3Zm17.633-1.257L22.955,58.58a2,2,0,0,1-1.537,2.375,2.041,2.041,0,0,1-2.373-1.537L16.723,48.58A2.015,2.015,0,0,0,14.767,47H9.7a4.686,4.686,0,0,1-3.835-1.838A4.514,4.514,0,0,1,5.049,43H14.8a6.036,6.036,0,0,1,5.838,4.74ZM15.7,32.412,13.98,41H5.2L6.76,32.71A7,7,0,0,1,13.64,27H23v3H18.638A3.006,3.006,0,0,0,15.7,32.412Zm21.3-3.9A1.492,1.492,0,0,1,35.51,30H33V27h2.5A1.5,1.5,0,0,1,37,28.508ZM25,26h6v5H25ZM41,46V41.366a6.063,6.063,0,0,1,6.364,1.412L49,44.414l1.636-1.636A6.069,6.069,0,0,1,61,47H56.536L53.75,42.821l-2.958,7.888L48,46.056l-3,5L42.566,47H40.815A2.943,2.943,0,0,0,41,46Zm17.851,6.355L49,60.69l-9.851-8.335a6.049,6.049,0,0,1-2.036-3.5A2.961,2.961,0,0,0,38,49h3.434L45,54.944l3-5,3.208,5.348L54.25,47.18,55.465,49h5.4a6.062,6.062,0,0,1-2.012,3.355Z"/>
    <path id="Path_1267" data-name="Path 1267" d="M5,57H7v2H5Z"/>
    <path id="Path_1268" data-name="Path 1268" d="M5,53H7v2H5Z"/>
  </g>
</svg>
