<svg xmlns="http://www.w3.org/2000/svg" width="44.61" height="44.61" viewBox="0 0 44.61 44.61">
  <g id="enterprise-login" transform="translate(-10.343 -10.343)">
    <path id="Path_109" data-name="Path 109" d="M222.1,215.481a1.541,1.541,0,0,0,0,2.179,3.475,3.475,0,0,1-4.358,2.195,1.541,1.541,0,0,0,0,2.164,1.541,1.541,0,0,0-2.179,2.179L231.9,240.541l8.717-8.717-7.99-7.99v-5.811a1.453,1.453,0,0,0-1.453-1.453h0a1.453,1.453,0,0,0-1.453,1.453v2.906l-5.448-5.448A1.541,1.541,0,0,0,222.1,215.481Z" transform="translate(-186.179 -186.102)" fill="#fec093"/>
    <rect id="Rectangle_48" data-name="Rectangle 48" width="12.327" height="5.136" transform="translate(42.091 50.808) rotate(-45)" fill="#d75246"/>
    <rect id="Rectangle_49" data-name="Rectangle 49" width="12.327" height="4.109" transform="translate(39.186 47.902) rotate(-45)" fill="#e0e0de"/>
    <path id="Path_110" data-name="Path 110" d="M215.481,33.552a1.541,1.541,0,0,0,2.179,0h0a1.541,1.541,0,0,0,2.179,2.179,1.541,1.541,0,0,0,2.179,2.179,1.541,1.541,0,0,0,2.179,2.179l16.344-16.344-8.717-8.717-7.99,7.99h-5.811a1.453,1.453,0,0,0-1.453,1.453h0a1.453,1.453,0,0,0,1.453,1.453h2.906l-5.448,5.448A1.541,1.541,0,0,0,215.481,33.552Z" transform="translate(-186.102 -4.261)" fill="#fec9a3"/>
    <rect id="Rectangle_50" data-name="Rectangle 50" width="5.136" height="12.327" transform="translate(42.091 14.4) rotate(-45)" fill="#34507b"/>
    <rect id="Rectangle_51" data-name="Rectangle 51" width="4.109" height="12.327" transform="translate(39.186 17.306) rotate(-45)" fill="#e0e0de"/>
    <path id="Path_111" data-name="Path 111" d="M34.523,41.06a1.541,1.541,0,0,0,0-2.179A1.541,1.541,0,0,0,36.7,36.7a1.541,1.541,0,0,0,2.179-2.179,1.541,1.541,0,0,0,2.179-2.179L24.717,16,16,24.717l7.99,7.99v5.811a1.453,1.453,0,0,0,1.453,1.453h0A1.453,1.453,0,0,0,26.9,38.518V35.612l5.448,5.448A1.541,1.541,0,0,0,34.523,41.06Z" transform="translate(-5.143 -5.143)" fill="#fec9a3"/>
    <rect id="Rectangle_52" data-name="Rectangle 52" width="12.327" height="5.136" transform="translate(10.857 19.573) rotate(-45)" fill="#4db7e5"/>
    <rect id="Rectangle_53" data-name="Rectangle 53" width="12.327" height="4.109" transform="translate(14.489 23.205) rotate(-45)" fill="#e0e0de"/>
    <path id="Path_112" data-name="Path 112" d="M41.06,222.1a1.541,1.541,0,0,0-2.179,0,1.541,1.541,0,0,0-2.179-2.179,1.541,1.541,0,0,0-2.179-2.179,1.541,1.541,0,0,0-2.179-2.179L16,231.9l8.717,8.717,7.99-7.99h5.811a1.453,1.453,0,0,0,1.453-1.453h0a1.453,1.453,0,0,0-1.453-1.453H35.612l5.448-5.448A1.541,1.541,0,0,0,41.06,222.1Z" transform="translate(-5.143 -186.179)" fill="#fec9a3"/>
    <rect id="Rectangle_54" data-name="Rectangle 54" width="5.136" height="12.327" transform="translate(10.857 45.723) rotate(-45)" fill="#348fd9"/>
    <rect id="Rectangle_55" data-name="Rectangle 55" width="4.109" height="12.327" transform="translate(14.489 42.091) rotate(-45)" fill="#e0e0de"/>
    <path id="Path_113" data-name="Path 113" d="M48.629,50.445a1.09,1.09,0,1,1-1.09-1.09A1.09,1.09,0,0,1,48.629,50.445Zm6.325-30.358-9.674,9.674a2.176,2.176,0,0,1,1.9,2.161v5.51l7.777,7.777-1.027,1.027-3.118-3.118-7.689,7.689,3.118,3.118-1.027,1.027-8.717-8.717,1.027-1.027,1.666,1.666,7.689-7.689-.939-.939a.726.726,0,0,1-.213-.514V31.922a.726.726,0,0,0-1.453,0v2.906a.726.726,0,0,1-1.24.514l-1.666-1.666L38.61,36.431a2.252,2.252,0,0,1-1.517.662,2.251,2.251,0,0,1-.662,1.517l-4.208,4.208h1.152a2.179,2.179,0,1,1,0,4.358h-5.51l-7.777,7.777L19.06,53.926l3.118-3.118-7.689-7.689L11.37,46.237l-1.027-1.027,9.674-9.674a2.176,2.176,0,0,1-1.9-2.161v-5.51l-7.777-7.777L11.37,19.06l3.118,3.118,1.666-1.666,1.027,1.027-1.666,1.666,1.878,1.878,7.689-7.689-1.878-1.878L18.271,20.45l-1.027-1.027,4.934-4.934L19.06,11.37l1.027-1.027,9.674,9.674a2.176,2.176,0,0,1,2.161-1.9h5.51l7.777-7.777,1.027,1.027-3.118,3.118,7.689,7.689,3.118-3.118ZM40.213,47.9l1.878,1.878,7.689-7.689L47.9,40.213ZM20.3,34.1a.727.727,0,0,0,.726-.726V30.469a.726.726,0,0,1,1.24-.514l1.666,1.666,2.755-2.755a2.261,2.261,0,0,1,1.688-.661l.429-.429,3.269,3.269a.814.814,0,0,0,1.152-1.152h0l-3.269-3.269L30.983,25.6l3.269,3.269a.815.815,0,0,0,1.152,0h0a.815.815,0,0,0,0-1.152l-9.293-9.292-7.689,7.689.939.939a.726.726,0,0,1,.213.514v5.811a.724.724,0,0,0,.722.726Zm2.179-1.878v.851l.425-.425Zm2.6,15.68-7.689-7.689-1.878,1.878,7.689,7.689Zm10.558-10.9a.815.815,0,0,0-1.39-.576L30.983,39.7a.726.726,0,0,1-1.027-1.027L33.224,35.4a.814.814,0,0,0-1.152-1.152L28.8,37.52a.726.726,0,0,1-1.027-1.027l3.269-3.269a.814.814,0,1,0-1.152-1.152l-3.269,3.269A.726.726,0,0,1,25.6,34.314l3.269-3.269a.814.814,0,0,0-1.152-1.152l-9.293,9.293,7.689,7.689.939-.939a.726.726,0,0,1,.514-.213h5.811a.726.726,0,1,0,0-1.453H30.469a.726.726,0,0,1-.514-1.24L35.4,37.582A.809.809,0,0,0,35.642,37.006Zm7.176-4.784-.425.425.425.426Zm4.057-6.112-7.689-7.689-.939.939a.726.726,0,0,1-.514.213H31.922a.726.726,0,0,0,0,1.453h2.906a.726.726,0,0,1,.514,1.24l-.726.726-.514-.514H32.223l4.208,4.208a2.252,2.252,0,0,1,.664,1.6c0,.029,0,.058,0,.086l.427.427-3.269,3.269a.815.815,0,0,0,0,1.152h0a.816.816,0,0,0,1.152,0h0l3.269-3.269L39.7,30.982,36.43,34.251a.815.815,0,0,0,0,1.152h0a.816.816,0,0,0,1.152,0Zm2.906-2.906-7.689-7.689-1.878,1.878L47.9,25.083Zm-.425-5.448a1.09,1.09,0,1,0,1.09-1.09A1.09,1.09,0,0,0,49.355,17.757ZM16.668,14.852a1.09,1.09,0,1,0,1.09-1.09A1.09,1.09,0,0,0,16.668,14.852Zm-1.816,31.6a1.09,1.09,0,1,0,1.09,1.09A1.09,1.09,0,0,0,14.852,46.449ZM33.375,10.857H31.922v1.453h1.453Zm-1.453,5.811h1.453V13.762H31.922Zm-3.71.165,1.415-.33-1.356-5.811-1.415.33Zm8.872,0,1.356-5.811-1.415-.33L35.67,16.5ZM31.922,54.44h1.453V52.987H31.922Zm1.453-5.811H31.922v2.906h1.453Zm5.066,5.646-1.356-5.811-1.415.33L37.025,54.6ZM28.212,48.464l-1.356,5.811,1.415.33,1.356-5.811Zm-15.9-15.089V31.922H10.857v1.453Zm1.453,0h2.906V31.922H13.762Zm-2.74,5.066,5.811-1.356-.33-1.415-5.811,1.356Zm0-11.584-.33,1.415L16.5,29.627l.33-1.415Zm41.965,5.066v1.453H54.44V31.922Zm-1.453,0H48.629v1.453h2.906Zm2.74-5.066-5.811,1.356.33,1.415L54.6,28.271Zm0,11.584.33-1.415-5.811-1.356-.33,1.415Z" transform="translate(0 0)"/>
  </g>
</svg>
