<svg xmlns="http://www.w3.org/2000/svg" width="57.689" height="44.181" viewBox="0 0 57.689 44.181">
  <g id="fd11" transform="translate(0 -59.943)">
    <path id="Path_1462" data-name="Path 1462" d="M45.014,68.458H13.873A5.573,5.573,0,0,0,8.3,74.031v31.141a5.573,5.573,0,0,0,5.573,5.573H45.014a5.573,5.573,0,0,0,5.573-5.573V74.031A5.573,5.573,0,0,0,45.014,68.458Z" transform="translate(-7.365 -7.556)" fill="#b4bbcc"/>
    <path id="Path_1463" data-name="Path 1463" d="M86.9,118.536H60.857a2.478,2.478,0,0,0-2.478,2.478V147.06a2.478,2.478,0,0,0,2.478,2.478H86.9a2.478,2.478,0,0,0,2.478-2.478V121.014A2.478,2.478,0,0,0,86.9,118.536Z" transform="translate(-51.801 -51.991)" fill="#fff"/>
    <path id="Path_1464" data-name="Path 1464" d="M60.875,123.511a2.478,2.478,0,0,1,2.478-2.478H89.381v-.019a2.478,2.478,0,0,0-2.478-2.478H60.857a2.478,2.478,0,0,0-2.478,2.478v26.046a2.478,2.478,0,0,0,2.478,2.478h.019Z" transform="translate(-51.801 -51.992)" opacity="0.1"/>
    <path id="Path_1465" data-name="Path 1465" d="M106.745,101.97a3.879,3.879,0,0,1-2.708-1.1L91.306,88.458A3.879,3.879,0,0,1,96.721,82.9l9.307,9.073a88.467,88.467,0,0,1,24.733-23.121,3.879,3.879,0,0,1,4.183,6.534c-17.772,11.377-24.693,24.368-24.761,24.5a3.88,3.88,0,0,1-3.439,2.084Z" transform="translate(-79.978 -7.363)" fill="#a5eb78"/>
    <path id="Path_1466" data-name="Path 1466" d="M56.931,62.16A4.821,4.821,0,0,0,50.279,60.7c-2.245,1.437-4.334,2.9-6.275,4.367a6.519,6.519,0,0,0-6.354-5.1H16.467a.936.936,0,1,0,0,1.872H37.65a4.642,4.642,0,0,1,4.636,4.553q-2,1.577-3.77,3.137v-.506A3.418,3.418,0,0,0,35.1,65.608H30.321a.936.936,0,1,0,0,1.872H35.1a1.543,1.543,0,0,1,1.542,1.542v2.192A82.609,82.609,0,0,0,25.923,83.179L17.4,74.868a4.815,4.815,0,0,0-6.722,6.9l4.767,4.647a.941.941,0,0,0,.657.266.951.951,0,0,0,.667-.283.936.936,0,0,0-.017-1.324l-4.767-4.647a2.943,2.943,0,0,1,4.109-4.215L25.4,85.281a.936.936,0,0,0,1.42-.133q.27-.385.546-.766a88.669,88.669,0,0,1,23.925-22.1,2.943,2.943,0,1,1,3.174,4.957,89.345,89.345,0,0,0-11.846,9.037l-.022.017c-2.2,1.995-4.095,3.923-5.708,5.706-1.24,1.371-2.446,2.8-3.581,4.274A45.747,45.747,0,0,0,29.4,92.05l-.01.018,0,.008-.007.012a2.943,2.943,0,0,1-4.663.745l-5.275-5.142a.936.936,0,1,0-1.307,1.341l5.275,5.142a4.819,4.819,0,0,0,7.629-1.218,50.538,50.538,0,0,1,5.609-7.827v9.939A1.543,1.543,0,0,1,35.1,96.61H9.056a1.543,1.543,0,0,1-1.542-1.542V69.021A1.543,1.543,0,0,1,9.056,67.48h17.52a.936.936,0,1,0,0-1.872H9.056a3.418,3.418,0,0,0-3.414,3.414V95.068a3.418,3.418,0,0,0,3.414,3.414H35.1a3.418,3.418,0,0,0,3.414-3.414V83c1.118-1.226,2.373-2.52,3.77-3.856V97.615a4.642,4.642,0,0,1-4.637,4.637H6.509a4.642,4.642,0,0,1-4.637-4.637V66.474a4.642,4.642,0,0,1,4.637-4.637h6.214a.936.936,0,1,0,0-1.872H6.509A6.516,6.516,0,0,0,0,66.474V97.615a6.516,6.516,0,0,0,6.509,6.509H37.65a6.516,6.516,0,0,0,6.509-6.509V77.406a87.439,87.439,0,0,1,11.313-8.593A4.821,4.821,0,0,0,56.931,62.16Z" transform="translate(0 0)"/>
  </g>
</svg>
