<svg xmlns="http://www.w3.org/2000/svg" width="49.212" height="79.323" viewBox="0 0 49.212 79.323">
  <g id="fdr1" transform="translate(-97.177)">
    <g id="Group_543" data-name="Group 543" transform="translate(98.387 1.239)">
      <path id="Path_1923" data-name="Path 1923" d="M166.909,36.184C170.288,11.417,156.982,8,147.567,8s-22.721,3.417-19.342,28.184Z" transform="translate(-124.171 -8)" fill="#b9c1cb"/>
      <path id="Path_1924" data-name="Path 1924" d="M133.878,156.55a4.883,4.883,0,0,0-4.463,2.9q.111,1.1.269,2.268h4.7v-5.144A4.946,4.946,0,0,0,133.878,156.55Z" transform="translate(-125.631 -133.536)" fill="#a0aab7"/>
      <path id="Path_1925" data-name="Path 1925" d="M355.219,161.72q.159-1.165.269-2.268a4.883,4.883,0,0,0-4.463-2.9,4.94,4.94,0,0,0-.5.026v5.144Z" transform="translate(-312.481 -133.536)" fill="#a0aab7"/>
      <path id="Path_1926" data-name="Path 1926" d="M151.78,337.622H104.988V325.163a18.043,18.043,0,0,1,18.043-18.043h10.706a18.043,18.043,0,0,1,18.043,18.043Z" transform="translate(-104.988 -260.778)" fill="#9ec8fc"/>
      <path id="Path_1927" data-name="Path 1927" d="M104.988,486H151.78v2.789H104.988Z" transform="translate(-104.988 -411.945)" fill="#80b6fc"/>
      <path id="Path_1928" data-name="Path 1928" d="M176.123,96.988a14.644,14.644,0,0,0,14.644-14.644V73.756a8.209,8.209,0,0,0-3.956-6.976,7.662,7.662,0,0,1-2.639-3.39c-2.3-4.785-5.6-4.925-8.048-4.925s-5.744.139-8.048,4.925a7.662,7.662,0,0,1-2.639,3.39,8.209,8.209,0,0,0-3.956,6.976v8.589a14.644,14.644,0,0,0,14.644,14.644Z" transform="translate(-152.728 -50.647)" fill="#f0c69e"/>
      <g id="Group_542" data-name="Group 542" transform="translate(8.752 28.909)">
        <path id="Path_1929" data-name="Path 1929" d="M176.122,209.244h0A14.644,14.644,0,0,1,161.479,194.6v2.789a14.643,14.643,0,1,0,29.287,0V194.6a14.644,14.644,0,0,1-14.643,14.644Z" transform="translate(-161.479 -194.6)" fill="#e6ba94"/>
        <path id="Path_1930" data-name="Path 1930" d="M255.995,307.12h0Z" transform="translate(-241.351 -289.688)" fill="#e6ba94"/>
      </g>
      <path id="Path_1931" data-name="Path 1931" d="M132.091,180.445v-5.869a4.938,4.938,0,0,0-.5-.026,4.883,4.883,0,1,0,1,9.664,14.662,14.662,0,0,1-.491-3.769Z" transform="translate(-123.339 -148.747)" fill="#e2ae84"/>
      <path id="Path_1932" data-name="Path 1932" d="M348.35,174.549a4.944,4.944,0,0,0-.5.026v5.869a14.662,14.662,0,0,1-.491,3.769,4.883,4.883,0,1,0,1-9.664Z" transform="translate(-309.805 -148.746)" fill="#e2ae84"/>
      <path id="Path_1933" data-name="Path 1933" d="M131.586,200.555a4.884,4.884,0,0,1-4.68-3.488,4.885,4.885,0,0,0,5.675,6.175,14.636,14.636,0,0,1-.452-2.718A4.874,4.874,0,0,1,131.586,200.555Z" transform="translate(-123.339 -167.775)" fill="#d7a379"/>
      <path id="Path_1934" data-name="Path 1934" d="M348.35,200.555a4.919,4.919,0,0,1-.543-.031,14.637,14.637,0,0,1-.452,2.718,4.884,4.884,0,0,0,5.675-6.175A4.885,4.885,0,0,1,348.35,200.555Z" transform="translate(-309.806 -167.775)" fill="#d7a379"/>
      <path id="Path_1935" data-name="Path 1935" d="M219.554,215.454c1.879,3.6,6.666,2.149,6.666,2.149s.658-6.328-6.666-6.328-6.666,6.328-6.666,6.328,4.787,1.456,6.666-2.149Z" transform="translate(-196.159 -179.782)" fill="#b9c1cb"/>
      <path id="Path_1936" data-name="Path 1936" d="M181.742,308.267,186.565,320l6.681-4.246-6-8.549A17.973,17.973,0,0,0,181.742,308.267Z" transform="translate(-169.851 -260.848)" fill="#fcf5f5"/>
      <path id="Path_1937" data-name="Path 1937" d="M262,307.2l-6,8.549L262.678,320l4.823-11.732A17.983,17.983,0,0,0,262,307.2Z" transform="translate(-232.602 -260.848)" fill="#fcf5f5"/>
      <path id="Path_1938" data-name="Path 1938" d="M223.225,315.682l-6.008-8.562h12.016Z" transform="translate(-199.83 -260.778)" fill="#e2ae84"/>
    </g>
    <g id="Group_544" data-name="Group 544" transform="translate(97.177 0)">
      <path id="Path_1939" data-name="Path 1939" d="M145.225,380.614a1.164,1.164,0,0,0-1.164,1.164v4.428h-6.932v-9.085a1.164,1.164,0,1,0-2.329,0v9.085H108.766v-9.085a1.164,1.164,0,1,0-2.329,0v9.085H99.505v-11.32a16.756,16.756,0,0,1,1.661-7.318,1.164,1.164,0,1,0-2.1-1.009,19.067,19.067,0,0,0-1.89,8.327V387.37a1.164,1.164,0,0,0,1.164,1.164h46.883a1.164,1.164,0,0,0,1.164-1.164v-5.592A1.164,1.164,0,0,0,145.225,380.614Z" transform="translate(-97.177 -309.212)"/>
      <path id="Path_1940" data-name="Path 1940" d="M148.132,46.609a15.918,15.918,0,0,0,7.052-8.646c.055,0,.11,0,.165,0a6.054,6.054,0,0,0,5.4-8.788c1.363-10.432-.1-18.2-4.363-23.077C152.855,2.053,147.4,0,140.17,0c-6.328,0-11.123,1.489-14.662,4.551a1.164,1.164,0,0,0,1.524,1.761c3.1-2.68,7.394-3.983,13.138-3.983,6.618,0,11.349,1.735,14.465,5.305,3.534,4.049,4.889,10.509,4.04,19.22a6.019,6.019,0,0,0-2.67-.964V24.319a9.34,9.34,0,0,0-4.518-7.982,6.566,6.566,0,0,1-2.205-2.91c-2.693-5.594-6.87-5.594-9.113-5.594s-6.42,0-9.113,5.594a6.565,6.565,0,0,1-2.205,2.91,9.34,9.34,0,0,0-4.518,7.982V25.89a6.018,6.018,0,0,0-2.67.965c-.723-7.428.156-13.233,2.623-17.28A1.164,1.164,0,0,0,122.3,8.363c-2.969,4.871-3.879,11.874-2.711,20.816a6.054,6.054,0,0,0,5.4,8.787c.055,0,.109,0,.164,0a15.918,15.918,0,0,0,7.052,8.646,19.227,19.227,0,0,0-12.029,6.565,1.164,1.164,0,1,0,1.769,1.513,16.923,16.923,0,0,1,6.059-4.5L132.4,60.872a1.171,1.171,0,0,0,1.7.54l4.905-3.118v7.434a1.164,1.164,0,1,0,2.329,0V58.294l4.905,3.118a1.171,1.171,0,0,0,1.7-.54l4.392-10.683a16.938,16.938,0,0,1,10.115,15.485V67.91a1.164,1.164,0,0,0,2.329,0V65.675a19.271,19.271,0,0,0-16.644-19.066Zm7.874-13.684V28.241a3.727,3.727,0,0,1-.229,7.372,15.877,15.877,0,0,0,.229-2.689ZM121.264,31.91a3.733,3.733,0,0,1,3.07-3.669v4.683a15.874,15.874,0,0,0,.229,2.689A3.733,3.733,0,0,1,121.264,31.91Zm5.4,1.014V24.319a7.027,7.027,0,0,1,3.41-6,8.639,8.639,0,0,0,3.083-3.883c2.059-4.275,4.807-4.275,7.015-4.275s4.956,0,7.015,4.275a8.639,8.639,0,0,0,3.083,3.883,7.027,7.027,0,0,1,3.41,6v8.605a13.508,13.508,0,1,1-27.015,0ZM134.024,58.7,130.2,49.4a16.9,16.9,0,0,1,3.377-.593l4.94,7.039Zm6.146-4.553-3.78-5.387h7.561Zm6.145,4.553-4.493-2.855,4.94-7.04a16.813,16.813,0,0,1,3.377.593Z" transform="translate(-115.564 0)"/>
      <path id="Path_1941" data-name="Path 1941" d="M204.923,171.329v-3.289a1.164,1.164,0,0,0-2.329,0v3.289a1.164,1.164,0,0,0,2.329,0Z" transform="translate(-186.262 -141.022)"/>
      <path id="Path_1942" data-name="Path 1942" d="M295.54,172.493a1.164,1.164,0,0,0,1.164-1.164v-3.289a1.164,1.164,0,0,0-2.329,0v3.289A1.164,1.164,0,0,0,295.54,172.493Z" transform="translate(-263.825 -141.022)"/>
      <path id="Path_1943" data-name="Path 1943" d="M220.155,212.291a1.165,1.165,0,0,0,.819-.994,7.437,7.437,0,0,0-1.71-5.32,9.3,9.3,0,0,0-12.254,0,7.437,7.437,0,0,0-1.71,5.32,1.164,1.164,0,0,0,.819.994c1.666.507,4.929.731,7.017-1.321a6.406,6.406,0,0,0,4.563,1.667A8.689,8.689,0,0,0,220.155,212.291Zm-5.967-3.769c-.016-.034-.035-.068-.055-.1a1.164,1.164,0,0,0-1-.561h0a1.165,1.165,0,0,0-1,.561c-.02.033-.038.067-.055.1-1.023,1.911-3.235,1.893-4.451,1.716a4.729,4.729,0,0,1,1.117-2.717,7.08,7.08,0,0,1,8.767,0,4.73,4.73,0,0,1,1.118,2.716C217.421,210.414,215.211,210.431,214.188,208.521Z" transform="translate(-188.532 -172.118)"/>
      <path id="Path_1944" data-name="Path 1944" d="M221.288,131.426h8.788a1.164,1.164,0,1,0,0-2.329h-8.788a1.164,1.164,0,1,0,0,2.329Z" transform="translate(-201.076 -109.096)"/>
      <path id="Path_1945" data-name="Path 1945" d="M233.811,102.81h4.907a1.164,1.164,0,1,0,0-2.329h-4.907a1.164,1.164,0,1,0,0,2.329Z" transform="translate(-211.659 -84.914)"/>
    </g>
  </g>
</svg>
