<svg xmlns="http://www.w3.org/2000/svg" width="48.637" height="65.466" viewBox="0 0 48.637 65.466">
  <g id="fdr3" transform="translate(-65.806 0)">
    <g id="Group_422" data-name="Group 422" transform="translate(66.765 0.956)">
      <path id="Path_1235" data-name="Path 1235" d="M227.035,431.077h-3.86a2.6,2.6,0,0,1-2.6-2.6v-8.164h9.057v8.164A2.6,2.6,0,0,1,227.035,431.077Z" transform="translate(-201.746 -367.528)" fill="#f5f0f0"/>
      <path id="Path_1236" data-name="Path 1236" d="M96.884,63.2h-.443A23.143,23.143,0,0,1,73.349,40.491q-.189-10.5.392-20.994A12.325,12.325,0,0,1,85.2,7.873a168.985,168.985,0,0,1,22.926,0A12.325,12.325,0,0,1,119.584,19.5q.581,10.5.392,20.994A23.144,23.144,0,0,1,96.884,63.2Z" transform="translate(-73.303 -7.484)" fill="#a2c6fe"/>
      <path id="Path_1237" data-name="Path 1237" d="M94.434,65.54A23.147,23.147,0,0,1,73.349,42.915q-.188-10.5.393-20.994A12.327,12.327,0,0,1,85.2,10.3l.5-.033a12.639,12.639,0,0,0-8.541,11.27q-.595,10.754-.4,21.508A23.721,23.721,0,0,0,94.434,65.54Z" transform="translate(-73.303 -9.908)" fill="#7898d5"/>
      <path id="Path_1238" data-name="Path 1238" d="M170.423,292.183a4.242,4.242,0,0,1,3.28,6.944q-.511.607-1.085,1.172a16.635,16.635,0,0,1-11.706,4.809h-.427a16.635,16.635,0,0,1-11.706-4.809q-.537-.528-1.02-1.095a4.25,4.25,0,0,1,3.217-7.021Z" transform="translate(-137.339 -255.78)" fill="#f5f0f0"/>
      <path id="Path_1239" data-name="Path 1239" d="M129.286,57.858c3.66-.249,7.371-.375,11.03-.375s7.37.126,11.03.375a5.937,5.937,0,0,1,5.508,5.6c.257,4.649.4,9.341.422,14.018a5.656,5.656,0,0,1-5.016,5.688q-.107.011-.216.018c-3.891.264-7.837.4-11.728.4s-7.836-.134-11.728-.4q-.108-.007-.216-.018a5.656,5.656,0,0,1-5.016-5.688c.025-4.676.165-9.369.422-14.018a5.937,5.937,0,0,1,5.508-5.6Z" transform="translate(-116.956 -51.09)" fill="#edf9f9"/>
      <path id="Path_1240" data-name="Path 1240" d="M123.356,79.812a5.656,5.656,0,0,0,5.016,5.688l.216.018c.167.012.335.023.5.032a5.886,5.886,0,0,1-3.694-5.512c.026-4.828.17-9.673.436-14.473a6.144,6.144,0,0,1,3.945-5.4l-.492.032a5.936,5.936,0,0,0-5.507,5.6C123.521,70.442,123.381,75.135,123.356,79.812Z" transform="translate(-116.956 -53.427)" fill="#dcf1f4"/>
      <g id="Group_421" data-name="Group 421" transform="translate(33.698 46.289)">
        <path id="Path_1241" data-name="Path 1241" d="M336.842,377.907q0,.185.006.368c.185,5.353,8.264,5.353,8.449,0q.006-.183.006-.368a10.462,10.462,0,0,0-4.231-8.412A10.461,10.461,0,0,0,336.842,377.907Z" transform="translate(-336.842 -369.495)" fill="#dd636e"/>
        <path id="Path_1242" data-name="Path 1242" d="M341.073,382.288a4.043,4.043,0,0,1-4.225-4.015c0-.122-.006-.244-.006-.367a10.462,10.462,0,0,1,4.231-8.412,20.753,20.753,0,0,0-1.5,8.412c0,.123,0,.245,0,.367C339.6,380.949,340.338,382.288,341.073,382.288Z" transform="translate(-336.842 -369.493)" fill="#da4a54"/>
      </g>
    </g>
    <g id="Group_423" data-name="Group 423" transform="translate(65.806 -0.001)">
      <path id="Path_1243" data-name="Path 1243" d="M114,12.917A13.3,13.3,0,0,0,101.652.388,171.113,171.113,0,0,0,78.6.388,13.3,13.3,0,0,0,66.246,12.917c-.388,7-.52,14.087-.394,21.065A24.126,24.126,0,0,0,84.636,57.053v4.855a3.562,3.562,0,0,0,3.559,3.557h3.859a3.562,3.562,0,0,0,3.559-3.557V57.053a23.675,23.675,0,0,0,3.894-1.238c0,.081,0,.161,0,.243a4.935,4.935,0,0,0,4.2,4.857,5.876,5.876,0,0,0,1.013.088,5.042,5.042,0,0,0,4.777-3.1.959.959,0,0,0-1.781-.712,3.235,3.235,0,0,1-3.678,1.831,3.032,3.032,0,0,1-2.614-3.03c0-.111-.006-.224-.006-.337a9.432,9.432,0,0,1,3.272-7.183,9.473,9.473,0,0,1,3.114,5.447.959.959,0,0,0,1.886-.347,11.379,11.379,0,0,0-1.5-3.9,24.005,24.005,0,0,0,6.2-15.694c.126-6.978-.006-14.065-.394-21.064ZM93.694,61.908a1.642,1.642,0,0,1-1.641,1.639H88.195a1.642,1.642,0,0,1-1.641-1.639V57.4a24.322,24.322,0,0,0,3.348.236h.445a24.306,24.306,0,0,0,3.347-.234Zm18.784-27.961A22.091,22.091,0,0,1,107.03,48.1a11.543,11.543,0,0,0-1.764-1.626.959.959,0,0,0-1.145,0,11.51,11.51,0,0,0-4.436,7.164,21.881,21.881,0,0,1-9.339,2.079H89.9A22.184,22.184,0,0,1,67.77,33.947c-.125-6.931.006-13.971.391-20.924A11.378,11.378,0,0,1,78.725,2.3a169.2,169.2,0,0,1,22.8,0,11.378,11.378,0,0,1,10.566,10.721c.385,6.953.517,13.993.391,20.924Z" transform="translate(-65.806 0.001)"/>
      <path id="Path_1244" data-name="Path 1244" d="M163.876,284.683H144.43a5.209,5.209,0,0,0-3.946,8.6c.339.4.7.787,1.077,1.156a17.592,17.592,0,0,0,12.379,5.084h.428a17.59,17.59,0,0,0,12.377-5.084c.4-.394.786-.81,1.146-1.237a5.1,5.1,0,0,0,.722-5.494A5.177,5.177,0,0,0,163.876,284.683Zm-21.934,7.358a3.281,3.281,0,0,1-.491-3.538,3.205,3.205,0,0,1,2.978-1.9H153.2v10.988a15.678,15.678,0,0,1-10.3-4.515C142.57,292.744,142.246,292.4,141.943,292.041Zm24.48-.072c-.321.381-.666.753-1.024,1.106a15.677,15.677,0,0,1-10.277,4.515V286.6h8.754a3.277,3.277,0,0,1,3,1.918A3.165,3.165,0,0,1,166.423,291.968Z" transform="translate(-129.834 -248.282)"/>
      <path id="Path_1245" data-name="Path 1245" d="M144.873,50.36c-3.689-.25-7.422-.377-11.095-.377-2.258,0-4.553.048-6.821.143a.959.959,0,0,0,.08,1.916c2.241-.094,4.509-.141,6.741-.141,3.63,0,7.319.125,10.965.372a4.976,4.976,0,0,1,4.615,4.7c.255,4.583.4,9.283.42,13.97a4.724,4.724,0,0,1-4.152,4.728l-.185.015c-3.858.262-7.782.4-11.663.4s-7.805-.133-11.66-.4l-.191-.016a4.725,4.725,0,0,1-4.149-4.728c.024-4.679.165-9.379.419-13.97a4.978,4.978,0,0,1,4.615-4.7l.448-.029a.959.959,0,1,0-.112-1.915l-.465.03a6.9,6.9,0,0,0-6.4,6.5c-.256,4.623-.4,9.355-.422,14.066a6.7,6.7,0,0,0,1.66,4.456,6.473,6.473,0,0,0,4.218,2.191l.023,0,.225.019c3.9.265,7.869.4,11.793.4s7.892-.135,11.8-.4l.231-.019h.013a6.473,6.473,0,0,0,4.218-2.191,6.7,6.7,0,0,0,1.66-4.455c-.025-4.719-.167-9.452-.423-14.066A6.9,6.9,0,0,0,144.873,50.36Z" transform="translate(-109.46 -43.592)"/>
      <path id="Path_1246" data-name="Path 1246" d="M164.929,101.262a.959.959,0,0,0-.959.959v4.75a.959.959,0,1,0,1.918,0v-4.75a.959.959,0,0,0-.959-.959Z" transform="translate(-151.418 -88.314)"/>
      <path id="Path_1247" data-name="Path 1247" d="M180.564,86.743h-4.75a.959.959,0,1,0,0,1.918h4.75a.959.959,0,0,0,0-1.918Z" transform="translate(-160.911 -75.651)"/>
      <path id="Path_1248" data-name="Path 1248" d="M226.644,172v-4.75a.959.959,0,0,0-1.918,0V172a.959.959,0,0,0,1.918,0Z" transform="translate(-204.405 -145.026)"/>
      <path id="Path_1249" data-name="Path 1249" d="M174.855,152.729a.959.959,0,0,0,.959.959h4.75a.959.959,0,1,0,0-1.918h-4.75A.959.959,0,0,0,174.855,152.729Z" transform="translate(-160.911 -132.364)"/>
      <path id="Path_1250" data-name="Path 1250" d="M175.814,218.716h4.75a.959.959,0,0,0,0-1.918h-4.75a.959.959,0,1,0,0,1.918Z" transform="translate(-160.911 -189.077)"/>
      <path id="Path_1251" data-name="Path 1251" d="M269.718,102.221v4.75a.959.959,0,1,0,1.918,0v-4.75a.959.959,0,1,0-1.918,0Z" transform="translate(-243.644 -88.314)"/>
      <path id="Path_1252" data-name="Path 1252" d="M286.312,86.743h-4.75a.959.959,0,0,0,0,1.918h4.75a.959.959,0,1,0,0-1.918Z" transform="translate(-253.138 -75.651)"/>
      <path id="Path_1253" data-name="Path 1253" d="M332.392,172v-4.75a.959.959,0,1,0-1.918,0V172a.959.959,0,0,0,1.918,0Z" transform="translate(-296.632 -145.026)"/>
      <path id="Path_1254" data-name="Path 1254" d="M281.562,153.688h4.75a.959.959,0,1,0,0-1.918h-4.75a.959.959,0,0,0,0,1.918Z" transform="translate(-253.138 -132.364)"/>
      <path id="Path_1255" data-name="Path 1255" d="M281.562,218.716h4.75a.959.959,0,1,0,0-1.918h-4.75a.959.959,0,0,0,0,1.918Z" transform="translate(-253.138 -189.077)"/>
      <path id="Path_1256" data-name="Path 1256" d="M254.475,218.716a.959.959,0,0,0,0-1.918h-.064a.959.959,0,1,0,0,1.918Z" transform="translate(-229.458 -189.077)"/>
      <path id="Path_1257" data-name="Path 1257" d="M283.315,311.322a.959.959,0,0,0-1.356,1.356l1.831,1.831-1.831,1.831a.959.959,0,1,0,1.356,1.356l2.509-2.509a.959.959,0,0,0,0-1.356Z" transform="translate(-254.075 -271.269)"/>
      <path id="Path_1258" data-name="Path 1258" d="M198.173,314.51,200,312.679a.959.959,0,1,0-1.356-1.356l-2.509,2.509a.959.959,0,0,0,0,1.356l2.509,2.509A.959.959,0,0,0,200,316.341Z" transform="translate(-179.228 -271.27)"/>
    </g>
  </g>
</svg>
