<svg xmlns="http://www.w3.org/2000/svg" width="69.991" height="69.991" viewBox="0 0 69.991 69.991">
  <g id="fdr5" transform="translate(-16 -15.999)">
    <path id="Path_1737" data-name="Path 1737" d="M50.83,160.331v-9.2A7.133,7.133,0,0,0,43.7,144h0a7.132,7.132,0,0,0-5.506,2.6h0A62.224,62.224,0,0,0,24,186.154h0a8.005,8.005,0,0,0,8.005,8.005H45a9.332,9.332,0,0,0,9.332-9.332V170.084a11.665,11.665,0,0,0-1.232-5.217Z" transform="translate(-6.833 -109.336)" fill="#ef5e3b"/>
    <path id="Path_1738" data-name="Path 1738" d="M283.5,160.331v-9.2A7.133,7.133,0,0,1,290.632,144h0a7.132,7.132,0,0,1,5.506,2.6h0a62.224,62.224,0,0,1,14.192,39.556h0a8.005,8.005,0,0,1-8.005,8.005H289.332A9.332,9.332,0,0,1,280,184.828V170.084a11.664,11.664,0,0,1,1.232-5.217Z" transform="translate(-225.505 -109.336)" fill="#ef5e3b"/>
    <path id="Path_1739" data-name="Path 1739" d="M149,104v17.5l3.641,3.641a3.5,3.5,0,0,0,2.475,1.025h2.05l2.816-2.816a2.333,2.333,0,0,0,.683-1.65V118h4.666v4.1a7,7,0,0,1-2.05,4.949l-2.616,2.616,3.5,3.5-3.5,3.5-5.833-5.833h-.6a7,7,0,0,1-4.949-2.05l-2.616-2.616-2.616,2.616a7,7,0,0,1-4.949,2.05h-.6l-5.833,5.833-3.5-3.5,3.5-3.5-2.616-2.616A7,7,0,0,1,128,122.1V118h4.666v3.7a2.333,2.333,0,0,0,.683,1.65l2.816,2.816h2.05a3.5,3.5,0,0,0,2.475-1.025l3.641-3.641V104Z" transform="translate(-95.669 -75.169)" fill="#ffceb6"/>
    <path id="Path_1740" data-name="Path 1740" d="M233.332,56v7l-4.666,2.333L224,63V56Z" transform="translate(-177.671 -34.168)" fill="#ffd9c7"/>
    <path id="Path_1741" data-name="Path 1741" d="M215,33.332l7-3.5V27.3a3.3,3.3,0,0,0-3.3-3.3h0a3.3,3.3,0,0,0-2.333.966L215,26.333l-1.367-1.367A3.3,3.3,0,0,0,211.3,24h0a3.3,3.3,0,0,0-3.3,3.3v2.533Z" transform="translate(-164.004 -6.834)" fill="#ffe3d6"/>
    <path id="Path_1742" data-name="Path 1742" d="M337.663,92.831a12.764,12.764,0,1,1-3.738-9.093A12.832,12.832,0,0,1,337.663,92.831Z" transform="translate(-252.839 -54.668)" fill="#02c26a"/>
    <rect id="Rectangle_185" data-name="Rectangle 185" width="4" height="4" rx="2" transform="translate(63 34.99)" fill="#3cde8d"/>
    <path id="Path_1743" data-name="Path 1743" d="M418.816,148.183l1.367-1.367a1.65,1.65,0,0,0,.483-1.167h0a1.65,1.65,0,0,0-1.65-1.65h0a1.649,1.649,0,0,0-1.166.483l-1.367,1.367a1.65,1.65,0,0,0-.483,1.167h0a1.65,1.65,0,0,0,1.65,1.65h0A1.65,1.65,0,0,0,418.816,148.183Z" transform="translate(-341.674 -109.337)" fill="#3cde8d"/>
    <path id="Path_1744" data-name="Path 1744" d="M331.761,201.649h0a1.649,1.649,0,0,1-.483,1.165l-2.155,2.155a12.843,12.843,0,0,1-2.183-2.483l2-2A1.649,1.649,0,0,1,330.11,200h0A1.65,1.65,0,0,1,331.761,201.649Z" transform="translate(-265.6 -157.171)" fill="#3cde8d"/>
    <path id="Path_1745" data-name="Path 1745" d="M444.817,202.484a12.839,12.839,0,0,1-2.183,2.483l-2.155-2.155a1.65,1.65,0,1,1,2.333-2.333Z" transform="translate(-362.171 -157.168)" fill="#3cde8d"/>
    <path id="Path_1746" data-name="Path 1746" d="M385.85,108.183l-1.367-1.367A1.65,1.65,0,0,1,384,105.65h0a1.65,1.65,0,0,1,1.65-1.65h0a1.65,1.65,0,0,1,1.167.483l1.367,1.367a1.65,1.65,0,0,1,.483,1.167h0a1.65,1.65,0,0,1-1.65,1.65h0a1.65,1.65,0,0,1-1.167-.483Z" transform="translate(-314.34 -75.169)" fill="#3cde8d"/>
    <path id="Path_1747" data-name="Path 1747" d="M385.85,188.183l-1.367-1.367A1.65,1.65,0,0,1,384,185.65h0a1.65,1.65,0,0,1,1.65-1.65h0a1.65,1.65,0,0,1,1.167.483l1.367,1.367a1.649,1.649,0,0,1,.483,1.167h0a1.65,1.65,0,0,1-1.65,1.65h0a1.65,1.65,0,0,1-1.167-.483Z" transform="translate(-314.34 -143.504)" fill="#3cde8d"/>
    <path id="Path_1748" data-name="Path 1748" d="M318,100a14,14,0,1,0-14-14A14,14,0,0,0,318,100Zm-7.141-7.341L309.518,94q-.332-.352-.635-.731l1.292-1.292a.483.483,0,0,1,.683.683ZM325,92.314a.483.483,0,0,1,.825-.342l1.292,1.292q-.3.379-.635.731l-1.34-1.34a.486.486,0,0,1-.142-.342Zm-7-17.981a11.657,11.657,0,0,1,10.408,16.923l-.934-.934a2.816,2.816,0,0,0-3.983,3.983l1.223,1.223a11.626,11.626,0,0,1-13.428,0l1.223-1.223a2.816,2.816,0,1,0-3.983-3.983l-.934.934A11.657,11.657,0,0,1,318,74.333Z" transform="translate(-246.006 -47.835)"/>
    <path id="Path_1749" data-name="Path 1749" d="M338.916,136.166a2.92,2.92,0,0,0,2.916-2.916v-2.333a2.916,2.916,0,1,0-5.833,0v2.333A2.92,2.92,0,0,0,338.916,136.166Zm-.583-5.249a.583.583,0,1,1,1.167,0v2.333a.583.583,0,0,1-1.167,0Z" transform="translate(-273.339 -95.67)"/>
    <path id="Path_1750" data-name="Path 1750" d="M408.824,138.191a2.816,2.816,0,0,0,3.983,3.983l1.367-1.367a2.816,2.816,0,0,0-3.983-3.983Zm1.65,1.65,1.367-1.367a.483.483,0,0,1,.683.683l-1.367,1.367a.483.483,0,0,1-.683-.683Z" transform="translate(-334.84 -102.502)"/>
    <path id="Path_1751" data-name="Path 1751" d="M378.191,102.174a2.816,2.816,0,1,0,3.983-3.983l-1.367-1.367a2.816,2.816,0,1,0-3.983,3.983Zm.625-3.841a.486.486,0,0,1,.342.142l1.367,1.367a.483.483,0,1,1-.683.683l-1.367-1.367a.483.483,0,0,1,.342-.825Z" transform="translate(-307.506 -68.335)"/>
    <path id="Path_1752" data-name="Path 1752" d="M380.807,176.824a2.816,2.816,0,1,0-3.983,3.983l1.367,1.367a2.816,2.816,0,0,0,3.983-3.983Zm-.625,3.841a.486.486,0,0,1-.342-.142l-1.367-1.367a.483.483,0,0,1,.683-.683l1.367,1.367a.483.483,0,0,1-.342.825Z" transform="translate(-307.506 -136.67)"/>
    <path id="Path_1753" data-name="Path 1753" d="M79.079,53.62a61.135,61.135,0,0,1,2.992,9.35l-4.728,7.354a16.265,16.265,0,0,1-13.738,7.5H60.328v2.333h3.279a18.588,18.588,0,0,0,15.7-8.571l3.434-5.341a61.072,61.072,0,0,1,.918,10.574,6.847,6.847,0,0,1-6.839,6.839H63.827a8.175,8.175,0,0,1-8.166-8.166V60.747a10.56,10.56,0,0,1,.867-4.175,8.215,8.215,0,0,0,2.032.254h.117l5.491,5.491a1.167,1.167,0,0,0,1.65,0l3.5-3.5a1.167,1.167,0,0,0,0-1.65l-3.5-3.5-1.65,1.65,2.675,2.675-1.85,1.85-5.008-5.008a1.167,1.167,0,0,0-.825-.342h-.6a5.794,5.794,0,0,1-4.124-1.708L51.82,50.17a1.167,1.167,0,0,0-1.65,0l-2.616,2.616a5.794,5.794,0,0,1-4.124,1.708h-.6a1.167,1.167,0,0,0-.825.342L37,59.844l-1.85-1.85,2.675-2.675a1.167,1.167,0,0,0,0-1.65l-2.616-2.616A5.794,5.794,0,0,1,33.5,46.929V44h2.333v2.533A3.477,3.477,0,0,0,36.856,49l2.816,2.816a1.167,1.167,0,0,0,.825.342h2.05a4.635,4.635,0,0,0,3.3-1.367l3.641-3.641a1.167,1.167,0,0,0,.342-.825V31.885l.645.322a1.167,1.167,0,0,0,1.043,0l.645-.322V46.328a1.167,1.167,0,0,0,.342.825l3.641,3.641a4.636,4.636,0,0,0,3.3,1.367h2.05V49.828h-2.05a2.318,2.318,0,0,1-1.65-.683l-3.3-3.3V30.718l1.688-.844a1.167,1.167,0,0,0,.645-1.043V24.886l1.688-.844A1.167,1.167,0,0,0,59.161,23V20.465a4.466,4.466,0,0,0-7.624-3.158L51,17.849l-.542-.542a4.466,4.466,0,0,0-7.624,3.158V23a1.167,1.167,0,0,0,.645,1.043l1.688.844v3.945a1.167,1.167,0,0,0,.645,1.043l1.688.844V45.845l-2.333,2.333V41.8A8.3,8.3,0,0,0,30.457,36.52,63.543,63.543,0,0,0,16,76.818a9.182,9.182,0,0,0,9.172,9.172H38.164a10.51,10.51,0,0,0,10.5-10.5V60.747a12.908,12.908,0,0,0-1.045-5.072,8.222,8.222,0,0,0,1.587-1.24L51,52.644l1.791,1.791a8.221,8.221,0,0,0,1.587,1.24,12.905,12.905,0,0,0-1.045,5.072V75.491a10.51,10.51,0,0,0,10.5,10.5H76.819a9.183,9.183,0,0,0,9.172-9.172,63.086,63.086,0,0,0-4.753-24.084ZM45.163,20.465A2.133,2.133,0,0,1,48.8,18.957l1.367,1.367a1.167,1.167,0,0,0,1.65,0l1.367-1.367a2.133,2.133,0,0,1,3.641,1.508v1.812L51,25.194l-5.833-2.916Zm5.311,7.076a1.167,1.167,0,0,0,1.043,0l2.978-1.489V28.11L51,29.86l-3.5-1.75V26.052ZM46.329,60.747V75.491a8.175,8.175,0,0,1-8.166,8.166H25.172a6.847,6.847,0,0,1-6.839-6.839A60.777,60.777,0,0,1,19,67.831l1,1.333a15.892,15.892,0,0,0,12.653,6.326,13.417,13.417,0,0,1,9.363,3.781l1.62-1.679a15.74,15.74,0,0,0-10.983-4.435,13.547,13.547,0,0,1-10.786-5.393L19.56,64.684a61.314,61.314,0,0,1,2.33-8.37l4.971,5.592a12.682,12.682,0,0,0,9.471,4.253H44V63.826H36.331a10.347,10.347,0,0,1-7.727-3.47l-5.778-6.5A61.027,61.027,0,0,1,32.259,38,5.966,5.966,0,0,1,42.83,41.8v8.013a2.361,2.361,0,0,1-.283.019H40.98l-2.474-2.475a1.158,1.158,0,0,1-.342-.825v-3.7A1.167,1.167,0,0,0,37,41.662H32.331a1.167,1.167,0,0,0-1.167,1.166v4.1A8.113,8.113,0,0,0,33.556,52.7l1.791,1.791-2.675,2.675a1.167,1.167,0,0,0,0,1.65l3.5,3.5a1.167,1.167,0,0,0,1.65,0l5.491-5.491h.117a8.217,8.217,0,0,0,2.033-.254A10.56,10.56,0,0,1,46.329,60.747Z" transform="translate(0 0)"/>
  </g>
</svg>
