<svg xmlns="http://www.w3.org/2000/svg" width="78.788" height="74.933" viewBox="0 0 78.788 74.933">
  <g id="fdr6" transform="translate(0 -13.64)">
    <path id="Path_1946" data-name="Path 1946" d="M276.895,67.757l.224-.156a4.787,4.787,0,0,1,7.5,3.614l.018.272a4.787,4.787,0,0,0,3.4,4.266l.261.078a4.787,4.787,0,0,1,1.853,8.12l-.2.184a4.787,4.787,0,0,0-1.214,5.32l.1.253a4.787,4.787,0,0,1-5.193,6.512l-.269-.043a4.787,4.787,0,0,0-4.916,2.368l-.134.237a4.787,4.787,0,0,1-8.329,0l-.134-.237a4.787,4.787,0,0,0-4.916-2.368l-.269.043a4.787,4.787,0,0,1-5.193-6.512l.1-.253a4.787,4.787,0,0,0-1.214-5.32l-.2-.184a4.787,4.787,0,0,1,1.853-8.12l.261-.078a4.787,4.787,0,0,0,3.4-4.266l.018-.272a4.787,4.787,0,0,1,7.5-3.614l.224.155a4.787,4.787,0,0,0,5.457,0Z" transform="translate(-220.238 -45.574)" fill="#a0e7e7"/>
    <circle id="Ellipse_114" data-name="Ellipse 114" cx="2.472" cy="2.472" r="2.472" transform="translate(57.13 40.947) rotate(-76.7)" fill="#fcf2d0"/>
    <circle id="Ellipse_115" data-name="Ellipse 115" cx="2.472" cy="2.472" r="2.472" transform="translate(51.3 32.694) rotate(-76.7)" fill="#fcf2d0"/>
    <path id="Path_1947" data-name="Path 1947" d="M52.05,84.079a4.319,4.319,0,0,1-5.842,2.092A102.612,102.612,0,0,1,21.8,69.955C13,61.777,8.468,53.35,8.319,44.9a23.329,23.329,0,1,1,46.653-.43H39.921a8.277,8.277,0,0,0-16.554,0c0,4.122,3.082,9.258,8.678,14.462A88.68,88.68,0,0,0,52.674,72.575,4.317,4.317,0,0,1,54.7,78.223Z" transform="translate(-7.137 -6.439)" fill="#eda1ab"/>
    <path id="Path_1948" data-name="Path 1948" d="M96.836,276.853a81.908,81.908,0,0,1-15.759-11.087,44.749,44.749,0,0,1-3.506-3.629q-.176.167-.358.337a72.8,72.8,0,0,1-11.767,8.642,59.309,59.309,0,0,0,5.383,5.673,89.84,89.84,0,0,0,13.914,10.43,86.547,86.547,0,0,0,8.842-7.137Q95.311,278.477,96.836,276.853Z" transform="translate(-56.169 -213.272)" fill="#e8899e"/>
    <path id="Path_1949" data-name="Path 1949" d="M10.568,225.325,7.919,219.47a4.317,4.317,0,0,1,2.025-5.648,88.678,88.678,0,0,0,20.629-13.643c5.6-5.2,8.678-10.339,8.678-14.462H54.3c0,8.593-4.536,17.168-13.481,25.485A102.611,102.611,0,0,1,16.41,227.417,4.319,4.319,0,0,1,10.568,225.325Z" transform="translate(-6.467 -147.685)" fill="#eda1ab"/>
    <path id="Path_1950" data-name="Path 1950" d="M102.25,36.194a8.286,8.286,0,0,1,8.277,8.277,13.23,13.23,0,0,1-2,6.415c3.149-4.488,12.813-28.949-5.375-29.724h-.03q-.426-.017-.871-.018t-.871.018h-.03c-18.188.775-8.524,25.237-5.375,29.724a13.231,13.231,0,0,1-2-6.415,8.287,8.287,0,0,1,8.277-8.277Z" transform="translate(-77.743 -6.439)" fill="#e8899e"/>
    <circle id="Ellipse_116" data-name="Ellipse 116" cx="17.589" cy="17.589" r="17.589" transform="translate(29.046 63.702) rotate(-45)" fill="#e8899e"/>
    <path id="Path_1951" data-name="Path 1951" d="M320.824,299.316v-5.1a.921.921,0,0,0-.921-.921h-5.1a.921.921,0,0,0-.921.921v5.1a.921.921,0,0,1-.921.921h-5.1a.921.921,0,0,0-.921.921v5.1a.921.921,0,0,0,.921.921h5.1a.921.921,0,0,1,.921.921v5.1a.921.921,0,0,0,.921.921h5.1a.921.921,0,0,0,.921-.921v-5.1a.921.921,0,0,1,.921-.921h5.1a.921.921,0,0,0,.921-.921v-5.1a.921.921,0,0,0-.921-.921h-5.1A.921.921,0,0,1,320.824,299.316Z" transform="translate(-263.422 -240.01)" fill="#fff"/>
    <path id="Path_1952" data-name="Path 1952" d="M63.428,59.165H58.465V54.2a1.987,1.987,0,0,0-1.984-1.984h-5.1A1.987,1.987,0,0,0,49.392,54.2v4.963H44.428a1.987,1.987,0,0,0-1.984,1.984v5.1a1.987,1.987,0,0,0,1.984,1.984h4.963V73.2a1.987,1.987,0,0,0,1.984,1.984h5.1A1.987,1.987,0,0,0,58.465,73.2V68.239h4.963a1.987,1.987,0,0,0,1.984-1.984v-5.1A1.987,1.987,0,0,0,63.428,59.165Zm-.142,6.947H58.324A1.987,1.987,0,0,0,56.339,68.1V73.06H51.518V68.1a1.987,1.987,0,0,0-1.984-1.984H44.57V61.291h4.963a1.987,1.987,0,0,0,1.984-1.984V54.344h4.821v4.963a1.987,1.987,0,0,0,1.984,1.984h4.963ZM54.264,27.305A3.535,3.535,0,1,0,57.8,30.84,3.539,3.539,0,0,0,54.264,27.305Zm0,4.943a1.408,1.408,0,1,1,1.408-1.408A1.41,1.41,0,0,1,54.264,32.248ZM67.387,50.8a5.833,5.833,0,0,0,2.205-7.063l-.1-.253a3.74,3.74,0,0,1,.944-4.138l.2-.184a5.849,5.849,0,0,0-2.265-9.924A3.814,3.814,0,0,1,65.818,27.2a1.063,1.063,0,0,0-1.919.915A5.862,5.862,0,0,0,67.5,31.2l.262.078A3.723,3.723,0,0,1,69.2,37.593l-.2.184a5.876,5.876,0,0,0-1.484,6.5l.1.253a3.724,3.724,0,0,1-1.864,4.759A18.617,18.617,0,0,0,47.6,46.157a26.639,26.639,0,0,0,1.3-8.125,24.129,24.129,0,0,0-4.086-13.518A3.727,3.727,0,0,1,50.37,22.9l.224.155a5.876,5.876,0,0,0,6.668,0l.224-.155a3.708,3.708,0,0,1,5.038.733A1.063,1.063,0,1,0,64.182,22.3a5.882,5.882,0,0,0-7.907-1.148l-.224.156a3.74,3.74,0,0,1-4.245,0l-.224-.156a5.843,5.843,0,0,0-8.155,1.491A24.387,24.387,0,0,0,.12,38.48c.134,7.607,3.68,15.187,10.54,22.547-2.407,1.436-4.967,2.828-7.654,4.157A5.36,5.36,0,0,0,.484,72.223l2.649,5.856a5.378,5.378,0,0,0,7.28,2.608q.682-.336,1.356-.676a1.063,1.063,0,1,0-.959-1.9q-.663.335-1.335.665A3.254,3.254,0,0,1,5.07,77.2L2.421,71.347A3.242,3.242,0,0,1,3.949,67.09,89.2,89.2,0,0,0,24.83,53.273a35.074,35.074,0,0,0,6.824-8.214,38.693,38.693,0,0,0,4.485-10.9c1.278-4.976,1.923-11.248-.836-15.6A22.271,22.271,0,0,1,46.773,38.032,25.135,25.135,0,0,1,44.9,47.388,18.7,18.7,0,0,0,35.48,60.947,91.294,91.294,0,0,1,15.229,75.77a1.063,1.063,0,1,0,1.033,1.858q4.378-2.434,8.247-5.038a120.933,120.933,0,0,0,14.093,8.1,5.4,5.4,0,0,0,5.992-.841A18.644,18.644,0,0,0,67.387,50.8ZM12.511,59.895C5.826,52.83,2.372,45.617,2.246,38.443a22.2,22.2,0,0,1,11.5-19.936c-2.795,4.356-2.151,10.652-.867,15.65a38.693,38.693,0,0,0,4.485,10.9,34,34,0,0,0,5.6,7.04A73.988,73.988,0,0,1,12.511,59.895Zm12-9.261c-3.2-3.172-7.215-8.114-7.215-12.6a7.214,7.214,0,0,1,14.428,0C31.721,42.524,27.71,47.464,24.508,50.634ZM33.523,35.6a9.339,9.339,0,0,0-18.031,0c-1.4-4.555-2.539-10.829-.43-15.1,1.894-3.842,6-4.884,10.3-4.705,4.25.181,7.139,1.764,8.59,4.705C36.061,24.765,34.926,31.039,33.523,35.6Zm6.018,43.183A119.778,119.778,0,0,1,26.4,71.292,82.832,82.832,0,0,0,35.281,64.1a18.637,18.637,0,0,0,7.444,14.5A3.269,3.269,0,0,1,39.541,78.778Zm14.388,1.45A16.526,16.526,0,1,1,70.455,63.7,16.545,16.545,0,0,1,53.929,80.228Zm6.167-37.6a3.535,3.535,0,1,0-3.535-3.535A3.539,3.539,0,0,0,60.1,42.623Zm0-4.943a1.408,1.408,0,1,1-1.409,1.408A1.41,1.41,0,0,1,60.1,37.68Z"/>
  </g>
</svg>
