<svg xmlns="http://www.w3.org/2000/svg" width="64.489" height="76.916" viewBox="0 0 64.489 76.916">
  <g id="fdr8" transform="translate(1909.746 3866.516)">
    <path id="Path_1499" data-name="Path 1499" d="M-1869.821-3789.6a7.423,7.423,0,0,1-7.017-5.006,7.469,7.469,0,0,1-.319-1.277l-.347-2.184-.347,2.185a7.438,7.438,0,0,1-2.514,4.485,7.438,7.438,0,0,1-4.823,1.78,7.441,7.441,0,0,1-7.433-7.429v-27.165a19.526,19.526,0,0,1-4.111-9.229l-2.476.9q-.1.037-.206.071a7.85,7.85,0,0,1-2.486.4,7.859,7.859,0,0,1-7.466-5.387l-.006-.019a7.923,7.923,0,0,1,.447-5.92,7.924,7.924,0,0,1,4.419-3.964l17.354-6.315a10,10,0,0,1-.4-2.8,10.055,10.055,0,0,1,10.043-10.044h.018a10.056,10.056,0,0,1,10.026,10.043c0,.034,0,.067,0,.1v.031a10.006,10.006,0,0,1-.4,2.67l17.357,6.318a8.032,8.032,0,0,1,.939.412,7.964,7.964,0,0,1,3.688,4,7.965,7.965,0,0,1,.244,5.488l-.006.017c-.023.07-.047.138-.072.207a7.9,7.9,0,0,1-7.4,5.18h0a7.842,7.842,0,0,1-2.691-.476l-2.476-.9a19.527,19.527,0,0,1-4.112,9.229v27.164a7.435,7.435,0,0,1-1.779,4.829,7.436,7.436,0,0,1-4.491,2.515A7.5,7.5,0,0,1-1869.821-3789.6Z" transform="translate(0 0)"/>
    <g id="obesidad" transform="translate(-1908.398 -3865.169)">
      <path id="Path_1231" data-name="Path 1231" d="M-1832.3-3671.881l-20.009-7.283c-.453-.176-.925-.335-1.4-.472a2.163,2.163,0,0,0-.614-.089h-9.028a2.163,2.163,0,0,0-.614.089c-.478.141-.949.3-1.4.472l-20.012,7.283a6.613,6.613,0,0,0-4.042,8.211,6.523,6.523,0,0,0,8.249,4.129l.171-.06,4.086-1.486a18.026,18.026,0,0,0,4.309,10.592v27.653a6.083,6.083,0,0,0,6.085,6.082,6.084,6.084,0,0,0,6.007-5.128l1.677-10.57,1.678,10.57a6.083,6.083,0,0,0,6.958,5.059,6.083,6.083,0,0,0,5.133-6.013V-3650.5a18.027,18.027,0,0,0,4.309-10.589l4.086,1.487a6.523,6.523,0,0,0,8.359-3.9c.021-.057.041-.115.06-.173A6.613,6.613,0,0,0-1832.3-3671.881Z" transform="translate(1889.73 3690.963)" fill="#00d7df"/>
      <path id="Path_1232" data-name="Path 1232" d="M-1404.608-3671.881l-20.008-7.283c-.453-.176-.925-.335-1.4-.472a2.163,2.163,0,0,0-.614-.089h-4.511v47.279l1.678,10.57a6.084,6.084,0,0,0,6.958,5.059,6.084,6.084,0,0,0,5.133-6.014v-27.653a18.024,18.024,0,0,0,4.31-10.593l4.086,1.487a6.522,6.522,0,0,0,8.36-3.9c.021-.057.041-.114.06-.172a6.612,6.612,0,0,0-4.043-8.218Z" transform="translate(1462.042 3690.963)" fill="#00c7ce"/>
      <path id="Path_1233" data-name="Path 1233" d="M-1551.585-3829.124a8.7,8.7,0,0,1-8.7-8.7,8.7,8.7,0,0,1,8.7-8.7,8.7,8.7,0,0,1,8.7,8.7A8.707,8.707,0,0,1-1551.585-3829.124Z" transform="translate(1582.478 3846.517)" fill="#ffbeaa"/>
      <path id="Path_1234" data-name="Path 1234" d="M-1422.518-3837.821a8.706,8.706,0,0,0-8.7-8.7v17.392A8.706,8.706,0,0,0-1422.518-3837.821Z" transform="translate(1462.107 3846.517)" fill="#faa68f"/>
    </g>
  </g>
</svg>
