<svg xmlns="http://www.w3.org/2000/svg" width="40.3" height="65.408" viewBox="0 0 40.3 65.408">
  <g id="gestante" transform="translate(-104 -15.592)">
    <path id="Path_1269" data-name="Path 1269" d="M116.357,296,112,301.446v4.065a1.381,1.381,0,0,0,1.381,1.381h2.976l3.268-4.357,14.16-1.089V296Z" transform="translate(-6.911 -242.23)" fill="#feb784"/>
    <path id="Path_1270" data-name="Path 1270" d="M227.386,192A3.386,3.386,0,0,0,224,195.386v5.327h10.892V192Z" transform="translate(-103.662 -152.39)" fill="#feb784"/>
    <path id="Path_1271" data-name="Path 1271" d="M225.788,46.945c-.246-2.451-1.168-7.121-2.011-11.1-.078-.369-.155-.732-.231-1.086-.705-3.288-1.3-5.86-1.3-5.86a7.1,7.1,0,0,0-9.315-4.411,6.722,6.722,0,0,0-3.235,2.654,7.228,7.228,0,0,0-.372.647,7.762,7.762,0,0,0-.447,5.91l.538,1.51-.776,3.439,2.374,1.575,1.051,3.213,5.074-.914V47.97l-5.283,4.357h8.55Z" transform="translate(-90.265 -7.271)" fill="#fec9a3"/>
    <path id="Path_1272" data-name="Path 1272" d="M149.408,193.5v39.211H130.892a10.869,10.869,0,0,1-10.791-9.635,11.758,11.758,0,0,1-.1-1.543,11.178,11.178,0,0,1,9.4-11.035l4.556-.735-.927-.618a5.593,5.593,0,0,1-.083-9.25l2.471-2.038h8.55l5.382-5.382C149.385,192.877,149.408,193.224,149.408,193.5Z" transform="translate(-13.822 -152.796)" fill="#f59898"/>
    <path id="Path_1273" data-name="Path 1273" d="M150.048,219.23v36.593H131.531a10.869,10.869,0,0,1-10.791-9.635C132.243,243.346,143.326,235.55,150.048,219.23Z" transform="translate(-14.461 -175.912)" fill="#ed9191"/>
    <path id="Path_1274" data-name="Path 1274" d="M178.872,204.551l1.723,17.233-7.624,4.357-4.357-3.268-2.178,1.089,2.178,3.268-4.947,2.224,2.768,4.311,7.624-2.178,11.06-4.608a3.268,3.268,0,0,0,2.011-3.016V204.139A4.139,4.139,0,0,0,182.991,200h0a4.139,4.139,0,0,0-4.119,4.551Z" transform="translate(-51.543 -159.3)" fill="#fec9a3"/>
    <path id="Path_1275" data-name="Path 1275" d="M222.582,23.6a9.432,9.432,0,0,1,7.771,4.2h0a9.431,9.431,0,0,1,1.584,5.232h0a7.15,7.15,0,0,0,2.994,5.818l1.318.941a7.91,7.91,0,0,1,3.313,6.437v.286a7.624,7.624,0,0,1-7.624,7.624h0a8.714,8.714,0,0,1-8.714-8.714V33.439h0a10.852,10.852,0,0,1-7.688-6.26S217.12,23.3,222.582,23.6Z" transform="translate(-96.35 -6.899)" fill="#92563a"/>
    <path id="Path_1276" data-name="Path 1276" d="M144,321.089v4.357h2.178L148.357,320" transform="translate(-34.554 -262.962)" fill="#feb784"/>
    <path id="Path_1277" data-name="Path 1277" d="M140.532,32l-1.318-.941a6.072,6.072,0,0,1-2.538-4.932,10.521,10.521,0,0,0-10.41-10.521,8.619,8.619,0,0,0-8.178,4.417,8.862,8.862,0,0,0-.512,6.745l.009.026.432,1.212-.707,3.131a1.089,1.089,0,0,0,.46,1.147l2.059,1.366.933,2.853a1.089,1.089,0,0,0,1.228.733l3.792-.682v1.964h-2.06A4.481,4.481,0,0,0,119.249,43v2.579l-.789.651a6.714,6.714,0,0,0-2.762,6.454h-6.252a1.089,1.089,0,0,0-.851.408l-4.357,5.446a1.089,1.089,0,0,0-.239.681v4.065a2.473,2.473,0,0,0,1.509,2.275,12.226,12.226,0,0,0-.42,3.176,12.376,12.376,0,0,0,3.437,8.659,11.249,11.249,0,0,0,7.24,3.6L118.16,81V79.911a1.089,1.089,0,0,0-1.089-1.089,9.6,9.6,0,0,1-6.977-2.942,10.211,10.211,0,0,1-2.826-7.147,10.037,10.037,0,0,1,1.546-5.364,1.084,1.084,0,0,0,.633.2h2.178a1.089,1.089,0,0,0,1.011-.685l1.484-3.71a10.1,10.1,0,0,1,1.628-.405l4.556-.735a1.089,1.089,0,0,0,.431-1.982l-.927-.618a4.6,4.6,0,0,1-1.944-3.006,4.526,4.526,0,0,1,1.877-4.443q.037-.026.072-.054l2.169-1.789h4.341l.964,9.635c0,.006,0,.011,0,.017l.609,6.091-6.389,3.651L117.724,62.7a1.088,1.088,0,0,0-1.141-.1L114.4,63.688a1.089,1.089,0,0,0-.419,1.578l1.464,2.2-3.773,1.7a1.089,1.089,0,0,0-.47,1.582l2.768,4.312a1.089,1.089,0,0,0,.917.5c.1,0,7.924-2.22,7.924-2.22.041-.012,11.179-4.65,11.179-4.65a4.379,4.379,0,0,0,.5-.251V81h2.178V48.253A8.725,8.725,0,0,0,144.3,39.61v-.286A9.018,9.018,0,0,0,140.532,32ZM115.4,56.622a12.271,12.271,0,0,0-1.663.389l-.947-.379-1.9,4.761h-.352V58.127h-2.178V60.4a12.155,12.155,0,0,0-2.089,3.089.29.29,0,0,1-.09-.21V59.6l3.791-4.739s6.455,0,6.456,0a6.663,6.663,0,0,0,1.032,1.43Zm7.138-21.7-.756-2.312a1.089,1.089,0,0,0-.433-.569l-1.749-1.16.611-2.707a1.089,1.089,0,0,0-.036-.605l-.533-1.5a6.707,6.707,0,0,1-.227-3.218,11.842,11.842,0,0,0,6.369,4.537v6.947Zm1.185,5.773h1.437l-3.734,3.08V43a2.3,2.3,0,0,1,2.3-2.3Zm2.844,1.663c.042.1.086.193.131.289a5.2,5.2,0,0,0-.405,1.315h-1.671Zm6.588,24.31-11,4.584L115.371,73.2l-1.647-2.567,3.793-1.7a1.089,1.089,0,0,0,.46-1.6l-1.494-2.242.473-.236,3.818,2.864a1.089,1.089,0,0,0,1.194.074l7.624-4.357a1.089,1.089,0,0,0,.543-1.054l-.678-6.779c0-.006,0-.011,0-.017L128.417,45.2a9.784,9.784,0,0,0,6.081,3.066v16.4a2.172,2.172,0,0,1-1.341,2.01Zm8.966-27.062a6.543,6.543,0,0,1-6.535,6.535,7.633,7.633,0,0,1-7.624-7.624V26.54a1.089,1.089,0,0,0-.876-1.068,9.7,9.7,0,0,1-6.681-5.165c.532-.844,2.134-2.724,5.767-2.523l.051,0a8.343,8.343,0,0,1,8.274,8.342,8.255,8.255,0,0,0,3.45,6.7l1.318.941a6.835,6.835,0,0,1,2.856,5.551Z" transform="translate(0 0)"/>
  </g>
</svg>
