<svg xmlns="http://www.w3.org/2000/svg" width="48.653" height="57.24" viewBox="0 0 48.653 57.24">
  <g id="hipertensionarterial" transform="translate(-12.575 -3.499)">
    <path id="Path_1785" data-name="Path 1785" d="M56.755,46.361a20.288,20.288,0,0,0,.36-3.785c0-12.12-19.1-33.991-19.915-34.916a.473.473,0,0,0-.355-.161h0a.471.471,0,0,0-.355.162c-.813.93-19.914,22.925-19.914,34.915A20.26,20.26,0,0,0,48.219,59.345a8.332,8.332,0,1,0,8.536-12.984Z" transform="translate(-2.107 -2.108)" fill="#e6e7e8"/>
    <g id="Group_501" data-name="Group 501" transform="translate(12.575 3.499)">
      <path id="Path_1786" data-name="Path 1786" d="M43.661,51.036a7.811,7.811,0,0,1,9.066-7.764A19.876,19.876,0,0,0,53.17,39.1c0-12.082-19.8-34.6-19.8-34.6s-19.8,22.653-19.8,34.6a19.792,19.792,0,0,0,31.3,16.111,7.815,7.815,0,0,1-1.211-4.178Z" transform="translate(-13.102 -4.026)" fill="#fa759e"/>
      <g id="Group_498" data-name="Group 498" transform="translate(7.658 18.608)">
        <g id="Group_497" data-name="Group 497">
          <circle id="Ellipse_104" data-name="Ellipse 104" cx="12.612" cy="12.612" r="12.612" fill="#d4fbff"/>
          <g id="Group_496" data-name="Group 496" transform="translate(1.697 1.693)">
            <path id="Path_1787" data-name="Path 1787" d="M66.336,69.5A10.934,10.934,0,0,1,55.417,80.416V77.872A8.383,8.383,0,0,0,63.793,69.5h2.543Z" transform="translate(-44.505 -58.577)" fill="#fa759e"/>
            <path id="Path_1788" data-name="Path 1788" d="M66.336,57.333H63.792a8.383,8.383,0,0,0-8.376-8.376V46.413A10.934,10.934,0,0,1,66.336,57.333Z" transform="translate(-44.505 -46.413)" fill="#ffd7e5"/>
            <path id="Path_1789" data-name="Path 1789" d="M43.261,46.413v2.544a8.382,8.382,0,0,0-8.368,8.376H32.35A10.928,10.928,0,0,1,43.261,46.413Z" transform="translate(-32.35 -46.413)" fill="#0089ef"/>
            <path id="Path_1790" data-name="Path 1790" d="M43.261,77.874v2.544A10.927,10.927,0,0,1,32.35,69.5h2.544a8.382,8.382,0,0,0,8.368,8.376Z" transform="translate(-32.35 -58.578)" fill="#6dc9f7"/>
          </g>
        </g>
        <circle id="Ellipse_105" data-name="Ellipse 105" cx="1.773" cy="1.773" r="1.773" transform="translate(10.839 10.485)" fill="#fa759e"/>
      </g>
      <g id="Group_500" data-name="Group 500">
        <circle id="Ellipse_106" data-name="Ellipse 106" cx="7.865" cy="7.865" r="7.865" transform="translate(30.559 39.144)" fill="#ffd7e5"/>
        <path id="Path_1791" data-name="Path 1791" d="M93.01,86.249c-.239,0-.475.015-.71.036a7.861,7.861,0,0,1,0,15.658c.234.021.47.036.71.036a7.865,7.865,0,0,0,0-15.73Z" transform="translate(-54.586 -47.104)" fill="#fff"/>
        <g id="Group_499" data-name="Group 499">
          <path id="Path_1792" data-name="Path 1792" d="M33.956,28.161a.473.473,0,0,0,.39-.2c.687-.994,1.417-2.02,2.17-3.051a.473.473,0,1,0-.764-.558c-.757,1.036-1.492,2.07-2.185,3.071a.473.473,0,0,0,.389.742Z" transform="translate(-23.593 -14.383)"/>
          <path id="Path_1793" data-name="Path 1793" d="M27.764,54.921A13.086,13.086,0,1,0,40.85,41.835,13.1,13.1,0,0,0,27.764,54.921ZM40.849,42.781A12.139,12.139,0,1,1,28.71,54.921,12.153,12.153,0,0,1,40.849,42.781Z" transform="translate(-20.579 -23.7)"/>
          <circle id="Ellipse_107" data-name="Ellipse 107" cx="1.29" cy="1.29" r="1.29" transform="translate(19.107 20.295)"/>
          <circle id="Ellipse_108" data-name="Ellipse 108" cx="1.29" cy="1.29" r="1.29" transform="translate(9.345 29.803)"/>
          <circle id="Ellipse_109" data-name="Ellipse 109" cx="1.29" cy="1.29" r="1.29" transform="translate(18.852 39.565)"/>
          <circle id="Ellipse_110" data-name="Ellipse 110" cx="1.29" cy="1.29" r="1.29" transform="translate(28.615 30.057)"/>
          <path id="Path_1794" data-name="Path 1794" d="M61.708,72.615a.473.473,0,1,0,.473-.819L58.52,69.682a1.768,1.768,0,0,1-.469.822Z" transform="translate(-36.539 -38.374)"/>
          <path id="Path_1795" data-name="Path 1795" d="M52.751,42.36a20.2,20.2,0,0,0,.364-3.784c0-12.12-19.1-33.991-19.915-34.916a.473.473,0,0,0-.355-.161h0a.471.471,0,0,0-.355.162c-.028.032-2.835,3.251-6.285,7.824a.473.473,0,0,0,.755.57c2.716-3.6,5.029-6.354,5.887-7.359,2.665,3.111,19.324,23,19.324,33.879a19.271,19.271,0,0,1-.354,3.636c-.269-.026-.542-.042-.817-.042a8.33,8.33,0,0,0-7.292,12.371A19.3,19.3,0,0,1,13.521,38.575c0-4.468,2.822-11,8.388-19.406a.473.473,0,0,0-.789-.522c-5.67,8.567-8.545,15.272-8.545,19.929a20.25,20.25,0,0,0,31.64,16.763A8.333,8.333,0,1,0,52.751,42.36ZM51,57.9a7.392,7.392,0,1,1,7.391-7.392A7.4,7.4,0,0,1,51,57.9Z" transform="translate(-12.575 -3.499)"/>
          <path id="Path_1796" data-name="Path 1796" d="M92.456,108.454a1.159,1.159,0,0,0-.866.348,1.287,1.287,0,0,0,0,1.746,1.252,1.252,0,0,0,1.731,0,1.289,1.289,0,0,0,0-1.746A1.161,1.161,0,0,0,92.456,108.454Z" transform="translate(-54.032 -58.805)"/>
          <path id="Path_1797" data-name="Path 1797" d="M92.361,92.135a1.38,1.38,0,0,0-.922.312,1.04,1.04,0,0,0-.369.838,1.071,1.071,0,0,0,.014.2l.624,4.967a.81.81,0,0,0,.22.5.635.635,0,0,0,.866,0,.755.755,0,0,0,.206-.5l.639-4.953a1.035,1.035,0,0,0,.014-.2,1.058,1.058,0,0,0-.369-.852A1.382,1.382,0,0,0,92.361,92.135Z" transform="translate(-53.938 -50.206)"/>
        </g>
      </g>
    </g>
  </g>
</svg>
