<svg xmlns="http://www.w3.org/2000/svg" width="20.864" height="19.831" viewBox="0 0 20.864 19.831">
  <g id="home" transform="translate(453.669 -1759.235)">
    <g id="Group_191" data-name="Group 191" transform="translate(-453.669 1759.235)">
      <path id="Path_332" data-name="Path 332" d="M-433.156,1768.046l-1.763-1.606v-5.325a.614.614,0,0,0-.614-.614h-4.243a.614.614,0,0,0-.614.614v.341l-2.129-1.94a1.065,1.065,0,0,0-1.441,0l-9.361,8.53a1.063,1.063,0,0,0-.277,1.177,1.063,1.063,0,0,0,1,.683h1.5v8.546a.614.614,0,0,0,.614.614h5.131a.614.614,0,0,0,.614-.614v-5.189h3.016v5.189a.614.614,0,0,0,.614.614h5.131a.614.614,0,0,0,.614-.614v-8.546h1.5a1.063,1.063,0,0,0,1-.683A1.063,1.063,0,0,0-433.156,1768.046Zm-2.83.634a.614.614,0,0,0-.614.614v8.546h-3.9v-5.189a.614.614,0,0,0-.614-.614h-4.243a.614.614,0,0,0-.614.614v5.189h-3.9v-8.546a.614.614,0,0,0-.614-.614h-1.7l8.955-8.16,3.05,2.779a.613.613,0,0,0,.661.108.613.613,0,0,0,.366-.561v-1.117h3.016v4.983a.613.613,0,0,0,.2.453l1.663,1.515Z" transform="translate(453.669 -1759.235)" fill="#1472ba"/>
    </g>
  </g>
</svg>
