<svg xmlns="http://www.w3.org/2000/svg" width="56.624" height="56.549" viewBox="0 0 56.624 56.549">
  <g id="hospital" transform="translate(0 -0.34)">
    <path id="Path_1816" data-name="Path 1816" d="M59.476,34.178H84.27V84.2H35.5V34.178h6.716" transform="translate(-31.572 -30.096)" fill="#ecedf2"/>
    <path id="Path_1817" data-name="Path 1817" d="M59.476,34.178H84.27v5.143H35.5V34.178h6.716" transform="translate(-31.572 -30.096)" fill="#c6cad5"/>
    <path id="Path_1818" data-name="Path 1818" d="M34.67,20.466H62.549V16.572H7.607v3.894h9.8" transform="translate(-6.766 -14.437)" fill="#525c66"/>
    <circle id="Ellipse_113" data-name="Ellipse 113" cx="10.105" cy="10.105" r="10.105" transform="translate(9.169 1.18)" fill="#fff"/>
    <path id="Path_1819" data-name="Path 1819" d="M129.562,46.271H125.2V41.907H121.23v4.364h-4.365v3.968h4.365V54.6H125.2V50.239h4.365Z" transform="translate(-103.94 -36.97)" fill="#d81616"/>
    <rect id="Rectangle_196" data-name="Rectangle 196" width="54.942" height="3.894" transform="translate(0.841 52.154)" fill="#423e3e"/>
    <g id="Group_524" data-name="Group 524" transform="translate(7.556 11.412)">
      <rect id="Rectangle_197" data-name="Rectangle 197" width="5.465" height="9.979" transform="translate(27.036 13.37)" fill="#a0d9f2"/>
      <rect id="Rectangle_198" data-name="Rectangle 198" width="5.465" height="9.979" transform="translate(9.011 13.37)" fill="#a0d9f2"/>
      <rect id="Rectangle_199" data-name="Rectangle 199" width="5.465" height="9.979" transform="translate(36.047 13.37)" fill="#a0d9f2"/>
      <rect id="Rectangle_200" data-name="Rectangle 200" width="5.465" height="9.979" transform="translate(18.023 13.37)" fill="#a0d9f2"/>
      <rect id="Rectangle_201" data-name="Rectangle 201" width="5.465" height="9.979" transform="translate(0 13.37)" fill="#a0d9f2"/>
      <rect id="Rectangle_202" data-name="Rectangle 202" width="5.465" height="9.979" transform="translate(9.011 26.74)" fill="#a0d9f2"/>
      <rect id="Rectangle_203" data-name="Rectangle 203" width="5.465" height="9.979" transform="translate(18.023 26.74)" fill="#a0d9f2"/>
      <rect id="Rectangle_204" data-name="Rectangle 204" width="5.465" height="9.979" transform="translate(0 26.74)" fill="#a0d9f2"/>
      <rect id="Rectangle_205" data-name="Rectangle 205" width="5.465" height="9.979" transform="translate(27.036)" fill="#a0d9f2"/>
      <rect id="Rectangle_206" data-name="Rectangle 206" width="5.465" height="9.979" transform="translate(36.047)" fill="#a0d9f2"/>
      <rect id="Rectangle_207" data-name="Rectangle 207" width="14.477" height="14.001" transform="translate(27.036 26.74)" fill="#a0d9f2"/>
    </g>
    <path id="Path_1820" data-name="Path 1820" d="M119.276,38.668V35.144a.841.841,0,0,0-.841-.841h-3.968a.841.841,0,0,0-.841.841v3.524H110.1a.841.841,0,0,0-.841.841v3.968a.841.841,0,0,0,.841.841h3.524v3.524a.841.841,0,0,0,.841.841h3.968a.841.841,0,0,0,.841-.841V44.317H122.8a.841.841,0,0,0,.841-.841V39.509a.841.841,0,0,0-.841-.841h-3.523Zm2.683,3.968h-3.524a.841.841,0,0,0-.841.841V47h-2.286V43.476a.841.841,0,0,0-.841-.841h-3.524V40.349h3.524a.841.841,0,0,0,.841-.841V35.985h2.286v3.524a.841.841,0,0,0,.841.841h3.524Z" transform="translate(-97.178 -30.207)"/>
    <path id="Path_1821" data-name="Path 1821" d="M55.783,6.87a.841.841,0,0,0,.841-.841V2.135a.841.841,0,0,0-.841-.841h-5.37a.841.841,0,0,0-.841.841h0a.841.841,0,0,0,.841.841h4.529V5.188H28.359a11.033,11.033,0,0,0-1.969-2.212h20.1a.841.841,0,0,0,.841-.841h0a.841.841,0,0,0-.841-.841H23.741a10.937,10.937,0,0,0-8.936,0H.841A.841.841,0,0,0,0,2.135V6.029a.841.841,0,0,0,.841.841H3.085V36.283a.841.841,0,0,0,.841.841h0a.841.841,0,0,0,.841-.841V6.87H9.259a10.945,10.945,0,1,0,20.028,0h22.57V51.312H49.909V38.152a.841.841,0,0,0-.841-.841H34.592a.841.841,0,0,0-.841.841V51.312H4.767v-11.1a.841.841,0,0,0-.841-.841h0a.841.841,0,0,0-.841.841v11.1H.841A.841.841,0,0,0,0,52.154v3.894a.841.841,0,0,0,.841.841H55.783a.841.841,0,0,0,.841-.841V52.154a.841.841,0,0,0-.841-.841H53.539V6.87ZM3.926,5.188H1.682V2.976H12.157a11.032,11.032,0,0,0-1.969,2.212H3.926ZM19.273,20.549a9.264,9.264,0,1,1,9.263-9.264A9.274,9.274,0,0,1,19.273,20.549Zm23.4,30.763v-8.9h5.556v8.9Zm5.556-12.32v1.738H35.432V38.993Zm-12.794,3.42h5.556v8.9H35.432v-8.9ZM54.942,55.207H1.682V52.995h53.26Z"/>
    <path id="Path_1822" data-name="Path 1822" d="M305.178,224.559a.841.841,0,0,0,.841.841h5.465a.841.841,0,0,0,.841-.841V214.58a.841.841,0,0,0-.841-.841h-5.465a.841.841,0,0,0-.841.841Zm1.682-.841v-5.1h3.783v5.1Zm3.783-8.3v1.514H306.86v-1.514Z" transform="translate(-271.427 -189.798)"/>
    <path id="Path_1823" data-name="Path 1823" d="M143.048,225.4h5.465a.841.841,0,0,0,.841-.841V214.58a.841.841,0,0,0-.841-.841h-5.465a.841.841,0,0,0-.841.841v9.979A.841.841,0,0,0,143.048,225.4Zm.841-1.682v-5.1h3.783v5.1Zm3.783-8.3v1.514h-3.783v-1.514Z" transform="translate(-126.48 -189.798)"/>
    <path id="Path_1824" data-name="Path 1824" d="M386.662,224.559a.841.841,0,0,0,.841.841h5.465a.841.841,0,0,0,.841-.841V214.58a.841.841,0,0,0-.841-.841H387.5a.841.841,0,0,0-.841.841Zm1.682-.841v-5.1h3.783v5.1Zm3.783-8.3v1.514h-3.783v-1.514Z" transform="translate(-343.9 -189.798)"/>
    <path id="Path_1825" data-name="Path 1825" d="M224.533,225.4H230a.841.841,0,0,0,.841-.841V214.58a.841.841,0,0,0-.841-.841h-5.465a.841.841,0,0,0-.841.841v9.979A.841.841,0,0,0,224.533,225.4Zm.841-1.682v-5.1h3.783v5.1Zm3.783-8.3v1.514h-3.783v-1.514Z" transform="translate(-198.953 -189.798)"/>
    <path id="Path_1826" data-name="Path 1826" d="M61.563,225.4h5.465a.841.841,0,0,0,.841-.841V214.58a.841.841,0,0,0-.841-.841H61.563a.841.841,0,0,0-.841.841v9.979A.841.841,0,0,0,61.563,225.4Zm.841-1.682v-5.1h3.783v5.1Zm3.783-8.3v1.514H62.4v-1.514Z" transform="translate(-54.007 -189.798)"/>
    <path id="Path_1827" data-name="Path 1827" d="M142.207,345.455a.841.841,0,0,0,.841.841h5.465a.841.841,0,0,0,.841-.841v-9.979a.841.841,0,0,0-.841-.841h-5.465a.841.841,0,0,0-.841.841Zm1.682-.841v-5.1h3.783v5.1Zm3.783-8.3v1.513h-3.783v-1.513Z" transform="translate(-126.48 -297.324)"/>
    <path id="Path_1828" data-name="Path 1828" d="M223.692,345.454a.841.841,0,0,0,.841.841H230a.841.841,0,0,0,.841-.841v-6.778s0,0,0-.005v-3.194h0a.841.841,0,0,0-.841-.841h-5.465a.841.841,0,0,0-.841.841v9.979Zm1.682-.841v-5.1h3.783v5.1Zm3.783-8.3v1.513h-3.783v-1.513Z" transform="translate(-198.953 -297.323)"/>
    <path id="Path_1829" data-name="Path 1829" d="M60.722,345.455a.841.841,0,0,0,.841.841h5.465a.841.841,0,0,0,.841-.841v-9.979a.841.841,0,0,0-.841-.841H61.563a.841.841,0,0,0-.841.841Zm1.682-.841v-5.1h3.783v5.1Zm3.783-8.3v1.513H62.4v-1.513Z" transform="translate(-54.007 -297.324)"/>
    <path id="Path_1830" data-name="Path 1830" d="M306.018,104.5h5.465a.841.841,0,0,0,.841-.841V93.684a.841.841,0,0,0-.841-.841h-5.465a.841.841,0,0,0-.841.841v9.979A.841.841,0,0,0,306.018,104.5Zm.841-1.682v-5.1h3.783v5.1Zm3.783-8.3v1.514h-3.783V94.525Z" transform="translate(-271.426 -82.273)"/>
    <path id="Path_1831" data-name="Path 1831" d="M387.5,104.5h5.465a.841.841,0,0,0,.841-.841V93.684a.841.841,0,0,0-.841-.841H387.5a.841.841,0,0,0-.841.841v9.979A.841.841,0,0,0,387.5,104.5Zm.841-1.682v-5.1h3.783v5.1Zm3.783-8.3v1.514h-3.783V94.525Z" transform="translate(-343.9 -82.273)"/>
  </g>
</svg>
