<svg xmlns="http://www.w3.org/2000/svg" width="32.705" height="40.881" viewBox="0 0 32.705 40.881">
  <g id="ico-recomendations" transform="translate(-17.295 0)">
    <path id="Path_1359" data-name="Path 1359" d="M270.484,38.661H263.33a15.33,15.33,0,1,1,15.33-15.33V46.837Zm0,0" transform="translate(-229.683 -6.978)" fill="#8bd2f5"/>
    <path id="Path_1367" data-name="Path 1367" d="M271.683,40.881a1.023,1.023,0,0,1-.723-.3L263.083,32.7h-6.731A16.352,16.352,0,1,1,272.7,16.352V39.859a1.023,1.023,0,0,1-.631.944,1,1,0,0,1-.391.078ZM256.352,2.044a14.308,14.308,0,0,0,0,28.616h7.154a1.019,1.019,0,0,1,.723.3l6.432,6.432V16.352A14.324,14.324,0,0,0,256.352,2.044Zm0,0" transform="translate(-222.705)"/>
    <path id="Path_1368" data-name="Path 1368" d="M272,120h24.528v2.044H272Zm0,0" transform="translate(-250.616 -104.67)"/>
    <path id="Path_1369" data-name="Path 1369" d="M272,152h24.528v2.044H272Zm0,0" transform="translate(-250.616 -132.582)"/>
    <path id="Path_1370" data-name="Path 1370" d="M288,88h22.484v2.044H288Zm0,0" transform="translate(-264.572 -76.758)"/>
  </g>
</svg>
