<svg xmlns="http://www.w3.org/2000/svg" viewBox="0 0 512 316.08"><defs><style>.cls-1{fill:#dfebfa;}.cls-2{fill:#bed8fb;}.cls-3{fill:#9dc6fb;}.cls-4{fill:#ff656f;}.cls-5{fill:#ff4756;}</style></defs><title>icon-23</title><g id="Layer_2" data-name="Layer 2"><g id="Layer_1-2" data-name="Layer 1"><path class="cls-1" d="M439.27,7.49H297.83A10.79,10.79,0,0,0,287,18.28V297.82a10.79,10.79,0,0,0,10.79,10.79H493.68a10.79,10.79,0,0,0,10.79-10.79V72.69Z"/><path class="cls-1" d="M159.61,7.49H18.18A10.79,10.79,0,0,0,7.39,18.28V297.82a10.79,10.79,0,0,0,10.79,10.79H214a10.79,10.79,0,0,0,10.78-10.79V72.69Z"/><path class="cls-2" d="M328.06,297.82V18.28A10.79,10.79,0,0,1,338.85,7.49h-41A10.79,10.79,0,0,0,287,18.28V297.82a10.79,10.79,0,0,0,10.79,10.79h41A10.79,10.79,0,0,1,328.06,297.82Z"/><path class="cls-2" d="M48.41,297.82V18.28A10.79,10.79,0,0,1,59.19,7.49h-41A10.79,10.79,0,0,0,7.39,18.28V297.82a10.79,10.79,0,0,0,10.79,10.79h41A10.79,10.79,0,0,1,48.41,297.82Z"/><path class="cls-2" d="M170.4,72.69h54.41l-65.2-65.2V61.9A10.79,10.79,0,0,0,170.4,72.69Z"/><path class="cls-2" d="M450.06,72.69h54.41l-65.2-65.2V61.9A10.79,10.79,0,0,0,450.06,72.69Z"/><path class="cls-3" d="M192.21,61.9V40.09l-32.6-32.6V61.9A10.79,10.79,0,0,0,170.4,72.69H203A10.79,10.79,0,0,1,192.21,61.9Z"/><path class="cls-3" d="M471.87,61.9V40.09l-32.6-32.6V61.9a10.79,10.79,0,0,0,10.79,10.79h32.59A10.79,10.79,0,0,1,471.87,61.9Z"/><path class="cls-4" d="M326.31,158.63l-60.55-38.39a6.47,6.47,0,0,0-9.92,5.46v15.93a5,5,0,0,1-5,5H193.75a6.69,6.69,0,0,0-6.69,6.7v21.53a6.69,6.69,0,0,0,6.69,6.7h57.09a5,5,0,0,1,5,5v15.93a6.46,6.46,0,0,0,9.92,5.46l60.55-38.39A6.46,6.46,0,0,0,326.31,158.63Z"/><path class="cls-5" d="M326.31,158.63l-7-4.46-53.51,33.92a6.46,6.46,0,0,1-9.92-5.46V166.7a5,5,0,0,0-5-5H193.75a6.69,6.69,0,0,1-6.69-6.7v19.85a6.69,6.69,0,0,0,6.69,6.7h57.09a5,5,0,0,1,5,5v15.93a6.46,6.46,0,0,0,9.92,5.46l60.55-38.39A6.46,6.46,0,0,0,326.31,158.63Z"/><path d="M176.38,203.76H56a7.5,7.5,0,1,0,0,15H176.38a7.5,7.5,0,0,0,0-15Z"/><path d="M176.38,233.43H56a7.5,7.5,0,1,0,0,15H176.38a7.5,7.5,0,0,0,0-15Z"/><path d="M176.38,263.1H56a7.5,7.5,0,1,0,0,15H176.38a7.5,7.5,0,0,0,0-15Z"/><path d="M456.51,203.76H336.14a7.5,7.5,0,0,0,0,15H456.51a7.5,7.5,0,0,0,0-15Z"/><path d="M456.51,233.43H336.14a7.5,7.5,0,0,0,0,15H456.51a7.5,7.5,0,0,0,0-15Z"/><path d="M456.51,263.1H336.14a7.5,7.5,0,0,0,0,15H456.51a7.5,7.5,0,0,0,0-15Z"/><path d="M504.5,159.1a7.5,7.5,0,0,0,7.5-7.5V72.69a7.51,7.51,0,0,0-2.2-5.3L444.62,2.2A7.59,7.59,0,0,0,439.31,0H297.9a18.3,18.3,0,0,0-18.29,18.29v101.8l-9.76-6.19a14,14,0,0,0-21.44,11.8v13.42h-16V72.69a7.5,7.5,0,0,0-2.19-5.3L165,2.2A7.57,7.57,0,0,0,159.7,0H107.85a7.5,7.5,0,0,0,0,15H152.2V61.9a18.31,18.31,0,0,0,18.29,18.29h46.9v58.93H193.84a14.21,14.21,0,0,0-14.2,14.19v21.53a14.22,14.22,0,0,0,14.2,14.2h23.55V297.79a3.28,3.28,0,0,1-3.28,3.28H18.29A3.29,3.29,0,0,1,15,297.79V18.29A3.3,3.3,0,0,1,18.29,15H72.85a7.5,7.5,0,0,0,0-15H18.29A18.3,18.3,0,0,0,0,18.29v279.5a18.31,18.31,0,0,0,18.29,18.29H214.1a18.31,18.31,0,0,0,18.29-18.29V189h16v13.42a14,14,0,0,0,21.44,11.79l9.76-6.18v89.72a18.31,18.31,0,0,0,18.29,18.29H493.71A18.31,18.31,0,0,0,512,297.79V186.6a7.5,7.5,0,0,0-15,0V297.79a3.29,3.29,0,0,1-3.29,3.28H297.9a3.28,3.28,0,0,1-3.29-3.28V198.56l35.78-22.69a14,14,0,0,0,0-23.59L294.61,129.6V18.29A3.29,3.29,0,0,1,297.9,15H431.81V61.9A18.3,18.3,0,0,0,450.1,80.19H497V151.6a7.5,7.5,0,0,0,7.5,7.5Zm-334-93.91a3.3,3.3,0,0,1-3.29-3.29V25.61l39.58,39.58Zm92.92,135.38v-14A12.5,12.5,0,0,0,250.92,174H194.64V154.12h56.28a12.51,12.51,0,0,0,12.49-12.5v-14L321,164.08ZM450.1,65.19a3.3,3.3,0,0,1-3.29-3.29V25.61l39.58,39.58Z"/></g></g></svg>