<svg xmlns="http://www.w3.org/2000/svg" width="46.785" height="46.785" viewBox="0 0 46.785 46.785">
  <g id="icon-10" transform="translate(3007.085 1667.138)">
    <g id="Group_111" data-name="Group 111" transform="translate(-2999.539 -1666.383)">
      <g id="Group_98" data-name="Group 98" transform="translate(6.037 40.749)">
        <path id="Path_206" data-name="Path 206" d="M-2847.993-1227.138v4.528h-15.092v-4.528h15.092Z" transform="translate(2863.085 1227.138)" fill="#fcd770"/>
      </g>
      <g id="Group_99" data-name="Group 99" transform="translate(0 22.902)">
        <path id="Path_207" data-name="Path 207" d="M-2905.956-1406.038v3.019h-5.282l-.868-.868a2.193,2.193,0,0,0-1.547-.641,2.187,2.187,0,0,0-1.962,1.215l-.151.294h-5.282v-3.019h-6.037v-2.415a7.743,7.743,0,0,1,2.784-5.946,7.77,7.77,0,0,1,3.992-1.728l1.66-.211,2.128,4.264,3.019-2.264,3.019,2.264,2.128-4.264,1.66.211a7.768,7.768,0,0,1,3.992,1.728,7.732,7.732,0,0,1,2.053,2.664,7.754,7.754,0,0,1,.732,3.282v2.415Z" transform="translate(2927.085 1416.338)" fill="#fcd770"/>
      </g>
      <g id="Group_100" data-name="Group 100" transform="translate(8.436 22.638)">
        <path id="Path_208" data-name="Path 208" d="M-2832.5-1416.874l-3.019,2.264-2.128-4.264,2.128-.264Z" transform="translate(2837.645 1419.138)" fill="#b4dd7f"/>
      </g>
      <g id="Group_101" data-name="Group 101" transform="translate(13.583 22.638)">
        <path id="Path_209" data-name="Path 209" d="M-2777.938-1418.874l-2.128,4.264-3.019-2.264,3.019-2.264Z" transform="translate(2783.085 1419.138)" fill="#b4dd7f"/>
      </g>
      <g id="Group_102" data-name="Group 102" transform="translate(3.773 0)">
        <path id="Path_210" data-name="Path 210" d="M-2871.374-1650.958a3.047,3.047,0,0,1-2.128.875h-.2a18.474,18.474,0,0,1-6.9-1.328,2.524,2.524,0,0,0-.943-.181,2.54,2.54,0,0,0-1.788.739,2.559,2.559,0,0,0-.739,1.8v1.238h-.755a2.243,2.243,0,0,0-1.547.611l-.476-1.909a8.172,8.172,0,0,1-.241-1.962,8.057,8.057,0,0,1,8.059-8.059h3.5a8.036,8.036,0,0,1,5.7,2.362,8.035,8.035,0,0,1,2.362,5.7,8.172,8.172,0,0,1-.241,1.962l-.475,1.909a2.245,2.245,0,0,0-1.547-.611h-.754v-.7a3.788,3.788,0,0,0-.89-2.437Z" transform="translate(2887.085 1659.138)" fill="#656d78"/>
      </g>
      <g id="Group_103" data-name="Group 103" transform="translate(26.411 6.037)">
        <path id="Path_211" data-name="Path 211" d="M-2635.011-1593.629v7.546a1.514,1.514,0,0,1-1.509,1.509h-5.856a1.509,1.509,0,0,0-1.351.838l-.709,1.411a1.4,1.4,0,0,1-1.253.77,1.4,1.4,0,0,1-1.4-1.4v-10.678a1.514,1.514,0,0,1,1.509-1.509h9.055a1.514,1.514,0,0,1,1.509,1.509Z" transform="translate(2647.085 1595.138)" fill="#e6e9ed"/>
      </g>
      <g id="Group_104" data-name="Group 104" transform="translate(30.939 9.055)">
        <path id="Path_212" data-name="Path 212" d="M-2596.066-1560.119a1.514,1.514,0,0,1-1.509,1.509,1.514,1.514,0,0,1-1.509-1.509c0-.755,1.509-3.019,1.509-3.019S-2596.066-1560.874-2596.066-1560.119Z" transform="translate(2599.085 1563.138)" fill="#ff826e"/>
      </g>
      <g id="Group_105" data-name="Group 105" transform="translate(10.564 19.778)">
        <path id="Path_213" data-name="Path 213" d="M-2809.048-1449.458v2.86l-3.019,2.264-3.018-2.264v-2.86a6.485,6.485,0,0,0,2.709.6h.611A6.546,6.546,0,0,0-2809.048-1449.458Z" transform="translate(2815.085 1449.458)" fill="#f0d0b4"/>
      </g>
      <g id="Group_106" data-name="Group 106" transform="translate(20.072 11.319)">
        <path id="Path_214" data-name="Path 214" d="M-2711.629-1535.274a2.258,2.258,0,0,1-1.6.664h-1.056c.3-1.841.3-1.9.3-1.962v-2.566h.755a2.246,2.246,0,0,1,1.547.611,2.251,2.251,0,0,1,.717,1.653,2.258,2.258,0,0,1-.664,1.6Z" transform="translate(2714.285 1539.138)" fill="#f0d0b4"/>
      </g>
      <g id="Group_107" data-name="Group 107" transform="translate(6.791 7.546)">
        <path id="Path_215" data-name="Path 215" d="M-2841.5-1572.8c0,.061,0,.121-.3,1.962l-.792,1.637a6.5,6.5,0,0,1-2.679,2.294,6.544,6.544,0,0,1-2.717.6h-.611a6.482,6.482,0,0,1-2.709-.6c-.121-.053-.234-.113-.347-.174a6.477,6.477,0,0,1-2.332-2.12,6.573,6.573,0,0,1-.792-1.637,6.577,6.577,0,0,1-.3-1.962v-3.8a2.557,2.557,0,0,1,.739-1.8,2.54,2.54,0,0,1,1.789-.74,2.524,2.524,0,0,1,.943.181,18.474,18.474,0,0,0,6.9,1.328h.2a3.046,3.046,0,0,0,2.128-.875,3.79,3.79,0,0,1,.89,2.437v3.267Z" transform="translate(2855.085 1579.138)" fill="#f0d0b4"/>
      </g>
      <g id="Group_108" data-name="Group 108" transform="translate(3.773 11.319)">
        <path id="Path_216" data-name="Path 216" d="M-2884.066-1536.572a6.574,6.574,0,0,0,.3,1.962h-1.056a2.258,2.258,0,0,1-1.6-.664,2.258,2.258,0,0,1-.664-1.6,2.25,2.25,0,0,1,.717-1.653,2.245,2.245,0,0,1,1.547-.611h.755Z" transform="translate(2887.085 1539.138)" fill="#f0d0b4"/>
      </g>
      <g id="Group_109" data-name="Group 109" transform="translate(16.601 33.203)">
        <path id="Path_217" data-name="Path 217" d="M-2746.557-1304.119v-3.019h6.037v3.773a3.774,3.774,0,0,1-3.773,3.773h-6.791a2.261,2.261,0,0,0,2.263-2.264,2.257,2.257,0,0,0-.664-1.6,2.258,2.258,0,0,0-1.6-.664Z" transform="translate(2751.085 1307.138)" fill="#f0d0b4"/>
      </g>
      <g id="Group_110" data-name="Group 110" transform="translate(0 33.203)">
        <path id="Path_218" data-name="Path 218" d="M-2910.483-1304.119a2.258,2.258,0,0,1,1.6.664,2.258,2.258,0,0,1,.664,1.6,2.261,2.261,0,0,1-2.263,2.264h-12.828a3.774,3.774,0,0,1-3.773-3.773v-3.773h6.037v3.019h5.282l.151-.294a2.188,2.188,0,0,1,1.962-1.215,2.193,2.193,0,0,1,1.547.641l.868.868Z" transform="translate(2927.085 1307.138)" fill="#f0d0b4"/>
      </g>
    </g>
    <g id="Group_112" data-name="Group 112" transform="translate(-3007.085 -1667.138)">
      <path id="Path_219" data-name="Path 219" d="M-2815.857-1488.745a3.053,3.053,0,0,0,2.175-.9l.076-.075-1.067-1.067-.076.076a1.6,1.6,0,0,1-1.807.293l-.528-.264a3.128,3.128,0,0,0-3.548.573l-.075.075,1.061,1.073.078-.079a1.591,1.591,0,0,1,1.807-.293l.528.264a3.092,3.092,0,0,0,1.376.324Z" transform="translate(2838.289 1507.612)"/>
      <path id="Path_220" data-name="Path 220" d="M-2834.694-1545.794l-.839,1.256,1.323.883-1.321.88.836,1.256,3.207-2.134Z" transform="translate(2851.715 1557.24)"/>
      <path id="Path_221" data-name="Path 221" d="M-2769.467-1542.776l-1.321-.88,1.323-.883-.839-1.256-3.205,2.14,3.207,2.134Z" transform="translate(2795.541 1557.24)"/>
      <path id="Path_222" data-name="Path 222" d="M-2906.41-1635.593a8.471,8.471,0,0,0-3.056-6.525,8.476,8.476,0,0,0-4.385-1.9l-3.124-.392v-1.73a7.243,7.243,0,0,0,2.556-2.338,7.179,7.179,0,0,0,.668-1.3h.549a3.021,3.021,0,0,0,3.018-3.018,2.987,2.987,0,0,0-.648-1.847l.385-1.537a8.815,8.815,0,0,0,.264-2.138,8.827,8.827,0,0,0-8.817-8.818h-3.495a8.827,8.827,0,0,0-8.817,8.818,8.779,8.779,0,0,0,.264,2.138l.384,1.538a2.985,2.985,0,0,0-.648,1.846,3.022,3.022,0,0,0,3.019,3.018h.548a7.323,7.323,0,0,0,.669,1.3,7.23,7.23,0,0,0,2.556,2.338v1.73l-3.125.39a8.485,8.485,0,0,0-4.384,1.9,8.475,8.475,0,0,0-3.056,6.526v6.185a4.532,4.532,0,0,0,4.527,4.528h1.509v4.528h16.6v-4.528h1.509a4.532,4.532,0,0,0,4.528-4.528Zm-15.595-5.889-1.49,1.118-1.249-2.5.77-.1Zm4.485-1.478.77.1-1.249,2.5-1.491-1.118Zm4.319-8.33h-.11a7.3,7.3,0,0,0,.11-1.21v-1.808a1.511,1.511,0,0,1,1.509,1.509A1.511,1.511,0,0,1-2913.2-1651.289Zm-15.092,0a1.511,1.511,0,0,1-1.509-1.509,1.511,1.511,0,0,1,1.509-1.509v1.807a7.194,7.194,0,0,0,.111,1.211Zm0-5.015v.487a2.99,2.99,0,0,0-1.058.2l-.233-.933a7.36,7.36,0,0,1-.218-1.772,7.317,7.317,0,0,1,7.308-7.308H-2919a7.317,7.317,0,0,1,7.308,7.308,7.356,7.356,0,0,1-.218,1.773l-.233.933a2.987,2.987,0,0,0-1.058-.2h0a4.533,4.533,0,0,0-.688-2.352,3.759,3.759,0,0,0,.692-2.176,3.777,3.777,0,0,0-3.773-3.773,3.777,3.777,0,0,0-3.773,3.773v.755h1.509v-.755a2.267,2.267,0,0,1,2.264-2.264,2.267,2.267,0,0,1,2.264,2.264,2.267,2.267,0,0,1-2.264,2.264h-.2a17.75,17.75,0,0,1-6.618-1.274,3.271,3.271,0,0,0-1.219-.236,3.289,3.289,0,0,0-3.285,3.286Zm2.473,6.987a5.718,5.718,0,0,1-.964-3.184v-3.8a1.779,1.779,0,0,1,1.776-1.776,1.773,1.773,0,0,1,.66.128,19.238,19.238,0,0,0,7.177,1.382h.2a3.753,3.753,0,0,0,1.945-.541,3.014,3.014,0,0,1,.318,1.349v3.264a5.714,5.714,0,0,1-.964,3.182,5.722,5.722,0,0,1-4.77,2.553h-.612a5.72,5.72,0,0,1-4.765-2.553Zm4.765,4.062h.612a7.27,7.27,0,0,0,1.961-.278v1.41l-2.264,1.7-2.264-1.7v-1.411a7.19,7.19,0,0,0,1.955.278Zm-10.007,4.3a6.958,6.958,0,0,1,3.6-1.565l1.125-.14,2.3,4.593,3.289-2.467,3.289,2.467,2.3-4.593,1.125.14a6.97,6.97,0,0,1,3.6,1.565,6.965,6.965,0,0,1,2.513,5.365v1.658h-4.528v-3.018h-1.509v6.037h-4.215l-.645-.645a2.924,2.924,0,0,0-2.084-.864,2.932,2.932,0,0,0-2.573,1.509h-4.064v-6.037h-1.509v3.018h-4.527v-1.657A6.964,6.964,0,0,1-2931.062-1640.958Zm-2.513,11.551v-3.018h4.527v1.509h-1.509v1.509h8.013l.356-.713a1.429,1.429,0,0,1,1.287-.8,1.429,1.429,0,0,1,1.018.422l1.087,1.087h1.067a1.511,1.511,0,0,1,1.509,1.509,1.511,1.511,0,0,1-1.509,1.509h-12.828A3.021,3.021,0,0,1-2933.575-1629.408Zm19.619,7.546h-13.583v-3.018h13.583Zm3.019-4.528h-4.193a2.988,2.988,0,0,0,.419-1.509,2.989,2.989,0,0,0-.419-1.509h4.193v-1.509h-1.509v-1.509h4.528v3.018A3.021,3.021,0,0,1-2910.937-1626.389Z" transform="translate(2941.876 1667.138)"/>
      <path id="Path_223" data-name="Path 223" d="M-2604.821-1577.562l-.627.942c-.492.738-1.636,2.55-1.636,3.437a2.266,2.266,0,0,0,2.263,2.264,2.267,2.267,0,0,0,2.264-2.264c0-.887-1.144-2.7-1.636-3.437Zm0,5.133a.753.753,0,0,1-.754-.747,6.388,6.388,0,0,1,.754-1.6,6.436,6.436,0,0,1,.755,1.6A.756.756,0,0,1-2604.821-1572.429Z" transform="translate(2644.815 1586.011)"/>
      <path id="Path_224" data-name="Path 224" d="M-2643.766-1603.138h-9.055a2.267,2.267,0,0,0-2.264,2.264v10.675a2.156,2.156,0,0,0,2.154,2.154,2.143,2.143,0,0,0,1.927-1.191l.705-1.41a.749.749,0,0,1,.675-.417h5.859a2.266,2.266,0,0,0,2.264-2.264v-7.546a2.267,2.267,0,0,0-2.264-2.264Zm.754,9.81a.755.755,0,0,1-.754.754h-5.859a2.253,2.253,0,0,0-2.025,1.251l-.706,1.41a.638.638,0,0,1-.576.357.646.646,0,0,1-.644-.644v-10.675a.755.755,0,0,1,.754-.755h9.055a.755.755,0,0,1,.754.755Z" transform="translate(2688.287 1609.175)"/>
      <path id="Path_225" data-name="Path 225" d="M-3003.048-1280.325l.182-.732a.755.755,0,0,1,.733-.572h.331v-1.509h-.331a2.261,2.261,0,0,0-2.2,1.714l-.182.732a.757.757,0,0,1-.733.572h-1.84v1.509h1.84A2.263,2.263,0,0,0-3003.048-1280.325Z" transform="translate(3007.085 1319.359)"/>
      <path id="Path_226" data-name="Path 226" d="M-3003.048-1344.325l.182-.732a.755.755,0,0,1,.733-.572h.331v-1.509h-.331a2.262,2.262,0,0,0-2.2,1.714l-.182.732a.757.757,0,0,1-.733.572h-1.84v1.509h1.84A2.263,2.263,0,0,0-3003.048-1344.325Z" transform="translate(3007.085 1377.322)"/>
      <path id="Path_227" data-name="Path 227" d="M-2982.63-1234.042a2.571,2.571,0,0,0-1.43,2.313,1.072,1.072,0,0,1-.6.963l-2.005,1,.675,1.35,2.006-1a2.571,2.571,0,0,0,1.43-2.313,1.071,1.071,0,0,1,.6-.963l.5-.248-.676-1.35Z" transform="translate(2988.587 1275.119)"/>
      <path id="Path_228" data-name="Path 228" d="M-2612.374-1280.691l-.184-.733a2.261,2.261,0,0,0-2.2-1.714h-.331v1.509h.331a.754.754,0,0,1,.732.571l.184.734a2.261,2.261,0,0,0,2.2,1.714h1.84v-1.509h-1.84A.753.753,0,0,1-2612.374-1280.691Z" transform="translate(2652.061 1319.359)"/>
      <path id="Path_229" data-name="Path 229" d="M-2612.374-1344.691l-.184-.733a2.261,2.261,0,0,0-2.2-1.714h-.331v1.509h.331a.754.754,0,0,1,.732.571l.184.734a2.261,2.261,0,0,0,2.2,1.714h1.84v-1.509h-1.84A.753.753,0,0,1-2612.374-1344.691Z" transform="translate(2652.061 1377.322)"/>
      <path id="Path_230" data-name="Path 230" d="M-2632.067-1231.729a2.571,2.571,0,0,0-1.43-2.313l-.5-.248-.675,1.35.5.248a1.07,1.07,0,0,1,.6.963,2.571,2.571,0,0,0,1.43,2.313l2.006,1,.675-1.35-2.006-1A1.071,1.071,0,0,1-2632.067-1231.729Z" transform="translate(2669.797 1275.119)"/>
    </g>
  </g>
</svg>
