<svg xmlns="http://www.w3.org/2000/svg" width="29.977" height="42.964" viewBox="0 0 29.977 42.964">
  <g id="icon-4" transform="translate(-77.384 0)">
    <path id="SVGCleanerId_0" data-name="SVGCleanerId 0" d="M111.456,122.288H87.032a2.147,2.147,0,0,1-2.147-2.147V89.424a2.147,2.147,0,0,1,2.147-2.147h24.424a2.147,2.147,0,0,1,2.147,2.147v30.717A2.147,2.147,0,0,1,111.456,122.288Z" transform="translate(-6.872 -79.954)" fill="#76b7eb"/>
    <g id="Group_19" data-name="Group 19" transform="translate(78.013 7.323)">
      <path id="SVGCleanerId_0-2" data-name="SVGCleanerId 0" d="M111.456,122.288H87.032a2.147,2.147,0,0,1-2.147-2.147V89.424a2.147,2.147,0,0,1,2.147-2.147h24.424a2.147,2.147,0,0,1,2.147,2.147v30.717A2.147,2.147,0,0,1,111.456,122.288Z" transform="translate(-84.885 -87.277)" fill="#76b7eb"/>
    </g>
    <path id="Path_31" data-name="Path 31" d="M116.757,163.544V136.416a1.267,1.267,0,0,1,1.267-1.267h20.835a1.267,1.267,0,0,1,1.267,1.267v27.128a1.267,1.267,0,0,1-1.267,1.267H118.024A1.267,1.267,0,0,1,116.757,163.544Z" transform="translate(-36.069 -123.808)" opacity="0.1" style="isolation: isolate"/>
    <path id="Path_32" data-name="Path 32" d="M116.757,147.544V120.416a1.267,1.267,0,0,1,1.267-1.267h20.835a1.267,1.267,0,0,1,1.267,1.267v27.128a1.267,1.267,0,0,1-1.267,1.267H118.024A1.267,1.267,0,0,1,116.757,147.544Z" transform="translate(-36.069 -109.151)" fill="#fff"/>
    <path id="Path_33" data-name="Path 33" d="M148.649,175.552v-2.2a.365.365,0,0,0-.365-.365h-2.222a.365.365,0,0,0-.365.365v2.2a.29.29,0,0,1-.29.289h-2.2a.365.365,0,0,0-.365.365v2.222a.365.365,0,0,0,.365.365h2.2a.29.29,0,0,1,.29.29v2.2a.365.365,0,0,0,.365.365h2.222a.365.365,0,0,0,.365-.365v-2.2a.29.29,0,0,1,.289-.29h2.2a.365.365,0,0,0,.365-.365v-2.222a.365.365,0,0,0-.365-.365h-2.2A.29.29,0,0,1,148.649,175.552Z" transform="translate(-59.971 -158.476)" fill="#f28b74"/>
    <path id="Path_34" data-name="Path 34" d="M279.977,183.893h-6.7a.7.7,0,0,1-.7-.7v-.964a.7.7,0,0,1,.7-.7h6.7a.7.7,0,0,1,.7.7v.964A.7.7,0,0,1,279.977,183.893Z" transform="translate(-178.813 -166.288)" fill="#7fdbd5"/>
    <g id="Group_20" data-name="Group 20" transform="translate(84.083 33.49)">
      <ellipse id="Ellipse_8" data-name="Ellipse 8" cx="2.234" cy="1.779" rx="2.234" ry="1.779" fill="#f28b74"/>
      <ellipse id="Ellipse_9" data-name="Ellipse 9" cx="2.234" cy="1.779" rx="2.234" ry="1.779" transform="translate(12.111)" fill="#f28b74"/>
    </g>
    <path id="Path_35" data-name="Path 35" d="M87.032,87.276a2.147,2.147,0,0,0-2.147,2.147V120.14a2.147,2.147,0,0,0,2.147,2.147h13.126c-10.159-5.2-9.374-24.878-9.1-35.011Z" transform="translate(-6.872 -79.953)" opacity="0.1" style="isolation: isolate"/>
    <path id="Path_36" data-name="Path 36" d="M199.395,12.735h-1.269a.677.677,0,0,1-.639-.914,3.171,3.171,0,1,0-5.918-.021.682.682,0,0,1-.63.935h-1.269a.768.768,0,0,0-.768.768v4.233a.768.768,0,0,0,.768.768h9.726a.768.768,0,0,0,.768-.768V13.5A.768.768,0,0,0,199.395,12.735Zm-4.863-.814a1.249,1.249,0,1,1,1.249-1.249A1.249,1.249,0,0,1,194.532,11.921Z" transform="translate(-102.159 -6.872)" fill="#bdc0c3"/>
    <path id="Path_37" data-name="Path 37" d="M192.892,18.573a8.592,8.592,0,0,1-.167-4.339,3.173,3.173,0,0,0-1.156,3.736.682.682,0,0,1-.631.933h-1.269a.768.768,0,0,0-.768.768V23.9a.768.768,0,0,0,.768.768h5.96a5.939,5.939,0,0,1-2.541-5.006A3.2,3.2,0,0,0,192.892,18.573Z" transform="translate(-102.159 -13.04)" opacity="0.1" style="isolation: isolate"/>
    <g id="Group_21" data-name="Group 21" transform="translate(89.326 7.194)" opacity="0.1">
      <path id="Path_38" data-name="Path 38" d="M225.159,86.99h-4.835a.629.629,0,1,1,0-1.259h4.835a.629.629,0,0,1,0,1.259Z" transform="translate(-219.695 -85.731)"/>
      <path id="Path_39" data-name="Path 39" d="M225.159,109.026h-4.835a.629.629,0,1,1,0-1.259h4.835a.629.629,0,0,1,0,1.259Z" transform="translate(-219.695 -105.918)"/>
    </g>
    <path id="Path_40" data-name="Path 40" d="M94.039,33.055a.629.629,0,0,0-.888.061,1.032,1.032,0,0,1-1.557,0,.629.629,0,1,0-.949.827,2.29,2.29,0,0,0,3.455,0A.629.629,0,0,0,94.039,33.055ZM92.373,5.678A1.879,1.879,0,1,0,90.494,3.8,1.881,1.881,0,0,0,92.373,5.678Zm0-2.5a.62.62,0,1,1-.62.62A.621.621,0,0,1,92.373,3.18Zm14.359,11.514a.629.629,0,0,0-.629.629V40.188a1.519,1.519,0,0,1-1.518,1.518h-20.5a.629.629,0,0,0,0,1.259h20.5a2.78,2.78,0,0,0,2.776-2.776V15.323A.629.629,0,0,0,106.732,14.694ZM87.619,32.076a.629.629,0,0,0-.629.629v.789a.629.629,0,0,0,1.259,0v-.789A.629.629,0,0,0,87.619,32.076Zm9.507,0a.629.629,0,0,0-.629.629v.789a.629.629,0,0,0,1.259,0v-.789A.629.629,0,0,0,97.126,32.076ZM93.9,19.929a.629.629,0,0,0,.629.629H101.1a.629.629,0,0,0,0-1.259H94.528A.629.629,0,0,0,93.9,19.929ZM104.585,6.694H98.633V6.631a1.4,1.4,0,0,0-1.4-1.4H95.967a.055.055,0,0,1-.047-.026c-.011-.016-.008-.024-.006-.03a3.8,3.8,0,1,0-7.093-.025.063.063,0,0,1-.005.062.039.039,0,0,1-.037.019H87.51a1.4,1.4,0,0,0-1.4,1.4v.063H80.16A2.78,2.78,0,0,0,77.384,9.47V40.187a2.78,2.78,0,0,0,2.776,2.776H81.1a.629.629,0,1,0,0-1.259H80.16a1.519,1.519,0,0,1-1.518-1.518V9.47A1.519,1.519,0,0,1,80.16,7.953h5.952V9.369H81.955a1.9,1.9,0,0,0-1.9,1.9V38.393a1.9,1.9,0,0,0,1.9,1.9H102.79a1.9,1.9,0,0,0,1.9-1.9V11.265a1.9,1.9,0,0,0-1.9-1.9H98.633V7.953h5.952A1.519,1.519,0,0,1,106.1,9.47v2.906a.629.629,0,1,0,1.259,0V9.47A2.78,2.78,0,0,0,104.585,6.694ZM87.371,10h0V7.324h0V6.631a.138.138,0,0,1,.138-.138h1.269a1.3,1.3,0,0,0,1.074-.564A1.325,1.325,0,0,0,90,4.7a2.541,2.541,0,1,1,4.744.017,1.29,1.29,0,0,0,.139,1.2,1.315,1.315,0,0,0,1.086.574h1.269a.138.138,0,0,1,.138.138v.692h0V10h0v.865a.138.138,0,0,1-.138.138H87.51a.138.138,0,0,1-.138-.138V10Zm15.419.629a.639.639,0,0,1,.638.638V38.393a.638.638,0,0,1-.638.638H81.955a.639.639,0,0,1-.638-.638V11.265a.639.639,0,0,1,.638-.638h4.157v.237a1.4,1.4,0,0,0,1.4,1.4h9.726a1.4,1.4,0,0,0,1.4-1.4v-.237Zm-2.7,17.653H84.657a.629.629,0,0,0,0,1.259h15.431a.629.629,0,0,0,0-1.259Zm0-2.324H84.657a.629.629,0,0,0,0,1.259h15.431a.629.629,0,0,0,0-1.259Z" transform="translate(0 0)"/>
  </g>
</svg>
