<svg id="icon-17" xmlns="http://www.w3.org/2000/svg" width="17.978" height="40.937" viewBox="0 0 17.978 40.937">
  <path id="Path_409" data-name="Path 409" d="M4327.745-3741.728a4.035,4.035,0,0,0-2.508-.457,1.964,1.964,0,0,0-.912.139v-.1a4.4,4.4,0,0,0,.615-3.66v-.212l.8-1.306-.071-.776a.845.845,0,0,1,.844-.923l.756,0a11.925,11.925,0,0,0,3.787-1.636h.075a9.919,9.919,0,0,1,.424,2.365l.511,1.209a.362.362,0,0,1-.233.489c-.206.092-.812.071-.918.64-.117.626-.476,1.774-1.555,1.929C4328.3-3743.877,4327.8-3742.765,4327.745-3741.728Z" transform="translate(-4316.388 3755.649)" fill="#f4d44e"/>
  <path id="Path_410" data-name="Path 410" d="M4324.325-3742.214a2.239,2.239,0,0,1,1.64-2.248c1.378-.2,2.414-2.309,1.666-5.3a7.567,7.567,0,0,0,1.6-.9h.075a9.919,9.919,0,0,1,.424,2.365l.511,1.209a.362.362,0,0,1-.233.489c-.205.092-.812.071-.918.64-.117.626-.476,1.774-1.555,1.928a2.229,2.229,0,0,0-1.612,2.3A3.431,3.431,0,0,0,4324.325-3742.214Z" transform="translate(-4314.565 3755.652)" fill="#e8c842"/>
  <path id="Path_411" data-name="Path 411" d="M4353.59-3647.108s2.481-.408,3.386,1.44a17,17,0,0,1,.869,9.138h-4.533Z" transform="translate(-4344.74 3660.413)" fill="#db4e33"/>
  <path id="Path_412" data-name="Path 412" d="M4463.921-3403.743l1.317-.6,2.178,2.921a4.662,4.662,0,0,1-1.642,3.761.808.808,0,0,1-1.229-.614l-1.122-4.552A.863.863,0,0,1,4463.921-3403.743Z" transform="translate(-4462.834 3437.02)" fill="#656566"/>
  <path id="Path_413" data-name="Path 413" d="M4465.423-3388.532l1.235,1.657a4.662,4.662,0,0,1-1.643,3.761.808.808,0,0,1-1.229-.614l-.374-1.517C4464.279-3385.271,4465.245-3386.893,4465.423-3388.532Z" transform="translate(-4462.076 3422.477)" fill="#545456"/>
  <path id="Path_414" data-name="Path 414" d="M4392.957-3492.876a1.237,1.237,0,0,0,.566-1.2,5.993,5.993,0,0,1,.784-3.629l.125.075a7.175,7.175,0,0,0,2.078,3.971,1.3,1.3,0,0,1,.431.977v1.866l-5.2,3.387a.916.916,0,0,1-1.265-.263l-1.68-2.549Z" transform="translate(-4386.392 3522.916)" fill="#5085ba"/>
  <path id="Path_415" data-name="Path 415" d="M4389.945-3438.2l5.825-4.267c.245.477.109.779.147,2.474l-5.2,3.386a.915.915,0,0,1-1.265-.263l-.7-1.069A1.509,1.509,0,0,0,4389.945-3438.2Z" transform="translate(-4385.369 3472.104)" fill="#3a77aa"/>
  <path id="Path_416" data-name="Path 416" d="M4336.479-3515.375h2.171c.926,2.346,2.007,3.575,1.851,5.867l-.506,7.471h-4.077v-6.821a1.33,1.33,0,0,0-.448-.993,7.748,7.748,0,0,1-2.183-4.829A16.108,16.108,0,0,1,4336.479-3515.375Z" transform="translate(-4325.53 3539.178)" fill="#5085ba"/>
  <path id="Path_417" data-name="Path 417" d="M4333.289-3515.375h2.133c.926,2.346,2.007,3.575,1.85,5.867l-.506,7.471h-2.133l.506-7.471C4335.3-3511.8,4334.216-3513.025,4333.289-3515.375Z" transform="translate(-4322.3 3539.178)" fill="#3a77aa"/>
  <path id="Path_418" data-name="Path 418" d="M4307.316-3349.554a3.918,3.918,0,0,1,2.9,2.311.767.767,0,0,1-.9.956l-5.711-.028c-.386-.033-.489-.334-.489-.741l.124-2.5Z" transform="translate(-4292.851 3386.615)" fill="#656566"/>
  <path id="Path_419" data-name="Path 419" d="M4305.048-3347.409a4.121,4.121,0,0,0-1.931-2.145h2.142a3.918,3.918,0,0,1,2.9,2.311.767.767,0,0,1-.9.956l-2.892-.014A.867.867,0,0,0,4305.048-3347.409Z" transform="translate(-4290.793 3386.615)" fill="#545456"/>
  <path id="Path_420" data-name="Path 420" d="M4344.368-3596.458a8.6,8.6,0,0,1,.452-3.6l3.035.264a13.656,13.656,0,0,1-.468,3.593.934.934,0,0,0,.12.793c2.837,4.211,2.437,3.888,2.689,4.032l1.2.679a.626.626,0,0,1,.244.843h0a.421.421,0,0,0,.044.46,1.118,1.118,0,0,1-.365,1.679h0a1.565,1.565,0,0,1-2.039-.541c-.824-1.279-.86-1.392-1.146-1.608a10.036,10.036,0,0,1-3.387-4.433,6.28,6.28,0,0,0-.239-.623C4344.224-3595.564,4344.4-3595.9,4344.368-3596.458Z" transform="translate(-4337.824 3617.093)" fill="#f4d44e"/>
  <path id="Path_421" data-name="Path 421" d="M4344.758-3593.146a6.272,6.272,0,0,0-.239-.623c-.292-.642-.111-.974-.147-1.535a9.368,9.368,0,0,1,.335-3.315l1.709.149a13.644,13.644,0,0,1-.468,3.593.935.935,0,0,0,.121.793c2.837,4.212,2.436,3.889,2.689,4.032l1.2.679a.626.626,0,0,1,.244.843.42.42,0,0,0,.044.46,1.116,1.116,0,0,1-.207,1.578,1.56,1.56,0,0,1-.754-.612c-.823-1.279-.859-1.392-1.146-1.609A10.037,10.037,0,0,1,4344.758-3593.146Z" transform="translate(-4336.386 3615.765)" fill="#e8c842"/>
  <path id="Path_422" data-name="Path 422" d="M4411.78-3641.919l.138-1.586a1.982,1.982,0,0,1,1.277-1.678,2.034,2.034,0,0,1,.715,1.74c-.2,1.9-.1,1.976-.285,2.152l-1.422-.124A.466.466,0,0,1,4411.78-3641.919Z" transform="translate(-4405.208 3658.607)" fill="#ed694a"/>
  <path id="Path_423" data-name="Path 423" d="M4389.587-3642.8a.341.341,0,0,0,.363-.318l.156-1.791a1.905,1.905,0,0,0-.749-1.695,1.9,1.9,0,0,1,2.714,1.866l-.156,1.791a.348.348,0,0,1-.378.317l-3.035-.264Z" transform="translate(-4381.508 3660.081)" fill="#db4e33"/>
  <path id="Path_424" data-name="Path 424" d="M4326.651-3804.558s3.375-2.561,6.361.426c3.014,3.013-3.993,4.66-3.993,4.66l-.756,0a.845.845,0,0,0-.844.923,1.518,1.518,0,0,1-.109,1.072l-.7,1.143C4321.427-3801.912,4326.651-3804.558,4326.651-3804.558Z" transform="translate(-4318.061 3806.179)" fill="#cc9d72"/>
  <path id="Path_425" data-name="Path 425" d="M4329.44-3802.953a4.539,4.539,0,0,0-5.123-1.083,4.592,4.592,0,0,1,.76-.522s3.375-2.561,6.361.426c1.887,1.887-.154,3.237-1.944,3.984C4330.29-3800.88,4330.573-3801.82,4329.44-3802.953Z" transform="translate(-4316.488 3806.179)" fill="#c19067"/>
  <path id="Path_426" data-name="Path 426" d="M4296.731-3780.325l1.277-.578,4.114-2.611a.636.636,0,0,0,.291-.611,6.865,6.865,0,0,1,.612-3.823c-.023-.139-.065-.413-.072-.546a12.336,12.336,0,0,1-.93-2.117,2.591,2.591,0,0,1-.156-.455.6.6,0,0,1,.443-.723.6.6,0,0,1,.724.442c.063.259.131.283.342.921a9.458,9.458,0,0,0,3.171,4.132c.479.361.575.706,1.286,1.759.427.664,1.4.516,1.519-.015a.508.508,0,0,0-.1-.434,1.015,1.015,0,0,1-.094-1.1c.024-.043.006-.013-1.211-.712-.469-.265-.04-.014-3.143-4.591-.37-.545.353-.716.489-3.62l-2.02-.176a5.855,5.855,0,0,0-.232,1.239.6.6,0,0,1-.651.543.6.6,0,0,1-.543-.651,7.038,7.038,0,0,1,.29-1.51,1.063,1.063,0,0,1-.279-.813l.138-1.583a2.572,2.572,0,0,1,1.447-2.092,3.819,3.819,0,0,0,.463-2.882c-1.826-2-2.6-3.9-2.285-5.643a5.14,5.14,0,0,1,2.547-3.382,6.483,6.483,0,0,1,2.251-.983,5.061,5.061,0,0,1,4.853,1.494c1.164,1.164,1.268,2.471.116,3.592a8.681,8.681,0,0,1,.271,2.018l.465,1.1a.961.961,0,0,1-.018.789c-.318.666-1.065.519-1.1.684a2.633,2.633,0,0,1-2.06,2.413c-.708.1-.965.909-1.054,1.361a2.993,2.993,0,0,1,.746.967,17.373,17.373,0,0,1,.972,9.23l1.242,2.757c.986,2.188.429,3.879.417,5.53a.6.6,0,0,1-.6.559.6.6,0,0,1-.6-.641c.164-2.429.164-2.314.17-2.567a2.109,2.109,0,0,1-3.417-.225l-.782-1.215c-.185-.287-.367-.269-1.269-1.133a5.849,5.849,0,0,0,1.45,2.08,1.9,1.9,0,0,1,.633,1.425v6.125h2.907l.116-1.692a.6.6,0,0,1,.639-.557.6.6,0,0,1,.558.64l-.121,1.767a4.394,4.394,0,0,1,2.826,2.556,1.361,1.361,0,0,1-1.5,1.746c-6.038-.03-5.665-.026-5.708-.03a1.175,1.175,0,0,1-1.036-1.367l.124-2.478v-3.723l-4.1,2.675a1.5,1.5,0,0,1-.523.214c-.192,1.924-1.592,4.553-3.262,3.715a1.4,1.4,0,0,1-.763-1.077c-.836-3.4-1.113-4.515-1.119-4.554A1.466,1.466,0,0,1,4296.731-3780.325Zm12.36-7.206-.5-1.1h-.533c.2.321.374.6.483.792Zm-6.031-8.88,2.642.23.134-1.536a1.3,1.3,0,0,0-2.165-1.07,1.36,1.36,0,0,0-.485.929Zm7.36-14.191a4.241,4.241,0,0,0-5.576-.371.6.6,0,0,1-.091.057,3.962,3.962,0,0,0-1.957,2.548c-.218,1.225.306,2.611,1.56,4.13l.349-.573a1.975,1.975,0,0,1,.319-1.686c.6-.654,1.375-.422,1.754-.468,1.487-.362,3.883-1.308,4.187-2.377C4311.006-3809.48,4311.125-3809.9,4310.42-3810.6Zm-1.643,8.557c.7-.1.958-.948,1.05-1.445a1.348,1.348,0,0,1,1.083-1.036l-.406-.959c-.107-.253.018-.563-.172-1.6a12.785,12.785,0,0,1-3.482,1.313l-.758,0a.245.245,0,0,0-.244.268c.034.659.151.871-.014,1.143l-.747,1.225a5.2,5.2,0,0,1-.173,2.807,4.841,4.841,0,0,1,1.895.22A2.457,2.457,0,0,1,4308.777-3802.044Zm-1.216,4.042a1.809,1.809,0,0,0-.708-.769c.363.878.093,1.485.022,2.946a.937.937,0,0,1-.38.678,12.634,12.634,0,0,1-.534,3.332c.266.394.8,1.189,1.326,1.988.047,0-.182,0,1.2,0A16.3,16.3,0,0,0,4307.562-3798Zm-.82,24.631c5.934.031,5.585.022,5.665.033.132.02.274-.068.241-.167a3.381,3.381,0,0,0-2.393-1.9h-3.425C4306.745-3773.559,4306.723-3773.526,4306.741-3773.372Zm-1.083-7.8c-.056-1.327.146-1.752-.227-2.08a7.1,7.1,0,0,1-1.806-2.618,5.832,5.832,0,0,0-.022,1.6,1.838,1.838,0,0,1-.838,1.773l-3.635,2.308,1.34,2.033a.313.313,0,0,0,.433.09Zm-8.584,2.2c1.176,4.783,1.118,4.513,1.125,4.6a.206.206,0,0,0,.314.156,4.013,4.013,0,0,0,1.337-2.885c-.4-.281-.418-.505-1.777-2.512l-.848.384A.262.262,0,0,0,4297.074-3778.972Z" transform="translate(-4295.874 3813.072)"/>
</svg>
