<svg xmlns="http://www.w3.org/2000/svg" width="41.576" height="41.577" viewBox="0 0 41.576 41.577">
  <g id="icon-12" transform="translate(4490.406 1667.138)">
    <g id="Group_115" data-name="Group 115" transform="translate(-4483.029 -1642.326)">
      <path id="Path_252" data-name="Path 252" d="M-4393.688-1371.138l-5.877,1.809a4.022,4.022,0,0,0-2.84,3.845v10.44h26.823v-10.44a4.024,4.024,0,0,0-2.84-3.846l-5.877-1.808" transform="translate(4402.406 1371.138)" fill="#669e4f"/>
    </g>
    <g id="Group_116" data-name="Group 116" transform="translate(-4483.029 -1642.326)">
      <path id="Path_253" data-name="Path 253" d="M-4396.371-1357.726c8.889,0,16.094-5.1,16.094-11.4,0-.265-.018-.526-.042-.786l-3.981-1.225h-9.388l-5.877,1.809a4.022,4.022,0,0,0-2.84,3.845v6.927a21.941,21.941,0,0,0,6.035.832Z" transform="translate(4402.406 1371.138)" fill="#78b75b"/>
    </g>
    <g id="Group_117" data-name="Group 117" transform="translate(-4483.029 -1630.926)">
      <path id="Path_254" data-name="Path 254" d="M-4402.406-1235.138h4.694v4.694h-4.694Z" transform="translate(4402.406 1235.138)" fill="#efbe9a"/>
    </g>
    <g id="Group_118" data-name="Group 118" transform="translate(-4460.9 -1630.926)">
      <path id="Path_255" data-name="Path 255" d="M-4138.406-1235.138h4.694v4.694h-4.694Z" transform="translate(4138.406 1235.138)" fill="#efbe9a"/>
    </g>
    <g id="Group_119" data-name="Group 119" transform="translate(-4479.676 -1666.467)">
      <path id="Path_256" data-name="Path 256" d="M-4362.406-1645.726v-6.543a6.869,6.869,0,0,1,6.869-6.869h5.039a6.867,6.867,0,0,1,4.856,2.012,3.353,3.353,0,0,1,3.353,3.353v8.047" transform="translate(4362.406 1659.138)" fill="#976947"/>
    </g>
    <g id="Group_120" data-name="Group 120" transform="translate(-4478.335 -1659.761)">
      <path id="Path_257" data-name="Path 257" d="M-4346.406-1573.1a2.683,2.683,0,0,0,2.683-2.682v-1.294a2.059,2.059,0,0,1,2.059-2.059,2.054,2.054,0,0,1,1.142.346l.376.251a4.436,4.436,0,0,0,2.458.744,4.431,4.431,0,0,0,2.457-.744l.377-.251a2.057,2.057,0,0,1,1.143-.346,2.059,2.059,0,0,1,2.059,2.059v1.294a2.682,2.682,0,0,0,2.682,2.682v4.024a8.717,8.717,0,0,1-8.718,8.718,8.717,8.717,0,0,1-8.718-8.718Z" transform="translate(4346.406 1579.138)" fill="#efbe9a"/>
    </g>
    <g id="Group_121" data-name="Group 121" transform="translate(-4481.018 -1653.726)">
      <path id="Path_258" data-name="Path 258" d="M-4375.724-1507.138a2.682,2.682,0,0,0-2.682,2.682,2.682,2.682,0,0,0,2.682,2.682" transform="translate(4378.406 1507.138)" fill="#db9b7c"/>
    </g>
    <g id="Group_122" data-name="Group 122" transform="translate(-4460.9 -1653.726)">
      <path id="Path_259" data-name="Path 259" d="M-4138.406-1507.138a2.683,2.683,0,0,1,2.683,2.682,2.683,2.683,0,0,1-2.683,2.682" transform="translate(4138.406 1507.138)" fill="#db9b7c"/>
    </g>
    <g id="Group_123" data-name="Group 123" transform="translate(-4474.312 -1642.326)">
      <path id="Path_260" data-name="Path 260" d="M-4289.017-1371.138v2.012a4.694,4.694,0,0,1-4.695,4.694,4.694,4.694,0,0,1-4.694-4.694v-2.012" transform="translate(4298.406 1371.138)" fill="#efbe9a"/>
    </g>
    <g id="Group_124" data-name="Group 124" transform="translate(-4479.006 -1634.279)">
      <path id="Path_261" data-name="Path 261" d="M-4354.406-1275.138h1.341v8.047h-1.341Z" transform="translate(4354.406 1275.138)"/>
    </g>
    <g id="Group_125" data-name="Group 125" transform="translate(-4461.571 -1634.279)">
      <path id="Path_262" data-name="Path 262" d="M-4146.406-1275.138h1.341v8.047h-1.341Z" transform="translate(4146.406 1275.138)"/>
    </g>
    <g id="Group_126" data-name="Group 126" transform="translate(-4483.7 -1642.967)">
      <path id="Path_263" data-name="Path 263" d="M-4382.912-1361.373h-26.824a.67.67,0,0,1-.67-.671v-10.44a4.671,4.671,0,0,1,3.313-4.487l5.877-1.808.395,1.282-5.878,1.808a3.337,3.337,0,0,0-2.366,3.2v9.769h25.482v-9.769a3.336,3.336,0,0,0-2.366-3.2l-5.878-1.808.394-1.282,5.878,1.808a4.671,4.671,0,0,1,3.314,4.487v10.44A.67.67,0,0,1-4382.912-1361.373Z" transform="translate(4410.406 1378.778)"/>
    </g>
    <g id="Group_127" data-name="Group 127" transform="translate(-4479.006 -1660.432)">
      <path id="Path_264" data-name="Path 264" d="M-4345.017-1567.02a9.4,9.4,0,0,1-9.389-9.388v-4.023a.67.67,0,0,1,.671-.671,2.014,2.014,0,0,0,2.012-2.012v-1.294a2.732,2.732,0,0,1,2.729-2.729,2.716,2.716,0,0,1,1.514.459l.377.251a3.818,3.818,0,0,0,4.17,0l.377-.251a2.72,2.72,0,0,1,1.515-.459,2.733,2.733,0,0,1,2.729,2.729v1.294a2.014,2.014,0,0,0,2.012,2.012.67.67,0,0,1,.67.671v4.023A9.4,9.4,0,0,1-4345.017-1567.02Zm-8.047-12.809v3.421a8.056,8.056,0,0,0,8.047,8.047,8.056,8.056,0,0,0,8.047-8.047v-3.421a3.358,3.358,0,0,1-2.682-3.285v-1.294a1.39,1.39,0,0,0-1.389-1.388,1.377,1.377,0,0,0-.77.233l-.377.251a5.18,5.18,0,0,1-5.659,0l-.376-.251a1.387,1.387,0,0,0-.771-.233,1.39,1.39,0,0,0-1.388,1.388v1.294a3.358,3.358,0,0,1-2.683,3.285Z" transform="translate(4354.406 1587.138)"/>
    </g>
    <g id="Group_128" data-name="Group 128" transform="translate(-4480.347 -1667.138)">
      <path id="Path_265" data-name="Path 265" d="M-4348.947-1653.056h-1.341v-8.047a2.685,2.685,0,0,0-2.682-2.682.668.668,0,0,1-.475-.2,6.155,6.155,0,0,0-4.382-1.815h-5.04a6.2,6.2,0,0,0-6.2,6.2v6.544h-1.341v-6.544a7.547,7.547,0,0,1,7.539-7.539h5.04a7.483,7.483,0,0,1,5.137,2.022,4.028,4.028,0,0,1,3.742,4.013Z" transform="translate(4370.406 1667.138)"/>
    </g>
    <g id="Group_129" data-name="Group 129" transform="translate(-4481.688 -1654.397)">
      <path id="Path_266" data-name="Path 266" d="M-4383.053-1508.432a3.357,3.357,0,0,1-3.353-3.353,3.357,3.357,0,0,1,3.353-3.353v1.341a2.014,2.014,0,0,0-2.012,2.012,2.014,2.014,0,0,0,2.012,2.012Z" transform="translate(4386.406 1515.138)"/>
    </g>
    <g id="Group_130" data-name="Group 130" transform="translate(-4460.9 -1654.397)">
      <path id="Path_267" data-name="Path 267" d="M-4138.406-1508.432v-1.341a2.014,2.014,0,0,0,2.012-2.012,2.014,2.014,0,0,0-2.012-2.012v-1.341a3.357,3.357,0,0,1,3.353,3.353A3.357,3.357,0,0,1-4138.406-1508.432Z" transform="translate(4138.406 1515.138)"/>
    </g>
    <g id="Group_131" data-name="Group 131" transform="translate(-4474.982 -1642.326)">
      <path id="Path_268" data-name="Path 268" d="M-4301.041-1363.761a5.371,5.371,0,0,1-5.365-5.365v-2.012h1.341v2.012a4.028,4.028,0,0,0,4.023,4.024,4.028,4.028,0,0,0,4.023-4.024v-2.012h1.341v2.012A5.371,5.371,0,0,1-4301.041-1363.761Z" transform="translate(4306.406 1371.138)"/>
    </g>
    <g id="Group_132" data-name="Group 132" transform="translate(-4460.9 -1631.597)">
      <path id="Path_269" data-name="Path 269" d="M-4138.406-1243.138h4.694v1.341h-4.694Z" transform="translate(4138.406 1243.138)"/>
    </g>
    <g id="Group_133" data-name="Group 133" transform="translate(-4483.029 -1631.597)">
      <path id="Path_270" data-name="Path 270" d="M-4402.406-1243.138h4.694v1.341h-4.694Z" transform="translate(4402.406 1243.138)"/>
    </g>
    <g id="Group_134" data-name="Group 134" transform="translate(-4483.7 -1662.774)">
      <path id="Path_271" data-name="Path 271" d="M-4396.323-1604.022c-7.9,0-14.083-2.8-14.083-6.371,0-1.832,1.576-3.5,4.436-4.689l.516,1.238c-2.294.956-3.611,2.214-3.611,3.452,0,2.429,5.12,5.029,12.741,5.029s12.741-2.6,12.741-5.029c0-1.119-1.055-2.243-2.973-3.166l.581-1.209c2.407,1.159,3.733,2.712,3.733,4.375,0,3.572-6.187,6.371-14.083,6.371Z" transform="translate(4410.406 1615.082)"/>
    </g>
    <g id="Group_135" data-name="Group 135" transform="translate(-4452.853 -1665.797)">
      <path id="Path_272" data-name="Path 272" d="M-4042.406-1651.138h4.023v1.341h-4.023Z" transform="translate(4042.406 1651.138)"/>
    </g>
    <g id="Group_136" data-name="Group 136" transform="translate(-4451.512 -1667.138)">
      <path id="Path_273" data-name="Path 273" d="M-4026.406-1667.138h1.341v4.024h-1.341Z" transform="translate(4026.406 1667.138)"/>
    </g>
    <g id="Group_137" data-name="Group 137" transform="translate(-4454.194 -1659.091)">
      <path id="Path_274" data-name="Path 274" d="M-4058.406-1571.138h4.024v1.341h-4.024Z" transform="translate(4058.406 1571.138)"/>
    </g>
    <g id="Group_138" data-name="Group 138" transform="translate(-4452.853 -1660.432)">
      <path id="Path_275" data-name="Path 275" d="M-4042.406-1587.138h1.341v4.024h-1.341Z" transform="translate(4042.406 1587.138)"/>
    </g>
    <g id="Group_139" data-name="Group 139" transform="translate(-4458.218 -1665.797)">
      <path id="Path_276" data-name="Path 276" d="M-4106.406-1651.138h4.024v1.341h-4.024Z" transform="translate(4106.406 1651.138)"/>
    </g>
    <g id="Group_140" data-name="Group 140" transform="translate(-4456.876 -1667.138)">
      <path id="Path_277" data-name="Path 277" d="M-4090.406-1667.138h1.341v4.024h-1.341Z" transform="translate(4090.406 1667.138)"/>
    </g>
    <g id="Group_141" data-name="Group 141" transform="translate(-4490.406 -1665.797)">
      <path id="Path_278" data-name="Path 278" d="M-4490.405-1651.138h4.023v1.341h-4.023Z" transform="translate(4490.405 1651.138)"/>
    </g>
    <g id="Group_142" data-name="Group 142" transform="translate(-4489.064 -1667.138)">
      <path id="Path_279" data-name="Path 279" d="M-4474.406-1667.138h1.341v4.024h-1.341Z" transform="translate(4474.406 1667.138)"/>
    </g>
    <g id="Group_143" data-name="Group 143" transform="translate(-4489.064 -1659.091)">
      <path id="Path_280" data-name="Path 280" d="M-4474.406-1571.138h4.023v1.341h-4.023Z" transform="translate(4474.406 1571.138)"/>
    </g>
    <g id="Group_144" data-name="Group 144" transform="translate(-4487.724 -1660.432)">
      <path id="Path_281" data-name="Path 281" d="M-4458.406-1587.138h1.341v4.024h-1.341Z" transform="translate(4458.406 1587.138)"/>
    </g>
    <g id="Group_145" data-name="Group 145" transform="translate(-4485.041 -1665.797)">
      <path id="Path_282" data-name="Path 282" d="M-4426.406-1651.138h4.024v1.341h-4.024Z" transform="translate(4426.406 1651.138)"/>
    </g>
    <g id="Group_146" data-name="Group 146" transform="translate(-4483.7 -1667.138)">
      <path id="Path_283" data-name="Path 283" d="M-4410.406-1667.138h1.341v4.024h-1.341Z" transform="translate(4410.406 1667.138)"/>
    </g>
  </g>
</svg>
