<svg xmlns="http://www.w3.org/2000/svg" width="26.026" height="43.216" viewBox="0 0 26.026 43.216">
  <g id="icon-8" transform="translate(-1169.918 1847.101)">
    <path id="Path_160" data-name="Path 160" d="M1236.221-1577.442H1223.85a2.249,2.249,0,0,0-2.249,2.249v16.726h16.869v-16.726A2.249,2.249,0,0,0,1236.221-1577.442Z" transform="translate(-47.105 -245.773)" fill="#6bdddd"/>
    <path id="Path_161" data-name="Path 161" d="M1234.825-1561.758h-16.869a.354.354,0,0,1-.354-.354v-16.726a2.607,2.607,0,0,1,2.6-2.6h12.371a2.606,2.606,0,0,1,2.6,2.6v16.726A.354.354,0,0,1,1234.825-1561.758Zm-16.515-.709h16.161v-16.372a1.9,1.9,0,0,0-1.895-1.895H1220.2a1.9,1.9,0,0,0-1.9,1.895v16.372Z" transform="translate(-43.459 -242.127)" fill="#3762cc"/>
    <path id="Path_162" data-name="Path 162" d="M1212.836-1799.223l-.053,0V-1800a8.285,8.285,0,0,0-8.328-8.241,8.285,8.285,0,0,0-8.328,8.241v.779l-.052,0a2.528,2.528,0,0,0-2.541,2.514,2.528,2.528,0,0,0,2.541,2.514,2.651,2.651,0,0,0,.273-.015,8.311,8.311,0,0,0,8.107,6.363,8.31,8.31,0,0,0,8.107-6.363,2.648,2.648,0,0,0,.273.015,2.528,2.528,0,0,0,2.541-2.514,2.528,2.528,0,0,0-2.541-2.514Z" transform="translate(-21.525 -35.419)" fill="#f9cfcf"/>
    <path id="Path_163" data-name="Path 163" d="M1200.81-1791.14a8.626,8.626,0,0,1-8.38-6.348h0a2.885,2.885,0,0,1-2.895-2.869,2.883,2.883,0,0,1,2.593-2.853v-.437a8.649,8.649,0,0,1,8.682-8.6,8.649,8.649,0,0,1,8.682,8.6v.437a2.883,2.883,0,0,1,2.593,2.853,2.885,2.885,0,0,1-2.895,2.869h0a8.627,8.627,0,0,1-8.379,6.348Zm-8.107-7.071a.354.354,0,0,1,.344.273,7.918,7.918,0,0,0,7.763,6.09,7.918,7.918,0,0,0,7.763-6.09.356.356,0,0,1,.382-.271,2.279,2.279,0,0,0,.236.013,2.176,2.176,0,0,0,2.186-2.16,2.176,2.176,0,0,0-2.183-2.16l-.049,0a.342.342,0,0,1-.255-.1.354.354,0,0,1-.106-.253v-.779a7.939,7.939,0,0,0-7.973-7.887,7.939,7.939,0,0,0-7.973,7.887v.779a.355.355,0,0,1-.106.253.342.342,0,0,1-.255.1l-.043,0h0a2.176,2.176,0,0,0-2.188,2.16,2.176,2.176,0,0,0,2.186,2.16,2.275,2.275,0,0,0,.235-.013l.037,0Z" transform="translate(-17.879 -31.771)" fill="#3762cc"/>
    <path id="Path_164" data-name="Path 164" d="M1188.8-1807.006a4.8,4.8,0,0,1-.076-3.142l.028-.088a4.8,4.8,0,0,1,3.679-3.258,4.8,4.8,0,0,1,2.448.172l.092.031a1.087,1.087,0,0,0,.025.143,11.248,11.248,0,0,0,2.015,4.193,10.778,10.778,0,0,1-2.583,4.3h0l-1,1.017-1.942-.45a2.547,2.547,0,0,0-1.431.437Z" transform="translate(-16.934 -30.553)" fill="#4671c6"/>
    <path id="Path_165" data-name="Path 165" d="M1276.272-1837.479a7.17,7.17,0,0,0-4.054-4.433h0c-6.708-3.3-10.376.682-10.376.682a1.112,1.112,0,0,0-.307,1.066,11.121,11.121,0,0,0,5.684,7.26l0,0a11.116,11.116,0,0,0,1.912.77.183.183,0,0,0,.2-.282l-1.379-1.968a.181.181,0,0,1,.255-.252c1.525,1.194,4.488,3.173,7.485,3.272l.488-1.337A7.363,7.363,0,0,0,1276.272-1837.479Z" transform="translate(-83.472 -3.535)" fill="#4671c6"/>
    <path id="Path_166" data-name="Path 166" d="M1189.794-1806.927a.358.358,0,0,1-.08-.009l-1.9-.441a2.192,2.192,0,0,0-1.193.376.354.354,0,0,1-.306.044.356.356,0,0,1-.224-.213l-1.252-3.354a5.181,5.181,0,0,1-.082-3.373l.028-.088a5.154,5.154,0,0,1,3.95-3.5,5.169,5.169,0,0,1,2.628.185l.092.031a.354.354,0,0,1,.238.3.822.822,0,0,0,.017.1,10.83,10.83,0,0,0,1.952,4.062.355.355,0,0,1,.053.336,11.149,11.149,0,0,1-2.673,4.437l-.993,1.008a.353.353,0,0,1-.253.106Zm-1.943-1.159a.354.354,0,0,1,.08.009l1.749.406.863-.875a10.3,10.3,0,0,0,2.436-3.991,11.52,11.52,0,0,1-1.949-4.125,4.456,4.456,0,0,0-2.165-.126,4.445,4.445,0,0,0-3.407,3.018l-.028.088a4.469,4.469,0,0,0,.071,2.91l1.107,2.965a2.9,2.9,0,0,1,1.244-.278Z" transform="translate(-13.301 -26.91)" fill="#3762cc"/>
    <path id="Path_167" data-name="Path 167" d="M1272.052-1834.545h-.012a13.479,13.479,0,0,1-6.827-2.7l.768,1.1a.541.541,0,0,1,0,.626.526.526,0,0,1-.584.2,11.483,11.483,0,0,1-1.973-.795,11.469,11.469,0,0,1-5.87-7.493,1.47,1.47,0,0,1,.4-1.4c.23-.237,4.094-4.041,10.782-.749l0,0a7.513,7.513,0,0,1,4.23,4.64,7.746,7.746,0,0,1-.1,5.009l-.488,1.337a.354.354,0,0,1-.333.233Zm-7.6-4.019a.532.532,0,0,1,.328.114c1.429,1.119,4.206,2.988,7.024,3.184l.4-1.091a7.034,7.034,0,0,0,.087-4.549,6.807,6.807,0,0,0-3.853-4.214.332.332,0,0,1-.044-.022c-6.358-3.116-9.793.462-9.936.616l-.014.015a.761.761,0,0,0-.209.727,10.76,10.76,0,0,0,5.5,7.03,10.821,10.821,0,0,0,1.367.589l-1.086-1.549a.537.537,0,0,1,.071-.7.53.53,0,0,1,.365-.147Z" transform="translate(-79.831)" fill="#3762cc"/>
    <path id="Path_168" data-name="Path 168" d="M1276.12-1588.551l-.1.008-.157.008c-.119.005-.238.009-.358.009s-.239,0-.358-.009l-.157-.008-.1-.008a8.333,8.333,0,0,1-3.4-1v.957a3.959,3.959,0,0,0,3.886,4.028h.258a3.959,3.959,0,0,0,3.887-4.028v-.957a8.329,8.329,0,0,1-3.4,1Z" transform="translate(-92.574 -234.739)" fill="#f9cfcf"/>
    <path id="Path_169" data-name="Path 169" d="M1234.824-1572.792h-16.869a.354.354,0,0,1-.354-.354v-16.726a2.607,2.607,0,0,1,2.6-2.6h1.816v-.718a.354.354,0,0,1,.173-.3.354.354,0,0,1,.351-.006,7.941,7.941,0,0,0,3.256.954l.1.007.15.008c.227.01.457.01.684,0l.151-.008.095-.007a7.94,7.94,0,0,0,3.258-.954.355.355,0,0,1,.351.006.355.355,0,0,1,.173.3v.718h1.815a2.606,2.606,0,0,1,2.6,2.6v16.726a.354.354,0,0,1-.354.354Zm-16.515-.709h16.161v-16.372a1.9,1.9,0,0,0-1.895-1.895H1230.4a.355.355,0,0,1-.254-.107.355.355,0,0,1-.1-.257v-.039c0-.022,0-.045,0-.067v-.382a8.658,8.658,0,0,1-3.021.775l-.1.008-.165.008c-.246.011-.5.011-.746,0l-.163-.008-.106-.008a8.659,8.659,0,0,1-3.019-.775v.382c0,.024,0,.047,0,.071v.035a.355.355,0,0,1-.1.257.355.355,0,0,1-.254.107H1220.2a1.9,1.9,0,0,0-1.895,1.895Z" transform="translate(-43.459 -231.093)" fill="#3762cc"/>
    <path id="Path_170" data-name="Path 170" d="M1175.446-1553.879l3.946,2.763v-8.481a2.24,2.24,0,0,1,.125-.734l-4.161,5.943a.365.365,0,0,0,.09.509Z" transform="translate(-4.896 -261.369)" fill="#6bdddd"/>
    <path id="Path_171" data-name="Path 171" d="M1343.446-1701.457a4.956,4.956,0,0,1-3.4-1.41.354.354,0,0,1,.016-.5.354.354,0,0,1,.5.015,4.288,4.288,0,0,0,3.244,1.172.354.354,0,0,1,.385.321.354.354,0,0,1-.321.385C1343.724-1701.463,1343.583-1701.457,1343.446-1701.457Z" transform="translate(-154.969 -130.913)" fill="#3762cc"/>
    <path id="Path_172" data-name="Path 172" d="M1343.523-1673.925H1340.3a.354.354,0,0,1-.354-.354.355.355,0,0,1,.354-.354h3.222a.355.355,0,0,1,.354.354A.354.354,0,0,1,1343.523-1673.925Z" transform="translate(-154.968 -157.19)" fill="#3762cc"/>
    <path id="Path_173" data-name="Path 173" d="M1246.557-1701.455q-.205,0-.421-.019a.354.354,0,0,1-.321-.385.354.354,0,0,1,.384-.321,4.246,4.246,0,0,0,3.244-1.171.354.354,0,0,1,.5-.015.354.354,0,0,1,.016.5,4.958,4.958,0,0,1-3.4,1.41Z" transform="translate(-69.171 -130.916)" fill="#3762cc"/>
    <path id="Path_174" data-name="Path 174" d="M1253.191-1673.925h-3.222a.354.354,0,0,1-.354-.354.354.354,0,0,1,.354-.354h3.222a.355.355,0,0,1,.354.354A.354.354,0,0,1,1253.191-1673.925Z" transform="translate(-72.637 -157.19)" fill="#3762cc"/>
    <ellipse id="Ellipse_25" data-name="Ellipse 25" cx="2.662" cy="2.146" rx="2.662" ry="2.146" transform="translate(1180.269 -1829.561)" fill="#f9a7a7"/>
    <path id="Path_175" data-name="Path 175" d="M1410.788-1554.67v3.547l3.946-2.763a.365.365,0,0,0,.09-.509l-4.159-5.94,0,0a2.238,2.238,0,0,1,.125.734v4.934Z" transform="translate(-219.419 -261.362)" fill="#6bdddd"/>
    <path id="Path_176" data-name="Path 176" d="M1401.873-1605.662a.354.354,0,0,1-.354-.354,3.193,3.193,0,0,0-3.189-3.189.354.354,0,0,1-.354-.354.354.354,0,0,1,.354-.354,3.9,3.9,0,0,1,3.9,3.9A.354.354,0,0,1,1401.873-1605.662Z" transform="translate(-207.855 -216.177)" fill="#3762cc"/>
    <path id="Path_177" data-name="Path 177" d="M1396.673-1590.455a.354.354,0,0,1-.354-.354,2.114,2.114,0,0,0-2.112-2.112.354.354,0,0,1-.354-.354.354.354,0,0,1,.354-.354,2.824,2.824,0,0,1,2.821,2.82A.354.354,0,0,1,1396.673-1590.455Z" transform="translate(-204.099 -231.019)" fill="#3762cc"/>
    <path id="Path_178" data-name="Path 178" d="M1188.021-1605.662a.354.354,0,0,1-.354-.354,3.9,3.9,0,0,1,3.9-3.9.354.354,0,0,1,.354.354.354.354,0,0,1-.354.354,3.193,3.193,0,0,0-3.189,3.189A.354.354,0,0,1,1188.021-1605.662Z" transform="translate(-16.176 -216.177)" fill="#3762cc"/>
    <path id="Path_179" data-name="Path 179" d="M1204.305-1590.455a.354.354,0,0,1-.354-.354,2.824,2.824,0,0,1,2.82-2.82.354.354,0,0,1,.354.354.354.354,0,0,1-.354.354,2.114,2.114,0,0,0-2.112,2.112A.354.354,0,0,1,1204.305-1590.455Z" transform="translate(-31.018 -231.019)" fill="#3762cc"/>
    <path id="Path_180" data-name="Path 180" d="M1303.8-1510.041l-1.9.762a1.1,1.1,0,0,1-.639.055l-.339-.073-6.988-6.153a6.874,6.874,0,0,1-2.9-2.177h0l-.008-.011c-.094-.121-.183-.247-.27-.375l-.505-.7h0a.876.876,0,0,1,.016-1.089l1.411-1.721a1.462,1.462,0,0,1,1.531-.478,1.512,1.512,0,0,1,.548.3l1.156.948a6.883,6.883,0,0,1,1.229,1.312l.893,1.246,3.233,2.213.216.148.392.211v-.606l2.486-1.741s1.087,3.557,1.647,5.421a2.068,2.068,0,0,1-.43,1.962,2.069,2.069,0,0,1-.781.552Z" transform="translate(-109.511 -296.249)" fill="#f9cfcf"/>
    <path id="Path_181" data-name="Path 181" d="M1297.837-1512.486a1.456,1.456,0,0,1-.306-.033l-.339-.073a.349.349,0,0,1-.16-.081l-6.943-6.112a7.237,7.237,0,0,1-2.98-2.248c-.008-.009-.015-.018-.022-.027-.1-.124-.188-.252-.284-.4l-.5-.694-.016-.024a1.223,1.223,0,0,1,.046-1.5l1.411-1.721a1.822,1.822,0,0,1,1.9-.594,1.866,1.866,0,0,1,.678.365l1.156.948a7.209,7.209,0,0,1,1.293,1.379l.857,1.2,3.235,2.214a.353.353,0,0,1,.151-.281l2.486-1.741a.354.354,0,0,1,.319-.045.355.355,0,0,1,.224.231c.011.036,1.094,3.58,1.647,5.423a2.409,2.409,0,0,1-.5,2.3,2.436,2.436,0,0,1-.915.646l-1.9.762a1.454,1.454,0,0,1-.541.1Zm-.406-.779.249.053a.74.74,0,0,0,.433-.037l1.9-.762a1.727,1.727,0,0,0,.647-.458,1.7,1.7,0,0,0,.356-1.626c-.432-1.442-1.19-3.925-1.5-4.953l-1.935,1.355v.421a.355.355,0,0,1-.173.3.355.355,0,0,1-.35.008l-.392-.21-.033-.02-3.449-2.361a.355.355,0,0,1-.088-.086l-.893-1.246a6.528,6.528,0,0,0-1.166-1.244l-1.156-.948a1.165,1.165,0,0,0-.418-.231,1.113,1.113,0,0,0-1.162.361l-1.411,1.721a.519.519,0,0,0-.009.648.32.32,0,0,1,.026.038l.485.675c.093.139.177.255.262.365h0l.007.009a6.529,6.529,0,0,0,2.753,2.065.352.352,0,0,1,.1.064Zm2.709-.417h0Z" transform="translate(-105.85 -292.609)" fill="#3762cc"/>
    <path id="Path_182" data-name="Path 182" d="M1409.4-1452.066a.354.354,0,0,1-.207-.067l-.969-.7a.354.354,0,0,1-.08-.495.354.354,0,0,1,.495-.08l.969.7a.355.355,0,0,1,.08.495A.354.354,0,0,1,1409.4-1452.066Z" transform="translate(-217.058 -358.76)" fill="#3762cc"/>
    <path id="Path_183" data-name="Path 183" d="M1175.233-1510.057l1.9.762a1.1,1.1,0,0,0,.639.055l.339-.073,6.988-6.153a6.876,6.876,0,0,0,2.9-2.177h0l.008-.011c.094-.122.183-.247.27-.375l.505-.7h0a.876.876,0,0,0-.016-1.089l-1.411-1.721a1.462,1.462,0,0,0-1.531-.478,1.513,1.513,0,0,0-.548.3l-1.156.948a6.88,6.88,0,0,0-1.229,1.312l-.893,1.246-3.233,2.213-.216.148-.392.211v-.606l-2.486-1.741s-1.087,3.557-1.647,5.421a2.069,2.069,0,0,0,.43,1.963,2.071,2.071,0,0,0,.781.552Z" transform="translate(-3.661 -296.234)" fill="#f9cfcf"/>
    <g id="Group_92" data-name="Group 92" transform="translate(1169.918 -1829.826)">
      <path id="Path_184" data-name="Path 184" d="M1173.876-1512.5a1.449,1.449,0,0,1-.54-.1l-1.9-.762a2.434,2.434,0,0,1-.915-.646,2.41,2.41,0,0,1-.5-2.3c.553-1.844,1.636-5.387,1.647-5.423a.355.355,0,0,1,.224-.232.354.354,0,0,1,.318.045l2.486,1.741a.355.355,0,0,1,.151.282l3.235-2.214.857-1.2a7.237,7.237,0,0,1,1.293-1.379l1.156-.948a1.862,1.862,0,0,1,.678-.365,1.824,1.824,0,0,1,1.9.594l1.411,1.721a1.224,1.224,0,0,1,.045,1.5l-.015.022-.505.7c-.087.13-.182.262-.277.385l-.009.011a7.237,7.237,0,0,1-2.993,2.266l-6.943,6.112a.354.354,0,0,1-.16.081l-.339.073a1.427,1.427,0,0,1-.306.033Zm-2.172-1.524,1.9.762a.741.741,0,0,0,.432.037l.249-.053,6.919-6.091a.351.351,0,0,1,.1-.064,6.528,6.528,0,0,0,2.753-2.065l.007-.009h0c.085-.11.171-.23.256-.356l.493-.686a.367.367,0,0,1,.025-.037.519.519,0,0,0-.009-.648l-1.411-1.721a1.115,1.115,0,0,0-1.162-.361,1.159,1.159,0,0,0-.418.23l-1.156.948a6.532,6.532,0,0,0-1.166,1.244l-.893,1.246a.357.357,0,0,1-.088.086l-3.449,2.36-.032.02-.392.211a.354.354,0,0,1-.35-.008.354.354,0,0,1-.172-.3v-.421l-1.935-1.355c-.314,1.028-1.071,3.511-1.5,4.953a1.7,1.7,0,0,0,.356,1.626,1.723,1.723,0,0,0,.647.458Z" transform="translate(-1169.918 1537.231)" fill="#3762cc"/>
      <path id="Path_185" data-name="Path 185" d="M1206.993-1452.081a.354.354,0,0,1-.288-.147.355.355,0,0,1,.08-.495l.969-.7a.354.354,0,0,1,.495.08.354.354,0,0,1-.08.495l-.969.7A.354.354,0,0,1,1206.993-1452.081Z" transform="translate(-1203.385 1471.081)" fill="#3762cc"/>
      <path id="Path_186" data-name="Path 186" d="M1175.746-1554.407a.353.353,0,0,1-.2-.064l-3.946-2.763a.715.715,0,0,1-.3-.465.714.714,0,0,1,.119-.538l4.161-5.942a.354.354,0,0,1,.452-.112.354.354,0,0,1,.174.432,1.886,1.886,0,0,0-.106.618v8.481a.354.354,0,0,1-.191.314.359.359,0,0,1-.164.04Zm-3.743-3.408,3.389,2.373v-7.232l-3.391,4.843-.2.306Z" transform="translate(-1171.168 1572.104)" fill="#3762cc"/>
      <path id="Path_187" data-name="Path 187" d="M1407.141-1554.414a.354.354,0,0,1-.164-.04.354.354,0,0,1-.191-.314v-8.481a1.882,1.882,0,0,0-.106-.618.354.354,0,0,1,.173-.431.355.355,0,0,1,.451.11l4.162,5.944a.716.716,0,0,1,.119.538.715.715,0,0,1-.3.465l-3.946,2.763a.355.355,0,0,1-.2.064Zm.354-8.263v7.228l3.389-2.373Z" transform="translate(-1385.691 1572.11)" fill="#3762cc"/>
      <path id="Path_188" data-name="Path 188" d="M1286.7-1647.258a2.711,2.711,0,0,1-2.928-2.412,2.711,2.711,0,0,1,2.928-2.412,2.711,2.711,0,0,1,2.928,2.412A2.711,2.711,0,0,1,1286.7-1647.258Zm0-4.293a2.189,2.189,0,0,0-2.4,1.881,2.188,2.188,0,0,0,2.4,1.881,2.189,2.189,0,0,0,2.4-1.881A2.189,2.189,0,0,0,1286.7-1651.551Z" transform="translate(-1273.684 1652.082)" fill="#3762cc"/>
    </g>
    <path id="Path_189" data-name="Path 189" d="M1288.546-1587.144a.365.365,0,0,1-.332-.4l.394-4.5a.365.365,0,0,1,.4-.332.365.365,0,0,1,.332.4l-.394,4.5A.365.365,0,0,1,1288.546-1587.144Z" transform="translate(-107.816 -232.161)" fill="#e0ebfc"/>
    <path id="Path_190" data-name="Path 190" d="M1314.118-1607.153a.365.365,0,0,1-.365-.365v-4.521a.365.365,0,0,1,.365-.365.365.365,0,0,1,.365.365v4.521A.365.365,0,0,1,1314.118-1607.153Z" transform="translate(-131.094 -213.908)" fill="#e0ebfc"/>
    <path id="Path_191" data-name="Path 191" d="M1334.73-1587.144a.365.365,0,0,1-.4-.332l-.394-4.5a.365.365,0,0,1,.332-.4.366.366,0,0,1,.4.332l.394,4.5A.365.365,0,0,1,1334.73-1587.144Z" transform="translate(-149.492 -232.162)" fill="#e0ebfc"/>
  </g>
</svg>
