<svg xmlns="http://www.w3.org/2000/svg" width="46.572" height="46.572" viewBox="0 0 46.572 46.572">
  <g id="icon-7" transform="translate(322.061 1776.839)">
    <g id="Group_79" data-name="Group 79" transform="translate(-321.379 -1776.157)">
      <g id="Group_76" data-name="Group 76" transform="translate(0 0)">
        <path id="Path_129" data-name="Path 129" d="M-269.354-1449.5v11.377a3.388,3.388,0,0,1-3.388,3.387h-38.431a3.388,3.388,0,0,1-3.388-3.387v-11.413a8.464,8.464,0,0,1,2.226-1.07,8.482,8.482,0,0,1,2.515-.379h35.673a8.487,8.487,0,0,1,1.792.19c.191.041.379.089.566.143A8.41,8.41,0,0,1-269.354-1449.5Z" transform="translate(314.561 1479.939)" fill="#9fc3d7"/>
        <path id="Path_130" data-name="Path 130" d="M118.588-1447.6v11.377a3.388,3.388,0,0,1-3.388,3.387h-3a3.387,3.387,0,0,0,3.387-3.387v-12.672c.191.041.379.089.566.143a8.41,8.41,0,0,1,2.436,1.151Z" transform="translate(-73.381 1478.039)" fill="#7ca3bf"/>
        <path id="Path_131" data-name="Path 131" d="M-249.546-1450.648v.046a28.764,28.764,0,0,1-20.273,8.2,28.761,28.761,0,0,1-20.272-8.2,8.482,8.482,0,0,1,2.515-.379H-251.9a8.464,8.464,0,0,1,2.358.333Z" transform="translate(292.318 1479.939)" fill="#e4f4ff"/>
        <path id="Path_132" data-name="Path 132" d="M-213.509-1567.593l-.021.017a26.3,26.3,0,0,1-32.458-.017,6.185,6.185,0,0,0,3.073-.84,8.728,8.728,0,0,0,2.561-2.279,15.569,15.569,0,0,0,2.394-5.72,14.269,14.269,0,0,0,.333-2.829h15.757a14.312,14.312,0,0,0,.339,2.859,15.554,15.554,0,0,0,2.388,5.69,7.245,7.245,0,0,0,5.634,3.119Z" transform="translate(252.225 1596.55)" fill="#ffeac5"/>
        <path id="Path_133" data-name="Path 133" d="M-141.3-1576.4q-.483.409-.983.814a11.432,11.432,0,0,1-7.189,2.551h-.043a11.447,11.447,0,0,1-7.2-2.561q-.518-.42-1.01-.835a14.269,14.269,0,0,0,.333-2.829h15.757a14.312,14.312,0,0,0,.339,2.859Z" transform="translate(171.994 1596.55)" fill="#ffc69f"/>
        <path id="Path_134" data-name="Path 134" d="M-196.895-1762.434c0,2.978-2.191,6.457-6.522,10.367q-1.008.909-2.17,1.85a9.041,9.041,0,0,1-5.725,2.026,9.052,9.052,0,0,1-5.732-2.03c-5.764-4.665-8.688-8.774-8.688-12.212,0-.365.013-.73.045-1.081.059-.6.1-1.706.123-3.1.014-.823.02-1.747.021-2.729h28.46c0,2.634.05,4.858.145,5.817.03.359.045.725.045,1.09Z" transform="translate(233.812 1769.341)" fill="#ffeac5"/>
        <g id="Group_74" data-name="Group 74" transform="translate(20.838 26.033)">
          <circle id="Ellipse_20" data-name="Ellipse 20" cx="1.66" cy="1.66" r="1.66" fill="#ff2261"/>
          <path id="Path_135" data-name="Path 135" d="M-73.846-1481.479a1.66,1.66,0,0,1-1.66,1.66,1.645,1.645,0,0,1-.83-.223,1.659,1.659,0,0,0,.83-1.437,1.658,1.658,0,0,0-.83-1.437,1.644,1.644,0,0,1,.83-.223A1.66,1.66,0,0,1-73.846-1481.479Z" transform="translate(77.167 1483.139)" fill="#b7305d"/>
        </g>
        <path id="Path_136" data-name="Path 136" d="M25.885-1763.524c.03.359.045.725.045,1.09,0,2.978-2.191,6.457-6.522,10.367h-.019s4.05-6.43,3.552-10.367c-.046-.362-.015-.73-.045-1.09-.095-.959-.143-3.183-.145-5.817h2.989c0,2.634.05,4.858.145,5.817Z" transform="translate(10.987 1769.341)" fill="#ffc69f"/>
        <path id="Path_137" data-name="Path 137" d="M-104.711-1652.883a18.279,18.279,0,0,0-4.169-.479,18.268,18.268,0,0,0-4.169.479c.857-1.405,1.93-3.162,4.169-3.162S-105.568-1654.288-104.711-1652.883Z" transform="translate(131.379 1666.35)" fill="#ffc69f"/>
        <g id="Group_75" data-name="Group 75" transform="translate(0 11.949)">
          <path id="Path_138" data-name="Path 138" d="M-311.87-1631.594l1.864-1.394-4.552-2.256,1.957-1.464,1.7-1.273,5.181,4.2-1.443,1.156,2.682,4.09Z" transform="translate(314.558 1637.98)" fill="#ffe527"/>
        </g>
      </g>
      <path id="Path_139" data-name="Path 139" d="M-308.708-1621.24l-1.3.97-4.552-2.256,1.957-1.464Z" transform="translate(314.558 1637.211)" fill="#ffbd29"/>
      <g id="Group_78" data-name="Group 78" transform="translate(35.127 11.984)">
        <g id="Group_77" data-name="Group 77" transform="translate(0)">
          <path id="Path_140" data-name="Path 140" d="M79.011-1631.21l-1.864-1.394,4.552-2.256-1.957-1.464-1.7-1.272-5.181,4.2,1.443,1.156-2.682,4.09Z" transform="translate(-71.619 1637.596)" fill="#ffe527"/>
        </g>
        <path id="Path_141" data-name="Path 141" d="M118.129-1620.856l1.3.97,4.552-2.256-1.957-1.464Z" transform="translate(-113.898 1624.879)" fill="#ffbd29"/>
      </g>
    </g>
    <g id="Group_80" data-name="Group 80" transform="translate(-322.061 -1776.839)">
      <path id="Path_142" data-name="Path 142" d="M-97.968-1734.215a1.558,1.558,0,0,1,1.557-1.557,1.558,1.558,0,0,1,1.557,1.557.682.682,0,0,0,.682.682.682.682,0,0,0,.682-.682,2.924,2.924,0,0,0-2.921-2.921,2.924,2.924,0,0,0-2.921,2.921.682.682,0,0,0,.682.682.682.682,0,0,0,.682-.682Z" transform="translate(119.592 1740.747)"/>
      <path id="Path_143" data-name="Path 143" d="M-275.785-1746.277a9.109,9.109,0,0,0-5.18-1.6h-1.676a6.565,6.565,0,0,1-5.087-2.844,15.617,15.617,0,0,1-2.587-7.848c4.338-3.971,6.535-7.555,6.535-10.677,0-.385-.016-.77-.047-1.147v-.01c-.088-.889-.139-2.984-.141-5.75a.682.682,0,0,0-.682-.682h-2.989a.682.682,0,0,0-.682.682.682.682,0,0,0,.682.682h2.309c.01,2.467.062,4.339.146,5.2.028.338.042.684.042,1.029,0,3.224-2.839,7.155-8.441,11.687a8.383,8.383,0,0,1-5.275,1.873h-.038a8.4,8.4,0,0,1-5.285-1.878c-5.6-4.529-8.435-8.459-8.435-11.682,0-.364.014-.707.042-1.014.074-.753.109-2.13.126-3.152.01-.629.017-1.319.02-2.058H-290.8a.682.682,0,0,0,.682-.682.682.682,0,0,0-.682-.682H-313.11a.682.682,0,0,0-.682.682c0,.992-.008,1.907-.021,2.718-.023,1.43-.065,2.482-.12,3.047-.032.354-.047.738-.047,1.141,0,3.122,2.2,6.706,6.535,10.676a15.617,15.617,0,0,1-2.587,7.848,6.565,6.565,0,0,1-5.086,2.844h-1.518a9.163,9.163,0,0,0-2.706.407l-.019.006a9.111,9.111,0,0,0-2.4,1.153.682.682,0,0,0-.3.565v11.413a4.075,4.075,0,0,0,4.07,4.07.682.682,0,0,0,.682-.682.682.682,0,0,0-.682-.682,2.709,2.709,0,0,1-2.706-2.706v-11.041a7.75,7.75,0,0,1,1.367-.661,28.2,28.2,0,0,0,9.318,5.985,30.314,30.314,0,0,0,11.133,2.121,30.34,30.34,0,0,0,13.654-3.26.682.682,0,0,0,.3-.918.682.682,0,0,0-.918-.3,28.968,28.968,0,0,1-13.035,3.112,28.946,28.946,0,0,1-10.631-2.025,26.915,26.915,0,0,1-8.251-5.113,7.861,7.861,0,0,1,1.123-.081h1.286a26.9,26.9,0,0,0,7.761,4.171,26.943,26.943,0,0,0,8.7,1.442h.014a26.945,26.945,0,0,0,8.684-1.433,26.9,26.9,0,0,0,7.788-4.18h1.444a7.878,7.878,0,0,1,.985.063,26.535,26.535,0,0,1-3.292,2.553.682.682,0,0,0-.2.945.682.682,0,0,0,.571.308.678.678,0,0,0,.374-.112,27.837,27.837,0,0,0,4.136-3.319,7.752,7.752,0,0,1,1.535.735v11.009a2.709,2.709,0,0,1-2.706,2.706h-35.267a.682.682,0,0,0-.682.682.682.682,0,0,0,.682.682h35.267a4.075,4.075,0,0,0,4.07-4.07v-11.377a.682.682,0,0,0-.3-.562Zm-14.85,2.647a25.585,25.585,0,0,1-8.245,1.36h-.013a25.584,25.584,0,0,1-8.257-1.369,25.5,25.5,0,0,1-6.214-3.118,8.552,8.552,0,0,0,4.418-3.145l.016-.022a16.923,16.923,0,0,0,2.758-7.526q.547.466,1.131.939a9.76,9.76,0,0,0,6.142,2.183h.044a9.75,9.75,0,0,0,6.131-2.178q.588-.476,1.136-.944a16.921,16.921,0,0,0,2.758,7.525l.016.022a8.551,8.551,0,0,0,4.419,3.145,25.5,25.5,0,0,1-6.24,3.127Z" transform="translate(322.061 1776.839)"/>
      <path id="Path_144" data-name="Path 144" d="M-120.451-1660.056a.682.682,0,0,0,.03.755.682.682,0,0,0,.708.264,17.776,17.776,0,0,1,8.027,0,.683.683,0,0,0,.155.018.682.682,0,0,0,.553-.282.682.682,0,0,0,.03-.755c-.9-1.473-2.127-3.489-4.752-3.489s-3.854,2.017-4.751,3.489Zm4.751-2.125a3.333,3.333,0,0,1,2.712,1.512,19.078,19.078,0,0,0-2.712-.193,19.083,19.083,0,0,0-2.711.193A3.333,3.333,0,0,1-115.7-1662.181Z" transform="translate(138.88 1673.85)"/>
      <path id="Path_145" data-name="Path 145" d="M-105.327-1507.16h-1.239a2.319,2.319,0,0,0-.174-.419l.6-.6a.682.682,0,0,0,0-.965.682.682,0,0,0-.965,0l-.6.6a2.32,2.32,0,0,0-.419-.174v-1.239a.682.682,0,0,0-.682-.682.682.682,0,0,0-.682.682v1.239a2.33,2.33,0,0,0-.419.174l-1.6-1.6a.682.682,0,0,0-.965,0,.682.682,0,0,0,0,.965l1.6,1.6a2.333,2.333,0,0,0-.174.419h-1.239a.682.682,0,0,0-.682.682.682.682,0,0,0,.682.682h1.239a2.331,2.331,0,0,0,.174.419l-.6.6a.682.682,0,0,0,0,.965.68.68,0,0,0,.482.2.68.68,0,0,0,.482-.2l.6-.6a2.328,2.328,0,0,0,.42.174V-1503a.682.682,0,0,0,.682.682.682.682,0,0,0,.682-.682v-1.239a2.329,2.329,0,0,0,.419-.174l1.6,1.6a.681.681,0,0,0,.482.2.68.68,0,0,0,.482-.2.682.682,0,0,0,0-.965l-1.6-1.6a2.331,2.331,0,0,0,.174-.419h1.239a.682.682,0,0,0,.682-.682A.682.682,0,0,0-105.327-1507.16Zm-3.479,1.66a.979.979,0,0,1-.978-.978.979.979,0,0,1,.978-.978.979.979,0,0,1,.978.978A.979.979,0,0,1-108.806-1505.5Z" transform="translate(131.987 1534.853)"/>
      <path id="Path_146" data-name="Path 146" d="M-321.682-1641.454l3.558,1.763-.975.729a.682.682,0,0,0-.268.631.682.682,0,0,0,.416.545l7.392,3.059a.68.68,0,0,0,.261.052.682.682,0,0,0,.526-.247.682.682,0,0,0,.045-.809l-2.342-3.571.958-.769a.682.682,0,0,0,.255-.531.683.683,0,0,0-.253-.532l-5.181-4.2a.682.682,0,0,0-.838-.016l-3.659,2.736a.682.682,0,0,0-.271.608.682.682,0,0,0,.376.549Zm3.946-2.483,4.111,3.332-.782.627a.682.682,0,0,0-.144.906l1.468,2.239-4.239-1.754.9-.676a.682.682,0,0,0,.271-.608.682.682,0,0,0-.376-.549l-3.558-1.763Z" transform="translate(322.061 1657.432)"/>
      <path id="Path_147" data-name="Path 147" d="M-298.176-1521.117a.682.682,0,0,0,.544.419l3.6.468a.7.7,0,0,0,.089.006.682.682,0,0,0,.676-.594.682.682,0,0,0-.589-.764l-2.411-.313.712-.9a.682.682,0,0,0,.1-.68.682.682,0,0,0-.544-.419l-3.6-.468a.682.682,0,0,0-.764.589.682.682,0,0,0,.589.764l2.411.313-.712.9a.682.682,0,0,0-.1.68Z" transform="translate(302.346 1547.335)"/>
      <path id="Path_148" data-name="Path 148" d="M65.357-1640.212a.682.682,0,0,0,.255.531l.958.769-2.342,3.571a.682.682,0,0,0,.045.809.682.682,0,0,0,.526.247.68.68,0,0,0,.261-.052l7.392-3.059a.682.682,0,0,0,.416-.545.682.682,0,0,0-.268-.631l-.975-.729,3.558-1.763a.682.682,0,0,0,.376-.549.682.682,0,0,0-.271-.608l-3.659-2.736a.682.682,0,0,0-.838.016l-5.181,4.2a.682.682,0,0,0-.253.532Zm2.551.623-.782-.627,4.111-3.332,2.345,1.754-3.558,1.763a.682.682,0,0,0-.376.549.682.682,0,0,0,.271.608l.9.676-4.239,1.754,1.468-2.239a.682.682,0,0,0-.144-.906Z" transform="translate(-28.99 1657.079)"/>
      <path id="Path_149" data-name="Path 149" d="M97.131-1523.391a.683.683,0,0,0-.764-.589l-3.6.468a.682.682,0,0,0-.544.419.682.682,0,0,0,.1.68l.712.9-2.411.313a.682.682,0,0,0-.589.764.682.682,0,0,0,.676.594.7.7,0,0,0,.089-.006l3.6-.468a.682.682,0,0,0,.544-.419.682.682,0,0,0-.1-.68l-.712-.9,2.411-.313a.682.682,0,0,0,.589-.764Z" transform="translate(-52.538 1546.985)"/>
      <circle id="Ellipse_21" data-name="Ellipse 21" cx="0.682" cy="0.682" r="0.682" transform="translate(16.529 30.709)"/>
      <circle id="Ellipse_22" data-name="Ellipse 22" cx="0.682" cy="0.682" r="0.682" transform="translate(16.177 26.315)"/>
      <circle id="Ellipse_23" data-name="Ellipse 23" cx="0.682" cy="0.682" r="0.682" transform="translate(28.094 22.859)"/>
      <circle id="Ellipse_24" data-name="Ellipse 24" cx="0.682" cy="0.682" r="0.682" transform="translate(28.639 28.954)"/>
    </g>
  </g>
</svg>
