<svg xmlns="http://www.w3.org/2000/svg" width="29.578" height="44" viewBox="0 0 29.578 44">
  <g id="icon-6" transform="translate(-476.748 1714.533)">
    <g id="Group_89" data-name="Group 89" transform="translate(477.398 -1713.887)">
      <path id="Path_150" data-name="Path 150" d="M511.922-1681.838l-4.521-8.273a11.6,11.6,0,0,1-1.417-5.88c0-.108,0-.218,0-.325a11.814,11.814,0,0,0-5.055-9.69l-.576-.4a3.342,3.342,0,0,0-3.825,0l-.576.4a11.814,11.814,0,0,0-5.051,10.015c0,.1,0,.21,0,.315a11.6,11.6,0,0,1-1.421,5.565l-4.521,8.273a5.409,5.409,0,0,0,1.491,6.913,5.407,5.407,0,0,0,3.256,1.091,5.4,5.4,0,0,0,2.211-.473l2.786-1.466a.2.2,0,0,1,.245.048l.105.125a4.362,4.362,0,0,0,6.679,0l.091-.108a.2.2,0,0,1,.241-.05l1.816.911a9.092,9.092,0,0,0,3.467,1.009,4.667,4.667,0,0,0,3.074-1.087,5.406,5.406,0,0,0,2.154-4.323,5.392,5.392,0,0,0-.662-2.59Z" transform="translate(-484.306 1707.009)" fill="#fed2a4"/>
      <path id="Path_151" data-name="Path 151" d="M488.048-1679.61l4.521-8.273a11.6,11.6,0,0,0,1.421-5.565c0-.1,0-.21,0-.315a11.814,11.814,0,0,1,5.051-10.015l.576-.4a3.34,3.34,0,0,1,2.983-.423,11.8,11.8,0,0,0-1.662-1.4l-.576-.4a3.342,3.342,0,0,0-3.825,0l-.576.4a11.814,11.814,0,0,0-5.051,10.015c0,.1,0,.21,0,.315a11.6,11.6,0,0,1-1.421,5.565l-4.521,8.273a5.409,5.409,0,0,0,1.491,6.913,5.412,5.412,0,0,0,1.828.9,5.412,5.412,0,0,1-.24-5.584Z" transform="translate(-484.306 1707.009)" fill="#ffbd86"/>
      <g id="Group_87" data-name="Group 87" transform="translate(3.648 27.054)">
        <g id="Group_84" data-name="Group 84" transform="translate(13.731 0)">
          <g id="Group_82" data-name="Group 82" transform="translate(1.132)">
            <path id="Path_152" data-name="Path 152" d="M705.742-1390.471a1.572,1.572,0,0,1-.255.86,1.589,1.589,0,0,1-.568.528,1.594,1.594,0,0,1-.741.2l-4.37-.1a.1.1,0,0,1-.075-.166l1.719-2.047a2.8,2.8,0,0,1,3.432-.686,1.586,1.586,0,0,1,.857,1.411Z" transform="translate(-699.71 1392.196)" fill="#ffbd86"/>
          </g>
          <g id="Group_83" data-name="Group 83" transform="translate(0 3.238)">
            <path id="Path_153" data-name="Path 153" d="M693.609-1348.136a10.232,10.232,0,0,1-1.7-5.739v-.58l-3-.067v.676a10.754,10.754,0,0,1-1.755,5.791,3.85,3.85,0,0,0-.6,2.244,3.879,3.879,0,0,0,3.844,3.7,3.863,3.863,0,0,0,3.879-3.863,3.845,3.845,0,0,0-.661-2.161Z" transform="translate(-686.543 1354.522)" fill="#99e6fc"/>
          </g>
        </g>
        <g id="Group_86" data-name="Group 86">
          <g id="Group_85" data-name="Group 85">
            <path id="Path_154" data-name="Path 154" d="M531.05-1391.2l1.277,1.52a.077.077,0,0,1-.049.126l-.425.055-3.222.583a1.587,1.587,0,0,1-1.615-.7,1.573,1.573,0,0,1-.255-.86,1.587,1.587,0,0,1,.857-1.411,2.792,2.792,0,0,1,1.287-.314A2.8,2.8,0,0,1,531.05-1391.2Z" transform="translate(-526.76 1392.198)" fill="#ffbd86"/>
          </g>
        </g>
      </g>
      <path id="Path_155" data-name="Path 155" d="M717.037-1388.886v-3.283a2.8,2.8,0,0,0-2.489.978l-.512.609v1.629Z" transform="translate(-694.294 1419.245)" fill="#99e6fc"/>
      <g id="Group_88" data-name="Group 88" transform="translate(17.38 27.054)">
        <path id="Path_156" data-name="Path 156" d="M688.18-1345.812a3.849,3.849,0,0,1,.6-2.244,10.754,10.754,0,0,0,1.755-5.791v-.639l-1.633-.037v.676a10.754,10.754,0,0,1-1.755,5.791,3.85,3.85,0,0,0-.6,2.244,3.879,3.879,0,0,0,3.844,3.7,3.889,3.889,0,0,0,.837-.087,3.884,3.884,0,0,1-3.048-3.613Z" transform="translate(-686.543 1357.76)" fill="#62dbfb"/>
        <path id="Path_157" data-name="Path 157" d="M715.671-1388.952v-.833a2.185,2.185,0,0,1,.512-1.405,3.4,3.4,0,0,1,.856-.978,2.8,2.8,0,0,0-2.489.978l-.509.606a.011.011,0,0,0,0,.007v1.614a.011.011,0,0,0,.011.011l1.622.036v-.036Z" transform="translate(-711.675 1392.189)" fill="#62dbfb"/>
      </g>
    </g>
    <g id="Group_90" data-name="Group 90" transform="translate(476.748 -1714.533)">
      <path id="Path_158" data-name="Path 158" d="M505.584-1639.46l-4.521-8.273a10.961,10.961,0,0,1-1.337-5.55,12.45,12.45,0,0,0-1.742-6.7.65.65,0,0,0-.891-.227.65.65,0,0,0-.227.891,11.152,11.152,0,0,1,1.56,6,12.26,12.26,0,0,0,1.5,6.21l4.521,8.273a4.786,4.786,0,0,1-1.311,6.082,4.734,4.734,0,0,1-2.224.915,10.338,10.338,0,0,1-.115-1.509,2.232,2.232,0,0,0,1.44-.978,2.241,2.241,0,0,0,.284-1.789,2.241,2.241,0,0,0-1.133-1.413,3.432,3.432,0,0,0-4.229.845l-2.818,3.355a3.7,3.7,0,0,1-2.841,1.324,3.7,3.7,0,0,1-2.841-1.324l-2.818-3.355a3.432,3.432,0,0,0-4.23-.845,2.241,2.241,0,0,0-1.133,1.413,2.241,2.241,0,0,0,.284,1.789,2.231,2.231,0,0,0,2.277.986l3.222-.584a.659.659,0,0,0,.157-.049l.518.616-2.195,1.155a4.759,4.759,0,0,1-4.792-.551,4.786,4.786,0,0,1-1.311-6.082l2.232-4.084a.65.65,0,0,0-.259-.882.65.65,0,0,0-.882.259l-2.232,4.084a6.061,6.061,0,0,0-.606,4.183,6.061,6.061,0,0,0,2.276,3.561,6.058,6.058,0,0,0,3.648,1.221,6.052,6.052,0,0,0,2.476-.529l.037-.018,2.469-1.3a5,5,0,0,0,3.7,1.637,5,5,0,0,0,3.693-1.626l1.162.583a10.417,10.417,0,0,1-1.512,3.835,4.493,4.493,0,0,0-.706,2.622,4.483,4.483,0,0,0,1.384,3.057,4.492,4.492,0,0,0,3.108,1.266h.018a4.534,4.534,0,0,0,4.224-2.921.65.65,0,0,0-.379-.838.65.65,0,0,0-.838.379,3.228,3.228,0,0,1-3.007,2.08h-.013a3.245,3.245,0,0,1-3.2-3.077,3.2,3.2,0,0,1,.5-1.867,11.4,11.4,0,0,0,1.858-6.142v-2.068l.359-.428a2.142,2.142,0,0,1,1.342-.747v3.214a10.835,10.835,0,0,0,1.814,6.1,3.219,3.219,0,0,1,.329.626.65.65,0,0,0,.606.413.651.651,0,0,0,.237-.045.65.65,0,0,0,.368-.843,4.51,4.51,0,0,0-.463-.88,9.111,9.111,0,0,1-1.2-2.559,6.024,6.024,0,0,0,2.728-1.151,6.061,6.061,0,0,0,2.276-3.562A6.061,6.061,0,0,0,505.584-1639.46Zm-22.784,4.839a.934.934,0,0,1-.953-.413.926.926,0,0,1-.119-.749.925.925,0,0,1,.475-.592,2.157,2.157,0,0,1,.994-.244,2.14,2.14,0,0,1,1.642.77l.625.744Zm13.689,1.269c0,.073,0,.146,0,.219l-.433-.218.437-.521Zm4.77-2.43a.926.926,0,0,1-.119.749.935.935,0,0,1-.349.318v-1.655a.925.925,0,0,1,.468.588Z" transform="translate(-476.748 1664.966)"/>
      <path id="Path_159" data-name="Path 159" d="M526.273-1694.669a.646.646,0,0,0,.311.08.65.65,0,0,0,.571-.339l.956-1.75a12.261,12.261,0,0,0,1.5-6.209,11.134,11.134,0,0,1,4.773-9.464l.575-.4a2.7,2.7,0,0,1,3.082,0l.575.4a11.2,11.2,0,0,1,1.607,1.363.65.65,0,0,0,.919.012.65.65,0,0,0,.012-.919,12.49,12.49,0,0,0-1.794-1.522l-.575-.4a4.008,4.008,0,0,0-4.57,0l-.575.4a12.431,12.431,0,0,0-5.329,10.566,10.962,10.962,0,0,1-1.337,5.55l-.956,1.75a.65.65,0,0,0,.259.882Z" transform="translate(-521.708 1714.533)"/>
    </g>
  </g>
</svg>
