<svg xmlns="http://www.w3.org/2000/svg" width="35.28" height="38.499" viewBox="0 0 35.28 38.499">
  <g id="icon-3" transform="translate(1158.029 -299.222)">
    <path id="Path_41" data-name="Path 41" d="M-1140.448,356.29a1.3,1.3,0,0,1-1.1-.608l-8.3-13.253a4.523,4.523,0,0,1,.305-5.226l1.719-2.143a1.3,1.3,0,0,1,1.821-.2,1.3,1.3,0,0,1,.2,1.821l-1.719,2.143a1.93,1.93,0,0,0-.13,2.229l7.2,11.5,7.2-11.5a1.929,1.929,0,0,0-.13-2.229l-1.719-2.143a1.3,1.3,0,0,1,.2-1.821,1.3,1.3,0,0,1,1.821.2l1.719,2.143a4.523,4.523,0,0,1,.305,5.226l-8.3,13.253A1.3,1.3,0,0,1-1140.448,356.29Z" transform="translate(-6.934 -32.695)" fill="#bdc0c3"/>
    <path id="Path_42" data-name="Path 42" d="M-1130.364,336.552a.9.9,0,0,0,.1.092l1.578,1.289a.913.913,0,0,0,.39.186l1.153-1.437a1.3,1.3,0,0,0-.2-1.821,1.3,1.3,0,0,0-1.821.2Z" transform="translate(-25.585 -32.696)" opacity="0.1" style="isolation: isolate"/>
    <path id="Path_43" data-name="Path 43" d="M-945.574,336.552a.916.916,0,0,1-.1.092l-1.578,1.289a.913.913,0,0,1-.39.186l-1.153-1.437a1.3,1.3,0,0,1,.2-1.821,1.3,1.3,0,0,1,1.821.2Z" transform="translate(-193.241 -32.696)" opacity="0.1" style="isolation: isolate"/>
    <g id="Group_25" data-name="Group 25" transform="translate(-1155.429 299.786)">
      <path id="Path_44" data-name="Path 44" d="M-1123.247,308.833l1.124-1.376a1.973,1.973,0,0,1,2.783-.284,1.937,1.937,0,0,1,.246,2.7l-1.151,1.409a.919.919,0,0,1-1.293.13l-1.578-1.289A.919.919,0,0,1-1123.247,308.833Z" transform="translate(1123.454 -306.725)" fill="#495059"/>
      <path id="Path_45" data-name="Path 45" d="M-968.622,308.833l-1.124-1.376a1.973,1.973,0,0,0-2.783-.284,1.938,1.938,0,0,0-.246,2.7l1.152,1.409a.919.919,0,0,0,1.293.13l1.578-1.289A.919.919,0,0,0-968.622,308.833Z" transform="translate(984.509 -306.725)" fill="#495059"/>
    </g>
    <path id="Path_46" data-name="Path 46" d="M-1022.465,605.049h-2.231a8.978,8.978,0,0,1-8.968-8.968v-5.89a1.3,1.3,0,0,1,1.3-1.3,1.3,1.3,0,0,1,1.3,1.3v5.89a6.384,6.384,0,0,0,6.377,6.377h2.231a8.5,8.5,0,0,0,8.487-8.487v-3.78a1.3,1.3,0,0,1,1.3-1.3,1.3,1.3,0,0,1,1.3,1.3v3.78A11.091,11.091,0,0,1-1022.465,605.049Z" transform="translate(-115.013 -267.892)" fill="#7fdbd5"/>
    <path id="Path_47" data-name="Path 47" d="M-770.563,588.9a1.3,1.3,0,0,0-1.3,1.3v3.194a4.382,4.382,0,0,0,1.3.195,4.381,4.381,0,0,0,1.3-.195v-3.194A1.3,1.3,0,0,0-770.563,588.9Z" transform="translate(-357.133 -267.892)" opacity="0.1" style="isolation: isolate"/>
    <path id="Path_48" data-name="Path 48" d="M-1031.074,593.791v-3.6a1.3,1.3,0,0,0-1.3-1.3,1.3,1.3,0,0,0-1.3,1.3v3.6A1.9,1.9,0,0,0-1031.074,593.791Z" transform="translate(-115.012 -267.892)" opacity="0.1" style="isolation: isolate"/>
    <circle id="Ellipse_10" data-name="Ellipse 10" cx="4.384" cy="4.384" r="4.384" transform="translate(-1132.08 315.193)" fill="#495059"/>
    <circle id="Ellipse_11" data-name="Ellipse 11" cx="2.356" cy="2.356" r="2.356" transform="translate(-1130.052 317.221)" fill="#b3e7ff"/>
    <path id="Path_49" data-name="Path 49" d="M-805.136,520.445c-4.459.38-5.72-5.264-4.493-7.006a4.385,4.385,0,0,0-3.3,4.247,4.383,4.383,0,0,0,4.383,4.383A4.374,4.374,0,0,0-805.136,520.445Z" transform="translate(-319.154 -198.109)" opacity="0.1" style="isolation: isolate"/>
    <path id="Path_50" data-name="Path 50" d="M-1077.59,534.468l-3.326,5.313a2.24,2.24,0,0,1-3.8,0l-3.326-5.313a1.12,1.12,0,0,1,.949-1.714h8.551A1.12,1.12,0,0,1-1077.59,534.468Z" transform="translate(-64.567 -215.972)" fill="#b3e7ff"/>
    <path id="Path_51" data-name="Path 51" d="M-1066.562,586.472l1.871,2.988a2.24,2.24,0,0,0,3.8,0l1.871-2.988Z" transform="translate(-84.589 -265.651)" fill="#76b7eb"/>
    <path id="Path_52" data-name="Path 52" d="M-1084.714,539.782a2.24,2.24,0,0,0,3.8,0l.715-1.142c-2.936,1.788-4.981-3.9-5.482-5.885h-1.406a1.12,1.12,0,0,0-.949,1.714Z" transform="translate(-64.567 -215.973)" opacity="0.1" style="isolation: isolate"/>
    <path id="Path_53" data-name="Path 53" d="M-1123.243,317.418a.564.564,0,0,0-.754-.261.564.564,0,0,0-.261.754,3.781,3.781,0,0,1,.381,1.666,3.824,3.824,0,0,1-3.819,3.819,3.824,3.824,0,0,1-3.82-3.819,3.824,3.824,0,0,1,3.82-3.82,3.813,3.813,0,0,1,1.972.547.564.564,0,0,0,.774-.191.564.564,0,0,0-.191-.774,4.94,4.94,0,0,0-2.555-.71,4.953,4.953,0,0,0-4.947,4.947,4.954,4.954,0,0,0,3.088,4.583v1.919a7.932,7.932,0,0,1-7.923,7.923h-2.231a5.819,5.819,0,0,1-5.813-5.813v-3.47a2.816,2.816,0,0,0,.517-.611l3.326-5.313a1.663,1.663,0,0,0,.046-1.709,1.763,1.763,0,0,0-.15-.226l4.275-6.827a5.088,5.088,0,0,0-.343-5.878l-.988-1.232a1.482,1.482,0,0,0,.062-.3,1.473,1.473,0,0,0-.327-1.087h0l-1.124-1.376a2.58,2.58,0,0,0-1.754-.929,2.459,2.459,0,0,0-1.83.572,2.514,2.514,0,0,0-.318,3.489l1.151,1.41a1.474,1.474,0,0,0,1,.537,1.5,1.5,0,0,0,.151.008c.028,0,.055,0,.083,0l.993,1.238a1.365,1.365,0,0,1,.092,1.577l-5.108,8.159H-1149l-5.108-8.158a1.365,1.365,0,0,1,.092-1.577l.993-1.238c.027,0,.055,0,.083,0a1.5,1.5,0,0,0,.151-.008,1.474,1.474,0,0,0,1-.537l1.151-1.409a2.514,2.514,0,0,0-.317-3.489,2.459,2.459,0,0,0-1.83-.572,2.58,2.58,0,0,0-1.754.929l-1.124,1.376a1.482,1.482,0,0,0-.264,1.385l-.989,1.233a5.087,5.087,0,0,0-.343,5.878l4.275,6.828a1.745,1.745,0,0,0-.15.226,1.662,1.662,0,0,0,.046,1.709l3.326,5.313a2.819,2.819,0,0,0,.517.611v3.47a9.431,9.431,0,0,0,.9,4.047.564.564,0,0,0,.511.324.562.562,0,0,0,.24-.054.564.564,0,0,0,.27-.75,8.312,8.312,0,0,1-.795-3.566v-2.861a2.827,2.827,0,0,0,.732.1,2.827,2.827,0,0,0,.732-.1v2.861a6.949,6.949,0,0,0,6.941,6.941h2.231a9.061,9.061,0,0,0,9.051-9.051V324.47a4.972,4.972,0,0,0,.732.054,4.97,4.97,0,0,0,.731-.054v1.609a10.526,10.526,0,0,1-10.514,10.514h-2.231a8.42,8.42,0,0,1-6.245-2.786.564.564,0,0,0-.8-.042.564.564,0,0,0-.042.8,9.549,9.549,0,0,0,7.083,3.159h2.231a11.655,11.655,0,0,0,11.642-11.642V324.16a4.955,4.955,0,0,0,3.088-4.583A4.9,4.9,0,0,0-1123.243,317.418Zm-18.364-13.378a.355.355,0,0,1-.114.062l-.008,0a.353.353,0,0,1-.138.013.352.352,0,0,1-.239-.129l-1.151-1.409a1.38,1.38,0,0,1,.174-1.916,1.33,1.33,0,0,1,.867-.314c.043,0,.087,0,.131.006a1.445,1.445,0,0,1,.983.519l1.124,1.376h0a.355.355,0,0,1-.05.5Zm1.9,4.618a2.494,2.494,0,0,0-.168-2.881l-.822-1.025,1.133-.926.831,1.035a3.958,3.958,0,0,1,.267,4.574l-4.272,6.824a1.726,1.726,0,0,0-.37-.04h-1.331Zm-15.08-6.407,1.124-1.376a1.445,1.445,0,0,1,.983-.519,1.34,1.34,0,0,1,1,.308,1.38,1.38,0,0,1,.174,1.916l-1.151,1.409a.355.355,0,0,1-.5.05l-1.578-1.289A.355.355,0,0,1-1154.785,302.251Zm-1.514,7.183a3.958,3.958,0,0,1,.267-4.573l.83-1.035,1.133.926-.822,1.025a2.494,2.494,0,0,0-.168,2.881l4.733,7.56h-1.331a1.731,1.731,0,0,0-.37.04Zm8.917,14.862a1.667,1.667,0,0,1-1.421-.787l-3.326-5.313a.545.545,0,0,1-.015-.564.578.578,0,0,1,.18-.2l.007,0,.008-.006a.542.542,0,0,1,.292-.081h8.551a.54.54,0,0,1,.292.08l.008.006.007,0a.579.579,0,0,1,.18.2.545.545,0,0,1-.015.564l-3.326,5.313A1.666,1.666,0,0,1-1147.382,324.3Zm19.686-7.639a2.923,2.923,0,0,0-2.92,2.92,2.923,2.923,0,0,0,2.92,2.92,2.923,2.923,0,0,0,2.92-2.92A2.923,2.923,0,0,0-1127.7,316.657Zm0,4.712a1.794,1.794,0,0,1-1.792-1.792,1.794,1.794,0,0,1,1.792-1.792,1.794,1.794,0,0,1,1.792,1.792A1.794,1.794,0,0,1-1127.7,321.369Z"/>
  </g>
</svg>
