<svg xmlns="http://www.w3.org/2000/svg" width="37.436" height="28.442" viewBox="0 0 37.436 28.442">
  <g id="icon-20" transform="translate(5683.106 153.239)">
    <g id="Group_270" data-name="Group 270" transform="translate(-5678.518 -152.508)">
      <path id="Path_564" data-name="Path 564" d="M-5620.354-141.981v14.875a1.261,1.261,0,0,0,1.256,1.258h19.95l5.078,3.836,2.539,1.917v-5.753h2.035a1.263,1.263,0,0,0,1.258-1.258v-14.875a1.261,1.261,0,0,0-1.258-1.258h-29.6a1.261,1.261,0,0,0-1.256,1.258Z" transform="translate(5620.354 143.239)" fill="#dfedff" fill-rule="evenodd"/>
    </g>
    <g id="Group_271" data-name="Group 271" transform="translate(-5682.375 -148.672)">
      <path id="Path_565" data-name="Path 565" d="M-5673.106-89.52v14.877a1.261,1.261,0,0,0,1.258,1.258h2.035v5.753l7.615-5.753h19.233l-5.078-3.836h-19.95a1.261,1.261,0,0,1-1.256-1.258v-12.3h-2.6a1.261,1.261,0,0,0-1.258,1.256Z" transform="translate(5673.106 90.776)" fill="#a0c8ff" fill-rule="evenodd"/>
    </g>
    <g id="Group_272" data-name="Group 272" transform="translate(-5683.106 -153.239)">
      <path id="Path_566" data-name="Path 566" d="M-5647.66-153.239h-29.6a1.991,1.991,0,0,0-1.987,1.989v1.847h-1.868a1.991,1.991,0,0,0-1.989,1.987v14.877a1.992,1.992,0,0,0,1.989,1.989h1.3v5.022a.731.731,0,0,0,.405.655.731.731,0,0,0,.326.077.732.732,0,0,0,.441-.148l7.419-5.605h18.744l2.342,1.769a.731.731,0,0,0,.441.148.731.731,0,0,0,.326-.077.731.731,0,0,0,.405-.655v-5.022h1.3a1.992,1.992,0,0,0,1.989-1.989V-151.25a1.992,1.992,0,0,0-1.989-1.989Zm.527,16.864a.534.534,0,0,1-.527.527h-2.035a.731.731,0,0,0-.731.731v4.284l-6.444-4.868a.731.731,0,0,0-.441-.148h-8.336a.731.731,0,0,0-.731.731.731.731,0,0,0,.731.731h8.091l3.143,2.374h-17.053a.732.732,0,0,0-.441.148L-5678.35-127v-4.284a.731.731,0,0,0-.731-.731h-2.035a.527.527,0,0,1-.527-.527v-14.877a.533.533,0,0,1,.527-.525h1.868v11.566a1.991,1.991,0,0,0,1.987,1.989h5.049a.731.731,0,0,0,.731-.731.731.731,0,0,0-.731-.731h-5.049a.533.533,0,0,1-.525-.527V-151.25a.533.533,0,0,1,.525-.527h29.6a.527.527,0,0,1,.527.527Z" transform="translate(5683.106 153.239)"/>
      <path id="Path_567" data-name="Path 567" d="M-5476.933-87.154c-.007-.018-.014-.036-.022-.054l-2.259-5.358-.015-.032a.729.729,0,0,0-.375-.358.732.732,0,0,0-.958.389l-2.27,5.379,0,.009-1.256,2.978a.731.731,0,0,0,.39.958.729.729,0,0,0,.284.058.732.732,0,0,0,.674-.447l1.069-2.535h3.571l1.069,2.535a.731.731,0,0,0,.674.447.73.73,0,0,0,.284-.058.731.731,0,0,0,.39-.958Zm-4.125-.475,1.169-2.771,1.168,2.771Z" transform="translate(5498.696 97.416)"/>
      <path id="Path_568" data-name="Path 568" d="M-5348.171-92.8a5.329,5.329,0,0,0,.914-3.014,4.718,4.718,0,0,0-4.423-4.957,4.719,4.719,0,0,0-4.425,4.957,4.72,4.72,0,0,0,4.425,4.959,4.077,4.077,0,0,0,2.509-.878l1.374,1.363a.728.728,0,0,0,.515.212.727.727,0,0,0,.519-.216.731.731,0,0,0,0-1.034Zm-1.06-1.052-1.271-1.262a.731.731,0,0,0-1.034,0,.731.731,0,0,0,0,1.034l1.312,1.3a2.6,2.6,0,0,1-1.46.456,3.267,3.267,0,0,1-2.963-3.5,3.266,3.266,0,0,1,2.963-3.495,3.265,3.265,0,0,1,2.961,3.495A3.931,3.931,0,0,1-5349.231-93.856Z" transform="translate(5380.015 104.612)"/>
      <path id="Path_569" data-name="Path 569" d="M-5566.263-88.446a.731.731,0,0,0-.731-.731h-3.959v-2.369h3.959a.731.731,0,0,0,.731-.731.731.731,0,0,0-.731-.731h-4.69a.731.731,0,0,0-.731.731v8.584a.731.731,0,0,0,.731.731.731.731,0,0,0,.731-.731v-4.021h3.959a.731.731,0,0,0,.731-.731Z" transform="translate(5580.509 97.413)"/>
      <path id="Path_570" data-name="Path 570" d="M-5498.5,84.617a.731.731,0,0,0-.731.731.731.731,0,0,0,.731.731h0a.731.731,0,0,0,.73-.731A.732.732,0,0,0-5498.5,84.617Z" transform="translate(5512.67 -67.226)"/>
    </g>
  </g>
</svg>
