<svg xmlns="http://www.w3.org/2000/svg" width="32.185" height="32.185" viewBox="0 0 32.185 32.185">
  <g id="icon-16" transform="translate(-2902.035 3729.366)">
    <g id="Group_207" data-name="Group 207" transform="translate(2902.035 -3729.366)">
      <path id="Path_381" data-name="Path 381" d="M3165.055-3549.565v-8.29a1.341,1.341,0,0,0-.741-1.2l-4.623-2.311H3155.4l-4.623,2.311a1.341,1.341,0,0,0-.741,1.2v8.29Z" transform="translate(-3133.406 3572.631)" fill="#fac850"/>
      <path id="Path_382" data-name="Path 382" d="M3227.4-3586.987l-.377.565a2.682,2.682,0,0,1-3.719.745,2.683,2.683,0,0,1-.788-.812l-.48-.769,1.073-2.146h3.219Z" transform="translate(-3200.578 3598.788)" fill="#ffd4cf"/>
      <path id="Path_383" data-name="Path 383" d="M3233.648-3588.2l-.534-1.2h-3.219l-.585,1.17.855.57a2.414,2.414,0,0,0,2.678,0Z" transform="translate(-3207.365 3598.788)" fill="#fbb8b0"/>
      <path id="Path_384" data-name="Path 384" d="M3220.472-3681.366h-6.437v4.647a1.341,1.341,0,0,0,.6,1.116l1.877,1.251a1.341,1.341,0,0,0,1.488,0l1.877-1.251a1.341,1.341,0,0,0,.6-1.116Z" transform="translate(-3193.115 3684.585)" fill="#ffd4cf"/>
      <path id="Path_385" data-name="Path 385" d="M3272.605-3718.684h-2.57v-2.682l2.68.443a.671.671,0,0,1,.561.662v.906A.671.671,0,0,1,3272.605-3718.684Z" transform="translate(-3245.36 3721.902)" fill="#d32a20"/>
      <path id="Path_386" data-name="Path 386" d="M3198.37-3715.465v-2.79a2.011,2.011,0,0,1,1.117-1.8l2.637-1.309h1.073v2.682l-1.11,2.135a2.012,2.012,0,0,1-1.785,1.083Z" transform="translate(-3178.5 3721.902)" fill="#fa5d3f"/>
      <path id="Path_387" data-name="Path 387" d="M2910.035-3385.366h31.112v2.146h-31.112Z" transform="translate(-2909.499 3408.432)" fill="#2471d6"/>
      <path id="Path_388" data-name="Path 388" d="M2926.035-3353.366H2955v6.437h-28.967Z" transform="translate(-2924.426 3378.578)" fill="#25b1fa"/>
      <path id="Path_389" data-name="Path 389" d="M2910.706-3569.366h15.825a.671.671,0,0,1,.67.671v8.851a.67.67,0,0,1-.67.671h-15.825a.67.67,0,0,1-.67-.671v-8.851A.671.671,0,0,1,2910.706-3569.366Z" transform="translate(-2909.499 3580.094)" fill="#25b1fa"/>
      <path id="Path_390" data-name="Path 390" d="M3016.717-3593.366h-2.146l-.536,1.609h3.219Z" transform="translate(-3006.525 3602.485)" fill="#fa5d3f"/>
      <ellipse id="Ellipse_33" data-name="Ellipse 33" cx="2.299" cy="1.839" rx="2.299" ry="1.839" transform="translate(6.897 5.058)" fill="#fac850"/>
      <path id="Path_391" data-name="Path 391" d="M3030.035-3633.366h1.073v1.073h-1.073Z" transform="translate(-3021.452 3639.803)"/>
      <path id="Path_392" data-name="Path 392" d="M3010.326-3489.856h-4.292v-1.609l1.073-5.9h2.146l1.073,5.9Z" transform="translate(-2999.061 3512.922)" fill="#b3e9ff"/>
      <path id="Path_393" data-name="Path 393" d="M3022.035-3537.366h2.146v1.073h-2.146Z" transform="translate(-3013.989 3550.24)"/>
      <path id="Path_394" data-name="Path 394" d="M3200.717-3433.366h1.609v3.219h-4.291v-.537A2.682,2.682,0,0,1,3200.717-3433.366Z" transform="translate(-3178.187 3453.214)" fill="#ffd4cf"/>
      <path id="Path_395" data-name="Path 395" d="M3262.035-3433.366h7.51v3.219h-7.51Z" transform="translate(-3237.896 3453.214)" fill="#fac850"/>
      <g id="Group_206" data-name="Group 206" transform="translate(0 0)">
        <path id="Path_396" data-name="Path 396" d="M3240.181-3481.366l-2.146,3.219" transform="translate(-3215.505 3497.995)" fill="none"/>
        <path id="Path_397" data-name="Path 397" d="M2933.182-3716.27l-4.067-2.033-.565-1.274.543-.362a1.874,1.874,0,0,0,.836-1.562v-3.037h-1.073v3.037a.8.8,0,0,1-.358.67l-1.877,1.251a.8.8,0,0,1-.893,0l-1.878-1.251a.8.8,0,0,1-.358-.67v-.892h.346a2.54,2.54,0,0,0,2.26-1.373l.96-1.846h2.222a1.208,1.208,0,0,0,1.207-1.207v-.906a1.2,1.2,0,0,0-1.01-1.191l-2.6-.429a.538.538,0,0,0-.15-.021h-1.073a.536.536,0,0,0-.239.056l-2.637,1.309a2.534,2.534,0,0,0-1.416,2.282v2.79a.537.537,0,0,0,.537.536h.514v.892a1.875,1.875,0,0,0,.836,1.563l.516.344-.681,1.363-1.984.992.48.959,1.711-.856.22.353a3.207,3.207,0,0,0,2.683,1.514h.048a3.207,3.207,0,0,0,2.678-1.434l.248-.372,3.529,1.764a.8.8,0,0,1,.445.72v7.754h-6.437v-2.146H2931v-1.073h-5.435l1.59-2.385-.893-.595-2,2.993a3.223,3.223,0,0,0-2.922,3.205h-7.51v-1.073h5.23a1.208,1.208,0,0,0,1.207-1.207v-8.851a1.208,1.208,0,0,0-1.207-1.207h-5.917l-.364-1.092a2.682,2.682,0,0,0,.5-3.76,2.682,2.682,0,0,0-3.76-.5,2.682,2.682,0,0,0-.5,3.76,2.683,2.683,0,0,0,.5.5l-.364,1.092h-5.917a1.208,1.208,0,0,0-1.207,1.207v1.475h1.073v-1.475a.134.134,0,0,1,.134-.134h15.825a.134.134,0,0,1,.134.134v8.851a.134.134,0,0,1-.134.134h-5.417l-.9-4.924a.537.537,0,0,0-.528-.441h-2.146a.536.536,0,0,0-.528.441l-.9,4.924h-5.417a.134.134,0,0,1-.134-.134v-6.3h-1.073v6.3a1.208,1.208,0,0,0,1.207,1.207h5.23v1.073h-5.9a.536.536,0,0,0-.536.536v2.146a.536.536,0,0,0,.536.536h.536v5.9a.536.536,0,0,0,.536.536h28.967a.536.536,0,0,0,.536-.536v-2.682h-1.073v2.146H2904.18v-5.365h27.894v2.146h1.073v-2.146h.536a.536.536,0,0,0,.536-.536v-10.436a1.868,1.868,0,0,0-1.038-1.679Zm-5.913-11.924,2.034.336a.134.134,0,0,1,.112.132v.906a.134.134,0,0,1-.134.134h-2.012Zm-4.828,4.728v-2.253a1.467,1.467,0,0,1,.819-1.321l2.525-1.253h.388v2.058l-1.027,1.976a1.47,1.47,0,0,1-1.309.794Zm5.592,6.169a2.146,2.146,0,0,1-2.975.6,2.151,2.151,0,0,1-.631-.65l-.321-.514.565-1.13.461.307a1.873,1.873,0,0,0,2.083,0l.428-.286.6,1.356Zm-17.744-1.877.179-.536h1.372l.179.536Zm.865-1.609a1.609,1.609,0,0,1-1.609-1.609,1.609,1.609,0,0,1,1.609-1.609,1.609,1.609,0,0,1,1.609,1.609A1.611,1.611,0,0,1,2911.154-3720.783Zm13.41,11.8h1.073v2.146h-3.219A2.148,2.148,0,0,1,2924.564-3708.982Zm-15.02,1.121.984-5.413h1.25l.984,5.413v1.024h-3.219Zm23.6,3.17h-30.04v-1.073h30.04Z" transform="translate(-2902.035 3729.366)"/>
      </g>
    </g>
  </g>
</svg>
