<svg xmlns="http://www.w3.org/2000/svg" width="48.286" height="48.286" viewBox="0 0 48.286 48.286">
  <g id="icon-5" transform="translate(1019.859 1702.915)">
    <g id="Group_69" data-name="Group 69" transform="translate(-1019.08 -1702.136)">
      <g id="Group_65" data-name="Group 65" transform="translate(6.23 0)">
        <path id="Path_118" data-name="Path 118" d="M-907.361-1678.163a22.637,22.637,0,0,1-1.347,7.679,22.6,22.6,0,0,1-3.886,6.768l-2.555,3.068-7.009-7.009.428-.428a6.5,6.5,0,0,0,1.908-4.6v-.054a2.7,2.7,0,0,0-2.7-2.7h-.039a2.763,2.763,0,0,0-1.963.81l-.748.748a8.419,8.419,0,0,1-2.593-2.009,8.345,8.345,0,0,1-1.62-2.851l-.592-1.76a2.839,2.839,0,0,0-2.695-1.947h-.039a2.893,2.893,0,0,0-1.822.631c-.4.319-.9.724-1.379,1.106a6.246,6.246,0,0,1-3.925,1.378h-.343a7.557,7.557,0,0,1-7.578-7.555v-.234a7.791,7.791,0,0,1,7.788-7.788,4.81,4.81,0,0,1,1.519.249l2.453.818a9.615,9.615,0,0,0,3.037.491,9.615,9.615,0,0,0,3.037-.491l.615-.21a16.761,16.761,0,0,1,5.3-.857,16.7,16.7,0,0,1,11.846,4.906,16.7,16.7,0,0,1,4.906,11.846Z" transform="translate(947.859 1694.915)" fill="#fcd770"/>
      </g>
      <g id="Group_66" data-name="Group 66" transform="translate(31.152 42.056)">
        <path id="Path_119" data-name="Path 119" d="M-680.379-1258.85l.2.607h-11.682l.2-.607a5.955,5.955,0,0,1,2.165-2.944,5.908,5.908,0,0,1,3.474-1.121,5.81,5.81,0,0,1,1.947.335,5.921,5.921,0,0,1,3.692,3.73Z" transform="translate(691.859 1262.915)" fill="#ecc19c"/>
      </g>
      <g id="Group_67" data-name="Group 67" transform="translate(12.461 12.461)">
        <path id="Path_120" data-name="Path 120" d="M-859.327-1537.32a5.908,5.908,0,0,0-3.474,1.122,5.956,5.956,0,0,0-2.165,2.944l-.2.607h-7.788a7.6,7.6,0,0,1,2.78-3.769l2.142-1.527a3.108,3.108,0,0,0,1.308-2.539v-.989l-4.034.9a6.028,6.028,0,0,1-1.293.14,5.942,5.942,0,0,1-5.514-3.73l-.062-.164.46-.459a3.761,3.761,0,0,0,1.1-2.656h-3.894l-.779-3.115a6.682,6.682,0,0,1-2.952-.693l-.164-.086.358-1.441a13.906,13.906,0,0,0,.421-3.4V-1559a15.246,15.246,0,0,1,.779-4.8h.132a6.246,6.246,0,0,0,3.925-1.378c.483-.382.981-.787,1.379-1.106a2.893,2.893,0,0,1,1.822-.631H-875a2.839,2.839,0,0,1,2.695,1.947l.592,1.76a8.342,8.342,0,0,0,1.62,2.85,8.417,8.417,0,0,0,2.593,2.009l.748-.748a2.763,2.763,0,0,1,1.963-.81h.039a2.7,2.7,0,0,1,2.7,2.7v.054a6.5,6.5,0,0,1-1.908,4.6l-.428.428,7.009,7.009v8.123a5.813,5.813,0,0,0-1.947-.335Z" transform="translate(883.859 1566.915)" fill="#f0d0b4"/>
      </g>
      <g id="Group_68" data-name="Group 68" transform="translate(0 24.922)">
        <path id="Path_121" data-name="Path 121" d="M-995.5-1424.118v4.673l-2.57,1.924a2,2,0,0,1-1.23.413,1.661,1.661,0,0,1-1.168-.483,1.661,1.661,0,0,1-.483-1.168,1.65,1.65,0,0,1,.483-1.168l.592-.592a1.65,1.65,0,0,0,.483-1.168,1.661,1.661,0,0,0-.483-1.168,1.66,1.66,0,0,0-1.168-.483h-.109a1.651,1.651,0,0,0-1.028.358l-2.617,2.095a1.94,1.94,0,0,1-1.83.327,1.943,1.943,0,0,1-1.332-1.846,1.923,1.923,0,0,1,.732-1.519l2.57-2.056a1.589,1.589,0,0,0,.592-1.23,1.552,1.552,0,0,0-.467-1.114,1.553,1.553,0,0,0-1.114-.467h-4.649a1.562,1.562,0,0,1-1.558-1.558,1.523,1.523,0,0,1,.459-1.1,1.522,1.522,0,0,1,1.1-.459h4.79a1.443,1.443,0,0,0,1.441-1.441,1.443,1.443,0,0,0-.794-1.293l-1.223-.615a1.969,1.969,0,0,1-1.1-1.768,1.889,1.889,0,0,1,.553-1.339,1.889,1.889,0,0,1,1.34-.553,1.861,1.861,0,0,1,.841.2l2.718,1.355v6.23a3.1,3.1,0,0,0,1.059,2.336,3.116,3.116,0,0,0,2.056.779,3.134,3.134,0,0,1,2.2.911,3.135,3.135,0,0,1,.911,2.2Z" transform="translate(1011.859 1438.915)" fill="#ccd1d9"/>
      </g>
    </g>
    <g id="Group_70" data-name="Group 70" transform="translate(-1019.859 -1702.915)">
      <path id="Path_122" data-name="Path 122" d="M-845.161-1491.47l-1.1-1.1-3.1,3.1,4.082,2.041.7-1.394-2.149-1.074Z" transform="translate(865.961 1513.048)"/>
      <path id="Path_123" data-name="Path 123" d="M-921.591-1660.264v-7.323l2.377-2.853a23.386,23.386,0,0,0,5.411-14.944,17.551,17.551,0,0,0-17.53-17.531,17.531,17.531,0,0,0-5.544.9l-.616.206a8.863,8.863,0,0,1-5.579,0l-2.456-.819a5.561,5.561,0,0,0-1.764-.286,8.577,8.577,0,0,0-8.567,8.567v.234a8.354,8.354,0,0,0,7.544,8.292,15.9,15.9,0,0,0-.534,4.062v2.821a13.252,13.252,0,0,1-.4,3.211l-.512,2.047.724.361a7.442,7.442,0,0,0,2.685.753l.785,3.141h3.618a3,3,0,0,1-.768,1.33l-.819.82.255.636a6.686,6.686,0,0,0,6.238,4.223,6.717,6.717,0,0,0,1.457-.16l3.089-.686v.022a2.342,2.342,0,0,1-.978,1.9l-2.143,1.531a8.3,8.3,0,0,0-3.069,4.155l-.341,1.025H-917.4l-.544-1.635a6.7,6.7,0,0,0-3.651-4Zm-32.71-33.85v-.234a7.017,7.017,0,0,1,7.009-7.009,3.986,3.986,0,0,1,1.272.207l2.456.818a10.42,10.42,0,0,0,6.564,0l.616-.2a15.936,15.936,0,0,1,5.051-.82,15.991,15.991,0,0,1,15.973,15.974,21.825,21.825,0,0,1-5.05,13.947l-2.012,2.415-5.857-5.857a7.278,7.278,0,0,0,2.017-5.083,3.453,3.453,0,0,0-1.019-2.462,3.485,3.485,0,0,0-2.505-1.02,3.523,3.523,0,0,0-2.509,1.036l-.338.339a7.568,7.568,0,0,1-3.338-4.146l-.586-1.758a3.633,3.633,0,0,0-3.477-2.48,3.653,3.653,0,0,0-2.306.8l-1.379,1.1a5.522,5.522,0,0,1-3.44,1.209h-.341a6.8,6.8,0,0,1-6.8-6.776Zm23.582,37.928h-6.051a6.752,6.752,0,0,1,2.06-2.355l2.143-1.531a3.9,3.9,0,0,0,1.631-3.169v-.368l1.727-.384-.338-1.521-6.373,1.417a5.182,5.182,0,0,1-1.119.122,5.134,5.134,0,0,1-4.656-2.936l.085-.085a4.57,4.57,0,0,0,1.329-3.209v-.779h-4.065l-.779-3.115h-.608a5.837,5.837,0,0,1-2.2-.435l.2-.819a14.815,14.815,0,0,0,.442-3.588v-2.821a14.385,14.385,0,0,1,.59-4.04,7.092,7.092,0,0,0,3.956-1.53l1.379-1.1A2.138,2.138,0,0,1-940-1688.9a2.065,2.065,0,0,1,1.963,1.414l.586,1.758a9.124,9.124,0,0,0,4.607,5.312l.5.251,1.147-1.148a2.009,2.009,0,0,1,1.451-.578,1.911,1.911,0,0,1,1.36.564,1.946,1.946,0,0,1,.563,1.413,5.692,5.692,0,0,1-1.679,4.05l-.982.982,7.332,7.332v6.8a6.736,6.736,0,0,0-1.168-.109,6.713,6.713,0,0,0-6.377,4.6Zm1.662,0a5.157,5.157,0,0,1,4.741-3.115,5.157,5.157,0,0,1,4.741,3.115Z" transform="translate(962.089 1702.915)"/>
      <path id="Path_124" data-name="Path 124" d="M-1005.76-1425.363a1.264,1.264,0,0,1-.765.255.874.874,0,0,1-.873-.873.883.883,0,0,1,.255-.618l.59-.59a2.447,2.447,0,0,0,.712-1.719,2.433,2.433,0,0,0-2.431-2.431h-.105a2.441,2.441,0,0,0-1.519.533l-2.615,2.093a1.168,1.168,0,0,1-1.1.2,1.167,1.167,0,0,1-.8-1.107,1.16,1.16,0,0,1,.438-.91l2.573-2.059a2.343,2.343,0,0,0,.884-1.839,2.359,2.359,0,0,0-2.357-2.357h-4.653a.78.78,0,0,1-.779-.779.78.78,0,0,1,.779-.779h4.786a2.225,2.225,0,0,0,2.223-2.223,2.212,2.212,0,0,0-1.229-1.989l-1.222-.61a1.2,1.2,0,0,1-.664-1.076,1.113,1.113,0,0,1,1.111-1.111,1.125,1.125,0,0,1,.5.117l2.716,1.358.7-1.393-2.717-1.359a2.7,2.7,0,0,0-1.192-.28,2.672,2.672,0,0,0-2.669,2.669,2.745,2.745,0,0,0,1.526,2.469l1.221.611a.66.66,0,0,1,.368.595.666.666,0,0,1-.665.665h-4.786a2.339,2.339,0,0,0-2.336,2.336,2.339,2.339,0,0,0,2.336,2.336h4.653a.8.8,0,0,1,.8.8.8.8,0,0,1-.3.624l-2.572,2.058a2.711,2.711,0,0,0-1.022,2.126,2.721,2.721,0,0,0,1.866,2.585,2.718,2.718,0,0,0,2.562-.457l2.615-2.093a.878.878,0,0,1,.545-.191h.105a.874.874,0,0,1,.873.873.883.883,0,0,1-.255.618l-.59.59a2.447,2.447,0,0,0-.712,1.719,2.433,2.433,0,0,0,2.431,2.431,2.848,2.848,0,0,0,1.7-.567l2.568-1.925-.935-1.246Z" transform="translate(1019.859 1471.837)"/>
      <path id="Path_125" data-name="Path 125" d="M-907.859-1342.915h1.558v1.558h-1.558Z" transform="translate(918.762 1377.961)"/>
      <path id="Path_126" data-name="Path 126" d="M-891.859-1374.915h1.558v1.558h-1.558Z" transform="translate(904.32 1406.846)"/>
      <path id="Path_127" data-name="Path 127" d="M-875.859-1326.915h1.558v1.558h-1.558Z" transform="translate(889.878 1363.519)"/>
      <path id="Path_128" data-name="Path 128" d="M-859.859-1294.915h1.558v1.558h-1.558Z" transform="translate(875.435 1334.634)"/>
    </g>
  </g>
</svg>
