<svg xmlns="http://www.w3.org/2000/svg" width="37.232" height="41.415" viewBox="0 0 37.232 41.415">
  <g id="icon-11" transform="translate(3785.766 1719.056)">
    <path id="Path_231" data-name="Path 231" d="M-3572.244-1479.056v3.451a2.761,2.761,0,0,1-2.761,2.761,2.761,2.761,0,0,1-2.761-2.761v-3.451Z" transform="translate(-190.054 -219.292)" fill="#ffc477"/>
    <path id="Path_232" data-name="Path 232" d="M-3678.156-1430.531v8.041h-27.61v-8.041a6.9,6.9,0,0,1,4.846-6.585l6.2-1.94a2.761,2.761,0,0,0,2.761,2.761,2.761,2.761,0,0,0,2.761-2.761l6.2,1.94a6.852,6.852,0,0,1,4.155,3.589A6.763,6.763,0,0,1-3678.156-1430.531Z" transform="translate(-73.098 -255.841)" fill="#3d9ae2"/>
    <path id="Path_233" data-name="Path 233" d="M-3406.8-1601.42a1.389,1.389,0,0,1,1.118,1.6,1.375,1.375,0,0,1-1.589,1.12l-.012,0c-.752-.131-2.478-1.836-2.478-1.836A9.151,9.151,0,0,1-3406.8-1601.42Z" transform="translate(-343.558 -107.476)" fill="#78b9eb"/>
    <path id="Path_234" data-name="Path 234" d="M-3406.591-1675.115a1.381,1.381,0,0,1-.17,1.945l0,0a9.149,9.149,0,0,1-3,.718s.642-2.34,1.228-2.83A1.386,1.386,0,0,1-3406.591-1675.115Z" transform="translate(-343.558 -39.702)" fill="#78b9eb"/>
    <path id="Path_235" data-name="Path 235" d="M-3463.612-1598.448a2.071,2.071,0,0,1,0,2.928,2.072,2.072,0,0,1-1.462.606h-.69v-4.141h.69A2.065,2.065,0,0,1-3463.612-1598.448Z" transform="translate(-292.39 -109.646)" fill="#ffb655"/>
    <path id="Path_236" data-name="Path 236" d="M-3611.961-1704.153v1.38h-2.071l-2.071-2.071-2.761,2.071h-6.9v-1.38a6.9,6.9,0,0,1,6.9-6.9A6.9,6.9,0,0,1-3611.961-1704.153Z" transform="translate(-146.196 -7.31)" fill="#57565c"/>
    <path id="Path_237" data-name="Path 237" d="M-3655-1599.056v4.141h-.691a2.071,2.071,0,0,1-2.071-2.071,2.071,2.071,0,0,1,2.071-2.071Z" transform="translate(-116.956 -109.646)" fill="#ffb655"/>
    <path id="Path_238" data-name="Path 238" d="M-3697.044-1704.639c.628.435,1.47,2.713,1.47,2.713s-2.429-.014-3.051-.456a1.381,1.381,0,0,1-.218-1.94A1.381,1.381,0,0,1-3697.044-1704.639Z" transform="translate(-79.148 -12.988)" fill="#78b9eb"/>
    <path id="Path_239" data-name="Path 239" d="M-3703.574-1631.056s-.842,2.278-1.47,2.713a1.381,1.381,0,0,1-1.9-.459,1.38,1.38,0,0,1,.317-1.8C-3706-1631.042-3703.574-1631.056-3703.574-1631.056Z" transform="translate(-71.838 -80.407)" fill="#78b9eb"/>
    <path id="Path_240" data-name="Path 240" d="M-3572.244-1479.056v1.491a6.864,6.864,0,0,1-5.522,0v-1.491Z" transform="translate(-190.054 -219.292)" fill="#ffb655"/>
    <path id="Path_241" data-name="Path 241" d="M-3611.961-1635.6v4.142a6.9,6.9,0,0,1-6.9,6.9,6.9,6.9,0,0,1-6.9-6.9v-5.522h6.9l2.761-2.071,2.071,2.071h2.071Z" transform="translate(-146.196 -73.097)" fill="#ffc477"/>
    <path id="Path_242" data-name="Path 242" d="M-3689.608-1685.924h-1.381v6.9h-16.566v-6.9h-1.38v6.9h-3.451v-7.35a6.185,6.185,0,0,1,4.359-5.929l5.438-1.7a3.433,3.433,0,0,0,4.2,2.438,3.431,3.431,0,0,0,2.438-2.438l5.438,1.7a6.173,6.173,0,0,1,1.874.959l.829-1.1a7.558,7.558,0,0,0-2.293-1.173l-5.714-1.785v-2.4a7.6,7.6,0,0,0,4.106-6.065h.035a2.761,2.761,0,0,0,2.761-2.761,2.761,2.761,0,0,0-2.761-2.761v-2.071a7.593,7.593,0,0,0-7.593-7.593,7.593,7.593,0,0,0-7.593,7.593v2.071a2.761,2.761,0,0,0-2.761,2.761,2.761,2.761,0,0,0,2.761,2.761h.035a7.6,7.6,0,0,0,4.106,6.065v2.4l-5.715,1.786a7.56,7.56,0,0,0-5.329,7.247v8.04a.69.69,0,0,0,.69.69h25.54v-1.38h-2.071Zm-.69-20.708a1.38,1.38,0,0,1-1.381,1.381v-2.761A1.38,1.38,0,0,1-3690.3-1706.631Zm-8.973-11.044a6.22,6.22,0,0,1,6.213,6.212v.69h-1.095l-1.869-1.869a.69.69,0,0,0-.9-.064l-2.577,1.933h-5.983v-.69A6.22,6.22,0,0,1-3699.271-1717.676Zm-8.973,11.044a1.381,1.381,0,0,1,1.381-1.38v2.761A1.381,1.381,0,0,1-3708.245-1706.631Zm2.761,2.071v-4.832h6.213a.692.692,0,0,0,.414-.138l2.282-1.712,1.648,1.648a.692.692,0,0,0,.488.2h1.381v4.832a6.213,6.213,0,0,1-6.213,6.212A6.213,6.213,0,0,1-3705.484-1704.561Zm6.213,7.593a7.578,7.578,0,0,0,2.071-.294v2.365a2.071,2.071,0,0,1-2.071,2.071,2.071,2.071,0,0,1-2.071-2.071v-2.365A7.579,7.579,0,0,0-3699.271-1696.968Z" transform="translate(-65.787)"/>
    <path id="Path_243" data-name="Path 243" d="M-3598.4-1592.716a.69.69,0,0,0-.035-.709l-1.381-2.071-1.149.766.666,1h-1.471v1.381H-3599A.691.691,0,0,0-3598.4-1592.716Z" transform="translate(-168.125 -112.899)"/>
    <path id="Path_244" data-name="Path 244" d="M-3529.078-1592.352h2.761v-1.381h-1.471l.666-1-1.149-.766-1.381,2.071a.69.69,0,0,0,.191.957A.691.691,0,0,0-3529.078-1592.352Z" transform="translate(-233.91 -112.899)"/>
    <path id="Path_245" data-name="Path 245" d="M-3573.624-1540.295h1.381a2.762,2.762,0,0,0-2.761-2.761,2.761,2.761,0,0,0-2.761,2.761h1.38a1.381,1.381,0,0,1,1.381-1.38A1.381,1.381,0,0,1-3573.624-1540.295Z" transform="translate(-190.054 -160.814)"/>
    <path id="Path_246" data-name="Path 246" d="M-3417.068-1679.083h.065a8.138,8.138,0,0,0,3.382-.876,2.072,2.072,0,0,0,.257-2.919,2.072,2.072,0,0,0-2.918-.257,8.079,8.079,0,0,0-1.449,3.175.69.69,0,0,0,.479.85A.686.686,0,0,0-3417.068-1679.083Zm1.672-2.994a.69.69,0,0,1,.974.062.691.691,0,0,1-.062.974l-.025.021a5.183,5.183,0,0,1-1.579.425A5.125,5.125,0,0,1-3415.4-1682.077Z" transform="translate(-336.256 -32.38)"/>
    <path id="Path_247" data-name="Path 247" d="M-3413.993-1609.347a8.159,8.159,0,0,0-3.366.933.69.69,0,0,0-.339.915.693.693,0,0,0,.142.2,8.121,8.121,0,0,0,2.844,2.028,2.071,2.071,0,0,0,2.4-1.68A2.071,2.071,0,0,0-3413.993-1609.347Zm-.479,2.719a5.165,5.165,0,0,1-1.341-.937,5.244,5.244,0,0,1,1.579-.422.69.69,0,0,1,.586.781.69.69,0,0,1-.781.586l-.043-.008Z" transform="translate(-336.253 -100.225)"/>
    <path id="Path_248" data-name="Path 248" d="M-3706.794-1709.415h0a8.141,8.141,0,0,0,3.445.577h.006a.69.69,0,0,0,.69-.691.683.683,0,0,0-.043-.24,8.08,8.08,0,0,0-1.72-3.037,2.071,2.071,0,0,0-2.875.557A2.071,2.071,0,0,0-3706.794-1709.415Zm.621-2.092a.691.691,0,0,1,.446-.284.681.681,0,0,1,.515.114,5.146,5.146,0,0,1,.818,1.416,5.144,5.144,0,0,1-1.61-.285A.69.69,0,0,1-3706.173-1711.507Z" transform="translate(-71.379 -5.387)"/>
    <path id="Path_249" data-name="Path 249" d="M-3714.269-1634.743a2.086,2.086,0,0,0,.364.032,2.048,2.048,0,0,0,1.183-.375,8.12,8.12,0,0,0,1.722-3.037.69.69,0,0,0-.4-.889.686.686,0,0,0-.242-.044h-.005a8.1,8.1,0,0,0-3.444.577h0a2.071,2.071,0,0,0-.509,2.884,2.072,2.072,0,0,0,1.337.852Zm-.037-2.6a5.153,5.153,0,0,1,1.61-.285,5.14,5.14,0,0,1-.813,1.416.69.69,0,0,1-.962-.169.69.69,0,0,1,.169-.961Z" transform="translate(-63.766 -73.097)"/>
    <path id="Path_250" data-name="Path 250" d="M-3783.005-1431.056h-1.381a1.56,1.56,0,0,1-.525,1.162,2.908,2.908,0,0,0-.009,4.112l.009.009a1.548,1.548,0,0,1,.138,2.185,1.54,1.54,0,0,1-.138.137,2.874,2.874,0,0,0-.855,2.059h1.38a1.557,1.557,0,0,1,.524-1.16,2.9,2.9,0,0,0,.011-4.108l-.011-.012a1.549,1.549,0,0,1-.138-2.186,1.538,1.538,0,0,1,.138-.137A2.882,2.882,0,0,0-3783.005-1431.056Z" transform="translate(0 -263.151)"/>
    <path id="Path_251" data-name="Path 251" d="M-3743.862-1498.672a1.549,1.549,0,0,1-.137-2.186,1.594,1.594,0,0,1,.137-.137,2.878,2.878,0,0,0,.857-2.06h-1.381a1.558,1.558,0,0,1-.525,1.162,2.907,2.907,0,0,0-.008,4.112l.008.008a1.549,1.549,0,0,1,.138,2.185,1.573,1.573,0,0,1-.138.137,2.876,2.876,0,0,0-.856,2.059h1.381a1.561,1.561,0,0,1,.524-1.16,2.9,2.9,0,0,0,.012-4.108Z" transform="translate(-36.549 -197.363)"/>
  </g>
</svg>
