<svg xmlns="http://www.w3.org/2000/svg" width="16.919" height="22.559" viewBox="0 0 16.919 22.559">
  <g id="icontab2" transform="translate(1365.404 -1722.932)">
    <g id="Group_177" data-name="Group 177" transform="translate(-1362.583 1731.392)">
      <g id="Group_176" data-name="Group 176" transform="translate(0 0)">
        <path id="Path_322" data-name="Path 322" d="M-1295.947,1915.147a.707.707,0,0,0-1,0l-2.321,2.322-.911-.912a.706.706,0,0,0-1,0,.705.705,0,0,0,0,1l1.41,1.41a.7.7,0,0,0,.5.207.707.707,0,0,0,.5-.206l2.82-2.82A.705.705,0,0,0-1295.947,1915.147Z" transform="translate(1301.38 -1914.94)" fill="#1472ba"/>
      </g>
    </g>
    <g id="Group_179" data-name="Group 179" transform="translate(-1362.583 1737.032)">
      <g id="Group_178" data-name="Group 178" transform="translate(0 0)">
        <path id="Path_323" data-name="Path 323" d="M-1295.947,2043.147a.707.707,0,0,0-1,0l-2.321,2.322-.911-.911a.706.706,0,0,0-1,0,.705.705,0,0,0,0,1l1.41,1.41a.7.7,0,0,0,.5.206.707.707,0,0,0,.5-.206l2.82-2.82A.705.705,0,0,0-1295.947,2043.147Z" transform="translate(1301.38 -2042.94)" fill="#1472ba"/>
      </g>
    </g>
    <g id="Group_181" data-name="Group 181" transform="translate(-1355.535 1732.802)">
      <g id="Group_180" data-name="Group 180" transform="translate(0 0)">
        <path id="Path_324" data-name="Path 324" d="M-1137.879,1946.932h-2.82a.705.705,0,0,0-.705.7.705.705,0,0,0,.705.7h2.82a.705.705,0,0,0,.7-.7A.705.705,0,0,0-1137.879,1946.932Z" transform="translate(1141.404 -1946.932)" fill="#1472ba"/>
      </g>
    </g>
    <g id="Group_183" data-name="Group 183" transform="translate(-1355.535 1738.441)">
      <g id="Group_182" data-name="Group 182" transform="translate(0 0)">
        <path id="Path_325" data-name="Path 325" d="M-1137.879,2074.932h-2.82a.705.705,0,0,0-.705.705.705.705,0,0,0,.705.7h2.82a.7.7,0,0,0,.7-.7A.705.705,0,0,0-1137.879,2074.932Z" transform="translate(1141.404 -2074.932)" fill="#1472ba"/>
      </g>
    </g>
    <g id="Group_185" data-name="Group 185" transform="translate(-1365.404 1722.932)">
      <g id="Group_184" data-name="Group 184" transform="translate(0 0)">
        <path id="Path_326" data-name="Path 326" d="M-1349.895,1725.752h-2.82v-.7a.705.705,0,0,0-.705-.7h-1.53a2.121,2.121,0,0,0-2-1.41,2.121,2.121,0,0,0-2,1.41h-1.53a.705.705,0,0,0-.7.7v.7h-2.82a1.412,1.412,0,0,0-1.41,1.41v16.919a1.412,1.412,0,0,0,1.41,1.41h14.1a1.413,1.413,0,0,0,1.41-1.41v-16.919A1.412,1.412,0,0,0-1349.895,1725.752Zm-9.869,0h1.41a.705.705,0,0,0,.705-.7.705.705,0,0,1,.7-.7.705.705,0,0,1,.7.7.705.705,0,0,0,.7.7h1.41v1.41h-5.64Zm9.869,18.329h-14.1v-16.919h2.82v.7a.705.705,0,0,0,.7.7h7.05a.705.705,0,0,0,.705-.7v-.7h2.82Z" transform="translate(1365.404 -1722.932)" fill="#1472ba"/>
      </g>
    </g>
  </g>
</svg>
