<svg xmlns="http://www.w3.org/2000/svg" width="31.598" height="31.597" viewBox="0 0 31.598 31.597">
  <g id="icon-15" transform="translate(-3602.766 3787.073)">
    <rect id="Rectangle_80" data-name="Rectangle 80" width="30" height="22" transform="translate(3603.766 -3778.476)" fill="#50bb65"/>
    <path id="Path_400" data-name="Path 400" d="M3641.31-3653.381H3631.3v-5.793h10.006v-3.159h-13.166v8.952h-5.793v-13.692h-3.159v5.266h-8.426v3.16h8.426v14.745h3.159v-6.319h18.959Z" transform="translate(-7.473 -112.1)" fill="#e6e6e6"/>
    <path id="Path_401" data-name="Path 401" d="M3794.139-3775.387c0,3.16-3.686,6.32-3.686,6.32s-3.687-3.16-3.687-6.32a3.687,3.687,0,0,1,3.687-3.686A3.686,3.686,0,0,1,3794.139-3775.387Z" transform="translate(-171.888 -7.473)" fill="#da4836"/>
    <circle id="Ellipse_34" data-name="Ellipse 34" cx="1.5" cy="1.5" r="1.5" transform="translate(3616.766 -3784.476)" fill="#e6e6e6"/>
    <path id="Path_402" data-name="Path 402" d="M3650.139-3503.387c0,3.16-3.687,6.32-3.687,6.32s-3.687-3.16-3.687-6.32a3.687,3.687,0,0,1,3.687-3.687A3.687,3.687,0,0,1,3650.139-3503.387Z" transform="translate(-37.367 -261.568)" fill="#da4836"/>
    <ellipse id="Ellipse_35" data-name="Ellipse 35" cx="1" cy="2" rx="1" ry="2" transform="translate(3607.766 -3766.476)" fill="#e6e6e6"/>
    <path id="Path_403" data-name="Path 403" d="M3930.139-3511.387c0,3.16-3.686,6.32-3.686,6.32s-3.687-3.16-3.687-6.32a3.686,3.686,0,0,1,3.687-3.686A3.686,3.686,0,0,1,3930.139-3511.387Z" transform="translate(-298.935 -254.095)" fill="#da4836"/>
    <circle id="Ellipse_36" data-name="Ellipse 36" cx="1.5" cy="1.5" r="1.5" transform="translate(3625.766 -3766.476)" fill="#e6e6e6"/>
    <rect id="Rectangle_81" data-name="Rectangle 81" width="1" transform="translate(3616.766 -3760.476)"/>
    <rect id="Rectangle_82" data-name="Rectangle 82" width="1" height="2" transform="translate(3616.766 -3768.476)"/>
    <rect id="Rectangle_83" data-name="Rectangle 83" transform="translate(3609.766 -3776.476)"/>
    <path id="Path_404" data-name="Path 404" d="M3814.979-3752.966a2.107,2.107,0,0,0-2.107-2.107,2.107,2.107,0,0,0-2.106,2.107,2.106,2.106,0,0,0,2.106,2.106A2.107,2.107,0,0,0,3814.979-3752.966Zm-3.16,0a1.053,1.053,0,0,1,1.053-1.053,1.053,1.053,0,0,1,1.053,1.053,1.054,1.054,0,0,1-1.053,1.053A1.053,1.053,0,0,1,3811.819-3752.966Z" transform="translate(-194.307 -29.893)"/>
    <path id="Path_405" data-name="Path 405" d="M3950.979-3488.967a2.106,2.106,0,0,0-2.106-2.106,2.107,2.107,0,0,0-2.107,2.106,2.106,2.106,0,0,0,2.107,2.106A2.106,2.106,0,0,0,3950.979-3488.967Zm-3.16,0a1.053,1.053,0,0,1,1.053-1.053,1.053,1.053,0,0,1,1.053,1.053,1.053,1.053,0,0,1-1.053,1.053A1.054,1.054,0,0,1,3947.819-3488.967Z" transform="translate(-321.355 -276.515)"/>
    <path id="Path_406" data-name="Path 406" d="M3666.766-3480.966a2.106,2.106,0,0,0,2.106,2.106,2.106,2.106,0,0,0,2.106-2.106,2.106,2.106,0,0,0-2.106-2.106A2.106,2.106,0,0,0,3666.766-3480.966Zm3.16,0a1.053,1.053,0,0,1-1.053,1.053,1.053,1.053,0,0,1-1.053-1.053,1.053,1.053,0,0,1,1.053-1.053A1.053,1.053,0,0,1,3669.926-3480.966Z" transform="translate(-59.787 -283.988)"/>
    <path id="Path_407" data-name="Path 407" d="M3633.837-3779.7H3621.83a6.59,6.59,0,0,0,.948-3.16,4.213,4.213,0,0,0-4.213-4.213,4.213,4.213,0,0,0-4.213,4.213,6.593,6.593,0,0,0,.948,3.16h-12.007a.526.526,0,0,0-.527.527V-3756a.526.526,0,0,0,.527.526h30.544a.527.527,0,0,0,.527-.526v-23.172A.527.527,0,0,0,3633.837-3779.7Zm-15.272-6.32a3.162,3.162,0,0,1,3.159,3.16c0,2.332-2.277,4.752-3.159,5.6-.882-.85-3.16-3.271-3.16-5.6A3.163,3.163,0,0,1,3618.565-3786.02Zm-.342,9.879a.526.526,0,0,0,.685,0,15.342,15.342,0,0,0,2.255-2.506h12.148v3.687h-12.639a.527.527,0,0,0-.527.527v8.426h-4.74v-12.639h.563A15.331,15.331,0,0,0,3618.223-3776.141Zm6.135,10.659a3.16,3.16,0,0,1,3.159-3.16,3.16,3.16,0,0,1,3.16,3.16c0,2.332-2.278,4.752-3.16,5.6C3626.635-3760.729,3624.358-3763.149,3624.358-3765.481Zm7.338.527h1.615v2.106h-2.253A6.579,6.579,0,0,0,3631.7-3764.955Zm0-1.053a4.2,4.2,0,0,0-4.689-3.656,4.2,4.2,0,0,0-2.648,1.405v-2.489h8.952v4.74Zm-7.864-5.793a.526.526,0,0,0-.527.526v5.793a6.145,6.145,0,0,0,.674,2.633h-9.1a.526.526,0,0,0-.526.527v5.793h-2.106v-5.081a6.762,6.762,0,0,0,1.053-3.345,4.191,4.191,0,0,0-1.053-2.778v-3.015a.527.527,0,0,0-.527-.527h-7.9v-2.106h7.9a.527.527,0,0,0,.527-.526v-4.74h2.106v13.166a.526.526,0,0,0,.526.527h5.793a.527.527,0,0,0,.527-.527v-8.426h12.112v2.106Zm-11.586,6.846c0,2.332-2.278,4.752-3.16,5.6-.882-.85-3.16-3.271-3.16-5.6a3.16,3.16,0,0,1,3.16-3.16A3.16,3.16,0,0,1,3612.246-3764.955Zm-1.053-13.692v4.213h-7.373v-4.213Zm-7.373,8.426h7.373v1.623a4.206,4.206,0,0,0-5.75,1.522,4.2,4.2,0,0,0-.57,2.121c0,3.364,3.712,6.583,3.871,6.719a.527.527,0,0,0,.685,0,15.3,15.3,0,0,0,1.764-1.859v3.566h-7.373Zm11.586,13.692v-5.266h9.16a15.145,15.145,0,0,0,2.611,3.033.526.526,0,0,0,.685,0,15.165,15.165,0,0,0,2.61-3.033h2.84v5.266Z" transform="translate(0 0)"/>
  </g>
</svg>
