<svg xmlns="http://www.w3.org/2000/svg" width="28.61" height="28.592" viewBox="0 0 28.61 28.592">
  <g id="icon-14" transform="translate(-1160.041 3792.909)">
    <path id="Path_373" data-name="Path 373" d="M1240.169-3774.049v14.178a2.441,2.441,0,0,1-2.442,2.418h-17.245a2.441,2.441,0,0,1-2.442-2.418v-14.159l10.971-11.135,11.157,11.135" transform="translate(-54.759 -7.311)" fill="#6ca5ff"/>
    <path id="Path_374" data-name="Path 374" d="M1376.451-3785.165l-2.259,2.292,3.988,3.991a23,23,0,0,1,6.733,16.261v4.634a2.432,2.432,0,0,1-.064.535h.3a2.442,2.442,0,0,0,2.442-2.418v-14.159Z" transform="translate(-202.184 -7.311)" fill="#559aff"/>
    <g id="Group_204" data-name="Group 204" transform="translate(1160.041 -3792.909)">
      <path id="Path_375" data-name="Path 375" d="M1188.219-3778.078a.431.431,0,0,1-.306-.127l-13.66-13.66-13.473,13.473a.433.433,0,0,1-.612,0,.433.433,0,0,1,0-.612l13.78-13.779a.432.432,0,0,1,.306-.127.432.432,0,0,1,.306.127l13.966,13.966a.433.433,0,0,1,0,.612A.432.432,0,0,1,1188.219-3778.078Z" transform="translate(-1160.041 3792.909)" fill="#175be7"/>
      <circle id="Ellipse_32" data-name="Ellipse 32" cx="1.985" cy="1.985" r="1.985" transform="translate(12.028 10.458) rotate(-80.783)" fill="#175be7"/>
    </g>
    <path id="Path_376" data-name="Path 376" d="M1363.635-3460.123h-6.594v-9.617a.477.477,0,0,1,.487-.5h5.62a.477.477,0,0,1,.487.5Z" transform="translate(-185.992 -304.641)" fill="#d2e4ff"/>
    <path id="Path_377" data-name="Path 377" d="M1233.533-3558.158a.421.421,0,0,0-.419.433v12.066a1.987,1.987,0,0,1-1.995,1.971h-4.878v-.769a.421.421,0,0,0-.419-.433.421.421,0,0,0-.419.433v.769h-5.812v-9.276h5.812v6.912a.421.421,0,0,0,.419.433.421.421,0,0,0,.419-.433v-7.321a.419.419,0,0,0-.419-.429h-6.649a.419.419,0,0,0-.419.429v9.685h-4.878a1.986,1.986,0,0,1-1.995-1.971v-12.183a.421.421,0,0,0-.419-.433.421.421,0,0,0-.419.433v12.183a2.854,2.854,0,0,0,2.833,2.865h17.245a2.854,2.854,0,0,0,2.833-2.865v-12.066A.421.421,0,0,0,1233.533-3558.158Z" transform="translate(-48.15 -221.523)"/>
    <path id="Path_378" data-name="Path 378" d="M1188.525-3778.817l-13.966-13.966a.432.432,0,0,0-.306-.127.432.432,0,0,0-.306.127L1160.168-3779a.433.433,0,0,0,0,.612.433.433,0,0,0,.612,0l13.473-13.473,13.66,13.66a.431.431,0,0,0,.306.127.431.431,0,0,0,.306-.127A.433.433,0,0,0,1188.525-3778.817Z" transform="translate(0 0)"/>
    <path id="Path_379" data-name="Path 379" d="M1377.613-3675.974a2.42,2.42,0,0,0-2.417-2.417,2.42,2.42,0,0,0-2.418,2.417,2.42,2.42,0,0,0,2.418,2.417A2.42,2.42,0,0,0,1377.613-3675.974Zm-3.97,0a1.554,1.554,0,0,1,1.552-1.552,1.554,1.554,0,0,1,1.552,1.552,1.554,1.554,0,0,1-1.552,1.552A1.554,1.554,0,0,1,1373.643-3675.974Z" transform="translate(-200.849 -108.118)"/>
  </g>
</svg>
