<svg xmlns="http://www.w3.org/2000/svg" width="81.201" height="50.128" viewBox="0 0 81.201 50.128">
  <g id="icon-24" transform="translate(4829.457 -17.653)">
    <g id="Group_276" data-name="Group 276" transform="translate(-4828.285 18.841)">
      <path id="Path_571" data-name="Path 571" d="M-4518.273,25.142h-22.432a1.711,1.711,0,0,0-1.711,1.711V71.188a1.711,1.711,0,0,0,1.711,1.711h31.06a1.71,1.71,0,0,0,1.711-1.711V35.482Z" transform="translate(4586.767 -25.142)" fill="#dfebfa"/>
      <path id="Path_572" data-name="Path 572" d="M-4797.925,25.142h-22.432a1.711,1.711,0,0,0-1.711,1.711V71.188a1.711,1.711,0,0,0,1.711,1.711h31.061a1.711,1.711,0,0,0,1.71-1.711V35.482Z" transform="translate(4822.068 -25.142)" fill="#dfebfa"/>
      <g id="Group_275" data-name="Group 275" transform="translate(0 0)">
        <path id="Path_573" data-name="Path 573" d="M-4535.91,71.188V26.853a1.711,1.711,0,0,1,1.711-1.711h-6.506a1.711,1.711,0,0,0-1.711,1.711V71.188a1.711,1.711,0,0,0,1.711,1.711h6.506A1.711,1.711,0,0,1-4535.91,71.188Z" transform="translate(4586.767 -25.142)" fill="#bed8fb"/>
        <path id="Path_574" data-name="Path 574" d="M-4815.563,71.188V26.853a1.711,1.711,0,0,1,1.711-1.711h-6.505a1.711,1.711,0,0,0-1.711,1.711V71.188a1.711,1.711,0,0,0,1.711,1.711h6.505A1.711,1.711,0,0,1-4815.563,71.188Z" transform="translate(4822.068 -25.142)" fill="#bed8fb"/>
        <path id="Path_575" data-name="Path 575" d="M-4668.132,35.482h8.629l-10.34-10.34v8.629a1.711,1.711,0,0,0,1.71,1.711Z" transform="translate(4693.985 -25.142)" fill="#bed8fb"/>
        <path id="Path_576" data-name="Path 576" d="M-4388.479,35.482h8.629l-10.34-10.34v8.629A1.711,1.711,0,0,0-4388.479,35.482Z" transform="translate(4458.683 -25.142)" fill="#bed8fb"/>
      </g>
      <path id="Path_577" data-name="Path 577" d="M-4664.672,33.771V30.312l-5.17-5.17v8.629a1.711,1.711,0,0,0,1.711,1.711h5.17A1.711,1.711,0,0,1-4664.672,33.771Z" transform="translate(4693.984 -25.142)" fill="#9dc6fb"/>
      <path id="Path_578" data-name="Path 578" d="M-4385.019,33.771V30.312l-5.17-5.17v8.629a1.711,1.711,0,0,0,1.71,1.711h5.17A1.711,1.711,0,0,1-4385.019,33.771Z" transform="translate(4458.682 -25.142)" fill="#9dc6fb"/>
      <path id="Path_579" data-name="Path 579" d="M-4620.315,143.132l-9.6-6.088a1.026,1.026,0,0,0-1.575.865v2.526a.792.792,0,0,1-.792.792h-9.054a1.061,1.061,0,0,0-1.062,1.062V145.7a1.061,1.061,0,0,0,1.062,1.062h9.054a.792.792,0,0,1,.792.792v2.526a1.025,1.025,0,0,0,1.575.866l9.6-6.088A1.025,1.025,0,0,0-4620.315,143.132Z" transform="translate(4670.895 -119.161)" fill="#ff656f"/>
      <path id="Path_580" data-name="Path 580" d="M-4620.315,172.528l-1.117-.708-8.486,5.38a1.026,1.026,0,0,1-1.575-.866v-2.526a.792.792,0,0,0-.792-.792h-9.054a1.061,1.061,0,0,1-1.062-1.062V175.1a1.061,1.061,0,0,0,1.062,1.062h9.054a.792.792,0,0,1,.792.792v2.526a1.025,1.025,0,0,0,1.575.866l9.6-6.088A1.025,1.025,0,0,0-4620.315,172.528Z" transform="translate(4670.895 -148.558)" fill="#ff4756"/>
    </g>
    <g id="Group_277" data-name="Group 277" transform="translate(-4829.457 17.653)">
      <path id="Path_581" data-name="Path 581" d="M-4760.664,221.409h-19.089a1.189,1.189,0,0,0-1.189,1.19,1.189,1.189,0,0,0,1.189,1.19h19.089a1.189,1.189,0,0,0,1.189-1.19A1.189,1.189,0,0,0-4760.664,221.409Z" transform="translate(4788.637 -189.094)"/>
      <path id="Path_582" data-name="Path 582" d="M-4760.664,251.079h-19.089a1.189,1.189,0,0,0-1.189,1.19,1.189,1.189,0,0,0,1.189,1.19h19.089a1.189,1.189,0,0,0,1.189-1.19A1.189,1.189,0,0,0-4760.664,251.079Z" transform="translate(4788.637 -214.059)"/>
      <path id="Path_583" data-name="Path 583" d="M-4760.664,280.751h-19.089a1.189,1.189,0,0,0-1.189,1.19,1.189,1.189,0,0,0,1.189,1.19h19.089a1.189,1.189,0,0,0,1.189-1.19A1.189,1.189,0,0,0-4760.664,280.751Z" transform="translate(4788.637 -239.025)"/>
      <path id="Path_584" data-name="Path 584" d="M-4480.535,221.409h-19.089a1.189,1.189,0,0,0-1.189,1.19,1.189,1.189,0,0,0,1.189,1.19h19.089a1.189,1.189,0,0,0,1.189-1.19A1.189,1.189,0,0,0-4480.535,221.409Z" transform="translate(4552.935 -189.094)"/>
      <path id="Path_585" data-name="Path 585" d="M-4480.535,251.079h-19.089a1.189,1.189,0,0,0-1.189,1.19,1.189,1.189,0,0,0,1.189,1.19h19.089a1.189,1.189,0,0,0,1.189-1.19A1.189,1.189,0,0,0-4480.535,251.079Z" transform="translate(4552.935 -214.059)"/>
      <path id="Path_586" data-name="Path 586" d="M-4480.535,280.751h-19.089a1.189,1.189,0,0,0-1.189,1.19,1.189,1.189,0,0,0,1.189,1.19h19.089a1.189,1.189,0,0,0,1.189-1.19A1.189,1.189,0,0,0-4480.535,280.751Z" transform="translate(4552.935 -239.025)"/>
      <path id="Path_587" data-name="Path 587" d="M-4749.445,42.885a1.19,1.19,0,0,0,1.189-1.19V29.181a1.2,1.2,0,0,0-.349-.841L-4758.943,18a1.206,1.206,0,0,0-.841-.348h-22.428a2.9,2.9,0,0,0-2.9,2.9V36.7l-1.547-.981a2.216,2.216,0,0,0-3.4,1.87v2.128h-2.54V29.181a1.192,1.192,0,0,0-.349-.841L-4803.288,18a1.2,1.2,0,0,0-.84-.348h-8.224a1.189,1.189,0,0,0-1.189,1.19,1.189,1.189,0,0,0,1.189,1.19h7.033v7.438a2.9,2.9,0,0,0,2.9,2.9h7.438v9.345h-3.736a2.254,2.254,0,0,0-2.251,2.252v3.414a2.254,2.254,0,0,0,2.251,2.252h3.736V64.881a.522.522,0,0,1-.521.521h-31.057a.521.521,0,0,1-.521-.521V20.553a.522.522,0,0,1,.521-.521h8.654a1.189,1.189,0,0,0,1.189-1.19,1.189,1.189,0,0,0-1.189-1.19h-8.654a2.9,2.9,0,0,0-2.9,2.9V64.881a2.9,2.9,0,0,0,2.9,2.9h31.057a2.9,2.9,0,0,0,2.9-2.9V47.634h2.54v2.129a2.216,2.216,0,0,0,3.4,1.87l1.548-.981V64.881a2.9,2.9,0,0,0,2.9,2.9h31.055a2.9,2.9,0,0,0,2.9-2.9V47.247a1.19,1.19,0,0,0-1.189-1.19,1.19,1.19,0,0,0-1.19,1.19V64.881a.522.522,0,0,1-.521.521h-31.055a.522.522,0,0,1-.521-.521V49.143l5.675-3.6a2.215,2.215,0,0,0,0-3.74l-5.675-3.6V20.553a.522.522,0,0,1,.521-.521h21.239v7.438a2.9,2.9,0,0,0,2.9,2.9h7.438V41.7a1.19,1.19,0,0,0,1.19,1.19Zm-52.973-14.894a.522.522,0,0,1-.521-.521V21.715l6.277,6.277Zm14.736,21.471V47.237a1.984,1.984,0,0,0-1.981-1.982h-8.925V42.1h8.925a1.984,1.984,0,0,0,1.981-1.982V37.888l9.129,5.787Zm29.607-21.471a.522.522,0,0,1-.521-.521V21.715c.766.765,5.514,5.513,6.278,6.277Z" transform="translate(4829.457 -17.653)"/>
    </g>
  </g>
</svg>
