<svg xmlns="http://www.w3.org/2000/svg" width="33.99" height="43.383" viewBox="0 0 33.99 43.383">
  <g id="Group_170" data-name="Group 170" transform="translate(2348.617 48.007)">
    <path id="Path_301" data-name="Path 301" d="M-2294.049,111.524a13.257,13.257,0,0,1,13.257-13.257,13.216,13.216,0,0,1,9.375,3.883l-4.372,4.372a7.053,7.053,0,0,0-5-2.072,7.075,7.075,0,0,0-7.075,7.075,7.075,7.075,0,0,0,7.075,7.075h11.213a13.247,13.247,0,0,1-11.213,6.183h-13.257Z" transform="translate(-49.944 -133.88)" fill="#d1eff2"/>
    <path id="Path_302" data-name="Path 302" d="M-2280.792,267.984a13.247,13.247,0,0,0,11.213-6.183h-11.213a7.075,7.075,0,0,1-7.075-7.075h-6.183v13.257h13.258Z" transform="translate(-49.943 -277.083)" fill="#b3e7ff"/>
    <g id="Group_167" data-name="Group 167" transform="translate(-2342.258 -15.041)">
      <path id="Path_303" data-name="Path 303" d="M-2269.9,342.319h-3.03a.635.635,0,0,1-.635-.635.635.635,0,0,1,.635-.635h3.03a.636.636,0,0,1,.636.635A.636.636,0,0,1-2269.9,342.319Z" transform="translate(2273.564 -341.048)" fill="#fff"/>
      <path id="Path_304" data-name="Path 304" d="M-2267.78,367.137h-5.148a.635.635,0,0,1-.635-.635.635.635,0,0,1,.635-.635h5.148a.635.635,0,0,1,.635.635A.635.635,0,0,1-2267.78,367.137Z" transform="translate(2273.564 -363.763)" fill="#fff"/>
    </g>
    <path id="Path_305" data-name="Path 305" d="M-2289.735,139.229a13.223,13.223,0,0,0-4.314,9.787v13.257h10.342C-2292.387,157.214-2291.7,146.663-2289.735,139.229Z" transform="translate(-49.944 -171.371)" opacity="0.1" style="isolation: isolate"/>
    <path id="Path_306" data-name="Path 306" d="M-2165.239,322.638h16.542a.665.665,0,0,0,.665-.665v-1.85a.665.665,0,0,0-.665-.665h-16.542a.665.665,0,0,0-.665.665v1.85A.665.665,0,0,0-2165.239,322.638Z" transform="translate(-167.231 -336.329)" fill="#76b7eb"/>
    <path id="Path_307" data-name="Path 307" d="M-2165.239,319.457a.665.665,0,0,0-.665.665v1.85a.665.665,0,0,0,.665.665h5.878c-2.739-.649-2.942-2.521-2.587-3.18Z" transform="translate(-167.231 -336.328)" opacity="0.1" style="isolation: isolate"/>
    <g id="Group_168" data-name="Group 168" transform="translate(-2328.704 -44.169)">
      <path id="Path_308" data-name="Path 308" d="M-2113.612.489l2.687,2.687a1.138,1.138,0,0,1,.335.81V8.8a2.266,2.266,0,0,0,2.266,2.266,2.266,2.266,0,0,0,2.266-2.266V3.986a5.64,5.64,0,0,0-1.663-4.015l-2.687-2.687Z" transform="translate(2113.612 2.716)" fill="#76b7eb"/>
      <path id="Path_309" data-name="Path 309" d="M-2081.442,197.747h5.125v2.817a.755.755,0,0,1-.755.755h-3.616a.755.755,0,0,1-.755-.755Z" transform="translate(2084.168 -180.761)" fill="#76b7eb"/>
    </g>
    <path id="Path_310" data-name="Path 310" d="M-2107.832,106.772h8.455a.624.624,0,0,0,.624-.624V98.974a.624.624,0,0,0-.624-.624h-8.455a.624.624,0,0,0-.624.624v7.174A.624.624,0,0,0-2107.832,106.772Z" transform="translate(-219.811 -133.956)" fill="#38648c"/>
    <path id="Path_311" data-name="Path 311" d="M-2108.456,98.972v7.174a.624.624,0,0,0,.624.624h4.329c-2.781-1.929-2.961-6.42-2.971-8.422h-1.358A.624.624,0,0,0-2108.456,98.972Z" transform="translate(-219.811 -133.954)" opacity="0.1" style="isolation: isolate"/>
    <rect id="Rectangle_72" data-name="Rectangle 72" width="9.704" height="1.271" transform="translate(-2328.267 -30.853)" opacity="0.15" style="isolation: isolate"/>
    <path id="Path_312" data-name="Path 312" d="M-2151.267-35.934l2.229,2.229a.462.462,0,0,0,.654,0l3.784-3.784a.463.463,0,0,0,0-.654l-2.229-2.229a.463.463,0,0,0-.654,0l-3.784,3.784A.463.463,0,0,0-2151.267-35.934Z" transform="translate(-180.504 -6.864)" fill="#38648c"/>
    <path id="Path_313" data-name="Path 313" d="M-2150.058-8.532l-1.21,1.21a.462.462,0,0,0,0,.654l2.229,2.229a.462.462,0,0,0,.654,0l1.121-1.121A9.368,9.368,0,0,1-2150.058-8.532Z" transform="translate(-180.503 -36.13)" opacity="0.1" style="isolation: isolate"/>
    <g id="Group_169" data-name="Group 169" transform="translate(-2347.981 -26.166)">
      <path id="Path_314" data-name="Path 314" d="M-2312.8,415.028h-27.218a1.1,1.1,0,0,1-1.1-1.1v-1.639a1.1,1.1,0,0,1,1.1-1.1h27.218a1.1,1.1,0,0,1,1.1,1.1v1.639A1.1,1.1,0,0,1-2312.8,415.028Z" transform="translate(2341.116 -394.121)" fill="#38648c"/>
      <circle id="Ellipse_29" data-name="Ellipse 29" cx="3.811" cy="3.811" r="3.811" transform="translate(2.548)" fill="#38648c"/>
    </g>
    <path id="Path_315" data-name="Path 315" d="M-2301.088,222.012l-1.5,1.5a3.826,3.826,0,0,0,.872.872l1.5-1.5a.617.617,0,0,0,0-.872A.617.617,0,0,0-2301.088,222.012Zm2.745-1.255a.614.614,0,0,0,.436-.181l1.5-1.5a3.826,3.826,0,0,0-.872-.872l-1.5,1.5a.617.617,0,0,0,0,.872A.615.615,0,0,0-2298.344,220.757Zm-3.377-2.558a3.826,3.826,0,0,0-.872.872l1.5,1.5a.616.616,0,0,0,.436.181.615.615,0,0,0,.436-.181.617.617,0,0,0,0-.872Zm2.941,3.813a.617.617,0,0,0,0,.872l1.5,1.5a3.823,3.823,0,0,0,.872-.872l-1.5-1.5A.616.616,0,0,0-2298.78,222.012Z" transform="translate(-42.124 -243.65)" opacity="0.15" style="isolation: isolate"/>
    <circle id="Ellipse_30" data-name="Ellipse 30" cx="1.632" cy="1.632" r="1.632" transform="translate(-2343.366 -20.842) rotate(-85.935)" fill="#76b7eb"/>
    <path id="Path_316" data-name="Path 316" d="M-2081.442,200.564a.755.755,0,0,0,.755.755h1.311a4.253,4.253,0,0,1-.752-2.261.267.267,0,0,1,.266-.294h3.546v-1.017h-5.125v2.817Z" transform="translate(-244.537 -224.931)" opacity="0.1" style="isolation: isolate"/>
    <path id="Path_317" data-name="Path 317" d="M-2315.927-17.506h-16.542a1.3,1.3,0,0,0-1.226.869,6.459,6.459,0,0,1-3.48-5.718,6.447,6.447,0,0,1,6.439-6.439,6.422,6.422,0,0,1,1.833.267v.72a1.261,1.261,0,0,0,1.26,1.26h1.029v2.181a1.392,1.392,0,0,0,1.39,1.39h3.616a1.392,1.392,0,0,0,1.391-1.39v-2.181h1.029a1.261,1.261,0,0,0,1.26-1.26v-4.013a.635.635,0,0,0-.636-.635.635.635,0,0,0-.635.635v4h-8.433V-34.97h8.433v.183a.635.635,0,0,0,.635.635.635.635,0,0,0,.636-.635v-.194a1.261,1.261,0,0,0-1.26-1.26h-1.326v-1.226a6.272,6.272,0,0,0-1.849-4.464l-2.149-2.149a1.089,1.089,0,0,0,.178-.6,1.091,1.091,0,0,0-.322-.776l-2.229-2.229a1.09,1.09,0,0,0-.776-.322,1.09,1.09,0,0,0-.776.322l-3.784,3.784a1.091,1.091,0,0,0-.322.776,1.091,1.091,0,0,0,.322.776l2.229,2.229a1.09,1.09,0,0,0,.776.322,1.091,1.091,0,0,0,.6-.178l2.149,2.149a.5.5,0,0,1,.149.36v1.226h-1.326a1.251,1.251,0,0,0-.683.2,14.007,14.007,0,0,0-2.41-.209,13.875,13.875,0,0,0-13.4,10.23,4.444,4.444,0,0,0-1.929,3.663,4.436,4.436,0,0,0,1.44,3.273v9.349h-2.253A1.738,1.738,0,0,0-2348.617-8v1.639a1.737,1.737,0,0,0,1.735,1.735h2.226a.635.635,0,0,0,.635-.635.635.635,0,0,0-.635-.635h-2.226a.465.465,0,0,1-.464-.464V-8a.465.465,0,0,1,.464-.464h27.218A.465.465,0,0,1-2319.2-8v1.639a.465.465,0,0,1-.464.464h-21.994a.635.635,0,0,0-.635.635.635.635,0,0,0,.635.635h21.994a1.737,1.737,0,0,0,1.735-1.735V-8a1.737,1.737,0,0,0-1.735-1.735h-5.269a13.9,13.9,0,0,0,4.514-3.322h4.491a1.3,1.3,0,0,0,1.3-1.3v-1.85A1.3,1.3,0,0,0-2315.927-17.506Zm-9.416-9.042h3.854v2.181a.119.119,0,0,1-.119.119h-3.616a.12.12,0,0,1-.12-.119Zm-3.705-14.761h0l-.167.167-1.984-1.984,3.539-3.539,1.984,1.984-.167.166h0Zm1.348.449,2.306-2.306,2.132,2.132a5.01,5.01,0,0,1,1.477,3.565v1.226h-3.261v-1.226a1.769,1.769,0,0,0-.521-1.259Zm-3.035,5.882a12.74,12.74,0,0,1,1.833.133v5a7.7,7.7,0,0,0-1.833-.222A7.723,7.723,0,0,0-2338-24.934a4.444,4.444,0,0,0-3.62-1.869,4.445,4.445,0,0,0-.971.108A12.608,12.608,0,0,1-2330.736-34.977ZM-2344.8-22.355a3.179,3.179,0,0,1,3.176-3.176,3.18,3.18,0,0,1,3.176,3.176,3.18,3.18,0,0,1-3.176,3.176A3.179,3.179,0,0,1-2344.8-22.355Zm14.062,12.622h-12.622v-8.528a4.421,4.421,0,0,0,1.736.353A4.443,4.443,0,0,0-2338-19.78a7.736,7.736,0,0,0,4.229,4.512v.912a1.3,1.3,0,0,0,1.3,1.3h10.264A12.613,12.613,0,0,1-2330.736-9.734Zm14.838-4.622a.03.03,0,0,1-.03.03h-16.542a.03.03,0,0,1-.03-.03v-1.85a.03.03,0,0,1,.03-.03h16.542a.03.03,0,0,1,.03.03Z" transform="translate(0 0)"/>
  </g>
</svg>
