<svg xmlns="http://www.w3.org/2000/svg" width="83.679" height="46.995" viewBox="0 0 83.679 46.995">
  <g id="icon-22" transform="translate(4314.684 678.773)">
    <path id="Path_588" data-name="Path 588" d="M-4006.952-546.509a3.93,3.93,0,0,0-1.966-3.086l-6.056-3.46a2.62,2.62,0,0,1-1.32-2.275v-3.72h-7.861v3.72a2.621,2.621,0,0,1-1.32,2.275l-6.056,3.46a3.932,3.932,0,0,0-1.967,3.086l-1.138,13.661h28.822Z" transform="translate(-234.279 -100.156)" fill="#fad7a5"/>
    <path id="Path_589" data-name="Path 589" d="M-4006.952-510.32a3.93,3.93,0,0,0-1.967-3.086l-4.174-2.385a9.15,9.15,0,0,1-7.132,3.411,9.149,9.149,0,0,1-7.132-3.411l-4.174,2.385a3.931,3.931,0,0,0-1.967,3.086l-1.139,13.661h28.823Z" transform="translate(-234.278 -136.344)" fill="#6f6571"/>
    <path id="Path_590" data-name="Path 590" d="M-3986.539-623.178v6.551a6.55,6.55,0,0,0,6.55,6.551,6.551,6.551,0,0,0,6.551-6.551v-6.551Z" transform="translate(-274.515 -46.509)" fill="#ffe1b4"/>
    <path id="Path_591" data-name="Path 591" d="M-4237.678-533.622l-4.24-2.12a2.619,2.619,0,0,1-1.448-2.344v-4.931h-7.861v4.931a2.621,2.621,0,0,1-1.449,2.344l-4.24,2.12a3.931,3.931,0,0,0-2.172,3.516v10.672h23.582v-10.672A3.928,3.928,0,0,0-4237.678-533.622Z" transform="translate(-46.51 -113.569)" fill="#b48764"/>
    <path id="Path_592" data-name="Path 592" d="M-4237.677-503.761l-4.24-2.12a2.6,2.6,0,0,1-1.268-1.441,5.21,5.21,0,0,1-4.111,2.027,5.21,5.21,0,0,1-4.111-2.027,2.606,2.606,0,0,1-1.268,1.441l-4.24,2.12a3.931,3.931,0,0,0-2.173,3.516v10.672h23.583v-10.672A3.931,3.931,0,0,0-4237.677-503.761Z" transform="translate(-46.51 -143.43)" fill="#c9c6ca"/>
    <circle id="Ellipse_48" data-name="Ellipse 48" cx="3.931" cy="3.931" r="3.931" transform="translate(-4297.737 -677.549)" fill="#6e4b53"/>
    <path id="Path_593" data-name="Path 593" d="M-4227.179-620.869h0a7.861,7.861,0,0,1-7.86-7.861v-2.62a7.86,7.86,0,0,1,7.86-7.861h0a7.861,7.861,0,0,1,7.861,7.861v2.62A7.861,7.861,0,0,1-4227.179-620.869Z" transform="translate(-66.628 -33.096)" fill="#c39772"/>
    <path id="Path_594" data-name="Path 594" d="M-4229.8-625.945v-7.861a7.824,7.824,0,0,1,1.984-5.208,7.857,7.857,0,0,0-7.225,7.829v2.62a7.857,7.857,0,0,0,7.225,7.828A7.823,7.823,0,0,1-4229.8-625.945Z" transform="translate(-66.629 -33.261)" fill="#b48764"/>
    <g id="Group_280" data-name="Group 280" transform="translate(-4301.493 -643.485)">
      <path id="Path_595" data-name="Path 595" d="M-4220.895-452.375h-10.788a1.31,1.31,0,0,1-1.3-1.148l-.982-7.861a1.31,1.31,0,0,1,1.3-1.473h12.753a1.31,1.31,0,0,1,1.3,1.473l-.982,7.861A1.31,1.31,0,0,1-4220.895-452.375Z" transform="translate(4233.975 462.856)" fill="#dbd9dc"/>
      <path id="Path_596" data-name="Path 596" d="M-3985.174-452.375h-13.1a1.31,1.31,0,0,1-1.3-1.148l-.982-7.861a1.31,1.31,0,0,1,1.3-1.473h15.066a1.31,1.31,0,0,1,1.3,1.473l-.983,7.861A1.309,1.309,0,0,1-3985.174-452.375Z" transform="translate(4038.715 462.856)" fill="#dbd9dc"/>
    </g>
    <path id="Path_597" data-name="Path 597" d="M-4227.179-639.211a7.86,7.86,0,0,0-7.86,7.861v1.31a8.115,8.115,0,0,0,5.24-2.62,8.968,8.968,0,0,0,10.481,2.62v-1.31A7.861,7.861,0,0,0-4227.179-639.211Z" transform="translate(-66.628 -33.096)" fill="#5c414b"/>
    <path id="Path_598" data-name="Path 598" d="M-4229.8-633.806a7.824,7.824,0,0,1,1.984-5.208,7.857,7.857,0,0,0-7.225,7.829v1.31a8.118,8.118,0,0,0,5.241-2.62v-1.31Z" transform="translate(-66.629 -33.261)" fill="#503441"/>
    <path id="Path_599" data-name="Path 599" d="M-3981.3-614.008v-9.171h-5.241v6.551a6.55,6.55,0,0,0,6.55,6.551c.01,0,.018,0,.028,0A6.488,6.488,0,0,1-3981.3-614.008Z" transform="translate(-274.515 -46.508)" fill="#fad7a5"/>
    <path id="Path_600" data-name="Path 600" d="M-3978.834-647.423v-1.269a6.55,6.55,0,0,0-6.55-6.551H-3988a6.551,6.551,0,0,0-6.551,6.551v1.017a1.31,1.31,0,0,0,1.741,1.241,8.756,8.756,0,0,0,2.19-1.145,10.3,10.3,0,0,0,1.31-1.112,19.565,19.565,0,0,0,9.07,2.579A1.323,1.323,0,0,0-3978.834-647.423Z" transform="translate(-267.809 -19.684)" fill="#d59f63"/>
    <path id="Path_601" data-name="Path 601" d="M-3985.384-655.243H-3988a6.551,6.551,0,0,0-6.551,6.551v1.017a1.31,1.31,0,0,0,1.741,1.241,8.756,8.756,0,0,0,2.19-1.145,10.3,10.3,0,0,0,1.31-1.112v-2.62A3.931,3.931,0,0,1-3985.384-655.243Z" transform="translate(-267.809 -19.684)" fill="#cd915a"/>
    <path id="Path_602" data-name="Path 602" d="M-4232.231-634.229h-6.732l-1.045-12.537a5.158,5.158,0,0,0-2.58-4.048l-6.056-3.46a1.4,1.4,0,0,1-.7-1.211v-1.836a7.756,7.756,0,0,0,2.621-5.814v-1.4h.084a1.226,1.226,0,0,0,1.226-1.226v-2.62a7.785,7.785,0,0,0-7.776-7.776h-2.62a7.785,7.785,0,0,0-7.776,7.776v2.62a1.226,1.226,0,0,0,1.226,1.226l.085,0v1.4a7.758,7.758,0,0,0,2.619,5.814v1.836a1.4,1.4,0,0,1-.7,1.211l-6.056,3.46a5.154,5.154,0,0,0-2.58,4.049l-1.045,12.537h-10.748v-9.446a5.128,5.128,0,0,0-2.85-4.612l-4.24-2.12a1.388,1.388,0,0,1-.771-1.247v-2.7a9.082,9.082,0,0,0,3.931-7.476v-2.62a9.084,9.084,0,0,0-4.166-7.633,5.154,5.154,0,0,0,.235-1.538,5.162,5.162,0,0,0-5.156-5.156,5.161,5.161,0,0,0-5.155,5.156,5.116,5.116,0,0,0,.234,1.538,9.084,9.084,0,0,0-4.165,7.632v2.62a9.081,9.081,0,0,0,3.93,7.476v2.7a1.388,1.388,0,0,1-.771,1.247l-4.239,2.12a5.127,5.127,0,0,0-2.851,4.612v9.446h-6.634a1.226,1.226,0,0,0-1.227,1.226,1.226,1.226,0,0,0,1.227,1.226h81.227a1.226,1.226,0,0,0,1.226-1.226A1.226,1.226,0,0,0-4232.231-634.229Zm-28.906-34.147a5.33,5.33,0,0,1,5.324-5.325h2.62a5.331,5.331,0,0,1,5.325,5.325v1.362a18.738,18.738,0,0,1-8.575-2.381,1.225,1.225,0,0,0-.68-.206,1.223,1.223,0,0,0-.867.359,9.166,9.166,0,0,1-1.154.981,7.5,7.5,0,0,1-1.993,1.027Zm1.31,3.27a10.156,10.156,0,0,0,2.105-1.16q.394-.28.771-.6a21.778,21.778,0,0,0,7.772,2.21v1.522a5.331,5.331,0,0,1-5.324,5.325,5.331,5.331,0,0,1-5.325-5.325v-1.97Zm-6.727,18.544a2.7,2.7,0,0,1,1.354-2.124l3.7-2.112c.183.221.374.435.578.638a9.025,9.025,0,0,0,6.425,2.661,1.226,1.226,0,0,0,1.226-1.226,1.226,1.226,0,0,0-1.226-1.226,6.593,6.593,0,0,1-4.692-1.943c-.047-.047-.092-.1-.138-.146l.188-.107a3.854,3.854,0,0,0,1.938-3.339v-.36a7.739,7.739,0,0,0,2.705.486,7.738,7.738,0,0,0,2.7-.486v.36a3.854,3.854,0,0,0,1.938,3.339l.188.107c-.047.049-.092.1-.139.145-.087.087-.178.172-.27.255a1.227,1.227,0,0,0-.095,1.731,1.224,1.224,0,0,0,.914.408,1.221,1.221,0,0,0,.817-.313c.125-.112.248-.229.366-.347.2-.2.4-.416.578-.637l3.694,2.111a2.7,2.7,0,0,1,1.354,2.124l1.028,12.333h-3.983l.953-7.631a2.537,2.537,0,0,0-.615-1.993,2.537,2.537,0,0,0-1.9-.858h-15.066a2.537,2.537,0,0,0-1.9.858,2.537,2.537,0,0,0-.615,1.993l.953,7.63h-3.983Zm-29.957-27.054a2.708,2.708,0,0,1,2.705-2.7,2.707,2.707,0,0,1,2.7,2.7,2.727,2.727,0,0,1-.043.483,9.05,9.05,0,0,0-2.661-.4,9.056,9.056,0,0,0-2.658.4A2.719,2.719,0,0,1-4296.512-673.617Zm2.705,2.536a6.642,6.642,0,0,1,6.635,6.635V-664a7.7,7.7,0,0,1-8.274-2.49,1.226,1.226,0,0,0-.894-.487,1.226,1.226,0,0,0-.953.356,8.023,8.023,0,0,1-3.145,2.007A6.642,6.642,0,0,1-4293.807-671.081Zm-6.636,9.255v-.254a9.828,9.828,0,0,0,3.939-1.962,11.023,11.023,0,0,0,2.273,1.655,9.746,9.746,0,0,0,4.685,1.209,10.258,10.258,0,0,0,2.362-.283,6.642,6.642,0,0,1-6.624,6.27A6.643,6.643,0,0,1-4300.442-661.826Zm-3.93,18.151a2.689,2.689,0,0,1,1.5-2.419l4.239-2.12a3.888,3.888,0,0,0,.647-.409,6.705,6.705,0,0,0,3.392,1.4,1.2,1.2,0,0,0,.144.008,1.226,1.226,0,0,0,1.216-1.083,1.226,1.226,0,0,0-1.075-1.36,4.279,4.279,0,0,1-2.321-1.023,3.887,3.887,0,0,0,.124-.969v-1.5a9.06,9.06,0,0,0,2.705.411,9.058,9.058,0,0,0,2.7-.411v1.5a3.824,3.824,0,0,0,2.126,3.44l4.239,2.12a2.69,2.69,0,0,1,1.5,2.419v9.446h-2.627l.954-7.63a2.537,2.537,0,0,0-.615-1.993,2.537,2.537,0,0,0-1.9-.858h-12.753a2.539,2.539,0,0,0-1.9.858,2.536,2.536,0,0,0-.614,1.993l.953,7.63h-2.626Zm5.171,9.446a.084.084,0,0,1-.083-.074l-.983-7.861a.083.083,0,0,1,.021-.066.079.079,0,0,1,.063-.028h12.754a.079.079,0,0,1,.063.029.079.079,0,0,1,.021.066l-.982,7.861a.085.085,0,0,1-.084.074Zm38.147,0a.084.084,0,0,1-.084-.074l-.982-7.861a.076.076,0,0,1,.021-.066.078.078,0,0,1,.063-.029h15.066a.08.08,0,0,1,.063.029.078.078,0,0,1,.02.066l-.982,7.861a.084.084,0,0,1-.084.074Z" transform="translate(0)"/>
    <path id="Path_603" data-name="Path 603" d="M-4198.612-438.292h-2.621a1.226,1.226,0,0,0-1.226,1.226,1.226,1.226,0,0,0,1.226,1.226h2.621a1.226,1.226,0,0,0,1.226-1.226A1.226,1.226,0,0,0-4198.612-438.292Z" transform="translate(-93.884 -201.178)"/>
    <path id="Path_604" data-name="Path 604" d="M-3958.128-438.292h-2.62a1.226,1.226,0,0,0-1.226,1.226,1.226,1.226,0,0,0,1.226,1.226h2.62a1.226,1.226,0,0,0,1.226-1.226A1.226,1.226,0,0,0-3958.128-438.292Z" transform="translate(-295.065 -201.178)"/>
  </g>
</svg>
