<svg xmlns="http://www.w3.org/2000/svg" width="36.838" height="36.837" viewBox="0 0 36.838 36.837">
  <g id="icon-2" transform="translate(-1906.851 1794.681)">
    <g id="Group_194" data-name="Group 194" transform="translate(1917.013 -1787.695)">
      <path id="Path_337" data-name="Path 337" d="M2053.808-1693.767h-4.446v-3.176a.635.635,0,0,0-.635-.635.635.635,0,0,0-.635.635v3.176a1.27,1.27,0,0,0,1.27,1.27h4.446v2.54a.635.635,0,0,0,.635.635.635.635,0,0,0,.635-.635v-2.54A1.27,1.27,0,0,0,2053.808-1693.767Z" transform="translate(-2048.092 1697.578)" fill="#5e5f62"/>
      <path id="Path_338" data-name="Path 338" d="M2195.049-1490.733H2190.6v-3.176a.635.635,0,0,0-.635-.635.635.635,0,0,0-.635.635v3.176a1.271,1.271,0,0,0,1.271,1.27h4.446v2.54a.635.635,0,0,0,.635.635.635.635,0,0,0,.635-.635v-2.54A1.27,1.27,0,0,0,2195.049-1490.733Z" transform="translate(-2179.171 1509.152)" fill="#5e5f62"/>
    </g>
    <path id="Path_339" data-name="Path 339" d="M1977.6-1793.411v5.081a1.274,1.274,0,0,1-1.27,1.27h-16.514v-7.622h16.514A1.274,1.274,0,0,1,1977.6-1793.411Z" transform="translate(-49.155 0)" fill="#26b99a"/>
    <path id="Path_340" data-name="Path 340" d="M2075.339-1590.377v5.081a1.274,1.274,0,0,1-1.27,1.27H2056.92v-7.622h17.148A1.274,1.274,0,0,1,2075.339-1590.377Z" transform="translate(-139.272 -188.426)" fill="#f0c419"/>
    <path id="Path_341" data-name="Path 341" d="M2017.863-1591.647v7.622h-3.811a1.274,1.274,0,0,1-1.27-1.27v-5.081a1.274,1.274,0,0,1,1.27-1.27Z" transform="translate(-98.309 -188.426)" fill="#f29c1f"/>
    <path id="Path_342" data-name="Path 342" d="M2189.463-1387.342v5.081a1.274,1.274,0,0,1-1.27,1.27h-16.514v-7.621h16.514A1.274,1.274,0,0,1,2189.463-1387.342Z" transform="translate(-245.774 -376.853)" fill="#ff5364"/>
    <path id="Path_343" data-name="Path 343" d="M2123.794-1388.612v7.621h-3.811a1.274,1.274,0,0,1-1.27-1.27v-5.081a1.274,1.274,0,0,1,1.27-1.27Z" transform="translate(-196.619 -376.853)" fill="#df4d60"/>
    <g id="Group_195" data-name="Group 195" transform="translate(1906.851 -1794.681)">
      <path id="Path_344" data-name="Path 344" d="M1911.932-1794.681v7.622h-3.811a1.274,1.274,0,0,1-1.27-1.27v-5.081a1.274,1.274,0,0,1,1.27-1.27Z" transform="translate(-1906.851 1794.681)" fill="#14a085"/>
      <path id="Path_345" data-name="Path 345" d="M2023.579-1768.2h-10.162a.635.635,0,0,0-.635.635.635.635,0,0,0,.635.635h10.162a.635.635,0,0,0,.635-.635A.635.635,0,0,0,2023.579-1768.2Z" transform="translate(-2005.16 1770.103)" fill="#14a085"/>
      <path id="Path_346" data-name="Path 346" d="M2018.5-1732.888h-5.081a.635.635,0,0,0-.635.635.635.635,0,0,0,.635.635h5.081a.635.635,0,0,0,.635-.635A.635.635,0,0,0,2018.5-1732.888Z" transform="translate(-2005.159 1737.334)" fill="#14a085"/>
    </g>
    <g id="Group_196" data-name="Group 196" transform="translate(1922.094 -1778.168)">
      <path id="Path_347" data-name="Path 347" d="M2129.51-1565.164h-10.162a.635.635,0,0,0-.635.635.635.635,0,0,0,.635.635h10.162a.635.635,0,0,0,.635-.635A.635.635,0,0,0,2129.51-1565.164Z" transform="translate(-2118.713 1565.164)" fill="#e57e25"/>
      <path id="Path_348" data-name="Path 348" d="M2124.429-1529.853h-5.081a.635.635,0,0,0-.635.635.635.635,0,0,0,.635.635h5.081a.635.635,0,0,0,.635-.635A.635.635,0,0,0,2124.429-1529.853Z" transform="translate(-2118.713 1532.394)" fill="#e57e25"/>
    </g>
    <g id="Group_197" data-name="Group 197" transform="translate(1929.716 -1763.56)">
      <path id="Path_349" data-name="Path 349" d="M2235.441-1362.129H2225.28a.635.635,0,0,0-.635.635.635.635,0,0,0,.635.635h10.162a.635.635,0,0,0,.635-.635A.635.635,0,0,0,2235.441-1362.129Z" transform="translate(-2224.644 1362.129)" fill="#802d40"/>
      <path id="Path_350" data-name="Path 350" d="M2230.359-1326.819h-5.081a.635.635,0,0,0-.635.635.635.635,0,0,0,.635.635h5.081a.635.635,0,0,0,.635-.635A.635.635,0,0,0,2230.359-1326.819Z" transform="translate(-2224.643 1329.36)" fill="#802d40"/>
    </g>
  </g>
</svg>
