<svg xmlns="http://www.w3.org/2000/svg" width="42.604" height="46.971" viewBox="0 0 42.604 46.971">
  <g id="icon-13" transform="translate(5224.357 1739.138)">
    <g id="Group_164" data-name="Group 164" transform="translate(-5223.669 -1738.441)">
      <g id="Group_155" data-name="Group 155" transform="translate(0 10.264)">
        <g id="Group_148" data-name="Group 148" transform="translate(8.637)">
          <path id="Path_284" data-name="Path 284" d="M-5109.228-1613.386v3.126h-13.483v-3.7a3.255,3.255,0,0,1,3.255-3.255h2.032a3.872,3.872,0,0,0,2.875-1.277l1.038-1.17A6.746,6.746,0,0,1-5109.228-1613.386Z" transform="translate(5122.711 1619.667)" fill="#6e4848"/>
        </g>
        <g id="Group_149" data-name="Group 149" transform="translate(16.997)">
          <path id="Path_285" data-name="Path 285" d="M-5030.75-1619.667l-.84.947a6.731,6.731,0,0,1,2.619,5.333v3.126h2.506v-3.126A6.745,6.745,0,0,0-5030.75-1619.667Z" transform="translate(5031.59 1619.667)" fill="#633c3e"/>
        </g>
        <g id="Group_150" data-name="Group 150" transform="translate(0 19.201)">
          <path id="Path_286" data-name="Path 286" d="M-5216.857-1394.238v-5.815a5.534,5.534,0,0,1,3.388-5.1l11.991-5.214,12.087,5.181a5.535,5.535,0,0,1,3.292,5.06v5.889" transform="translate(5216.857 1410.368)" fill="#c2ddff"/>
        </g>
        <g id="Group_151" data-name="Group 151" transform="translate(7.696 19.201)">
          <path id="Path_287" data-name="Path 287" d="M-5125.289-1401.4a8.058,8.058,0,0,0,7.7-5.67h0l-7.695-3.3-7.683,3.34h0a8.059,8.059,0,0,0,7.682,5.627Z" transform="translate(5132.97 1410.368)" fill="#a4ccff"/>
        </g>
        <g id="Group_152" data-name="Group 152" transform="translate(11.136 17.042)">
          <path id="Path_288" data-name="Path 288" d="M-5091.225-1426.194a4.243,4.243,0,0,1-4.243-4.243v-3.469h8.485v3.469A4.243,4.243,0,0,1-5091.225-1426.194Z" transform="translate(5095.468 1433.906)" fill="#f7d4ad"/>
        </g>
        <g id="Group_153" data-name="Group 153" transform="translate(11.136 17.042)">
          <path id="Path_289" data-name="Path 289" d="M-5095.469-1432.334a6.712,6.712,0,0,0,4.241,1.5,6.712,6.712,0,0,0,4.244-1.5v-1.57h-8.485v1.572Z" transform="translate(5095.469 1433.906)" fill="#ecbd83"/>
        </g>
        <g id="Group_154" data-name="Group 154" transform="translate(8.637 6.474)">
          <path id="Path_290" data-name="Path 290" d="M-5118.483-1549.1a8.438,8.438,0,0,0,5.877,2.372,8.42,8.42,0,0,0,3.2-.627,3.238,3.238,0,0,1,.175,1.187v2.6a6.74,6.74,0,0,1-6.741,6.741,6.74,6.74,0,0,1-6.74-6.741v-2.6a2.659,2.659,0,0,0,1.261-.3,2.655,2.655,0,0,0,.858-.712" transform="translate(5122.711 1549.096)" fill="#f7d4ad"/>
        </g>
      </g>
      <g id="Group_156" data-name="Group 156" transform="translate(23.794 0)">
        <path id="Path_291" data-name="Path 291" d="M-4948.783-1731.545a8.717,8.717,0,0,0-8.717,8.717,8.7,8.7,0,0,0,3.563,7.031,9.5,9.5,0,0,1-.318.991,9.52,9.52,0,0,1-1.4,2.467.807.807,0,0,0,.9,1.262,10.854,10.854,0,0,0,2.835-1.432,10.8,10.8,0,0,0,1.881-1.693,8.8,8.8,0,0,0,1.261.091,8.717,8.717,0,0,0,8.717-8.717,8.717,8.717,0,0,0-8.717-8.717Z" transform="translate(4957.5 1731.545)" fill="#fee07d"/>
      </g>
      <g id="Group_157" data-name="Group 157" transform="translate(25.462 0)">
        <path id="Path_292" data-name="Path 292" d="M-4932.268-1731.545a8.783,8.783,0,0,0-1.583.144,8.719,8.719,0,0,1,7.133,8.573,8.717,8.717,0,0,1-8.717,8.717,8.8,8.8,0,0,1-1.261-.091,10.8,10.8,0,0,1-1.881,1.693c-.238.168-.476.322-.712.462a.811.811,0,0,0,1.044.969,10.838,10.838,0,0,0,2.835-1.432,10.828,10.828,0,0,0,1.881-1.693,8.8,8.8,0,0,0,1.261.091,8.717,8.717,0,0,0,8.717-8.717,8.717,8.717,0,0,0-8.717-8.717Z" transform="translate(4939.316 1731.545)" fill="#ffc269"/>
      </g>
      <g id="Group_158" data-name="Group 158" transform="translate(20.505 21.721)">
        <path id="Path_293" data-name="Path 293" d="M-4990.111-1491.883a1.616,1.616,0,0,1-1.616,1.616,1.616,1.616,0,0,1-1.616-1.616,4.555,4.555,0,0,1,1.616-2.9A4.354,4.354,0,0,1-4990.111-1491.883Z" transform="translate(4993.343 1494.779)" fill="#c2ddff"/>
      </g>
      <g id="Group_163" data-name="Group 163" transform="translate(29.344 3.172)">
        <g id="Group_159" data-name="Group 159" transform="translate(2.479 9.897)">
          <circle id="Ellipse_27" data-name="Ellipse 27" cx="0.688" cy="0.688" r="0.688" fill="#ff6b61"/>
        </g>
        <g id="Group_162" data-name="Group 162">
          <g id="Group_161" data-name="Group 161">
            <g id="Group_160" data-name="Group 160">
              <path id="Path_294" data-name="Path 294" d="M-4893.836-1688.039a.688.688,0,0,1-.688-.688v-2.592a.688.688,0,0,1,.688-.688,1.775,1.775,0,0,0,1.3-.558,1.777,1.777,0,0,0,.49-1.329,1.8,1.8,0,0,0-1.751-1.694h-.037a1.79,1.79,0,0,0-1.774,1.54,1.777,1.777,0,0,0-.018.25.688.688,0,0,1-.688.688.688.688,0,0,1-.688-.688,3.159,3.159,0,0,1,.031-.441,3.17,3.17,0,0,1,3.2-2.725,3.176,3.176,0,0,1,3.1,3,3.142,3.142,0,0,1-.866,2.348,3.183,3.183,0,0,1-1.608.91v1.98a.688.688,0,0,1-.688.688Z" transform="translate(4897.003 1696.965)" fill="#ff6b61"/>
            </g>
          </g>
        </g>
      </g>
    </g>
    <g id="Group_165" data-name="Group 165" transform="translate(-5224.357 -1739.138)">
      <path id="Path_295" data-name="Path 295" d="M-5195.933-1602.821l-4.387-1.88-.012-.005-3.03-1.3c0-.018,0-.037,0-.055v-2.951a7.41,7.41,0,0,0,.982-1.059,2.286,2.286,0,0,0,.83.155,2.306,2.306,0,0,0,2.3-2.3,4.755,4.755,0,0,0-1.618-3.209l0-4.864a7.384,7.384,0,0,0-1.325-4.235,7.421,7.421,0,0,0-3.4-2.686.688.688,0,0,0-.766.184l-1.034,1.166a3.186,3.186,0,0,1-2.362,1.05h-2.033a3.948,3.948,0,0,0-3.943,3.943v3.7h0v2.6a7.4,7.4,0,0,0,2.5,5.557v2.949c0,.027,0,.055,0,.083l-3.027,1.316h0l-4.3,1.87a6.208,6.208,0,0,0-3.809,5.735v5.815a.688.688,0,0,0,.688.688.688.688,0,0,0,.688-.688v-5.815a4.838,4.838,0,0,1,2.974-4.47l3.639-1.582a8.788,8.788,0,0,0,1.837,2.774.685.685,0,0,0,.491.206.687.687,0,0,0,.482-.2.688.688,0,0,0,.009-.973,7.412,7.412,0,0,1-1.557-2.359l2.113-.919a4.937,4.937,0,0,0,4.7,3.446,4.928,4.928,0,0,0,4.71-3.473l2.118.907a7.445,7.445,0,0,1-2.419,3.138,7.3,7.3,0,0,1-4.411,1.466,7.288,7.288,0,0,1-3.29-.774.689.689,0,0,0-.923.308.688.688,0,0,0,.308.923,8.65,8.65,0,0,0,3.9.919,8.671,8.671,0,0,0,5.236-1.741,8.831,8.831,0,0,0,2.858-3.7l3.714,1.592a4.848,4.848,0,0,1,2.883,4.43v5.89a.688.688,0,0,0,.688.688.688.688,0,0,0,.688-.688v-5.89a6.227,6.227,0,0,0-3.709-5.692Zm-4.687-9.4a.929.929,0,0,1-.928.928.928.928,0,0,1-.927-.928,3.251,3.251,0,0,1,.935-1.938A3.1,3.1,0,0,1-5200.62-1612.217Zm-13.724-2.348v-1.975a3.323,3.323,0,0,0,.89-.311,3.316,3.316,0,0,0,1.081-.9.688.688,0,0,0-.113-.966.688.688,0,0,0-.966.113,1.95,1.95,0,0,1-.636.527,1.908,1.908,0,0,1-.254.109v-2.906a2.57,2.57,0,0,1,2.567-2.567h2.033a4.568,4.568,0,0,0,3.388-1.509l.707-.8a6.017,6.017,0,0,1,3.414,5.45v1.4a7.723,7.723,0,0,1-2.692.48,7.744,7.744,0,0,1-5.4-2.18.688.688,0,0,0-.973.018.689.689,0,0,0,.018.973,9.116,9.116,0,0,0,6.354,2.565,9.113,9.113,0,0,0,2.688-.4c0,.048,0,2.024,0,2.024a4.9,4.9,0,0,0-1.613,3.2,2.288,2.288,0,0,0,.4,1.292,6.019,6.019,0,0,1-1.027,1.063,6.064,6.064,0,0,1-3.81,1.35,6.061,6.061,0,0,1-3.809-1.348,6.028,6.028,0,0,1-2.244-4.7Zm6.054,12.061a3.556,3.556,0,0,1-3.528-3.118,3.528,3.528,0,0,1-.027-.437v-1.984a7.451,7.451,0,0,0,3.554.906,7.45,7.45,0,0,0,3.556-.908v1.985a3.632,3.632,0,0,1-.025.417,3.55,3.55,0,0,1-3.529,3.138Z" transform="translate(5224.357 1637.523)"/>
      <path id="Path_296" data-name="Path 296" d="M-5156.835-1285.034a.688.688,0,0,0-.688.688v3.935a.688.688,0,0,0,.688.688.688.688,0,0,0,.688-.688v-3.935A.688.688,0,0,0-5156.835-1285.034Z" transform="translate(5163.654 1326.694)"/>
      <path id="Path_297" data-name="Path 297" d="M-4955.034-1285.034a.688.688,0,0,0-.688.688v3.935a.688.688,0,0,0,.688.688.688.688,0,0,0,.688-.688v-3.935A.688.688,0,0,0-4955.034-1285.034Z" transform="translate(4980.367 1326.694)"/>
      <path id="Path_298" data-name="Path 298" d="M-4950.045-1737.327a.688.688,0,0,0-.961.149.688.688,0,0,0,.149.962,8.063,8.063,0,0,1,3.292,6.484,8.038,8.038,0,0,1-8.029,8.029,8.134,8.134,0,0,1-1.162-.084.688.688,0,0,0-.616.226,10.166,10.166,0,0,1-1.762,1.586,10.173,10.173,0,0,1-2.656,1.341.111.111,0,0,1-.141-.045.1.1,0,0,1,0-.139,10.224,10.224,0,0,0,1.5-2.645,10.129,10.129,0,0,0,.341-1.064.688.688,0,0,0-.258-.729,8.064,8.064,0,0,1-3.283-6.476,8.038,8.038,0,0,1,8.028-8.029,8.02,8.02,0,0,1,2.531.407.687.687,0,0,0,.869-.436.688.688,0,0,0-.436-.87,9.389,9.389,0,0,0-2.964-.477,9.416,9.416,0,0,0-9.4,9.4,9.448,9.448,0,0,0,3.461,7.288c-.052.166-.109.329-.17.487a8.832,8.832,0,0,1-1.3,2.289,1.483,1.483,0,0,0-.047,1.781,1.489,1.489,0,0,0,1.221.637,1.522,1.522,0,0,0,.48-.078,11.534,11.534,0,0,0,3.015-1.523,11.525,11.525,0,0,0,1.754-1.528,9.507,9.507,0,0,0,.991.052,9.416,9.416,0,0,0,9.405-9.4,9.443,9.443,0,0,0-3.856-7.594Z" transform="translate(4988.792 1739.138)"/>
      <circle id="Ellipse_28" data-name="Ellipse 28" cx="0.688" cy="0.688" r="0.688" transform="translate(32.511 13.758)"/>
      <path id="Path_299" data-name="Path 299" d="M-4890.674-1694.061a3.176,3.176,0,0,0-3.1-3h-.065a3.167,3.167,0,0,0-3.136,2.726,3.162,3.162,0,0,0-.031.441.688.688,0,0,0,.688.688.688.688,0,0,0,.688-.688,1.784,1.784,0,0,1,.018-.251,1.791,1.791,0,0,1,1.811-1.54,1.8,1.8,0,0,1,1.751,1.694,1.776,1.776,0,0,1-.49,1.329,1.775,1.775,0,0,1-1.3.558.688.688,0,0,0-.688.688v2.592a.688.688,0,0,0,.688.688.688.688,0,0,0,.688-.688v-1.981a3.182,3.182,0,0,0,1.608-.91,3.142,3.142,0,0,0,.866-2.348Z" transform="translate(4927.036 1700.92)"/>
    </g>
  </g>
</svg>
