<svg xmlns="http://www.w3.org/2000/svg" width="44.785" height="44.785" viewBox="0 0 44.785 44.785">
  <g id="icon-9" transform="translate(2028.042 1760.81)">
    <g id="Group_94" data-name="Group 94" transform="translate(-2025.447 -1735.773)">
      <path id="Path_192" data-name="Path 192" d="M-1985.576-1474.559v2.131a1.965,1.965,0,0,1-1.964,1.964h-.029a10.806,10.806,0,0,0-10.806,10.806v2.555h32.568v-2.555a10.806,10.806,0,0,0-10.806-10.806,1.964,1.964,0,0,1-1.964-1.964v-2.146Z" transform="translate(1998.376 1474.573)" fill="#f5c6af"/>
    </g>
    <g id="Group_95" data-name="Group 95" transform="translate(-1994.628 -1759.935)">
      <path id="Path_193" data-name="Path 193" d="M-1637.3-1736.614v-10.7a3.5,3.5,0,0,0-3.5-3.5,3.5,3.5,0,0,0-3.5,3.5v10.7a5.234,5.234,0,0,0-1.75,3.911,5.248,5.248,0,0,0,5.248,5.248,5.248,5.248,0,0,0,5.248-5.248A5.234,5.234,0,0,0-1637.3-1736.614Z" transform="translate(1646.042 1750.81)" fill="#a0c8ff"/>
      <ellipse id="Ellipse_26" data-name="Ellipse 26" cx="1.5" cy="2" rx="1.5" ry="2" transform="translate(3.979 16.518)" fill="#ff5c7d"/>
    </g>
    <path id="Path_194" data-name="Path 194" d="M-1879.266-1601.336v4.853a7.1,7.1,0,0,1-7.1,7.1,7.1,7.1,0,0,1-7.1-7.1v-4.853" transform="translate(-122.812 -145.525)" fill="#f2ccac"/>
    <path id="Path_195" data-name="Path 195" d="M-1879.266-1601.336v4.853a7.1,7.1,0,0,1-7.1,7.1,7.1,7.1,0,0,1-7.1-7.1v-4.853Z" transform="translate(-122.812 -145.525)" fill="#f5c6af"/>
    <path id="Path_196" data-name="Path 196" d="M-1886.363-1707.078a7.1,7.1,0,0,0-7.1,7.1v2.153h14.193v-2.153a7.1,7.1,0,0,0-7.1-7.1Z" transform="translate(-122.811 -49.032)" fill="#ffd88e"/>
    <path id="Path_197" data-name="Path 197" d="M-1847.187-1632.81h-4.537a1.318,1.318,0,0,0-1.318,1.318v2.088a1.318,1.318,0,0,0,1.318,1.318h4.537a1.318,1.318,0,0,0,1.318-1.318v-2.088A1.318,1.318,0,0,0-1847.187-1632.81Z" transform="translate(-159.692 -116.804)" fill="#fff"/>
    <path id="Path_198" data-name="Path 198" d="M-1984.439-1330.81h-31.2a2.406,2.406,0,0,0-2.406,2.405v3.893h36.009v-3.893A2.4,2.4,0,0,0-1984.439-1330.81Z" transform="translate(-9.125 -392.388)" fill="#a0c8ff"/>
    <g id="Group_96" data-name="Group 96" transform="translate(-2028.042 -1760.81)">
      <path id="Path_199" data-name="Path 199" d="M-1612.543-1679.512v-9.423a.875.875,0,0,0-.875-.875.874.874,0,0,0-.875.875v9.423a2.628,2.628,0,0,0-1.75,2.474,2.627,2.627,0,0,0,2.624,2.624,2.627,2.627,0,0,0,2.624-2.624A2.628,2.628,0,0,0-1612.543-1679.512Zm-.875,3.348a.875.875,0,0,1-.875-.875.875.875,0,0,1,.875-.875.876.876,0,0,1,.875.875A.876.876,0,0,1-1613.418-1676.164Z" transform="translate(1652.08 1696.021)"/>
      <path id="Path_200" data-name="Path 200" d="M-1645.546-1746.112v-10.324a4.378,4.378,0,0,0-4.374-4.374,4.378,4.378,0,0,0-4.374,4.374v10.324a6.133,6.133,0,0,0-1.75,4.284,6.13,6.13,0,0,0,6.123,6.123,6.13,6.13,0,0,0,6.123-6.123A6.133,6.133,0,0,0-1645.546-1746.112Zm-4.374,8.658a4.379,4.379,0,0,1-4.374-4.374,4.38,4.38,0,0,1,1.458-3.259.875.875,0,0,0,.291-.652v-10.7a2.627,2.627,0,0,1,2.624-2.624,2.627,2.627,0,0,1,2.624,2.624v10.7a.875.875,0,0,0,.292.652,4.381,4.381,0,0,1,1.458,3.259A4.379,4.379,0,0,1-1649.919-1737.455Z" transform="translate(1688.581 1760.81)"/>
      <path id="Path_201" data-name="Path 201" d="M-2027.167-1477.759a.875.875,0,0,0,.875-.875.392.392,0,0,1,.392-.392,2.144,2.144,0,0,0,2.141-2.142.631.631,0,0,1,.63-.63,2.327,2.327,0,0,0,2.325-2.325.392.392,0,0,1,.392-.392.875.875,0,0,0,.875-.875.875.875,0,0,0-.875-.875,2.143,2.143,0,0,0-2.141,2.141.576.576,0,0,1-.575.575,2.382,2.382,0,0,0-2.379,2.38.392.392,0,0,1-.392.391,2.144,2.144,0,0,0-2.141,2.141A.875.875,0,0,0-2027.167-1477.759Z" transform="translate(2028.042 1510.278)"/>
      <path id="Path_202" data-name="Path 202" d="M-1692.958-1484.514a.392.392,0,0,1,.392.392,2.327,2.327,0,0,0,2.325,2.325.631.631,0,0,1,.63.631,2.144,2.144,0,0,0,2.141,2.141.392.392,0,0,1,.392.392.875.875,0,0,0,.875.875.875.875,0,0,0,.875-.875,2.144,2.144,0,0,0-2.141-2.141.392.392,0,0,1-.392-.392,2.382,2.382,0,0,0-2.379-2.38.576.576,0,0,1-.575-.575,2.144,2.144,0,0,0-2.141-2.141.875.875,0,0,0-.875.875A.875.875,0,0,0-1692.958-1484.514Z" transform="translate(1723.066 1510.278)"/>
      <path id="Path_203" data-name="Path 203" d="M-1833.715-1538.681a2.559,2.559,0,0,0-1.821.754.875.875,0,0,0,0,1.237.875.875,0,0,0,1.237,0,.821.821,0,0,1,.584-.242.822.822,0,0,1,.584.242.871.871,0,0,0,.618.256.872.872,0,0,0,.618-.256.875.875,0,0,0,0-1.237,2.56,2.56,0,0,0-1.822-.754Z" transform="translate(1852.609 1558.111)"/>
      <path id="Path_204" data-name="Path 204" d="M-1992.393-1683.949a11.735,11.735,0,0,0-3.929-6.07,11.707,11.707,0,0,0-7.363-2.613,1.091,1.091,0,0,1-1.09-1.09v-1.737a7.97,7.97,0,0,0,3.572-6.644v-7.006a7.98,7.98,0,0,0-7.971-7.971,7.98,7.98,0,0,0-7.971,7.971v7.006a7.97,7.97,0,0,0,3.623,6.677v1.7a1.091,1.091,0,0,1-1.09,1.09h-.029a11.707,11.707,0,0,0-7.363,2.613,11.733,11.733,0,0,0-3.929,6.07,3.284,3.284,0,0,0-2.109,3.063v3.892a.875.875,0,0,0,.875.875.875.875,0,0,0,.875-.875v-3.892a1.533,1.533,0,0,1,1.531-1.531h11.677a.875.875,0,0,0,.875-.875.875.875,0,0,0-.875-.875h-10.953a10,10,0,0,1,9.4-6.716h.029a2.842,2.842,0,0,0,2.839-2.839v-.845a7.933,7.933,0,0,0,2.6.436,7.932,7.932,0,0,0,2.649-.453v.863a2.842,2.842,0,0,0,2.839,2.839,10,10,0,0,1,9.4,6.716h-10.924a.875.875,0,0,0-.875.875.875.875,0,0,0,.875.875h11.648a1.533,1.533,0,0,1,1.531,1.531v3.892a.875.875,0,0,0,.875.875.875.875,0,0,0,.875-.875v-3.892A3.285,3.285,0,0,0-1992.393-1683.949Zm-23-25.158a6.229,6.229,0,0,1,6.221-6.222,6.229,6.229,0,0,1,6.222,6.222v1.278h-1.735v-.56a2.2,2.2,0,0,0-2.193-2.193h-4.537a2.195,2.195,0,0,0-2.192,2.193v.56h-1.786Zm8.958.718v2.088a.444.444,0,0,1-.443.443h-4.537a.443.443,0,0,1-.443-.443v-2.088a.444.444,0,0,1,.443-.443h4.537A.444.444,0,0,1-2006.437-1708.389Zm-8.958,6.288v-3.978h1.8a2.2,2.2,0,0,0,2.181,1.97h4.537a2.2,2.2,0,0,0,2.181-1.97h1.747v3.978a6.229,6.229,0,0,1-6.222,6.221A6.229,6.229,0,0,1-2015.4-1702.1Z" transform="translate(2028.042 1720.903)"/>
      <path id="Path_205" data-name="Path 205" d="M-1821.337-1340.81a.878.878,0,0,0-.618.256.882.882,0,0,0-.256.619.881.881,0,0,0,.256.618.881.881,0,0,0,.618.256.881.881,0,0,0,.618-.256.877.877,0,0,0,.256-.618.878.878,0,0,0-.256-.619A.877.877,0,0,0-1821.337-1340.81Z" transform="translate(1840.216 1377.548)"/>
    </g>
  </g>
</svg>
