<svg xmlns="http://www.w3.org/2000/svg" width="37.596" height="34.792" viewBox="0 0 37.596 34.792">
  <g id="icon-19" transform="translate(6462 243)">
    <path id="Path_548" data-name="Path 548" d="M-6451.354-141.512h0a3.146,3.146,0,0,1-3.146-3.146v-24.418a1.347,1.347,0,0,1,1.347-1.347h12.008v28.912h-10.208Z" transform="translate(-6.949 -67.247)" fill="#e8e9ea"/>
    <path id="Path_549" data-name="Path 549" d="M-6428.456-170.425h.482v25.765a3.145,3.145,0,0,1-1.814,2.85,3.134,3.134,0,0,0,1.333.3h10.208v-28.912Z" transform="translate(-29.847 -67.246)" fill="#d0d1d2"/>
    <path id="Path_550" data-name="Path 550" d="M-6407.147-235.5a1.347,1.347,0,0,0-1.347,1.347v29.2a3.147,3.147,0,0,1-3.147,3.147h30.2a3.147,3.147,0,0,0,3.147-3.147v-29.2a1.347,1.347,0,0,0-1.347-1.347h-27.506Z" transform="translate(-46.661 -6.948)" fill="#f2f3f3"/>
    <path id="Path_551" data-name="Path 551" d="M-6299.621-65.536h-7.553a.752.752,0,0,1-.752-.752v-7.553a.752.752,0,0,1,.752-.752h7.553a.752.752,0,0,1,.752.752v7.553A.752.752,0,0,1-6299.621-65.536Z" transform="translate(-142.761 -156.04)" fill="#ffce71"/>
    <path id="Path_552" data-name="Path 552" d="M-6305.723-66.289v-7.553a.752.752,0,0,1,.752-.752h-2.2a.752.752,0,0,0-.752.752v7.553a.752.752,0,0,0,.752.752h2.2A.752.752,0,0,1-6305.723-66.289Z" transform="translate(-142.761 -156.04)" fill="#e5b965"/>
    <path id="Path_553" data-name="Path 553" d="M-6426.3-243h-27.506a1.9,1.9,0,0,0-1.9,1.9v2.881h-4.4a1.9,1.9,0,0,0-1.9,1.9v24.418a3.7,3.7,0,0,0,3.671,3.7h19.508a.551.551,0,0,0,.551-.551.551.551,0,0,0-.551-.551h-16.851a3.686,3.686,0,0,0,1.067-2.6v-12.878a.551.551,0,0,0-.551-.551.551.551,0,0,0-.551.551v12.878a2.6,2.6,0,0,1-2.582,2.6h-.014a2.6,2.6,0,0,1-2.6-2.6v-24.418a.8.8,0,0,1,.8-.8h4.4v10.28a.551.551,0,0,0,.551.551.551.551,0,0,0,.551-.551V-241.1a.8.8,0,0,1,.8-.8h27.506a.8.8,0,0,1,.8.8v29.2a2.6,2.6,0,0,1-2.6,2.6h-8.663a.551.551,0,0,0-.551.551.551.551,0,0,0,.551.551h8.663a3.7,3.7,0,0,0,3.7-3.7v-29.2A1.9,1.9,0,0,0-6426.3-243Z"/>
    <path id="Path_554" data-name="Path 554" d="M-6314.123-71.935h7.554a1.3,1.3,0,0,0,1.3-1.3v-7.553a1.3,1.3,0,0,0-1.3-1.3h-7.554a1.3,1.3,0,0,0-1.3,1.3v7.553A1.3,1.3,0,0,0-6314.123-71.935Zm-.2-8.856a.2.2,0,0,1,.2-.2h7.554a.2.2,0,0,1,.2.2v7.553a.2.2,0,0,1-.2.2h-7.554a.2.2,0,0,1-.2-.2Z" transform="translate(-135.811 -149.091)"/>
    <path id="Path_555" data-name="Path 555" d="M-6156.758-80.993h10.221a.551.551,0,0,0,.551-.551.551.551,0,0,0-.551-.551h-10.221a.551.551,0,0,0-.551.551A.551.551,0,0,0-6156.758-80.993Z" transform="translate(-282.318 -149.091)"/>
    <path id="Path_556" data-name="Path 556" d="M-6156.758-19.315h10.221a.551.551,0,0,0,.551-.551.551.551,0,0,0-.551-.551h-10.221a.551.551,0,0,0-.551.551A.551.551,0,0,0-6156.758-19.315Z" transform="translate(-282.318 -206.24)"/>
    <path id="Path_557" data-name="Path 557" d="M-6156.758,42.362h10.221a.551.551,0,0,0,.551-.551.551.551,0,0,0-.551-.551h-10.221a.551.551,0,0,0-.551.551A.551.551,0,0,0-6156.758,42.362Z" transform="translate(-282.318 -263.388)"/>
    <path id="Path_558" data-name="Path 558" d="M-6314.875,104.04h21.832a.551.551,0,0,0,.551-.551.551.551,0,0,0-.551-.551h-21.832a.55.55,0,0,0-.551.551A.55.55,0,0,0-6314.875,104.04Z" transform="translate(-135.811 -320.537)"/>
    <path id="Path_559" data-name="Path 559" d="M-6314.875,165.718h21.832a.551.551,0,0,0,.551-.551.551.551,0,0,0-.551-.551h-21.832a.55.55,0,0,0-.551.551A.55.55,0,0,0-6314.875,165.718Z" transform="translate(-135.811 -377.686)"/>
    <g id="Group_268" data-name="Group 268" transform="translate(-6451.223 -240.235)">
      <path id="Path_560" data-name="Path 560" d="M-6315.233-198.542v-5.819a.3.3,0,0,1,.17-.274.843.843,0,0,1,.413-.094.872.872,0,0,1,.493.117,1.452,1.452,0,0,1,.377.5l1.73,3.345v-3.6a.288.288,0,0,1,.17-.269.875.875,0,0,1,.412-.09.877.877,0,0,1,.413.09.288.288,0,0,1,.17.269v5.828a.3.3,0,0,1-.175.269.818.818,0,0,1-.408.1.7.7,0,0,1-.672-.368l-1.928-3.6v3.6a.3.3,0,0,1-.175.269.816.816,0,0,1-.408.1.811.811,0,0,1-.413-.1A.3.3,0,0,1-6315.233-198.542Z" transform="translate(6315.233 204.774)" fill="#4a5359"/>
      <path id="Path_561" data-name="Path 561" d="M-6241.355-198.542v-5.819a.306.306,0,0,1,.152-.269.648.648,0,0,1,.359-.1h3.192a.3.3,0,0,1,.273.152.654.654,0,0,1,.094.35.665.665,0,0,1-.1.368.3.3,0,0,1-.269.152h-2.538v1.793h1.363a.312.312,0,0,1,.269.139.553.553,0,0,1,.1.327.541.541,0,0,1-.094.309.311.311,0,0,1-.273.139h-1.363v1.8h2.538a.3.3,0,0,1,.269.152.665.665,0,0,1,.1.368.654.654,0,0,1-.094.35.3.3,0,0,1-.273.152h-3.192a.646.646,0,0,1-.359-.1A.306.306,0,0,1-6241.355-198.542Z" transform="translate(6246.78 204.774)" fill="#4a5359"/>
      <path id="Path_562" data-name="Path 562" d="M-6177.979-204.263a.393.393,0,0,1,.242-.327,1,1,0,0,1,.5-.139q.322,0,.385.233l1.417,4.86.763-3.12c.054-.215.244-.323.573-.323s.511.108.565.323l.762,3.12,1.417-4.86c.042-.155.17-.233.386-.233a1,1,0,0,1,.5.139.393.393,0,0,1,.242.327.347.347,0,0,1-.019.108l-1.775,5.64c-.089.263-.344.395-.762.395a1.108,1.108,0,0,1-.484-.1.434.434,0,0,1-.26-.291l-.574-2.421-.583,2.421a.434.434,0,0,1-.26.291,1.106,1.106,0,0,1-.484.1,1.129,1.129,0,0,1-.493-.1.463.463,0,0,1-.269-.291l-1.775-5.64A.347.347,0,0,1-6177.979-204.263Z" transform="translate(6188.057 204.774)" fill="#4a5359"/>
      <path id="Path_563" data-name="Path 563" d="M-6068.321-199.773a.7.7,0,0,1,.157-.417.445.445,0,0,1,.354-.211.461.461,0,0,1,.265.112,3.007,3.007,0,0,1,.287.247,1.316,1.316,0,0,0,.4.247,1.439,1.439,0,0,0,.574.112,1.237,1.237,0,0,0,.717-.2.661.661,0,0,0,.287-.583.783.783,0,0,0-.157-.48,1.249,1.249,0,0,0-.413-.35q-.255-.139-.56-.269t-.614-.291a3.576,3.576,0,0,1-.565-.363,1.445,1.445,0,0,1-.412-.538,1.787,1.787,0,0,1-.157-.767,1.811,1.811,0,0,1,.192-.851,1.472,1.472,0,0,1,.516-.573,2.419,2.419,0,0,1,.69-.3,3.094,3.094,0,0,1,.78-.1,4.033,4.033,0,0,1,.493.032,4.56,4.56,0,0,1,.551.106,1.163,1.163,0,0,1,.476.23.472.472,0,0,1,.184.368.816.816,0,0,1-.125.413.382.382,0,0,1-.341.213,1.684,1.684,0,0,1-.439-.17,1.836,1.836,0,0,0-.8-.17,1.3,1.3,0,0,0-.749.184.583.583,0,0,0-.265.507.591.591,0,0,0,.215.453,1.688,1.688,0,0,0,.534.314q.319.121.69.3a5.9,5.9,0,0,1,.69.4,1.673,1.673,0,0,1,.534.623,2.018,2.018,0,0,1,.215.955,1.761,1.761,0,0,1-.587,1.419,2.306,2.306,0,0,1-1.547.5,2.89,2.89,0,0,1-1.461-.35Q-6068.321-199.361-6068.321-199.773Z" transform="translate(6086.451 205.342)" fill="#4a5359"/>
    </g>
  </g>
</svg>
