<svg xmlns="http://www.w3.org/2000/svg" width="41.113" height="43.626" viewBox="0 0 41.113 43.626">
  <g id="ingreso" transform="translate(-28.87 -92.374)">
    <g id="empresa" transform="translate(33.192 92.374)">
      <g id="Group_568" data-name="Group 568" transform="translate(27.959 11.1)">
        <path id="Path_1984" data-name="Path 1984" d="M383.487,184.746h6.524a.389.389,0,0,0,.387-.389v-22.89a.388.388,0,0,0-.387-.387h-6.524l-1.4,10.359Z" transform="translate(-382.082 -161.081)" fill="#c8c5c9" fill-rule="evenodd"/>
      </g>
      <g id="Group_569" data-name="Group 569" transform="translate(12.545 8.153)">
        <path id="Path_1985" data-name="Path 1985" d="M158.4,144.92h5.085v-6.188h6.649v6.188h5.084V119.045a.74.74,0,0,0-.738-.738H159.143a.74.74,0,0,0-.738.738V144.92Z" transform="translate(-158.405 -118.307)" fill="#eceaec" fill-rule="evenodd"/>
      </g>
      <g id="Group_570" data-name="Group 570" transform="translate(2.267 11.846)">
        <path id="Path_1986" data-name="Path 1986" d="M19.528,171.91l-9.227,4.2c-.525.24-1.051.475-1.051,1.051v17.342a.322.322,0,0,0,.32.322h9.958v-12C19.528,180.432,19.528,177.291,19.528,171.91Z" transform="translate(-9.25 -171.91)" fill="#c8c5c9" fill-rule="evenodd"/>
      </g>
      <g id="Group_571" data-name="Group 571" transform="translate(17.63 28.577)">
        <path id="Path_1987" data-name="Path 1987" d="M232.19,414.7h3.325v6.188H232.19Z" transform="translate(-232.19 -414.698)" fill="#9fd4fe" fill-rule="evenodd"/>
      </g>
      <g id="Group_572" data-name="Group 572" transform="translate(20.954 28.577)">
        <path id="Path_1988" data-name="Path 1988" d="M280.434,414.7h3.325v6.188h-3.325Z" transform="translate(-280.434 -414.698)" fill="#9fd4fe" fill-rule="evenodd"/>
      </g>
      <g id="Group_573" data-name="Group 573" transform="translate(26.748 8.153)">
        <path id="Path_1989" data-name="Path 1989" d="M365.242,119.045V144.92h1.881V119.045a.74.74,0,0,0-.738-.738h-1.877A.741.741,0,0,1,365.242,119.045Z" transform="translate(-364.508 -118.307)" fill="#dad8db" fill-rule="evenodd"/>
      </g>
      <g id="Group_574" data-name="Group 574" transform="translate(10.617 31.974)">
        <path id="Path_1990" data-name="Path 1990" d="M130.428,466.784h1.928v-2.791h-1.928Z" transform="translate(-130.428 -463.993)" fill="#b6b1b7" fill-rule="evenodd"/>
      </g>
      <g id="Group_575" data-name="Group 575" transform="translate(34.067 11.1)">
        <path id="Path_1991" data-name="Path 1991" d="M471.107,161.468v22.89a.389.389,0,0,1-.387.389h1.82a.389.389,0,0,0,.387-.389v-22.89a.388.388,0,0,0-.387-.387h-1.82A.388.388,0,0,1,471.107,161.468Z" transform="translate(-470.72 -161.081)" fill="#b6b1b7" fill-rule="evenodd"/>
      </g>
      <g id="Group_576" data-name="Group 576" transform="translate(29.363 14.544)">
        <path id="Path_1992" data-name="Path 1992" d="M402.463,213.662h3.522a.337.337,0,0,0,.336-.336v-1.934a.336.336,0,0,0-.336-.336h-3.522Z" transform="translate(-402.463 -211.056)" fill="#9fd4fe" fill-rule="evenodd"/>
      </g>
      <g id="Group_577" data-name="Group 577" transform="translate(29.363 20.162)">
        <path id="Path_1993" data-name="Path 1993" d="M402.463,295.186h3.522a.336.336,0,0,0,.336-.334v-1.936a.336.336,0,0,0-.336-.334h-3.522Z" transform="translate(-402.463 -292.582)" fill="#9fd4fe" fill-rule="evenodd"/>
      </g>
      <g id="Group_578" data-name="Group 578" transform="translate(29.363 25.778)">
        <path id="Path_1994" data-name="Path 1994" d="M402.463,376.682h3.522a.336.336,0,0,0,.336-.334v-1.936a.336.336,0,0,0-.336-.334h-3.522Z" transform="translate(-402.463 -374.078)" fill="#9fd4fe" fill-rule="evenodd"/>
      </g>
      <g id="Group_579" data-name="Group 579" transform="translate(6.027 29.37)">
        <path id="Path_1995" data-name="Path 1995" d="M64.15,428.811h6.184v-2.6H64.15a.335.335,0,0,0-.334.334v1.936A.335.335,0,0,0,64.15,428.811Z" transform="translate(-63.816 -426.207)" fill="#9fd4fe" fill-rule="evenodd"/>
      </g>
      <g id="Group_580" data-name="Group 580" transform="translate(6.027 23.752)">
        <path id="Path_1996" data-name="Path 1996" d="M64.15,347.288h6.184v-2.606H64.15a.337.337,0,0,0-.334.336v1.934A.335.335,0,0,0,64.15,347.288Z" transform="translate(-63.816 -344.682)" fill="#9fd4fe" fill-rule="evenodd"/>
      </g>
      <g id="Group_581" data-name="Group 581" transform="translate(6.027 18.136)">
        <path id="Path_1997" data-name="Path 1997" d="M64.15,265.79h6.184v-2.6H64.15a.335.335,0,0,0-.334.334v1.936A.335.335,0,0,0,64.15,265.79Z" transform="translate(-63.816 -263.186)" fill="#9fd4fe" fill-rule="evenodd"/>
      </g>
      <g id="Group_582" data-name="Group 582" transform="translate(15.872 21.949)">
        <path id="Path_1998" data-name="Path 1998" d="M206.678,318.718v2.354a.2.2,0,0,0,.2.2h3.09a.2.2,0,0,0,.2-.2v-2.354a.2.2,0,0,0-.2-.2h-3.09A.2.2,0,0,0,206.678,318.718Z" transform="translate(-206.678 -318.519)" fill="#9fd4fe" fill-rule="evenodd"/>
      </g>
      <g id="Group_583" data-name="Group 583" transform="translate(15.872 16.525)">
        <path id="Path_1999" data-name="Path 1999" d="M206.878,242.552h3.09a.2.2,0,0,0,.2-.2V240a.2.2,0,0,0-.2-.2h-3.09a.2.2,0,0,0-.2.2v2.352A.2.2,0,0,0,206.878,242.552Z" transform="translate(-206.679 -239.8)" fill="#9fd4fe" fill-rule="evenodd"/>
      </g>
      <g id="Group_584" data-name="Group 584" transform="translate(15.872 11.102)">
        <path id="Path_2000" data-name="Path 2000" d="M206.878,163.862h3.09a.2.2,0,0,0,.2-.2v-2.354a.2.2,0,0,0-.2-.2h-3.09a.2.2,0,0,0-.2.2v2.354A.2.2,0,0,0,206.878,163.862Z" transform="translate(-206.679 -161.11)" fill="#9fd4fe" fill-rule="evenodd"/>
      </g>
      <g id="Group_585" data-name="Group 585" transform="translate(22.548 11.102)">
        <path id="Path_2001" data-name="Path 2001" d="M303.764,163.862h3.09a.2.2,0,0,0,.2-.2v-2.354a.2.2,0,0,0-.2-.2h-3.09a.2.2,0,0,0-.2.2v2.354A.2.2,0,0,0,303.764,163.862Z" transform="translate(-303.565 -161.11)" fill="#9fd4fe" fill-rule="evenodd"/>
      </g>
      <g id="Group_586" data-name="Group 586" transform="translate(22.548 21.949)">
        <path id="Path_2002" data-name="Path 2002" d="M303.764,321.271h3.09a.2.2,0,0,0,.2-.2v-2.354a.2.2,0,0,0-.2-.2h-3.09a.2.2,0,0,0-.2.2v2.354A.2.2,0,0,0,303.764,321.271Z" transform="translate(-303.565 -318.519)" fill="#9fd4fe" fill-rule="evenodd"/>
      </g>
      <g id="Group_587" data-name="Group 587" transform="translate(22.548 16.525)">
        <path id="Path_2003" data-name="Path 2003" d="M303.764,242.552h3.09a.2.2,0,0,0,.2-.2V240a.2.2,0,0,0-.2-.2h-3.09a.2.2,0,0,0-.2.2v2.352A.2.2,0,0,0,303.764,242.552Z" transform="translate(-303.565 -239.8)" fill="#9fd4fe" fill-rule="evenodd"/>
      </g>
      <g id="Group_588" data-name="Group 588" transform="translate(14.749 5.912)">
        <path id="Path_2004" data-name="Path 2004" d="M190.38,88.034h12.411v-1.74a.5.5,0,0,0-.5-.5H190.88a.5.5,0,0,0-.5.5Z" transform="translate(-190.38 -85.793)" fill="#c8c5c9" fill-rule="evenodd"/>
      </g>
      <g id="Group_589" data-name="Group 589" transform="translate(6.027 18.136)">
        <path id="Path_2005" data-name="Path 2005" d="M64.15,264.18h6.184v-.994H64.15a.335.335,0,0,0-.334.334v.992A.337.337,0,0,1,64.15,264.18Z" transform="translate(-63.816 -263.186)" fill="#72bffc" fill-rule="evenodd"/>
      </g>
      <g id="Group_590" data-name="Group 590" transform="translate(6.027 23.752)">
        <path id="Path_2006" data-name="Path 2006" d="M64.15,345.678h6.184v-1H64.15a.337.337,0,0,0-.334.336v.99A.336.336,0,0,1,64.15,345.678Z" transform="translate(-63.816 -344.682)" fill="#72bffc" fill-rule="evenodd"/>
      </g>
      <g id="Group_591" data-name="Group 591" transform="translate(6.027 29.37)">
        <path id="Path_2007" data-name="Path 2007" d="M64.15,427.2h6.184v-.994H64.15a.335.335,0,0,0-.334.334v.992A.336.336,0,0,1,64.15,427.2Z" transform="translate(-63.816 -426.207)" fill="#72bffc" fill-rule="evenodd"/>
      </g>
      <g id="Group_592" data-name="Group 592" transform="translate(15.872 11.102)">
        <path id="Path_2008" data-name="Path 2008" d="M206.878,162.3h3.09a.2.2,0,0,1,.2.2v-1.19a.2.2,0,0,0-.2-.2h-3.09a.2.2,0,0,0-.2.2v1.19A.2.2,0,0,1,206.878,162.3Z" transform="translate(-206.679 -161.11)" fill="#72bffc" fill-rule="evenodd"/>
      </g>
      <g id="Group_593" data-name="Group 593" transform="translate(22.548 11.102)">
        <path id="Path_2009" data-name="Path 2009" d="M303.764,162.3h3.09a.2.2,0,0,1,.2.2v-1.19a.2.2,0,0,0-.2-.2h-3.09a.2.2,0,0,0-.2.2v1.19A.2.2,0,0,1,303.764,162.3Z" transform="translate(-303.565 -161.11)" fill="#72bffc" fill-rule="evenodd"/>
      </g>
      <g id="Group_594" data-name="Group 594" transform="translate(22.548 16.525)">
        <path id="Path_2010" data-name="Path 2010" d="M303.764,240.99h3.09a.2.2,0,0,1,.2.2V240a.2.2,0,0,0-.2-.2h-3.09a.2.2,0,0,0-.2.2v1.188A.2.2,0,0,1,303.764,240.99Z" transform="translate(-303.565 -239.8)" fill="#72bffc" fill-rule="evenodd"/>
      </g>
      <g id="Group_595" data-name="Group 595" transform="translate(15.872 16.525)">
        <path id="Path_2011" data-name="Path 2011" d="M206.878,240.99h3.09a.2.2,0,0,1,.2.2V240a.2.2,0,0,0-.2-.2h-3.09a.2.2,0,0,0-.2.2v1.188A.2.2,0,0,1,206.878,240.99Z" transform="translate(-206.679 -239.8)" fill="#72bffc" fill-rule="evenodd"/>
      </g>
      <g id="Group_596" data-name="Group 596" transform="translate(15.872 21.949)">
        <path id="Path_2012" data-name="Path 2012" d="M206.878,319.707h3.09a.2.2,0,0,1,.2.2v-1.19a.2.2,0,0,0-.2-.2h-3.09a.2.2,0,0,0-.2.2v1.19A.2.2,0,0,1,206.878,319.707Z" transform="translate(-206.679 -318.519)" fill="#72bffc" fill-rule="evenodd"/>
      </g>
      <g id="Group_597" data-name="Group 597" transform="translate(22.548 21.949)">
        <path id="Path_2013" data-name="Path 2013" d="M303.764,319.707h3.09a.2.2,0,0,1,.2.2v-1.19a.2.2,0,0,0-.2-.2h-3.09a.2.2,0,0,0-.2.2v1.19A.2.2,0,0,1,303.764,319.707Z" transform="translate(-303.565 -318.519)" fill="#72bffc" fill-rule="evenodd"/>
      </g>
      <g id="Group_598" data-name="Group 598" transform="translate(29.363 14.544)">
        <path id="Path_2014" data-name="Path 2014" d="M402.463,212.024h3.522a.335.335,0,0,1,.336.334v-.967a.336.336,0,0,0-.336-.336h-3.522Z" transform="translate(-402.463 -211.055)" fill="#72bffc" fill-rule="evenodd"/>
      </g>
      <g id="Group_599" data-name="Group 599" transform="translate(29.363 20.162)">
        <path id="Path_2015" data-name="Path 2015" d="M402.463,293.548h3.522a.335.335,0,0,1,.336.334v-.967a.336.336,0,0,0-.336-.334h-3.522Z" transform="translate(-402.463 -292.581)" fill="#72bffc" fill-rule="evenodd"/>
      </g>
      <g id="Group_600" data-name="Group 600" transform="translate(29.363 25.778)">
        <path id="Path_2016" data-name="Path 2016" d="M402.463,375.045h3.522a.336.336,0,0,1,.336.336v-.969a.336.336,0,0,0-.336-.334h-3.522Z" transform="translate(-402.463 -374.078)" fill="#72bffc" fill-rule="evenodd"/>
      </g>
      <g id="Group_601" data-name="Group 601" transform="translate(24.779 5.912)">
        <path id="Path_2017" data-name="Path 2017" d="M336.437,88.034h1.879v-1.74a.5.5,0,0,0-.5-.5h-1.881a.5.5,0,0,1,.5.5Z" transform="translate(-335.935 -85.793)" fill="#b6b1b7" fill-rule="evenodd"/>
      </g>
      <g id="Group_602" data-name="Group 602" transform="translate(10.617 11.846)">
        <path id="Path_2018" data-name="Path 2018" d="M130.428,178.2h1.928v-6.29l-1.928.879Z" transform="translate(-130.428 -171.91)" fill="#b6b1b7" fill-rule="evenodd"/>
      </g>
      <g id="Group_603" data-name="Group 603" transform="translate(10.617 19.13)">
        <path id="Path_2019" data-name="Path 2019" d="M130.428,277.614h1.928v1.61h-1.928Z" transform="translate(-130.428 -277.614)" fill="#72bffc" fill-rule="evenodd"/>
      </g>
      <g id="Group_604" data-name="Group 604" transform="translate(10.617 24.748)">
        <path id="Path_2020" data-name="Path 2020" d="M130.428,360.748h1.928v-1.61h-1.928Z" transform="translate(-130.428 -359.138)" fill="#72bffc" fill-rule="evenodd"/>
      </g>
      <g id="Group_605" data-name="Group 605" transform="translate(10.617 26.358)">
        <path id="Path_2021" data-name="Path 2021" d="M130.428,385.509h1.928V382.5h-1.928Z" transform="translate(-130.428 -382.497)" fill="#b6b1b7" fill-rule="evenodd"/>
      </g>
      <g id="Group_606" data-name="Group 606" transform="translate(10.617 30.364)">
        <path id="Path_2022" data-name="Path 2022" d="M130.428,442.245h1.928v-1.61h-1.928Z" transform="translate(-130.428 -440.635)" fill="#72bffc" fill-rule="evenodd"/>
      </g>
      <g id="Group_607" data-name="Group 607" transform="translate(10.617 20.74)">
        <path id="Path_2023" data-name="Path 2023" d="M130.428,300.972h1.928v3.012h-1.928Z" transform="translate(-130.428 -300.972)" fill="#b6b1b7" fill-rule="evenodd"/>
      </g>
      <g id="Group_608" data-name="Group 608" transform="translate(1.75)">
        <path id="Path_2024" data-name="Path 2024" d="M35.887,10.583H29.88V8.891a1.257,1.257,0,0,0-1.255-1.255h-.948V6.412A1.018,1.018,0,0,0,26.66,5.4h-.548V.517a.517.517,0,0,0-1.034,0V5.4H23.9V2.437a.517.517,0,1,0-1.034,0V5.4H15.249a1.018,1.018,0,0,0-1.017,1.017V7.634h-.948a1.257,1.257,0,0,0-1.255,1.255v2.623L8.264,13.23a.517.517,0,1,0,.429.94l3.336-1.52v4.969H6.361a.852.852,0,0,0-.851.851v1.936a.852.852,0,0,0,.851.851h5.667v1.978H6.361a.853.853,0,0,0-.851.853v1.934a.853.853,0,0,0,.851.853h5.667v1.978H6.361a.852.852,0,0,0-.851.851V31.64a.852.852,0,0,0,.851.851h5.667v1.758H2.784V17.1c0-.2.183-.322.733-.574l2.994-1.365a.517.517,0,0,0-.429-.941L3.1,15.58l-.016.007c-.564.258-1.337.611-1.337,1.514V34.443a.839.839,0,0,0,.837.839h33.3a.906.906,0,0,0,.9-.906V11.487a.9.9,0,0,0-.9-.9ZM29.88,15.061H32.7v1.572H29.88Zm0,5.618H32.7v1.57H29.88Zm0,5.616H32.7v1.57H29.88ZM6.544,20.223v-1.57h5.485v1.57Zm0,5.618V24.269h5.485v1.572Zm0,5.616v-1.57h5.485v1.57ZM13.062,8.891a.225.225,0,0,1,.222-.222l6.577-.01a.517.517,0,0,0,0-1.034h0l-4.594.007v-1.2H26.643V7.636H22.255a.517.517,0,0,0,0,1.034h6.37a.225.225,0,0,1,.222.222V34.248H24.8V29.094h1.089a.517.517,0,1,0,0-1.034h-9.86a.517.517,0,0,0,0,1.034h1.089v5.155H13.062V8.891Zm5.084,20.2h2.291v5.155H18.146Zm3.325,5.155V29.094h2.291v5.155Zm14.286,0H29.88V28.9h3a.853.853,0,0,0,.853-.851V26.112a.853.853,0,0,0-.853-.851h-3V23.283h3a.853.853,0,0,0,.853-.851V20.5a.853.853,0,0,0-.853-.851h-3V17.667h3a.854.854,0,0,0,.853-.853V14.88a.854.854,0,0,0-.853-.853h-3v-2.41h5.877Z" transform="translate(-1.75)"/>
        <path id="Path_2025" data-name="Path 2025" d="M199.894,157.4h3.09a.717.717,0,0,0,.716-.716v-2.354a.717.717,0,0,0-.716-.716h-3.09a.717.717,0,0,0-.716.716v2.354A.717.717,0,0,0,199.894,157.4Zm.318-2.752h2.455v1.719h-2.455Z" transform="translate(-185.573 -143.024)"/>
        <path id="Path_2026" data-name="Path 2026" d="M296.78,157.4h3.09a.717.717,0,0,0,.716-.716v-2.354a.717.717,0,0,0-.716-.716h-3.09a.717.717,0,0,0-.716.716v2.354A.717.717,0,0,0,296.78,157.4Zm.318-2.752h2.455v1.719H297.1Z" transform="translate(-275.783 -143.024)"/>
        <path id="Path_2027" data-name="Path 2027" d="M199.894,236.086h3.09a.717.717,0,0,0,.716-.716v-2.352a.718.718,0,0,0-.716-.718h-3.09a.718.718,0,0,0-.716.718v2.352A.717.717,0,0,0,199.894,236.086Zm.318-2.752h2.455v1.719h-2.455Z" transform="translate(-185.573 -216.292)"/>
        <path id="Path_2028" data-name="Path 2028" d="M296.78,236.086h3.09a.717.717,0,0,0,.716-.716v-2.352a.718.718,0,0,0-.716-.718h-3.09a.718.718,0,0,0-.716.718v2.352A.717.717,0,0,0,296.78,236.086Zm.318-2.752h2.455v1.719H297.1Z" transform="translate(-275.783 -216.292)"/>
        <path id="Path_2029" data-name="Path 2029" d="M199.894,314.8h3.09a.717.717,0,0,0,.716-.716v-2.354a.717.717,0,0,0-.716-.716h-3.09a.717.717,0,0,0-.716.716v2.354A.717.717,0,0,0,199.894,314.8Zm.318-2.752h2.455v1.719h-2.455Z" transform="translate(-185.573 -289.586)"/>
        <path id="Path_2030" data-name="Path 2030" d="M296.78,314.8h3.09a.717.717,0,0,0,.716-.716v-2.354a.717.717,0,0,0-.716-.716h-3.09a.717.717,0,0,0-.716.716v2.354A.717.717,0,0,0,296.78,314.8Zm.318-2.752h2.455v1.719H297.1Z" transform="translate(-275.783 -289.586)"/>
      </g>
    </g>
    <g id="Group_611" data-name="Group 611" transform="translate(28.856 -92.172)">
      <path id="Path_2031" data-name="Path 2031" d="M114.046,231.39l-3.68,3.592a1.835,1.835,0,0,1-3.122-1.262v-1.1H92.777a1.929,1.929,0,0,1-1.929-1.929V226.82a1.929,1.929,0,0,1,1.929-1.929h14.466v-.132a1.835,1.835,0,0,1,3.122-1.262l3.68,3.592A2.99,2.99,0,0,1,114.046,231.39Z" transform="translate(-85.53 -7.82)" fill="#befa91"/>
      <g id="Group_609" data-name="Group 609" transform="translate(5.342 215.151)">
        <path id="Path_2032" data-name="Path 2032" d="M114.425,231.4l-3.68,3.592a1.835,1.835,0,0,1-3.122-1.262v-1.1H105.78a5.093,5.093,0,0,0,.637-2.339,2.763,2.763,0,0,0-1.476-2.075c-1.963-1.093-5.2-.433-7.8-.252-1.747.122-3.318.275-5.039-.7a3.742,3.742,0,0,1-.854-.743,1.92,1.92,0,0,1,1.9-1.618h14.476v-.132a1.835,1.835,0,0,1,3.122-1.262l3.68,3.592A2.99,2.99,0,0,1,114.425,231.4Z" transform="translate(-91.251 -222.981)" fill="#d0ffad"/>
      </g>
      <g id="Group_610" data-name="Group 610" transform="translate(6.461 221.386)">
        <path id="Path_2033" data-name="Path 2033" d="M110.889,329.851a.681.681,0,0,0-.452.763c.107.355.546.468.914.514a14.459,14.459,0,0,0,2.674.118c.3-.018.646-.083.776-.352a.5.5,0,0,0-.088-.536.652.652,0,0,0-.518-.2,2.925,2.925,0,0,0-.709.219,1.616,1.616,0,0,1-1.4-.221c-.139-.1-.235-.275-.39-.346a1.213,1.213,0,0,0-.811.045Z" transform="translate(-110.416 -329.754)" fill="#fff"/>
      </g>
      <path id="Path_2034" data-name="Path 2034" d="M86.424,217.561l12.563-.008v1.455a.482.482,0,1,0,.964,0v-2.069a1.352,1.352,0,0,1,2.3-.917l3.681,3.592a2.506,2.506,0,0,1,0,3.611l-3.681,3.592a1.352,1.352,0,0,1-2.3-.917v-1.1a.482.482,0,0,0-.482-.482h-16.4a.482.482,0,1,0,0,.964H98.986v.623a2.316,2.316,0,0,0,3.941,1.607l3.681-3.592a3.47,3.47,0,0,0,0-4.991l-3.681-3.592a2.323,2.323,0,0,0-3.914,1.257l-12.564.008A7.334,7.334,0,0,0,86.424,217.561Z" transform="translate(-77.755)"/>
      <path id="Path_2035" data-name="Path 2035" d="M2.425,330.319H.5a.482.482,0,1,0,0,.964H2.425a.482.482,0,1,0,0-.964Z" transform="translate(0 -108.9)"/>
      <path id="Path_2036" data-name="Path 2036" d="M83.073,247.742a.482.482,0,0,0,0,.964H94.56v-.964Z" transform="translate(-77.755 -31.145)"/>
    </g>
  </g>
</svg>
