<svg xmlns="http://www.w3.org/2000/svg" width="65.578" height="69.709" viewBox="0 0 65.578 69.709">
  <g id="inmunodeficiencia" transform="translate(-0.051)">
    <path id="Path_1648" data-name="Path 1648" d="M340.78,370.1v1.46a1.532,1.532,0,0,0,.95,1.417l.157.065a1.536,1.536,0,0,0,.582.115h5.943a.753.753,0,0,0,.372-1.408l-2.9-1.648,1.417-15.55h-7.063Zm0,0" transform="translate(-291.699 -304.018)" fill="#f9cfcf"/>
    <path id="Path_1649" data-name="Path 1649" d="M278.162,354.551H271.1l1.417,15.55-2.9,1.648a.753.753,0,0,0,.371,1.408h5.9a1.728,1.728,0,0,0,1.728-1.728V370.1Zm0,0" transform="translate(-230.815 -304.018)" fill="#f9cfcf"/>
    <path id="Path_1650" data-name="Path 1650" d="M290.593,130.1h-1.885v-2.153a6.339,6.339,0,0,1-6.278,0V130.1h-1.884a3.37,3.37,0,0,0-3.37,3.37v18.707h16.786V133.469a3.37,3.37,0,0,0-3.369-3.371Zm0,0" transform="translate(-237.628 -109.71)" fill="#f9cfcf"/>
    <path id="Path_1651" data-name="Path 1651" d="M394.473,161.539l4.183,21.379a1.14,1.14,0,0,0,.187.438l1.466,2.081a.57.57,0,0,1,.1.328v3.188a.855.855,0,0,1-.754.85l-2.405.286a1.712,1.712,0,0,1-1.42-.5l-.9-.916a.853.853,0,0,1-.241-.7l.474-3.958a1.14,1.14,0,0,0-.02-.384l-.591-2.651Zm0,0" transform="translate(-338.207 -138.516)" fill="#f9cfcf"/>
    <path id="Path_1652" data-name="Path 1652" d="M242,161.539l-4.184,21.379a1.132,1.132,0,0,1-.187.438l-1.466,2.081a.57.57,0,0,0-.1.328v3.188a.856.856,0,0,0,.754.85l2.406.286a1.71,1.71,0,0,0,1.419-.5l.808-.818a1.138,1.138,0,0,0,.321-.937l-.458-3.821a1.139,1.139,0,0,1,.019-.384l.591-2.651Zm0,0" transform="translate(-202.374 -138.516)" fill="#f9cfcf"/>
    <path id="Path_1653" data-name="Path 1653" d="M394.473,161.539l4.183,21.379a1.14,1.14,0,0,0,.187.438l1.466,2.081a.57.57,0,0,1,.1.328v3.188a.855.855,0,0,1-.754.85l-2.405.286a1.712,1.712,0,0,1-1.42-.5l-.9-.916a.853.853,0,0,1-.241-.7l.474-3.958a1.14,1.14,0,0,0-.02-.384l-.591-2.651Zm0,0" transform="translate(-338.207 -138.516)" fill="#f9cfcf"/>
    <path id="Path_1654" data-name="Path 1654" d="M242,161.539l-4.184,21.379a1.132,1.132,0,0,1-.187.438l-1.466,2.081a.57.57,0,0,0-.1.328v3.188a.856.856,0,0,0,.754.85l2.406.286a1.71,1.71,0,0,0,1.419-.5l.808-.818a1.138,1.138,0,0,0,.321-.937l-.458-3.821a1.139,1.139,0,0,1,.019-.384l.591-2.651Zm0,0" transform="translate(-202.374 -138.516)" fill="#f9cfcf"/>
    <path id="Path_1655" data-name="Path 1655" d="M257.783,158.431a2.262,2.262,0,0,1-1.617-.679l-.9-.916a1.419,1.419,0,0,1-.4-1.171l.474-3.958a.553.553,0,0,0-.009-.192l-.591-2.651a.6.6,0,0,1-.014-.122l-.011-2.577H239.072l-.011,2.577a.6.6,0,0,1-.014.122l-.591,2.651a.57.57,0,0,0-.009.192l.458,3.821a1.7,1.7,0,0,1-.481,1.405l-.808.818a2.268,2.268,0,0,1-1.892.663l-2.405-.286a1.427,1.427,0,0,1-1.257-1.416v-3.188a1.136,1.136,0,0,1,.208-.657l1.466-2.081a.567.567,0,0,0,.093-.218l4.164-21.278c.005-.025.011-.056.018-.089,0-.011,0-.021.007-.031a3.963,3.963,0,0,1,3.843-3.078h1.314V124.51a.57.57,0,0,1,.853-.495,5.769,5.769,0,0,0,5.712,0,.57.57,0,0,1,.853.495v1.583h1.314a3.953,3.953,0,0,1,3.818,2.964.551.551,0,0,1,.043.133l4.184,21.379a.571.571,0,0,0,.094.219l1.466,2.081h0a1.133,1.133,0,0,1,.208.657v3.188a1.426,1.426,0,0,1-1.257,1.415l-2.406.286a2.269,2.269,0,0,1-.274.017Zm-1.922-9.755.578,2.591a1.725,1.725,0,0,1,.029.576l-.474,3.958a.282.282,0,0,0,.08.234l.9.916a1.129,1.129,0,0,0,.946.331l2.406-.286a.285.285,0,0,0,.251-.283v-3.188l.466-.328-.466.328-1.466-2.081a1.711,1.711,0,0,1-.28-.657l-4.152-21.216a.513.513,0,0,1-.031-.1,2.808,2.808,0,0,0-2.743-2.236h-1.885a.57.57,0,0,1-.57-.57v-1.246a7,7,0,0,1-5.137,0v1.246a.57.57,0,0,1-.57.57h-1.884a2.814,2.814,0,0,0-2.732,2.194c0,.008,0,.016-.006.023l-.009.052-4.166,21.285a1.7,1.7,0,0,1-.281.658l-1.466,2.081v3.188a.285.285,0,0,0,.251.283l2.405.286a1.127,1.127,0,0,0,.946-.331l.808-.818a.568.568,0,0,0,.16-.468l-.458-3.821a1.7,1.7,0,0,1,.029-.576l.577-2.591.013-3.083a.57.57,0,0,1,.57-.568h16.773a.571.571,0,0,1,.57.568Zm0,0" transform="translate(-198.943 -106.275)"/>
    <path id="Path_1656" data-name="Path 1656" d="M292.433,30.673l-.04,0v-.6a6.338,6.338,0,0,0-12.676,0v.6l-.04,0a1.934,1.934,0,1,0,0,3.867c.07,0,.139,0,.208-.011a6.337,6.337,0,0,0,12.341,0,1.972,1.972,0,0,0,.208.011,1.934,1.934,0,0,0,0-3.867Zm0,0" transform="translate(-238.113 -20.355)" fill="#f9cfcf"/>
    <path id="Path_1657" data-name="Path 1657" d="M282.628,36.562a6.874,6.874,0,0,1-6.608-4.892,2.5,2.5,0,0,1-.3-4.941v-.084a6.908,6.908,0,1,1,13.816,0v.084a2.5,2.5,0,0,1-.3,4.941,6.873,6.873,0,0,1-6.607,4.892Zm-6.17-6.033a.57.57,0,0,1,.555.44,5.767,5.767,0,0,0,11.231,0,.574.574,0,0,1,.615-.438,1.3,1.3,0,0,0,.148.009,1.364,1.364,0,0,0,.01-2.727l-.05,0a.57.57,0,0,1-.57-.57v-.6a5.768,5.768,0,0,0-11.536,0v.6a.57.57,0,0,1-.582.57l-.045,0a1.364,1.364,0,0,0,.017,2.727,1.3,1.3,0,0,0,.148-.009l.061,0Zm0,0" transform="translate(-234.686 -16.925)"/>
    <path id="Path_1658" data-name="Path 1658" d="M379.984,61.285a6.331,6.331,0,0,1,.078.987v.6l.041,0a1.919,1.919,0,0,1,1.021.294V61.285Zm0,0" transform="translate(-325.783 -52.55)"/>
    <path id="Path_1659" data-name="Path 1659" d="M284.152,61.285v1.877a1.916,1.916,0,0,1,1.021-.294l.04,0v-.6a6.331,6.331,0,0,1,.078-.987Zm0,0" transform="translate(-243.609 -52.55)"/>
    <path id="Path_1660" data-name="Path 1660" d="M325.793,95.561a.428.428,0,0,1-.428-.428c0-.281-.473-.6-1.107-.6s-1.107.315-1.107.6a.428.428,0,0,1-.855,0c0-.813.862-1.45,1.962-1.45s1.962.637,1.962,1.45A.428.428,0,0,1,325.793,95.561Zm0,0" transform="translate(-276.318 -80.331)"/>
    <path id="Path_1661" data-name="Path 1661" d="M304.31,75.6a.428.428,0,0,1-.188-.812l1.138-.557-1.3-.662a.428.428,0,0,1,.389-.762l2.062,1.051a.428.428,0,0,1-.006.765l-1.906.934a.421.421,0,0,1-.188.043Zm0,0" transform="translate(-260.394 -62.392)"/>
    <path id="Path_1662" data-name="Path 1662" d="M350.264,75.6a.426.426,0,0,1-.188-.043l-1.907-.934a.427.427,0,0,1-.006-.765l2.062-1.051a.428.428,0,1,1,.389.762l-1.3.662,1.138.557a.428.428,0,0,1-.189.812Zm0,0" transform="translate(-298.297 -62.392)"/>
    <path id="Path_1663" data-name="Path 1663" d="M351.7,12.165h3.348a.448.448,0,0,0,.448-.449V9.155A5.156,5.156,0,0,0,350.337,4h-.16a1.345,1.345,0,0,0-1.345,1.345V9.3a2.865,2.865,0,0,0,2.864,2.865Zm0,0" transform="translate(-299.071 -3.43)" fill="#4671c6"/>
    <path id="Path_1664" data-name="Path 1664" d="M282.849,12.168h-5.833a.45.45,0,0,1-.45-.45V9.6a5.6,5.6,0,0,1,5.6-5.6h3.373a1.343,1.343,0,0,1,1.343,1.343V8.138a4.03,4.03,0,0,1-4.03,4.03Zm0,0" transform="translate(-237.105 -3.433)" fill="#4671c6"/>
    <path id="Path_1665" data-name="Path 1665" d="M351.614,9.3h-3.347a3.438,3.438,0,0,1-3.435-3.435V1.915A1.917,1.917,0,0,1,346.747,0h.16a5.732,5.732,0,0,1,5.726,5.726v2.56A1.02,1.02,0,0,1,351.614,9.3Zm-4.867-8.163a.775.775,0,0,0-.774.774V5.87a2.3,2.3,0,0,0,2.294,2.294h3.226V5.726a4.591,4.591,0,0,0-4.586-4.585Zm0,0" transform="translate(-295.641)"/>
    <path id="Path_1666" data-name="Path 1666" d="M279.42,9.3h-5.834a1.021,1.021,0,0,1-1.02-1.02V6.167A6.174,6.174,0,0,1,278.733,0h3.373a1.915,1.915,0,0,1,1.913,1.914V4.705a4.6,4.6,0,0,1-4.6,4.6Zm-5.713-1.14h5.713a3.463,3.463,0,0,0,3.459-3.459V1.914a.774.774,0,0,0-.773-.773h-3.373a5.032,5.032,0,0,0-5.027,5.027Zm0,0" transform="translate(-233.675 0)"/>
    <path id="Path_1667" data-name="Path 1667" d="M277.176,275.887h16.786v2H277.176Zm0,0" transform="translate(-237.628 -236.566)" fill="#e0ebfc"/>
    <path id="Path_1668" data-name="Path 1668" d="M277.176,289.949v8.922a.285.285,0,0,0,.285.285h7.514a.286.286,0,0,0,.285-.267l.31-5.1.31,5.1a.284.284,0,0,0,.285.267h7.513a.285.285,0,0,0,.285-.285v-8.922Zm0,0" transform="translate(-237.628 -248.624)" fill="#a4c9ff"/>
    <path id="Path_1669" data-name="Path 1669" d="M391.11,174.977a.57.57,0,0,1-.57-.568l-.068-16.3a.57.57,0,0,1,.567-.572h0a.57.57,0,0,1,.57.567l.068,16.3a.57.57,0,0,1-.567.573Zm0,0" transform="translate(-334.776 -135.086)"/>
    <path id="Path_1670" data-name="Path 1670" d="M273.836,177.074a.57.57,0,0,1-.57-.57V160.555a.57.57,0,1,1,1.14,0V176.5A.57.57,0,0,1,273.836,177.074Zm0,0" transform="translate(-234.275 -137.183)"/>
    <path id="Path_1671" data-name="Path 1671" d="M290.246,284.239h-7.513a.855.855,0,0,0-1.189,0h-7.514a.856.856,0,0,1-.855-.855V272.457a.571.571,0,0,1,.57-.57h16.786a.571.571,0,0,1,.57.57v10.927a.857.857,0,0,1-.856.855ZM283,283.1h6.96V273.027H274.316V283.1h6.96l.294-4.833a.57.57,0,0,1,1.138,0Zm0,0" transform="translate(-234.197 -233.136)"/>
    <path id="Path_1672" data-name="Path 1672" d="M344.979,370.3h-5.943a2.1,2.1,0,0,1-.8-.158l-.157-.065a2.1,2.1,0,0,1-1.3-1.944v-1.45l-.546-15.54a.57.57,0,0,1,.57-.59h7.063a.57.57,0,0,1,.568.621l-1.383,15.185,2.583,1.466a1.324,1.324,0,0,1-.654,2.475Zm-7.587-18.607.525,14.96c0,.006,0,.013,0,.019v1.46a.958.958,0,0,0,.6.89l.158.065a.956.956,0,0,0,.365.072h5.943a.183.183,0,0,0,.183-.183.185.185,0,0,0-.092-.16l-2.9-1.648a.571.571,0,0,1-.287-.548l1.361-14.928Zm0,0" transform="translate(-288.266 -300.589)"/>
    <path id="Path_1673" data-name="Path 1673" d="M272.458,370.3h-5.9a1.323,1.323,0,0,1-.654-2.474l2.584-1.467L267.1,351.173a.571.571,0,0,1,.568-.622h7.063a.572.572,0,0,1,.57.59l-.546,15.55V368a2.3,2.3,0,0,1-2.3,2.3Zm-4.166-18.607,1.36,14.928a.57.57,0,0,1-.286.547l-2.9,1.648a.184.184,0,0,0,.091.343h5.9a1.139,1.139,0,0,0,.439-.087,1.154,1.154,0,0,0,.719-1.071v-1.329l.525-14.98Zm0,0" transform="translate(-227.384 -300.589)"/>
    <path id="Path_1674" data-name="Path 1674" d="M368.437,281.592a7.038,7.038,0,1,1,7.038-7.038A7.046,7.046,0,0,1,368.437,281.592Zm0-12.936a5.9,5.9,0,1,0,5.9,5.9A5.9,5.9,0,0,0,368.437,268.656Zm0,0" transform="translate(-309.846 -229.388)" fill="#f9a7a7"/>
    <path id="Path_1675" data-name="Path 1675" d="M389.016,298.751a3.618,3.618,0,1,1,3.618-3.618A3.622,3.622,0,0,1,389.016,298.751Zm0-6.1a2.478,2.478,0,1,0,2.478,2.478A2.48,2.48,0,0,0,389.016,292.656Zm0,0" transform="translate(-330.425 -249.967)" fill="#f9a7a7"/>
    <path id="Path_1676" data-name="Path 1676" d="M258.219,360.67a7.038,7.038,0,1,1,7.038-7.038A7.046,7.046,0,0,1,258.219,360.67Zm0-12.936a5.9,5.9,0,1,0,5.9,5.9A5.9,5.9,0,0,0,258.219,347.734Zm0,0" transform="translate(-215.337 -297.195)" fill="#f9a7a7"/>
    <path id="Path_1677" data-name="Path 1677" d="M278.8,377.829a3.618,3.618,0,1,1,3.618-3.618A3.622,3.622,0,0,1,278.8,377.829Zm0-6.1a2.478,2.478,0,1,0,2.477,2.478A2.48,2.48,0,0,0,278.8,371.734Zm0,0" transform="translate(-235.916 -317.774)" fill="#f9a7a7"/>
    <path id="Path_1678" data-name="Path 1678" d="M329.851,139.225a7.038,7.038,0,1,1,7.038-7.038A7.047,7.047,0,0,1,329.851,139.225Zm0-12.937a5.9,5.9,0,1,0,5.9,5.9A5.905,5.905,0,0,0,329.851,126.288Zm0,0" transform="translate(-276.76 -107.312)" fill="#f9a7a7"/>
    <path id="Path_1679" data-name="Path 1679" d="M350.43,156.384a3.618,3.618,0,1,1,3.618-3.618A3.622,3.622,0,0,1,350.43,156.384Zm0-6.1a2.477,2.477,0,1,0,2.478,2.478A2.481,2.481,0,0,0,350.43,150.288Zm0,0" transform="translate(-297.339 -127.891)" fill="#f9a7a7"/>
    <path id="Path_1680" data-name="Path 1680" d="M9.188,35.355H27.922l10.215,3.913a.642.642,0,0,0,.829-.829L34.857,27.714V9.687a5.133,5.133,0,0,0-5.133-5.133H9.189A5.133,5.133,0,0,0,4.055,9.687V30.222a5.133,5.133,0,0,0,5.133,5.133Zm0,0" transform="translate(-3.434 -3.905)" fill="#a4c9ff"/>
    <path id="Path_1681" data-name="Path 1681" d="M34.939,36.451a1.241,1.241,0,0,1-.439-.082L24.383,32.493H5.755a5.71,5.71,0,0,1-5.7-5.7V6.255a5.711,5.711,0,0,1,5.7-5.7H26.29a5.71,5.71,0,0,1,5.7,5.7V24.176L36.064,34.8a1.214,1.214,0,0,1-1.126,1.647ZM5.755,1.692A4.569,4.569,0,0,0,1.191,6.255V26.789a4.569,4.569,0,0,0,4.564,4.564H24.488a.564.564,0,0,1,.2.038L34.907,35.3A.072.072,0,0,0,35,35.212L30.89,24.486a.57.57,0,0,1-.038-.2V6.255A4.569,4.569,0,0,0,26.29,1.692Zm0,0" transform="translate(0 -0.473)"/>
    <path id="Path_1682" data-name="Path 1682" d="M26.306,48.618a1.98,1.98,0,0,1-1.978-1.978v-21.1a1.98,1.98,0,0,1,1.978-1.978H47.4a1.98,1.98,0,0,1,1.978,1.978v21.1A1.98,1.98,0,0,1,47.4,48.618Zm0,0" transform="translate(-20.817 -20.205)" fill="#e0ebfc"/>
    <path id="Path_1683" data-name="Path 1683" d="M176.856,102.762a1.578,1.578,0,1,1-1.578-1.578A1.578,1.578,0,0,1,176.856,102.762Zm0,0" transform="translate(-148.899 -86.763)" fill="#6bdddd"/>
    <path id="Path_1684" data-name="Path 1684" d="M31.751,102.762a1.578,1.578,0,1,1-1.578-1.578A1.578,1.578,0,0,1,31.751,102.762Zm0,0" transform="translate(-24.475 -86.763)" fill="#6bdddd"/>
    <path id="Path_1685" data-name="Path 1685" d="M104.367,30.145a1.578,1.578,0,1,1-1.578-1.578A1.578,1.578,0,0,1,104.367,30.145Zm0,0" transform="translate(-86.742 -24.495)" fill="#6bdddd"/>
    <path id="Path_1686" data-name="Path 1686" d="M104.367,175.375a1.578,1.578,0,1,1-1.578-1.578A1.578,1.578,0,0,1,104.367,175.375Zm0,0" transform="translate(-86.742 -149.026)" fill="#6bdddd"/>
    <path id="Path_1687" data-name="Path 1687" d="M75.2,67.777a7.393,7.393,0,1,1-7.393-7.394A7.393,7.393,0,0,1,75.2,67.777Zm0,0" transform="translate(-51.76 -51.777)" fill="#ffea92"/>
    <path id="Path_1688" data-name="Path 1688" d="M83.008,77.142A5.836,5.836,0,1,1,77.172,71.3,5.836,5.836,0,0,1,83.008,77.142Zm0,0" transform="translate(-61.125 -61.142)" fill="#a4c9ff"/>
    <path id="Path_1689" data-name="Path 1689" d="M53.02,51.414a1.578,1.578,0,1,1-1.578-1.578A1.578,1.578,0,0,1,53.02,51.414Zm0,0" transform="translate(-42.713 -42.733)" fill="#6bdddd"/>
    <path id="Path_1690" data-name="Path 1690" d="M155.715,154.106a1.578,1.578,0,1,1-1.578-1.578A1.578,1.578,0,0,1,155.715,154.106Zm0,0" transform="translate(-130.771 -130.789)" fill="#6bdddd"/>
    <path id="Path_1691" data-name="Path 1691" d="M155.715,51.414a1.578,1.578,0,1,1-1.578-1.578A1.578,1.578,0,0,1,155.715,51.414Zm0,0" transform="translate(-130.771 -42.733)" fill="#6bdddd"/>
    <path id="Path_1692" data-name="Path 1692" d="M53.02,154.106a1.578,1.578,0,1,1-1.578-1.578A1.578,1.578,0,0,1,53.02,154.106Zm0,0" transform="translate(-42.713 -130.789)" fill="#6bdddd"/>
    <g id="Group_470" data-name="Group 470" transform="translate(7.148 7.1)">
      <path id="Path_1693" data-name="Path 1693" d="M51.378,107.883H49.844a1.564,1.564,0,0,1,.024,1.184h1.506c-.014-.185-.023-.372-.023-.561,0-.21.011-.417.028-.623Zm0,0" transform="translate(-49.844 -99.606)" fill="#a4c9ff"/>
      <path id="Path_1694" data-name="Path 1694" d="M108.537,49.941a1.57,1.57,0,0,1-.623-.129v1.534c.205-.017.413-.028.623-.028.189,0,.375.009.561.023V49.836A1.568,1.568,0,0,1,108.537,49.941Zm0,0" transform="translate(-99.637 -49.812)" fill="#a4c9ff"/>
      <path id="Path_1695" data-name="Path 1695" d="M108.537,165.339a1.568,1.568,0,0,1,.561.1v-1.506c-.185.014-.372.023-.561.023-.21,0-.418-.011-.623-.028v1.534a1.572,1.572,0,0,1,.623-.129Zm0,0" transform="translate(-99.637 -147.669)" fill="#a4c9ff"/>
      <path id="Path_1696" data-name="Path 1696" d="M65.9,65.438a1.565,1.565,0,0,1-.853.82l1.085,1.085a7.427,7.427,0,0,1,.834-.84Zm0,0" transform="translate(-62.877 -63.211)" fill="#a4c9ff"/>
      <path id="Path_1697" data-name="Path 1697" d="M147.169,147.423a1.56,1.56,0,0,1,.47-.323l-1.065-1.065a7.427,7.427,0,0,1-.84.834l1.085,1.085A1.578,1.578,0,0,1,147.169,147.423Zm0,0" transform="translate(-132.068 -132.321)" fill="#a4c9ff"/>
      <path id="Path_1698" data-name="Path 1698" d="M147.454,65.911a1.586,1.586,0,0,1-.323-.47l-1.064,1.064a7.421,7.421,0,0,1,.833.84l1.085-1.085A1.584,1.584,0,0,1,147.454,65.911Zm0,0" transform="translate(-132.352 -63.214)" fill="#a4c9ff"/>
      <path id="Path_1699" data-name="Path 1699" d="M65.936,147.423a1.568,1.568,0,0,1,.35.531l1.085-1.085a7.473,7.473,0,0,1-.84-.834L65.465,147.1A1.563,1.563,0,0,1,65.936,147.423Zm0,0" transform="translate(-63.238 -132.321)" fill="#a4c9ff"/>
      <path id="Path_1700" data-name="Path 1700" d="M163.984,109.288h1.534a1.57,1.57,0,0,1-.024-1.183h-1.506c.014.185.023.371.023.561,0,.21-.011.417-.028.622Zm0,0" transform="translate(-147.716 -99.797)" fill="#a4c9ff"/>
    </g>
    <path id="Path_1701" data-name="Path 1701" d="M100.017,89.6H97.65A1.052,1.052,0,0,1,96.6,88.552v-6.62a1.052,1.052,0,0,1,1.052-1.052h2.367a1.052,1.052,0,0,1,1.052,1.052v6.62A1.052,1.052,0,0,1,100.017,89.6Zm0,0" transform="translate(-82.786 -69.352)" fill="#4671c6"/>
    <path id="Path_1702" data-name="Path 1702" d="M102.028,91.794a.376.376,0,0,1-.376-.376,1.857,1.857,0,0,1,.317-1.07,1.221,1.221,0,0,0,0-1.367,1.966,1.966,0,0,1,0-2.14,1.116,1.116,0,0,0,.209-.683.376.376,0,1,1,.752,0,1.853,1.853,0,0,1-.317,1.07,1.22,1.22,0,0,0,0,1.367,1.967,1.967,0,0,1,0,2.141,1.118,1.118,0,0,0-.209.684.376.376,0,0,1-.376.375Zm0,0" transform="translate(-87.121 -73.555)" fill="#e0ebfc"/>
    <path id="Path_1703" data-name="Path 1703" d="M113.9,101.024a.376.376,0,0,1-.376-.376,1.856,1.856,0,0,1,.317-1.071,1.22,1.22,0,0,0,0-1.367,1.966,1.966,0,0,1,0-2.14,1.121,1.121,0,0,0,.209-.684.376.376,0,0,1,.752,0,1.855,1.855,0,0,1-.317,1.07,1.218,1.218,0,0,0,0,1.367,1.968,1.968,0,0,1,0,2.141,1.117,1.117,0,0,0-.21.683.376.376,0,0,1-.375.376Zm0,0" transform="translate(-97.296 -81.47)" fill="#e0ebfc"/>
    <path id="Path_1704" data-name="Path 1704" d="M249.2,229.342a7.038,7.038,0,1,1,7.038-7.039A7.047,7.047,0,0,1,249.2,229.342Zm0-12.937a5.9,5.9,0,1,0,5.9,5.9A5.9,5.9,0,0,0,249.2,216.405Zm0,0" transform="translate(-207.606 -184.585)" fill="#f9a7a7"/>
    <path id="Path_1705" data-name="Path 1705" d="M269.782,246.5a3.618,3.618,0,1,1,3.618-3.618A3.622,3.622,0,0,1,269.782,246.5Zm0-6.1a2.478,2.478,0,1,0,2.477,2.478,2.48,2.48,0,0,0-2.477-2.478Zm0,0" transform="translate(-228.185 -205.164)" fill="#f9a7a7"/>
  </g>
</svg>
