<svg xmlns="http://www.w3.org/2000/svg" width="108.537" height="144.942" viewBox="0 0 108.537 144.942">
  <g id="inmunosupresion" transform="translate(-64.299)">
    <g id="Group_458" data-name="Group 458" transform="translate(78.083 8.728)">
      <path id="Path_1565" data-name="Path 1565" d="M147.375,355.4v4.327a1.42,1.42,0,0,0,1.415,1.415H160.6a1.42,1.42,0,0,0,1.415-1.415V355.4Z" transform="translate(-137.642 -263.52)" fill="#48c1e1"/>
      <path id="Path_1566" data-name="Path 1566" d="M123.443,42.338V38.852a1.42,1.42,0,0,1,1.415-1.415h10.377a1.42,1.42,0,0,1,1.415,1.415v3.486a1.391,1.391,0,0,1-.066.4H147.1V39.185a8.377,8.377,0,0,0-8.353-8.353h-17.4a8.378,8.378,0,0,0-8.353,8.353v3.556h10.517A1.392,1.392,0,0,1,123.443,42.338Z" transform="translate(-112.992 -30.832)" fill="#48c1e1"/>
    </g>
    <path id="Path_1567" data-name="Path 1567" d="M128.142,30.832h-6.8a8.378,8.378,0,0,0-8.353,8.353v3.556h6.8V39.185A8.378,8.378,0,0,1,128.142,30.832Z" transform="translate(-34.909 -22.104)" opacity="0.1"/>
    <path id="Path_1568" data-name="Path 1568" d="M127.8,72.9H73.235A1.44,1.44,0,0,0,71.8,74.336v63.9a4.5,4.5,0,0,0,.937,2.524l9.483,11.025a3.57,3.57,0,0,0,2.372,1.088h31.851a3.571,3.571,0,0,0,2.372-1.088l9.483-11.025a4.5,4.5,0,0,0,.936-2.524v-63.9A1.441,1.441,0,0,0,127.8,72.9Z" transform="translate(-5.377 -52.263)" fill="#a2dff9"/>
    <g id="Group_459" data-name="Group 459" transform="translate(66.422 20.637)" opacity="0.1">
      <path id="Path_1569" data-name="Path 1569" d="M76.968,89.128a.852.852,0,0,1,.849-.849h2.815V74.336A1.44,1.44,0,0,1,82.068,72.9H73.235A1.44,1.44,0,0,0,71.8,74.336V98.314h5.169Z" transform="translate(-71.799 -72.9)"/>
      <path id="Path_1570" data-name="Path 1570" d="M91.051,292.469l-3.509-4.08H86.376a2.111,2.111,0,0,1-1.4-.644l-7.451-8.663a2.665,2.665,0,0,1-.554-1.493v-8.454H71.8v9.784a4.5,4.5,0,0,0,.937,2.524l9.483,11.025a3.57,3.57,0,0,0,2.372,1.088h8.833A3.571,3.571,0,0,1,91.051,292.469Z" transform="translate(-71.799 -213.584)"/>
    </g>
    <g id="Group_460" data-name="Group 460" transform="translate(71.591 36.016)">
      <path id="Path_1571" data-name="Path 1571" d="M90.057,269.136v8.454a2.665,2.665,0,0,0,.554,1.493l7.451,8.663a2.111,2.111,0,0,0,1.4.644h28.28a2.111,2.111,0,0,0,1.4-.644l7.451-8.663a2.665,2.665,0,0,0,.554-1.493v-8.454Z" transform="translate(-90.057 -228.963)" fill="#ffb98a"/>
      <path id="Path_1572" data-name="Path 1572" d="M137.153,137.26v-9.185a.852.852,0,0,0-.849-.849h-45.4a.852.852,0,0,0-.849.849v9.185Z" transform="translate(-90.057 -127.226)" fill="#ffb98a"/>
    </g>
    <rect id="Rectangle_165" data-name="Rectangle 165" width="57.433" height="30.138" transform="translate(66.422 46.05)" fill="#48c1e1"/>
    <rect id="Rectangle_166" data-name="Rectangle 166" width="27.066" height="30.138" transform="translate(96.789 46.05)" fill="#fcdb67"/>
    <path id="Path_1573" data-name="Path 1573" d="M100.412,202.688a.807.807,0,0,1-.806-.805v-4.928H94.674a.807.807,0,0,1-.806-.806v-4.17a.806.806,0,0,1,.806-.806h4.931v-4.928a.806.806,0,0,1,.806-.806h4.173a.807.807,0,0,1,.806.806v4.928h4.931a.807.807,0,0,1,.806.806v4.17a.807.807,0,0,1-.806.806h-4.931v4.928a.807.807,0,0,1-.806.805Z" transform="translate(-21.198 -132.944)" fill="#fff"/>
    <rect id="Rectangle_167" data-name="Rectangle 167" width="5.743" height="12.347" transform="translate(92.269 113.244)" fill="#a2dff9"/>
    <rect id="Rectangle_168" data-name="Rectangle 168" width="5.743" height="6.03" transform="translate(92.269 125.593)" fill="#fcdb67"/>
    <g id="Group_461" data-name="Group 461" transform="translate(151.368 2.123)">
      <rect id="Rectangle_169" data-name="Rectangle 169" width="10.337" height="18.514" transform="translate(0.001)" fill="#9ea7af"/>
      <path id="Path_1574" data-name="Path 1574" d="M371.865,129.7V234.366A1.44,1.44,0,0,0,373.3,235.8h7.466a1.44,1.44,0,0,0,1.435-1.436V129.7Z" transform="translate(-371.865 -95.106)" fill="#9ea7af"/>
    </g>
    <path id="Path_1575" data-name="Path 1575" d="M379.121,87.564a1.42,1.42,0,0,1-1.415,1.415H366.18a1.42,1.42,0,0,1-1.415-1.415V74.315A1.42,1.42,0,0,1,366.18,72.9h11.525a1.42,1.42,0,0,1,1.415,1.415Z" transform="translate(-215.407 -52.263)" fill="#48c1e1"/>
    <g id="Group_462" data-name="Group 462" transform="translate(149.358 20.637)" opacity="0.1">
      <path id="Path_1576" data-name="Path 1576" d="M370.575,87.564V74.315A1.42,1.42,0,0,1,371.99,72.9h-5.81a1.42,1.42,0,0,0-1.415,1.415V87.564a1.42,1.42,0,0,0,1.415,1.415h5.81A1.42,1.42,0,0,1,370.575,87.564Z" transform="translate(-364.765 -72.9)"/>
    </g>
    <path id="Path_1577" data-name="Path 1577" d="M89.3,193.7h2.808v2.8a2.932,2.932,0,0,0,2.929,2.929h4.173a2.932,2.932,0,0,0,2.929-2.929v-2.8h2.808a2.932,2.932,0,0,0,2.929-2.929V186.6a2.932,2.932,0,0,0-2.929-2.929h-2.808v-2.8a2.932,2.932,0,0,0-2.929-2.929H95.036a2.932,2.932,0,0,0-2.929,2.929v2.8H89.3a2.932,2.932,0,0,0-2.929,2.929v4.17A2.932,2.932,0,0,0,89.3,193.7Zm1.317-5.782H94.23a2.123,2.123,0,0,0,2.123-2.123v-3.61h1.539v3.61a2.123,2.123,0,0,0,2.123,2.123h3.614v1.535h-3.614a2.123,2.123,0,0,0-2.123,2.123v3.61H96.353v-3.61a2.123,2.123,0,0,0-2.123-2.123H90.615Z" transform="translate(-15.822 -127.567)"/>
    <path id="Path_1578" data-name="Path 1578" d="M198.033,191.028h13.243a2.123,2.123,0,0,0,0-4.246H198.033a2.123,2.123,0,0,0,0,4.246Z" transform="translate(-94.353 -133.906)"/>
    <path id="Path_1579" data-name="Path 1579" d="M198.033,212.651h13.243a2.123,2.123,0,0,0,0-4.246H198.033a2.123,2.123,0,0,0,0,4.246Z" transform="translate(-94.353 -149.408)"/>
    <path id="Path_1580" data-name="Path 1580" d="M198.033,234.272H204.2a2.123,2.123,0,0,0,0-4.246h-6.168a2.123,2.123,0,1,0,0,4.246Z" transform="translate(-94.353 -164.908)"/>
    <path id="Path_1581" data-name="Path 1581" d="M170.713,0H81.168a2.123,2.123,0,1,0,0,4.246H93.016V6.605H86.437A10.488,10.488,0,0,0,75.96,17.081v1.433h-8.1A3.563,3.563,0,0,0,64.3,22.073v63.9a6.631,6.631,0,0,0,1.45,3.909l9.483,11.024a5.625,5.625,0,0,0,3.982,1.827h6.48v2.2a3.542,3.542,0,0,0,3.539,3.539h3.609v2.645H88.248a2.123,2.123,0,1,0,0,4.246h1.9v16.253a2.123,2.123,0,0,0,2.123,2.123h.822v7.927a2.123,2.123,0,0,0,4.246,0v-7.927h.675a2.123,2.123,0,0,0,2.123-2.123V115.368h1.9a2.123,2.123,0,0,0,0-4.246H97.088v-2.645h3.957a3.542,3.542,0,0,0,3.539-3.539v-2.2h6.481a5.627,5.627,0,0,0,3.981-1.827l9.483-11.025a6.634,6.634,0,0,0,1.449-3.908v-63.9a3.563,3.563,0,0,0-3.559-3.559h-8.1V17.081A10.488,10.488,0,0,0,103.842,6.605h-6.58V4.246h51.983v14.62a3.54,3.54,0,0,0-2.01,3.186V35.3a3.54,3.54,0,0,0,2.01,3.186v102.9a3.563,3.563,0,0,0,3.558,3.559h7.466a3.563,3.563,0,0,0,3.558-3.559V55.2a2.123,2.123,0,1,0-4.246,0V140.7h-6.09V38.84h6.09v5.322a2.123,2.123,0,1,0,4.246,0V38.488a3.54,3.54,0,0,0,2.01-3.186V22.053a3.54,3.54,0,0,0-2.01-3.186V4.246h6.885a2.123,2.123,0,0,0,0-4.246ZM95.887,129.5h-1.5v-1.783h1.5Zm0-6.03h-1.5v-8.1h1.5ZM80.207,17.081a6.237,6.237,0,0,1,6.23-6.23h6.578v2.358H89.95a3.542,3.542,0,0,0-3.539,3.539v1.766h-6.2S80.207,17.081,80.207,17.081ZM99.62,18.514H90.658V17.456H99.62v1.058Zm-4.954,29.66V74.066H68.545V48.174Zm5.672,56.057H89.94v-1.5h10.4ZM121.31,87.113l-9.479,11.02a1.654,1.654,0,0,1-.769.354H79.219a1.654,1.654,0,0,1-.767-.35L68.968,87.113a2.569,2.569,0,0,1-.423-1.139V78.313h.922v6.33a4.741,4.741,0,0,0,1.068,2.878l7.451,8.662A4.2,4.2,0,0,0,81,97.565H93.656a2.123,2.123,0,1,0,0-4.246H81.125l-7.339-8.531a.918.918,0,0,1-.071-.192V78.313h42.85V84.6a.919.919,0,0,1-.071.192l-7.339,8.531h-2.76a2.123,2.123,0,0,0,0,4.246h2.884a4.194,4.194,0,0,0,3.013-1.383l7.451-8.663a4.74,4.74,0,0,0,1.067-2.877v-6.33h.922v7.661A2.582,2.582,0,0,1,121.31,87.113Zm.422-38.94V74.066H98.912V48.174Zm0-4.246h-.922V36.866a2.976,2.976,0,0,0-2.972-2.972H91.957a2.123,2.123,0,0,0,0,4.246h24.607v5.788H73.714V38.14H80.35a2.123,2.123,0,1,0,0-4.246H72.44a2.976,2.976,0,0,0-2.972,2.972v7.062h-.922V22.76h53.187ZM103.841,10.851a6.237,6.237,0,0,1,6.23,6.23v1.433h-6.2V16.748a3.542,3.542,0,0,0-3.539-3.539H97.262V10.851Zm57.75,11.909V34.594h-10.11V22.76Zm-2.01-4.246h-6.09V4.246h6.09Z"/>
  </g>
</svg>
