<svg xmlns="http://www.w3.org/2000/svg" xmlns:xlink="http://www.w3.org/1999/xlink" width="122.18" height="125.562" viewBox="0 0 122.18 125.562">
  <defs>
    <clipPath id="clip-path">
      <path id="Path_2379" data-name="Path 2379" d="M305.438,336.934a56.086,56.086,0,0,0-45.088,89.448l-6.442,24.042,26.638-7.137a56.09,56.09,0,1,0,24.892-106.353Z" transform="translate(-249.348 -336.934)" fill="none"/>
    </clipPath>
  </defs>
  <g id="jota__white" transform="translate(-244.348 -331.934)">
    <g id="Group_715" data-name="Group 715" transform="translate(249.348 336.934)">
      <g id="Group_714" data-name="Group 714" transform="translate(0)" clip-path="url(#clip-path)">
        <g id="Group_713" data-name="Group 713" transform="translate(19.89 4.931)">
          <path id="Path_2338" data-name="Path 2338" d="M415.739,449.524l-.063,6.48-1.258,2.265s2.453,3.46,4.026,4.529a4.623,4.623,0,0,0,3.712.315s1.007-1.51.944-2.013a26.692,26.692,0,0,0-1.321-3.46,18.88,18.88,0,0,1-1.132-3.838c0-.755.5-4.4.5-4.4a7.28,7.28,0,0,0,3.712-3.334,10.232,10.232,0,0,0,1.737-4.584l.968-1.015a.5.5,0,0,0,.5-.252c.189-.315.315-1.447.818-1.95s1.132-1.636.944-1.761-.377-2.139-1.384-2.139a2.575,2.575,0,0,0-1.761,1.007l-.126-3.271-1.258-2.768-14.91-.378s-3.523,3.586-3.523,5.1a3.25,3.25,0,0,1-.378,1.95s-.944-1.51-1.384-1.51-1.447.566-1.51,1.069-.126,2.013.189,2.139.629,1.51.692,1.824.692.692.692.692l1.069-.629.944,2.2s3.271,6.731,4.907,7.423a25.76,25.76,0,0,0,3.46,1.132Z" transform="translate(-384.633 -410.727)" fill="#fff"/>
          <path id="Path_2339" data-name="Path 2339" d="M569.75,579.175s4.655.44,5.725-.126,4.215-4.026,5.851-7.235,3.586-8.367,3.586-8.367,5.6-6.606,6.165-8.052,1.069-5.033,0-5.222-5.222,2.454-5.222,4.781-.944,2.957-.944,2.957l-.629-1.573s-.881-1.321-1.069-1.006a2.745,2.745,0,0,0-.44,2.831c.692,1.321.944,1.887.944,1.887l-2.076,2.957Z" transform="translate(-509.014 -501.437)" fill="#fff"/>
          <path id="Path_2340" data-name="Path 2340" d="M497.444,546.454a19.776,19.776,0,0,1,5.914,4.215c3.083,3.083,8.115,13.274,8.87,14.658a14.9,14.9,0,0,1,1.132,2.705l-2.579,3.208-2.705-2.328-1.258-1.321L496.5,546.2Z" transform="translate(-454.196 -498.472)" fill="#fff"/>
          <path id="Path_2341" data-name="Path 2341" d="M362.834,548.2s-10.883,2.768-14.6,6.92-7.8,9.248-8.682,11.89-1.258,8.619-1.258,8.619a3.061,3.061,0,0,0-.126,2.705c.692,1.258,11.638-4.844,11.638-4.844l-.063-2.705,3.083-4.97,3.271-5.725,1.636,2.013s1.258,5.033,5.662,6.354a34.4,34.4,0,0,0,10,1.007l2.957-5.6,1.573-5.914-.944-9.122-4.089,4.655-2.033-.109Z" transform="translate(-335.503 -499.969)" fill="#fff"/>
          <path id="Path_2342" data-name="Path 2342" d="M437.264,573.152c-.086.192.028.357.083.523.578,1.739,1.171,3.472,1.745,5.211.495,1.5.819,3.047,1.172,4.585.462,2.016.845,4.048,1.18,6.089.035.214.045.433.067.649a4.2,4.2,0,0,1-1.283-.492,1.959,1.959,0,0,1-.387-.947c-1.119-5.248-2.606-10.4-4.229-15.506q-.941-2.962-1.972-5.892c-.1-.286-.123-.706-.6-.616-.322.061-.374.38-.184.928,2.1,6.025,4.055,12.093,5.556,18.3.205.848.392,1.7.572,2.553.138.651.053.775-.582.909-3.362.71-6.754,1.231-10.169,1.609-1.443.16-2.892.254-4.336.405a2.98,2.98,0,0,1-2.066-.474,15.911,15.911,0,0,0-3.432-1.77.917.917,0,0,1-.507-.3c.042-.214.22-.232.378-.231.51,0,1.014-.123,1.517-.114,1.854.033,3.7-.1,5.555-.15,1.576-.042,3.159-.008,4.733-.175.424-.045.586-.209.554-.612-.1-1.287-.125-2.576-.116-3.865a.963.963,0,0,0-.254-.644c-.824-.969-1.743-1.852-2.582-2.807a1.044,1.044,0,0,0-1.08-.35,4.811,4.811,0,0,1-.923.064c-.436.01-.809-.044-.842-.6-.012-.2-.164-.267-.347-.271-.236-.005-.473.009-.709,0-.3-.012-.485.075-.5.417-.018.412-.3.549-.668.56q-.654.019-1.309,0a.986.986,0,0,0-.844.406c-.745.917-1.483,1.84-2.254,2.734a1.487,1.487,0,0,0-.357,1.109.592.592,0,0,1-.524.7,10.339,10.339,0,0,0-2.709.788,2.442,2.442,0,0,0-1.323,1.053c-.725.1-1.46.266-2.071-.335a2.212,2.212,0,0,0-1-1.353c-2.2-1.7-4.362-3.445-6.571-5.13a1.179,1.179,0,0,1-.5-1.024c.011-1.035.018-2.071,0-3.106-.045-2.578-.273-5.142-.571-7.7-.032-.271-.135-.528-.176-.8-.261-3.376-.531-6.75-.911-10.114a.82.82,0,0,0-.042-.158,5.849,5.849,0,0,1-.127-2.1c-.048-.888-.212-1.761-.336-2.639-.228-1.613-.492-3.221-.741-4.831a.436.436,0,0,0-.105-.3,1.575,1.575,0,0,1-.175-1.237c0-.6-.276-1.159-.281-1.765,0-.505.1-.743.483-.85a.774.774,0,0,1,.913.5,8.686,8.686,0,0,0,.446,1.108,1.2,1.2,0,0,1,.357.966.6.6,0,0,0,.042.372c.905,2.741,1.714,5.516,2.844,8.178.284.668.6,1.324.9,1.983a20.922,20.922,0,0,0,2.736,4.561,9.456,9.456,0,0,0,4.263,3.184,7.07,7.07,0,0,0,5.01-.108,6.207,6.207,0,0,0,3.2-3.2,14.958,14.958,0,0,0,1.3-4.308,43.129,43.129,0,0,0,.43-7.764c0-.126.007-.253.011-.38.169-.02.217.116.264.226a53.8,53.8,0,0,1,2.663,6.024,7.776,7.776,0,0,1,.384,3.433,3.624,3.624,0,0,1-2.077,2.931,3.483,3.483,0,0,0-.339.175c-.2.122-.462.233-.327.534a.491.491,0,0,0,.693.24,4.032,4.032,0,0,0,1.629-1.061,5.348,5.348,0,0,0,1.305-3.116,9.742,9.742,0,0,0-.921-4.924c-.535-1.176-1.174-2.3-1.746-3.451a21.549,21.549,0,0,1-1.884-5.784c-.03-.167-.177-.381.068-.526.049-.156.1-.312.148-.467a.931.931,0,0,1,.839-.673.922.922,0,0,1,.986.533c.164.323.293.664.443.995,1.441,3.174,3.037,6.275,4.522,9.428,1.57,3.333,3.117,6.678,4.481,10.1.06.151.137.3.206.443a3.522,3.522,0,0,1,.593,1.248c.166.453.373.886.559,1.33.457,1.322.748,2.7,1.244,4.006.262.825.542,1.645.823,2.464C437.229,572.839,437.34,572.978,437.264,573.152Z" transform="translate(-381.74 -495.427)" fill="#0057a0"/>
          <path id="Path_2343" data-name="Path 2343" d="M359.814,799.028c1.611-2.093,3.322-4.11,4.8-6.306a.9.9,0,0,1,.112-.115c.2.265.01.486-.093.7-.438.918-.915,1.817-1.4,2.712-.333.615-.335.972-.026,1.05.528.134.614-.369.78-.669a74.84,74.84,0,0,0,4.288-9.355c.34-.889.411-.947,1.316-.738a76.391,76.391,0,0,0,17.72,1.953,77.958,77.958,0,0,0,18.182-2.183c.777-.186,1.55-.393,2.336-.537a1.687,1.687,0,0,0,.432-.07,1.17,1.17,0,0,1,.172-.039c.649-.112,1.28-.309,1.927-.428.219-.04.448-.163.666.014a2.223,2.223,0,0,1,.183,1.009,31.155,31.155,0,0,1-.022,4.083c-.084.958-.063,1.92-.146,2.881a53.83,53.83,0,0,1-1.744,9.86,1.1,1.1,0,0,1-.694.771,51.035,51.035,0,0,1-13.478,3.662c-1.817.233-3.646.334-5.482.4-1.474.052-2.941,0-4.4-.063a44.471,44.471,0,0,1-5.948-.688,51.938,51.938,0,0,1-15.559-5.335c-1.186-.634-2.344-1.318-3.464-2.064C360.078,799.406,359.845,799.3,359.814,799.028Z" transform="translate(-351.906 -677.124)" fill="#0057a0"/>
          <path id="Path_2344" data-name="Path 2344" d="M384.362,642.562c-3.029.727-6.06,1.438-9.15,1.877q-2.936.418-5.89.655a79.167,79.167,0,0,1-9.093.152c-1.975-.067-3.944-.245-5.909-.479q-3.97-.472-7.872-1.326c-.248-.054-.494-.112-.741-.17-.489-.115-.491-.116-.665.346q-.729,1.936-1.551,3.835c-.9,2.064-1.893,4.082-2.963,6.063-.069.128-.14.255-.216.378-.2.326-.4.413-.665.3a.635.635,0,0,1-.357-.812,3.463,3.463,0,0,1,.2-.387c.518-1,1.039-2,1.552-3,.08-.156.212-.3.166-.5a21.8,21.8,0,0,0,1.442-3.023c.585-1.342,1.128-2.7,1.6-4.088a.975.975,0,0,1,.1-.684,76.575,76.575,0,0,0,3.051-11.451,1.3,1.3,0,0,1,.237-.657c.282-1.352.427-2.724.633-4.088.04-.265-.133-.3-.3-.365-.934-.345-1.881-.657-2.8-1.031a55.174,55.174,0,0,1-7.676-3.57c-.187-.112-.373-.224-.558-.34-.461-.29-.459-.288-.9.068-.312.25-.617.51-.946.734a1.364,1.364,0,0,1-1.844-.061,13.2,13.2,0,0,1-1.552-1.528,27.79,27.79,0,0,1-2.6-3.495,4.258,4.258,0,0,1-.679-1.591,1.5,1.5,0,0,1,.457-1.436,8.388,8.388,0,0,1,.809-.644,79.047,79.047,0,0,1,10.777-6.539,1.448,1.448,0,0,0,.6-.451,79.952,79.952,0,0,0,5.838-9.436c.269-.534.515-1.08.78-1.617a1.417,1.417,0,0,1,.292-.512,18.737,18.737,0,0,1,.234,2.058,10.349,10.349,0,0,1-1.273,2.7c-1.2,2.03-2.348,4.1-3.739,6.013-.267.367-.222.564.094.9a17.038,17.038,0,0,1,2.348,3.064c.221.377.469.735.709,1.1a3.6,3.6,0,0,1,.469.859,1.358,1.358,0,0,1-.469,1.733c-.685.476-1.346.99-1.994,1.518-.256.209-.317.356.026.553,1.309.752,2.516,1.659,3.749,2.526.115.081.236.238.375.18.184-.076.1-.286.107-.439a60.656,60.656,0,0,0-.511-9.122,2.2,2.2,0,0,1,.006-.813.623.623,0,0,1,1.092-.326,5.13,5.13,0,0,1,.3,1.758,72.153,72.153,0,0,1,.452,9.9.692.692,0,0,0,.3.637c2.413,1.867,4.811,3.753,7.223,5.622a1.019,1.019,0,0,1,.444.982c-.288.437-.589.488-1.083.146-.673-.466-1.306-.985-1.948-1.492-2.681-2.117-5.318-4.289-8.14-6.227-1.138-.782-2.292-1.539-3.44-2.3a.664.664,0,0,0-.923.026c-1.406,1.179-2.844,2.32-4.251,3.5-.435.364-.426.384.048.677a36.415,36.415,0,0,0,4.884,2.411c4.28,1.832,8.689,3.323,13.056,4.928a2.2,2.2,0,0,1,.817.521,45.16,45.16,0,0,0,10.7,7.822,10.734,10.734,0,0,0,3.957,1.485c.09.009.18.029.271.029,1.235,0,1.631-.644,1.035-1.711a7.159,7.159,0,0,0-1.37-1.686,19.732,19.732,0,0,0-8-4.717c-.139-.042-.278-.088-.413-.139-.7-.262-.776-.587-.481-1.252a1.682,1.682,0,0,1,1.318-1,19.567,19.567,0,0,0,2.078-.445c.208-.071.548-.063.524-.368-.021-.267-.336-.306-.56-.352a6.629,6.629,0,0,0-4.149.495c-.348.156-.672.367-1.033.491-.454.157-.728-.023-.835-.516a.661.661,0,0,1,.477-.7,10.281,10.281,0,0,1,2.6-.989,3.132,3.132,0,0,1,.849-.131c.457-.059.87-.356,1.356-.253a4.245,4.245,0,0,1,1.827.61,1.439,1.439,0,0,1,.312,2.436,3.052,3.052,0,0,1-2.275.919c-.363.01-.363.019-.53.21a11.373,11.373,0,0,1,2.484,1.077,18.582,18.582,0,0,1,1.971,1.157,1.009,1.009,0,0,0,.659.188c1.269-.066,2.533-.18,3.8-.3,1.084-.1,2.165-.226,3.245-.361,1.8-.225,3.591-.494,5.374-.823,1.015-.187,2.027-.4,3.04-.6.445-.088.45-.091.352-.558-.689-3.25-1.541-6.458-2.476-9.645-1.124-3.832-2.388-7.619-3.706-11.387-.036-.1-.081-.2-.108-.308a.625.625,0,0,1,.421-.818c.326-.1.523.025.672.445q1.114,3.129,2.117,6.3c1.325,4.168,2.553,8.365,3.566,12.622.21.882.406,1.768.6,2.655a4.538,4.538,0,0,0,.347,1.084c.451,1.721.707,3.479.986,5.231.365,2.291.577,4.6.779,6.91a8.809,8.809,0,0,1,.007.978,42.128,42.128,0,0,1,.094,5.985,53.192,53.192,0,0,1-2.267,13.93c-.259.837-.513.968-1.306.663a.863.863,0,0,0-.68.059,51.278,51.278,0,0,1-10.186,2.937,50.714,50.714,0,0,1-6.1.729c-1.216.067-2.43.1-3.645.075a1.377,1.377,0,0,0-1.4.6c-.975,2.554-1.931,5.116-3.025,7.623-.711,1.63-1.463,3.239-2.277,4.82a.546.546,0,0,1-.623.353c-.907-.061-.89.019-.454-.811a93.168,93.168,0,0,0,4.665-10.774,9.051,9.051,0,0,0,.447-1.28c-.012-.637-.012-.621-.647-.643a43.123,43.123,0,0,1-5.886-.7,51.126,51.126,0,0,1-12.9-4.042c-.524-.245-.713.084-.992.343-.74,1.332-1.365,2.721-2.013,4.1-1.753,3.726-3.382,7.508-4.954,11.314-.223.54-.222.542-.826.5a1.252,1.252,0,0,1-.6-.134c.609-1.449,1.208-2.888,1.817-4.322q2.562-6.038,5.466-11.92c.286-.7-.119-.98-.687-1.26a39.869,39.869,0,0,1-3.549-2.07c-.226-.142-.485-.251-.6-.526a2.455,2.455,0,0,1-.254-.2.531.531,0,0,1-.065-.652.547.547,0,0,1,.636-.3,2.46,2.46,0,0,1,.4.168,20.045,20.045,0,0,0,2.283,1.469,50.789,50.789,0,0,0,14.649,5.777,49.67,49.67,0,0,0,5.948.985,55.357,55.357,0,0,0,7.12.27,51.092,51.092,0,0,0,18.9-4.112.658.658,0,0,0,.41-.506,54.053,54.053,0,0,0,1.229-5.573,59.1,59.1,0,0,0,.723-10.416c-.008-.635-.057-1.27-.086-1.9-.462-.2-.855.119-1.277.192-.471.081-.932.24-1.4.362l.011,0C384.665,642.528,384.5,642.489,384.362,642.562Z" transform="translate(-328.388 -534.01)" fill="#121311"/>
          <path id="Path_2345" data-name="Path 2345" d="M516.1,576.969a1.879,1.879,0,0,1-.25-.477q-.383-1.213-.773-2.424c.364-.112.473.193.619.4a12.535,12.535,0,0,0,2.415,2.645c.759.605,1.111.6,1.71-.145,1.48-1.84,2.918-3.712,4.4-5.549.464-.575.471-.686.012-1.277a6.188,6.188,0,0,0-1.425-1.487.8.8,0,0,0-1.052.006,43.874,43.874,0,0,0-4.641,3.949c-.3.339-.594.686-.869,1.047-.208.273-.46.432-.8.231a.7.7,0,0,1-.345-.838,2.4,2.4,0,0,1,.437-.749c.362-.5.364-.519-.154-.888a11.338,11.338,0,0,1-1.405-1.117c-.075-.074-.176-.137-.153-.269a2.509,2.509,0,0,1-.391-.814c-.219-.584-.431-1.17-.646-1.756a9.453,9.453,0,0,1,.928.914,17.771,17.771,0,0,0,2.829,2.3c.387.252.383.244.715-.051.462-.41.926-.818,1.4-1.211s.5-.4.29-1.021a50.223,50.223,0,0,0-4-8.985,40.366,40.366,0,0,0-5.255-7.471,19.282,19.282,0,0,0-4.266-3.533c-.173-.1-.356-.191-.4-.416a.639.639,0,0,1,.21-.641.531.531,0,0,1,.656.015,16.393,16.393,0,0,1,2.978,2.186,29.92,29.92,0,0,1,4.582,5.384,52.246,52.246,0,0,1,6.452,12.915c.05.148.046.331.219.447.4-.268.81-.53,1.206-.814a1.488,1.488,0,0,1,1.867.009,11.578,11.578,0,0,1,2.442,2.26,1.715,1.715,0,0,0,.4-.561,52.232,52.232,0,0,1,7.182-9.362c.356-.381.579-.428.885-.213a.534.534,0,0,1,.126.843c-.2.238-.419.454-.628.681a51.115,51.115,0,0,0-6.176,8.016c-.6.994-1.153,2.017-1.66,3.063-.078.16-.159.318-.249.5a1.512,1.512,0,0,1-.2-.14c-.16-.161-.3-.17-.45.019q-1.132,1.432-2.273,2.857c-.111.14-.071.339-.213.473-.245.232-.355.6-.715.717a.157.157,0,0,0-.089.18c.018.088.106.086.175.1a.784.784,0,0,0,.163.008c1.142-.07,2.29.043,3.428-.115.445-.062.878-.186,1.333-.216a1.181,1.181,0,0,0,.675-.431,29.414,29.414,0,0,0,4.78-5.984,43.441,43.441,0,0,0,3.839-8.635,1.72,1.72,0,0,1,.414-.69,33.3,33.3,0,0,0,4.953-6.945,12.118,12.118,0,0,0,1.474-4.074,1.892,1.892,0,0,0-.031-.81.722.722,0,0,0-1.162-.495,6.681,6.681,0,0,0-1.311,1.06A12.2,12.2,0,0,0,537,555.723c-.029.124-.051.249-.083.372-.09.349-.254.517-.521.546s-.455-.106-.6-.456c-.125-.3-.226-.613-.325-.924-.115-.363-.215-.731-.325-1.1a1.094,1.094,0,0,0-.28-.558c-.307.166-.34.475-.377.767a4.138,4.138,0,0,0,.29,1.975,8.1,8.1,0,0,0,.787,1.55c.245.384.223.62-.045.806a.568.568,0,0,1-.849-.195,7.1,7.1,0,0,1-1.38-4.169,2.3,2.3,0,0,1,.361-1.184,1.248,1.248,0,0,1,2.137-.124,8.7,8.7,0,0,1,.508.873,13.953,13.953,0,0,1,1.825-3.553,10.572,10.572,0,0,1,2.175-2.278,4.092,4.092,0,0,1,1.336-.714,1.625,1.625,0,0,1,1.837.609,2.763,2.763,0,0,1,.458,2.381,14.443,14.443,0,0,1-1.2,3.436,28.414,28.414,0,0,1-5.3,7.675,1.849,1.849,0,0,0-.435.735,40.842,40.842,0,0,1-5.22,10.734,23.443,23.443,0,0,1-3.372,3.916c-.212.2-.468.35-.667.558-.166.174-.372.081-.553.152a9.581,9.581,0,0,1-3.1.467c-.363.016-.727.01-1.09,0a4.781,4.781,0,0,0-1.348.131.92.92,0,0,1-.912-.2c-.176.1-.251.269-.368.4a1.456,1.456,0,0,1-1.85.445,4.642,4.642,0,0,1-1.022-.617A11.464,11.464,0,0,1,516.1,576.969Z" transform="translate(-460.578 -499.245)" fill="#131311"/>
          <path id="Path_2346" data-name="Path 2346" d="M402.872,379.762c-.253-.806-.456-1.6-.75-2.353a8.522,8.522,0,0,1-.45-4.238,12.7,12.7,0,0,1,7.106-10.128,1.417,1.417,0,0,0,.648-.616q.966-1.83,1.975-3.638a4.273,4.273,0,0,1,6.414-1.342,3.355,3.355,0,0,1,1.16,1.543c.478,1.351,1.012,2.683,1.5,4.03a1.2,1.2,0,0,0,.576.671,12.345,12.345,0,0,1,6.133,9.063,10.664,10.664,0,0,1-.2,4.115,12.365,12.365,0,0,1-.749,2.205,1.759,1.759,0,0,0-.217.657c.053.082.126.068.2.067a1.893,1.893,0,0,1,1.917,1.3,4.033,4.033,0,0,1,.263,1.214,1.76,1.76,0,0,1-.512,1.438,1.949,1.949,0,0,0-.6,1.41,1.3,1.3,0,0,1-.71,1.146,1.17,1.17,0,0,1-1.668-.966c0-.144,0-.331.2-.311.184.018.448-.2.548.146.015.052.038.1.053.154a.362.362,0,0,0,.424.258.372.372,0,0,0,.372-.332,3.1,3.1,0,0,0,.064-.429,2.542,2.542,0,0,1,.662-1.513,1.749,1.749,0,0,0-.1-2.4.917.917,0,0,0-1.48.182,1.774,1.774,0,0,0-.222.612c-.047.285-.24.291-.446.253-.246-.045-.324-.209-.256-.445a2.019,2.019,0,0,1,.431-.981c.158-.152.128-.3.063-.49-.436-1.29-1.033-2.516-1.484-3.8a.411.411,0,0,0-.384-.3,17.087,17.087,0,0,0-2.011-.2c.166.263.415.339.6.482.39.295.5.607.294.92a.751.751,0,0,1-1.054.2c-.186-.112-.361-.244-.539-.369-.634-.446-.667-.677-.152-1.3-.627-.042-1.225-.08-1.823-.122-.489-.034-.978-.078-1.467-.106-.227-.013-.455-.083-.672.1-.122.1-.317.033-.48.032-2.252-.017-4.5-.028-6.755-.06a1.316,1.316,0,0,0-.935.334,11.588,11.588,0,0,0-1.4,1.372,5.56,5.56,0,0,0-1.317,3.279c-.012.181-.05.36-.065.541a.6.6,0,0,1-.35.566.422.422,0,0,0-.271.472c.011.193-.033.413-.309.429s-.336-.163-.382-.373c-.05-.23-.089-.465-.16-.689-.133-.415-.342-.767-.838-.816a1,1,0,0,0-1.082.66c-.333.859-.417,1.373.219,2.057a2.315,2.315,0,0,1,.634,1.468,3,3,0,0,0,.081.48.36.36,0,0,0,.4.289.35.35,0,0,0,.387-.306c.015-.089.038-.178.045-.268.015-.215.1-.334.34-.326a.371.371,0,0,1,.392.3,1.125,1.125,0,0,1-.451,1.2,1.088,1.088,0,0,1-1.315.042,1.279,1.279,0,0,1-.593-1.046,2,2,0,0,0-.624-1.457,1.725,1.725,0,0,1-.491-1.391,3.018,3.018,0,0,1,.746-1.987A2.893,2.893,0,0,1,402.872,379.762Z" transform="translate(-382.889 -356.528)" fill="#070607"/>
          <path id="Path_2347" data-name="Path 2347" d="M433.4,492.382a20.822,20.822,0,0,0,2.143,6.651c.626,1.208,1.293,2.4,1.809,3.659a9.028,9.028,0,0,1,.68,4.317,4.953,4.953,0,0,1-2.281,4.008,3.991,3.991,0,0,1-.883.417.6.6,0,0,1-.652-.149.5.5,0,0,1,.11-.854c.126-.071.264-.12.4-.18a3.537,3.537,0,0,0,2.142-2.933,8.179,8.179,0,0,0-.386-3.383,12.28,12.28,0,0,0-.715-1.882l-2.077-4.371a.45.45,0,0,0-.126-.294c-.024.009-.071.019-.07.028a8.072,8.072,0,0,1-.723,3.326,4.659,4.659,0,0,0-.425,1.111.351.351,0,0,1-.349.292.481.481,0,0,1-.474-.209.919.919,0,0,1-.123-.356,7.691,7.691,0,0,0-1.721-3.353c-.113-.149-.209-.155-.361-.056a1.21,1.21,0,0,0-.491.557,17.363,17.363,0,0,0-1.015,3.1.834.834,0,0,1-.141.4.611.611,0,0,1-1.017.051,21.094,21.094,0,0,1-2.159-2.306,65.741,65.741,0,0,1-3.973-5.789.852.852,0,0,1-.075-.145c-.1-.251-.13-.586-.313-.73-.145-.115-.475.022-.721.01a.647.647,0,0,1-.591-.608c-.035-.344.088-.52.458-.621a2.94,2.94,0,0,0,.984-.266c.249-.189.334-.584.513-.875a5.515,5.515,0,0,1,2.018-2.018.392.392,0,0,0,.221-.385,34.1,34.1,0,0,0,.019-3.432c-.009-.193.009-.36-.269-.448a10.7,10.7,0,0,1-5.591-4.389,19.349,19.349,0,0,1-2.7-5.946c.089-.165.24-.118.352-.146.645-.166.95,0,1.151.636a16.371,16.371,0,0,0,2.916,5.559,8.91,8.91,0,0,0,4.5,3.107,6.789,6.789,0,0,0,5.722-.917,12.5,12.5,0,0,0,4.358-5.124,11.823,11.823,0,0,0,.675-1.663.629.629,0,0,1,.632-.5c.519-.008.785.3.646.8a10.218,10.218,0,0,1-.566,1.472,15,15,0,0,1-3.273,4.714,9.89,9.89,0,0,1-4.537,2.573,8.211,8.211,0,0,1-2.321.193c-.35-.016-.362-.012-.354.342a47.223,47.223,0,0,1-.182,5.171,1.3,1.3,0,0,1-.6,1.138c-.382.232-.359.266-.123.627a6.444,6.444,0,0,0,.947,1.049,20.975,20.975,0,0,0,4.131,3.271c.454.262.447.256.817-.106a2.28,2.28,0,0,0,.66-2.037,8.81,8.81,0,0,0-.449-1.734,23.513,23.513,0,0,1-1.177-4.69,13.449,13.449,0,0,1-.041-2.449.7.7,0,0,1,.328-.595.685.685,0,0,1,.722-.069.616.616,0,0,1,.294.655,10.469,10.469,0,0,0,.055,2.555,17.184,17.184,0,0,0,.692,2.909.934.934,0,0,0,.184.328,18.828,18.828,0,0,1,1.7,2.331.134.134,0,0,0,.149.088c-.091-.546-.185-1.091-.269-1.637a2.962,2.962,0,0,1-.048-.6.589.589,0,0,1,.572-.548c.291-.019.473.134.542.483C433.321,491.806,433.355,492.095,433.4,492.382Z" transform="translate(-392.806 -444.529)" fill="#0e0e0d"/>
          <path id="Path_2348" data-name="Path 2348" d="M387.168,736.243a28.112,28.112,0,0,1-.554,2.986,76.27,76.27,0,0,1-2.7,9.508c-.036.1-.089.2-.133.3a3.6,3.6,0,0,1-2.429-4.485c.5-1.858,1.013-3.711,1.536-5.562a3.629,3.629,0,0,1,3.958-2.772C386.951,736.223,387.059,736.234,387.168,736.243Z" transform="translate(-367.915 -640.663)" fill="#d81e1f"/>
          <path id="Path_2349" data-name="Path 2349" d="M353.41,557.9a6.34,6.34,0,0,1,.175,1.238,36.158,36.158,0,0,0-9.759,8.516,25.525,25.525,0,0,0-4.646,10.339,26.038,26.038,0,0,0-.539,4.647c-.014.459-.216.685-.592.682a.552.552,0,0,1-.574-.643c.013-.653.038-1.309.1-1.959a28.009,28.009,0,0,1,2.617-9.388,26.929,26.929,0,0,1,5.762-7.8A45,45,0,0,1,353.165,558,1.57,1.57,0,0,1,353.41,557.9Z" transform="translate(-335.189 -507.227)" fill="#131312"/>
          <path id="Path_2350" data-name="Path 2350" d="M466.832,806.99c.23-.748.23-.751.972-.743,1.653.018,3.306,0,4.955-.138a51.959,51.959,0,0,0,12.736-2.64c.958-.332,1.9-.7,2.849-1.067.23-.089.378-.142.6.078.368.361.775.213.947-.305.428-1.292.77-2.608,1.067-3.936a55.564,55.564,0,0,0,1.124-7.47,71.813,71.813,0,0,0,.167-7.731c-.008-.326-.033-.652-.05-.978a.67.67,0,0,1,.609-.411,11.963,11.963,0,0,1,.043,1.683c.017,2.2-.083,4.39-.279,6.577a74.047,74.047,0,0,1-1.531,9.827c-.189.831-.417,1.652-.6,2.484a1.4,1.4,0,0,1-.872,1.026,38.267,38.267,0,0,1-5.155,1.886.421.421,0,0,1-.122-.293c-.031-.245-.078-.486-.388-.5-.329-.018-.4.239-.494.483s-.042.583-.363.72c-1.21.244-2.407.544-3.625.754a54.306,54.306,0,0,1-6.382.726A47.652,47.652,0,0,1,466.832,806.99Z" transform="translate(-431.994 -674.67)" fill="#005ba5"/>
          <path id="Path_2351" data-name="Path 2351" d="M444.492,488.718a4.778,4.778,0,0,1-3.524-1.56,6.887,6.887,0,0,1-1.536-2.662.7.7,0,0,1,.845-.9,2.756,2.756,0,0,1,.4.157,10.941,10.941,0,0,0,6.916.567c.07-.017.137-.051.208-.064a.671.671,0,0,1,.864.8,4.119,4.119,0,0,1-3.2,3.565A4.307,4.307,0,0,1,444.492,488.718Z" transform="translate(-411.46 -451.603)" fill="#131311"/>
          <path id="Path_2352" data-name="Path 2352" d="M563.094,743.709c-.214.12-.37.328-.609.411a88.928,88.928,0,0,0-1.643-12.544c-.039-.2-.182-.415-.01-.624a3.769,3.769,0,0,1,1.216.562,3.727,3.727,0,0,1,1.481,2.738c.2,1.967.394,3.936.644,5.9A4.078,4.078,0,0,1,563.094,743.709Z" transform="translate(-502.277 -636.732)" fill="#d81e1f"/>
          <path id="Path_2353" data-name="Path 2353" d="M518.864,872.471c.093-.307.181-.616.279-.922.127-.4.266-.495.611-.449a.565.565,0,0,1,.505.644c0,.107-.019.214-.029.321-.437,1.59-.881,3.178-1.308,4.77q-1.478,5.515-2.944,11.031c-.147.549-.03.48-.652.452a1.224,1.224,0,0,1-.635-.138l1.783-6.67q1.157-4.332,2.313-8.666C518.82,872.721,518.838,872.6,518.864,872.471Z" transform="translate(-467.81 -741.605)" fill="#131312"/>
          <path id="Path_2354" data-name="Path 2354" d="M380.614,859.759a3.261,3.261,0,0,1,.363-.765,53.9,53.9,0,0,0,20.306,5.087,1.577,1.577,0,0,1-.241.723,63.626,63.626,0,0,1-13.508-2.567C385.185,861.53,382.885,860.685,380.614,859.759Z" transform="translate(-367.472 -732.553)" fill="#005ba5"/>
          <path id="Path_2355" data-name="Path 2355" d="M452.807,468.291a2.8,2.8,0,0,1-2.2-1.079c-.256-.316-.263-.6-.044-.83a.753.753,0,0,1,.987-.095,2.524,2.524,0,0,1,.227.234,1.261,1.261,0,0,0,1.986-.091c.069-.083.115-.186.184-.269a.644.644,0,0,1,.92-.13.632.632,0,0,1,.212.862A2.622,2.622,0,0,1,452.807,468.291Z" transform="translate(-419.701 -438.374)" fill="#131312"/>
          <path id="Path_2356" data-name="Path 2356" d="M356.5,844.861c1.615,1.024,3.247,2.02,4.956,2.881.223.113.307.222.156.453-.108.165-.188.348-.281.523l-3.83-1.8a2.432,2.432,0,0,1-.679-.442A1.239,1.239,0,0,1,356.5,844.861Z" transform="translate(-349.304 -721.977)" fill="#005ba5"/>
          <path id="Path_2357" data-name="Path 2357" d="M407.356,551.033a2.907,2.907,0,0,1-.356-.966l.507-.309a.781.781,0,0,1,.712-.153.793.793,0,0,0,.579-.092,17.076,17.076,0,0,1,2.767-.725.54.54,0,0,1,.588.284.491.491,0,0,1-.107.6.877.877,0,0,1-.626.284,5.949,5.949,0,0,0-1.794.388c-.554.158-1.089.385-1.632.585A1.463,1.463,0,0,1,407.356,551.033Z" transform="translate(-387.218 -500.399)" fill="#090809"/>
          <path id="Path_2358" data-name="Path 2358" d="M434.105,433.181c.018.46-1.038,1.306-1.48,1.177a.647.647,0,0,1-.491-.455.612.612,0,0,1,.207-.679,7.3,7.3,0,0,1,.782-.577A.657.657,0,0,1,434.105,433.181Z" transform="translate(-406.006 -413.425)" fill="#151513"/>
          <path id="Path_2359" data-name="Path 2359" d="M469.809,452.526a.615.615,0,0,1-.676-.666.654.654,0,0,1,.677-.633.7.7,0,0,1,.723.658A.662.662,0,0,1,469.809,452.526Z" transform="translate(-433.716 -427.397)" fill="#1a1815"/>
          <path id="Path_2360" data-name="Path 2360" d="M442.9,451.895a.562.562,0,0,1-.634.635.6.6,0,0,1-.618-.67.633.633,0,0,1,.624-.627A.612.612,0,0,1,442.9,451.895Z" transform="translate(-413.144 -427.402)" fill="#191815"/>
          <path id="Path_2361" data-name="Path 2361" d="M387.092,688.268c.366.537.483.568,1.061.258a7.7,7.7,0,0,1,4.173-1,4.242,4.242,0,0,1,1.063.205,1,1,0,0,1,.383.2c.261.241.238.434-.094.573a8.349,8.349,0,0,1-1.894.462,7.32,7.32,0,0,0-1.213.29c-.272.094-.5.218-.55.534-.021.138-.136.209-.207.312a.563.563,0,0,0,.34.955,22.373,22.373,0,0,1,2.956,1.077,19.313,19.313,0,0,1,6.372,4.656,4.587,4.587,0,0,1,.847,1.259.97.97,0,0,1-.767,1.5,3.617,3.617,0,0,1-1.924-.177,22,22,0,0,1-4.266-2.011,47.3,47.3,0,0,1-9.567-7.245,1.293,1.293,0,0,0-.485-.333c-3.989-1.416-7.98-2.827-11.9-4.418a41,41,0,0,1-6.3-3.036c-.165-.1-.327-.208-.48-.306.034-.18.165-.229.258-.3,1.556-1.281,3.12-2.554,4.67-3.843a.488.488,0,0,1,.695-.059c.92.614,1.891,1.156,2.791,1.8,2.528,1.8,5.036,3.624,7.433,5.6,1.149.946,2.342,1.839,3.521,2.748.478.368.569.358,1.036-.007a1.337,1.337,0,0,0,1.034.368C386.41,688.3,386.751,688.284,387.092,688.268Z" transform="translate(-355.511 -596.874)" fill="#fff"/>
          <path id="Path_2362" data-name="Path 2362" d="M546.993,636.025a.956.956,0,0,0,.1-.129,16.342,16.342,0,0,1,3.455-3.379c.661-.51,1.339-1,1.969-1.55.553-.484.822-.481,1.389-.039a7.429,7.429,0,0,1,1.629,1.82c.23.351.209.506-.052.835q-2.391,3.007-4.786,6.012c-.458.574-.781.636-1.38.2a11.028,11.028,0,0,1-2.765-2.907c-.134-.2.135-.394-.178-.412" transform="translate(-491.521 -561.632)" fill="#fff"/>
          <path id="Path_2363" data-name="Path 2363" d="M470.941,694.434c-.486-.07-.951.133-1.433.107a.338.338,0,0,1,.252-.08.2.2,0,0,0,.223-.238.717.717,0,0,0,0-.109,1.846,1.846,0,0,1,.609-1.7c.737-.826,1.427-1.7,2.117-2.562a.774.774,0,0,1,.689-.333c.526.012,1.054-.007,1.58-.032.4-.019.4-.036.4-.407,0-.532,0-.531.542-.538.327,0,.656,0,.98-.03.24-.024.318.052.337.287.051.621.061.624.668.6.472-.017.943-.039,1.414-.075a.6.6,0,0,1,.527.215q1.428,1.538,2.866,3.065a.69.69,0,0,1,.19.489c.041,1.489.083,2.978.138,4.467.01.281-.078.38-.364.384-.617.008-1.233.058-1.85.076q-4.412.131-8.824.255c-.508.015-1.016.046-1.523.071-.106.005-.223-.015-.279.113-.046-.025-.106-.038-.136-.076-.072-.09,0-.121.074-.135a7.032,7.032,0,0,1,1.1-.2,2.21,2.21,0,0,0,1.524-.694.744.744,0,0,1,.136-.085,16.234,16.234,0,0,1,2.388-.16c.433.026.637-.132.617-.591-.027-.617.009-1.235-.018-1.853-.015-.343-.146-.528-.534-.52-1.361.027-2.724-.019-4.081.126A.486.486,0,0,0,470.941,694.434Z" transform="translate(-433.997 -604.971)" fill="#221c18"/>
          <path id="Path_2364" data-name="Path 2364" d="M429.236,645.125c-.3.015-.487.037-.668.03a1.208,1.208,0,0,1-.3-2.356,1.689,1.689,0,0,1,.373-.067q2.119-.151,4.24-.295a1.184,1.184,0,1,1,.195,2.355C431.754,644.91,430.434,645.022,429.236,645.125Z" transform="translate(-402.507 -570.489)" fill="#fff"/>
          <path id="Path_2365" data-name="Path 2365" d="M552.532,785.1c.8-.339,1.648-.5,2.464-.781.239-.081.232.067.211.228-.733.166-1.466.33-2.2.5A1.261,1.261,0,0,1,552.532,785.1Z" transform="translate(-496.128 -676.652)" fill="#d81e1f"/>
          <path id="Path_2366" data-name="Path 2366" d="M550.822,787.576a.624.624,0,0,1,.441-.107A.587.587,0,0,1,550.822,787.576Z" transform="translate(-494.849 -679.024)" fill="#bc233b"/>
          <path id="Path_2367" data-name="Path 2367" d="M422.153,735.924c.53-.063,1.033-.085,1.53-.124,2.335-.18,4.657-.467,6.971-.809,2.062-.3,4.112-.687,6.153-1.11.411-.085.413-.082.492.325q.846,4.359,1.292,8.777c.061.614.1,1.231.139,1.847.027.473.019.48-.407.613-2.026.634-4.071,1.2-6.141,1.676a76.757,76.757,0,0,1-7.983,1.393q-2.974.36-5.971.481c-1.6.066-3.2.114-4.8.066-2.124-.064-4.245-.179-6.361-.393a77.8,77.8,0,0,1-9.448-1.551c-.733-.167-.676-.079-.45-.743A78.5,78.5,0,0,0,400,735.59c.066-.352.113-.387.471-.335,2.139.309,4.288.5,6.443.652,1.159.081,2.317.179,3.479.194a1.122,1.122,0,0,1,.694.255c1.016.765,2,1.571,3.062,2.275a25.594,25.594,0,0,0,7.64,3.614,5.717,5.717,0,0,0,1.779.183,2.19,2.19,0,0,0,1.124-.368,1.7,1.7,0,0,0,.644-2.325,6.482,6.482,0,0,0-1.246-1.711c-.511-.542-1.046-1.061-1.564-1.6A1.129,1.129,0,0,1,422.153,735.924Z" transform="translate(-379.752 -638.891)" fill="#d81e1f"/>
          <path id="Path_2368" data-name="Path 2368" d="M346.187,642.071c.7.848,1.417,1.611,2.042,2.453a10.793,10.793,0,0,1,1.327,2.241.442.442,0,0,1-.1.579c-.189.169-.367.352-.563.512q-4.6,3.755-9.194,7.507c-.322.264-.607.573-.929.839s-.454.254-.751-.032a21.181,21.181,0,0,1-3.741-4.719c-.054-.094-.1-.194-.143-.293a1.259,1.259,0,0,1,.458-1.8q1.344-.973,2.731-1.887a75.83,75.83,0,0,1,8.006-4.607C345.686,642.686,346.057,642.534,346.187,642.071Z" transform="translate(-332.543 -570.217)" fill="#fff"/>
          <path id="Path_2369" data-name="Path 2369" d="M418.929,724.947c-1.7-.018-3.347-.111-4.986-.282-1.1-.114-2.195-.237-3.292-.359l-.216-.023c-.266-.03-.368-.159-.32-.437.1-.606.186-1.216.274-1.825.062-.427.12-.854.185-1.323.936.349,1.834.679,2.729,1.018,1.117.422,2.229.855,3.348,1.272a1.994,1.994,0,0,1,.724.461C417.885,723.955,418.41,724.448,418.929,724.947Z" transform="translate(-389.54 -629.058)" fill="#005ba5"/>
          <path id="Path_2370" data-name="Path 2370" d="M475.16,710.612c-.06-.273.07-.338.323-.343.8-.016,1.6-.057,2.393-.083.653-.021,1.307-.02,1.959-.055.245-.013.368.022.387.3.063.925.052,1.85.077,2.775,0,.152-.051.239-.215.243-.943.027-1.886.057-2.829.081-.044,0-.09-.051-.135-.078a1.346,1.346,0,0,0-.277-2.266A4.859,4.859,0,0,0,475.16,710.612Z" transform="translate(-438.215 -621.149)" fill="#d81e1f"/>
          <path id="Path_2371" data-name="Path 2371" d="M408.924,399.428a1.815,1.815,0,0,1-.466-.646c-.372-1.215-.848-2.4-1.126-3.64a9.912,9.912,0,0,1,.8-6.48,11.767,11.767,0,0,1,8.535-6.787,8.68,8.68,0,0,1,3.092-.013,13.745,13.745,0,0,1,5.372,1.822,11.183,11.183,0,0,1,5.395,8.353,9.286,9.286,0,0,1-.453,4.247c-.154-.076-.142-.234-.176-.369-.22-.862-.432-1.726-.661-2.585a8.106,8.106,0,0,0-1.242-2.648c-.032-.045-.062-.09-.1-.133-.264-.344-.449-.428-.724-.331-.292.1-.386.269-.362.7.032.6.079,1.2.118,1.8.013.2.016.4.031.6.012.161-.045.229-.214.22-.526-.026-1.053-.025-1.577-.1-.2-.027-.284-.083-.292-.3a9.556,9.556,0,0,0-.1-.975.547.547,0,0,0-.508-.543.534.534,0,0,0-.586.455,5.574,5.574,0,0,0-.191.905c-.03.308-.167.385-.459.378-1.236-.028-2.472-.036-3.708-.05-.436,0-.873-.023-1.308,0-.293.014-.485-.051-.562-.362a1.757,1.757,0,0,0-.2-.444.506.506,0,0,0-.543-.282.55.55,0,0,0-.469.464c-.046.189.053.464-.126.554a1.543,1.543,0,0,1-.642.042q-1.145.005-2.29,0a.821.821,0,0,0-.517.124,9.427,9.427,0,0,0-3.02,3.309,5.281,5.281,0,0,0-.6,1.967C409.024,398.91,408.972,399.134,408.924,399.428Z" transform="translate(-387.293 -375.387)" fill="#fff"/>
          <path id="Path_2372" data-name="Path 2372" d="M447.653,366.137c-2.792-.925-5.522-1.431-8.43-.556.625-1.126,1.139-2.209,1.795-3.2a3.148,3.148,0,0,1,4.951-.344,1.535,1.535,0,0,1,.327.5C446.736,363.705,447.177,364.875,447.653,366.137Z" transform="translate(-411.332 -359.872)" fill="#fff"/>
          <path id="Path_2373" data-name="Path 2373" d="M441.549,541.414A3.553,3.553,0,0,0,442.39,543a20.611,20.611,0,0,0,5.357,4.733c.379.226.391.133.189.565a18.4,18.4,0,0,0-1.185,3.313c-.375-.357-.745-.673-1.074-1.029a24.743,24.743,0,0,1-2.124-2.688q-.931-1.34-1.848-2.69c-.182-.269-.341-.555-.5-.838a2.288,2.288,0,0,1-.007-2.334C441.287,541.859,441.39,541.691,441.549,541.414Z" transform="translate(-412.572 -494.889)" fill="#fff"/>
          <path id="Path_2374" data-name="Path 2374" d="M477.676,548.215c2.179,2.6,2.679,5.093,1.32,7.681-.049.007-.067-.014-.069-.063a3.416,3.416,0,0,0-.779-1.933c-.142-.188-.272-.385-.412-.576-.3-.4-.3-.407.02-.785a1.506,1.506,0,0,0,.4-1.438C477.939,550.189,477.841,549.247,477.676,548.215Z" transform="translate(-439.988 -499.979)" fill="#fff"/>
          <path id="Path_2375" data-name="Path 2375" d="M452.688,491.362a2.622,2.622,0,0,1-2.426,1.483,3.683,3.683,0,0,1-3.244-1.944A13.66,13.66,0,0,0,452.688,491.362Z" transform="translate(-417.166 -457.087)" fill="#fefffe"/>
          <path id="Path_2376" data-name="Path 2376" d="M501.552,712.8c-.725,0-1.449-.009-2.174.005-.225,0-.32-.051-.325-.292-.019-.905-.048-1.811-.091-2.716-.012-.252.088-.3.311-.307,1.467-.034,2.934-.073,4.4-.128.26-.01.349.058.354.32.017.888.05,1.775.087,2.662.009.216-.026.326-.282.33-.76.013-1.52.053-2.28.082Z" transform="translate(-456.038 -620.576)" fill="#fff"/>
          <path id="Path_2377" data-name="Path 2377" d="M496.621,698.034a18.13,18.13,0,0,1-2.007.119c-.816.017-1.633-.005-2.447.077a.543.543,0,0,1-.493-.161c-.726-.779-1.459-1.551-2.217-2.354a.832.832,0,0,1,.462-.068c1.306-.043,2.612-.075,3.917-.124a.814.814,0,0,1,.71.289C495.2,696.539,495.876,697.241,496.621,698.034Z" transform="translate(-448.925 -610.217)" fill="#0057a0"/>
          <path id="Path_2378" data-name="Path 2378" d="M476.081,698.9l2.214-2.686,2.343,2.553C479.1,698.843,477.662,698.922,476.081,698.9Z" transform="translate(-438.915 -610.736)" fill="#fac300"/>
        </g>
      </g>
    </g>
    <path id="Path_2380" data-name="Path 2380" d="M305.438,336.934a56.086,56.086,0,0,0-45.088,89.448l-6.442,24.042,26.638-7.137a56.09,56.09,0,1,0,24.892-106.353Z" transform="translate(0 0)" fill="none"/>
    <path id="Path_2381" data-name="Path 2381" d="M305.438,336.934a56.086,56.086,0,0,0-45.088,89.448l-6.442,24.042,26.638-7.137a56.09,56.09,0,1,0,24.892-106.353Z" transform="translate(0 0)" fill="none" stroke="#fff" stroke-miterlimit="10" stroke-width="10"/>
  </g>
</svg>
