<svg xmlns="http://www.w3.org/2000/svg" xmlns:xlink="http://www.w3.org/1999/xlink" width="148.205" height="151.89" viewBox="0 0 148.205 151.89">
  <defs>
    <clipPath id="clip-path">
      <path id="Path_2379" data-name="Path 2379" d="M318.45,336.934a69.1,69.1,0,0,0-55.547,110.2l-7.937,29.62,32.817-8.793A69.1,69.1,0,1,0,318.45,336.934Z" transform="translate(-249.348 -336.934)" fill="none"/>
    </clipPath>
  </defs>
  <g id="jota" transform="translate(-244.348 -331.934)">
    <path id="Path_2337" data-name="Path 2337" d="M319.149,336.934a69.1,69.1,0,0,0-55.547,110.2l-7.937,29.62,32.817-8.793a69.1,69.1,0,1,0,30.667-131.026Z" transform="translate(-0.482 0)" fill="#d81e1f"/>
    <g id="Group_715" data-name="Group 715" transform="translate(249.348 336.934)">
      <g id="Group_714" data-name="Group 714" transform="translate(0)" clip-path="url(#clip-path)">
        <g id="Group_713" data-name="Group 713" transform="translate(24.504 6.075)">
          <path id="Path_2338" data-name="Path 2338" d="M418.568,454.3l-.077,7.983-1.55,2.79s3.023,4.263,4.96,5.58,4.573.388,4.573.388,1.24-1.86,1.163-2.48a32.887,32.887,0,0,0-1.628-4.263,23.259,23.259,0,0,1-1.4-4.728c0-.93.62-5.425.62-5.425s2.48-.7,4.573-4.108a12.605,12.605,0,0,0,2.14-5.648l1.192-1.25a.61.61,0,0,0,.62-.31c.233-.388.388-1.783,1.008-2.4s1.4-2.015,1.163-2.17-.465-2.635-1.705-2.635a3.173,3.173,0,0,0-2.17,1.24l-.155-4.03-1.55-3.41-18.369-.465s-4.34,4.418-4.34,6.278a4,4,0,0,1-.465,2.4s-1.163-1.86-1.705-1.86-1.783.7-1.86,1.318-.155,2.48.233,2.635.775,1.86.853,2.248.853.853.853.853l1.318-.775,1.163,2.713s4.03,8.293,6.045,9.146a31.734,31.734,0,0,0,4.263,1.4Z" transform="translate(-380.246 -406.499)" fill="#fff"/>
          <path id="Path_2339" data-name="Path 2339" d="M569.75,585.905s5.735.543,7.053-.155,5.193-4.96,7.208-8.913,4.418-10.308,4.418-10.308,6.9-8.138,7.6-9.921,1.318-6.2,0-6.433-6.433,3.023-6.433,5.89-1.163,3.643-1.163,3.643l-.775-1.938s-1.085-1.628-1.318-1.24-1.4,1.86-.543,3.488,1.163,2.325,1.163,2.325l-2.558,3.643Z" transform="translate(-494.924 -490.133)" fill="#fff"/>
          <path id="Path_2340" data-name="Path 2340" d="M497.663,546.512a24.362,24.362,0,0,1,7.285,5.193c3.8,3.8,10,16.353,10.928,18.059a18.352,18.352,0,0,1,1.4,3.333l-3.178,3.953-3.333-2.868-1.55-1.628L496.5,546.2Z" transform="translate(-444.382 -487.4)" fill="#fff"/>
          <path id="Path_2341" data-name="Path 2341" d="M368.619,548.2s-13.408,3.41-17.981,8.525-9.611,11.393-10.7,14.648-1.55,10.618-1.55,10.618a3.771,3.771,0,0,0-.155,3.333c.853,1.55,14.338-5.968,14.338-5.968l-.078-3.333,3.8-6.123,4.03-7.053,2.015,2.48s1.55,6.2,6.975,7.828a42.378,42.378,0,0,0,12.323,1.24l3.643-6.9,1.938-7.285-1.163-11.238-5.038,5.735-2.5-.134Z" transform="translate(-334.948 -488.78)" fill="#fff"/>
          <path id="Path_2342" data-name="Path 2342" d="M445.983,580.348c-.106.236.035.44.1.644.712,2.142,1.443,4.277,2.149,6.42.61,1.849,1.009,3.754,1.443,5.649.57,2.484,1.041,4.987,1.454,7.5.043.264.056.533.082.8a5.178,5.178,0,0,1-1.58-.606,2.414,2.414,0,0,1-.477-1.167c-1.379-6.466-3.21-12.807-5.21-19.1q-1.159-3.649-2.43-7.259c-.124-.353-.152-.87-.741-.759-.4.075-.461.469-.227,1.143,2.584,7.423,5,14.9,6.845,22.544.253,1.044.483,2.094.7,3.145.17.8.065.954-.717,1.12-4.142.875-8.32,1.517-12.528,1.983-1.778.2-3.563.313-5.342.5a3.671,3.671,0,0,1-2.545-.583,19.6,19.6,0,0,0-4.228-2.181,1.13,1.13,0,0,1-.625-.37c.051-.264.271-.286.466-.285.629.005,1.25-.152,1.869-.14,2.285.041,4.563-.125,6.844-.185,1.942-.051,3.891-.01,5.831-.216.522-.055.722-.257.683-.754-.126-1.585-.153-3.173-.142-4.762a1.186,1.186,0,0,0-.313-.793c-1.015-1.194-2.147-2.281-3.181-3.459a1.286,1.286,0,0,0-1.331-.431,5.938,5.938,0,0,1-1.137.079c-.537.012-1-.055-1.038-.742-.015-.245-.2-.329-.427-.334-.291-.007-.583.011-.873,0-.367-.015-.6.092-.616.513-.023.508-.366.676-.823.689q-.806.024-1.612,0a1.215,1.215,0,0,0-1.039.5c-.918,1.129-1.827,2.267-2.777,3.368a1.832,1.832,0,0,0-.44,1.366.73.73,0,0,1-.645.865,12.735,12.735,0,0,0-3.338.971,3.007,3.007,0,0,0-1.629,1.3c-.893.129-1.8.327-2.551-.412a2.725,2.725,0,0,0-1.233-1.666c-2.707-2.1-5.374-4.244-8.1-6.32a1.452,1.452,0,0,1-.62-1.261c.014-1.276.023-2.552,0-3.827-.056-3.175-.337-6.335-.7-9.488-.039-.334-.166-.65-.217-.984-.322-4.159-.655-8.316-1.123-12.461a1.016,1.016,0,0,0-.051-.194,7.207,7.207,0,0,1-.156-2.59c-.059-1.094-.261-2.17-.414-3.251-.281-1.987-.606-3.968-.913-5.952a.537.537,0,0,0-.13-.368,1.94,1.94,0,0,1-.216-1.524c0-.743-.34-1.428-.346-2.174,0-.623.124-.916.6-1.047a.953.953,0,0,1,1.124.618,10.69,10.69,0,0,0,.549,1.365,1.481,1.481,0,0,1,.439,1.19.738.738,0,0,0,.052.459c1.115,3.377,2.112,6.795,3.5,10.075.349.823.734,1.631,1.111,2.443a25.777,25.777,0,0,0,3.371,5.62,11.65,11.65,0,0,0,5.252,3.923,8.71,8.71,0,0,0,6.172-.133,7.647,7.647,0,0,0,3.944-3.943,18.428,18.428,0,0,0,1.6-5.307,53.133,53.133,0,0,0,.53-9.566c0-.156.009-.312.014-.468.208-.024.268.144.326.279,1.064,2.488,2.521,4.8,3.281,7.422A9.58,9.58,0,0,1,432.02,562a4.465,4.465,0,0,1-2.558,3.611,4.307,4.307,0,0,0-.418.216c-.245.151-.57.287-.4.658a.6.6,0,0,0,.854.3,4.968,4.968,0,0,0,2.007-1.307,6.589,6.589,0,0,0,1.608-3.839,12,12,0,0,0-1.135-6.067c-.66-1.448-1.446-2.828-2.151-4.252a26.547,26.547,0,0,1-2.321-7.126c-.037-.206-.218-.47.083-.649.061-.192.118-.384.183-.575a1.147,1.147,0,0,1,1.034-.829,1.136,1.136,0,0,1,1.214.657c.2.4.361.818.546,1.225,1.776,3.911,3.741,7.73,5.571,11.615,1.935,4.107,3.84,8.227,5.521,12.447.074.186.169.364.254.546a4.34,4.34,0,0,1,.73,1.537c.2.558.459,1.092.689,1.638.563,1.629.921,3.322,1.533,4.935.323,1.017.668,2.027,1.014,3.036C445.941,579.962,446.077,580.134,445.983,580.348Z" transform="translate(-377.578 -484.592)" fill="#0057a0"/>
          <path id="Path_2343" data-name="Path 2343" d="M359.814,802.3c1.985-2.578,4.093-5.064,5.911-7.768a1.106,1.106,0,0,1,.138-.142c.248.326.013.6-.115.867-.539,1.132-1.127,2.238-1.723,3.341-.41.758-.413,1.2-.032,1.293.651.165.757-.454.961-.824a92.185,92.185,0,0,0,5.283-11.525c.419-1.1.506-1.166,1.621-.91a94.112,94.112,0,0,0,21.831,2.406,96.046,96.046,0,0,0,22.4-2.69c.957-.229,1.909-.484,2.879-.661a2.076,2.076,0,0,0,.533-.087,1.466,1.466,0,0,1,.212-.047c.8-.138,1.577-.381,2.374-.528.27-.05.552-.2.821.017a2.738,2.738,0,0,1,.226,1.243,38.367,38.367,0,0,1-.027,5.03c-.1,1.181-.078,2.366-.18,3.549a66.313,66.313,0,0,1-2.148,12.147,1.36,1.36,0,0,1-.854.951,62.877,62.877,0,0,1-16.6,4.512c-2.238.287-4.492.411-6.754.491-1.816.064-3.623-.006-5.426-.078a54.806,54.806,0,0,1-7.328-.848,63.989,63.989,0,0,1-19.168-6.573c-1.461-.781-2.888-1.624-4.268-2.543C360.139,802.765,359.852,802.64,359.814,802.3Z" transform="translate(-350.071 -652.115)" fill="#0057a0"/>
          <path id="Path_2344" data-name="Path 2344" d="M397.347,653.9c-3.732.9-7.466,1.772-11.272,2.313q-3.617.514-7.257.807a97.542,97.542,0,0,1-11.2.187c-2.433-.083-4.859-.3-7.28-.59q-4.892-.582-9.7-1.634c-.305-.067-.609-.138-.913-.209-.6-.141-.6-.143-.819.427q-.9,2.386-1.911,4.724c-1.108,2.543-2.332,5.029-3.651,7.469-.085.157-.172.314-.267.466-.251.4-.492.509-.819.37a.783.783,0,0,1-.44-1,4.273,4.273,0,0,1,.246-.477c.639-1.23,1.28-2.459,1.912-3.693.1-.192.261-.373.2-.62a26.854,26.854,0,0,0,1.777-3.724c.72-1.654,1.39-3.328,1.973-5.037a1.2,1.2,0,0,1,.127-.842,94.338,94.338,0,0,0,3.759-14.107,1.6,1.6,0,0,1,.291-.809c.347-1.665.526-3.356.78-5.036.049-.326-.164-.375-.367-.45-1.151-.425-2.318-.809-3.453-1.271a67.975,67.975,0,0,1-9.457-4.4c-.23-.138-.46-.276-.687-.419-.569-.357-.565-.355-1.113.084-.384.308-.76.628-1.166.9a1.681,1.681,0,0,1-2.271-.076,16.269,16.269,0,0,1-1.912-1.882,34.231,34.231,0,0,1-3.2-4.306,5.244,5.244,0,0,1-.836-1.96,1.841,1.841,0,0,1,.563-1.77,10.342,10.342,0,0,1,1-.793,97.393,97.393,0,0,1,13.277-8.056,1.784,1.784,0,0,0,.734-.556,98.488,98.488,0,0,0,7.192-11.625c.332-.658.635-1.331.961-1.992a1.745,1.745,0,0,1,.359-.631,23.067,23.067,0,0,1,.288,2.536,12.752,12.752,0,0,1-1.568,3.321c-1.483,2.5-2.893,5.051-4.607,7.408-.329.453-.274.7.116,1.109a20.992,20.992,0,0,1,2.892,3.775c.272.464.578.906.874,1.354a4.428,4.428,0,0,1,.578,1.058,1.673,1.673,0,0,1-.577,2.134c-.844.586-1.658,1.219-2.456,1.87-.315.257-.39.439.032.681,1.613.927,3.1,2.045,4.619,3.112.142.1.29.294.462.222.227-.094.129-.352.132-.54a74.722,74.722,0,0,0-.63-11.238,2.71,2.71,0,0,1,.007-1,.767.767,0,0,1,1.345-.4,6.32,6.32,0,0,1,.37,2.165,88.9,88.9,0,0,1,.557,12.193.852.852,0,0,0,.375.784c2.972,2.3,5.928,4.624,8.9,6.926a1.256,1.256,0,0,1,.547,1.21c-.354.538-.725.6-1.334.18-.829-.574-1.609-1.213-2.4-1.838-3.3-2.608-6.551-5.285-10.028-7.671-1.4-.963-2.823-1.9-4.238-2.839a.818.818,0,0,0-1.137.032c-1.733,1.453-3.5,2.859-5.237,4.311-.535.449-.525.473.059.834a44.875,44.875,0,0,0,6.017,2.97c5.273,2.257,10.705,4.094,16.084,6.071a2.712,2.712,0,0,1,1.007.642,55.639,55.639,0,0,0,13.182,9.637,13.224,13.224,0,0,0,4.875,1.83,3.35,3.35,0,0,0,.334.036c1.521,0,2.009-.794,1.275-2.108a8.819,8.819,0,0,0-1.688-2.077,24.309,24.309,0,0,0-9.86-5.811c-.172-.051-.342-.109-.509-.171-.861-.323-.956-.723-.593-1.543a2.072,2.072,0,0,1,1.624-1.231,24.1,24.1,0,0,0,2.56-.549c.256-.087.676-.077.645-.454-.026-.329-.414-.376-.69-.433a8.166,8.166,0,0,0-5.111.609c-.429.193-.828.452-1.273.605-.559.193-.9-.028-1.029-.636a.815.815,0,0,1,.588-.867,12.669,12.669,0,0,1,3.208-1.219,3.857,3.857,0,0,1,1.046-.162c.563-.072,1.071-.438,1.671-.311a5.23,5.23,0,0,1,2.251.752,1.773,1.773,0,0,1,.384,3,3.76,3.76,0,0,1-2.8,1.133c-.447.012-.447.024-.654.259a14,14,0,0,1,3.06,1.326,22.866,22.866,0,0,1,2.428,1.426,1.244,1.244,0,0,0,.812.232c1.563-.081,3.121-.222,4.679-.371,1.336-.127,2.667-.278,4-.445,2.217-.277,4.424-.609,6.621-1.013,1.251-.231,2.5-.488,3.745-.735.549-.109.555-.112.433-.688-.849-4-1.9-7.956-3.05-11.882-1.385-4.721-2.942-9.386-4.566-14.029-.044-.127-.1-.251-.134-.38a.771.771,0,0,1,.519-1.007c.4-.117.644.031.828.548q1.372,3.856,2.608,7.757c1.633,5.135,3.145,10.305,4.393,15.55.259,1.087.5,2.178.736,3.27a5.589,5.589,0,0,0,.428,1.335c.555,2.12.871,4.286,1.215,6.445.45,2.822.711,5.667.959,8.512a10.855,10.855,0,0,1,.009,1.205,51.906,51.906,0,0,1,.116,7.373,65.532,65.532,0,0,1-2.793,17.162c-.319,1.031-.632,1.192-1.609.817a1.062,1.062,0,0,0-.837.072,63.169,63.169,0,0,1-12.549,3.619,62.481,62.481,0,0,1-7.52.9c-1.5.083-2.994.118-4.49.093a1.7,1.7,0,0,0-1.719.742c-1.2,3.147-2.379,6.3-3.726,9.392-.876,2.008-1.8,3.991-2.806,5.938a.673.673,0,0,1-.768.435c-1.118-.075-1.1.023-.559-1a114.759,114.759,0,0,0,5.747-13.274,11.151,11.151,0,0,0,.551-1.577c-.014-.785-.015-.765-.8-.793a53.14,53.14,0,0,1-7.252-.865,62.989,62.989,0,0,1-15.9-4.98c-.645-.3-.879.1-1.222.423-.912,1.641-1.682,3.352-2.48,5.049-2.16,4.591-4.167,9.249-6.1,13.938-.275.666-.273.667-1.018.615a1.543,1.543,0,0,1-.744-.166c.75-1.785,1.488-3.557,2.238-5.325q3.156-7.439,6.734-14.685c.352-.866-.147-1.208-.846-1.553a49.1,49.1,0,0,1-4.372-2.55c-.279-.175-.6-.31-.734-.648a3.04,3.04,0,0,1-.313-.248.654.654,0,0,1-.08-.8.674.674,0,0,1,.784-.364,3.029,3.029,0,0,1,.487.207,24.685,24.685,0,0,0,2.813,1.81,62.575,62.575,0,0,0,18.047,7.117,61.2,61.2,0,0,0,7.328,1.214,68.186,68.186,0,0,0,8.772.333,62.943,62.943,0,0,0,23.279-5.066.811.811,0,0,0,.5-.623,66.588,66.588,0,0,0,1.514-6.866,72.8,72.8,0,0,0,.891-12.832c-.01-.782-.07-1.564-.106-2.346-.57-.249-1.053.147-1.573.236-.58.1-1.148.3-1.723.445l.014,0C397.721,653.859,397.517,653.81,397.347,653.9Z" transform="translate(-328.388 -520.166)" fill="#121311"/>
          <path id="Path_2345" data-name="Path 2345" d="M518.672,583.868a2.317,2.317,0,0,1-.308-.587q-.472-1.495-.952-2.986c.449-.138.582.237.763.494a15.442,15.442,0,0,0,2.976,3.259c.935.746,1.368.74,2.107-.179,1.823-2.266,3.595-4.573,5.422-6.836.572-.709.58-.845.015-1.573a7.627,7.627,0,0,0-1.756-1.832.987.987,0,0,0-1.3.007,54.047,54.047,0,0,0-5.718,4.865c-.374.418-.731.845-1.07,1.289-.256.336-.567.532-.98.284a.856.856,0,0,1-.425-1.032,2.954,2.954,0,0,1,.539-.922c.446-.618.448-.64-.19-1.095a13.967,13.967,0,0,1-1.731-1.376c-.092-.091-.216-.169-.189-.331a3.092,3.092,0,0,1-.481-1c-.269-.72-.531-1.442-.8-2.163a11.638,11.638,0,0,1,1.144,1.126,21.9,21.9,0,0,0,3.485,2.831c.477.31.472.3.881-.063.569-.505,1.141-1.008,1.727-1.492.6-.5.612-.49.357-1.257a61.86,61.86,0,0,0-4.933-11.069,49.727,49.727,0,0,0-6.473-9.2,23.759,23.759,0,0,0-5.255-4.352c-.214-.129-.439-.235-.487-.512a.787.787,0,0,1,.259-.789.655.655,0,0,1,.808.018,20.194,20.194,0,0,1,3.669,2.693,36.862,36.862,0,0,1,5.645,6.633,64.37,64.37,0,0,1,7.949,15.911c.061.183.057.407.269.55.491-.33,1-.653,1.486-1a1.833,1.833,0,0,1,2.3.011,14.263,14.263,0,0,1,3.008,2.784,2.114,2.114,0,0,0,.5-.691,64.345,64.345,0,0,1,8.848-11.534c.438-.47.713-.528,1.09-.262a.657.657,0,0,1,.155,1.038c-.241.294-.516.559-.773.839a62.97,62.97,0,0,0-7.609,9.875c-.743,1.225-1.42,2.485-2.045,3.774-.1.2-.2.392-.307.613a1.865,1.865,0,0,1-.25-.173c-.2-.2-.37-.209-.554.024q-1.395,1.764-2.8,3.52c-.137.172-.087.417-.262.583-.3.285-.437.734-.881.884a.193.193,0,0,0-.109.222c.022.108.13.106.215.119a.971.971,0,0,0,.2.01c1.406-.086,2.821.053,4.223-.142.548-.076,1.082-.229,1.642-.266a1.455,1.455,0,0,0,.832-.531,36.242,36.242,0,0,0,5.889-7.373,53.514,53.514,0,0,0,4.73-10.639,2.12,2.12,0,0,1,.51-.85,41.014,41.014,0,0,0,6.1-8.556,14.932,14.932,0,0,0,1.815-5.019,2.333,2.333,0,0,0-.038-1,.889.889,0,0,0-1.432-.61,8.232,8.232,0,0,0-1.615,1.306,15.031,15.031,0,0,0-4.092,7.564c-.036.153-.063.307-.1.458-.111.429-.312.637-.642.672s-.56-.13-.739-.562c-.154-.371-.278-.755-.4-1.138-.142-.447-.264-.9-.4-1.35a1.347,1.347,0,0,0-.345-.687c-.379.2-.419.585-.464.945a5.1,5.1,0,0,0,.357,2.433,9.97,9.97,0,0,0,.97,1.909c.3.473.275.764-.056.992a.7.7,0,0,1-1.047-.24,8.751,8.751,0,0,1-1.7-5.137,2.834,2.834,0,0,1,.445-1.459,1.537,1.537,0,0,1,2.633-.152,10.7,10.7,0,0,1,.625,1.075,17.186,17.186,0,0,1,2.249-4.377,13.023,13.023,0,0,1,2.68-2.807,5.042,5.042,0,0,1,1.646-.88,2,2,0,0,1,2.263.75,3.4,3.4,0,0,1,.564,2.933,17.8,17.8,0,0,1-1.475,4.234,35.008,35.008,0,0,1-6.533,9.455,2.278,2.278,0,0,0-.535.906,50.313,50.313,0,0,1-6.431,13.224,28.879,28.879,0,0,1-4.154,4.824c-.261.243-.576.431-.821.688-.2.214-.458.1-.681.187a11.8,11.8,0,0,1-3.813.575c-.447.02-.9.013-1.343,0a5.887,5.887,0,0,0-1.66.161,1.134,1.134,0,0,1-1.123-.243c-.216.119-.309.331-.453.495a1.794,1.794,0,0,1-2.28.548,5.721,5.721,0,0,1-1.259-.76A14.141,14.141,0,0,1,518.672,583.868Z" transform="translate(-450.266 -488.112)" fill="#131311"/>
          <path id="Path_2346" data-name="Path 2346" d="M403.256,385.152c-.312-.993-.562-1.967-.924-2.9a10.5,10.5,0,0,1-.554-5.221,15.652,15.652,0,0,1,8.754-12.477,1.746,1.746,0,0,0,.8-.759q1.191-2.255,2.433-4.482a5.264,5.264,0,0,1,7.9-1.653,4.134,4.134,0,0,1,1.429,1.9c.589,1.665,1.247,3.306,1.852,4.965a1.475,1.475,0,0,0,.71.826,15.208,15.208,0,0,1,7.555,11.165,13.138,13.138,0,0,1-.243,5.069,15.236,15.236,0,0,1-.923,2.717,2.167,2.167,0,0,0-.267.81c.065.1.155.083.24.082a2.332,2.332,0,0,1,2.362,1.6,4.97,4.97,0,0,1,.324,1.5,2.168,2.168,0,0,1-.63,1.771,2.4,2.4,0,0,0-.741,1.738,1.6,1.6,0,0,1-.875,1.412,1.441,1.441,0,0,1-2.055-1.19c0-.178,0-.408.251-.383.227.022.552-.246.675.18.019.064.047.126.065.19a.446.446,0,0,0,.522.317.458.458,0,0,0,.458-.409,3.823,3.823,0,0,0,.079-.529,3.131,3.131,0,0,1,.816-1.864,2.155,2.155,0,0,0-.121-2.956,1.13,1.13,0,0,0-1.824.224,2.185,2.185,0,0,0-.273.754c-.058.351-.3.358-.55.311-.3-.056-.4-.258-.315-.548a2.487,2.487,0,0,1,.531-1.209c.2-.188.157-.368.077-.6-.537-1.589-1.273-3.1-1.828-4.681a.506.506,0,0,0-.473-.371,21.064,21.064,0,0,0-2.477-.245c.2.324.512.418.744.594.481.363.611.748.363,1.133a.925.925,0,0,1-1.3.246c-.229-.139-.445-.3-.664-.455-.781-.55-.822-.834-.187-1.6-.773-.051-1.509-.1-2.246-.15-.6-.042-1.2-.1-1.808-.131-.28-.016-.561-.1-.828.123-.15.127-.391.041-.591.039-2.774-.021-5.548-.035-8.322-.074a1.622,1.622,0,0,0-1.151.412,14.273,14.273,0,0,0-1.723,1.691,6.85,6.85,0,0,0-1.623,4.04c-.015.223-.062.443-.081.666a.736.736,0,0,1-.432.7.519.519,0,0,0-.334.582c.013.238-.041.509-.38.529-.324.02-.414-.2-.47-.46-.062-.284-.109-.573-.2-.849-.164-.512-.421-.945-1.033-1.006a1.231,1.231,0,0,0-1.333.814c-.41,1.058-.513,1.691.27,2.534a2.852,2.852,0,0,1,.781,1.808,3.709,3.709,0,0,0,.1.592.444.444,0,0,0,.5.356.431.431,0,0,0,.477-.377c.018-.11.047-.219.055-.33.019-.265.129-.411.419-.4a.457.457,0,0,1,.482.373,1.386,1.386,0,0,1-.556,1.474,1.34,1.34,0,0,1-1.62.052,1.576,1.576,0,0,1-.731-1.289,2.467,2.467,0,0,0-.768-1.8,2.125,2.125,0,0,1-.605-1.714,3.718,3.718,0,0,1,.919-2.448A3.565,3.565,0,0,1,403.256,385.152Z" transform="translate(-378.638 -356.528)" fill="#070607"/>
          <path id="Path_2347" data-name="Path 2347" d="M437.792,496.618a25.652,25.652,0,0,0,2.64,8.193c.771,1.488,1.593,2.952,2.228,4.508a11.123,11.123,0,0,1,.838,5.318,6.1,6.1,0,0,1-2.81,4.938,4.918,4.918,0,0,1-1.088.513.744.744,0,0,1-.8-.184.615.615,0,0,1,.136-1.052c.155-.087.325-.148.487-.222a4.358,4.358,0,0,0,2.639-3.613,10.077,10.077,0,0,0-.475-4.167,15.132,15.132,0,0,0-.88-2.318l-2.559-5.385a.554.554,0,0,0-.155-.362c-.029.011-.087.024-.087.034a9.945,9.945,0,0,1-.891,4.1,5.74,5.74,0,0,0-.523,1.369.433.433,0,0,1-.43.36.592.592,0,0,1-.584-.257,1.132,1.132,0,0,1-.151-.439,9.475,9.475,0,0,0-2.12-4.131c-.14-.184-.257-.191-.445-.069a1.49,1.49,0,0,0-.605.686,21.391,21.391,0,0,0-1.251,3.816,1.028,1.028,0,0,1-.174.5.752.752,0,0,1-1.253.063,26,26,0,0,1-2.659-2.841,81,81,0,0,1-4.9-7.133,1.054,1.054,0,0,1-.092-.179c-.122-.31-.161-.722-.386-.9-.179-.142-.585.027-.888.012a.8.8,0,0,1-.728-.75c-.043-.424.108-.641.565-.765a3.623,3.623,0,0,0,1.212-.328c.306-.233.412-.719.632-1.078a6.8,6.8,0,0,1,2.486-2.486.483.483,0,0,0,.273-.475,42.007,42.007,0,0,0,.023-4.228c-.011-.238.011-.444-.332-.552A13.181,13.181,0,0,1,417.8,481.7a23.836,23.836,0,0,1-3.33-7.326c.11-.2.3-.145.433-.18.8-.2,1.17,0,1.418.783a20.168,20.168,0,0,0,3.593,6.848,10.977,10.977,0,0,0,5.541,3.828,8.365,8.365,0,0,0,7.049-1.13,15.4,15.4,0,0,0,5.37-6.312,14.558,14.558,0,0,0,.832-2.049.775.775,0,0,1,.778-.613c.639-.01.968.374.8.988a12.581,12.581,0,0,1-.7,1.813,18.476,18.476,0,0,1-4.033,5.808,12.184,12.184,0,0,1-5.589,3.17,10.113,10.113,0,0,1-2.859.237c-.432-.02-.446-.015-.436.422a58.184,58.184,0,0,1-.224,6.37,1.6,1.6,0,0,1-.743,1.4c-.471.286-.442.327-.152.773a7.942,7.942,0,0,0,1.166,1.292,25.842,25.842,0,0,0,5.09,4.03c.559.323.551.315,1.006-.131a2.809,2.809,0,0,0,.813-2.51,10.852,10.852,0,0,0-.553-2.136,28.969,28.969,0,0,1-1.45-5.778,16.569,16.569,0,0,1-.051-3.017.859.859,0,0,1,.4-.733.843.843,0,0,1,.89-.085.759.759,0,0,1,.362.807,12.9,12.9,0,0,0,.068,3.147,21.17,21.17,0,0,0,.853,3.584,1.151,1.151,0,0,0,.226.4,23.2,23.2,0,0,1,2.092,2.871.166.166,0,0,0,.184.109c-.112-.673-.228-1.344-.331-2.017a3.65,3.65,0,0,1-.059-.733.726.726,0,0,1,.7-.675c.358-.023.583.166.668.595C437.695,495.909,437.737,496.265,437.792,496.618Z" transform="translate(-387.781 -437.665)" fill="#0e0e0d"/>
          <path id="Path_2348" data-name="Path 2348" d="M388.551,736.253a34.627,34.627,0,0,1-.682,3.679,93.963,93.963,0,0,1-3.331,11.714c-.045.126-.109.244-.164.366a4.436,4.436,0,0,1-2.993-5.526c.612-2.289,1.248-4.571,1.893-6.852a4.47,4.47,0,0,1,4.877-3.415C388.284,736.227,388.417,736.241,388.551,736.253Z" transform="translate(-364.832 -618.498)" fill="#d81e1f"/>
          <path id="Path_2349" data-name="Path 2349" d="M357.106,557.9a7.81,7.81,0,0,1,.216,1.525A44.548,44.548,0,0,0,345.3,569.916a31.447,31.447,0,0,0-5.724,12.738,32.085,32.085,0,0,0-.663,5.725c-.017.566-.266.844-.729.841a.68.68,0,0,1-.707-.793c.016-.8.047-1.612.126-2.413a34.506,34.506,0,0,1,3.224-11.565,33.175,33.175,0,0,1,7.1-9.612,55.441,55.441,0,0,1,8.879-6.81A1.93,1.93,0,0,1,357.106,557.9Z" transform="translate(-334.659 -495.471)" fill="#131312"/>
          <path id="Path_2350" data-name="Path 2350" d="M466.832,812.869c.284-.921.284-.926,1.2-.915,2.037.022,4.074,0,6.1-.17a64.024,64.024,0,0,0,15.691-3.253c1.18-.409,2.345-.863,3.509-1.315.284-.11.466-.175.743.1.454.445.955.263,1.166-.376.527-1.592.948-3.213,1.315-4.849a68.458,68.458,0,0,0,1.385-9.2,88.452,88.452,0,0,0,.205-9.525c-.009-.4-.04-.8-.061-1.205a.826.826,0,0,1,.751-.506,14.743,14.743,0,0,1,.053,2.073c.021,2.706-.1,5.409-.344,8.1a91.222,91.222,0,0,1-1.886,12.106c-.233,1.023-.514,2.036-.741,3.06a1.718,1.718,0,0,1-1.075,1.264,47.137,47.137,0,0,1-6.351,2.323.517.517,0,0,1-.15-.361c-.038-.3-.1-.6-.477-.619-.406-.022-.488.294-.609.595s-.051.718-.447.887c-1.49.3-2.966.67-4.466.929a66.908,66.908,0,0,1-7.863.895A58.7,58.7,0,0,1,466.832,812.869Z" transform="translate(-423.912 -649.853)" fill="#005ba5"/>
          <path id="Path_2351" data-name="Path 2351" d="M445.675,489.911a5.886,5.886,0,0,1-4.342-1.922,8.484,8.484,0,0,1-1.892-3.28.858.858,0,0,1,1.041-1.11,3.393,3.393,0,0,1,.5.194,13.48,13.48,0,0,0,8.52.7c.087-.021.169-.063.256-.078a.826.826,0,0,1,1.065.98,5.075,5.075,0,0,1-3.948,4.392A5.308,5.308,0,0,1,445.675,489.911Z" transform="translate(-404.98 -444.186)" fill="#131311"/>
          <path id="Path_2352" data-name="Path 2352" d="M563.638,746.668c-.264.148-.455.4-.751.506a109.559,109.559,0,0,0-2.024-15.454c-.049-.241-.224-.511-.012-.768a4.643,4.643,0,0,1,1.5.692,4.591,4.591,0,0,1,1.825,3.374c.25,2.424.486,4.849.794,7.266A5.024,5.024,0,0,1,563.638,746.668Z" transform="translate(-488.713 -614.874)" fill="#d81e1f"/>
          <path id="Path_2353" data-name="Path 2353" d="M519.832,872.791c.114-.379.223-.759.343-1.136.156-.488.327-.61.753-.553a.7.7,0,0,1,.622.793c0,.132-.023.263-.035.395-.538,1.959-1.086,3.915-1.611,5.877q-1.821,6.794-3.628,13.59c-.181.677-.037.591-.8.557a1.508,1.508,0,0,1-.782-.17q1.1-4.113,2.2-8.217,1.426-5.338,2.85-10.676C519.778,873.1,519.8,872.945,519.832,872.791Z" transform="translate(-456.934 -711.566)" fill="#131312"/>
          <path id="Path_2354" data-name="Path 2354" d="M380.614,859.937a4.013,4.013,0,0,1,.448-.943,66.409,66.409,0,0,0,25.017,6.267,1.943,1.943,0,0,1-.3.89,78.392,78.392,0,0,1-16.642-3.163C386.245,862.119,383.412,861.078,380.614,859.937Z" transform="translate(-364.423 -703.221)" fill="#005ba5"/>
          <path id="Path_2355" data-name="Path 2355" d="M453.364,468.847a3.454,3.454,0,0,1-2.711-1.329c-.315-.389-.324-.734-.055-1.022a.928.928,0,0,1,1.216-.117,3.114,3.114,0,0,1,.28.288,1.554,1.554,0,0,0,2.447-.113c.085-.1.141-.229.226-.331a.793.793,0,0,1,1.133-.16.778.778,0,0,1,.262,1.062A3.231,3.231,0,0,1,453.364,468.847Z" transform="translate(-412.578 -431.989)" fill="#131312"/>
          <path id="Path_2356" data-name="Path 2356" d="M356.537,844.861c1.99,1.261,4,2.489,6.106,3.549.275.139.378.273.192.558-.133.2-.232.429-.346.644l-4.718-2.222a3,3,0,0,1-.837-.544A1.526,1.526,0,0,1,356.537,844.861Z" transform="translate(-347.672 -693.469)" fill="#005ba5"/>
          <path id="Path_2357" data-name="Path 2357" d="M407.439,551.556a3.579,3.579,0,0,1-.439-1.19l.625-.381a.962.962,0,0,1,.877-.188.978.978,0,0,0,.713-.113,21.032,21.032,0,0,1,3.409-.894.665.665,0,0,1,.724.35.6.6,0,0,1-.131.737,1.08,1.08,0,0,1-.772.349,7.329,7.329,0,0,0-2.21.477c-.683.195-1.342.474-2.01.72A1.8,1.8,0,0,1,407.439,551.556Z" transform="translate(-382.629 -489.176)" fill="#090809"/>
          <path id="Path_2358" data-name="Path 2358" d="M434.569,433.326c.023.566-1.279,1.609-1.823,1.45a.8.8,0,0,1-.605-.56.754.754,0,0,1,.255-.837,8.992,8.992,0,0,1,.964-.711A.809.809,0,0,1,434.569,433.326Z" transform="translate(-399.951 -408.986)" fill="#151513"/>
          <path id="Path_2359" data-name="Path 2359" d="M469.966,452.828a.757.757,0,0,1-.833-.821.806.806,0,0,1,.834-.779.864.864,0,0,1,.891.811A.816.816,0,0,1,469.966,452.828Z" transform="translate(-425.499 -421.869)" fill="#1a1815"/>
          <path id="Path_2360" data-name="Path 2360" d="M443.187,452.048a.692.692,0,0,1-.781.783.745.745,0,0,1-.762-.825.78.78,0,0,1,.769-.772A.753.753,0,0,1,443.187,452.048Z" transform="translate(-406.532 -421.873)" fill="#191815"/>
          <path id="Path_2361" data-name="Path 2361" d="M392.3,690.722c.451.662.6.7,1.307.318a9.489,9.489,0,0,1,5.141-1.235,5.23,5.23,0,0,1,1.309.253,1.227,1.227,0,0,1,.472.244c.322.3.294.535-.116.706a10.283,10.283,0,0,1-2.333.569,9.02,9.02,0,0,0-1.494.358c-.335.116-.618.268-.678.657-.026.17-.168.257-.255.384a.694.694,0,0,0,.419,1.176,27.565,27.565,0,0,1,3.642,1.326,23.793,23.793,0,0,1,7.851,5.736,5.647,5.647,0,0,1,1.044,1.551,1.2,1.2,0,0,1-.946,1.847,4.455,4.455,0,0,1-2.371-.219,27.106,27.106,0,0,1-5.256-2.477,58.276,58.276,0,0,1-11.787-8.925,1.593,1.593,0,0,0-.6-.411c-4.914-1.744-9.831-3.482-14.664-5.443a50.519,50.519,0,0,1-7.767-3.74c-.2-.126-.4-.256-.592-.377.042-.222.2-.281.318-.376,1.917-1.578,3.844-3.147,5.754-4.734a.6.6,0,0,1,.856-.072c1.134.756,2.329,1.424,3.439,2.213,3.115,2.215,6.2,4.465,9.157,6.9,1.415,1.166,2.885,2.266,4.338,3.385.589.454.7.441,1.277-.009a1.647,1.647,0,0,0,1.274.453C391.462,690.762,391.882,690.741,392.3,690.722Z" transform="translate(-353.395 -578.125)" fill="#fff"/>
          <path id="Path_2362" data-name="Path 2362" d="M547.136,637.283a1.171,1.171,0,0,0,.124-.158,20.133,20.133,0,0,1,4.257-4.163c.815-.629,1.65-1.229,2.426-1.909.681-.6,1.013-.593,1.711-.048a9.149,9.149,0,0,1,2.007,2.242c.283.432.257.623-.064,1.028q-2.946,3.7-5.9,7.407c-.564.707-.962.784-1.7.247a13.588,13.588,0,0,1-3.406-3.581c-.165-.251.167-.486-.219-.508" transform="translate(-478.795 -545.633)" fill="#fff"/>
          <path id="Path_2363" data-name="Path 2363" d="M471.274,695.808c-.6-.086-1.171.164-1.766.132a.417.417,0,0,1,.31-.1.245.245,0,0,0,.275-.293.878.878,0,0,0,0-.134,2.274,2.274,0,0,1,.751-2.09c.908-1.018,1.758-2.089,2.608-3.157a.954.954,0,0,1,.849-.41c.648.015,1.3-.009,1.946-.04.49-.023.495-.045.494-.5,0-.656,0-.654.668-.663.4-.005.808,0,1.208-.037.3-.03.391.063.415.353.063.765.075.769.823.742.581-.021,1.162-.048,1.742-.092a.745.745,0,0,1,.649.265q1.759,1.895,3.531,3.777a.849.849,0,0,1,.234.6c.051,1.834.1,3.669.17,5.5.013.346-.1.468-.448.473-.76.009-1.519.071-2.279.094q-5.435.161-10.871.315c-.626.019-1.251.057-1.877.087-.13.006-.275-.019-.344.139-.057-.03-.131-.047-.168-.094-.089-.11,0-.148.092-.167a8.676,8.676,0,0,1,1.36-.248,2.722,2.722,0,0,0,1.877-.855.917.917,0,0,1,.168-.1,20.006,20.006,0,0,1,2.942-.2c.534.033.785-.163.76-.729-.033-.76.011-1.522-.022-2.282-.018-.422-.18-.65-.658-.641-1.677.034-3.356-.023-5.028.155A.6.6,0,0,0,471.274,695.808Z" transform="translate(-425.758 -585.59)" fill="#221c18"/>
          <path id="Path_2364" data-name="Path 2364" d="M429.655,645.749c-.375.019-.6.045-.822.037a1.488,1.488,0,0,1-.371-2.9,2.082,2.082,0,0,1,.46-.083q2.611-.186,5.223-.363a1.459,1.459,0,1,1,.24,2.9C432.758,645.484,431.131,645.622,429.655,645.749Z" transform="translate(-396.725 -553.798)" fill="#fff"/>
          <path id="Path_2365" data-name="Path 2365" d="M552.532,785.286c.981-.418,2.03-.622,3.035-.962.294-.1.286.083.26.281-.9.2-1.807.406-2.708.616A1.553,1.553,0,0,1,552.532,785.286Z" transform="translate(-483.043 -651.68)" fill="#d81e1f"/>
          <path id="Path_2366" data-name="Path 2366" d="M550.822,787.6a.768.768,0,0,1,.544-.132A.723.723,0,0,1,550.822,787.6Z" transform="translate(-481.864 -653.867)" fill="#bc233b"/>
          <path id="Path_2367" data-name="Path 2367" d="M427.983,736.408c.653-.078,1.273-.105,1.885-.152,2.876-.222,5.737-.575,8.589-1,2.54-.376,5.066-.847,7.581-1.368.507-.105.509-.1.606.4q1.043,5.37,1.592,10.813c.076.757.127,1.516.171,2.275.033.582.023.591-.5.756-2.5.781-5.016,1.478-7.565,2.064a94.552,94.552,0,0,1-9.835,1.716q-3.664.444-7.356.593c-1.97.081-3.938.141-5.909.081-2.617-.079-5.229-.22-7.837-.484a95.849,95.849,0,0,1-11.639-1.91c-.9-.206-.833-.1-.555-.915A96.706,96.706,0,0,0,400.693,736c.081-.434.139-.477.58-.413,2.635.38,5.283.618,7.938.8,1.428.1,2.854.22,4.286.239a1.381,1.381,0,0,1,.854.315c1.251.943,2.47,1.936,3.772,2.8a31.534,31.534,0,0,0,9.412,4.452,7.045,7.045,0,0,0,2.192.226,2.7,2.7,0,0,0,1.384-.454,2.1,2.1,0,0,0,.793-2.865A7.984,7.984,0,0,0,430.37,739c-.629-.668-1.289-1.307-1.926-1.968A1.389,1.389,0,0,1,427.983,736.408Z" transform="translate(-375.745 -616.864)" fill="#d81e1f"/>
          <path id="Path_2368" data-name="Path 2368" d="M349.028,642.071c.857,1.045,1.745,1.984,2.516,3.023a13.3,13.3,0,0,1,1.634,2.761.545.545,0,0,1-.121.713c-.233.209-.452.433-.694.631q-5.662,4.626-11.327,9.249c-.4.325-.748.707-1.145,1.033s-.559.313-.925-.04a26.092,26.092,0,0,1-4.609-5.814c-.066-.116-.121-.239-.176-.361a1.551,1.551,0,0,1,.565-2.219q1.656-1.2,3.364-2.324a93.414,93.414,0,0,1,9.863-5.676C348.411,642.828,348.867,642.641,349.028,642.071Z" transform="translate(-332.219 -553.548)" fill="#fff"/>
          <path id="Path_2369" data-name="Path 2369" d="M420.976,725.933c-2.1-.022-4.123-.137-6.143-.347-1.353-.141-2.7-.293-4.056-.442l-.267-.029c-.327-.036-.453-.2-.395-.539.128-.747.229-1.5.338-2.249.076-.526.147-1.053.228-1.63,1.154.43,2.26.837,3.362,1.253,1.376.52,2.746,1.053,4.124,1.567a2.454,2.454,0,0,1,.892.568C419.691,724.711,420.337,725.319,420.976,725.933Z" transform="translate(-384.769 -607.799)" fill="#005ba5"/>
          <path id="Path_2370" data-name="Path 2370" d="M475.163,710.724c-.074-.336.087-.416.4-.423.983-.02,1.966-.071,2.948-.1.8-.025,1.61-.025,2.414-.068.3-.016.453.028.476.368.078,1.139.064,2.28.094,3.419,0,.188-.062.294-.265.3-1.162.033-2.323.071-3.485.1-.055,0-.111-.063-.166-.1a1.658,1.658,0,0,0-.341-2.792A5.985,5.985,0,0,0,475.163,710.724Z" transform="translate(-429.648 -600.506)" fill="#d81e1f"/>
          <path id="Path_2371" data-name="Path 2371" d="M409.347,403.534a2.236,2.236,0,0,1-.574-.8c-.458-1.5-1.045-2.956-1.388-4.484a12.212,12.212,0,0,1,.985-7.984,14.5,14.5,0,0,1,10.515-8.361,10.693,10.693,0,0,1,3.809-.016,16.934,16.934,0,0,1,6.618,2.244,13.777,13.777,0,0,1,6.646,10.291,11.44,11.44,0,0,1-.558,5.233c-.19-.093-.175-.288-.217-.454-.271-1.062-.533-2.126-.814-3.185a9.987,9.987,0,0,0-1.53-3.262c-.039-.055-.076-.111-.117-.164-.326-.424-.553-.527-.892-.407-.36.128-.475.331-.446.866.04.738.1,1.474.146,2.212.016.246.02.492.039.738.015.2-.056.282-.263.272-.648-.032-1.3-.031-1.943-.119-.24-.033-.35-.1-.359-.366a11.779,11.779,0,0,0-.125-1.2.674.674,0,0,0-.626-.669.658.658,0,0,0-.722.561,6.865,6.865,0,0,0-.235,1.115c-.038.38-.206.474-.566.465-1.522-.035-3.045-.044-4.568-.061-.537-.006-1.076-.028-1.612,0-.361.017-.6-.063-.693-.445a2.164,2.164,0,0,0-.25-.547.624.624,0,0,0-.669-.347.678.678,0,0,0-.578.572c-.056.233.065.571-.155.682a1.9,1.9,0,0,1-.791.052q-1.411.007-2.822,0a1.012,1.012,0,0,0-.637.153,11.615,11.615,0,0,0-3.721,4.076,6.506,6.506,0,0,0-.74,2.423C409.471,402.9,409.406,403.172,409.347,403.534Z" transform="translate(-382.698 -373.916)" fill="#fff"/>
          <path id="Path_2372" data-name="Path 2372" d="M449.608,367.33c-3.44-1.14-6.8-1.763-10.385-.685.77-1.387,1.4-2.721,2.211-3.941a3.878,3.878,0,0,1,6.1-.424,1.891,1.891,0,0,1,.4.611C448.479,364.334,449.023,365.775,449.608,367.33Z" transform="translate(-404.862 -359.611)" fill="#fff"/>
          <path id="Path_2373" data-name="Path 2373" d="M441.7,541.414a4.377,4.377,0,0,0,1.036,1.954,25.391,25.391,0,0,0,6.6,5.831c.467.278.481.164.233.7a22.667,22.667,0,0,0-1.46,4.082c-.462-.44-.918-.83-1.323-1.268a30.486,30.486,0,0,1-2.617-3.311q-1.147-1.651-2.276-3.314c-.225-.332-.42-.684-.619-1.033a2.819,2.819,0,0,1-.009-2.876C441.382,541.962,441.509,541.755,441.7,541.414Z" transform="translate(-406.005 -484.096)" fill="#fff"/>
          <path id="Path_2374" data-name="Path 2374" d="M477.713,548.215c2.685,3.2,3.3,6.275,1.626,9.463-.06.009-.082-.017-.085-.077a4.209,4.209,0,0,0-.96-2.382c-.175-.232-.335-.474-.507-.709-.364-.5-.372-.5.024-.967a1.856,1.856,0,0,0,.492-1.771C478.038,550.647,477.917,549.487,477.713,548.215Z" transform="translate(-431.282 -488.789)" fill="#fff"/>
          <path id="Path_2375" data-name="Path 2375" d="M454,491.469a3.23,3.23,0,0,1-2.989,1.827,4.538,4.538,0,0,1-4-2.4A16.827,16.827,0,0,0,454,491.469Z" transform="translate(-410.241 -449.243)" fill="#fefffe"/>
          <path id="Path_2376" data-name="Path 2376" d="M502.154,713.6c-.893,0-1.786-.011-2.678.006-.278.005-.395-.063-.4-.36-.024-1.115-.059-2.231-.112-3.346-.015-.31.109-.371.383-.378,1.807-.042,3.615-.091,5.421-.158.32-.012.43.071.437.395.021,1.093.062,2.186.108,3.279.011.266-.032.4-.348.406-.937.016-1.873.065-2.809.1Z" transform="translate(-446.08 -599.978)" fill="#fff"/>
          <path id="Path_2377" data-name="Path 2377" d="M498.283,698.617a22.334,22.334,0,0,1-2.472.147c-1.005.02-2.012-.006-3.015.094a.668.668,0,0,1-.608-.2c-.895-.96-1.8-1.911-2.732-2.9a1.024,1.024,0,0,1,.569-.083c1.609-.052,3.218-.092,4.826-.153a1,1,0,0,1,.875.357C496.528,696.776,497.365,697.64,498.283,698.617Z" transform="translate(-439.522 -590.428)" fill="#0057a0"/>
          <path id="Path_2378" data-name="Path 2378" d="M476.081,699.524l2.728-3.309,2.887,3.145C479.8,699.453,478.029,699.55,476.081,699.524Z" transform="translate(-430.294 -590.906)" fill="#fac300"/>
        </g>
      </g>
    </g>
    <path id="Path_2380" data-name="Path 2380" d="M318.45,336.934a69.1,69.1,0,0,0-55.547,110.2l-7.937,29.62,32.817-8.793A69.1,69.1,0,1,0,318.45,336.934Z" transform="translate(0 0)" fill="none"/>
    <path id="Path_2381" data-name="Path 2381" d="M318.45,336.934a69.1,69.1,0,0,0-55.547,110.2l-7.937,29.62,32.817-8.793A69.1,69.1,0,1,0,318.45,336.934Z" transform="translate(0 0)" fill="none" stroke="#fff" stroke-miterlimit="10" stroke-width="10"/>
  </g>
</svg>
