<svg xmlns="http://www.w3.org/2000/svg" width="51" height="50.998" viewBox="0 0 51 50.998">
  <g id="logout-icon" transform="translate(0 -0.008)">
    <path id="Path_1371" data-name="Path 1371" d="M56.414,38.257a6.383,6.383,0,0,1-6.375,6.375H44.2a2.121,2.121,0,0,1-1.985-1.368L26.805,2.89A2.123,2.123,0,0,1,28.79.008H50.039a6.383,6.383,0,0,1,6.375,6.375Zm0,0" transform="translate(-24.009 0)" fill="#2196f3"/>
    <path id="Path_1372" data-name="Path 1372" d="M34.062,22.914V61.162a2.657,2.657,0,0,1-2.656,2.656,2.833,2.833,0,0,1-.85-.128l-12.75-4.25A2.692,2.692,0,0,1,16,56.913V18.664a2.657,2.657,0,0,1,2.656-2.656,2.833,2.833,0,0,1,.85.128l12.75,4.25A2.692,2.692,0,0,1,34.062,22.914Zm0,0" transform="translate(-14.407 -14.406)" fill="#64b5f6"/>
    <path id="Path_1373" data-name="Path 1373" d="M15.646,50.858,2.879,46.6A4.271,4.271,0,0,1,0,42.569V4.32A4.278,4.278,0,0,1,5.6.28L18.37,4.536a4.271,4.271,0,0,1,2.879,4.033V46.818A4.254,4.254,0,0,1,17,51.068a4.458,4.458,0,0,1-1.354-.21ZM3.187,4.32V42.568A1.1,1.1,0,0,0,3.9,43.586l12.714,4.239a1.111,1.111,0,0,0,1.445-1.007V8.569a1.1,1.1,0,0,0-.716-1.018L4.63,3.315a1.21,1.21,0,0,0-.38-.058A1.063,1.063,0,0,0,3.187,4.32Zm0,0" transform="translate(0 -0.062)" fill="#64b5f6"/>
    <path id="Path_1374" data-name="Path 1374" d="M299.113,211.2H278.926a1.594,1.594,0,0,1,0-3.187h20.187a1.594,1.594,0,0,1,0,3.187Zm0,0" transform="translate(-249.708 -187.282)"/>
    <path id="Path_1375" data-name="Path 1375" d="M401.6,147.1a1.595,1.595,0,0,1-1.126-2.722l6.842-6.842-6.842-6.842a1.594,1.594,0,0,1,2.255-2.254l7.969,7.969a1.594,1.594,0,0,1,0,2.254l-7.969,7.969A1.583,1.583,0,0,1,401.6,147.1Zm0,0" transform="translate(-360.161 -115.216)"/>
    <path id="Path_1376" data-name="Path 1376" d="M17,51.006a4.379,4.379,0,0,1-1.317-.2L2.894,46.548A4.289,4.289,0,0,1,0,42.507V4.258A4.254,4.254,0,0,1,4.25.008a4.383,4.383,0,0,1,1.317.2l12.788,4.26a4.288,4.288,0,0,1,2.894,4.041V46.756A4.254,4.254,0,0,1,17,51.006ZM4.25,3.2A1.066,1.066,0,0,0,3.187,4.258V42.507a1.1,1.1,0,0,0,.737,1.024l12.728,4.241a1.154,1.154,0,0,0,.347.047,1.065,1.065,0,0,0,1.062-1.063V8.508a1.1,1.1,0,0,0-.737-1.024L4.6,3.242A1.153,1.153,0,0,0,4.25,3.2Zm0,0" transform="translate(0 0)"/>
    <path id="Path_1377" data-name="Path 1377" d="M56.417,17.008a1.594,1.594,0,0,1-1.594-1.594V5.852A2.66,2.66,0,0,0,52.167,3.2H28.262a1.594,1.594,0,1,1,0-3.187H52.167A5.848,5.848,0,0,1,58.01,5.852v9.562A1.594,1.594,0,0,1,56.417,17.008Zm0,0" transform="translate(-24.012)"/>
    <path id="Path_1378" data-name="Path 1378" d="M191.426,294.34h-8.5a1.594,1.594,0,0,1,0-3.187h8.5a2.66,2.66,0,0,0,2.656-2.656v-9.562a1.594,1.594,0,0,1,3.187,0V288.5A5.848,5.848,0,0,1,191.426,294.34Zm0,0" transform="translate(-163.271 -249.708)"/>
  </g>
</svg>
