<svg xmlns="http://www.w3.org/2000/svg" width="95.406" height="44.765" viewBox="0 0 95.406 44.765">
  <g id="metropoitano" transform="translate(0 -135.883)">
    <path id="Path_2139" data-name="Path 2139" d="M87.945,135.883H7.461A7.469,7.469,0,0,0,0,143.344V174.68a1.492,1.492,0,0,0,1.492,1.492H93.914a1.492,1.492,0,0,0,1.492-1.492V143.344A7.469,7.469,0,0,0,87.945,135.883Z" fill="#f26b6b"/>
    <path id="Path_2140" data-name="Path 2140" d="M2.984,174.68V143.344a7.469,7.469,0,0,1,7.461-7.461H7.461A7.469,7.469,0,0,0,0,143.344V174.68a1.492,1.492,0,0,0,1.492,1.492H4.477A1.492,1.492,0,0,1,2.984,174.68Z" fill="#e26161"/>
    <path id="Path_2141" data-name="Path 2141" d="M10.237,159.573H.653A7.413,7.413,0,0,0,0,162.619v7.461H11.938v-8.807A1.7,1.7,0,0,0,10.237,159.573Z" transform="translate(0 -19.276)" fill="#9be8e8"/>
    <path id="Path_2142" data-name="Path 2142" d="M10.536,159.573H.653A7.413,7.413,0,0,0,0,162.619v7.461H5.471l6.466-6.466v-2.64A1.4,1.4,0,0,0,10.536,159.573Z" transform="translate(0 -19.276)" fill="#79d1d1"/>
    <path id="Path_2143" data-name="Path 2143" d="M3.637,159.573H.653A7.413,7.413,0,0,0,0,162.619v7.461H2.984v-7.461A7.413,7.413,0,0,1,3.637,159.573Z" transform="translate(0 -19.276)" fill="#73bfbf"/>
    <path id="Path_2144" data-name="Path 2144" d="M378.6,159.573h-8.537a1.7,1.7,0,0,0-1.7,1.7v8.807H380.3v-8.807A1.7,1.7,0,0,0,378.6,159.573Z" transform="translate(-299.718 -19.276)" fill="#9be8e8"/>
    <path id="Path_2145" data-name="Path 2145" d="M378.895,159.573h-9.134a1.4,1.4,0,0,0-1.4,1.4v9.106h4.725l7.212-7.212v-1.894A1.4,1.4,0,0,0,378.895,159.573Z" transform="translate(-299.719 -19.276)" fill="#79d1d1"/>
    <path id="Path_2146" data-name="Path 2146" d="M90.315,159.573H81.779a1.7,1.7,0,0,0-1.7,1.7v8.807H92.016v-8.807A1.7,1.7,0,0,0,90.315,159.573Z" transform="translate(-65.156 -19.276)" fill="#9be8e8"/>
    <path id="Path_2147" data-name="Path 2147" d="M90.614,159.573H81.481a1.4,1.4,0,0,0-1.4,1.4v9.106h5.6l6.342-6.342v-2.764A1.4,1.4,0,0,0,90.614,159.573Z" transform="translate(-65.157 -19.276)" fill="#79d1d1"/>
    <path id="Path_2148" data-name="Path 2148" d="M170.392,159.573h-8.537a1.7,1.7,0,0,0-1.7,1.7v8.807h11.938v-8.807A1.7,1.7,0,0,0,170.392,159.573Z" transform="translate(-130.312 -19.276)" fill="#9be8e8"/>
    <path id="Path_2149" data-name="Path 2149" d="M170.692,159.573h-9.134a1.4,1.4,0,0,0-1.4,1.4v9.106h5.72l6.218-6.218v-2.888A1.4,1.4,0,0,0,170.692,159.573Z" transform="translate(-130.313 -19.276)" fill="#79d1d1"/>
    <rect id="Rectangle_262" data-name="Rectangle 262" width="2.984" height="35.874" transform="translate(80.578 140.298)" fill="#f26b6b"/>
    <path id="Path_2150" data-name="Path 2150" d="M460.281,162.619a7.413,7.413,0,0,0-.653-3.046h-9.491a1.7,1.7,0,0,0-1.7,1.7v8.869h11.844v-7.523Z" transform="translate(-364.875 -19.276)" fill="#9be8e8"/>
    <path id="Path_2151" data-name="Path 2151" d="M460.282,162.619a7.413,7.413,0,0,0-.653-3.046h-9.79a1.4,1.4,0,0,0-1.4,1.4v9.168h5.782l6.062-6.062v-1.461Z" transform="translate(-364.876 -19.276)" fill="#79d1d1"/>
    <path id="Path_2152" data-name="Path 2152" d="M244.239,198.976v-34.32a.747.747,0,0,1,.746-.746h17.906a.747.747,0,0,1,.746.746v34.32Z" transform="translate(-198.727 -22.804)" fill="#9be8e8"/>
    <g id="Group_626" data-name="Group 626" transform="translate(45.511 141.106)">
      <path id="Path_2153" data-name="Path 2153" d="M307.633,318.972h7.585v-7.585Z" transform="translate(-295.82 -283.906)" fill="#79d1d1"/>
      <path id="Path_2154" data-name="Path 2154" d="M244.239,199.991v12.559h5.72l13.678-13.678V180.593Z" transform="translate(-244.239 -177.484)" fill="#79d1d1"/>
      <path id="Path_2155" data-name="Path 2155" d="M244.984,163.91a.747.747,0,0,0-.746.746V178.21l14.3-14.3Z" transform="translate(-244.238 -163.91)" fill="#79d1d1"/>
    </g>
    <path id="Path_2156" data-name="Path 2156" d="M385.32,280.023a8.953,8.953,0,1,0,8.953,8.953A8.963,8.963,0,0,0,385.32,280.023Z" transform="translate(-306.235 -117.281)" fill="#645ba5"/>
    <path id="Path_2157" data-name="Path 2157" d="M398.352,296.039a5.969,5.969,0,1,0,5.969,5.969A5.975,5.975,0,0,0,398.352,296.039Z" transform="translate(-319.266 -130.313)" fill="#494170"/>
    <path id="Path_2158" data-name="Path 2158" d="M404.867,304.047a4.476,4.476,0,1,0,4.476,4.476A4.482,4.482,0,0,0,404.867,304.047Z" transform="translate(-325.782 -136.828)" fill="#edecf1"/>
    <path id="Path_2159" data-name="Path 2159" d="M48.992,280.023a8.953,8.953,0,1,0,8.953,8.953A8.963,8.963,0,0,0,48.992,280.023Z" transform="translate(-32.578 -117.281)" fill="#645ba5"/>
    <path id="Path_2160" data-name="Path 2160" d="M62.024,296.039a5.969,5.969,0,1,0,5.969,5.969A5.975,5.975,0,0,0,62.024,296.039Z" transform="translate(-45.61 -130.313)" fill="#494170"/>
    <path id="Path_2161" data-name="Path 2161" d="M68.539,304.047a4.476,4.476,0,1,0,4.476,4.476A4.482,4.482,0,0,0,68.539,304.047Z" transform="translate(-52.125 -136.828)" fill="#edecf1"/>
    <rect id="Rectangle_263" data-name="Rectangle 263" width="44.765" height="11.938" transform="translate(0 150.805)" fill="#edbc53"/>
    <rect id="Rectangle_264" data-name="Rectangle 264" width="2.984" height="11.938" transform="translate(0 150.805)" fill="#f09c48"/>
    <rect id="Rectangle_265" data-name="Rectangle 265" width="29.75" height="11.938" transform="translate(65.656 150.805)" fill="#edbc53"/>
    <g id="Group_627" data-name="Group 627" transform="translate(44.765 140.359)">
      <path id="Path_2162" data-name="Path 2162" d="M259.632,159.906H241.726a1.492,1.492,0,0,0-1.492,1.492v34.32h1.492V162.362a.964.964,0,0,1,.964-.964h5.534a.964.964,0,0,1,.964.964v33.356h2.984V162.362a.964.964,0,0,1,.964-.964h5.534a.964.964,0,0,1,.964.964v33.356h1.492V161.4A1.493,1.493,0,0,0,259.632,159.906Z" transform="translate(-240.234 -159.906)" fill="#d65151"/>
      <path id="Path_2163" data-name="Path 2163" d="M312.983,250.976H312.8a1.492,1.492,0,0,1,0-2.984h.187a1.492,1.492,0,0,1,0,2.984Z" transform="translate(-298.061 -231.578)" fill="#d65151"/>
      <path id="Path_2164" data-name="Path 2164" d="M265.937,250.976h-.187a1.492,1.492,0,0,1,0-2.984h.187a1.492,1.492,0,0,1,0,2.984Z" transform="translate(-259.781 -231.578)" fill="#d65151"/>
    </g>
  </g>
</svg>
