<svg xmlns="http://www.w3.org/2000/svg" width="53.437" height="57.186" viewBox="0 0 53.437 57.186">
  <g id="niño" transform="translate(-29.437 -16)">
    <path id="Path_1301" data-name="Path 1301" d="M373.283,65.165a7.967,7.967,0,0,1-2.332,5.632l-5.258,5.258L360,68.464l4.744-4.744V49.488L361.9,43.8l.949-3.8h8.539v9.488l.106.843,1.73,13.845a7.862,7.862,0,0,1,.062.988Z" transform="translate(-291.358 -21.154)" fill="#fec9a3"/>
    <path id="Path_1302" data-name="Path 1302" d="M383.59,51.386h-4.744v-1.9L376,43.8l.949-3.8h8.539v9.488Z" transform="translate(-305.461 -21.154)" fill="#fec093"/>
    <path id="Path_1303" data-name="Path 1303" d="M44.206,425.488H35.667L39.027,416h8.539Z" transform="translate(-5.491 -352.56)" fill="#fec9a3"/>
    <path id="Path_1304" data-name="Path 1304" d="M190.176,292.186l.056-.391h-1.9V288l-9.488.949v3.8l-2.846.949.725,1.209a7.281,7.281,0,0,0,13.451-2.716Z" transform="translate(-129.181 -239.741)" fill="#fec093"/>
    <path id="Path_1305" data-name="Path 1305" d="M104.8,287.59l-6.642,5.693v12.334H72.539V296.13H64l1.523-4.062a6.641,6.641,0,0,1,5.031-4.2l6.729-1.224.726,1.21a7.281,7.281,0,0,0,13.45-2.717l.056-.39L99.106,280l2.724,3.633Z" transform="translate(-30.464 -232.69)" fill="#e64d40"/>
    <path id="Path_1306" data-name="Path 1306" d="M168.259,314.588l-6.642,5.693v12.334H136V327.2c11.012-2.313,21.54-7.347,29.291-16.572Z" transform="translate(-93.925 -259.687)" fill="#e84d40"/>
    <path id="Path_1307" data-name="Path 1307" d="M294.24,131.717l-2.719.231.85,1.66,2.14-1.15Z" transform="translate(-231.001 -101.993)" fill="#92563a"/>
    <path id="Path_1308" data-name="Path 1308" d="M88.108,211.426l2.136-.828-2.114-5.638-2.136.828a3.011,3.011,0,1,0,2.114,5.638Z" transform="translate(-48.126 -166.549)" fill="#feb784"/>
    <path id="Path_1309" data-name="Path 1309" d="M292.118,137.708l-2.65.949-2.114-5.638,2.649-.949a3.011,3.011,0,1,1,2.114,5.638Z" transform="translate(-227.328 -102.134)" fill="#feb784"/>
    <rect id="Rectangle_125" data-name="Rectangle 125" width="22.882" height="26.495" rx="11.441" transform="translate(36.17 29.581) rotate(-20.556)" fill="#fec9a3"/>
    <path id="Path_1310" data-name="Path 1310" d="M118.127,50.863l-2.385.9c-2.3-.635-6.225-3.238-7.233-5.254-3.024,8.065-14.767,14.786-14.767,14.786L92.6,58.258a13.924,13.924,0,0,1-.893-4.895c0-.14,0-.28.007-.419a13.184,13.184,0,0,1,25.564-4.337Z" transform="translate(-54.887 -21.139)" fill="#92563a"/>
    <path id="Path_1311" data-name="Path 1311" d="M118.127,61.728l-2.385.9c-2.3-.635-6.225-3.238-7.233-5.254-3.024,8.065-14.767,14.786-14.767,14.786L92.6,69.123a13.924,13.924,0,0,1-.893-4.895c0-.14,0-.28.007-.419a49.548,49.548,0,0,0,19.274-11.5,13.189,13.189,0,0,1,6.291,7.162Z" transform="translate(-54.887 -32.004)" fill="#8c5338"/>
    <path id="Path_1312" data-name="Path 1312" d="M365.693,24h-2.846L360,32.539h4.744Z" transform="translate(-291.358 -7.051)" fill="#c7c7c5"/>
    <path id="Path_1313" data-name="Path 1313" d="M306.027,77.693H289.759a1.759,1.759,0,0,1-.787-3.333l.925-.463,1.064-1.064A2.846,2.846,0,0,1,292.974,72h16.848v2.846Z" transform="translate(-227.897 -49.358)" fill="#d6d6d4"/>
    <path id="Path_1314" data-name="Path 1314" d="M441.9,40,440,43.8h3.8V40Z" transform="translate(-361.87 -21.154)" fill="#348fd9"/>
    <path id="Path_1315" data-name="Path 1315" d="M365.693,112.539h-2.846L360,104h4.744Z" transform="translate(-291.358 -77.563)" fill="#e0e0de"/>
    <path id="Path_1316" data-name="Path 1316" d="M199.209,225.934a3.361,3.361,0,0,0,1.965-4.323l-1.777.666a1.46,1.46,0,1,1-2.734,1.025l-1.777.666a3.357,3.357,0,0,0,4.323,1.965Z" transform="translate(-145.828 -181.226)"/>
    <path id="Path_1317" data-name="Path 1317" d="M82.874,25.488V18.846a.949.949,0,0,0-.949-.949H75.184l.094-.844A.949.949,0,0,0,74.335,16H71.488a.949.949,0,0,0-.9.649l-1.681,5.044h-3.83A3.822,3.822,0,0,0,62.393,22.8l-.953.953a14.028,14.028,0,0,0-6.93-5.135,14.328,14.328,0,0,0-9.548.2,13.867,13.867,0,0,0-6.693,5.315,14.494,14.494,0,0,0-2.438,8.082,14.844,14.844,0,0,0,.953,5.228l.388,1.035a3.959,3.959,0,0,0,3.1,7.278l.893-.335a12.348,12.348,0,0,0,7.551,6.142v.747l-2.133.712L39.92,54.242a7.627,7.627,0,0,0-5.749,4.8L29.437,72.421l1.794.618,2.982-8.651h6.55l-2.711,8.2,1.8.6,1.274-3.853v3.595h1.9V63.44a.949.949,0,0,0-.949-.949h-7.17l1.042-2.78a5.72,5.72,0,0,1,4.312-3.6L46.344,55l.388.647a8.228,8.228,0,0,0,15.195-3.024l6.479-4.049,4.636,6.182-5.967,5.114a.949.949,0,0,0-.331.721V72.928h1.9V61.03l6.31-5.409.03-.028.024-.021,5.258-5.258a8.976,8.976,0,0,0,2.611-6.3,8.812,8.812,0,0,0-.069-1.106l-1.829-15.52,1.518-1.139a.949.949,0,0,0,.38-.759Zm-7.9-5.693h3.519l-.949,1.9H74.763Zm-2.8-1.9h1.1l-.421,3.8H70.907ZM39.847,25.2A11.98,11.98,0,0,1,45.629,20.6a12.127,12.127,0,0,1,14.21,4.174,2.743,2.743,0,0,0-.281.374,2.708,2.708,0,0,0,2.13,4.125l-.774.29a15.431,15.431,0,0,1-6.329-4.853l-.021-.033c-.044-.073-.083-.142-.117-.211a.949.949,0,0,0-1.738.095c-.027.072-.054.144-.084.216l-.005.012c-.636,1.6-3.472,7.325-13.27,13.882l-.02.014-.01.007-.033.022-.724-1.932a12.953,12.953,0,0,1-.833-4.562A12.6,12.6,0,0,1,39.847,25.2ZM38.883,44.12a2.062,2.062,0,0,1-1.039-3.842l.079.211a.949.949,0,0,0,1.384.476l.066-.041,1.036,2.763A12.329,12.329,0,0,1,38.883,44.12Zm3.425-.774L41.117,40.17l-.078-.207-.009-.025,0-.005-.015-.041c-.005-.014-.01-.028-.015-.042A58.536,58.536,0,0,0,47.464,34.7a29.281,29.281,0,0,0,6.329-7.9,18.48,18.48,0,0,0,6.3,4.492c.216.4,1.877,4.728,1.877,4.728a10.492,10.492,0,1,1-19.663,7.329Zm19.856-12.22.777-.292.036-.012.005,0a2.062,2.062,0,1,1,1.434,3.866l-.8.3ZM53.788,57.747a6.333,6.333,0,0,1-5.429-3.073l-.118-.2,1.724-.575a.949.949,0,0,0,.649-.9V51.96a12.3,12.3,0,0,0,5.869-.7,12.52,12.52,0,0,0,1.722-.8v1.592a.949.949,0,0,0,.949.949h.763a6.369,6.369,0,0,1-6.129,4.744ZM68.048,46.563l-7.268,4.542H60.1V49.151A12.4,12.4,0,0,0,64.188,36.8l.893-.335a3.959,3.959,0,0,0,.513-7.179h3l2,5.993a.949.949,0,0,0,.9.649h.949v6.249Zm1.911-19.178h2.578l.738,6.642h-1.1Zm8.963,21.587-4.484,4.484L69.9,47.4l4.162-4.162a.949.949,0,0,0,.278-.671V35.925a.949.949,0,0,0,.943-1.054l-.621-5.588H78.13a.949.949,0,0,0,.569-.19l.427-.32,1.8,14.369a6.9,6.9,0,0,1,.054.869A7.065,7.065,0,0,1,78.921,48.972Zm2.055-23.959-3.163,2.372H74.445l-.117-1.054a.949.949,0,0,0-.942-.844H68.642a.949.949,0,0,0-.9,1.249l.216.649h-6.1a.811.811,0,0,1-.692-1.234.828.828,0,0,1,.337-.305l.916-.458a.949.949,0,0,0,.247-.178l1.064-1.064a1.91,1.91,0,0,1,1.342-.556h15.9Zm0-3.321H79.665l.949-1.9h.362Z"/>
    <circle id="Ellipse_87" data-name="Ellipse 87" cx="1.542" cy="1.542" r="1.542" transform="translate(44.096 38.064)"/>
    <circle id="Ellipse_88" data-name="Ellipse 88" cx="1.542" cy="1.542" r="1.542" transform="translate(54.177 34.21)"/>
  </g>
</svg>
