<svg xmlns="http://www.w3.org/2000/svg" width="41.289" height="41.289" viewBox="0 0 41.289 41.289">
  <g id="nosymptons" transform="translate(0 0)">
    <path id="Path_1379" data-name="Path 1379" d="M41.2,31.434A20.193,20.193,0,0,1,4.265,42.725,23.224,23.224,0,0,1,1.25,35.06a22.757,22.757,0,0,1-.23-6.511A20.193,20.193,0,0,1,41.2,31.434Zm0,0" transform="translate(-0.815 -10.336)" fill="#f5c02c"/>
    <path id="Path_1380" data-name="Path 1380" d="M283.613,2.9a9.89,9.89,0,1,1-13.986,0A9.89,9.89,0,0,1,283.613,2.9Zm0,0" transform="translate(-245.22)" fill="#00b96f"/>
    <path id="Path_1381" data-name="Path 1381" d="M305.984,2.9a9.891,9.891,0,0,1,.912,12.936A9.89,9.89,0,0,1,293.048,1.989a9.891,9.891,0,0,1,12.936.912Zm0,0" transform="translate(-267.591 -0.004)" fill="#54d680"/>
    <path id="Path_1382" data-name="Path 1382" d="M341.125,40.6l-8.041,8.041a1.453,1.453,0,0,1-2.056,0l-4-4a1.454,1.454,0,0,1,2.056-2.056l2.975,2.975,7.013-7.013a1.454,1.454,0,1,1,2.055,2.056Zm0,0" transform="translate(-300.262 -35.045)" fill="#ffe49f"/>
    <path id="Path_1383" data-name="Path 1383" d="M353.929,38.542a1.453,1.453,0,0,1,0,2.055l-6.919,6.918a1.453,1.453,0,0,1-2.056,0l-4-4a1.452,1.452,0,0,1-.394-1.327,1.452,1.452,0,0,1,1.327.394l2.975,2.975,7.013-7.013a1.453,1.453,0,0,1,2.056,0Zm0,0" transform="translate(-313.065 -35.042)" fill="#fff5f5"/>
    <path id="Path_1384" data-name="Path 1384" d="M142.761,114.364a.221.221,0,0,0,0,.389,1.647,1.647,0,0,1,.873,1.454v.824a1.647,1.647,0,0,1-.873,1.454.221.221,0,0,0,0,.389,1.647,1.647,0,0,1,.873,1.454v.824a1.647,1.647,0,0,1-.873,1.454.221.221,0,0,0,0,.389,1.647,1.647,0,0,1,.873,1.454v.824a1.648,1.648,0,0,1-1.648,1.648h-8.8a5.7,5.7,0,0,1-3.436-1.154,5.7,5.7,0,0,0-3.437-1.154h-6.741V113.9h5.848a3.3,3.3,0,0,0,2.855-1.648l2.788-4.829a2.473,2.473,0,0,0,.331-1.236v-2.753a1.236,1.236,0,0,1,1.236-1.236,2.884,2.884,0,0,1,2.884,2.885v1.553a4.945,4.945,0,0,1-.668,2.482l-.552.95a.247.247,0,0,0,.214.371h7.479a1.648,1.648,0,0,1,1.648,1.648v.824a1.647,1.647,0,0,1-.873,1.454Zm0,0" transform="translate(-109.927 -93.955)" fill="#ffdfcf"/>
    <path id="Path_1385" data-name="Path 1385" d="M267.7,102.525v1.648a.824.824,0,0,1-.824.824h-.7v-1.566a1.236,1.236,0,0,1,1.236-1.236c.077,0,.153,0,.228.01A.827.827,0,0,1,267.7,102.525Zm0,0" transform="translate(-244.707 -93.954)" fill="#ffeee6"/>
    <path id="Path_1386" data-name="Path 1386" d="M137.042,235.875a.824.824,0,0,1,.824-.824h5.769a1.647,1.647,0,0,1-.873,1.454.22.22,0,0,0-.116.194h-4.78a.824.824,0,0,1-.824-.824Zm4.945,10.549h-8.8a5.7,5.7,0,0,1-3.436-1.154,5.7,5.7,0,0,0-3.437-1.154H119.57v2.637h6.741a5.7,5.7,0,0,1,3.437,1.154,5.7,5.7,0,0,0,3.436,1.154h8.8a1.648,1.648,0,0,0,1.648-1.648v-.824a1.634,1.634,0,0,0-.273-.9,1.647,1.647,0,0,1-1.375.74Zm-4.945-2.308a.824.824,0,0,0,.824.824h4.78a.22.22,0,0,1,.116-.194,1.647,1.647,0,0,0,.873-1.454h-5.769a.824.824,0,0,0-.824.824Zm0-4.121a.824.824,0,0,0,.824.824h4.78a.22.22,0,0,1,.116-.194,1.647,1.647,0,0,0,.873-1.454h-5.769A.824.824,0,0,0,137.042,240Zm0,0" transform="translate(-109.928 -216.096)" fill="#ffc9c0"/>
    <path id="Path_1387" data-name="Path 1387" d="M12.938,215.846v13.516A1.236,1.236,0,0,1,11.7,230.6H7.582a1.236,1.236,0,0,1-1.19-.907H3.449A20.1,20.1,0,0,1,0,218.4a20.353,20.353,0,0,1,.206-2.885H6.391a1.236,1.236,0,0,1,1.19-.907H11.7a1.236,1.236,0,0,1,1.236,1.236Zm0,0" transform="translate(0 -197.302)" fill="#ff393a"/>
    <path id="Path_1388" data-name="Path 1388" d="M0,218.4a20.354,20.354,0,0,1,.2-2.885H3.873v10.112a1.236,1.236,0,0,1-1.236,1.236H1.854A20.114,20.114,0,0,1,0,218.4Zm6.346-2.555v10.714A1.236,1.236,0,0,0,7.582,227.8H11.7a1.236,1.236,0,0,0,1.236-1.236V215.846a1.236,1.236,0,0,0-1.236-1.236H7.582A1.236,1.236,0,0,0,6.346,215.846Zm0,0" transform="translate(0 -197.303)" fill="#ff6466"/>
  </g>
</svg>
