<svg id="other-menus" xmlns="http://www.w3.org/2000/svg" width="54.339" height="54.339" viewBox="0 0 54.339 54.339">
  <path id="Path_2234" data-name="Path 2234" d="M21.307,16H32.769a5.307,5.307,0,0,1,5.307,5.307V32.769a5.307,5.307,0,0,1-5.307,5.307H21.307A5.307,5.307,0,0,1,16,32.769V21.307A5.307,5.307,0,0,1,21.307,16Z" transform="translate(-14.302 -14.302)" fill="#acebe2"/>
  <path id="Path_2235" data-name="Path 2235" d="M293.307,16h11.462a5.307,5.307,0,0,1,5.306,5.307V32.769a5.307,5.307,0,0,1-5.306,5.307H293.307A5.307,5.307,0,0,1,288,32.769V21.307A5.307,5.307,0,0,1,293.307,16Z" transform="translate(-257.434 -14.302)" fill="#acebe2"/>
  <path id="Path_2236" data-name="Path 2236" d="M299.038,288A11.038,11.038,0,1,1,288,299.038,11.038,11.038,0,0,1,299.038,288Z" transform="translate(-257.434 -257.434)" fill="#f79caf"/>
  <path id="Path_2237" data-name="Path 2237" d="M21.307,288H32.769a5.307,5.307,0,0,1,5.307,5.307v11.462a5.307,5.307,0,0,1-5.307,5.306H21.307A5.307,5.307,0,0,1,16,304.769V293.307A5.307,5.307,0,0,1,21.307,288Z" transform="translate(-14.302 -257.434)" fill="#acebe2"/>
  <path id="Path_2238" data-name="Path 2238" d="M143.552,21.307V32.769a5.307,5.307,0,0,1-5.307,5.307H134a5.307,5.307,0,0,0,5.307-5.307V21.307A5.307,5.307,0,0,0,134,16h4.245A5.307,5.307,0,0,1,143.552,21.307Z" transform="translate(-119.779 -14.302)" fill="#98d7ce"/>
  <path id="Path_2239" data-name="Path 2239" d="M415.552,21.307V32.769a5.307,5.307,0,0,1-5.307,5.307H406a5.307,5.307,0,0,0,5.307-5.307V21.307A5.307,5.307,0,0,0,406,16h4.245A5.307,5.307,0,0,1,415.552,21.307Z" transform="translate(-362.911 -14.302)" fill="#98d7ce"/>
  <path id="Path_2240" data-name="Path 2240" d="M385.16,299.038A11.043,11.043,0,0,1,372,309.87a11.039,11.039,0,0,0,0-21.665,11.043,11.043,0,0,1,13.16,10.833Z" transform="translate(-332.52 -257.434)" fill="#e3889b"/>
  <path id="Path_2241" data-name="Path 2241" d="M143.552,293.307v11.462a5.307,5.307,0,0,1-5.307,5.306H134a5.307,5.307,0,0,0,5.307-5.306V293.307A5.307,5.307,0,0,0,134,288h4.245A5.307,5.307,0,0,1,143.552,293.307Z" transform="translate(-119.779 -257.434)" fill="#98d7ce"/>
  <g id="Group_663" data-name="Group 663">
    <path id="Path_2242" data-name="Path 2242" d="M18.467,25.471H7a7.012,7.012,0,0,1-7-7V7A7.012,7.012,0,0,1,7,0H18.467a7.012,7.012,0,0,1,7,7V18.467A7.012,7.012,0,0,1,18.467,25.471ZM7,3.4A3.612,3.612,0,0,0,3.4,7V18.467A3.612,3.612,0,0,0,7,22.075H18.467a3.612,3.612,0,0,0,3.608-3.608V7A3.612,3.612,0,0,0,18.467,3.4Z"/>
  </g>
  <g id="Group_664" data-name="Group 664" transform="translate(28.867)">
    <path id="Path_2243" data-name="Path 2243" d="M290.467,25.471H279a7.012,7.012,0,0,1-7-7V7a7.012,7.012,0,0,1,7-7h11.462a7.012,7.012,0,0,1,7,7V18.467A7.012,7.012,0,0,1,290.467,25.471ZM279,3.4A3.612,3.612,0,0,0,275.4,7V18.467A3.612,3.612,0,0,0,279,22.075h11.462a3.612,3.612,0,0,0,3.608-3.608V7A3.612,3.612,0,0,0,290.467,3.4Z" transform="translate(-272)"/>
  </g>
  <g id="Group_665" data-name="Group 665" transform="translate(28.867 28.867)">
    <path id="Path_2244" data-name="Path 2244" d="M284.736,297.471a12.736,12.736,0,1,1,12.736-12.736A12.75,12.75,0,0,1,284.736,297.471Zm0-22.075a9.339,9.339,0,1,0,9.339,9.339A9.35,9.35,0,0,0,284.736,275.4Z" transform="translate(-272 -272)"/>
  </g>
  <g id="Group_666" data-name="Group 666" transform="translate(0 28.867)">
    <path id="Path_2245" data-name="Path 2245" d="M18.467,297.471H7a7.012,7.012,0,0,1-7-7V279a7.012,7.012,0,0,1,7-7H18.467a7.012,7.012,0,0,1,7,7v11.462A7.012,7.012,0,0,1,18.467,297.471ZM7,275.4A3.612,3.612,0,0,0,3.4,279v11.462A3.612,3.612,0,0,0,7,294.075H18.467a3.612,3.612,0,0,0,3.608-3.608V279a3.612,3.612,0,0,0-3.608-3.608Z" transform="translate(0 -272)"/>
  </g>
</svg>
