<svg xmlns="http://www.w3.org/2000/svg" width="84.614" height="81.764" viewBox="0 0 84.614 81.764">
  <g id="p1-1" transform="translate(0 0)">
    <g id="Group_308" data-name="Group 308" transform="translate(19.623 47.131)">
      <path id="Path_703" data-name="Path 703" d="M-4165.11-4422.039a38.034,38.034,0,0,0,14.813-10.479v-12.587a1.637,1.637,0,0,0-.187-.787,3.078,3.078,0,0,0-1.888-1.289l-17.741-5.692a7.685,7.685,0,0,0-5.734,0l-17.741,5.692a3.078,3.078,0,0,0-1.888,1.289,1.624,1.624,0,0,0-.187.787v12.587a38.028,38.028,0,0,0,14.813,10.479,22.219,22.219,0,0,0,7.87,1.593A22.221,22.221,0,0,0-4165.11-4422.039Z" transform="translate(4195.664 4453.427)" fill="#bfdbff" fill-rule="evenodd"/>
    </g>
    <g id="Group_309" data-name="Group 309" transform="translate(10.723 1.659)">
      <path id="Path_704" data-name="Path 704" d="M-4235.819-4701.426c3.785-1.063,5.383-.057,9.051.9,18.027,4.712,23.737,5.031,40.415,7.012l-1.152-10.6c-.342-3.152-.178-4.15,1.4-5.7,2.492-2.449,6.259-4.333,6.708-11.687-8.109,2.071-9.777,3.359-16.776-.956-20.917-12.9-31.833-2.258-39.028,3.063-6.6-2.4-12.443,2.305-13.394,8.69-.914,6.161-.923,8.189-.923,17.188a27.846,27.846,0,0,1,13.7-7.917Z" transform="translate(4249.522 4728.579)" fill="#ffda8f" fill-rule="evenodd"/>
    </g>
    <g id="Group_310" data-name="Group 310" transform="translate(10.723 36.728)">
      <path id="Path_705" data-name="Path 705" d="M-4240.621-4485.059v-12.587a1.627,1.627,0,0,1,.188-.787l-9.088-17.937v11.224a20.365,20.365,0,0,0,.253,3.12C-4248.384-4496.33-4245.193-4490.212-4240.621-4485.059Z" transform="translate(4249.522 4516.37)" fill="#ffdcd5" fill-rule="evenodd"/>
    </g>
    <g id="Group_311" data-name="Group 311" transform="translate(10.723 28.356)">
      <path id="Path_706" data-name="Path 706" d="M-4238.546-4542.009l17.741-5.691a7.68,7.68,0,0,1,5.734,0l17.741,5.691a3.076,3.076,0,0,1,1.888,1.288l9.088-17.937c-16.678-1.981-22.388-2.3-40.415-7.013-3.668-.96-5.266-1.967-9.051-.9a27.843,27.843,0,0,0-13.7,7.917l9.088,17.937a3.077,3.077,0,0,1,1.888-1.288Z" transform="translate(4249.522 4567.029)" fill="#ffdcd5" fill-rule="evenodd"/>
    </g>
    <g id="Group_312" data-name="Group 312" transform="translate(64.803 36.728)">
      <path id="Path_707" data-name="Path 707" d="M-3922.095-4485.059c4.572-5.153,7.762-11.271,8.648-16.967a20.364,20.364,0,0,0,.253-3.12v-11.224l-9.088,17.937a1.639,1.639,0,0,1,.188.787v12.587Z" transform="translate(3922.282 4516.37)" fill="#ffdcd5" fill-rule="evenodd"/>
    </g>
    <g id="Group_313" data-name="Group 313" transform="translate(73.638 36.728)">
      <path id="Path_708" data-name="Path 708" d="M-3866.089-4502.026c8.142,0,8.807-14.344,1.63-14.344h-4.108v11.224a20.425,20.425,0,0,1-.253,3.12Z" transform="translate(3868.82 4516.37)" fill="#ffdcd5" fill-rule="evenodd"/>
    </g>
    <g id="Group_314" data-name="Group 314" transform="translate(1.652 36.728)">
      <path id="Path_709" data-name="Path 709" d="M-4295.083-4502.026a20.3,20.3,0,0,1-.253-3.12v-11.224h-4.108c-7.177,0-6.512,14.344,1.631,14.344Z" transform="translate(4304.407 4516.37)" fill="#ffdcd5" fill-rule="evenodd"/>
    </g>
    <g id="Group_315" data-name="Group 315" transform="translate(0)">
      <path id="Path_710" data-name="Path 710" d="M-4231.326-4700.887a6.049,6.049,0,0,0-5.08-2.652h-2.626l-.992-9.122c-.325-3-.1-3.349.912-4.344.38-.374.808-.747,1.261-1.141,2.46-2.142,5.521-4.808,5.939-11.625a1.654,1.654,0,0,0-.6-1.375,1.652,1.652,0,0,0-1.462-.328c-.977.25-1.875.492-2.666.7-5.736,1.545-7.277,1.96-12.834-1.465-8.936-5.51-16.937-7.423-24.461-5.851-6.389,1.336-11.047,4.9-14.79,7.761-.327.25-.643.491-.951.724a11,11,0,0,0-8.767,1.087,12.915,12.915,0,0,0-5.956,9.2c-.88,5.934-.937,8.181-.94,15.777h-2.456a6.049,6.049,0,0,0-5.08,2.652,9.428,9.428,0,0,0-1.534,5.369c0,4.667,2.89,9.628,8.245,9.628h1.364a37.547,37.547,0,0,0,8.718,16.336,1.711,1.711,0,0,0,.133.151,43.385,43.385,0,0,0,5.7,5.354,1.645,1.645,0,0,0,1.015.35,1.648,1.648,0,0,0,1.3-.637,1.652,1.652,0,0,0-.288-2.319,40.47,40.47,0,0,1-4.919-4.544v-11.963c0-.014,0-.023,0-.025.018-.025.188-.24.927-.476l17.74-5.691a6.1,6.1,0,0,1,4.726,0l17.743,5.692c.771.246.921.472.923.472a.125.125,0,0,1,0,.028v11.935a36.389,36.389,0,0,1-13.737,9.583,20.635,20.635,0,0,1-7.293,1.489,17.319,17.319,0,0,1-3.219-.313,1.652,1.652,0,0,0-1.929,1.319,1.652,1.652,0,0,0,1.319,1.929,20.541,20.541,0,0,0,3.828.371,23.8,23.8,0,0,0,8.445-1.7,40.308,40.308,0,0,0,17.483-13.365,36.115,36.115,0,0,0,6.771-13.979h1.364c5.355,0,8.245-4.96,8.245-9.628a9.42,9.42,0,0,0-1.534-5.368Zm-74.835,11.692c-3.624,0-4.939-3.782-4.939-6.323a6.125,6.125,0,0,1,.937-3.474,2.723,2.723,0,0,1,2.372-1.242h2.456v9.571c0,.484.021.974.057,1.467h-.882Zm9.726,13.885a30.59,30.59,0,0,1-5.35-12.375c-.005-.067-.246-2.071-.246-2.977v-4.306l5.654,11.159a3.6,3.6,0,0,0-.059.647Zm46.27-11.185a7.142,7.142,0,0,0-.821-.316l-17.742-5.692a9.269,9.269,0,0,0-6.743,0l-17.738,5.691a7.412,7.412,0,0,0-.823.316l-7.621-15.041a25.643,25.643,0,0,1,12.12-6.675,8.7,8.7,0,0,1,3.191-.359,16.1,16.1,0,0,1,2.994.7c.665.2,1.33.393,2,.568,16.043,4.194,22.457,4.939,35.235,6.422l3.054.355Zm7.752-1.185a30.462,30.462,0,0,1-5.35,12.343v-7.826a3.433,3.433,0,0,0-.061-.642l5.657-11.164v4.306a14.867,14.867,0,0,1-.246,2.982Zm-.9-24.625.928,8.533-3.349-.39c-12.625-1.465-18.961-2.2-34.78-6.336-1.31-.343-2.592-.789-3.911-1.1a11.16,11.16,0,0,0-3.807-.248,14.125,14.125,0,0,0-2.2.446,28.549,28.549,0,0,0-11.6,5.788,74.532,74.532,0,0,1,.9-13.225,9.578,9.578,0,0,1,4.376-6.841,7.721,7.721,0,0,1,6.817-.539,1.651,1.651,0,0,0,1.548-.224c.54-.4,1.088-.819,1.67-1.263,7.214-5.518,17.1-13.075,35.508-1.722,6.772,4.175,9.306,3.492,15.428,1.844l.272-.074c-.753,3.735-2.662,5.4-4.517,7.012-.469.409-.955.832-1.408,1.277C-4243.594-4717.23-4243.665-4715.574-4243.31-4712.3Zm5.273,23.109h-.881c.036-.5.055-.985.055-1.467v-9.571h2.456a2.723,2.723,0,0,1,2.372,1.242,6.126,6.126,0,0,1,.937,3.474c0,2.542-1.315,6.323-4.939,6.323Z" transform="translate(4314.406 4738.615)"/>
      <path id="Path_711" data-name="Path 711" d="M-4150.349-4493.829a1.653,1.653,0,0,0-1.653,1.653v1.869a1.653,1.653,0,0,0,1.653,1.652,1.652,1.652,0,0,0,1.652-1.652v-1.869a1.653,1.653,0,0,0-1.652-1.653Z" transform="translate(4178.841 4534.283)"/>
      <path id="Path_712" data-name="Path 712" d="M-3983.157-4493.829a1.653,1.653,0,0,0-1.653,1.653v1.869a1.653,1.653,0,0,0,1.653,1.652,1.652,1.652,0,0,0,1.652-1.652v-1.869a1.653,1.653,0,0,0-1.652-1.653Z" transform="translate(4039.28 4534.283)"/>
      <path id="Path_713" data-name="Path 713" d="M-4131.243-4280.921a1.653,1.653,0,0,0-2.217.739,1.653,1.653,0,0,0,.739,2.217l.01,0a1.635,1.635,0,0,0,.735.175,1.652,1.652,0,0,0,1.477-.916,1.657,1.657,0,0,0-.744-2.22Z" transform="translate(4163.51 4356.707)"/>
    </g>
  </g>
</svg>
