<svg id="p1-2" xmlns="http://www.w3.org/2000/svg" width="74.145" height="74.828" viewBox="0 0 74.145 74.828">
  <g id="Group_283" data-name="Group 283" transform="translate(37.072 5.82)">
    <path id="Path_605" data-name="Path 605" d="M-4897.061-5477.687h-15.354v59.938l4.724,7.972h16.535v-62.005a5.905,5.905,0,0,0-5.905-5.905Z" transform="translate(4912.414 5477.687)" fill="#bed8fb"/>
  </g>
  <g id="Group_284" data-name="Group 284" transform="translate(15.813 5.82)">
    <path id="Path_606" data-name="Path 606" d="M-5023.34-5477.687h15.354v59.938l-4.724,7.972h-16.535v-62.005a5.905,5.905,0,0,1,5.905-5.905Z" transform="translate(5029.245 5477.687)" fill="#bed8fb"/>
  </g>
  <g id="Group_285" data-name="Group 285" transform="translate(15.813 36.934)">
    <path id="Path_607" data-name="Path 607" d="M-5029.245-5273.493v-33.2l7.438,28.2a2.953,2.953,0,0,1-2.109,3.61Z" transform="translate(5029.245 5306.697)" fill="#9dc6fb"/>
  </g>
  <g id="Group_286" data-name="Group 286" transform="translate(1.096 5.82)">
    <path id="Path_608" data-name="Path 608" d="M-5091.772-5477.687h3.45v27.651h-7.086l-1.919,3.944,6.881,28.483-12.048,3.1-7.469-31.21a5.906,5.906,0,0,1,.47-4.033l12.448-24.691a5.9,5.9,0,0,1,5.273-3.247Z" transform="translate(5110.126 5477.687)" fill="#bed8fb"/>
  </g>
  <g id="Group_287" data-name="Group 287" transform="translate(27.624 1.096)">
    <path id="Path_609" data-name="Path 609" d="M-4964.339-5503.649l9.448,4.724,9.449-4.724Z" transform="translate(4964.339 5503.649)" fill="#80b4fb"/>
  </g>
  <g id="Group_288" data-name="Group 288" transform="translate(24.376 1.096)">
    <path id="Path_610" data-name="Path 610" d="M-4969.492-5498.925l-6.2,7.972-6.5-7.972,3.248-4.724Z" transform="translate(4982.188 5503.649)" fill="#9dc6fb"/>
  </g>
  <g id="Group_289" data-name="Group 289" transform="translate(37.072 1.096)">
    <path id="Path_611" data-name="Path 611" d="M-4912.414-5498.925l6.2,7.972,6.5-7.972-3.248-4.724Z" transform="translate(4912.414 5503.649)" fill="#9dc6fb"/>
  </g>
  <g id="Group_290" data-name="Group 290" transform="translate(50.795 36.934)">
    <path id="Path_612" data-name="Path 612" d="M-4829.463-5273.493v-33.2l-7.438,28.2a2.953,2.953,0,0,0,2.109,3.61Z" transform="translate(4837 5306.697)" fill="#9dc6fb"/>
  </g>
  <g id="Group_291" data-name="Group 291" transform="translate(51.245 5.82)">
    <path id="Path_613" data-name="Path 613" d="M-4831.077-5477.687h-3.45v27.651h7.086l1.919,3.944-6.881,28.483,12.048,3.1,7.469-31.21a5.906,5.906,0,0,0-.47-4.033l-12.449-24.691a5.9,5.9,0,0,0-5.273-3.247Z" transform="translate(4834.527 5477.687)" fill="#bed8fb"/>
  </g>
  <g id="Group_292" data-name="Group 292" transform="translate(51.245 5.82)">
    <path id="Path_614" data-name="Path 614" d="M-4813.355-5449.748l-12.449-24.691a5.9,5.9,0,0,0-5.273-3.247h-3.45v0a5.9,5.9,0,0,1,5.18,3.244l12.935,25.657a2.952,2.952,0,0,1,.235,2.016l-7.515,31.4,3.337.86,7.469-31.21a5.909,5.909,0,0,0-.47-4.033Z" transform="translate(4834.527 5477.686)" fill="#9dc6fb"/>
  </g>
  <g id="Group_293" data-name="Group 293" transform="translate(44.159 25.124)">
    <path id="Path_615" data-name="Path 615" d="M-4864.022-5361.713l-4.724,1.477-4.724-1.477v-9.891h9.448Z" transform="translate(4873.47 5371.604)" fill="#9dc6fb"/>
  </g>
  <g id="Group_294" data-name="Group 294" transform="translate(0 0)">
    <path id="Path_616" data-name="Path 616" d="M-4814.894-5385.877l-6.314-12.525a1.1,1.1,0,0,0-1.473-.485,1.1,1.1,0,0,0-.485,1.472l6.314,12.525a4.812,4.812,0,0,1,.383,3.284l-7.209,30.125-9.922-2.558,6.627-27.433a1.1,1.1,0,0,0-.08-.737l-1.809-3.717v-7.092a1.1,1.1,0,0,0-1.1-1.1,1.1,1.1,0,0,0-1.1,1.1v19.1l-4.931,20.411a1.1,1.1,0,0,0,.792,1.319l4.139,1.067v4.61h-5.454a1.1,1.1,0,0,0-1.1,1.1,1.1,1.1,0,0,0,1.1,1.1h6.55a1.1,1.1,0,0,0,1.1-1.1v-5.141l5.717,1.473a1.082,1.082,0,0,0,.273.035,1.1,1.1,0,0,0,.565-.157,1.1,1.1,0,0,0,.5-.684l7.469-31.21a7.012,7.012,0,0,0-.558-4.781Z" transform="translate(4888.289 5419.143)"/>
    <path id="Path_617" data-name="Path 617" d="M-5069.495-5437.038h-4.232l-4.252-7.176v-5.679h1a1.1,1.1,0,0,0,1.1-1.1,1.1,1.1,0,0,0-1.1-1.1h-1v-4.3h1a1.1,1.1,0,0,0,1.1-1.1,1.1,1.1,0,0,0-1.1-1.1h-1v-4.3h1a1.1,1.1,0,0,0,1.1-1.1,1.1,1.1,0,0,0-1.1-1.1h-1v-4.3h1a1.1,1.1,0,0,0,1.1-1.1,1.1,1.1,0,0,0-1.1-1.1h-1v-4.3h1a1.1,1.1,0,0,0,1.1-1.1,1.1,1.1,0,0,0-1.1-1.1h-1v-4.3h1a1.1,1.1,0,0,0,1.1-1.1,1.1,1.1,0,0,0-1.1-1.1h-1v-4.3h1a1.1,1.1,0,0,0,1.1-1.1,1.1,1.1,0,0,0-1.1-1.1h-1v-9.6l4.239,5.451a1.1,1.1,0,0,0,.853.423h.013a1.1,1.1,0,0,0,.85-.4l6.167-7.568h4.406a4.785,4.785,0,0,1,4.294,2.644l3.82,7.577a1.1,1.1,0,0,0,.98.6,1.094,1.094,0,0,0,.492-.118,1.1,1.1,0,0,0,.486-1.472l-3.82-7.577a6.966,6.966,0,0,0-6.251-3.85h-4.35l-2.921-4.249a1.1,1.1,0,0,0-.9-.475h-18.9a1.1,1.1,0,0,0-.9.475l-2.921,4.249h-4.35a6.967,6.967,0,0,0-6.252,3.85l-12.448,24.692a7.009,7.009,0,0,0-.557,4.781l3.881,16.22a1.1,1.1,0,0,0,1.065.841,1.1,1.1,0,0,0,.256-.03,1.1,1.1,0,0,0,.811-1.321l-3.882-16.22a4.812,4.812,0,0,1,.383-3.284l12.448-24.691a4.785,4.785,0,0,1,4.294-2.645h4.406l6.167,7.568a1.1,1.1,0,0,0,.85.4h.013a1.1,1.1,0,0,0,.853-.423l4.239-5.45v56.444l-4.253,7.176h-14.814v-4.61l4.139-1.067a1.1,1.1,0,0,0,.792-1.319l-4.931-20.411v-19.1a1.1,1.1,0,0,0-1.1-1.1,1.1,1.1,0,0,0-1.1,1.1v7.092l-1.809,3.717a1.1,1.1,0,0,0-.08.737l6.627,27.434-9.922,2.557-2.136-8.924a1.1,1.1,0,0,0-1.321-.811,1.1,1.1,0,0,0-.811,1.321l2.4,10.009a1.094,1.094,0,0,0,.5.684,1.092,1.092,0,0,0,.565.157,1.111,1.111,0,0,0,.273-.035l5.717-1.473v5.141a1.1,1.1,0,0,0,1.1,1.1h16.535a1.1,1.1,0,0,0,.943-.537l3.781-6.381,3.781,6.381a1.1,1.1,0,0,0,.943.537h4.856a1.1,1.1,0,0,0,1.1-1.1A1.1,1.1,0,0,0-5069.495-5437.038Zm-9.581-68.04-4.805-2.4h9.611Zm11.328,1.17-5.107,6.268-4.535-5.83,7.4-3.7Zm-17.548,6.268-5.107-6.269,2.243-3.261,7.4,3.7Z" transform="translate(5116.147 5509.673)"/>
    <path id="Path_618" data-name="Path 618" d="M-4867.854-5366.641v-9.891a1.1,1.1,0,0,0-1.1-1.1h-9.448a1.1,1.1,0,0,0-1.1,1.1v9.891a1.1,1.1,0,0,0,.769,1.046l4.724,1.477a1.1,1.1,0,0,0,.327.05,1.115,1.115,0,0,0,.327-.05l4.724-1.477a1.1,1.1,0,0,0,.77-1.046Zm-2.192-.806-3.628,1.134-3.628-1.134v-7.989h7.256Z" transform="translate(4922.557 5401.655)"/>
  </g>
</svg>
