<svg xmlns="http://www.w3.org/2000/svg" width="86.848" height="87.343" viewBox="0 0 86.848 87.343">
  <g id="p1-3" transform="translate(-4507.14 -1553.088)">
    <path id="Path_619" data-name="Path 619" d="M-4396.484-5447.065h-4.367l-16.013-36.393h-8.278a11.646,11.646,0,0,1-8.234-3.411l-4.824-4.824a11.646,11.646,0,0,1-3.411-8.235v-5.616a2.911,2.911,0,0,0-2.912-2.911,2.912,2.912,0,0,0-2.059.853l-19.777,19.777-1.917,1.917a11.645,11.645,0,0,0,0,16.469h0l14.2,14.2a2.912,2.912,0,0,0,2.059.853h4.579a2.911,2.911,0,0,1,2.911,2.911v4.655a2.912,2.912,0,0,0,.853,2.059l12.1,12.1a20.38,20.38,0,0,0,14.412,5.968h23.583a5.823,5.823,0,0,0,5.823-5.823v-5.823A8.734,8.734,0,0,0-4396.484-5447.065Z" transform="translate(8980.282 7065.66)" fill="#606669"/>
    <path id="Path_620" data-name="Path 620" d="M-4358.026-5485.233l37.849-37.849h-40.76l-17.469,17.468Z" transform="translate(8903.976 7077.625)" fill="#f5cbaa"/>
    <path id="Path_621" data-name="Path 621" d="M-4216.216-5407.437v-8.734a2.911,2.911,0,0,0-2.912-2.911h-4.367a2.911,2.911,0,0,0-2.911,2.911v8.734Z" transform="translate(8779.634 6992.55)" fill="#fde575"/>
    <path id="Path_622" data-name="Path 622" d="M-4418.511-5507.6h0a2.912,2.912,0,0,0-4.118,0h0l-19.777,19.777,47.289,47.289a17.469,17.469,0,0,0,12.353,5.116h18.967v-2.911a8.734,8.734,0,0,0-8.734-8.734h-4.367l-16.013-36.393h-8.277a11.648,11.648,0,0,1-8.235-3.411l-4.824-4.824a11.646,11.646,0,0,1-3.411-8.235v-5.616A2.912,2.912,0,0,0-4418.511-5507.6Z" transform="translate(8956.33 7065.66)" fill="#fde575"/>
    <path id="Path_623" data-name="Path 623" d="M-4430.76-5432.106a11.611,11.611,0,0,1-3.41,8.236l-8.236-8.236,8.236-8.235A11.611,11.611,0,0,1-4430.76-5432.106Z" transform="translate(8956.33 7009.941)" fill="#99a2a7"/>
    <path id="Path_624" data-name="Path 624" d="M-4317.082-5474.724H-4329.7a17.464,17.464,0,0,1-12.352-5.117l-7.235-7.235a17.464,17.464,0,0,1-5.117-12.352v-4.411l3.765-3.765a2.912,2.912,0,0,1,4.118,0,2.914,2.914,0,0,1,.852,2.059v5.616a11.645,11.645,0,0,0,3.412,8.235l4.822,4.822a11.646,11.646,0,0,0,8.235,3.412h8.278Z" transform="translate(8884.343 7065.66)" fill="#99a2a7"/>
    <path id="Path_625" data-name="Path 625" d="M-4187.114-5334.689h-3.479a5.824,5.824,0,0,1-5.33-3.478l-14.482-32.916h7.278Z" transform="translate(8766.545 6953.284)" fill="#ebd46c"/>
    <path id="Path_626" data-name="Path 626" d="M-4403.028-5467.03h-3.417l-3.2-7.279h.8a1.456,1.456,0,0,0,1.456-1.456,1.456,1.456,0,0,0-1.456-1.456h-2.078l-1.281-2.911h.448a1.456,1.456,0,0,0,1.456-1.456,1.456,1.456,0,0,0-1.456-1.456h-1.729l-1.281-2.911h.1a1.456,1.456,0,0,0,1.456-1.456,1.455,1.455,0,0,0-1.456-1.456h-1.379l-1.291-2.933a1.455,1.455,0,0,0,1.184-1.684,1.455,1.455,0,0,0-1.425-1.206h-1.03l-3.337-7.584v-5.517a4.416,4.416,0,0,0-.071-.781L-4402-5528.6a1.456,1.456,0,0,0,0-2.059,1.457,1.457,0,0,0-1.029-.427h-40.76a1.456,1.456,0,0,0-1.029.427l-3.347,3.347a4.369,4.369,0,0,0-5.991.167l-19.777,19.777-1.917,1.917a13.1,13.1,0,0,0,0,18.528h0l14.2,14.2a4.34,4.34,0,0,0,3.088,1.279h4.579a1.457,1.457,0,0,1,1.456,1.456v4.655a4.34,4.34,0,0,0,1.279,3.088l12.1,12.1a21.693,21.693,0,0,0,15.44,6.4h23.584a7.287,7.287,0,0,0,7.279-7.278v-5.823A10.2,10.2,0,0,0-4403.028-5467.03Zm0,2.911a7.287,7.287,0,0,1,7.278,7.279v1.456h-17.511a15.907,15.907,0,0,1-11.323-4.69l-38.083-38.083a13.1,13.1,0,0,0,0-16.355l4.321-4.321v.9a18.8,18.8,0,0,0,5.543,13.38l7.236,7.236a18.8,18.8,0,0,0,13.38,5.543h4.393l1.281,2.911h-4.174a1.455,1.455,0,0,0-1.456,1.456,1.456,1.456,0,0,0,1.456,1.456h5.455l1.281,2.911h-3.825a1.456,1.456,0,0,0-1.456,1.456,1.456,1.456,0,0,0,1.456,1.456h5.105l1.281,2.911h-3.476a1.456,1.456,0,0,0-1.456,1.456,1.456,1.456,0,0,0,1.456,1.456h4.756l2.571,5.843a7.281,7.281,0,0,0,6.663,4.347Zm-6.6-2.911h-1.248a4.369,4.369,0,0,1-4-2.608l-2.055-4.67h4.1Zm-4.484-10.19h-4.1l-1.281-2.911h4.1Zm-2.562-5.823h-4.1l-1.281-2.911h4.1Zm-6.66-5.823-1.281-2.911h4.1l1.281,2.911Zm-2.562-5.823-2.562-5.823h4.1l2.562,5.823Zm1.03-8.734h-6.822c-.153,0-.305,0-.457-.011v-4.356a1.457,1.457,0,0,1,1.456-1.456h4.367a1.458,1.458,0,0,1,1.456,1.456Zm-18.321-24.747h36.643l-17.007,17.007a4.348,4.348,0,0,0-2.77-.994h-4.367a4.372,4.372,0,0,0-4.367,4.367v3.8a10.151,10.151,0,0,1-3.837-2.415l-4.824-4.824a10.12,10.12,0,0,1-2.984-7.206v-5.616a4.47,4.47,0,0,0-.038-.565Zm-8.911,3.088a1.456,1.456,0,0,1,2.059,0,1.455,1.455,0,0,1,.426,1.029v5.616a13.015,13.015,0,0,0,3.837,9.264l4.824,4.824a13.016,13.016,0,0,0,9.264,3.838h.049l2.562,5.823h-3.112a15.908,15.908,0,0,1-11.322-4.689l-7.237-7.236a15.908,15.908,0,0,1-4.689-11.322v-3.808Zm-12.644,12.644a10.2,10.2,0,0,1,0,12.208l-6.1-6.1Zm64.624,65.788h-4.367v-1.456a1.456,1.456,0,0,0-1.456-1.456,1.455,1.455,0,0,0-1.456,1.456v1.456h-8.734v-1.456a1.456,1.456,0,0,0-1.456-1.456,1.456,1.456,0,0,0-1.456,1.456v1.456h-4.66a18.781,18.781,0,0,1-12.154-4.418l3.287-3.286a1.457,1.457,0,0,0,0-2.06,1.457,1.457,0,0,0-2.06,0l-3.337,3.337-6.675-6.675,3.338-3.337a1.457,1.457,0,0,0,0-2.06,1.457,1.457,0,0,0-2.06,0l-3.337,3.338-2.485-2.484a1.446,1.446,0,0,1-.426-1.029v-4.655a4.372,4.372,0,0,0-4.367-4.367h-4.579a1.447,1.447,0,0,1-1.03-.426l-5.4-5.4,3.3-3.3a1.457,1.457,0,0,0,0-2.06,1.457,1.457,0,0,0-2.06,0l-3.3,3.3-6.674-6.674,3.3-3.3a1.457,1.457,0,0,0,0-2.06,1.457,1.457,0,0,0-2.06,0h0l-3.022,3.022a10.2,10.2,0,0,1,1.708-12.147l.888-.888,46.26,46.26a18.8,18.8,0,0,0,13.381,5.543h17.511v1.456A4.372,4.372,0,0,1-4400.117-5446.65Z" transform="translate(8986.826 7084.169)"/>
  </g>
</svg>
