<svg xmlns="http://www.w3.org/2000/svg" width="113.643" height="85.234" viewBox="0 0 113.643 85.234">
  <g id="p1-4" transform="translate(-4620.259 -1549.775)">
    <path id="Path_630" data-name="Path 630" d="M-3467.691-5485.383v-9.47a28.4,28.4,0,0,1,28.411-28.411h4.735a4.749,4.749,0,0,1,4.735,4.735v66.292a4.749,4.749,0,0,1-4.735,4.735h-4.735a28.4,28.4,0,0,1-28.411-28.411Z" transform="translate(8158.978 7077.774)" fill="#4dd0e1"/>
    <path id="Path_631" data-name="Path 631" d="M-3595.416-5369.474v4.735h-28.411v-28.411h28.411v23.676Z" transform="translate(8286.703 6971.336)" fill="#ff7043"/>
    <path id="Path_632" data-name="Path 632" d="M-3794.127-5485.383v9.471a28.4,28.4,0,0,1-28.411,28.411h-4.735a4.749,4.749,0,0,1-4.735-4.735v-66.292a4.749,4.749,0,0,1,4.735-4.735h4.735a28.4,28.4,0,0,1,28.411,28.411Z" transform="translate(8457.004 7077.774)" fill="#4dd0e1"/>
    <path id="Path_633" data-name="Path 633" d="M-3753.858-5549.287h-4.735a33.193,33.193,0,0,0-31.75,23.676h-21.735a33.193,33.193,0,0,0-31.75-23.676h-4.735a9.48,9.48,0,0,0-9.47,9.471v66.292a9.48,9.48,0,0,0,9.47,9.471h4.735a33.194,33.194,0,0,0,31.75-23.676h21.732a33.194,33.194,0,0,0,31.75,23.676h4.735a9.48,9.48,0,0,0,9.47-9.471v-66.292A9.476,9.476,0,0,0-3753.858-5549.287Zm-89.969,75.763h-4.735v-66.292h4.735a23.7,23.7,0,0,1,23.676,23.676v.623l-6.845-4.562a4.733,4.733,0,0,0-6.565,1.314,4.733,4.733,0,0,0,1.314,6.565l8.3,5.531-8.3,5.53a4.736,4.736,0,0,0-1.314,6.565,4.722,4.722,0,0,0,3.944,2.109,4.69,4.69,0,0,0,2.621-.8l6.845-4.562v.623A23.7,23.7,0,0,1-3843.826-5473.524Zm33.146-23.676v-18.941h18.941v18.941Zm56.823,23.676h-4.735a23.7,23.7,0,0,1-23.676-23.676v-.623l6.844,4.562a4.691,4.691,0,0,0,2.621.8,4.732,4.732,0,0,0,3.945-2.109,4.734,4.734,0,0,0-1.314-6.565l-8.3-5.53,8.3-5.531a4.735,4.735,0,0,0,1.314-6.565,4.732,4.732,0,0,0-6.566-1.314l-6.844,4.562v-.623a23.7,23.7,0,0,1,23.676-23.676h4.735Z" transform="translate(8478.291 7099.062)" fill="#012e52"/>
  </g>
</svg>
