<svg xmlns="http://www.w3.org/2000/svg" width="55.317" height="82.976" viewBox="0 0 55.317 82.976">
  <g id="p1-5" transform="translate(0 0)">
    <g id="Group_296" data-name="Group 296" transform="translate(17.469 1.456)">
      <path id="Path_634" data-name="Path 634" d="M-2887.425-5514.166l-10.19,11.646-10.19-11.646h5.823v-26.2h8.734v26.2Z" transform="translate(2907.805 5540.368)" fill="#ffeaa7"/>
    </g>
    <g id="Group_297" data-name="Group 297" transform="translate(1.456 46.583)">
      <path id="Path_635" data-name="Path 635" d="M-2946.311-5257.431h-46.583a2.911,2.911,0,0,1-2.911-2.911v-29.114a2.911,2.911,0,0,1,2.911-2.912h46.583a2.911,2.911,0,0,1,2.912,2.912v29.114A2.911,2.911,0,0,1-2946.311-5257.431Z" transform="translate(2995.805 5292.368)" fill="#cf9e76"/>
    </g>
    <g id="Group_298" data-name="Group 298" transform="translate(18.924 46.583)">
      <path id="Path_636" data-name="Path 636" d="M-2899.8-5292.368h17.469v11.646H-2899.8Z" transform="translate(2899.805 5292.368)" fill="#b27946"/>
    </g>
    <path id="Path_637" data-name="Path 637" d="M-2948.488-5279.988V-5296a4.373,4.373,0,0,0-4.367-4.367h-46.583A4.372,4.372,0,0,0-3003.8-5296v29.114a4.372,4.372,0,0,0,4.367,4.367h46.583a4.373,4.373,0,0,0,4.367-4.367v-1.456m-26.2-26.2v5.823h-2.912v-5.823h-2.911v5.823h-2.911v-8.734h14.557v8.734h-2.912v-5.823Zm23.291,27.659a1.456,1.456,0,0,1-1.456,1.456h-46.583a1.456,1.456,0,0,1-1.456-1.456V-5296a1.457,1.457,0,0,1,1.456-1.456h13.1v11.646h20.38v-11.646h13.1A1.456,1.456,0,0,1-2951.4-5296v29.114Z" transform="translate(3003.805 5345.495)"/>
    <path id="Path_638" data-name="Path 638" d="M-2898.64-5522.166h-7.576v-26.2h-11.646v26.2h-7.576l13.4,15.313Zm-16.31,2.912v-26.2h5.823v26.2h4.07l-6.981,7.979-6.982-7.979Z" transform="translate(2939.697 5548.368)"/>
    <path id="Path_639" data-name="Path 639" d="M-2971.8-5140.368h2.911v2.911h-2.911Z" transform="translate(2977.628 5214.609)"/>
    <path id="Path_640" data-name="Path 640" d="M-2907.805-5140.368h2.912v2.911h-2.912Z" transform="translate(2925.274 5214.609)"/>
    <path id="Path_641" data-name="Path 641" d="M-2939.8-5140.368h2.911v2.911h-2.911Z" transform="translate(2951.451 5214.609)"/>
    <path id="Path_642" data-name="Path 642" d="M-2971.8-5172.368h14.557v2.911H-2971.8Z" transform="translate(2977.628 5240.787)"/>
  </g>
</svg>
