<svg xmlns="http://www.w3.org/2000/svg" width="87.186" height="94.43" viewBox="0 0 87.186 94.43">
  <g id="p1-6" transform="translate(-6940 -4614)">
    <g id="icon-18" transform="translate(5663.041 9358.245)">
      <path id="Path_427" data-name="Path 427" d="M1343.768-4686.215v-21.612a6.41,6.41,0,0,0-5.358-6.323l-.26-.043a3.7,3.7,0,0,1-2.826-3.6v-10.731a9.367,9.367,0,0,1,4.709-8.119h-9.418A14.614,14.614,0,0,0,1316-4722.027v4.253a3.7,3.7,0,0,1-2.805,3.593h0a6.41,6.41,0,0,0-5.314,6.315v21.689a6.409,6.409,0,0,0,5.314,6.315h0a3.7,3.7,0,0,1,2.805,3.593v4.578a14.614,14.614,0,0,0,14.614,14.614h9.418a9.367,9.367,0,0,1-4.709-8.119v-11.056a3.7,3.7,0,0,1,2.826-3.6l.26-.043A6.41,6.41,0,0,0,1343.768-4686.215Z" transform="translate(-25.971 -6.386)" fill="#06cc93"/>
      <path id="Path_428" data-name="Path 428" d="M1384.912-4706.116l-2.4-.414a17.037,17.037,0,0,1,.733-2.858l2.294.818A14.625,14.625,0,0,0,1384.912-4706.116Zm1.56-4.424-2.079-1.269a17.131,17.131,0,0,1,5.637-5.359l1.328,2.042A14.681,14.681,0,0,0,1386.472-4710.54Z" transform="translate(-88.647 -22.741)" fill="#fff"/>
      <path id="Path_429" data-name="Path 429" d="M1492.7-4736.641h-8.768a9.367,9.367,0,0,0-4.709,8.119h6.82c8.968,0,11.366,4.022,11.366,12.99v37.347c0,8.968-2.4,12.99-11.366,12.99h-6.82a9.367,9.367,0,0,0,4.709,8.119h8.768a16.238,16.238,0,0,0,16.238-16.238V-4720.4A16.238,16.238,0,0,0,1492.7-4736.641Z" transform="translate(-169.871 -6.386)" fill="#06cc93"/>
      <g id="Group_214" data-name="Group 214" transform="translate(1309.354 -4743.027)">
        <path id="Path_430" data-name="Path 430" d="M1604.181-4610.717v-3.248h-11.552l.024,3.248Z" transform="translate(-1574.466 4633.612)" fill="#00a371"/>
        <path id="Path_431" data-name="Path 431" d="M1484.421-4290.542h-5.2a9.367,9.367,0,0,0,4.709,8.119h5.2A9.367,9.367,0,0,1,1484.421-4290.542Z" transform="translate(-1479.225 4361.988)" fill="#00a371"/>
        <path id="Path_432" data-name="Path 432" d="M1479.225-4728.522h5.2a9.367,9.367,0,0,1,4.709-8.119h-5.2A9.367,9.367,0,0,0,1479.225-4728.522Z" transform="translate(-1479.225 4736.641)" fill="#00a371"/>
      </g>
      <path id="Path_433" data-name="Path 433" d="M1361.194-4537.5h-19.647a3.247,3.247,0,0,1-3.248-3.248v-16.237a3.247,3.247,0,0,1,3.248-3.248h19.647a3.247,3.247,0,0,1,3.247,3.248v16.237A3.247,3.247,0,0,1,1361.194-4537.5Z" transform="translate(-51.515 -154.545)" fill="#eebf00"/>
      <path id="Path_434" data-name="Path 434" d="M1361.194-4523.714h-19.647a3.248,3.248,0,0,1-3.248-3.248v-9.743a3.248,3.248,0,0,1,3.248-3.248h19.647a3.248,3.248,0,0,1,3.247,3.248v9.743A3.248,3.248,0,0,1,1361.194-4523.714Z" transform="translate(-51.515 -171.574)" fill="#ffda44"/>
      <path id="Path_435" data-name="Path 435" d="M1604.307-4552.118h-11.529v26.731a8.968,8.968,0,0,0,5.764,2.091,8.971,8.971,0,0,0,5.764-2.091Z" transform="translate(-265.238 -161.357)" fill="#00a371"/>
      <path id="Path_436" data-name="Path 436" d="M1598.542-4510.366h0a5.764,5.764,0,0,1-5.764-5.764v-16.725h11.529v16.725A5.764,5.764,0,0,1,1598.542-4510.366Z" transform="translate(-265.238 -177.535)" fill="#06cc93"/>
      <rect id="Rectangle_85" data-name="Rectangle 85" width="11.529" height="3.247" transform="translate(1327.54 -4710.39)" fill="#00a371"/>
      <rect id="Rectangle_86" data-name="Rectangle 86" width="14.614" height="9.743" transform="translate(1326.078 -4720.132)" fill="#eebf00"/>
      <g id="Group_215" data-name="Group 215" transform="translate(1284.616 -4722.73)">
        <path id="Path_437" data-name="Path 437" d="M1352.59-4607.715l-.26-.043a3.7,3.7,0,0,1-2.529-2.151h-19.909a3.7,3.7,0,0,1-2.516,2.163h0a6.4,6.4,0,0,0-2.609,1.085h30.421A6.381,6.381,0,0,0,1352.59-4607.715Z" transform="translate(-1324.767 4609.909)" fill="#00a371"/>
        <path id="Path_438" data-name="Path 438" d="M1329.821-4385.845a6.412,6.412,0,0,0,1.8.6h0a3.7,3.7,0,0,1,2.683,2.65h19.573a3.7,3.7,0,0,1,2.7-2.638l.26-.043a6.4,6.4,0,0,0,1.766-.566Z" transform="translate(-1329.012 4421.73)" fill="#00a371"/>
      </g>
      <rect id="Rectangle_87" data-name="Rectangle 87" width="11.366" height="9.743" transform="translate(1329.326 -4720.132)" fill="#ffda44"/>
      <path id="Path_439" data-name="Path 439" d="M1359.273-4547.13v-16.237a4.47,4.47,0,0,0-4.465-4.465H1335.16a4.47,4.47,0,0,0-4.465,4.465v16.237a4.47,4.47,0,0,0,4.465,4.465h19.647A4.47,4.47,0,0,0,1359.273-4547.13Zm-26.143,0v-16.237a2.032,2.032,0,0,1,2.03-2.03h19.648a2.032,2.032,0,0,1,2.03,2.03v16.237a2.032,2.032,0,0,1-2.03,2.03H1335.16A2.032,2.032,0,0,1,1333.13-4547.13Z" transform="translate(-45.129 -148.159)"/>
      <rect id="Rectangle_88" data-name="Rectangle 88" width="2.436" height="2.436" transform="translate(1332.005 -4697.237)"/>
      <rect id="Rectangle_89" data-name="Rectangle 89" width="2.436" height="2.436" transform="translate(1332.005 -4702.108)"/>
      <rect id="Rectangle_90" data-name="Rectangle 90" width="2.436" height="2.436" transform="translate(1332.005 -4706.98)"/>
      <path id="Path_440" data-name="Path 440" d="M1358.069-4510.277h7.307v-9.9h-7.307Zm2.436-7.469h2.436v5.034H1360.5v-5.034Z" transform="translate(-68.119 -188.178)"/>
      <path id="Path_441" data-name="Path 441" d="M1445.47-4520.182h-7.307v9.9h7.307Zm-2.436,7.469H1440.6v-5.034h2.436v5.034Z" transform="translate(-135.386 -188.178)"/>
      <rect id="Rectangle_91" data-name="Rectangle 91" width="2.436" height="4.871" transform="translate(1276.96 -4714.774)"/>
      <rect id="Rectangle_92" data-name="Rectangle 92" width="2.436" height="4.871" transform="translate(1276.96 -4696.75)"/>
      <rect id="Rectangle_93" data-name="Rectangle 93" width="2.436" height="2.436" transform="translate(1298.718 -4702.108)"/>
      <rect id="Rectangle_94" data-name="Rectangle 94" width="2.436" height="2.436" transform="translate(1298.718 -4706.98)"/>
      <path id="Path_442" data-name="Path 442" d="M1361.494-4721.35h-1.624v-5.439a17.475,17.475,0,0,0-17.455-17.456h-18.186a15.85,15.85,0,0,0-15.832,15.832v4.253a2.482,2.482,0,0,1-1.846,2.4,7.614,7.614,0,0,0-6.273,7.507v21.689a7.613,7.613,0,0,0,6.273,7.506,2.483,2.483,0,0,1,1.846,2.4v4.578a15.85,15.85,0,0,0,15.832,15.832h18.186a17.475,17.475,0,0,0,17.455-17.455v-29.472h1.624v-12.178Zm-2.436,9.743H1346.88v-7.307h12.178Zm-13.152,17.942v9.093c0,4.537-.632,7.34-2.049,9.092-1.479,1.829-4.053,2.681-8.1,2.681h-5.6v-9.838a2.479,2.479,0,0,1,1.857-2.4l.21-.035a7.6,7.6,0,0,0,6.376-7.524v-21.612a7.6,7.6,0,0,0-6.376-7.524l-.211-.035a2.479,2.479,0,0,1-1.857-2.4v-9.513h5.6c4.046,0,6.62.852,8.1,2.68,1.417,1.751,2.049,4.556,2.049,9.092v.568h-1.461v12.178h1.461Zm-3.491-48.145a15.037,15.037,0,0,1,15.02,15.02v5.439h-9.093v-.568c0-5.132-.8-8.409-2.591-10.624-1.978-2.445-5.154-3.584-9.993-3.584h-5.509c.014-.1.029-.19.047-.284.007-.04.013-.08.021-.119q.048-.238.11-.472c.01-.038.022-.074.033-.112.033-.119.069-.236.107-.352.018-.054.037-.106.056-.16q.054-.15.113-.3c.022-.055.045-.109.068-.164.043-.1.088-.2.135-.3.023-.048.045-.1.069-.144q.1-.191.2-.377c.009-.016.017-.032.026-.047.081-.139.167-.274.256-.409.028-.042.057-.082.086-.123.064-.093.13-.185.2-.274.036-.048.073-.095.11-.142q.1-.125.2-.248l.117-.135c.078-.087.159-.173.241-.257.034-.035.066-.07.1-.1.118-.117.239-.231.364-.343.021-.019.043-.036.064-.054q.159-.139.327-.272c.045-.036.092-.07.138-.1.092-.07.185-.139.28-.206l.156-.107.124-.08h8.41Zm-18.186,77.129a13.411,13.411,0,0,1-13.4-13.4v-4.578a4.913,4.913,0,0,0-3.728-4.774l-.087-.019a5.182,5.182,0,0,1-4.3-5.116v-21.689a5.182,5.182,0,0,1,4.3-5.116l.087-.019a4.914,4.914,0,0,0,3.728-4.774v-4.253a13.411,13.411,0,0,1,13.4-13.4h6.07c-.094.106-.184.215-.272.325l-.073.092c-.068.085-.134.172-.2.26l-.064.086c-.082.113-.162.227-.239.343l-.038.059q-.1.147-.188.3l-.063.1q-.088.148-.17.3l-.039.069q-.1.182-.189.368l-.045.094q-.069.146-.134.294c-.016.037-.032.073-.047.11-.053.125-.1.251-.152.378l0,.008c-.049.13-.094.261-.138.393l-.036.114q-.049.154-.093.31c-.01.035-.02.069-.03.1q-.055.2-.1.4c-.006.025-.01.05-.016.075q-.038.17-.07.343c-.008.041-.015.082-.022.123-.02.115-.038.23-.054.346,0,.026-.008.052-.011.079q-.028.209-.047.422c0,.037-.006.073-.009.109q-.014.166-.022.332c0,.042,0,.083-.006.125-.006.144-.01.289-.01.435v10.73a4.909,4.909,0,0,0,3.755,4.781l.348.062a5.176,5.176,0,0,1,4.34,5.122v21.612a5.175,5.175,0,0,1-4.34,5.122l-.26.043-.089.018a4.909,4.909,0,0,0-3.755,4.781v11.056c0,.146,0,.291.01.435,0,.042,0,.083.006.125q.008.167.022.333c0,.036.005.073.009.109.013.141.028.282.047.422,0,.026.008.052.011.078.016.116.034.231.054.347.007.041.015.082.022.123q.032.173.07.343l.016.075q.047.2.1.4c.01.035.02.069.03.1q.044.156.093.309c.012.038.024.076.036.114.044.132.089.263.138.393l0,.008c.048.127.1.253.152.378l.047.109q.065.149.134.294l.045.094q.09.186.188.368l.039.069q.082.15.17.3l.063.1q.091.15.188.3l.038.059c.077.116.157.23.239.343l.064.086q.1.131.2.26l.073.092c.089.11.179.218.272.325h-6.07Zm18.186,0H1334c-.041-.027-.083-.053-.124-.08l-.156-.107c-.1-.067-.188-.136-.28-.206-.046-.035-.093-.069-.138-.1q-.168-.133-.327-.271c-.021-.019-.043-.036-.064-.054-.126-.111-.247-.226-.364-.343-.034-.034-.067-.07-.1-.1-.082-.084-.163-.17-.241-.257-.04-.044-.079-.09-.117-.135q-.1-.122-.2-.248c-.037-.047-.074-.094-.11-.141-.068-.09-.134-.182-.2-.275-.029-.041-.058-.082-.086-.123-.089-.134-.175-.27-.256-.409-.009-.016-.017-.032-.026-.047q-.107-.186-.2-.377c-.024-.048-.046-.1-.069-.144-.047-.1-.092-.2-.135-.3-.023-.054-.046-.108-.068-.164q-.06-.148-.113-.3c-.019-.053-.038-.106-.056-.16-.039-.116-.074-.234-.107-.352-.01-.038-.023-.075-.033-.112q-.062-.234-.11-.472c-.008-.04-.014-.08-.021-.119-.017-.094-.033-.189-.047-.284h5.509c4.839,0,8.014-1.139,9.993-3.584,1.792-2.215,2.591-5.492,2.591-10.624v-3.8a6.95,6.95,0,0,0,4.547,1.689,6.953,6.953,0,0,0,4.547-1.689v8.672A15.036,15.036,0,0,1,1342.415-4664.681Zm15.02-28.984a4.552,4.552,0,0,1-4.547,4.547,4.552,4.552,0,0,1-4.547-4.547v-15.507h9.093Z" transform="translate(-19.584)"/>
    </g>
    <ellipse id="Ellipse_56" data-name="Ellipse 56" cx="21.805" cy="21.805" rx="21.805" ry="21.805" transform="translate(6983.576 4664.819)" fill="#e24c4b"/>
    <path id="Path_910" data-name="Path 910" d="M-4577.41-3525.377a21.87,21.87,0,0,1-21.806,21.805,21.456,21.456,0,0,1-17.035-8.177,21.513,21.513,0,0,0,13.628,4.77,21.87,21.87,0,0,0,21.805-21.806,21.512,21.512,0,0,0-4.77-13.628A21.458,21.458,0,0,1-4577.41-3525.377Z" transform="translate(11604.596 8212.002)" fill="#d1403f"/>
    <path id="Path_911" data-name="Path 911" d="M-4566.606-3492.769a2.139,2.139,0,0,1-3,0l-6.95-6.95-6.951,6.95a2.139,2.139,0,0,1-3,0,2.139,2.139,0,0,1,0-3l6.95-6.951-6.95-6.95a2.139,2.139,0,0,1,0-3,2.139,2.139,0,0,1,3,0l6.951,6.951,6.95-6.951a2.139,2.139,0,0,1,3,0,2.138,2.138,0,0,1,0,3l-6.951,6.95,6.951,6.951A2.138,2.138,0,0,1-4566.606-3492.769Z" transform="translate(11581.935 8189.341)" fill="#fff"/>
  </g>
</svg>
