<svg xmlns="http://www.w3.org/2000/svg" width="148.313" height="145.563" viewBox="0 0 148.313 145.563">
  <g id="p2-1" transform="translate(-5828.872 -4895.866)">
    <g id="Group_655" data-name="Group 655">
      <g id="p2-1-2" data-name="p2-1" transform="translate(5828.872 4895.866)">
        <path id="Path_643" data-name="Path 643" d="M-5453.068-4540.338v-12.426a9.2,9.2,0,0,0-1.766-5.447,9.333,9.333,0,0,0-4.617-3.4l-1.766-1.767.341-.361,14.192-4.256s2.128,4.256,6.383,4.256,6.384-4.256,6.384-4.256l15.214,4.554a8.535,8.535,0,0,1,6.064,8.171v17.065h-14.9v-2.128a12.777,12.777,0,0,0-12.767-12.767,12.652,12.652,0,0,0-9.022,3.745A12.653,12.653,0,0,0-5453.068-4540.338Z" transform="translate(5542.437 4606.301)" fill="#ff826e"/>
        <path id="Path_644" data-name="Path 644" d="M-5718.15-4547.552v7.213a12.651,12.651,0,0,0-3.744-9.022,12.651,12.651,0,0,0-9.022-3.745,12.777,12.777,0,0,0-12.767,12.767v2.128h-14.895v-17.065a8.535,8.535,0,0,1,6.064-8.171L-5737.3-4568s2.127,4.256,6.383,4.256,6.383-4.256,6.383-4.256l13.469,4.043A22.463,22.463,0,0,0-5718.15-4547.552Z" transform="translate(5760.706 4606.301)" fill="#ff826e"/>
        <path id="Path_645" data-name="Path 645" d="M-5431.867-4346.211h-10.639a4.268,4.268,0,0,0-4.255,4.256v-13.256a12.766,12.766,0,0,0-9.894-12.426l-13.278-3.063-.085-.022a8.881,8.881,0,0,1,1.66-.723l15.213-4.554s2.128,4.256,6.384,4.256,6.383-4.256,6.383-4.256l15.214,4.554a8.535,8.535,0,0,1,6.064,8.17v17.065Z" transform="translate(5548.897 4465.368)" fill="#b4dd7f"/>
        <path id="Path_646" data-name="Path 646" d="M-5707.724-4370.7l-13.3,3.063a12.766,12.766,0,0,0-9.894,12.426v13.256a4.268,4.268,0,0,0-4.256-4.256h-23.406v-17.065a8.535,8.535,0,0,1,6.064-8.17L-5737.3-4376s2.127,4.256,6.383,4.256,6.383-4.256,6.383-4.256l15.214,4.554a8.881,8.881,0,0,1,1.66.723Z" transform="translate(5760.706 4465.368)" fill="#b4dd7f"/>
        <path id="Path_647" data-name="Path 647" d="M-5639.684-4323.827h-14.895v-19.64a12.766,12.766,0,0,1,9.894-12.426l13.3-3.064,4.468-1.043h17.023l4.469,1.084.021-.042,13.278,3.064a12.766,12.766,0,0,1,9.894,12.426v19.64Z" transform="translate(5684.368 4453.624)" fill="#e6e9ed"/>
        <path id="Path_648" data-name="Path 648" d="M-5531.939-4296l2.127,19.15h-12.767l2.128-19.15Z" transform="translate(5602.157 4406.646)" fill="#ff826e"/>
        <path id="Path_649" data-name="Path 649" d="M-5530.147-4332.063l-.191.319-2.128,6.383h-8.512l-2.127-6.383-.191-.319,6.574-3.937Z" transform="translate(5602.684 4436.007)" fill="#ff826e"/>
        <path id="Path_650" data-name="Path 650" d="M-5505.663-4358.979l.085.021-.021.042-2.341,11.682-4.064-2.446-6.575-3.937,8.511-6.383Z" transform="translate(5584.541 4453.624)" fill="#ccd1d9"/>
        <path id="Path_651" data-name="Path 651" d="M-5567.313-4358.979l4.4-1.021,8.511,6.383-6.574,3.937-4.065,2.446-2.34-11.724Z" transform="translate(5620.36 4453.624)" fill="#ccd1d9"/>
        <path id="Path_652" data-name="Path 652" d="M-5405.044-4691.233v2.128h-3.382a7.264,7.264,0,0,1-5.129-2.128,7.264,7.264,0,0,1-5.128,2.128h-11.895v-2.128a12.653,12.653,0,0,1,3.744-9.022,12.652,12.652,0,0,1,9.022-3.744A12.777,12.777,0,0,1-5405.044-4691.233Z" transform="translate(5519.946 4706.128)" fill="#b27946"/>
        <path id="Path_653" data-name="Path 653" d="M-5677.044-4689.105h-11.894a7.264,7.264,0,0,1-5.128-2.128,7.263,7.263,0,0,1-5.128,2.128h-3.383v-2.128A12.777,12.777,0,0,1-5689.811-4704a12.65,12.65,0,0,1,9.022,3.744,12.651,12.651,0,0,1,3.744,9.022Z" transform="translate(5719.601 4706.128)" fill="#b27946"/>
        <path id="Path_654" data-name="Path 654" d="M-5406.578-4590.48a12.52,12.52,0,0,0,6.383,1.723,12.461,12.461,0,0,0,6.383-1.723v5.979s-2.128,4.256-6.383,4.256-6.383-4.256-6.383-4.256Z" transform="translate(5502.33 4622.801)" fill="#f0d0b4"/>
        <path id="Path_655" data-name="Path 655" d="M-5411.428-4638.573a12.461,12.461,0,0,1-6.384,1.724,12.523,12.523,0,0,1-6.383-1.724,12.734,12.734,0,0,1-6.383-11.043v-4.255h11.895a7.266,7.266,0,0,0,5.128-2.128,7.266,7.266,0,0,0,5.129,2.128h3.382v4.255a12.651,12.651,0,0,1-3.744,9.022A12.277,12.277,0,0,1-5411.428-4638.573Z" transform="translate(5519.946 4670.895)" fill="#f0d0b4"/>
        <path id="Path_656" data-name="Path 656" d="M-5678.578-4590.48l6.383,1.723a12.461,12.461,0,0,0,6.383-1.723v5.979s-2.128,4.256-6.383,4.256-6.383-4.256-6.383-4.256Z" transform="translate(5701.984 4622.801)" fill="#f0d0b4"/>
        <path id="Path_657" data-name="Path 657" d="M-5683.428-4638.573a12.461,12.461,0,0,1-6.383,1.724l-6.383-1.724a12.277,12.277,0,0,1-2.639-2.021,12.652,12.652,0,0,1-3.745-9.022v-4.255h3.383a7.265,7.265,0,0,0,5.128-2.128,7.266,7.266,0,0,0,5.128,2.128h11.894v4.255A12.733,12.733,0,0,1-5683.428-4638.573Z" transform="translate(5719.601 4670.895)" fill="#f0d0b4"/>
        <path id="Path_658" data-name="Path 658" d="M-5422.067-4499.233a7.263,7.263,0,0,1-5.128,2.128h-3.383v-2.128a12.654,12.654,0,0,1,3.744-9.022,12.652,12.652,0,0,1,9.022-3.744,12.777,12.777,0,0,1,12.767,12.767v2.128h-11.894A7.263,7.263,0,0,1-5422.067-4499.233Z" transform="translate(5519.946 4565.195)" fill="#b27946"/>
        <path id="Path_659" data-name="Path 659" d="M-5680.427-4497.105a7.265,7.265,0,0,1-5.129-2.128,7.263,7.263,0,0,1-5.128,2.128h-11.895v-2.128A12.777,12.777,0,0,1-5689.811-4512a12.65,12.65,0,0,1,9.022,3.744,12.652,12.652,0,0,1,3.744,9.022v2.128Z" transform="translate(5719.601 4565.195)" fill="#b27946"/>
        <path id="Path_660" data-name="Path 660" d="M-5599.492-4569.83A22.439,22.439,0,0,1-5584-4576a22.5,22.5,0,0,1,8.639,1.724,22.785,22.785,0,0,1,7.319,4.894l1.894,1.894a9.334,9.334,0,0,1,4.617,3.4,9.2,9.2,0,0,1,1.766,5.447v16.682c0-.276-.021-.553-.042-.83a8.707,8.707,0,0,0-8.469-7.66,2.09,2.09,0,0,0-.361-.021h-3.895l-2.127-4.255a25.417,25.417,0,0,1-14.065,4.255h-8.979a2.093,2.093,0,0,0-.362.021,8.707,8.707,0,0,0-8.468,7.66c-.022.277-.043.554-.043.83v-11.469A22.463,22.463,0,0,1-5599.492-4569.83Z" transform="translate(5649.134 4612.173)" fill="#fcd770"/>
        <g id="Group_300" data-name="Group 300" transform="translate(17.023 57.451)">
          <path id="Path_661" data-name="Path 661" d="M-5406.578-4398.48a12.52,12.52,0,0,0,6.383,1.724,12.461,12.461,0,0,0,6.383-1.724v5.979s-2.128,4.256-6.383,4.256-6.383-4.256-6.383-4.256Z" transform="translate(5485.307 4424.418)" fill="#f0d0b4"/>
          <path id="Path_662" data-name="Path 662" d="M-5678.578-4398.48l6.383,1.724a12.461,12.461,0,0,0,6.383-1.724v5.979s-2.128,4.256-6.383,4.256-6.383-4.256-6.383-4.256Z" transform="translate(5684.961 4424.418)" fill="#f0d0b4"/>
          <path id="Path_663" data-name="Path 663" d="M-5683.428-4446.573a12.461,12.461,0,0,1-6.383,1.724l-6.383-1.724a12.262,12.262,0,0,1-2.639-2.021,12.651,12.651,0,0,1-3.745-9.022v-4.255h11.895a7.263,7.263,0,0,0,5.128-2.128,7.265,7.265,0,0,0,5.129,2.128h3.382v4.255A12.732,12.732,0,0,1-5683.428-4446.573Z" transform="translate(5702.578 4472.511)" fill="#f0d0b4"/>
          <path id="Path_664" data-name="Path 664" d="M-5424.195-4446.573a12.733,12.733,0,0,1-6.383-11.043v-4.255h3.383a7.263,7.263,0,0,0,5.128-2.128,7.263,7.263,0,0,0,5.128,2.128h11.894v4.255a12.65,12.65,0,0,1-3.744,9.022,12.262,12.262,0,0,1-2.639,2.021,12.461,12.461,0,0,1-6.384,1.724A12.523,12.523,0,0,1-5424.195-4446.573Z" transform="translate(5502.924 4472.511)" fill="#f0d0b4"/>
          <path id="Path_665" data-name="Path 665" d="M-5550.578-4378.732v-6.383l.191-.4c6.277,2.426,7.3,2.532,8.32,2.532a14.831,14.831,0,0,0,8.32-2.532l.191.4v6.383l-8.511,6.384Z" transform="translate(5591.006 4414.905)" fill="#f0d0b4"/>
          <path id="Path_666" data-name="Path 666" d="M-5455.652-4471.432v.021a8.5,8.5,0,0,1-8.511,8.491l-.575-.149a14.5,14.5,0,0,0,.575-4.107v-12.746a8.707,8.707,0,0,1,8.469,7.66C-5455.673-4471.984-5455.652-4471.708-5455.652-4471.432Z" transform="translate(5527.998 4484.198)" fill="#f0d0b4"/>
          <path id="Path_667" data-name="Path 667" d="M-5598.067-4467.176a14.5,14.5,0,0,0,.575,4.107l-.575.149a8.5,8.5,0,0,1-8.511-8.491v-.021c0-.276.021-.553.043-.83a8.707,8.707,0,0,1,8.468-7.66Z" transform="translate(5632.112 4484.198)" fill="#f0d0b4"/>
          <path id="Path_668" data-name="Path 668" d="M-5544.789-4491.724v12.746a14.487,14.487,0,0,1-.574,4.107,14.951,14.951,0,0,1-6,8.256,14.834,14.834,0,0,1-8.32,2.532c-1.021,0-2.042-.105-8.32-2.532a15.472,15.472,0,0,1-2.213-1.83,14.825,14.825,0,0,1-3.787-6.426,14.5,14.5,0,0,1-.575-4.107v-12.746a2.139,2.139,0,0,1,.362-.021h8.979a25.415,25.415,0,0,0,14.064-4.256l2.128,4.256h3.894A2.133,2.133,0,0,1-5544.789-4491.724Z" transform="translate(5608.623 4496)" fill="#f0d0b4"/>
        </g>
        <path id="Path_669" data-name="Path 669" d="M-5634.654-4643.91v-17.073a10.574,10.574,0,0,0-7.582-10.19l-13.7-4.109v-3.232a14.88,14.88,0,0,0,6.383-12.205v-6.386a14.911,14.911,0,0,0-14.9-14.895,14.911,14.911,0,0,0-14.895,14.895v6.384a14.873,14.873,0,0,0,6.384,12.2v3.232l-12.071,3.622a24.51,24.51,0,0,0-16.429-6.292,24.565,24.565,0,0,0-16,5.92l-10.822-3.248v-3.232a14.88,14.88,0,0,0,6.383-12.205v-6.386A14.911,14.911,0,0,0-5736.789-4712a14.911,14.911,0,0,0-14.9,14.895v6.384a14.873,14.873,0,0,0,6.384,12.2v3.232l-13.7,4.109a10.578,10.578,0,0,0-7.582,10.192v17.073h4.256v-17.073a6.34,6.34,0,0,1,4.55-6.113l13.7-4.111a9.254,9.254,0,0,0,7.283,3.892,9.254,9.254,0,0,0,7.283-3.892l8.726,2.617a24.564,24.564,0,0,0-5.175,12.363,14.844,14.844,0,0,0-10.834-4.7,14.911,14.911,0,0,0-14.9,14.895v6.384a14.874,14.874,0,0,0,6.384,12.205v3.232l-13.7,4.109a10.578,10.578,0,0,0-7.582,10.192v19.2h25.534a2.132,2.132,0,0,1,2.128,2.128v8.511h76.6v-8.511a2.132,2.132,0,0,1,2.128-2.128h25.534v-19.2a10.574,10.574,0,0,0-7.582-10.19l-13.7-4.109v-3.232a14.879,14.879,0,0,0,6.383-12.205v-6.383a14.912,14.912,0,0,0-14.9-14.9,14.844,14.844,0,0,0-10.639,4.49v-2.017a11.443,11.443,0,0,0-5.847-9.986l9.2-2.763a9.258,9.258,0,0,0,7.283,3.89,9.255,9.255,0,0,0,7.284-3.892l13.7,4.111a6.341,6.341,0,0,1,4.547,6.113v17.073Zm-102.135-63.834a10.651,10.651,0,0,1,10.639,10.639h-9.758a5.174,5.174,0,0,1-3.632-1.5l-1.5-1.5-1.5,1.5a5.175,5.175,0,0,1-3.632,1.5h-1.247A10.651,10.651,0,0,1-5736.789-4707.744Zm-10.639,17.022v-2.128h1.247a9.318,9.318,0,0,0,5.136-1.525,9.321,9.321,0,0,0,5.137,1.525h9.758v2.128a10.651,10.651,0,0,1-10.639,10.639A10.651,10.651,0,0,1-5747.428-4690.722Zm10.639,19.15c-2.262,0-3.728-1.9-4.256-2.713v-2.168a14.888,14.888,0,0,0,4.256.625,14.815,14.815,0,0,0,4.255-.627v2.168C-5733.061-4673.47-5734.527-4671.571-5736.789-4671.571Zm58.489,37.347a14.965,14.965,0,0,0,5.346,6.777v3.232l-13.695,4.109a10.493,10.493,0,0,0-1.317.5l-2.01-.463v-4.192a17.111,17.111,0,0,0,5.167-6.979A10.6,10.6,0,0,0-5678.3-4634.225Zm-22.316,13.721a16.912,16.912,0,0,0,6.384-1.253v2.316l-6.384,4.788-6.383-4.788v-2.316A16.913,16.913,0,0,0-5700.616-4620.5Zm-9,4.424,5.188,3.892-5.336,3.2-1.35-6.748Zm6.646,16.854h4.7l1.655,14.9h-8.013Zm5.072-4.255h-5.444l-1.222-3.665,3.945-2.366,3.943,2.366Zm1.088-8.707,5.188-3.892,1.5.345-1.35,6.747Zm15.81-25.3a6.382,6.382,0,0,1-2.687,1.72,17.3,17.3,0,0,0,.091-1.758v-10.182a6.424,6.424,0,0,1,4.223,5.291A6.345,6.345,0,0,1-5681-4637.488Zm-6.852-.038a12.779,12.779,0,0,1-12.767,12.767,12.779,12.779,0,0,1-12.767-12.767v-10.639h7.224a27.366,27.366,0,0,0,13.184-3.369l1.683,3.369h3.443Zm-29.7,1.758a6.382,6.382,0,0,1-2.687-1.72,6.341,6.341,0,0,1-1.629-4.926,6.426,6.426,0,0,1,4.225-5.292v10.18A17.159,17.159,0,0,0-5717.547-4635.769Zm1.125,4.53a17.072,17.072,0,0,0,5.167,6.979v4.192l-2.01.463a11.026,11.026,0,0,0-1.315-.5l-13.7-4.109v-3.232a14.978,14.978,0,0,0,5.346-6.777A10.6,10.6,0,0,0-5716.421-4631.239Zm-20.367-25.438a10.651,10.651,0,0,1,10.639,10.639h-1.247a5.172,5.172,0,0,1-3.632-1.5l-1.5-1.5-1.5,1.5a5.174,5.174,0,0,1-3.633,1.5h-9.758A10.651,10.651,0,0,1-5736.789-4656.677Zm-10.639,17.022v-2.128h9.758a9.322,9.322,0,0,0,5.137-1.525,9.323,9.323,0,0,0,5.137,1.525h1.247v2.128a10.651,10.651,0,0,1-10.639,10.639A10.651,10.651,0,0,1-5747.428-4639.654Zm10.639,14.895a14.8,14.8,0,0,0,4.255-.627v2.168c-.527.816-1.994,2.715-4.255,2.715s-3.728-1.9-4.256-2.713v-2.168A14.871,14.871,0,0,0-5736.789-4624.76Zm-4.256,29.79h-8.511v-14.9h-4.256v14.9h-8.511v-14.946a6.34,6.34,0,0,1,4.55-6.113l13.7-4.111a9.254,9.254,0,0,0,7.283,3.892,9.254,9.254,0,0,0,7.283-3.892l8.069,2.422-5.935,1.369a14.829,14.829,0,0,0-11.545,14.513v2.611h4.255v-2.611a10.594,10.594,0,0,1,8.248-10.367l11.155-2.575,2.508,12.545,4.452-2.67,1.259,3.779-1.864,16.793h-10.862v-17.022h-4.256v17.022h-10.639v-4.256A6.392,6.392,0,0,0-5741.044-4594.97Zm97.585-21.059a6.341,6.341,0,0,1,4.55,6.113v14.946h-8.511v-14.9h-4.256v14.9h-8.511a6.392,6.392,0,0,0-6.383,6.383v4.256h-10.639v-17.022h-4.256v17.022h-10.862l-1.866-16.793,1.259-3.779,4.452,2.67,2.508-12.545,11.157,2.575a10.593,10.593,0,0,1,8.247,10.367v2.611h4.255v-2.611a14.828,14.828,0,0,0-11.545-14.513l-5.935-1.369,8.069-2.422a9.253,9.253,0,0,0,7.283,3.892,9.255,9.255,0,0,0,7.284-3.892Zm-16.729-7.187c-.527.814-1.994,2.713-4.256,2.713s-3.734-1.907-4.255-2.713v-2.17a14.8,14.8,0,0,0,4.255.627,14.8,14.8,0,0,0,4.256-.627Zm-4.256-5.8a10.651,10.651,0,0,1-10.639-10.639v-2.128h1.247a9.321,9.321,0,0,0,5.136-1.525,9.324,9.324,0,0,0,5.137,1.525h9.758v2.128A10.651,10.651,0,0,1-5664.443-4629.016Zm0-27.661a10.651,10.651,0,0,1,10.639,10.639h-9.758a5.172,5.172,0,0,1-3.632-1.5l-1.5-1.5-1.5,1.5a5.173,5.173,0,0,1-3.632,1.5h-1.247A10.651,10.651,0,0,1-5664.443-4656.677Zm-14.895,6.564a11.176,11.176,0,0,0-6.749-2.309h-2.574l-2.617-5.234-2.005,1.336a23.138,23.138,0,0,1-12.875,3.9h-8.986a11.176,11.176,0,0,0-6.749,2.309v-3.147a20.465,20.465,0,0,1,20.44-20.439,20.309,20.309,0,0,1,14.454,5.985l2.258,2.258.477.16a7.2,7.2,0,0,1,4.928,6.836Zm14.895-57.632a10.651,10.651,0,0,1,10.639,10.639h-1.247a5.173,5.173,0,0,1-3.632-1.5l-1.5-1.5-1.5,1.5a5.174,5.174,0,0,1-3.632,1.5h-9.758A10.651,10.651,0,0,1-5664.443-4707.744Zm-10.639,17.022v-2.128h9.758a9.318,9.318,0,0,0,5.137-1.525,9.319,9.319,0,0,0,5.137,1.525h1.247v2.128a10.651,10.651,0,0,1-10.639,10.639A10.651,10.651,0,0,1-5675.082-4690.722Zm10.639,19.15c-2.266,0-3.734-1.907-4.255-2.713v-2.17a14.82,14.82,0,0,0,4.255.627,14.816,14.816,0,0,0,4.256-.627v2.168C-5660.715-4673.47-5662.181-4671.571-5664.443-4671.571Z" transform="translate(5766.578 4712)"/>
        <path id="Path_670" data-name="Path 670" d="M-5582.578-4712h4.255v4.256h-4.255Z" transform="translate(5631.518 4712)"/>
        <path id="Path_671" data-name="Path 671" d="M-5582.578-4680h4.255v23.406h-4.255Z" transform="translate(5631.518 4688.511)"/>
        <path id="Path_672" data-name="Path 672" d="M-5470.578-4712h4.255v4.256h-4.255Z" transform="translate(5549.307 4712)"/>
        <path id="Path_673" data-name="Path 673" d="M-5470.578-4680h4.255v23.406h-4.255Z" transform="translate(5549.307 4688.511)"/>
        <path id="Path_674" data-name="Path 674" d="M-5550.578-4680h4.256v14.895h-4.256Z" transform="translate(5608.029 4688.511)"/>
        <path id="Path_675" data-name="Path 675" d="M-5550.578-4608h4.256v4.255h-4.256Z" transform="translate(5608.029 4635.662)"/>
        <path id="Path_676" data-name="Path 676" d="M-5502.578-4680h4.255v14.895h-4.255Z" transform="translate(5572.796 4688.511)"/>
        <path id="Path_677" data-name="Path 677" d="M-5502.578-4608h4.255v4.255h-4.255Z" transform="translate(5572.796 4635.662)"/>
      </g>
      <ellipse id="Ellipse_131" data-name="Ellipse 131" cx="32.676" cy="32.676" rx="32.676" ry="32.676" transform="translate(5911.834 4976.077)" fill="#e24c4b"/>
      <path id="Path_2232" data-name="Path 2232" d="M-4558.047-3516.884a32.772,32.772,0,0,1-32.676,32.676,32.153,32.153,0,0,1-25.528-12.253,32.238,32.238,0,0,0,20.423,7.148,32.772,32.772,0,0,0,32.676-32.676,32.233,32.233,0,0,0-7.148-20.423A32.155,32.155,0,0,1-4558.047-3516.884Z" transform="translate(10535.232 8525.638)" fill="#d1403f"/>
    </g>
    <path id="Path_2233" data-name="Path 2233" d="M-4556.381-3482.543a3.205,3.205,0,0,1-4.493,0l-10.415-10.416-10.416,10.416a3.206,3.206,0,0,1-4.493,0,3.205,3.205,0,0,1,0-4.493l10.415-10.416-10.415-10.416a3.205,3.205,0,0,1,0-4.493,3.206,3.206,0,0,1,4.493,0l10.416,10.416,10.415-10.416a3.205,3.205,0,0,1,4.493,0,3.2,3.2,0,0,1,0,4.493l-10.416,10.416,10.416,10.416A3.2,3.2,0,0,1-4556.381-3482.543Z" transform="translate(10515.799 8506.205)" fill="#fff"/>
  </g>
</svg>
