<svg xmlns="http://www.w3.org/2000/svg" width="136.18" height="131.593" viewBox="0 0 136.18 131.593">
  <g id="p2-3" transform="translate(0 0)">
    <g id="Group_308" data-name="Group 308" transform="translate(31.583 75.853)">
      <path id="Path_703" data-name="Path 703" d="M-4146.49-4402.91c9-3.34,17.3-9.492,23.841-16.865v-20.258a2.64,2.64,0,0,0-.3-1.267,4.951,4.951,0,0,0-3.039-2.073l-28.553-9.161a12.365,12.365,0,0,0-9.229,0l-28.553,9.161a4.95,4.95,0,0,0-3.039,2.073,2.618,2.618,0,0,0-.3,1.267v20.258c6.544,7.373,14.838,13.525,23.841,16.865a35.766,35.766,0,0,0,12.667,2.563A35.766,35.766,0,0,0-4146.49-4402.91Z" transform="translate(4195.664 4453.427)" fill="#bfdbff" fill-rule="evenodd"/>
    </g>
    <g id="Group_309" data-name="Group 309" transform="translate(17.258 2.669)">
      <path id="Path_704" data-name="Path 704" d="M-4227.469-4684.878c6.092-1.712,8.663-.091,14.567,1.455,29.013,7.584,38.2,8.1,65.045,11.286l-1.854-17.054c-.55-5.074-.287-6.68,2.247-9.175,4.011-3.943,10.073-6.974,10.8-18.811-13.051,3.333-15.735,5.406-27-1.539-33.665-20.755-51.232-3.634-62.813,4.931-10.616-3.868-20.025,3.709-21.556,13.985-1.47,9.915-1.485,13.179-1.485,27.662,7.841-7.652,13.466-10.329,22.053-12.741Z" transform="translate(4249.522 4728.579)" fill="#ffda8f" fill-rule="evenodd"/>
    </g>
    <g id="Group_310" data-name="Group 310" transform="translate(17.258 59.112)">
      <path id="Path_705" data-name="Path 705" d="M-4235.2-4465.977v-20.258a2.62,2.62,0,0,1,.3-1.267l-14.627-28.868v18.064a32.835,32.835,0,0,0,.407,5.021C-4247.69-4484.117-4242.556-4474.271-4235.2-4465.977Z" transform="translate(4249.522 4516.37)" fill="#ffdcd5" fill-rule="evenodd"/>
    </g>
    <g id="Group_311" data-name="Group 311" transform="translate(17.258 45.638)">
      <path id="Path_706" data-name="Path 706" d="M-4231.856-4526.76l28.553-9.161a12.365,12.365,0,0,1,9.229,0l28.553,9.161a4.95,4.95,0,0,1,3.039,2.073l14.627-28.868c-26.841-3.189-36.032-3.7-65.045-11.287-5.9-1.545-8.475-3.166-14.567-1.455-8.587,2.413-14.212,5.089-22.053,12.742l14.627,28.868a4.951,4.951,0,0,1,3.039-2.073Z" transform="translate(4249.522 4567.029)" fill="#ffdcd5" fill-rule="evenodd"/>
    </g>
    <g id="Group_312" data-name="Group 312" transform="translate(104.296 59.112)">
      <path id="Path_707" data-name="Path 707" d="M-3921.981-4465.977c7.359-8.293,12.493-18.14,13.918-27.308a32.8,32.8,0,0,0,.407-5.021v-18.064l-14.627,28.868a2.639,2.639,0,0,1,.3,1.267v20.258Z" transform="translate(3922.282 4516.37)" fill="#ffdcd5" fill-rule="evenodd"/>
    </g>
    <g id="Group_313" data-name="Group 313" transform="translate(118.515 59.112)">
      <path id="Path_708" data-name="Path 708" d="M-3864.425-4493.285c13.1,0,14.175-23.085,2.624-23.085h-6.612v18.064a32.8,32.8,0,0,1-.407,5.021Z" transform="translate(3868.82 4516.37)" fill="#ffdcd5" fill-rule="evenodd"/>
    </g>
    <g id="Group_314" data-name="Group 314" transform="translate(2.66 59.112)">
      <path id="Path_709" data-name="Path 709" d="M-4289.4-4493.285a32.774,32.774,0,0,1-.407-5.021v-18.064h-6.612c-11.551,0-10.48,23.085,2.624,23.085Z" transform="translate(4304.407 4516.37)" fill="#ffdcd5" fill-rule="evenodd"/>
    </g>
    <g id="Group_315" data-name="Group 315" transform="translate(0)">
      <path id="Path_710" data-name="Path 710" d="M-4180.7-4677.895a9.735,9.735,0,0,0-8.176-4.268h-4.226l-1.6-14.681c-.523-4.827-.159-5.39,1.467-6.992.612-.6,1.3-1.2,2.029-1.835,3.959-3.447,8.887-7.738,9.558-18.71a2.661,2.661,0,0,0-.96-2.212,2.66,2.66,0,0,0-2.353-.527c-1.573.4-3.017.791-4.291,1.134-9.231,2.486-11.711,3.154-20.655-2.358-14.382-8.867-27.259-11.947-39.369-9.416-10.283,2.15-17.78,7.883-23.8,12.49q-.788.6-1.53,1.166a17.7,17.7,0,0,0-14.109,1.749,20.781,20.781,0,0,0-9.585,14.8c-1.417,9.55-1.508,13.166-1.514,25.392h-3.953a9.736,9.736,0,0,0-8.176,4.269,15.174,15.174,0,0,0-2.469,8.641c0,7.512,4.65,15.5,13.269,15.5h2.2c1.917,8.887,6.937,18.254,14.031,26.293a2.739,2.739,0,0,0,.214.243,69.865,69.865,0,0,0,9.18,8.616,2.649,2.649,0,0,0,1.633.562,2.654,2.654,0,0,0,2.1-1.025,2.659,2.659,0,0,0-.463-3.733,65.182,65.182,0,0,1-7.917-7.313v-19.253c0-.023,0-.038,0-.041.028-.041.3-.387,1.492-.767l28.55-9.16c3.2-1.023,4.409-1.023,7.606,0l28.557,9.162c1.241.4,1.482.76,1.485.76a.229.229,0,0,1,0,.045v19.208c-6.226,6.792-13.956,12.4-22.108,15.423a33.208,33.208,0,0,1-11.739,2.4,27.874,27.874,0,0,1-5.18-.5,2.659,2.659,0,0,0-3.1,2.124,2.66,2.66,0,0,0,2.124,3.1,33.071,33.071,0,0,0,6.16.6,38.307,38.307,0,0,0,13.592-2.729c10.5-3.9,20.5-11.538,28.137-21.509a58.128,58.128,0,0,0,10.9-22.5h2.195c8.618,0,13.269-7.984,13.269-15.5a15.166,15.166,0,0,0-2.469-8.64Zm-120.441,18.817c-5.833,0-7.949-6.086-7.949-10.177a9.855,9.855,0,0,1,1.508-5.591,4.382,4.382,0,0,1,3.817-2h3.952v15.4c0,.778.035,1.567.091,2.361h-1.42Zm15.654,22.348c-4.521-6.453-7.571-13.4-8.61-19.917-.009-.109-.4-3.334-.4-4.792v-6.93l9.1,17.959a5.8,5.8,0,0,0-.094,1.042Zm74.467-18a11.558,11.558,0,0,0-1.32-.509l-28.555-9.161a14.917,14.917,0,0,0-10.852,0l-28.548,9.159a11.915,11.915,0,0,0-1.325.508l-12.266-24.207c6.854-6.371,11.9-8.606,19.507-10.743a13.988,13.988,0,0,1,5.136-.578,25.832,25.832,0,0,1,4.819,1.131c1.07.318,2.141.632,3.22.915,25.821,6.75,36.143,7.949,56.708,10.336q2.359.274,4.916.572Zm12.477-1.907c-1.051,6.593-4.15,13.508-8.61,19.864v-12.594a5.535,5.535,0,0,0-.1-1.033l9.1-17.967v6.93a23.841,23.841,0,0,1-.4,4.8Zm-1.443-39.631,1.494,13.733c-1.88-.22-3.672-.428-5.391-.628-20.318-2.358-30.516-3.542-55.976-10.2-2.107-.552-4.171-1.27-6.294-1.762a17.939,17.939,0,0,0-6.126-.4,22.721,22.721,0,0,0-3.54.718c-7.149,2.008-12.451,4.2-18.668,9.316a120.058,120.058,0,0,1,1.451-21.284,15.417,15.417,0,0,1,7.043-11.011,12.426,12.426,0,0,1,10.971-.867,2.661,2.661,0,0,0,2.492-.361c.868-.642,1.752-1.318,2.688-2.033,11.611-8.88,27.515-21.042,57.148-2.771,10.9,6.719,14.978,5.62,24.83,2.967l.438-.118c-1.212,6.011-4.284,8.686-7.27,11.285-.756.659-1.538,1.339-2.267,2.056C-4200.439-4704.2-4200.553-4701.533-4199.982-4696.27Zm8.487,37.192h-1.418c.058-.8.089-1.585.089-2.361v-15.4h3.953a4.382,4.382,0,0,1,3.817,2,9.856,9.856,0,0,1,1.508,5.591c0,4.09-2.117,10.176-7.95,10.176Z" transform="translate(4314.406 4738.615)"/>
      <path id="Path_711" data-name="Path 711" d="M-4149.342-4493.829a2.66,2.66,0,0,0-2.66,2.66v3.008a2.66,2.66,0,0,0,2.66,2.66,2.66,2.66,0,0,0,2.66-2.66v-3.008a2.66,2.66,0,0,0-2.66-2.66Z" transform="translate(4195.198 4558.937)"/>
      <path id="Path_712" data-name="Path 712" d="M-3982.15-4493.829a2.66,2.66,0,0,0-2.66,2.66v3.008a2.66,2.66,0,0,0,2.66,2.66,2.66,2.66,0,0,0,2.66-2.66v-3.008a2.66,2.66,0,0,0-2.66-2.66Z" transform="translate(4072.475 4558.937)"/>
      <path id="Path_713" data-name="Path 713" d="M-4129.785-4280.815a2.66,2.66,0,0,0-3.569,1.189,2.66,2.66,0,0,0,1.189,3.569l.015.007a2.639,2.639,0,0,0,1.183.281,2.658,2.658,0,0,0,2.378-1.474,2.667,2.667,0,0,0-1.2-3.572Z" transform="translate(4181.716 4402.786)"/>
    </g>
  </g>
</svg>
