<svg xmlns="http://www.w3.org/2000/svg" width="131.925" height="131.924" viewBox="0 0 131.925 131.924">
  <g id="p2-4" transform="translate(0)">
    <g id="Group_322" data-name="Group 322">
      <path id="Path_714" data-name="Path 714" d="M-3495.743-4582.281h-17.022a12.766,12.766,0,0,0-12.767,12.767v27.661a4.254,4.254,0,0,0,4.256,4.256h4.256v-8.511h25.534v8.511h4.256a4.254,4.254,0,0,0,4.256-4.256v-27.661A12.766,12.766,0,0,0-3495.743-4582.281Z" transform="translate(3527.66 4618.454)" fill="#3b5892"/>
      <path id="Path_715" data-name="Path 715" d="M-3172.51-4262.281h-12.767a4.254,4.254,0,0,0-4.256,4.255v4.256h17.022Z" transform="translate(3281.028 4383.566)" fill="#939393"/>
      <path id="Path_716" data-name="Path 716" d="M-3175.743-4582.281h-17.022a12.766,12.766,0,0,0-12.767,12.767v27.661a4.254,4.254,0,0,0,4.256,4.256h4.256v-8.511h25.534v8.511h4.256a4.254,4.254,0,0,0,4.256-4.256v-27.661A12.766,12.766,0,0,0-3175.743-4582.281Z" transform="translate(3292.772 4618.454)" fill="#f9d266"/>
      <path id="Path_717" data-name="Path 717" d="M-3077.532-4437.77h4.256a4.254,4.254,0,0,0,4.256-4.256v-4.255h-8.511Z" transform="translate(3198.817 4518.626)" fill="#fadcb6"/>
      <path id="Path_718" data-name="Path 718" d="M-3197.021-4437.77h-4.256a4.254,4.254,0,0,1-4.256-4.256v-4.255h8.511Z" transform="translate(3292.772 4518.626)" fill="#fadcb6"/>
      <path id="Path_719" data-name="Path 719" d="M-3173.532-4446.281H-3148v48.94h-25.534Z" transform="translate(3269.283 4518.626)" fill="#b5b5b5"/>
      <path id="Path_720" data-name="Path 720" d="M-3125.532-4262.281h12.767a4.254,4.254,0,0,1,4.256,4.255v4.256h-17.022Z" transform="translate(3234.051 4383.566)" fill="#939393"/>
      <path id="Path_721" data-name="Path 721" d="M-3144.254-4654.281v8.511a10.64,10.64,0,0,1-10.639,10.639,10.64,10.64,0,0,1-10.639-10.639v-8.511l10.639,4.255,2.128-4.255,4.256,4.255Z" transform="translate(3263.411 4671.303)" fill="#fadcb6"/>
      <g id="Group_317" data-name="Group 317" transform="translate(118.943 19.15)">
        <path id="Path_722" data-name="Path 722" d="M-3084-4646.281h-2.128v6.383a10.619,10.619,0,0,1-.215,2.128H-3084a4.254,4.254,0,0,0,4.256-4.256A4.254,4.254,0,0,0-3084-4646.281Z" transform="translate(3086.34 4646.281)" fill="#fadcb6"/>
      </g>
      <path id="Path_723" data-name="Path 723" d="M-3183.149-4639.9v-6.383h-2.128a4.254,4.254,0,0,0-4.256,4.255,4.254,4.254,0,0,0,4.256,4.256h2.343A10.619,10.619,0,0,1-3183.149-4639.9Z" transform="translate(3281.028 4665.431)" fill="#fadcb6"/>
      <g id="Group_318" data-name="Group 318" transform="translate(93.624 2.128)">
        <path id="Path_724" data-name="Path 724" d="M-3166.637-4710.281a14.9,14.9,0,0,0-14.895,14.895v2.717a4.23,4.23,0,0,1,2.128-.589h2.128v-2.128l10.639,4.256,2.128-4.256,4.255,4.256,4.256-4.256v2.128h2.128a4.229,4.229,0,0,1,2.128.589v-2.717A14.894,14.894,0,0,0-3166.637-4710.281Z" transform="translate(3181.532 4710.281)" fill="#686868"/>
      </g>
      <path id="Path_725" data-name="Path 725" d="M-3149.532-4582.281v2.128a6.383,6.383,0,0,0,6.384,6.383,6.383,6.383,0,0,0,6.383-6.383v-2.128Z" transform="translate(3251.667 4618.454)" fill="#fadcb6"/>
      <path id="Path_726" data-name="Path 726" d="M-3492.51-4262.281h-12.767a4.254,4.254,0,0,0-4.256,4.255v4.256h17.022Z" transform="translate(3515.916 4383.566)" fill="#939393"/>
      <path id="Path_727" data-name="Path 727" d="M-3397.532-4437.77h4.256a4.254,4.254,0,0,0,4.256-4.256v-4.255h-8.511Z" transform="translate(3433.705 4518.626)" fill="#fadcb6"/>
      <path id="Path_728" data-name="Path 728" d="M-3517.021-4437.77h-4.256a4.254,4.254,0,0,1-4.256-4.256v-4.255h8.511Z" transform="translate(3527.66 4518.626)" fill="#fadcb6"/>
      <path id="Path_729" data-name="Path 729" d="M-3493.532-4446.281H-3468v48.94h-25.534Z" transform="translate(3504.171 4518.626)" fill="#b5b5b5"/>
      <path id="Path_730" data-name="Path 730" d="M-3445.532-4262.281h12.767a4.254,4.254,0,0,1,4.256,4.255v4.256h-17.022Z" transform="translate(3468.938 4383.566)" fill="#939393"/>
      <path id="Path_731" data-name="Path 731" d="M-3464.254-4654.281v8.511a10.64,10.64,0,0,1-10.639,10.639,10.64,10.64,0,0,1-10.639-10.639v-8.511l10.639,4.255,2.128-4.255,4.255,4.255Z" transform="translate(3498.299 4671.303)" fill="#fadcb6"/>
      <g id="Group_319" data-name="Group 319" transform="translate(33.83 19.15)">
        <path id="Path_732" data-name="Path 732" d="M-3404-4646.281h-2.128v6.383a10.619,10.619,0,0,1-.215,2.128H-3404a4.254,4.254,0,0,0,4.256-4.256A4.254,4.254,0,0,0-3404-4646.281Z" transform="translate(3406.34 4646.281)" fill="#fadcb6"/>
      </g>
      <path id="Path_733" data-name="Path 733" d="M-3503.148-4639.9v-6.383h-2.128a4.254,4.254,0,0,0-4.256,4.255,4.254,4.254,0,0,0,4.256,4.256h2.343A10.6,10.6,0,0,1-3503.148-4639.9Z" transform="translate(3515.916 4665.431)" fill="#fadcb6"/>
      <g id="Group_320" data-name="Group 320" transform="translate(8.511 2.128)">
        <path id="Path_734" data-name="Path 734" d="M-3486.637-4710.281a14.9,14.9,0,0,0-14.895,14.895v2.717a4.23,4.23,0,0,1,2.128-.589h2.128v-2.128l10.639,4.256,2.128-4.256,4.256,4.256,4.255-4.256v2.128h2.128a4.23,4.23,0,0,1,2.128.589v-2.717A14.9,14.9,0,0,0-3486.637-4710.281Z" transform="translate(3501.532 4710.281)" fill="#686868"/>
      </g>
      <path id="Path_735" data-name="Path 735" d="M-3469.532-4582.281v2.128a6.383,6.383,0,0,0,6.384,6.383,6.383,6.383,0,0,0,6.384-6.383v-2.128Z" transform="translate(3486.555 4618.454)" fill="#fadcb6"/>
      <g id="Group_321" data-name="Group 321">
        <path id="Path_736" data-name="Path 736" d="M-3180.681-4684.189a12.785,12.785,0,0,0,2.577-4.3h.745a6.391,6.391,0,0,0,6.384-6.383,6.35,6.35,0,0,0-2.128-4.724v-1.66a17.042,17.042,0,0,0-17.022-17.022,17.042,17.042,0,0,0-17.022,17.022v1.66a6.346,6.346,0,0,0-2.128,4.724,6.391,6.391,0,0,0,6.384,6.383h.745a12.754,12.754,0,0,0,2.577,4.3,14.9,14.9,0,0,0-13.961,14.848v27.662a6.391,6.391,0,0,0,6.384,6.383h2.128v36.564a6.375,6.375,0,0,0-4.256,5.992v4.256a2.127,2.127,0,0,0,2.128,2.128h34.045a2.127,2.127,0,0,0,2.128-2.128v-4.256a6.375,6.375,0,0,0-4.256-5.992V-4635.3h2.128a6.391,6.391,0,0,0,6.383-6.383v-27.662a14.9,14.9,0,0,0-13.96-14.848Zm-17.957-8.558v-5.369l7.72,3.089a2.131,2.131,0,0,0,2.694-1.023l.806-1.615,2.168,2.168a2.125,2.125,0,0,0,3.009,0l.625-.625v3.375a8.52,8.52,0,0,1-8.511,8.511A8.52,8.52,0,0,1-3198.637-4692.747Zm12.767,12.767a4.26,4.26,0,0,1-4.256,4.256,4.26,4.26,0,0,1-4.256-4.256Zm8.511-12.767V-4697a2.13,2.13,0,0,1,2.128,2.128A2.13,2.13,0,0,1-3177.359-4692.747Zm-27.662-2.128a2.13,2.13,0,0,1,2.128-2.128v4.256A2.13,2.13,0,0,1-3205.021-4694.875Zm3.062-8.146a2.131,2.131,0,0,0-.934,1.762,12.78,12.78,0,0,1,12.767-12.767,12.78,12.78,0,0,1,12.767,12.767,2.129,2.129,0,0,0-1.313-1.966,2.115,2.115,0,0,0-2.319.462l-2.751,2.751-2.751-2.751a2.1,2.1,0,0,0-1.845-.6,2.133,2.133,0,0,0-1.562,1.149l-1.251,2.5-8.822-3.528A2.133,2.133,0,0,0-3201.959-4703.021Zm3.322,23.04a8.52,8.52,0,0,0,8.511,8.512,8.52,8.52,0,0,0,8.511-8.512,10.652,10.652,0,0,1,10.639,10.639v21.278h-4.256v-23.406h-4.255v23.406h-21.278v-23.406h-4.256v23.406h-4.256v-21.278A10.651,10.651,0,0,1-3198.637-4679.98Zm-8.511,40.429a2.13,2.13,0,0,1-2.128-2.128v-2.128h4.256v4.256Zm14.895,48.939h-12.767v-2.128a2.13,2.13,0,0,1,2.128-2.127h10.639Zm0-44.684v36.173h-8.511v-44.684h21.278v44.684H-3188V-4635.3Zm17.022,44.684H-3188v-4.255h10.639a2.13,2.13,0,0,1,2.128,2.127Zm2.128-48.939h-2.128v-4.256h4.256v2.128A2.13,2.13,0,0,1-3173.1-4639.552Z" transform="translate(3298.645 4718.281)"/>
        <path id="Path_737" data-name="Path 737" d="M-3495.231-4598.732V-4635.3h2.128a6.391,6.391,0,0,0,6.384-6.383v-27.662a14.9,14.9,0,0,0-13.961-14.848,12.789,12.789,0,0,0,2.577-4.3h.745a6.391,6.391,0,0,0,6.384-6.383,6.35,6.35,0,0,0-2.128-4.724v-1.66a17.042,17.042,0,0,0-17.022-17.022,17.042,17.042,0,0,0-17.022,17.022v1.66a6.35,6.35,0,0,0-2.128,4.724,6.391,6.391,0,0,0,6.384,6.383h.745a12.754,12.754,0,0,0,2.577,4.3,14.9,14.9,0,0,0-13.961,14.848v27.662a6.391,6.391,0,0,0,6.384,6.383h2.128v36.564a6.375,6.375,0,0,0-4.256,5.992v4.256a2.127,2.127,0,0,0,2.128,2.128h34.045a2.127,2.127,0,0,0,2.128-2.128v-4.256A6.375,6.375,0,0,0-3495.231-4598.732Zm2.128-40.82h-2.128v-4.256h4.256v2.128A2.13,2.13,0,0,1-3493.1-4639.552Zm-25.534-53.2v-5.369l7.72,3.089a2.13,2.13,0,0,0,2.694-1.023l.806-1.615,2.168,2.168a2.125,2.125,0,0,0,3.009,0l.625-.625v3.375a8.52,8.52,0,0,1-8.511,8.511A8.52,8.52,0,0,1-3518.637-4692.747Zm12.767,12.767a4.26,4.26,0,0,1-4.256,4.256,4.26,4.26,0,0,1-4.256-4.256Zm8.511-12.767V-4697a2.13,2.13,0,0,1,2.128,2.128A2.13,2.13,0,0,1-3497.359-4692.747Zm-27.662-2.128a2.13,2.13,0,0,1,2.128-2.128v4.256A2.13,2.13,0,0,1-3525.021-4694.875Zm3.062-8.146a2.131,2.131,0,0,0-.934,1.762,12.78,12.78,0,0,1,12.767-12.767,12.78,12.78,0,0,1,12.767,12.767,2.129,2.129,0,0,0-1.313-1.966,2.115,2.115,0,0,0-2.319.462l-2.751,2.751-2.751-2.751a2.1,2.1,0,0,0-1.845-.6,2.133,2.133,0,0,0-1.562,1.149l-1.251,2.5-8.822-3.53a2.141,2.141,0,0,0-1.985.215Zm3.322,23.04a8.52,8.52,0,0,0,8.511,8.512,8.52,8.52,0,0,0,8.511-8.512,10.651,10.651,0,0,1,10.639,10.639v21.278h-4.256v-23.406h-4.256v23.406h-21.278v-23.406h-4.256v23.406h-4.256v-21.278A10.651,10.651,0,0,1-3518.637-4679.98Zm-8.511,40.429a2.13,2.13,0,0,1-2.128-2.128v-2.128h4.256v4.256Zm14.895,48.939h-12.767v-2.128a2.13,2.13,0,0,1,2.128-2.127h10.639Zm0-44.684v36.173h-8.511v-44.684h21.278v44.684H-3508V-4635.3Zm17.023,44.684H-3508v-4.255h10.639a2.13,2.13,0,0,1,2.128,2.127Z" transform="translate(3533.532 4718.281)"/>
        <path id="Path_738" data-name="Path 738" d="M-3327.345-4333.554l-6.383-6.383-3.009,3.009,2.751,2.751h-32.283l2.751-2.751-3.009-3.009-6.384,6.383a2.126,2.126,0,0,0,0,3.009l6.384,6.384,3.009-3.009-2.751-2.751h32.283l-2.751,2.751,3.009,3.009,6.383-6.384A2.125,2.125,0,0,0-3327.345-4333.554Z" transform="translate(3416.09 4440.567)"/>
      </g>
    </g>
    <g id="Group_323" data-name="Group 323" transform="translate(50.991 87.825)">
      <path id="Path_739" data-name="Path 739" d="M-3339.6-4378.921v-6.135a5.459,5.459,0,0,1-.958.673,3.162,3.162,0,0,1-1.083.368l-.18-2.6a3.855,3.855,0,0,0,.861-.187,5.157,5.157,0,0,0,.812-.354,4.827,4.827,0,0,0,.68-.444,1.91,1.91,0,0,0,.451-.486h2.512v9.16Z" transform="translate(3341.82 4388.081)"/>
      <path id="Path_740" data-name="Path 740" d="M-3315.64-4364.391a1.858,1.858,0,0,1,1.263.389,1.38,1.38,0,0,1,.444,1.1,1.38,1.38,0,0,1-.444,1.1,1.858,1.858,0,0,1-1.263.388,1.861,1.861,0,0,1-1.256-.388,1.369,1.369,0,0,1-.451-1.1,1.368,1.368,0,0,1,.451-1.1A1.861,1.861,0,0,1-3315.64-4364.391Z" transform="translate(3323.856 4370.692)"/>
      <path id="Path_741" data-name="Path 741" d="M-3298.684-4378.782a5.435,5.435,0,0,1-2.144-.41,3.958,3.958,0,0,1-1.7-1.492l2.776-1.36a1.512,1.512,0,0,0,.368.694,1.028,1.028,0,0,0,.77.264,1.217,1.217,0,0,0,.514-.1.719.719,0,0,0,.326-.305,1.033,1.033,0,0,0,.118-.514.8.8,0,0,0-.111-.437.729.729,0,0,0-.333-.271,1.438,1.438,0,0,0-.569-.1,2.162,2.162,0,0,0-.444.041,1.7,1.7,0,0,0-.347.111,1.842,1.842,0,0,0-.291.167l-2.359-.444.61-5.149h6.176v2.373h-3.914l-.153,1.139-.07.291h.014a1.421,1.421,0,0,1,.729-.444,3.66,3.66,0,0,1,1.02-.139,3.158,3.158,0,0,1,1.562.354,2.45,2.45,0,0,1,.964.951,2.746,2.746,0,0,1,.333,1.36,3.578,3.578,0,0,1-.319,1.582,2.8,2.8,0,0,1-.875,1.055,3.808,3.808,0,0,1-1.235.59A5.3,5.3,0,0,1-3298.684-4378.782Z" transform="translate(3312.979 4388.081)"/>
      <path id="Path_742" data-name="Path 742" d="M-3270.49-4373.176v-6.939h2.873l.069,1.513a2.582,2.582,0,0,1,.916-1.221,2.538,2.538,0,0,1,1.5-.43,2.248,2.248,0,0,1,1.312.361,1.962,1.962,0,0,1,.743,1.027,2.7,2.7,0,0,1,.548-.756,2.159,2.159,0,0,1,.763-.472,2.848,2.848,0,0,1,.979-.159,2.387,2.387,0,0,1,1.179.271,1.824,1.824,0,0,1,.75.791,2.68,2.68,0,0,1,.25,1.27l-.055,4.747h-3.136v-3.914a1.2,1.2,0,0,0-.118-.638.419.419,0,0,0-.368-.167.621.621,0,0,0-.375.111.636.636,0,0,0-.222.354,2.284,2.284,0,0,0-.069.618v3.636h-3.192v-3.914a1.2,1.2,0,0,0-.118-.638.419.419,0,0,0-.368-.167.622.622,0,0,0-.375.111.636.636,0,0,0-.222.354,2.294,2.294,0,0,0-.069.618v3.636Z" transform="translate(3289.462 4382.336)"/>
    </g>
  </g>
</svg>
