<svg id="p2-5" xmlns="http://www.w3.org/2000/svg" width="136.125" height="136.18" viewBox="0 0 136.125 136.18">
  <g id="Filled" transform="translate(0 1.996)">
    <path id="Path_743" data-name="Path 743" d="M-2555.727-4540.271h-42.581a5.322,5.322,0,0,1-5.323-5.322v-85.162a5.322,5.322,0,0,1,5.323-5.323h42.581a5.322,5.322,0,0,1,5.323,5.323v85.162A5.323,5.323,0,0,1-2555.727-4540.271Z" transform="translate(2684.533 4672.271)" fill="#9ce3bf"/>
    <path id="Path_744" data-name="Path 744" d="M-2555.727-4320.577h-42.581a5.322,5.322,0,0,1-5.323-5.323v7.984a5.322,5.322,0,0,0,5.323,5.322h42.581a5.322,5.322,0,0,0,5.323-5.322v-7.984A5.323,5.323,0,0,1-2555.727-4320.577Z" transform="translate(2684.533 4444.594)" fill="#87bcc4"/>
    <path id="Path_745" data-name="Path 745" d="M-2548.6-4696.112h23.952v15.967H-2548.6Z" transform="translate(2644.139 4716.338)" fill="#e4e8ed"/>
    <path id="Path_746" data-name="Path 746" d="M-2548.6-4666.1h23.952v7.984H-2548.6Z" transform="translate(2644.139 4694.305)" fill="#cad8eb"/>
    <path id="Path_747" data-name="Path 747" d="M-2518.582-4772.156h7.984v20.226h-7.984Z" transform="translate(2622.106 4772.156)" fill="#e4e8ed"/>
    <path id="Path_748" data-name="Path 748" d="M-2789.187-4437.652a12.774,12.774,0,0,0-16.512-3.79l-25.052,13.665a6.4,6.4,0,0,0,.124-1.253,6.387,6.387,0,0,0-6.387-6.387h-19.348s-3.029-6.607-5.475-8.315c-12.862-11.768-37.178.977-37.178.977h-8.79v24.247h13.976l49.194,15.762,55.524-34.8Z" transform="translate(2907.805 4534.747)" fill="#ffe4c2"/>
    <path id="Path_749" data-name="Path 749" d="M-2844.635-4392.285l-49.194-15.762h-13.976v7.983h13.976l49.194,15.763,55.524-34.8-.076-.106a12.725,12.725,0,0,0-5.53-4.385Z" transform="translate(2907.805 4516.301)" fill="#f2d1a5"/>
    <path id="Path_750" data-name="Path 750" d="M-2531.671-4569.4h-10.645v-10.645h-10.645v10.645h-10.645v10.645h10.645v10.646h10.645v-10.646h10.645Z" transform="translate(2655.156 4631.143)" fill="#fff"/>
    <path id="Path_751" data-name="Path 751" d="M-2704.049-4570.04l-8.986,13.642c-4.469,6.786.616,15.632,8.986,15.632s13.455-8.847,8.986-15.632Z" transform="translate(2766.057 4623.798)" fill="#c4e5f9"/>
    <path id="Path_752" data-name="Path 752" d="M-2704.038-4507.12a10.559,10.559,0,0,1-9.777-6.206c-2.95,6.531,1.989,14.189,9.777,14.189s12.728-7.658,9.777-14.189a10.56,10.56,0,0,1-9.777,6.206Z" transform="translate(2766.046 4582.168)" fill="#9eb6f4"/>
  </g>
  <g id="Group_325" data-name="Group 325" transform="translate(25.815 75.314)">
    <path id="Path_753" data-name="Path 753" d="M-2563.607-4313.392h3.992v3.992h-3.992Z" transform="translate(2629.341 4362.094)" fill="#fff"/>
    <path id="Path_754" data-name="Path 754" d="M-2810.749-4420.2h3.992v3.992h-3.992Z" transform="translate(2810.749 4440.497)" fill="#fff"/>
    <path id="Path_755" data-name="Path 755" d="M-2676.672-4496.5h3.992v3.992h-3.992Z" transform="translate(2712.333 4496.498)" fill="#fff"/>
  </g>
  <g id="Outline" transform="translate(0 0)">
    <path id="Path_756" data-name="Path 756" d="M-2556.263-4473.337h-32.6v3.992h32.6v.666a3.33,3.33,0,0,1-3.327,3.326h-42.581a3.325,3.325,0,0,1-3.056-2.013l-3.666,1.58a7.315,7.315,0,0,0,6.722,4.426h42.581a7.327,7.327,0,0,0,7.319-7.318v-62.614h-3.992Z" transform="translate(2688.397 4597.354)"/>
    <path id="Path_757" data-name="Path 757" d="M-2611.135-4443.548h3.992v9.587h-3.992Z" transform="translate(2690.042 4532.946)"/>
    <path id="Path_758" data-name="Path 758" d="M-2604.2-4743.467h-7.319v-15.968h-7.984v-16.233h7.319v-3.992h-48.9l-8.583,11.444,3.194,2.4,7.385-9.847h27.611v16.233h-7.984v15.968h-7.319a7.327,7.327,0,0,0-7.319,7.319v41.894h3.992v-41.894a3.33,3.33,0,0,1,3.326-3.327h42.581a3.33,3.33,0,0,1,3.327,3.327v18.556h3.992v-18.556A7.327,7.327,0,0,0-2604.2-4743.467Zm-23.286-32.2h3.992v16.233h-3.992Zm11.976,32.2h-19.96v-11.976h19.96Z" transform="translate(2733.007 4779.66)"/>
    <path id="Path_759" data-name="Path 759" d="M-2907.805-4342.638v3.992h13.664l11.935,3.824,1.218-3.8-12.529-4.015Z" transform="translate(2907.805 4458.876)"/>
    <path id="Path_760" data-name="Path 760" d="M-2733.177-4356.174-2763.771-4337l-32.277-10.342-1.218,3.8,34.043,10.908,32.166-20.16Z" transform="translate(2826.667 4468.812)"/>
    <path id="Path_761" data-name="Path 761" d="M-2898.09-4446.55c.231-.121,23.234-11.95,34.905-1.272l.1.088.108.075a5.24,5.24,0,0,1,.959.959h-11.985v3.992h14.539c.493.9.942,1.8,1.292,2.56l.534,1.164h20.628a4.4,4.4,0,0,1,4.391,4.391,4.4,4.4,0,0,1-4.391,4.392h-27.146v3.992h27.146a8.4,8.4,0,0,0,7.969-5.787l24.3-13.256a10.8,10.8,0,0,1,5.153-1.317,10.817,10.817,0,0,1,7.462,3l-18.8,11.785,2.12,3.383,22.558-14.139-1.309-1.831a14.807,14.807,0,0,0-12.027-6.187,14.8,14.8,0,0,0-7.065,1.8l-22.229,12.125a8.4,8.4,0,0,0-8.131-6.344h-18.09c-1.067-2.155-3.291-6.259-5.474-7.873-12.911-11.671-35.351-1.241-38.915.533h-8.312v3.992h9.281Z" transform="translate(2907.805 4542.306)"/>
    <path id="Path_762" data-name="Path 762" d="M-2560.467-4587.55v10.645h-10.645v14.637h10.645v10.646h14.637v-10.646h10.645V-4576.9h-10.645v-10.645Zm21.291,14.637v6.653h-10.645v10.646h-6.653v-10.646h-10.645v-6.653h10.645v-10.645h6.653v10.645Z" transform="translate(2660.665 4638.646)"/>
    <path id="Path_763" data-name="Path 763" d="M-2709.565-4548.784a12.652,12.652,0,0,0,11.2-6.568,11.7,11.7,0,0,0-.55-12.159l-10.653-16.172-10.652,16.172a11.7,11.7,0,0,0-.55,12.159A12.65,12.65,0,0,0-2709.565-4548.784Zm-7.319-16.53,7.319-11.111,7.319,11.111a7.767,7.767,0,0,1,.369,8.068,8.555,8.555,0,0,1-7.688,4.47,8.554,8.554,0,0,1-7.689-4.47,7.766,7.766,0,0,1,.37-8.068Z" transform="translate(2771.574 4635.809)"/>
    <path id="Path_764" data-name="Path 764" d="M-2682.176-4659.091h3.992v10.646h-3.992Z" transform="translate(2742.188 4691.16)"/>
    <path id="Path_765" data-name="Path 765" d="M-2682.176-4689.108h3.992v3.992h-3.992Z" transform="translate(2742.188 4713.193)"/>
    <path id="Path_766" data-name="Path 766" d="M-2642.153-4629.074h3.992v10.645h-3.992Z" transform="translate(2712.81 4669.126)"/>
    <path id="Path_767" data-name="Path 767" d="M-2642.153-4659.091h3.992v3.992h-3.992Z" transform="translate(2712.81 4691.16)"/>
    <path id="Path_768" data-name="Path 768" d="M-2722.2-4629.074h3.992v10.645h-3.992Z" transform="translate(2771.566 4669.126)"/>
    <path id="Path_769" data-name="Path 769" d="M-2722.2-4659.091h3.992v3.992h-3.992Z" transform="translate(2771.566 4691.16)"/>
  </g>
</svg>
