<svg xmlns="http://www.w3.org/2000/svg" width="127.669" height="127.667" viewBox="0 0 127.669 127.667">
  <g id="p2-7" transform="translate(0 0)">
    <rect id="Rectangle_114" data-name="Rectangle 114" width="114.902" height="68.09" rx="32" transform="translate(2.128 14.892)" fill="#ffb655"/>
    <path id="Path_788" data-name="Path 788" d="M-1642.266-4589.779a8.511,8.511,0,0,1-8.511-8.511v-51.068a8.474,8.474,0,0,1,.3-2.127h-2.428a8.511,8.511,0,0,0-8.511,8.511v51.067a8.511,8.511,0,0,0,8.511,8.511h97.879a8.488,8.488,0,0,0,8.211-6.383Z" transform="translate(1663.544 4666.378)" fill="#ffa733"/>
    <path id="Path_789" data-name="Path 789" d="M-1402.777-4378.463h6.383v-17.022h-17.022v6.383A10.639,10.639,0,0,0-1402.777-4378.463Z" transform="translate(1481.506 4478.468)" fill="#ffbcab"/>
    <circle id="Ellipse_54" data-name="Ellipse 54" cx="6.383" cy="6.383" r="6.383" transform="translate(91.496 57.448)" fill="#f7941d"/>
    <circle id="Ellipse_55" data-name="Ellipse 55" cx="6.383" cy="6.383" r="6.383" transform="translate(80.857 57.448)" fill="#f15a29"/>
    <path id="Path_790" data-name="Path 790" d="M-1661.416-4603.486h114.9v12.767h-114.9Z" transform="translate(1663.544 4631.145)" fill="#58595b"/>
    <path id="Path_791" data-name="Path 791" d="M-1543.908-4459.486a8.511,8.511,0,0,0-8.511,8.511v8.511h-19.15l-7.66,17.209a4.256,4.256,0,0,0,.168,3.8l9.073,16.331a4.255,4.255,0,0,1,.536,2.066v5.281h34.056v-53.2A8.511,8.511,0,0,0-1543.908-4459.486Z" transform="translate(1603.487 4525.445)" fill="#ffbcab"/>
    <path id="Path_792" data-name="Path 792" d="M-1336.138-4699.486a21.278,21.278,0,0,0-21.278,21.278,21.278,21.278,0,0,0,21.278,21.278,21.278,21.278,0,0,0,21.278-21.278A21.278,21.278,0,0,0-1336.138-4699.486Z" transform="translate(1440.401 4701.611)" fill="#7ed63e"/>
    <path id="Path_793" data-name="Path 793" d="M-1661.416-4603.486h10.639v12.767h-10.639Z" transform="translate(1663.544 4631.145)" fill="#414042"/>
    <path id="Path_794" data-name="Path 794" d="M-1541.747-4684.073a23.391,23.391,0,0,0-23.379-23.4,23.392,23.392,0,0,0-20.85,12.764h-72.8a10.652,10.652,0,0,0-10.639,10.639v51.067a10.653,10.653,0,0,0,10.639,10.639h18l-5.449,12.279a10.691,10.691,0,0,0,.426,9.488l7.507,13.509a6.409,6.409,0,0,1,.792,3.1v2.049a2.128,2.128,0,0,0,2.128,2.128,2.128,2.128,0,0,0,2.128-2.128v-2.049a10.683,10.683,0,0,0-1.338-5.168l-7.507-13.51a6.422,6.422,0,0,1-.253-5.694l6.226-14.007h15.639v14.895a2.128,2.128,0,0,0,2.128,2.128,2.128,2.128,0,0,0,2.128-2.128v-25.534a6.383,6.383,0,0,1,6.384-6.383,6.383,6.383,0,0,1,6.383,6.383v51.067a2.128,2.128,0,0,0,2.128,2.128,2.128,2.128,0,0,0,2.128-2.128v-26.683a12.7,12.7,0,0,0,8.511,3.277h6.383a2.128,2.128,0,0,0,2.128-2.128v-14.895h21.278a10.652,10.652,0,0,0,10.639-10.639v-33.026A23.376,23.376,0,0,0-1541.747-4684.073Zm-23.406-19.15a19.15,19.15,0,0,1,19.15,19.15,19.15,19.15,0,0,1-19.15,19.15,19.15,19.15,0,0,1-19.15-19.15A19.174,19.174,0,0,1-1565.153-4703.223Zm-100.007,25.534h77.508a23.408,23.408,0,0,0,4.458,8.511h-81.966Zm6.384-12.767h71.124a23.328,23.328,0,0,0-.906,6.383c0,.719.045,1.425.109,2.127h-76.71v-2.127A6.383,6.383,0,0,1-1658.777-4690.456Zm72.346,80.856h-4.256a8.511,8.511,0,0,1-8.511-8.511v-4.255h12.767Zm31.917-23.406a6.383,6.383,0,0,1-6.383,6.383h-38.3v-6.383a10.639,10.639,0,0,0-10.639-10.639,10.639,10.639,0,0,0-10.639,10.639v6.383h-38.3a6.383,6.383,0,0,1-6.384-6.383v-31.917h86.6a23.242,23.242,0,0,0,24.044,1.673Z" transform="translate(1669.416 4707.476)"/>
    <path id="Path_795" data-name="Path 795" d="M-1354.328-4499.487a8.439,8.439,0,0,0-5.3,1.9,8.511,8.511,0,0,0-11.972,1.246,8.511,8.511,0,0,0,1.246,11.972,8.512,8.512,0,0,0,10.726,0,8.495,8.495,0,0,0,11.941-1.311,8.494,8.494,0,0,0-1.311-11.941A8.492,8.492,0,0,0-1354.328-4499.487Zm-14.895,8.511a4.256,4.256,0,0,1,4.256-4.256,4.187,4.187,0,0,1,2.766,1.034,8.4,8.4,0,0,0,0,6.443,4.187,4.187,0,0,1-2.766,1.034A4.256,4.256,0,0,1-1369.222-4490.976Zm14.895,4.255a4.256,4.256,0,0,1-4.256-4.255,4.256,4.256,0,0,1,4.256-4.256,4.256,4.256,0,0,1,4.256,4.256A4.255,4.255,0,0,1-1354.328-4486.72Z" transform="translate(1452.207 4554.808)"/>
    <path id="Path_796" data-name="Path 796" d="M-1535.033-4475.486h-4.256a2.128,2.128,0,0,0-2.128,2.128,2.128,2.128,0,0,0,2.128,2.127h4.256a2.128,2.128,0,0,0,2.128-2.127A2.128,2.128,0,0,0-1535.033-4475.486Z" transform="translate(1575.461 4537.19)"/>
    <path id="Path_797" data-name="Path 797" d="M-1583.033-4475.486h-4.256a2.128,2.128,0,0,0-2.128,2.128,2.128,2.128,0,0,0,2.128,2.127h4.256a2.128,2.128,0,0,0,2.128-2.127A2.128,2.128,0,0,0-1583.033-4475.486Z" transform="translate(1610.694 4537.19)"/>
    <path id="Path_798" data-name="Path 798" d="M-1631.033-4475.486h-4.256a2.128,2.128,0,0,0-2.128,2.128,2.128,2.128,0,0,0,2.128,2.127h4.256a2.128,2.128,0,0,0,2.128-2.127A2.128,2.128,0,0,0-1631.033-4475.486Z" transform="translate(1645.927 4537.19)"/>
    <path id="Path_799" data-name="Path 799" d="M-1318.337-4633.448a2.128,2.128,0,0,0,3.009,0l15.046-15.046a2.128,2.128,0,0,0,.052-3.009,2.128,2.128,0,0,0-3.009-.052l-.052.052-13.541,13.542-4.879-4.879a2.127,2.127,0,0,0-3.009.052,2.128,2.128,0,0,0,0,2.957Z" transform="translate(1416.84 4666.867)"/>
  </g>
</svg>
