<svg id="p3-1" xmlns="http://www.w3.org/2000/svg" width="141.286" height="141.342" viewBox="0 0 141.286 141.342">
  <g id="Filled" transform="translate(0 2.072)">
    <path id="Path_860" data-name="Path 860" d="M287.935-3737.616H243.74a5.524,5.524,0,0,1-5.524-5.524v-88.389a5.524,5.524,0,0,1,5.524-5.525h44.195a5.524,5.524,0,0,1,5.524,5.525v88.389A5.524,5.524,0,0,1,287.935-3737.616Z" transform="translate(-154.246 3874.619)" fill="#9ce3bf"/>
    <path id="Path_861" data-name="Path 861" d="M287.935-3521.352H243.74a5.524,5.524,0,0,1-5.524-5.524v8.287a5.524,5.524,0,0,0,5.524,5.524h44.195a5.524,5.524,0,0,0,5.524-5.524v-8.287A5.524,5.524,0,0,1,287.935-3521.352Z" transform="translate(-154.246 3650.069)" fill="#87bcc4"/>
    <path id="Path_862" data-name="Path 862" d="M293.248-3897.088h24.859v16.573H293.248Z" transform="translate(-194.086 3918.081)" fill="#e4e8ed"/>
    <path id="Path_863" data-name="Path 863" d="M293.248-3867.071h24.859v8.286H293.248Z" transform="translate(-194.086 3896.35)" fill="#cad8eb"/>
    <path id="Path_864" data-name="Path 864" d="M323.265-3973.132h8.286v20.993h-8.286Z" transform="translate(-215.816 3973.132)" fill="#e4e8ed"/>
    <path id="Path_865" data-name="Path 865" d="M57.155-3638.208a13.258,13.258,0,0,0-17.137-3.933l-26,14.183a6.662,6.662,0,0,0,.128-1.3,6.629,6.629,0,0,0-6.629-6.629H-12.566s-3.144-6.858-5.683-8.631c-13.349-12.214-38.587,1.013-38.587,1.013h-9.123v25.166h14.506l51.059,16.36L57.234-3638.1Z" transform="translate(65.959 3738.984)" fill="#ffe4c2"/>
    <path id="Path_866" data-name="Path 866" d="M-.395-3592.074l-51.059-16.36H-65.959v8.287h14.506l51.059,16.36,57.629-36.118-.079-.11a13.208,13.208,0,0,0-5.74-4.551Z" transform="translate(65.959 3720.791)" fill="#f2d1a5"/>
    <path id="Path_867" data-name="Path 867" d="M311.385-3769.973H300.336v-11.049H289.288v11.049H278.239v11.049h11.049v11.049h11.049v-11.049h11.049Z" transform="translate(-183.22 3834.056)" fill="#fff"/>
    <path id="Path_868" data-name="Path 868" d="M138.2-3771.016l-9.326,14.159c-4.639,7.042.639,16.225,9.326,16.225s13.966-9.182,9.327-16.225Z" transform="translate(-73.842 3826.812)" fill="#c4e5f9"/>
    <path id="Path_869" data-name="Path 869" d="M138.212-3707.86a10.96,10.96,0,0,1-10.148-6.441c-3.062,6.779,2.065,14.727,10.148,14.727s13.21-7.948,10.148-14.727a10.96,10.96,0,0,1-10.148,6.441Z" transform="translate(-73.853 3785.754)" fill="#9eb6f4"/>
  </g>
  <g id="Group_337" data-name="Group 337" transform="translate(26.793 78.169)">
    <path id="Path_870" data-name="Path 870" d="M278.239-3514.368h4.143v4.143h-4.143Z" transform="translate(-210.013 3564.916)" fill="#fff"/>
    <path id="Path_871" data-name="Path 871" d="M31.1-3621.18H35.24v4.143H31.1Z" transform="translate(-31.097 3642.242)" fill="#fff"/>
    <path id="Path_872" data-name="Path 872" d="M165.174-3697.474h4.143v4.144h-4.143Z" transform="translate(-128.161 3697.474)" fill="#fff"/>
  </g>
  <g id="Outline" transform="translate(0)">
    <path id="Path_873" data-name="Path 873" d="M287.578-3672.116H253.741v4.143h33.837v.691a3.457,3.457,0,0,1-3.453,3.453H239.93a3.452,3.452,0,0,1-3.172-2.09l-3.805,1.639a7.591,7.591,0,0,0,6.977,4.594h44.195a7.6,7.6,0,0,0,7.6-7.6v-64.988h-4.143Z" transform="translate(-150.436 3800.833)"/>
    <path id="Path_874" data-name="Path 874" d="M230.712-3644.524h4.143v9.95h-4.143Z" transform="translate(-148.813 3737.311)"/>
    <path id="Path_875" data-name="Path 875" d="M240.127-3943.071h-7.6v-16.573h-8.287v-16.849h7.6v-4.143H181.086l-8.908,11.877,3.315,2.486,7.665-10.22h28.657v16.849h-8.286v16.573h-7.6a7.6,7.6,0,0,0-7.6,7.6v43.482h4.143v-43.482a3.456,3.456,0,0,1,3.453-3.453h44.195a3.457,3.457,0,0,1,3.453,3.453v19.259h4.143v-19.259A7.6,7.6,0,0,0,240.127-3943.071Zm-24.169-33.422H220.1v16.849h-4.143Zm12.43,33.422H207.672v-12.43h20.716Z" transform="translate(-106.438 3980.636)"/>
    <path id="Path_876" data-name="Path 876" d="M-65.959-3543.614v4.143h14.182l12.388,3.969,1.264-3.946-13-4.167Z" transform="translate(65.959 3664.258)"/>
    <path id="Path_877" data-name="Path 877" d="M111.1-3557.15l-31.754,19.9-33.5-10.733-1.264,3.945,35.333,11.322,33.386-20.925Z" transform="translate(-14.065 3674.057)"/>
    <path id="Path_878" data-name="Path 878" d="M-55.876-3647.156c.24-.126,24.115-12.4,36.228-1.321l.1.092.112.078a5.414,5.414,0,0,1,1,1H-30.879v4.143h15.09c.512.938.978,1.866,1.34,2.656l.555,1.208H7.515a4.563,4.563,0,0,1,4.558,4.557,4.563,4.563,0,0,1-4.558,4.558H-20.659v4.143H7.515a8.715,8.715,0,0,0,8.272-6.006l25.223-13.758a11.2,11.2,0,0,1,5.348-1.367,11.226,11.226,0,0,1,7.745,3.109l-19.517,12.232,2.2,3.511L60.2-3643l-1.358-1.9a15.37,15.37,0,0,0-12.483-6.421,15.36,15.36,0,0,0-7.332,1.873l-23.071,12.584a8.716,8.716,0,0,0-8.439-6.584H-11.26c-1.107-2.236-3.416-6.5-5.681-8.171-13.4-12.114-36.692-1.288-40.39.553h-8.627v4.144h9.633Z" transform="translate(65.959 3746.542)"/>
    <path id="Path_879" data-name="Path 879" d="M281.784-3788.526v11.049H270.735v15.192h11.049v11.049h15.192v-11.049h11.049v-15.192H296.975v-11.049Zm22.1,15.192v6.905H292.832v11.049h-6.906v-11.049H274.878v-6.905h11.049v-11.049h6.906v11.049Z" transform="translate(-177.788 3841.56)"/>
    <path id="Path_880" data-name="Path 880" d="M132.76-3748.437a13.131,13.131,0,0,0,11.627-6.817,12.147,12.147,0,0,0-.571-12.619l-11.056-16.786L121.7-3767.873a12.147,12.147,0,0,0-.571,12.619A13.129,13.129,0,0,0,132.76-3748.437Zm-7.6-17.157,7.6-11.533,7.6,11.533a8.062,8.062,0,0,1,.384,8.375,8.879,8.879,0,0,1-7.98,4.639,8.878,8.878,0,0,1-7.98-4.639,8.061,8.061,0,0,1,.383-8.375Z" transform="translate(-68.401 3838.76)"/>
    <path id="Path_881" data-name="Path 881" d="M159.671-3860.067h4.143v11.049h-4.143Z" transform="translate(-97.384 3893.351)"/>
    <path id="Path_882" data-name="Path 882" d="M159.671-3890.084h4.143v4.143h-4.143Z" transform="translate(-97.384 3915.082)"/>
    <path id="Path_883" data-name="Path 883" d="M199.694-3830.05h4.143V-3819h-4.143Z" transform="translate(-126.358 3871.621)"/>
    <path id="Path_884" data-name="Path 884" d="M199.694-3860.067h4.143v4.143h-4.143Z" transform="translate(-126.358 3893.351)"/>
    <path id="Path_885" data-name="Path 885" d="M119.648-3830.05h4.143V-3819h-4.143Z" transform="translate(-68.41 3871.621)"/>
    <path id="Path_886" data-name="Path 886" d="M119.648-3860.067h4.143v4.143h-4.143Z" transform="translate(-68.41 3893.351)"/>
  </g>
</svg>
