<svg xmlns="http://www.w3.org/2000/svg" width="141.342" height="141.342" viewBox="0 0 141.342 141.342">
  <g id="p3-14" transform="translate(0 0)">
    <g id="Group_368" data-name="Group 368" transform="translate(11.871 12.837)">
      <path id="Path_1073" data-name="Path 1073" d="M3696.965-3989.93v86.13h117.6v-86.13l-58.8-39.614Z" transform="translate(-3696.965 4029.544)" fill="#f8f8f8"/>
    </g>
    <g id="Group_369" data-name="Group 369" transform="translate(111.436 14.815)">
      <path id="Path_1074" data-name="Path 1074" d="M4057.632-4008.005v-14.372h12.238v23.327Z" transform="translate(-4057.632 4022.377)" fill="#9da5be"/>
    </g>
    <g id="Group_371" data-name="Group 371" transform="translate(4.604 2.761)">
      <g id="Group_370" data-name="Group 370">
        <path id="Path_1075" data-name="Path 1075" d="M3795.419-4010.921l-58.711-39.191L3678-4010.921l-7.357-11.021,66.067-44.1,66.068,44.1Z" transform="translate(-3670.641 4066.044)" fill="#ff7a7a"/>
      </g>
    </g>
    <g id="Group_373" data-name="Group 373" transform="translate(4.604 2.761)">
      <g id="Group_372" data-name="Group 372">
        <path id="Path_1076" data-name="Path 1076" d="M3795.419-4010.921l-58.711-39.191L3678-4010.921l-7.357-11.021,66.067-44.1,66.068,44.1Z" transform="translate(-3670.641 4066.044)" fill="#ff7a7a"/>
      </g>
    </g>
    <g id="Group_374" data-name="Group 374" transform="translate(36.648 42.242)">
      <path id="Path_1077" data-name="Path 1077" d="M3850.57-3887.569a15.171,15.171,0,0,0-3.219-16.7,15.184,15.184,0,0,0-2.964-2.309,25.168,25.168,0,0,0-23.609-16.449,25.167,25.167,0,0,0-23.609,16.449,15.193,15.193,0,0,0-2.965,2.309,15.171,15.171,0,0,0-3.219,16.7,16.691,16.691,0,0,0,.622,22.946,16.691,16.691,0,0,0,23.6,0,16.6,16.6,0,0,0,4.5-8.237h2.133a16.594,16.594,0,0,0,4.5,8.237,16.691,16.691,0,0,0,23.6,0A16.691,16.691,0,0,0,3850.57-3887.569Z" transform="translate(-3786.719 3923.025)" fill="#ffd88e"/>
    </g>
    <g id="Group_375" data-name="Group 375" transform="translate(29.021 98.001)">
      <path id="Path_1078" data-name="Path 1078" d="M3793.245-3721.044h-8.129a26.024,26.024,0,0,0-26.024,26.024v3.394a11.163,11.163,0,0,0,11.163,11.163H3831.3a11.163,11.163,0,0,0,11.163-11.163v-3.394a26.024,26.024,0,0,0-26.024-26.024h-23.193Z" transform="translate(-3759.092 3721.044)" fill="#a0c8ff"/>
    </g>
    <g id="Group_376" data-name="Group 376" transform="translate(74.536 98.001)">
      <path id="Path_1079" data-name="Path 1079" d="M3978.107-3721.044h-44.239a9.9,9.9,0,0,0-9.9,9.9v30.677h64.045v-30.677A9.9,9.9,0,0,0,3978.107-3721.044Z" transform="translate(-3923.965 3721.044)" fill="#e0e1e7"/>
    </g>
    <g id="Group_377" data-name="Group 377" transform="translate(62.389 125.883)">
      <path id="Path_1080" data-name="Path 1080" d="M3885.872-3620.044h-5.907v12.7h5.685a6.484,6.484,0,0,0,6.46-6.349,6.217,6.217,0,0,0-6.238-6.349Z" transform="translate(-3879.965 3620.044)" fill="#ffd0c6"/>
    </g>
    <g id="Group_378" data-name="Group 378" transform="translate(63.174 88.919)">
      <path id="Path_1081" data-name="Path 1081" d="M3897.872-3753.943v8.254a7.532,7.532,0,0,1-7.532,7.532,7.532,7.532,0,0,1-7.532-7.532v-8.254Z" transform="translate(-3882.808 3753.943)" fill="#ffd0c6"/>
    </g>
    <g id="Group_379" data-name="Group 379" transform="translate(55.932 65.2)">
      <path id="Path_1082" data-name="Path 1082" d="M3886.123-3836.717v8.9a14.774,14.774,0,0,1-14.773,14.774,14.774,14.774,0,0,1-14.774-14.774v-8.9h10.845a7.842,7.842,0,0,0,6.281-3.146,14.848,14.848,0,0,0,9.14,3.146Z" transform="translate(-3856.576 3839.863)" fill="#ffd0c6"/>
    </g>
    <g id="Group_380" data-name="Group 380" transform="translate(0 0)">
      <path id="Path_1083" data-name="Path 1083" d="M4028.695-3657.544h-4.969a2.761,2.761,0,0,0-2.76,2.76,2.761,2.761,0,0,0,2.76,2.76h4.969a2.761,2.761,0,0,0,2.76-2.76A2.761,2.761,0,0,0,4028.695-3657.544Z" transform="translate(-3919.652 3773.074)"/>
      <path id="Path_1084" data-name="Path 1084" d="M3689.726-3724.923a2.779,2.779,0,0,0,1.952-.809,2.781,2.781,0,0,0,.809-1.952,2.775,2.775,0,0,0-.809-1.951,2.769,2.769,0,0,0-1.952-.809,2.769,2.769,0,0,0-1.952.809,2.775,2.775,0,0,0-.809,1.951,2.78,2.78,0,0,0,.809,1.952A2.779,2.779,0,0,0,3689.726-3724.923Z" transform="translate(-3677.855 3825.85)"/>
      <path id="Path_1085" data-name="Path 1085" d="M3786.2-3980.292v-37.166l6.8-10.191a2.761,2.761,0,0,0-.764-3.829l-11.836-7.9v-21.85a2.761,2.761,0,0,0-2.76-2.761H3765.4a2.761,2.761,0,0,0-2.76,2.761v10l-36.471-24.346a2.761,2.761,0,0,0-3.065,0l-66.067,44.1a2.761,2.761,0,0,0-.764,3.829l6.8,10.191v27.156a2.761,2.761,0,0,0,2.76,2.761,2.761,2.761,0,0,0,2.761-2.761v-26.323l56.04-37.408,56.04,37.408v35.82h-20.264a19.456,19.456,0,0,0-2.81-18.067,17.837,17.837,0,0,0-4.406-18.124,18.007,18.007,0,0,0-2.672-2.2,28.036,28.036,0,0,0-25.854-17.366,28.036,28.036,0,0,0-25.854,17.366,18.017,18.017,0,0,0-2.672,2.2,17.838,17.838,0,0,0-4.406,18.124,19.445,19.445,0,0,0,.248,23.656,28.761,28.761,0,0,0-11.762,23.2v3.394a13.851,13.851,0,0,0,2.83,8.4H3668.6v-25.233a2.761,2.761,0,0,0-2.761-2.76,2.761,2.761,0,0,0-2.76,2.76v25.232h-6.349a2.761,2.761,0,0,0-2.76,2.76,2.761,2.761,0,0,0,2.76,2.76h135.821a2.761,2.761,0,0,0,2.76-2.76v-30.677A12.683,12.683,0,0,0,3786.2-3980.292Zm-18.036-78.176h6.717v15.4l-6.717-4.484Zm-41.993-1.179a2.758,2.758,0,0,0-1.533-.465,2.758,2.758,0,0,0-1.533.465l-56.415,37.658-4.291-6.429,62.239-41.546,62.239,41.546-4.292,6.429Zm-29.237,63.146a2.761,2.761,0,0,0,.485-2.931,12.354,12.354,0,0,1,2.632-13.659,12.473,12.473,0,0,1,2.427-1.891,2.761,2.761,0,0,0,1.176-1.415,22.488,22.488,0,0,1,21.02-14.645,22.488,22.488,0,0,1,21.02,14.645,2.76,2.76,0,0,0,1.176,1.415,12.451,12.451,0,0,1,2.427,1.891,12.355,12.355,0,0,1,2.633,13.659,2.76,2.76,0,0,0,.485,2.931,13.922,13.922,0,0,1,2.005,15.7h-16.011a12.617,12.617,0,0,0-3.441.479v-4.291a17.518,17.518,0,0,0,7.242-14.183v-8.9a2.761,2.761,0,0,0-2.761-2.761h-4.909a5.825,5.825,0,0,1-4.28-1.879,12.313,12.313,0,0,0,1.054-4.992,2.761,2.761,0,0,0-2.76-2.76,2.761,2.761,0,0,0-2.761,2.76,6.879,6.879,0,0,1-6.871,6.871h-9.02a2.761,2.761,0,0,0-2.76,2.761v8.9a17.518,17.518,0,0,0,7.241,14.183v3.812h-5.368a28.615,28.615,0,0,0-12.226,2.729,13.918,13.918,0,0,1,.147-18.427Zm27.739,9.716a12.027,12.027,0,0,1-12.013-12.013v-6.139h6.26a12.334,12.334,0,0,0,8-2.94,11.345,11.345,0,0,0,7.617,2.94h2.148v6.139a12.026,12.026,0,0,1-12.013,12.013Zm-2.631,46.562h-2.925v-7.178h3.146a3.459,3.459,0,0,1,2.488,1.034,3.46,3.46,0,0,1,.99,2.507,3.719,3.719,0,0,1-3.7,3.637Zm3.7-12.01a9.033,9.033,0,0,0-3.479-.688h-25.052a2.761,2.761,0,0,0-2.76,2.76,2.761,2.761,0,0,0,2.76,2.761h16.385v7.177h-19.445a8.412,8.412,0,0,1-8.4-8.4v-3.394a23.29,23.29,0,0,1,23.264-23.264h6.015a10.309,10.309,0,0,0,9.646,6.7,10.388,10.388,0,0,0,1.069-.056Zm3.7-26.638a4.777,4.777,0,0,1-4.771,4.771,4.777,4.777,0,0,1-4.771-4.771v-3.058a17.473,17.473,0,0,0,4.771.666,17.47,17.47,0,0,0,4.771-.666Zm60.344,38.648h-58.524v-27.917a7.151,7.151,0,0,1,7.143-7.143h44.238a7.151,7.151,0,0,1,7.143,7.143Z" transform="translate(-3653.965 4076.044)"/>
    </g>
  </g>
</svg>
