<svg xmlns="http://www.w3.org/2000/svg" width="141.343" height="120.318" viewBox="0 0 141.343 120.318">
  <g id="p3-15" transform="translate(-6868.296 -1942.86)">
    <g id="p3-15-2" data-name="p3-15" transform="translate(6870.403 1944.911)">
      <path id="Path_1086" data-name="Path 1086" d="M4517.806-3793.212v.017a4.132,4.132,0,0,1-4.133,4.132h-73.724a4.132,4.132,0,0,1-4.133-4.132v-.017a4.132,4.132,0,0,1,4.133-4.133h73.724A4.132,4.132,0,0,1,4517.806-3793.212Z" transform="translate(-4435.816 3847.803)" fill="#555760"/>
      <path id="Path_1087" data-name="Path 1087" d="M4701.614-3793.212v.017a4.132,4.132,0,0,1-4.133,4.132h-7.766a4.132,4.132,0,0,0,4.133-4.132v-.017a4.132,4.132,0,0,0-4.133-4.133h7.766A4.132,4.132,0,0,1,4701.614-3793.212Z" transform="translate(-4619.625 3847.803)" fill="#36383f"/>
      <path id="Path_1088" data-name="Path 1088" d="M4450.789-3767.345l8.282,49.132h57.16l8.282-49.132Z" transform="translate(-4446.656 3826.085)" fill="#52deff"/>
      <path id="Path_1089" data-name="Path 1089" d="M4675.857-3767.345l-8.282,49.132h-7.729l8.282-49.132Z" transform="translate(-4598 3826.085)" fill="#55baff"/>
      <path id="Path_1090" data-name="Path 1090" d="M4480.789-3589.368h57.16v8.305h-57.16Z" transform="translate(-4468.374 3697.24)" fill="#555760"/>
      <path id="Path_1091" data-name="Path 1091" d="M4667.575-3581.062h-7.729v-8.305h7.729Z" transform="translate(-4598 3697.24)" fill="#36383f"/>
      <path id="Path_1092" data-name="Path 1092" d="M4548.117-3899.5H4568.1v7.84h-19.986Z" transform="translate(-4517.115 3921.756)" fill="#555760"/>
      <path id="Path_1093" data-name="Path 1093" d="M4601.973-3891.658H4594.9v-7.84h7.072Z" transform="translate(-4550.984 3921.756)" fill="#36383f"/>
      <path id="Path_1094" data-name="Path 1094" d="M4751.812-3607.47h-28.9l-3.486-3.487-3.486,3.487h-12.351l-3.487-3.487-3.486,3.487h-8.765l1.7-18.375h59.507Z" transform="translate(-4618.271 3723.647)" fill="#fff148"/>
      <path id="Path_1095" data-name="Path 1095" d="M4892.046-3607.47h-7.729l-2.761-18.375h7.73Z" transform="translate(-4758.506 3723.647)" fill="#ffcf4a"/>
      <path id="Path_1096" data-name="Path 1096" d="M4796-3976v93.672h-8.257V-3976a4.107,4.107,0,0,1,1.209-2.921,4.063,4.063,0,0,1,.856-.657,4.1,4.1,0,0,1,2.062-.552A4.128,4.128,0,0,1,4796-3976Z" transform="translate(-4690.593 3980.125)" fill="#c4893b"/>
      <path id="Path_1097" data-name="Path 1097" d="M4801.418-3976v93.672h-4.13V-3976a4.128,4.128,0,0,0-2.062-3.578,4.1,4.1,0,0,1,2.062-.552,4.128,4.128,0,0,1,4.13,4.13Z" transform="translate(-4696.008 3980.125)" fill="#b2581b"/>
      <g id="Group_382" data-name="Group 382" transform="translate(14.629 6.7)">
        <circle id="Ellipse_63" data-name="Ellipse 63" cx="5.038" cy="5.038" r="5.038" fill="#dae6ef"/>
        <circle id="Ellipse_64" data-name="Ellipse 64" cx="5.038" cy="5.038" r="5.038" transform="translate(58.242 6.732)" fill="#dae6ef"/>
      </g>
    </g>
    <g id="Group_384" data-name="Group 384" transform="translate(6868.296 1942.86)">
      <path id="Path_1098" data-name="Path 1098" d="M4567.457-3889.754h-29.664v-70.821a2.07,2.07,0,0,0-2.071-2.07,2.071,2.071,0,0,0-2.071,2.07v70.821h-4.12v-91.6a2.062,2.062,0,0,1,2.06-2.059,2.062,2.062,0,0,1,2.06,2.059v11.27a2.071,2.071,0,0,0,2.071,2.07,2.07,2.07,0,0,0,2.071-2.07v-11.27a6.208,6.208,0,0,0-6.2-6.2,6.208,6.208,0,0,0-6.2,6.2v91.6h-21.372l5.934-35.185a6.223,6.223,0,0,0,4.411-5.955,6.212,6.212,0,0,0-6.207-6.2h-6.214v-12.635a11.66,11.66,0,0,0-11.649-11.644h-6.947v-1.85a2.071,2.071,0,0,0-2.072-2.07h-20a2.071,2.071,0,0,0-2.072,2.07v1.85h-6.946a11.659,11.659,0,0,0-11.649,11.644v12.635h-6.215a6.216,6.216,0,0,0-6.207,6.22,6.215,6.215,0,0,0,4.411,5.938l8.011,47.5v8.132a2.071,2.071,0,0,0,2.071,2.071h65.96a2.073,2.073,0,0,0,1.464-.606l2.023-2.022,2.023,2.023a2.074,2.074,0,0,0,1.465.606h12.357a2.072,2.072,0,0,0,1.465-.606l2.023-2.022,2.023,2.023a2.074,2.074,0,0,0,1.465.606h8.958a2.071,2.071,0,0,0,2.072-2.071,2.071,2.071,0,0,0-2.072-2.07h-8.1l-2.882-2.881a2.074,2.074,0,0,0-1.465-.606,2.072,2.072,0,0,0-1.465.606l-2.881,2.88h-10.642l-2.881-2.881a2.074,2.074,0,0,0-1.465-.606,2.072,2.072,0,0,0-1.465.606l-2.881,2.88h-5.841v-6.062l1.378-8.174h56l2.14,14.236h-8.016a2.071,2.071,0,0,0-2.071,2.07,2.071,2.071,0,0,0,2.071,2.071h10.422a2.072,2.072,0,0,0,1.57-.719,2.069,2.069,0,0,0,.479-1.659l-2.4-16h3.946a2.071,2.071,0,0,0,2.072-2.071,2.071,2.071,0,0,0-2.072-2.07Zm-104.11-71.4H4479.2v3.7h-15.854Zm-18.6,11.423a7.513,7.513,0,0,1,7.507-7.5h6.946v1.85a2.071,2.071,0,0,0,2.072,2.07h20a2.071,2.071,0,0,0,2.072-2.07v-1.85h6.947a7.513,7.513,0,0,1,7.506,7.5v12.635H4444.75Zm53.046,78.356H4444.75v-4.165H4497.8Zm.32-8.306h-53.686l-7.588-44.991h16.614a2.071,2.071,0,0,0,2.072-2.071,2.071,2.071,0,0,0-2.072-2.071h-19.067a2.069,2.069,0,0,1-2.06-2.079,2.066,2.066,0,0,1,2.064-2.063h73.761a2.069,2.069,0,0,1,2.064,2.079,2.065,2.065,0,0,1-2.056,2.063h-45a2.071,2.071,0,0,0-2.072,2.07,2.071,2.071,0,0,0,2.072,2.07H4505.7Z" transform="translate(-4428.186 3987.555)"/>
      <path id="Path_1099" data-name="Path 1099" d="M4488.313-3949.066a7.118,7.118,0,0,0,7.112-7.108,7.118,7.118,0,0,0-7.112-7.108,7.118,7.118,0,0,0-7.112,7.108A7.118,7.118,0,0,0,4488.313-3949.066Zm0-10.076a2.972,2.972,0,0,1,2.969,2.967,2.971,2.971,0,0,1-2.969,2.968,2.971,2.971,0,0,1-2.969-2.968A2.972,2.972,0,0,1,4488.313-3959.142Z" transform="translate(-4466.566 3969.984)"/>
      <path id="Path_1100" data-name="Path 1100" d="M4694.563-3926.576a7.086,7.086,0,0,0,4.842,1.9,7.1,7.1,0,0,0,5.209-2.262,7.114,7.114,0,0,0-.361-10.046,7.123,7.123,0,0,0-10.051.361,7.113,7.113,0,0,0,.361,10.046Zm2.671-7.225a2.962,2.962,0,0,1,2.174-.945,2.959,2.959,0,0,1,2.022.794,2.946,2.946,0,0,1,.944,2.066,2.946,2.946,0,0,1-.793,2.128,2.973,2.973,0,0,1-4.2.151,2.946,2.946,0,0,1-.944-2.066A2.944,2.944,0,0,1,4697.234-3933.8Z" transform="translate(-4619.388 3952.32)"/>
      <ellipse id="Ellipse_65" data-name="Ellipse 65" cx="2.067" cy="2.066" rx="2.067" ry="2.066" transform="translate(46.694 42.045) rotate(-0.115)"/>
      <ellipse id="Ellipse_66" data-name="Ellipse 66" cx="2.067" cy="2.066" rx="2.067" ry="2.066" transform="translate(22.66 37.904) rotate(-0.115)"/>
      <ellipse id="Ellipse_67" data-name="Ellipse 67" cx="2.067" cy="2.066" rx="2.067" ry="2.066" transform="matrix(1, -0.002, 0.002, 1, 57.738, 39.284)"/>
      <ellipse id="Ellipse_68" data-name="Ellipse 68" cx="2.066" cy="2.067" rx="2.066" ry="2.067" transform="matrix(0.002, -1, 1, 0.002, 88.123, 48.929)"/>
      <ellipse id="Ellipse_69" data-name="Ellipse 69" cx="2.067" cy="2.066" rx="2.067" ry="2.066" transform="translate(84.312 32.006)"/>
      <ellipse id="Ellipse_70" data-name="Ellipse 70" cx="2.067" cy="2.066" rx="2.067" ry="2.066" transform="translate(54.979 11.674)"/>
      <ellipse id="Ellipse_71" data-name="Ellipse 71" cx="2.067" cy="2.066" rx="2.067" ry="2.066" transform="matrix(1, -0.002, 0.002, 1, 8.021, 22.445)"/>
    </g>
  </g>
</svg>
