<svg xmlns="http://www.w3.org/2000/svg" width="132.508" height="104.713" viewBox="0 0 132.508 104.713">
  <g id="p3-13" transform="translate(0 0)">
    <path id="Path_1050" data-name="Path 1050" d="M2936.953-3887.454h132.508v88.339H2936.953Z" transform="translate(-2936.953 3895.641)" fill="#dcf9fe"/>
    <g id="Group_366" data-name="Group 366" transform="translate(0)">
      <g id="Group_362" data-name="Group 362" transform="translate(92.756 25.855)">
        <path id="Path_1051" data-name="Path 1051" d="M3316.289-3759.454h-35.336v25.8a8.282,8.282,0,0,0,4.578,7.407l10.6,5.3a5.522,5.522,0,0,0,4.963-.012l10.649-5.393a8.282,8.282,0,0,0,4.54-7.389Z" transform="translate(-3278.744 3777.122)" fill="#ffd4cf"/>
        <path id="Path_1052" data-name="Path 1052" d="M3280.953-3687.454v5.924a8.282,8.282,0,0,0,4.578,7.408l10.605,5.3a5.522,5.522,0,0,0,4.963-.012l10.649-5.393a8.282,8.282,0,0,0,4.54-7.389v-5.84l-17.668,4.417Z" transform="translate(-3278.744 3724.998)" fill="#55e1b2"/>
        <path id="Path_1053" data-name="Path 1053" d="M3352.953-3823.454h9.938a5.521,5.521,0,0,1,5.521,5.521v12.147h-15.459v-17.668Z" transform="translate(-3330.868 3823.454)" fill="#d76b4c"/>
        <path id="Path_1054" data-name="Path 1054" d="M3289.03-3801.369h-13.317a2.761,2.761,0,0,1-2.761-2.76v-11.042a8.282,8.282,0,0,1,8.282-8.282h22.637l-4.265,14.215A11.042,11.042,0,0,1,3289.03-3801.369Z" transform="translate(-3272.953 3823.454)" fill="#fa5d3f"/>
      </g>
      <g id="Group_363" data-name="Group 363" transform="translate(2.208 25.855)">
        <path id="Path_1055" data-name="Path 1055" d="M2952.953-3759.454v25.8a8.282,8.282,0,0,0,4.578,7.407l10.6,5.3a5.522,5.522,0,0,0,4.963-.012l10.649-5.393a8.282,8.282,0,0,0,4.54-7.389v-25.717Z" transform="translate(-2950.744 3777.122)" fill="#ffd4cf"/>
        <path id="Path_1056" data-name="Path 1056" d="M2952.953-3687.454v5.924a8.282,8.282,0,0,0,4.578,7.408l10.605,5.3a5.522,5.522,0,0,0,4.963-.012l10.649-5.393a8.282,8.282,0,0,0,4.54-7.389v-5.84l-17.668,4.417Z" transform="translate(-2950.744 3724.998)" fill="#55e1b2"/>
        <path id="Path_1057" data-name="Path 1057" d="M2980.84-3801.369h-4.969l-6.625-6.625v6.625h-8.558l-6.625-6.625v6.625h-6.349a2.761,2.761,0,0,1-2.76-2.76v-11.042a8.282,8.282,0,0,1,8.282-8.282h35.888v13.8a8.282,8.282,0,0,1-8.282,8.282Z" transform="translate(-2944.953 3823.454)" fill="#fac850"/>
      </g>
      <g id="Group_365" data-name="Group 365">
        <path id="Path_1058" data-name="Path 1058" d="M3120.953-3744.134l3.254,18.549,12.2,7.258,12.2-7.258,3.254-18.549-15.334-7.32Z" transform="translate(-3070.158 3797.185)" fill="#79d8eb"/>
        <g id="Group_364" data-name="Group 364">
          <path id="Path_1059" data-name="Path 1059" d="M3299.167-3780.444l2,3.94a10.44,10.44,0,0,0,5.751-9.359v-37.864a7.739,7.739,0,0,0-7.729-7.729h-23.741a10.5,10.5,0,0,0-10.49,10.49v11.042a4.969,4.969,0,0,0,2.208,4.13v20.014a10.432,10.432,0,0,0,5.8,9.383l10.6,5.3a7.764,7.764,0,0,0,6.949-.018l6.355-3.218-2-3.94-6.355,3.218a3.33,3.33,0,0,1-2.978.008l-10.6-5.3a6.042,6.042,0,0,1-3.357-5.433v-3.1l14.924,3.731a2.208,2.208,0,0,0,1.071,0l14.924-3.731v3.012a6.044,6.044,0,0,1-3.33,5.418Zm3.33-43.281v9.938h-6.764q.106-.3.2-.609l3.78-12.6a3.317,3.317,0,0,1,2.785,3.27Zm-33.127,2.76a6.08,6.08,0,0,1,6.073-6.073h19.668l-3.412,11.374a8.78,8.78,0,0,1-8.461,6.294h-13.317a.552.552,0,0,1-.552-.552Zm17.668,31.4-15.459-3.865v-11.527h11.66a13.173,13.173,0,0,0,9.9-4.417h9.358v15.944Z" transform="translate(-3174.406 3855.101)"/>
          <path id="Path_1060" data-name="Path 1060" d="M3304.953-3719.454h4.417v4.417h-4.417Z" transform="translate(-3203.363 3774.019)"/>
          <path id="Path_1061" data-name="Path 1061" d="M3368.953-3719.454h4.417v4.417h-4.417Z" transform="translate(-3249.696 3774.019)"/>
          <path id="Path_1062" data-name="Path 1062" d="M2976.953-3719.454h4.417v4.417h-4.417Z" transform="translate(-2965.911 3774.019)"/>
          <path id="Path_1063" data-name="Path 1063" d="M3040.953-3719.454h4.417v4.417h-4.417Z" transform="translate(-3012.243 3774.019)"/>
          <path id="Path_1064" data-name="Path 1064" d="M2936.953-3820.964v11.042a4.97,4.97,0,0,0,2.208,4.13v20.014a10.434,10.434,0,0,0,5.8,9.383l10.6,5.3a7.763,7.763,0,0,0,6.949-.018l10.649-5.393a10.44,10.44,0,0,0,5.751-9.359v-19.829a10.507,10.507,0,0,0,6.625-9.753v-13.8a2.208,2.208,0,0,0-2.208-2.208h-22.085v4.417h19.876v11.594a6.08,6.08,0,0,1-6.073,6.073h-4.054l-5.979-5.979a2.208,2.208,0,0,0-3.123,0,2.209,2.209,0,0,0-.647,1.562v4.417h-5.435l-5.978-5.979a2.209,2.209,0,0,0-3.124,0,2.209,2.209,0,0,0-.647,1.562v4.417h-4.141a.552.552,0,0,1-.552-.552v-11.042a6.08,6.08,0,0,1,6.073-6.073h9.386v-4.417h-9.386a10.5,10.5,0,0,0-10.49,10.49Zm34.214,40.521-10.648,5.392a3.328,3.328,0,0,1-2.978.008l-10.6-5.3a6.041,6.041,0,0,1-3.357-5.433v-3.1l14.924,3.731a2.215,2.215,0,0,0,1.071,0l14.924-3.731v3.012A6.044,6.044,0,0,1,2971.167-3780.443Zm-22.9-24.509a2.209,2.209,0,0,0,2.208-2.208v-1.294l2.855,2.855a2.209,2.209,0,0,0,1.562.647h8.558a2.209,2.209,0,0,0,2.208-2.208v-1.294l2.855,2.855a2.208,2.208,0,0,0,1.562.647h4.417v11.527l-15.459,3.865-15.459-3.865v-11.527Z" transform="translate(-2936.953 3855.1)"/>
          <path id="Path_1065" data-name="Path 1065" d="M2944.225-3597.111l-6.625,6.625a2.209,2.209,0,0,0,0,3.123h0l6.625,6.625,3.123-3.124-5.064-5.063,5.064-5.064Z" transform="translate(-2936.953 3685.45)"/>
          <path id="Path_1066" data-name="Path 1066" d="M3382.419-3597.111l-3.124,3.123,5.064,5.063-5.064,5.064,3.124,3.123,6.625-6.625a2.208,2.208,0,0,0,0-3.123h0Z" transform="translate(-3257.183 3685.45)"/>
          <path id="Path_1067" data-name="Path 1067" d="M2976.953-3575.454h110.423v4.417H2976.953Z" transform="translate(-2965.911 3669.771)"/>
          <path id="Path_1068" data-name="Path 1068" d="M2944.225-3900.737l3.123-3.123-5.064-5.064,5.064-5.064-3.123-3.124-6.625,6.625a2.209,2.209,0,0,0,0,3.123h0Z" transform="translate(-2936.953 3917.111)"/>
          <path id="Path_1069" data-name="Path 1069" d="M3382.419-3900.737l6.625-6.625a2.208,2.208,0,0,0,0-3.124h0l-6.625-6.625-3.124,3.124,5.064,5.064-5.064,5.064Z" transform="translate(-3257.183 3917.111)"/>
          <path id="Path_1070" data-name="Path 1070" d="M2976.953-3895.454h110.423v4.417H2976.953Z" transform="translate(-2965.911 3901.433)"/>
          <path id="Path_1071" data-name="Path 1071" d="M3131.7-3759.239a2.208,2.208,0,0,0-1.89-.006l-15.584,7.32a2.209,2.209,0,0,0-1.237,2.381l3.255,18.549a2.208,2.208,0,0,0,1.047,1.517l12.2,7.258a2.211,2.211,0,0,0,2.258,0l12.2-7.258A2.209,2.209,0,0,0,3145-3731l3.254-18.548a2.208,2.208,0,0,0-1.224-2.374Zm9.128,26.482-10.2,6.069-10.2-6.069-2.788-15.887,13.11-6.158,12.876,6.147Z" transform="translate(-3064.366 3802.977)"/>
          <path id="Path_1072" data-name="Path 1072" d="M3150.419-3712.694l-3.124,3.123,4.417,4.417a2.209,2.209,0,0,0,3.124,0h0l8.834-8.834-3.123-3.123-7.272,7.272Z" transform="translate(-3089.229 3772.323)"/>
        </g>
      </g>
    </g>
  </g>
</svg>
