<svg id="p3-12" xmlns="http://www.w3.org/2000/svg" width="141.341" height="139.022" viewBox="0 0 141.341 139.022">
  <path id="Path_1033" data-name="Path 1033" d="M2246.656-3935.458c-.2.087-.411.185-.625.293-2.728,1.378-5.671,2.371-8.437,3.687a49.955,49.955,0,0,0-15.049,10.354c-5.3,5.578-7.859,11.694-10.293,18.778a52.818,52.818,0,0,0-2.023,23.578c1.037,7.976,4.084,16.42,9.112,22.744,4.666,5.868,11.912,9.946,18.837,12.665,8.9,3.494,17.824,5.109,27.371,3.747a58.551,58.551,0,0,0,12.3-3.115c2.06-.774,3.959-1.921,6-2.707,1.553-.6,2.938-.726,4.374-1.682,6.334-4.221,10.342-11.649,13.923-18.142a45.73,45.73,0,0,0,5.585-17,66.586,66.586,0,0,0,.145-14.117,24.708,24.708,0,0,0-5.332-12.953,82.837,82.837,0,0,0-15.739-15.9c-5-3.887-10.852-7.71-17.074-9.032a89.372,89.372,0,0,0-10.713-1.745C2254.975-3936.355,2250.517-3937.118,2246.656-3935.458Z" transform="translate(-2208.229 3937.528)" fill="#cfdaf0"/>
  <path id="Path_1034" data-name="Path 1034" d="M2287.477-3504.141c-2.077.733-3.935,1.935-5.988,2.739-1.579.618-3.141,1.131-4.281,2.493-2.059,2.464-.018,4.849,2.572,6.023,4.886,2.215,10.859,2.832,16.092,3.8,6.632,1.229,13.168.779,19.859.8,4.19.011,9.638-.121,13.559-1.7,2.611-1.055,8.28-4.061,7.138-7.613s-8.881-5.322-12.057-5.94c-3.853-.75-7.55-1.167-11.4-1.542C2304.122-3505.952,2294.73-3506.8,2287.477-3504.141Z" transform="translate(-2256.464 3625.834)" fill="#384457"/>
  <path id="Path_1035" data-name="Path 1035" d="M2362.374-3572.546c-.67,3.856-1.149,11.272,1.745,14.426a7.018,7.018,0,0,0,9.519.353c4.058-3.69,2-10.475,1.735-15.173-.178-3.19.122-6.464-.3-9.608-.391-2.9-3.242-2.32-5.72-2.205-2.211.1-6.237-.9-6.659,1.586C2362.016-3579.184,2362.82-3574.974,2362.374-3572.546Z" transform="translate(-2318.362 3682.984)" fill="#8490c8"/>
  <g id="Group_359" data-name="Group 359" transform="translate(9.202 8.729)">
    <path id="Path_1036" data-name="Path 1036" d="M2356.789-3872.88c-3.781-2.2-7.119-7.81-8.6-11.895-2.295-6.33-.824-15.993,4.487-20.527a13.034,13.034,0,0,1,11.722-2.967c1.953.479,4.386,1.261,5.213,3.285a14.684,14.684,0,0,1,.378,8c-1,4.035-4.589,7.334-6.32,11.118-1.678,3.669-3.56,7.553-2.149,11.519C2360.146-3873.486,2357.976-3874.062,2356.789-3872.88Z" transform="translate(-2316.906 3908.638)" fill="#f3757a"/>
    <path id="Path_1037" data-name="Path 1037" d="M2273.373-3788.194c-3.639,3.337-9.8,3.612-14.1,1.426-5.08-2.585-7.5-10.639-14.273-9.353-9.152,1.738-8.632,12.668-4.716,19.19,4.277,7.124,14.842,7.447,21.953,5.858a21.046,21.046,0,0,0,10.7-6.3,3.628,3.628,0,0,0,1.422-3.167c-.1-1.582-.822-2.9-.633-4.609C2273.806-3785.881,2274.9-3788.7,2273.373-3788.194Z" transform="translate(-2237.611 3827.282)" fill="#f3757a"/>
    <path id="Path_1038" data-name="Path 1038" d="M2364-3725.271c1.293,4.123,2.02,9.132-.951,12.84-3.661,4.569-8.718,10.034-5.188,16.174,3.279,5.7,10.346,5.887,15.029,1.462,5.292-5,5.614-13.94,3.634-20.485-.613-2.025-1.575-3.749-2.342-5.68-.427-1.077-.836-3.276-1.814-3.994-1.07-.786-2.775-.1-3.988,0C2367.146-3724.852,2365.54-3725.362,2364-3725.271Z" transform="translate(-2323.798 3775.932)" fill="#f3757a"/>
    <path id="Path_1039" data-name="Path 1039" d="M2420.047-3787.94a11.831,11.831,0,0,1,6.781.832c2.37.987,3.449,3.2,5.3,4.866a21.085,21.085,0,0,0,7.415,4.328c2.542.749,5.827-.792,7.971-2.219,4.693-3.124,5.213-13.254,2.929-17.958-1.628-3.353-6.057-4.835-9.291-6.148a16.251,16.251,0,0,0-10.8-.7c-4.134,1.056-9.358,3.4-11.708,7.208-.816,1.321-.625,2.252-.1,3.687a13.545,13.545,0,0,1,1,3.012C2419.691-3789.928,2419.13-3788.712,2420.047-3787.94Z" transform="translate(-2368.273 3834.003)" fill="#f3757a"/>
  </g>
  <g id="Group_360" data-name="Group 360" transform="translate(44.961 43.139)">
    <path id="Path_1040" data-name="Path 1040" d="M2370.635-3782.167c-2.417,1.077-3.859,6.079-3.409,8.487.534,2.857,3.169,5.84,6.06,6.379,3.452.644,7.282-.35,8.828-3.675a9.4,9.4,0,0,0-.581-8.977,8.913,8.913,0,0,0-4.677-3.453C2373.589-3784.679,2372.557-3783.7,2370.635-3782.167Z" transform="translate(-2367.145 3783.992)" fill="#c8497a"/>
    <path id="Path_1041" data-name="Path 1041" d="M2380.318-3555.337c-2.215.506-2.229,7.474-.713,8.561a2.886,2.886,0,0,0,3.923-.754c.779-1.512.22-4.217.12-5.9C2383.485-3556.138,2382.244-3555.257,2380.318-3555.337Z" transform="translate(-2375.401 3618.514)" fill="#c8497a"/>
  </g>
  <path id="Path_1042" data-name="Path 1042" d="M2304.9-3899.564c-.291-1.438-.417-2.837-.792-4.259a29.3,29.3,0,0,0-1.537-4.652c-2.251-5.036-5.325-10.221-9.423-13.962-2.2-2-4.33-4.466-6.867-6.042-2.578-1.6-5.141-3.236-7.788-4.738-.627-.356-1.268-.514-1.913-.8a13.04,13.04,0,0,1-1.584-1,24.748,24.748,0,0,0-4.144-1.671,83.535,83.535,0,0,0-9.74-2.9,16.97,16.97,0,0,0-4.4-.472c-1.635,0-3.289-.3-4.92-.151-2.924.267-5.824.17-8.674,1.007a53.71,53.71,0,0,0-8.866,3.042c-1.951.979-3.823,2.069-5.691,3.191-.1.057-.2.109-.3.167-.37.212-.726.436-1.077.665l-.613.37a20.154,20.154,0,0,0-1.965,1.371,34.477,34.477,0,0,0-5.185,4.532,25.392,25.392,0,0,0-5.125,5.444c-.032.051-.066.1-.1.151a16.859,16.859,0,0,0-1.377,2.067c-.07.125-.146.246-.219.369-.26.4-.516.8-.761,1.21-.295.45-.589.9-.856,1.36a29.471,29.471,0,0,0-1.608,3.721c-.594,1.476-1.32,2.9-1.841,4.4-.534,1.541-.809,3.15-1.223,4.725-.818,3.117-1.778,6.029-1.8,9.291-.018,3.007-.47,5.959-.077,8.968.166,1.271.392,2.543.6,3.809a33.97,33.97,0,0,0,.91,4.564c.448,1.436.683,2.924,1.14,4.356.484,1.519,1.05,3.016,1.614,4.5a34.925,34.925,0,0,0,1.784,3.4,26.174,26.174,0,0,0,2.266,3.507c1.5,2.025,3.333,4.532,5.483,5.895,2.687,1.7,4.853,4.1,7.626,5.7,1.12.648,2.22,1.312,3.338,1.949a34.315,34.315,0,0,0,3.682,1.71,38.4,38.4,0,0,0,8.635,2.77c2.229.378,4.442.693,6.662.995a52.363,52.363,0,0,0-.846,5.61c-.061,1.219,0,2.451-.023,3.672-.018,1.143-.218,2.252-.265,3.391-.051,1.23,0,2.464-.039,3.695-.033.982-.213,1.946-.273,2.925-.441,0-.914-.043-1.265-.04a20.775,20.775,0,0,0-3.333.31c-2.265.39-4.47,1.028-6.705,1.524a31.3,31.3,0,0,0-5.65,1.879c-.87.385-1.654.913-2.5,1.346a8.551,8.551,0,0,0-2.652,1.692c-1.126,1.244-2.1,2.484-1.636,4.257a5.977,5.977,0,0,0,3.521,3.587A47.672,47.672,0,0,0,2239-3803.24c4.287.762,8.76,1.744,13.121,1.773,2.4.016,4.79.263,7.209.227,2.284-.035,4.532-.132,6.806-.272a43.944,43.944,0,0,0,6.481-.751c2-.433,4.01-.49,5.92-1.341,3.135-1.4,7.272-3.7,7.172-7.644-.057-2.242-1.567-3.535-3.265-4.712a19.469,19.469,0,0,0-6.625-2.9c-1.2-.269-2.407-.353-3.6-.644a19.3,19.3,0,0,0-3.359-.445,52.61,52.61,0,0,0-6.147-.263c.086-1.616-.01-3.26,0-4.613.026-2.812-.213-5.6-.2-8.412a46.585,46.585,0,0,0-.419-7.8,56.873,56.873,0,0,0,16.283-4.567,41.382,41.382,0,0,0,3.755-1.911,1.443,1.443,0,0,0,.361-.213,28.938,28.938,0,0,0,9.372-8.408c1.73-2.561,3.761-4.94,5.322-7.605.758-1.3,1.673-2.474,2.386-3.8s1.364-2.7,2-4.07a43.7,43.7,0,0,0,4.116-18.6A48.185,48.185,0,0,0,2304.9-3899.564Zm-5.965-9.311q.487.979.932,1.979c1.2,2.7,1.5,5.559,2.065,8.422.111.565.2,1.134.284,1.705-.966.452-1.908.991-2.9,1.4-.755.309-1.509.6-2.266.886a17.682,17.682,0,0,0-1.447-2.4,13.31,13.31,0,0,0-2.213-2.5c-.113-2.086-.316-4.154-.58-6.218.709-.3,1.409-.619,2.092-.984.914-.489,1.811-.988,2.708-1.509.174-.1.36-.223.553-.352C2298.371-3908.553,2298.644-3908.711,2298.938-3908.875Zm-5.437,12.943c.046.066.1.13.14.2a18.593,18.593,0,0,1,1.239,2.016c-.094.031-.186.064-.28.095-.385.127-.769.258-1.152.391.031-.866.054-1.73.054-2.587C2293.5-3895.857,2293.5-3895.895,2293.5-3895.932Zm2.035,4.027a12.752,12.752,0,0,1,.3,3.922c-.163,2.949-1.188,6.71-3.237,8.875-.211.223-.425.434-.641.636.1-.676.188-1.355.265-2.035.5-3.478.918-7.066,1.13-10.627Q2294.451-3891.507,2295.536-3891.9Zm-4.406-28.152a32.365,32.365,0,0,1,5.163,6.566c.648.984,1.248,1.994,1.812,3.026-.661.39-1.3.857-1.92,1.215-1.18.687-2.376,1.3-3.61,1.87-.264-1.837-.563-3.675-.889-5.526a31.81,31.81,0,0,0-2.1-6.611c-.456-1.1-.924-2.282-1.455-3.438C2289.146-3921.975,2290.127-3920.96,2291.13-3920.056Zm-31.41,81.919c.1,1.263.2,2.533.212,3.8.024,2.614.214,5.211.253,7.814.022,1.5-.013,3.01-.015,4.516a13.574,13.574,0,0,1-.292,3.859,2.743,2.743,0,0,1-2.234,2.318,11.492,11.492,0,0,1-3.791.346,5.064,5.064,0,0,1-4.613-3.985,11.046,11.046,0,0,1,.044-3.778,27.354,27.354,0,0,0,.018-3.751c-.068-2.528.126-5.045.064-7.583a35.164,35.164,0,0,1,.155-3.6,10.47,10.47,0,0,0-.116-2.651l1.86.247a35.74,35.74,0,0,0,8.5-.219A6.126,6.126,0,0,0,2259.72-3838.137Zm-24.781-17.728c-1.6-.347-3.18-.743-4.754-1.157-1.783-.469-3.562-.929-5.334-1.41q.256-.98.509-1.959a65.06,65.06,0,0,0,1.365-7.119c.146-1.005.273-2.009.389-3.012a129.2,129.2,0,0,0,13.259,2.5q-.365,2-.783,4a65.972,65.972,0,0,1-2.439,8.485C2236.411-3855.636,2235.674-3855.744,2234.939-3855.865Zm-14.879-31.951a47.2,47.2,0,0,0,6.217,1.208c-.079,2.387-.149,4.776-.187,7.161-.019,1.192-.083,2.366-.177,3.534a13.848,13.848,0,0,1-8.8-5.7,15.564,15.564,0,0,1-2.271-7.477C2216.563-3888.632,2218.309-3888.29,2220.06-3887.816Zm-5.3-2.889c-.062-3.114.649-6.021,3.671-7.558a8.016,8.016,0,0,1,7.373.074,50.759,50.759,0,0,1,.542,9.524c0,.055,0,.109-.005.164-1.276-.182-2.551-.377-3.831-.577-1.618-.252-3.245-.6-4.848-.95-.732-.161-1.513-.3-2.272-.479C2215.176-3890.572,2214.966-3890.637,2214.756-3890.705Zm27.589-20a19.163,19.163,0,0,0,3.6,9.367q.281.359.567.716c-.574-.021-1.148-.039-1.721-.045-.631-.007-1.262-.038-1.893-.083-.035-.408-.067-.817-.111-1.224a35.861,35.861,0,0,0-1.03-6.5v0a65.489,65.489,0,0,0-2.01-7.338q1.236.114,2.473.195A24.823,24.823,0,0,0,2242.346-3910.705Zm19.831,23.338c.05-1.95.032-3.912-.071-5.867a9.985,9.985,0,0,1,.826,1.555,6.437,6.437,0,0,1,.405,4.271Zm.555,1.782c-.015.035-.029.069-.044.1a7.948,7.948,0,0,1-.646,1.17q.04-.62.07-1.242Zm-.134-10.308a9.019,9.019,0,0,0-.737-.544q-.126-1.244-.3-2.474c1.327-.074,2.657-.146,3.988-.228A17.406,17.406,0,0,0,2262.6-3895.893Zm-.948,17.054c.432.583.813,1.255,1.006,1.575a19.631,19.631,0,0,1,1.81,4.052,24.273,24.273,0,0,1,.874,3.694l-.015,0c-1.52.2-3.051.33-4.585.413q.071-.491.141-.983c.211-1.482.221-3,.313-4.5C2261.282-3876.009,2261.5-3877.418,2261.649-3878.839Zm2.216-.849a14.618,14.618,0,0,0-1.146-1.426,10.476,10.476,0,0,0,2.429-3.5c1.021-.373,3.062.044,3.963.082,1.782.075,3.024,1.058,4.379,2.089a15,15,0,0,1,3.419,3.33,15.139,15.139,0,0,0,1.788,2.048q-.463,2.961-1.108,5.889c-3.3.486-6.6.92-9.915,1.35a32.346,32.346,0,0,0-1.335-5.035A18.753,18.753,0,0,0,2263.865-3879.687Zm13.984-1.6a15.991,15.991,0,0,0-3.39-2.81,10.483,10.483,0,0,0-3.559-1.927c-.11-.03-.222-.052-.334-.074a87.182,87.182,0,0,0,9.273-1.469c-.038.679-.081,1.355-.137,2.029-.162,1.929-.367,3.867-.62,5.8C2278.658-3880.244,2278.248-3880.767,2277.849-3881.285Zm-11.909-6.23a9.106,9.106,0,0,0,.012-2.281,9.512,9.512,0,0,0-1.763-4.407,20.042,20.042,0,0,1,2.28-2.881,15.926,15.926,0,0,1,3.413-2.3c.083-.048.171-.089.255-.135,2.822-.345,5.619-.964,8.4-1.54.254-.052.5-.115.757-.172a70.323,70.323,0,0,1,.625,11.831A81.464,81.464,0,0,1,2265.94-3887.514Zm3.431-14.177c-.416.208-.813.435-1.2.668-1.763.187-3.532.305-5.305.339-.524.01-1.048.027-1.573.044-.131-.758-.272-1.511-.434-2.256-.251-1.159-.528-2.312-.817-3.464.828-1.345,1.391-2.852,2.2-4.218.938-1.588,1.9-3.157,2.758-4.793.153-.292.31-.594.467-.9.785-.07,1.569-.146,2.354-.236a43.066,43.066,0,0,0,6.827-1.5c.2-.056.4-.116.6-.176a122.03,122.03,0,0,1,3.256,12.415c.136.631.259,1.266.375,1.9A22.317,22.317,0,0,0,2269.372-3901.692Zm-12.682,44.983q-.429,1.293-.878,2.575c-.123.006-.246.013-.37.017-2.7.1-5.4-.26-8.089-.205h-.094c-1.151-5.083,4.315-9.1,6.771-12.95.023-.037.046-.077.07-.114,1.486.02,2.968.04,4.453.025-.28,1.778-.574,3.553-.847,5.337S2257.1-3858.46,2256.69-3856.709Zm-4.339-39.357a10.343,10.343,0,0,0-2.177,2.657.3.3,0,0,0-.108.016c-1.263.446-2.4,1.321-3.682,1.807a16.161,16.161,0,0,1-2.885.8q-.078-1.905-.185-3.807c-.051-1.454-.13-2.907-.258-4.365q.727.036,1.453.078c1.2.07,2.4.088,3.6.085A9.792,9.792,0,0,0,2252.35-3896.065Zm-1.072-2.7.032,0a34.2,34.2,0,0,0,5.1.135,7.5,7.5,0,0,0,.329.724h-.022a6.964,6.964,0,0,0-3.558,1.224c-.62-.65-1.174-1.391-1.815-2.023Zm-3.148,11.4c-1.511.033-3.021.072-4.528.054-.01-.52-.02-1.04-.036-1.56a12.7,12.7,0,0,0,3.488-1.124,9.009,9.009,0,0,0,1.853-1.124A7.979,7.979,0,0,0,2248.13-3887.364Zm-4.5,1.745c1.369,0,2.683.126,4.066.212.275.017.551.028.826.035.04.112.081.223.127.335a10.486,10.486,0,0,0,.586,1.18,19.038,19.038,0,0,1-5.475,5.028c-.1.069-.208.134-.313.2.023-.366.05-.731.068-1.1C2243.61-3881.69,2243.638-3883.654,2243.625-3885.619Zm-.377,9.545c.159-.067.321-.13.476-.2a18.679,18.679,0,0,0,6.855-5.713,9.862,9.862,0,0,0,2.469,1.98c.095.238.2.479.2.475a11.917,11.917,0,0,1,.207,1.386,19.158,19.158,0,0,1,.4,4.819,10.978,10.978,0,0,1-1.393,4.341c-2.208-.02-4.432-.09-6.583-.326-1.141-.125-2.293-.152-3.445-.217Q2242.953-3872.786,2243.248-3876.074Zm12.8,7.093h-1.121a10.55,10.55,0,0,0,.917-5.35,22.482,22.482,0,0,0-.776-4.263c-.066-.2-.118-.428-.182-.643a8.178,8.178,0,0,0,4.341.082,7.03,7.03,0,0,0,.726-.23c-.222,2.761-.488,5.525-.848,8.27-.092.7-.192,1.4-.3,2.091Q2257.427-3868.982,2256.046-3868.981Zm2.037-12.65a5.926,5.926,0,0,1-5.675-1.938,8.354,8.354,0,0,1-1.4-1.809c.755-.016,1.51-.036,2.262-.035l5.408.005c.558,0,1.114-.021,1.669-.048q-.065,1.513-.168,3.01A5.866,5.866,0,0,1,2258.083-3881.632Zm-4.467-5.692c-1.1-.064-2.2-.078-3.3-.071a5.445,5.445,0,0,1,.119-2.081,11.188,11.188,0,0,1,2.771-4.813,5.675,5.675,0,0,1,4.482-1.412,6.372,6.372,0,0,1,2.567.867c.18,2.5.211,5.023.149,7.528C2258.136-3887.231,2255.864-3887.192,2253.616-3887.324Zm5.489-22.567c-.13-.465-.264-.929-.4-1.393q-.586-2.219-1.278-4.409l.146-.013c.828-.036,1.655-.079,2.481-.142.892-.068,1.782-.134,2.672-.2-.687,1.205-1.4,2.4-2.124,3.6C2260.1-3911.613,2259.6-3910.758,2259.1-3909.891Zm.914,12.5a8.237,8.237,0,0,0-.824-.265c-.171-.364-.361-.709-.5-1.089l1.143-.069C2259.9-3898.337,2259.965-3897.864,2260.019-3897.388Zm-1.205-6.645c.055.223.114.446.168.67.221.919.405,1.849.569,2.784-.423.017-.845.033-1.267.051a6.69,6.69,0,0,1-.058-1.208A7.139,7.139,0,0,1,2258.814-3904.033Zm6.124-16.2c-.4.839-.824,1.656-1.259,2.465q-.45.034-.9.065c-1.966.131-3.937.229-5.909.313-.154-.454-.307-.907-.467-1.359q-.567-1.746-1.143-3.483a48.351,48.351,0,0,0-2.3-4.889c-.316-.685-.653-1.378-1.005-2.062a8.862,8.862,0,0,1,4.406-1.646c3.046-.362,6.15-.028,8.318,2.355a5.555,5.555,0,0,1,1.022,3.728c.022.571.177,1.142.165,1.713A6.906,6.906,0,0,1,2264.938-3920.234Zm-11.433-1.647c.61,1.507,1.119,3.03,1.592,4.564q-3.383.125-6.76.195c-1.018.022-2.067.015-3.118-.017.085-.494.181-.988.3-1.482a17.727,17.727,0,0,1,3.521-7.863,16.921,16.921,0,0,1,1.616-1.642A67.614,67.614,0,0,1,2253.505-3921.881Zm2.119,6.316c.236.806.468,1.614.7,2.426.533,1.839,1.058,3.683,1.56,5.533a28.95,28.95,0,0,0-1.381,3.192,8.161,8.161,0,0,0-.594,3.978c-.532.02-1.064.039-1.6.053-1.553.04-3.112-.021-4.672-.1a11.512,11.512,0,0,1-.961-1.27,18.643,18.643,0,0,1-1.979-3.241,27.508,27.508,0,0,1-1.413-4.292,20.407,20.407,0,0,1-.306-6.193l.224.011A102.875,102.875,0,0,0,2255.625-3915.565Zm-15.951,38.479a29.022,29.022,0,0,1-4.968,1.421,25.163,25.163,0,0,1-7.108.056q.229-3.049.343-6.122c.007-.189.01-.379.016-.568q.227-2.036.3-4.084c2.528.253,5.078.378,7.614.468,2,.178,4.019.318,6.009.311.011,1.347.008,2.694-.017,4.039-.024,1.264-.088,2.523-.183,3.777C2241.021-3877.53,2240.343-3877.31,2239.674-3877.086Zm1.789,1.7c-.205,1.909-.477,3.809-.8,5.7-1.2-.161-2.37-.431-3.577-.566-3.229-.361-6.284-1.248-9.456-1.918l-.334-.072c.052-.51.1-1.021.149-1.531a35.961,35.961,0,0,0,5.285.306,19.347,19.347,0,0,0,5.73-.96C2239.45-3874.745,2240.464-3875.049,2241.462-3875.39Zm-13.748-21.641a23.337,23.337,0,0,1,2.662,2.578c1.1,1.14,1.917,2.627,3.157,3.619,2.422,1.936,5.349,2.339,8.3,2.152.012.447.019.895.027,1.341-2.892-.062-5.81-.131-8.688-.366-1.634-.133-3.252-.316-4.866-.525A60.043,60.043,0,0,0,2227.715-3897.031Zm14.054,6.457c-.425.03-.853.049-1.292.044a9.752,9.752,0,0,1-5.282-1.734c-1.427-.98-2.421-2.82-3.649-4.059a21.178,21.178,0,0,0-4.271-3.516c-.019-.1-.041-.2-.061-.3a121.176,121.176,0,0,0,14.064,1.1C2241.493-3896.225,2241.664-3893.4,2241.769-3890.574Zm2.739,36.019c-1.868-.32-3.755-.535-5.639-.765a68.565,68.565,0,0,0,2.157-7.139c.426-1.78.792-3.568,1.114-5.363,3.055.305,6.171.409,9.228.412h.1c-.471.676-.983,1.343-1.521,2.023-1.849,2.337-3.953,4.535-4.732,7.509a8.971,8.971,0,0,0-.177,3.4C2244.861-3854.5,2244.684-3854.525,2244.508-3854.555Zm7.725,2.284c.995.006,1.987-.048,2.978-.117-.462,1.381-.873,2.771-1.353,4.147-.249-.008-.5-.02-.743-.043A6.546,6.546,0,0,1,2248-3852.3C2249.407-3852.208,2250.822-3852.281,2252.234-3852.271Zm4.763.909c.127-.391.253-.787.379-1.183,1.036-.071,2.072-.121,3.109-.1.812.016,1.628-.008,2.446-.058a9.2,9.2,0,0,1-2.345,2.533,10.41,10.41,0,0,1-4.543,1.794C2256.367-3849.371,2256.675-3850.37,2257-3851.363Zm4.73-3.127q-.859.068-1.722.136l-.271.013c-.609.024-1.218.058-1.828.094a34.77,34.77,0,0,0,1.427-6.56c.051-.518.12-1.035.194-1.55.408-1.668.7-3.353.961-5.049.655-.024,1.311-.055,1.968-.1,1.048-.077,2.091-.195,3.133-.324.116.883.22,1.775.339,2.685a20.723,20.723,0,0,1-.219,4.267,14.578,14.578,0,0,1-.887,4.161c-.26.684-.529,1.357-.823,2.01C2263.243-3854.626,2262.485-3854.551,2261.727-3854.49Zm4.824-.537c.05-.118.1-.237.15-.356a15.531,15.531,0,0,0,1.125-3.928,28.751,28.751,0,0,0,.476-5.135q-.094-1.856-.347-3.689c1.111-.141,2.222-.271,3.339-.357,1.469-.113,2.954-.493,4.41-.709.494-.073.985-.138,1.476-.2-.455,1.864-.972,3.708-1.563,5.52-.871,2.67-1.877,5.283-2.929,7.882C2270.647-3855.643,2268.6-3855.307,2266.551-3855.027Zm18.935-4.144c-1.908.52-3.847.95-5.739,1.519-1.218.366-2.448.722-3.686,1.049l-1.111.2c.388-1.02.766-2.038,1.162-3.024a67.232,67.232,0,0,0,3.111-10.247c.426-.063.853-.131,1.282-.212a63.82,63.82,0,0,0,6.437-1.25q1.007-.3,2.015-.59-.405,2.01-.852,4C2287.443-3864.8,2286.4-3862.012,2285.485-3859.171Zm3.33-14.336c-1.789.494-3.54,1.093-5.373,1.408q-1.917.33-3.837.624.423-2.069.766-4.151c2.377,1.712,5.213,1.571,8.019,1.229a8.93,8.93,0,0,0,1.12-.213q-.088.484-.18.967C2289.157-3873.6,2288.985-3873.554,2288.815-3873.507Zm-.03-3.232a15.457,15.457,0,0,1-4.6.343,6.464,6.464,0,0,1-3.439-1.606q.312-2.131.569-4.251c.234-1.907.379-3.823.45-5.741,1.633-.385,3.265-.791,4.887-1.231,1.637-.406,3.274-.837,4.88-1.327a135.328,135.328,0,0,1-1.582,13.45A5.232,5.232,0,0,1,2288.785-3876.739Zm.814-15.145c-1.851.63-3.761.922-5.637,1.458-.715.2-1.435.393-2.157.576a83.211,83.211,0,0,0-.72-11.708c3.821.242,7.844,1.244,10.682,3.708q0,2.62-.125,5.252C2290.96-3892.357,2290.281-3892.116,2289.6-3891.884Zm-3.785-11.268c1.376-.464,2.749-.941,4.135-1.39q.689-.223,1.367-.47c.182,1.45.322,2.9.392,4.335A18.886,18.886,0,0,0,2285.813-3903.152Zm1.9-16.752a42.523,42.523,0,0,1,1.991,6.188c.542,2.246,1.018,4.6,1.377,6.987a75.776,75.776,0,0,1-9,2.968c-.445-.04-.889-.068-1.331-.087a66.162,66.162,0,0,0-1.683-7.84c-.667-2.345-1.275-4.752-2.1-7.058a46.379,46.379,0,0,0,9.19-4.4C2286.713-3922.082,2287.266-3921.009,2287.714-3919.9Zm-17.167-13.584a27.394,27.394,0,0,1,3.279,1.481c1.166.653,2.412,1.08,3.555,1.753,2.47,1.455,4.915,2.935,7.328,4.469.074.048.146.1.22.151.129.284.264.565.4.846-.262.164-.52.336-.775.51-.242.1-.479.189-.691.293-.96.469-1.794,1.151-2.745,1.635-1.405.616-2.869,1.138-4.266,1.719-.173.072-.348.14-.522.209-1.29-3.269-2.252-6.628-4.31-9.542-.913-1.294-1.931-2.506-2.862-3.78-.093-.128-.188-.254-.281-.381C2269.434-3933.921,2269.99-3933.712,2270.547-3933.488Zm-8.568-2.693c1.345.315,2.66.668,3.959,1.066a13.406,13.406,0,0,1,1.1,1.092c.81,1.066,1.5,2.2,2.3,3.284.363.494.7,1,1.02,1.506.605,1.153,1.1,2.323,1.783,3.436q.231.375.447.755c.377.832.736,1.678,1.084,2.542.358.885.686,1.781,1,2.681a42.1,42.1,0,0,1-8.358,1.792,10.82,10.82,0,0,0,1.211-5.876,22.536,22.536,0,0,0-.782-4.219,6.014,6.014,0,0,0-2.354-2.659c-2.691-1.873-5.882-1.87-9.026-1.618a10.664,10.664,0,0,0-4.406,1.428c-.194-.322-.391-.641-.6-.948l.246-.054a32.57,32.57,0,0,0,5.737-1.366,14.994,14.994,0,0,0,3.579-1.469C2260.585-3935.242,2261.317-3935.682,2261.979-3936.181Zm-13.657-.773c1.4-.062,2.841-.193,4.238-.206a41.832,41.832,0,0,1,6.359.4c-.983.443-2,.808-3,1.22a34.049,34.049,0,0,1-6.438,2.2c-.453-.778-.891-1.561-1.416-2.3a13.474,13.474,0,0,1-.691-1.247C2247.691-3936.918,2248.008-3936.94,2248.322-3936.954Zm-3.863.534c.242-.067.488-.125.736-.176.3.31.6.616.87.953.05.063.1.131.149.195.275.477.6.917.889,1.386.2.328.4.656.6.986a21.632,21.632,0,0,1-5.38.007c-.947-.126-1.889-.267-2.834-.406a9.487,9.487,0,0,1-2.25-.675C2239.622-3934.981,2242.026-3935.745,2244.459-3936.42Zm-8.749,2.811c.577.979,2.742,1.53,3.57,1.685a26.357,26.357,0,0,0,7.515.581c.609-.058,1.214-.14,1.817-.238.15.242.3.483.456.724.167.259.328.525.489.791a18.891,18.891,0,0,0-1.885,1.568,18.933,18.933,0,0,0-5.28,11.2c-.36-.03-.721-.056-1.074-.094-.729-.078-1.464-.142-2.2-.21a82.709,82.709,0,0,0-3.769-8.618c-.719-1.423-1.733-2.6-2.494-4-.286-.523-.482-1.115-.756-1.65A26.732,26.732,0,0,1,2235.71-3933.609Zm-16.133,10.545c.889-.733,1.8-1.437,2.668-2.176a39.2,39.2,0,0,1,6.584-4.762c.607-.335,1.207-.683,1.806-1.031a10.235,10.235,0,0,1,.7,1.041,3.992,3.992,0,0,0,.2.545c.568,1.175,1.308,2.153,1.943,3.28a64.055,64.055,0,0,1,3.694,8.356,22.054,22.054,0,0,1-2.73-.5c-2.729-.7-5.4-1.544-8.125-2.256-1.475-.385-3.006-.7-4.446-1.2-.863-.3-1.821-.516-2.7-.854C2219.305-3922.771,2219.439-3922.918,2219.577-3923.064Zm-1.42,1.586c.043-.051.087-.1.131-.151a15.055,15.055,0,0,0,3.719,1.5c.21.089.419.182.624.286a34.694,34.694,0,0,0,7.044,2.335,58.269,58.269,0,0,0,8.17,1.5,61.753,61.753,0,0,1,3.277,15.111c-1.334-.124-2.667-.258-4-.289a60.808,60.808,0,0,1-9.46-.8c-.3-.055-.593-.113-.889-.171a63.673,63.673,0,0,0-2.638-8.721,27.911,27.911,0,0,0-3.922-6.541c-.308-.42-.633-.823-.959-1.223-.3-.5-.61-.995-.912-1.493-.189-.312-.353-.635-.535-.937C2217.924-3921.207,2218.044-3921.341,2218.157-3921.478Zm-6.214,9.535a13.9,13.9,0,0,1,1.527-2.87c.774-1.067,1.207-2.329,1.945-3.419a17.006,17.006,0,0,1,1.477-1.816c.354.69.671,1.427.984,2.031.616,1.189,1.314,2.332,1.935,3.518a64.223,64.223,0,0,1,4.1,8.6q.57,1.66,1,3.353c-2.239-.481-4.466-1.007-6.722-1.4-2.73-.474-5.941-1.005-8.428-2.416C2210.4-3908.243,2211.18-3910.071,2211.943-3911.942Zm-3.043,8.54c.143-.621.312-1.229.494-1.83.4.18.8.376,1.2.57q.124.062.249.121a16.143,16.143,0,0,0,1.581.68c1.5.533,3.057.858,4.566,1.361a49.179,49.179,0,0,0,4.753,1.3,9.722,9.722,0,0,0-6.589,2.832,9.769,9.769,0,0,0-2.364,6.995c-1.076-.393-2.138-.827-3.172-1.313-.114-.062-.228-.123-.34-.19-.812-.486-1.566-1.2-2.385-1.743C2207.05-3897.625,2208.234-3900.5,2208.9-3903.4Zm-1.558,21.419c-.154-1.354-.581-2.621-.648-4-.113-2.3.027-4.644.131-6.959.331.275.662.549,1.008.8a17.691,17.691,0,0,0,4.328,2.208c.23.088.462.166.693.245a18.643,18.643,0,0,0,2.32,8.62c2.518,4.1,6.313,6.122,10.569,7-.05.48-.106.962-.162,1.444a67.586,67.586,0,0,1-8.188-2.266c-1.9-.682-3.664-1.71-5.508-2.524-.295-.13-3.512-1.6-4.126-1.806C2207.6-3880.133,2207.448-3881.056,2207.342-3881.983Zm4.9,16.235a27.47,27.47,0,0,1-1.825-3.819,33.171,33.171,0,0,1-1.321-4.063c-.342-1.386-.836-2.781-1.092-4.181.587.334,1.188.64,1.794.938a12.707,12.707,0,0,0,2.386,1.178l.168.084a44.49,44.49,0,0,0,9.558,3.817q1.731.437,3.471.859c-.014.117-.029.233-.043.35-.211,1.683-.406,3.342-.662,4.991a48.278,48.278,0,0,1-1.07,4.847c-.17.61-.355,1.216-.547,1.821-.855-.243-1.709-.494-2.562-.759-1.42-.441-2.8-.957-4.186-1.478a12.247,12.247,0,0,0-1.286-.535l-.335-.154q-.248-.372-.479-.738c-.308-.488-.738-.9-1.051-1.383C2212.8-3864.535,2212.576-3865.169,2212.242-3865.748Zm6.919,9.052a18.845,18.845,0,0,1-3-3.109c.119.051.238.1.353.156,1.3.6,2.631,1.159,3.954,1.708a20.951,20.951,0,0,0,2.03.713c-.261.788-.522,1.575-.774,2.367C2220.87-3855.478,2219.98-3856.046,2219.161-3856.7Zm14.726,9.31c-.411-.179-.822-.361-1.23-.549a58.3,58.3,0,0,1-6.329-3.408,25.619,25.619,0,0,1-2.776-2.077c.1-.555.4-1.105.542-1.647s.21-1.1.324-1.647c1.362.331,2.736.618,4.092.987a65.172,65.172,0,0,0,7.153,1.694c.3.045.592.085.888.127-.473,1.224-.991,2.421-1.49,3.639C2234.676-3849.328,2234.193-3848.374,2233.887-3847.386Zm11.789,3.159c-1.594-.281-3.21-.478-4.794-.814a33.488,33.488,0,0,1-5.451-1.7c.988-2.3,1.949-4.6,2.831-6.932,1.666.215,3.333.411,5,.648.73.1,1.455.245,2.181.376a9.872,9.872,0,0,0,1.36,2.764,9.074,9.074,0,0,0,6.338,3.68,21.7,21.7,0,0,1-1.036,2.719c-.606-.051-1.215-.122-1.828-.231C2248.738-3843.989,2247.212-3843.958,2245.675-3844.228Zm16.7,26.493c1.546.084,3.092.2,4.628.337a36.8,36.8,0,0,1,5.24.731,40.8,40.8,0,0,1,5.069,1.217c1.715.636,3.765,1.4,5.044,2.784,2.757,2.993-3.414,6.153-5.575,6.892a46.582,46.582,0,0,1-4.873.947,35.136,35.136,0,0,1-6.036.693c-7.718.325-15.466.479-23.114-.971-1.716-.325-3.425-.675-5.136-1.022a43.361,43.361,0,0,1-5.687-1.569,35.643,35.643,0,0,1-4.813-1.8,3.683,3.683,0,0,1-1.768-1.518c-.459-1,.555-2.083,1.293-2.69a20.5,20.5,0,0,1,2.86-1.6,15.068,15.068,0,0,1,2.828-1.235c1.672-.554,3.312-1.09,5.009-1.558,2.116-.583,4.293-1.177,6.448-1.594a16.2,16.2,0,0,0,2.948-.669,8.461,8.461,0,0,0,1.436,4.388,7.338,7.338,0,0,0,4.768,2.781,12.094,12.094,0,0,0,6.222-.581A5.135,5.135,0,0,0,2262.373-3817.735Zm6.8-30.573a23.632,23.632,0,0,1-1.028,2.13c-.139.236-.306.574-.482.892a57.936,57.936,0,0,1-8.781,1.533,39.265,39.265,0,0,1-4.765.341c.338-.845.75-1.682,1.057-2.479.03-.077.056-.157.085-.235a12.9,12.9,0,0,0,6.768-2.349,11.521,11.521,0,0,0,3.588-4.484c2.094-.265,4.19-.663,6.265-1.067q-.216.526-.434,1.051a25.2,25.2,0,0,1-1.333,2.369C2269.711-3849.869,2269.517-3849.068,2269.173-3848.308Zm13.668-4.235c-.108.258-.185.657-.3,1.015a41.768,41.768,0,0,1-6.778,3.605c-1.266.513-2.534,1.067-3.808,1.55a13.311,13.311,0,0,1-1.782.512c.7-1.473,1.179-3.067,2.019-4.466a29.956,29.956,0,0,0,2-4.146c.7-.134,1.405-.262,2.1-.381a56.465,56.465,0,0,0,8.323-1.95c-.265.655-.536,1.308-.783,1.967C2283.539-3854.052,2283.162-3853.314,2282.841-3852.543Zm2.332-.868c.263-.646.519-1.294.777-1.95.289-.736.567-1.475.842-2.216.955-.331,1.99-.669,2.99-1.07-.255.359-.508.721-.751,1.087A19.454,19.454,0,0,1,2285.173-3853.411Zm8.94-11.272c-.646,1.025-1.358,2.011-2.084,2.99a33.122,33.122,0,0,0-4.383,1.748c.388-1.114.761-2.233,1.109-3.363a80.864,80.864,0,0,0,2.141-8.964c.657-.179,1.315-.355,1.975-.518a36.817,36.817,0,0,0,4.717-1.811c.8-.323,1.6-.681,2.387-1.052A65.578,65.578,0,0,1,2294.113-3864.683Zm7.245-15.486c-.137.634-.3,1.263-.483,1.887-.61.3-1.229.583-1.824.867-1.018.486-2,1.009-3.01,1.5-.864.358-1.729.713-2.588,1.077a15.993,15.993,0,0,1-2.224.72q.1-.6.2-1.207a10.721,10.721,0,0,0,4.167-3.742,18.8,18.8,0,0,0,1.655-4.359,19.112,19.112,0,0,0,.881-5.323,12.958,12.958,0,0,0-.462-4c.23-.1.461-.19.69-.291a21.148,21.148,0,0,0,2.093-1c.658-.32,1.316-.643,1.976-.942A49.35,49.35,0,0,1,2301.358-3880.169Z" transform="translate(-2204.278 3940.259)"/>
  <path id="Path_1043" data-name="Path 1043" d="M2382.983-3556.973c-.406-.645-.965-.473-1.615-.53a6.674,6.674,0,0,0-1.419.011,2.359,2.359,0,0,0-2.075.9,4.491,4.491,0,0,0-.6,2.875,14.216,14.216,0,0,0,.1,1.762c.009.184.015.361.014.526-.009,1.515-.31,3.371,1.57,3.721,1.45.27,3.262.407,4.025-1.086.835-1.635.375-4.1.339-5.877A5.3,5.3,0,0,0,2382.983-3556.973ZM2382-3549.6c-.321.93-.874.8-1.672.793-.594-.008-1.352.157-1.757-.49-.265-.423-.052-1.64-.054-2.133,0-.195-.006-.39-.011-.586a6.678,6.678,0,0,0,2.151.188,10.747,10.747,0,0,0,1.461.032c0,.134,0,.269,0,.4A5.652,5.652,0,0,1,2382-3549.6Zm.145-3.326a8.091,8.091,0,0,1-1.6.022c-.671,0-1.388.121-2.065.057-.022-.571-.043-1.141-.035-1.708a3.708,3.708,0,0,1,.028-.4c.343-1.05,1.065-1.443,2.4-1.411.476.011.782-.071,1.055.3a6.513,6.513,0,0,1,.134.789A14.6,14.6,0,0,1,2382.142-3552.924Z" transform="translate(-2329.511 3663.189)"/>
  <path id="Path_1044" data-name="Path 1044" d="M2571.826-3824.683a19.148,19.148,0,0,0,3.038-.847,13.117,13.117,0,0,1,3.757-.711,9.691,9.691,0,0,1,3.934.465,12.938,12.938,0,0,1,3.208,1.992,17,17,0,0,0,5.166,3.415,18.808,18.808,0,0,0,6.514,1.437c3.806,0,8.266-2.047,9.144-6.056.861-3.931-2.127-8.116-6.279-8.11a4.265,4.265,0,0,0-4.168,3.2c-.751,2.211-.248,3.74,1.954,4.5.851.295,1.373-1,.607-1.438-1.3-.738-1.161-1.97-.474-3.148a2.584,2.584,0,0,1,3.16-1.1,4.865,4.865,0,0,1,3.321,5.333c-.413,2.294-2.3,3.564-4.376,4.351a11.345,11.345,0,0,1-6.726-.115,16.131,16.131,0,0,1-5.351-2.646,23.873,23.873,0,0,0-5.089-3.381,12.492,12.492,0,0,0-6.089-.458c-1.924.259-4.341.941-5.6,2.483C2571.249-3825.226,2571.362-3824.635,2571.826-3824.683Z" transform="translate(-2470.027 3862.681)"/>
  <path id="Path_1045" data-name="Path 1045" d="M2554.234-3642.027c-2.845.2-6.269.947-7.482,3.837-1.193,2.842.3,7.06,3.862,6.954a4.107,4.107,0,0,0,3.47-2.188c.767-1.463.052-2.861-1.62-2.869a.809.809,0,0,0-.565,1.364c.41.456-.273,1.062-.7,1.276a1.718,1.718,0,0,1-1.954-.32,3.224,3.224,0,0,1-.462-3.657c1.348-2.332,5.428-2.635,7.78-2.266,2.464.387,4.24,2.279,3.592,4.85-.63,2.5-2.977,4.52-5.309,5.494a25.825,25.825,0,0,1-7.975,2.013,11.42,11.42,0,0,1-3.769-.179,14.813,14.813,0,0,1-3.8-1.792,43.734,43.734,0,0,1-3.805-2.394,14.286,14.286,0,0,0-3.23-1.91,40.173,40.173,0,0,0-6.552-2.053,22.424,22.424,0,0,0-8.86-.247,15.785,15.785,0,0,0-7.515,3.135c-.547.476.162,1.382.771,1a17.238,17.238,0,0,1,5.314-1.842,24.559,24.559,0,0,1,5.9-.449,28.646,28.646,0,0,1,5.637.953,25,25,0,0,1,4.656,1.57,41.8,41.8,0,0,1,4.793,3.025,30.225,30.225,0,0,0,4.743,2.633c3.249,1.268,6.965.911,10.265-.05a32.813,32.813,0,0,0,4.848-1.638,14.133,14.133,0,0,0,4.108-3.21,6.806,6.806,0,0,0,1.508-7.588C2560.485-3641.513,2557.261-3642.243,2554.234-3642.027Z" transform="translate(-2424.976 3724.382)"/>
  <path id="Path_1046" data-name="Path 1046" d="M2528.058-3601.128a19.976,19.976,0,0,0-7.095-.208c-1.578.238-4.12.436-5.116,1.885a.391.391,0,0,0,.438.57,15.563,15.563,0,0,1,3.641-.478,23.474,23.474,0,0,1,4.5-.336,29.22,29.22,0,0,1,4.593.777c1.682.43,3.569.593,5.111,1.413,1.557.829,3.247,1.861,3.5,3.788a4.011,4.011,0,0,1-2.828,4.119,6.564,6.564,0,0,1-5.1-.512,1.763,1.763,0,0,1-.464-2.738,3.754,3.754,0,0,1,1.062-.743l.019-.032a1.093,1.093,0,0,0,.062.118.946.946,0,0,0,.815,1.272c1.561.133,1.416-1.578.779-2.468-1.086-1.517-2.517-.92-3.816.068a3.714,3.714,0,0,0-.8,5.017c1.146,1.667,3.384,2.279,5.3,2.226a7.309,7.309,0,0,0,5.421-2.006,5.687,5.687,0,0,0,1.295-5.41C2537.855-3599.41,2532.136-3600.271,2528.058-3601.128Z" transform="translate(-2429.795 3695.06)"/>
  <path id="Path_1047" data-name="Path 1047" d="M2586.15-3788.52c.319-.208.633.019,1.049-.02a.684.684,0,0,0,.585-1.019c-1.74-2.584-4.68.774-3.2,2.945,1.747,2.568,5.9,2.06,7.99.311,2.732-2.287-.606-5.664-2.774-6.829-1.651-.888-3.282-.875-5.063-1.132a9.069,9.069,0,0,0-5.262.894.481.481,0,0,0-.247.431l.014.165c.034.415.616.654.841.228a13.49,13.49,0,0,0,2.536-.216,21.086,21.086,0,0,1,2.865.226,7.913,7.913,0,0,1,5.143,2.2c.659.559,1.664,1.573,1.044,2.548-.516.811-1.85.987-2.689,1.135a3.185,3.185,0,0,1-2.8-.763C2585.919-3787.723,2585.747-3788.258,2586.15-3788.52Z" transform="translate(-2475.717 3834.633)"/>
  <path id="Path_1048" data-name="Path 1048" d="M2609.226-3730.905c-1.989-3.623-8.834-5.613-10.751-.812-.905,2.267-.651,5.106,2.144,5.694,1.852.389,4.716-.684,4.555-2.908-.1-1.363-2.218-1.385-2.142,0,.058,1.043-2.272,1.062-2.782.565-.991-.965.03-3.177.976-3.758,2.1-1.286,5.02.108,6.141,2.033,1.5,2.579.028,5.5-2.332,6.92a12.071,12.071,0,0,1-8.37,1.274,25.406,25.406,0,0,1-4-.832,29.165,29.165,0,0,1-3.843-1.771,29.169,29.169,0,0,0-6.555-2.676,16.226,16.226,0,0,0-3.945-.223,13.272,13.272,0,0,0-3.367.276,16.3,16.3,0,0,0-2.762.938c-.946.465-1.57,1.409-2.465,1.869a.379.379,0,0,0,.19.7c.981-.079,1.915-.925,2.821-1.277a14.209,14.209,0,0,1,3.333-.846,16.578,16.578,0,0,1,9.37,1.706c5.211,2.667,10.973,5.31,16.986,4.038C2607.215-3721.006,2612.023-3725.81,2609.226-3730.905Z" transform="translate(-2468.712 3791.341)"/>
  <path id="Path_1049" data-name="Path 1049" d="M2583.824-3689.208c.143-1.808-2.075-1.578-3.049-.825a2.649,2.649,0,0,0-.33,4.069,5.6,5.6,0,0,0,5.09,1.42c1.344-.408,3.318-1.549,3.648-3.059a3.137,3.137,0,0,0-.606-2.264,7.963,7.963,0,0,0-1.454-2.3,11.056,11.056,0,0,0-5.692-2.311,18.622,18.622,0,0,0-5.46-.01c-1.694.324-4.026.932-5,2.52a.391.391,0,0,0,.232.57,3.647,3.647,0,0,0,2.092-.486,16.939,16.939,0,0,1,3.163-.827,15.388,15.388,0,0,1,5.942.29,9.542,9.542,0,0,1,3.053,1.342c.684.518,2.269,2.646,1.666,3.554a4,4,0,0,1-3.409,1.367,4.966,4.966,0,0,1-1.356-.558,2.637,2.637,0,0,1-.692-.463,2.814,2.814,0,0,1,.446-2.024A.857.857,0,0,0,2583.824-3689.208Z" transform="translate(-2469.707 3762.485)"/>
</svg>
