<svg xmlns="http://www.w3.org/2000/svg" width="136.925" height="136.925" viewBox="0 0 136.925 136.925">
  <g id="p3-4" transform="translate(-4670.396 -1967.563)">
    <g id="p3-4-2" data-name="p3-4" transform="translate(4670.396 1967.562)">
      <path id="Path_835" data-name="Path 835" d="M-3494.613-3762.072h-17.668a13.25,13.25,0,0,0-13.251,13.251v28.71a4.416,4.416,0,0,0,4.417,4.417h4.417v-8.834h26.5v8.834h4.417a4.416,4.416,0,0,0,4.417-4.417v-28.71A13.25,13.25,0,0,0-3494.613-3762.072Z" transform="translate(3527.74 3799.616)" fill="#3b5892"/>
      <path id="Path_836" data-name="Path 836" d="M-3171.864-3442.072h-13.251a4.416,4.416,0,0,0-4.417,4.417v4.417h17.668Z" transform="translate(3284.496 3567.955)" fill="#939393"/>
      <path id="Path_837" data-name="Path 837" d="M-3174.613-3762.072h-17.668a13.25,13.25,0,0,0-13.251,13.251v28.71a4.416,4.416,0,0,0,4.417,4.417h4.417v-8.834h26.5v8.834h4.417a4.416,4.416,0,0,0,4.417-4.417v-28.71A13.25,13.25,0,0,0-3174.613-3762.072Z" transform="translate(3296.079 3799.616)" fill="#f9d266"/>
      <path id="Path_838" data-name="Path 838" d="M-3077.532-3617.238h4.417a4.416,4.416,0,0,0,4.417-4.417v-4.417h-8.834Z" transform="translate(3203.415 3701.16)" fill="#fadcb6"/>
      <path id="Path_839" data-name="Path 839" d="M-3196.7-3617.238h-4.417a4.416,4.416,0,0,1-4.417-4.417v-4.417h8.834Z" transform="translate(3296.079 3701.16)" fill="#fadcb6"/>
      <path id="Path_840" data-name="Path 840" d="M-3173.532-3626.072h26.5v50.795h-26.5Z" transform="translate(3272.913 3701.16)" fill="#b5b5b5"/>
      <path id="Path_841" data-name="Path 841" d="M-3125.532-3442.072h13.251a4.416,4.416,0,0,1,4.417,4.417v4.417h-17.668Z" transform="translate(3238.164 3567.955)" fill="#939393"/>
      <path id="Path_842" data-name="Path 842" d="M-3143.448-3834.072v8.834a11.043,11.043,0,0,1-11.042,11.042,11.044,11.044,0,0,1-11.042-11.042v-8.834l11.042,4.417,2.208-4.417,4.417,4.417Z" transform="translate(3267.122 3851.74)" fill="#fadcb6"/>
      <g id="Group_331" data-name="Group 331" transform="translate(123.451 19.876)">
        <path id="Path_843" data-name="Path 843" d="M-3083.909-3826.072h-2.208v6.625a11,11,0,0,1-.223,2.208h2.432a4.416,4.416,0,0,0,4.417-4.417A4.416,4.416,0,0,0-3083.909-3826.072Z" transform="translate(3086.34 3826.072)" fill="#fadcb6"/>
      </g>
      <path id="Path_844" data-name="Path 844" d="M-3182.907-3819.447v-6.625h-2.208a4.416,4.416,0,0,0-4.417,4.417,4.416,4.416,0,0,0,4.417,4.417h2.432A11.014,11.014,0,0,1-3182.907-3819.447Z" transform="translate(3284.496 3845.948)" fill="#fadcb6"/>
      <g id="Group_332" data-name="Group 332" transform="translate(97.173 2.208)">
        <path id="Path_845" data-name="Path 845" d="M-3166.073-3890.072a15.459,15.459,0,0,0-15.459,15.459v2.82a4.387,4.387,0,0,1,2.208-.612h2.208v-2.208l11.042,4.417,2.208-4.417,4.417,4.417,4.417-4.417v2.208h2.208a4.386,4.386,0,0,1,2.208.612v-2.82A15.459,15.459,0,0,0-3166.073-3890.072Z" transform="translate(3181.532 3890.072)" fill="#686868"/>
      </g>
      <path id="Path_846" data-name="Path 846" d="M-3149.532-3762.072v2.208a6.625,6.625,0,0,0,6.625,6.625,6.625,6.625,0,0,0,6.625-6.625v-2.208Z" transform="translate(3255.539 3799.616)" fill="#fadcb6"/>
      <path id="Path_847" data-name="Path 847" d="M-3491.864-3442.072h-13.251a4.416,4.416,0,0,0-4.417,4.417v4.417h17.668Z" transform="translate(3516.157 3567.955)" fill="#939393"/>
      <path id="Path_848" data-name="Path 848" d="M-3397.532-3617.238h4.417a4.416,4.416,0,0,0,4.417-4.417v-4.417h-8.834Z" transform="translate(3435.076 3701.16)" fill="#fadcb6"/>
      <path id="Path_849" data-name="Path 849" d="M-3516.7-3617.238h-4.417a4.416,4.416,0,0,1-4.417-4.417v-4.417h8.834Z" transform="translate(3527.74 3701.16)" fill="#fadcb6"/>
      <path id="Path_850" data-name="Path 850" d="M-3493.532-3626.072h26.5v50.795h-26.5Z" transform="translate(3504.574 3701.16)" fill="#b5b5b5"/>
      <path id="Path_851" data-name="Path 851" d="M-3445.532-3442.072h13.251a4.416,4.416,0,0,1,4.417,4.417v4.417h-17.668Z" transform="translate(3469.825 3567.955)" fill="#939393"/>
      <path id="Path_852" data-name="Path 852" d="M-3463.447-3834.072v8.834a11.044,11.044,0,0,1-11.042,11.042,11.043,11.043,0,0,1-11.042-11.042v-8.834l11.042,4.417,2.208-4.417,4.417,4.417Z" transform="translate(3498.783 3851.74)" fill="#fadcb6"/>
      <g id="Group_333" data-name="Group 333" transform="translate(35.112 19.876)">
        <path id="Path_853" data-name="Path 853" d="M-3403.909-3826.072h-2.208v6.625a11.014,11.014,0,0,1-.223,2.208h2.431a4.416,4.416,0,0,0,4.417-4.417A4.416,4.416,0,0,0-3403.909-3826.072Z" transform="translate(3406.34 3826.072)" fill="#fadcb6"/>
      </g>
      <path id="Path_854" data-name="Path 854" d="M-3502.906-3819.447v-6.625h-2.208a4.416,4.416,0,0,0-4.417,4.417,4.416,4.416,0,0,0,4.417,4.417h2.431A11.032,11.032,0,0,1-3502.906-3819.447Z" transform="translate(3516.157 3845.948)" fill="#fadcb6"/>
      <g id="Group_334" data-name="Group 334" transform="translate(8.834 2.208)">
        <path id="Path_855" data-name="Path 855" d="M-3486.073-3890.072a15.459,15.459,0,0,0-15.459,15.459v2.82a4.386,4.386,0,0,1,2.208-.612h2.208v-2.208l11.042,4.417,2.208-4.417,4.417,4.417,4.417-4.417v2.208h2.208a4.387,4.387,0,0,1,2.208.612v-2.82A15.459,15.459,0,0,0-3486.073-3890.072Z" transform="translate(3501.532 3890.072)" fill="#686868"/>
      </g>
      <path id="Path_856" data-name="Path 856" d="M-3469.532-3762.072v2.208a6.625,6.625,0,0,0,6.625,6.625,6.625,6.625,0,0,0,6.625-6.625v-2.208Z" transform="translate(3487.2 3799.616)" fill="#fadcb6"/>
      <g id="Group_335" data-name="Group 335" transform="translate(0 0)">
        <path id="Path_857" data-name="Path 857" d="M-3179.436-3862.688a13.269,13.269,0,0,0,2.675-4.465h.773a6.634,6.634,0,0,0,6.625-6.625,6.591,6.591,0,0,0-2.208-4.9v-1.723a17.688,17.688,0,0,0-17.668-17.668,17.688,17.688,0,0,0-17.668,17.668v1.723a6.588,6.588,0,0,0-2.208,4.9,6.634,6.634,0,0,0,6.625,6.625h.773a13.241,13.241,0,0,0,2.675,4.465,15.469,15.469,0,0,0-14.49,15.411v28.71a6.633,6.633,0,0,0,6.625,6.625h2.208v37.95a6.616,6.616,0,0,0-4.417,6.219v4.417a2.208,2.208,0,0,0,2.208,2.208h35.335a2.208,2.208,0,0,0,2.208-2.208v-4.417a6.616,6.616,0,0,0-4.417-6.219v-37.95h2.208a6.633,6.633,0,0,0,6.625-6.625v-28.71a15.469,15.469,0,0,0-14.49-15.411Zm-18.637-8.882v-5.572l8.012,3.207a2.212,2.212,0,0,0,2.8-1.062l.837-1.676,2.25,2.25a2.206,2.206,0,0,0,3.123,0l.649-.649v3.5a8.843,8.843,0,0,1-8.834,8.834A8.843,8.843,0,0,1-3198.073-3871.57Zm13.251,13.251a4.421,4.421,0,0,1-4.417,4.417,4.421,4.421,0,0,1-4.417-4.417Zm8.834-13.251v-4.417a2.211,2.211,0,0,1,2.208,2.208A2.211,2.211,0,0,1-3175.988-3871.57Zm-28.71-2.208a2.211,2.211,0,0,1,2.208-2.208v4.417A2.211,2.211,0,0,1-3204.7-3873.779Zm3.178-8.454a2.211,2.211,0,0,0-.97,1.829,13.264,13.264,0,0,1,13.251-13.251,13.264,13.264,0,0,1,13.251,13.251,2.209,2.209,0,0,0-1.363-2.041,2.2,2.2,0,0,0-2.407.479l-2.855,2.856-2.856-2.856a2.178,2.178,0,0,0-1.915-.618,2.216,2.216,0,0,0-1.621,1.192l-1.3,2.6-9.156-3.662A2.213,2.213,0,0,0-3201.52-3882.233Zm3.447,23.913a8.843,8.843,0,0,0,8.834,8.834,8.843,8.843,0,0,0,8.834-8.834,11.055,11.055,0,0,1,11.042,11.042v22.085h-4.417v-24.293h-4.417v24.293h-22.085v-24.293h-4.417v24.293h-4.417v-22.085A11.055,11.055,0,0,1-3198.073-3858.32Zm-8.834,41.961a2.211,2.211,0,0,1-2.208-2.208v-2.208h4.417v4.417Zm15.459,50.795H-3204.7v-2.208a2.211,2.211,0,0,1,2.208-2.208h11.042Zm0-46.378v37.544h-8.834v-46.378h22.085v46.378h-8.834v-37.544Zm17.668,46.378h-13.251v-4.417h11.042a2.211,2.211,0,0,1,2.208,2.208Zm2.208-50.795h-2.208v-4.417h4.417v2.208A2.211,2.211,0,0,1-3171.571-3816.359Z" transform="translate(3301.871 3898.072)"/>
        <path id="Path_858" data-name="Path 858" d="M-3493.78-3773.991v-37.95h2.208a6.633,6.633,0,0,0,6.625-6.625v-28.71a15.469,15.469,0,0,0-14.49-15.411,13.272,13.272,0,0,0,2.674-4.465h.773a6.634,6.634,0,0,0,6.625-6.625,6.59,6.59,0,0,0-2.208-4.9v-1.723a17.688,17.688,0,0,0-17.668-17.668,17.688,17.688,0,0,0-17.668,17.668v1.723a6.591,6.591,0,0,0-2.208,4.9,6.634,6.634,0,0,0,6.625,6.625h.773a13.237,13.237,0,0,0,2.674,4.465,15.469,15.469,0,0,0-14.49,15.411v28.71a6.633,6.633,0,0,0,6.625,6.625h2.208v37.95a6.616,6.616,0,0,0-4.417,6.219v4.417a2.208,2.208,0,0,0,2.208,2.208h35.335a2.208,2.208,0,0,0,2.208-2.208v-4.417A6.616,6.616,0,0,0-3493.78-3773.991Zm2.208-42.367h-2.208v-4.417h4.417v2.208A2.211,2.211,0,0,1-3491.571-3816.359Zm-26.5-55.212v-5.572l8.012,3.207a2.211,2.211,0,0,0,2.8-1.062l.837-1.676,2.25,2.25a2.206,2.206,0,0,0,3.123,0l.649-.649v3.5a8.843,8.843,0,0,1-8.834,8.834A8.843,8.843,0,0,1-3518.073-3871.57Zm13.251,13.251a4.421,4.421,0,0,1-4.417,4.417,4.421,4.421,0,0,1-4.417-4.417Zm8.834-13.251v-4.417a2.211,2.211,0,0,1,2.208,2.208A2.211,2.211,0,0,1-3495.988-3871.57Zm-28.71-2.208a2.211,2.211,0,0,1,2.208-2.208v4.417A2.211,2.211,0,0,1-3524.7-3873.779Zm3.178-8.454a2.21,2.21,0,0,0-.969,1.829,13.264,13.264,0,0,1,13.251-13.251,13.264,13.264,0,0,1,13.251,13.251,2.209,2.209,0,0,0-1.363-2.041,2.2,2.2,0,0,0-2.407.479l-2.855,2.856-2.856-2.856a2.18,2.18,0,0,0-1.915-.618,2.215,2.215,0,0,0-1.621,1.192l-1.3,2.6-9.156-3.664a2.221,2.221,0,0,0-2.061.223Zm3.448,23.913a8.843,8.843,0,0,0,8.834,8.834,8.843,8.843,0,0,0,8.834-8.834,11.055,11.055,0,0,1,11.042,11.042v22.085h-4.417v-24.293h-4.417v24.293h-22.085v-24.293h-4.417v24.293h-4.417v-22.085A11.055,11.055,0,0,1-3518.073-3858.32Zm-8.834,41.961a2.211,2.211,0,0,1-2.208-2.208v-2.208h4.417v4.417Zm15.459,50.795H-3524.7v-2.208a2.211,2.211,0,0,1,2.208-2.208h11.042Zm0-46.378v37.544h-8.834v-46.378h22.085v46.378h-8.834v-37.544Zm17.668,46.378h-13.251v-4.417h11.042a2.211,2.211,0,0,1,2.208,2.208Z" transform="translate(3533.532 3898.072)"/>
        <path id="Path_859" data-name="Path 859" d="M-3325.594-3513.1l-6.625-6.625-3.123,3.123,2.855,2.855h-33.507l2.855-2.855-3.123-3.123-6.625,6.625a2.206,2.206,0,0,0,0,3.123l6.625,6.625,3.123-3.123-2.855-2.856h33.507l-2.855,2.856,3.123,3.123,6.625-6.625A2.206,2.206,0,0,0-3325.594-3513.1Z" transform="translate(3417.703 3624.173)"/>
      </g>
    </g>
    <text id="_1.5m" data-name="1.5m" transform="translate(4723.031 2068.182)" font-size="14" font-family="WorkSans-Black, Work Sans" font-weight="800"><tspan x="0" y="0">1.5m</tspan></text>
  </g>
</svg>
