<svg id="p3-5" xmlns="http://www.w3.org/2000/svg" width="132.509" height="148.124" viewBox="0 0 132.509 148.124">
  <circle id="Ellipse_57" data-name="Ellipse 57" cx="30.919" cy="30.919" r="30.919" transform="translate(13.251 5.521)" fill="#fcf14e"/>
  <path id="Path_924" data-name="Path 924" d="M-2723.332-3801.41l8.834-8.742h11.042l28.71-28.8-26.5-26.5-19.876,19.968v-13.251a8.769,8.769,0,0,0-8.769-8.77h-.064v37.479L-2741-3819.078Z" transform="translate(2756.459 3899.687)" fill="#f4d2cb"/>
  <path id="Path_925" data-name="Path 925" d="M-2741-3819.077l11.042-10.951v-37.479a8.769,8.769,0,0,1,8.833,8.7c0,.022,0,.043,0,.065v13.251l5.448,5.448a11.036,11.036,0,0,1,0,15.607l-16.49,16.4Z" transform="translate(2756.459 3899.686)" fill="#ffe7e1"/>
  <path id="Path_926" data-name="Path 926" d="M-2789.038-3694.512l13.249-13.249,22.081,22.082-13.249,13.249Z" transform="translate(2791.236 3784.039)" fill="#9dd7f6"/>
  <path id="Path_927" data-name="Path 927" d="M-2766.916-3637.657-2789-3659.742l9.958,6.929a25.04,25.04,0,0,0,25.378,1.905Z" transform="translate(2791.208 3749.276)" fill="#54baf1"/>
  <path id="Path_928" data-name="Path 928" d="M-2560.712-3919.07l-6.625-6.534v-37.572a4.389,4.389,0,0,0-4.389-4.389,8.861,8.861,0,0,0-8.861,8.861v13.223l-25.1-25.1a5.111,5.111,0,0,0-7.228,0h0l-3.011,3.011a6.246,6.246,0,0,0-8.834,0,6.246,6.246,0,0,0,0,8.833h0l2.208,2.208-2.894,2.894a5.277,5.277,0,0,0,0,7.463h0l.685.685-2.969,2.969a5.171,5.171,0,0,0,0,7.313h0l31.679,31.679h6.625l6.625,6.534Z" transform="translate(2675.553 3975.386)" fill="#ffe7e1"/>
  <path id="Path_929" data-name="Path 929" d="M-2577.083-3966.159l31.655,31.63v-10.976l-25.1-25.071a5.111,5.111,0,0,0-7.228,0h0l-2.921,2.92a5.094,5.094,0,0,1,3.591,1.5Z" transform="translate(2640.392 3975.386)" fill="#f4d2cb"/>
  <path id="Path_930" data-name="Path 930" d="M-2436.728-3913.781v-37.572a4.389,4.389,0,0,0-4.389-4.389,8.856,8.856,0,0,0-7.709,4.494,8.97,8.97,0,0,1,1.15-.077,4.389,4.389,0,0,1,4.389,4.389v37.572l4.35,4.326,2.208,4.417,6.625-6.625Z" transform="translate(2544.942 3963.563)" fill="#f4d2cb"/>
  <path id="Path_931" data-name="Path 931" d="M-2477.063-3769.219l26.5-26.5,15.457,15.457-26.5,26.5Z" transform="translate(2565.384 3847.714)" fill="#3abf70"/>
  <path id="Path_932" data-name="Path 932" d="M-2421-3753.781l26.5-26.5-15.459-15.459a34.9,34.9,0,0,1-4.4,32.787Z" transform="translate(2524.798 3847.732)" fill="#519a73"/>
  <g id="Group_342" data-name="Group 342" transform="translate(6.202)">
    <path id="Path_933" data-name="Path 933" d="M-2753.968-3950.869l2.76-3.45,11.044,8.838-2.76,3.45Z" transform="translate(2759.646 3962.532)" fill="#d2de57"/>
    <path id="Path_934" data-name="Path 934" d="M-2699.888-3981.8l3.787-2.269,6.615,11.042-3.788,2.269Z" transform="translate(2720.495 3984.072)" fill="#d2de57"/>
    <path id="Path_935" data-name="Path 935" d="M-2765-3844.073h11.042v4.417H-2765Z" transform="translate(2767.632 3882.721)" fill="#d2de57"/>
    <path id="Path_936" data-name="Path 936" d="M-2774.535-3895.625l.866-4.333,11.047,2.207-.866,4.333Z" transform="translate(2774.535 3923.178)" fill="#d2de57"/>
  </g>
  <path id="Path_937" data-name="Path 937" d="M-2665.139-3915.29l-15.459-15.459a2.208,2.208,0,0,0-3.123,0l-.647.647-2.208-2.208v-36.657a6.606,6.606,0,0,0-6.6-6.6,11.083,11.083,0,0,0-11.07,11.07v7.892l-21.326-21.326a7.32,7.32,0,0,0-10.352,0h0l-1.658,1.658a8.455,8.455,0,0,0-11.541,3.124,8.454,8.454,0,0,0,1.354,10.187l.647.647-1.332,1.332a7.5,7.5,0,0,0-.8,9.636l-1.482,1.481a7.391,7.391,0,0,0-.773,9.526l-7.947,8v-7.893a10.978,10.978,0,0,0-10.979-10.978h-.08a2.208,2.208,0,0,0-2.192,2.208v36.564l-6.625,6.625-.647-.647a2.209,2.209,0,0,0-3.124,0l-13.251,13.251a2.209,2.209,0,0,0,0,3.123l22.085,22.085a2.209,2.209,0,0,0,3.123,0l13.251-13.251a2.208,2.208,0,0,0,0-3.123l-.647-.647,4.417-4.417H-2744a2.208,2.208,0,0,0,1.565-.65l20.478-20.562,2.9,2.9a2.208,2.208,0,0,0,1.561.646h5.711l2.208,2.208-.647.647a2.209,2.209,0,0,0,0,3.124l15.459,15.459a2.208,2.208,0,0,0,3.123,0l26.5-26.5a2.208,2.208,0,0,0,0-3.123Zm-79.775,21.438h-10.125a2.209,2.209,0,0,0-1.562.647l-5.064,5.064-7.364-7.364-3.123,3.123,9.572,9.572-10.128,10.128-18.961-18.962,10.128-10.127,5.064,5.064,3.123-3.123-2.855-2.855,7.272-7.272a2.209,2.209,0,0,0,.647-1.562v-34.915a6.573,6.573,0,0,1,4.417,6.2v13.251a2.209,2.209,0,0,0,.647,1.562l5.447,5.447a8.828,8.828,0,0,1,0,12.484l-1.03,1.03,3.124,3.123,1.031-1.03a13.245,13.245,0,0,0,0-18.73l-3.893-3.891,10.093-10.163,3.508,3.508-5.04,5.109,3.144,3.1,5.019-5.088,3.5,3.5-5.04,5.109,3.144,3.1,5.019-5.087,3.5,3.5-5.04,5.109,3.144,3.1,5.019-5.088,3.494,3.495Zm51.712,3.5-12.336-12.336,13.9-13.9-3.123-3.123-11.689,11.689-2.855-2.855a2.208,2.208,0,0,0-1.562-.646h-5.711l-31.033-31.032a2.967,2.967,0,0,1,0-4.19l1.408-1.408,13.9,13.9,3.123-3.123-16.144-16.144a3.073,3.073,0,0,1,0-4.341l1.332-1.331,18.315,18.315,3.123-3.124-22.085-22.084a4.038,4.038,0,0,1,.044-5.711,4.039,4.039,0,0,1,5.667,0l22.084,22.085,3.124-3.124-20.523-20.523,1.45-1.449a2.9,2.9,0,0,1,4.1,0h0l25.1,25.1a2.209,2.209,0,0,0,3.124,0,2.209,2.209,0,0,0,.647-1.562V-3964.5a6.661,6.661,0,0,1,6.653-6.653,2.183,2.183,0,0,1,2.181,2.181v37.572a2.209,2.209,0,0,0,.647,1.562l2.855,2.855-2.855,2.855,3.123,3.123,5.064-5.063,12.336,12.336Z" transform="translate(2797 3981.177)"/>
  <path id="Path_938" data-name="Path 938" d="M-2753.968-3950.869l2.76-3.45,11.044,8.838-2.76,3.45Z" transform="translate(2765.847 3962.532)"/>
  <path id="Path_939" data-name="Path 939" d="M-2699.888-3981.8l3.787-2.269,6.615,11.042-3.788,2.269Z" transform="translate(2726.697 3984.072)"/>
  <path id="Path_940" data-name="Path 940" d="M-2765-3844.073h11.042v4.417H-2765Z" transform="translate(2773.834 3882.721)"/>
  <path id="Path_941" data-name="Path 941" d="M-2774.535-3895.625l.866-4.333,11.047,2.207-.866,4.333Z" transform="translate(2780.737 3923.178)"/>
  <circle id="Ellipse_58" data-name="Ellipse 58" cx="27.091" cy="27.091" r="27.091" transform="translate(44.831 93.943)" fill="#e24c4b"/>
  <path id="Path_942" data-name="Path 942" d="M-2564.884-3601.139a27.17,27.17,0,0,1-27.091,27.091,26.657,26.657,0,0,1-21.165-10.159,26.727,26.727,0,0,0,16.932,5.926,27.17,27.17,0,0,0,27.091-27.091,26.727,26.727,0,0,0-5.926-16.932A26.656,26.656,0,0,1-2564.884-3601.139Z" transform="translate(2663.895 3722.173)" fill="#d1403f"/>
  <path id="Path_943" data-name="Path 943" d="M-2558.523-3567.688a2.658,2.658,0,0,1-3.725,0l-8.635-8.635-8.635,8.635a2.658,2.658,0,0,1-3.725,0,2.657,2.657,0,0,1,0-3.725l8.635-8.635-8.635-8.635a2.658,2.658,0,0,1,0-3.725,2.658,2.658,0,0,1,3.725,0l8.635,8.635,8.635-8.635a2.658,2.658,0,0,1,3.725,0,2.658,2.658,0,0,1,0,3.725l-8.635,8.635,8.635,8.635A2.657,2.657,0,0,1-2558.523-3567.688Z" transform="translate(2642.804 3701.082)" fill="#fff"/>
</svg>
