<svg xmlns="http://www.w3.org/2000/svg" width="106.391" height="127.668" viewBox="0 0 106.391 127.668">
  <g id="p3-7" transform="translate(-4937.776 -1683.75)">
    <path id="Path_770" data-name="Path 770" d="M-2187.065-4691.238h0v29.79h-12.767v-17.022A12.767,12.767,0,0,1-2187.065-4691.238Z" transform="translate(7150.375 6385.626)" fill="#eba72e"/>
    <path id="Path_771" data-name="Path 771" d="M-1931.065-4661.448h-12.767v-29.79h0a12.767,12.767,0,0,1,12.767,12.767v17.022Z" transform="translate(6962.465 6385.626)" fill="#eba72e"/>
    <circle id="Ellipse_49" data-name="Ellipse 49" cx="12.767" cy="12.767" r="12.767" transform="translate(4946.288 1719.922)" fill="#f0c6a4"/>
    <circle id="Ellipse_50" data-name="Ellipse 50" cx="12.767" cy="12.767" r="12.767" transform="translate(5010.122 1719.922)" fill="#f0c6a4"/>
    <path id="Path_772" data-name="Path 772" d="M-2154.719-4406.471H-2176v-12.767h-25.534v12.767h-21.278a17.022,17.022,0,0,0-17.022,17.022v12.767H-2137.7v-12.767A17.022,17.022,0,0,0-2154.719-4406.471Z" transform="translate(7179.736 6185.972)" fill="#60b8d1"/>
    <path id="Path_773" data-name="Path 773" d="M-2167.321-4421.959h-8.511v-21.278h4.256a4.256,4.256,0,0,1,4.256,4.255Z" transform="translate(7132.759 6203.588)" fill="#e0b999"/>
    <path id="Path_774" data-name="Path 774" d="M-2220.547-4512.328a4.259,4.259,0,0,1,4.037-2.91h5.445l-4.256,12.767v8.511l12.767,17.022v29.79h-17.022v-25.534l-4.256-12.767v-17.023Z" transform="translate(7167.992 6256.438)" fill="#f7cca9"/>
    <path id="Path_775" data-name="Path 775" d="M-1951.832-4421.959h8.511v-21.278h-4.256a4.256,4.256,0,0,0-4.256,4.255Z" transform="translate(6968.337 6203.588)" fill="#e0b999"/>
    <path id="Path_776" data-name="Path 776" d="M-1933.839-4512.328a4.259,4.259,0,0,0-4.038-2.91h-5.444l4.256,12.767v8.511l-12.767,17.022v29.79h17.022v-25.534l4.256-12.767v-17.023Z" transform="translate(6968.337 6256.438)" fill="#f7cca9"/>
    <path id="Path_777" data-name="Path 777" d="M-2121.02-4607.147h-29.789a17.023,17.023,0,0,1-17.022-17.023v-51.067H-2104v51.067A17.023,17.023,0,0,1-2121.02-4607.147Z" transform="translate(7126.886 6373.882)" fill="#f7cca9"/>
    <path id="Path_778" data-name="Path 778" d="M-2139.231-4714.727v8.511h-59.579c-.159,0-.322,0-.481-.008q-.495-.012-.981-.056a17.02,17.02,0,0,1-15.56-16.958h68.09A8.511,8.511,0,0,1-2139.231-4714.727Z" transform="translate(7162.119 6409.115)" fill="#ffb632"/>
    <circle id="Ellipse_51" data-name="Ellipse 51" cx="4.256" cy="4.256" r="4.256" transform="translate(4971.821 1726.306)" fill="#596063"/>
    <circle id="Ellipse_52" data-name="Ellipse 52" cx="4.256" cy="4.256" r="4.256" transform="translate(5001.611 1726.306)" fill="#596063"/>
    <path id="Path_779" data-name="Path 779" d="M-2070.3-4419.238v12.767a8.511,8.511,0,0,1-8.511,8.511h-8.511a8.511,8.511,0,0,1-8.511-8.511v-12.767Z" transform="translate(7074.037 6185.972)" fill="#f0c6a4"/>
    <circle id="Ellipse_53" data-name="Ellipse 53" cx="17.023" cy="17.023" r="17.023" transform="translate(4973.949 1775.245)" fill="#eb423f"/>
    <path id="Path_780" data-name="Path 780" d="M-2149.01-4633.715l3.2-9.609a2.125,2.125,0,0,0,.109-.673v-17.022a2.125,2.125,0,0,0-.109-.673l-3.285-9.859a6.376,6.376,0,0,0-1.361-2.3,14.872,14.872,0,0,0-1.628-18.856v-15.124a14.923,14.923,0,0,0-8.538-13.47,10.651,10.651,0,0,0-10.612-9.936h-68.09a2.128,2.128,0,0,0-2.128,2.127,19.1,19.1,0,0,0,6.137,14.033,14.88,14.88,0,0,0-1.882,7.246v15.124a14.873,14.873,0,0,0-1.628,18.856,6.381,6.381,0,0,0-1.362,2.3l-3.285,9.857a2.145,2.145,0,0,0-.109.673V-4644a2.145,2.145,0,0,0,.109.673l3.2,9.609a19.043,19.043,0,0,0-7.568,15.251v12.767a2.127,2.127,0,0,0,2.128,2.128h102.135a2.127,2.127,0,0,0,2.128-2.128v-12.767A19.041,19.041,0,0,0-2149.01-4633.715Zm-.943-10.628-4.146,12.44a2.139,2.139,0,0,0-.109.673v23.406h-12.767v-26.952l12.341-16.456a2.126,2.126,0,0,0,.426-1.276v-8.511a2.128,2.128,0,0,0-.109-.673l-3.322-9.966h2.492a2.128,2.128,0,0,1,2.019,1.455l3.176,9.53Zm-44.684,36.519a14.9,14.9,0,0,1-14.895-14.9,14.9,14.9,0,0,1,14.895-14.895,14.9,14.9,0,0,1,14.895,14.895A14.911,14.911,0,0,1-2194.637-4607.825ZM-2222.3-4709.96h57.451v44.684a14.823,14.823,0,0,1-3.465,9.538,6.426,6.426,0,0,0-1.892,1.892,14.825,14.825,0,0,1-9.538,3.465h-29.79a14.825,14.825,0,0,1-9.538-3.465,6.426,6.426,0,0,0-1.892-1.892,14.826,14.826,0,0,1-3.465-9.538v-44.805A19.124,19.124,0,0,0-2222.3-4709.96Zm70.218,27.662a10.564,10.564,0,0,1-2.179,6.449,6.5,6.5,0,0,0-.887-.065h-5.445v-16.808A10.657,10.657,0,0,1-2152.081-4682.3Zm-14.75,31.152q.636-.581,1.218-1.218a2.116,2.116,0,0,1,.765-.145h2.128v4.965l-4.256,5.674v-8.511A2.119,2.119,0,0,1-2166.831-4651.146Zm6.239-5.618h-2a19.019,19.019,0,0,0,2-8.511v-1.782l2.128,6.383v6.038A2.128,2.128,0,0,0-2160.592-4656.765Zm-23.251-70.218h6.35a19.148,19.148,0,0,0,6.894,12.692A14.921,14.921,0,0,1-2183.843-4726.982Zm2.628,12.693a14.921,14.921,0,0,1-13.268-12.693h6.35A19.137,19.137,0,0,0-2181.215-4714.289Zm-10.639,0a14.922,14.922,0,0,1-13.268-12.693h6.35A19.135,19.135,0,0,0-2191.854-4714.289Zm-10.639,0a14.921,14.921,0,0,1-13.268-12.693h6.35a19.135,19.135,0,0,0,6.918,12.693Zm-10.639,0a14.922,14.922,0,0,1-13.268-12.693h6.35a19.137,19.137,0,0,0,6.918,12.693Zm18.495,72.419a19.037,19.037,0,0,0-10.639,3.236v-7.492H-2184v7.492A19.035,19.035,0,0,0-2194.637-4641.87Zm-32.043-14.9h-2a2.128,2.128,0,0,0-2.128,2.128v-6.038l2.128-6.383v1.782A19.028,19.028,0,0,0-2226.68-4656.765Zm.125,4.256h2.128a2.114,2.114,0,0,1,.765.145q.582.636,1.218,1.218a2.114,2.114,0,0,1,.145.766v8.511l-4.256-5.674Zm8.511,4.381a19.023,19.023,0,0,0,8.511,2v8.511h-8.511Zm38.3,2a19.022,19.022,0,0,0,8.511-2v10.514h-8.511Zm23.406-61.707v12.079a14.773,14.773,0,0,0-4.256-1.286v-19.3A10.662,10.662,0,0,1-2156.336-4707.832Zm-8.511-12.767v4.95a14.889,14.889,0,0,1-8.357-11.334h1.973A6.391,6.391,0,0,1-2164.848-4720.6Zm-72.194-6.384h6.353a19.139,19.139,0,0,0,6.917,12.693A14.925,14.925,0,0,1-2237.042-4726.982Zm8.36,15.925v14.019a14.777,14.777,0,0,0-4.256,1.286v-12.079a10.641,10.641,0,0,1,1.088-4.69A19.07,19.07,0,0,0-2228.682-4711.058Zm0,18.334v16.808h-5.445a6.5,6.5,0,0,0-.887.065,10.637,10.637,0,0,1,2.006-14.909A10.634,10.634,0,0,1-2228.682-4692.723Zm-10.639,32.049,3.175-9.528a2.128,2.128,0,0,1,2.019-1.457h2.492l-3.322,9.966a2.149,2.149,0,0,0-.109.673v8.511a2.129,2.129,0,0,0,.426,1.276l12.341,16.456v26.952h-12.767v-23.406a2.132,2.132,0,0,0-.109-.673l-4.147-12.44Zm-4.256,42.21a14.812,14.812,0,0,1,4.256-10.43v21.069h-4.256Zm25.534,10.639v-25.534h7.492a19.115,19.115,0,0,0,3.9,25.534Zm42.556-14.9a19.04,19.04,0,0,0-3.236-10.639h7.492v25.534h-11.388A19.119,19.119,0,0,0-2175.487-4622.72Zm29.789,14.9h-4.256v-21.069a14.81,14.81,0,0,1,4.256,10.43Z" transform="translate(7185.608 6414.987)"/>
    <path id="Path_781" data-name="Path 781" d="M-2141.7-4606.982h12.767a2.128,2.128,0,0,0,2.128-2.128,2.128,2.128,0,0,0-2.128-2.128H-2141.7a2.128,2.128,0,0,0-2.128,2.128A2.128,2.128,0,0,0-2141.7-4606.982Z" transform="translate(7109.27 6326.904)"/>
    <path id="Path_782" data-name="Path 782" d="M-2013.7-4606.982h12.767a2.128,2.128,0,0,0,2.128-2.128,2.128,2.128,0,0,0-2.128-2.128H-2013.7a2.128,2.128,0,0,0-2.128,2.128A2.128,2.128,0,0,0-2013.7-4606.982Z" transform="translate(7015.314 6326.904)"/>
    <path id="Path_783" data-name="Path 783" d="M-2115.065-4572.854a6.383,6.383,0,0,0-6.384-6.383,6.383,6.383,0,0,0-6.383,6.383,6.383,6.383,0,0,0,6.383,6.383A6.39,6.39,0,0,0-2115.065-4572.854Zm-6.384,2.128a2.128,2.128,0,0,1-2.128-2.128,2.128,2.128,0,0,1,2.128-2.128,2.128,2.128,0,0,1,2.128,2.128A2.13,2.13,0,0,1-2121.449-4570.727Z" transform="translate(7097.525 6303.416)"/>
    <path id="Path_784" data-name="Path 784" d="M-2059.065-4537.11a2.128,2.128,0,0,0-2.128-2.128,2.128,2.128,0,0,0-2.128,2.128,2.127,2.127,0,0,1-2.128,2.127,2.128,2.128,0,0,1-2.128-2.127,2.128,2.128,0,0,0-2.128-2.128,2.128,2.128,0,0,0-2.128,2.128,6.383,6.383,0,0,0,6.383,6.383A6.383,6.383,0,0,0-2059.065-4537.11Z" transform="translate(7056.42 6274.055)"/>
    <path id="Path_785" data-name="Path 785" d="M-2009.448-4566.471a6.383,6.383,0,0,0,6.383-6.383,6.383,6.383,0,0,0-6.383-6.383,6.384,6.384,0,0,0-6.384,6.383A6.391,6.391,0,0,0-2009.448-4566.471Zm0-8.511a2.128,2.128,0,0,1,2.128,2.128,2.128,2.128,0,0,1-2.128,2.128,2.128,2.128,0,0,1-2.128-2.128A2.13,2.13,0,0,1-2009.448-4574.982Z" transform="translate(7015.314 6303.416)"/>
    <path id="Path_786" data-name="Path 786" d="M-2087.832-4496.6a2.128,2.128,0,0,0,2.128,2.128,2.128,2.128,0,0,0,2.128-2.128,6.384,6.384,0,0,1,6.384-6.384,6.384,6.384,0,0,1,6.383,6.384,2.128,2.128,0,0,0,2.128,2.128,2.128,2.128,0,0,0,2.128-2.128,10.639,10.639,0,0,0-10.639-10.639A10.639,10.639,0,0,0-2087.832-4496.6Z" transform="translate(7068.165 6250.566)"/>
    <path id="Path_787" data-name="Path 787" d="M-2063.433-4354.615a2.127,2.127,0,0,0-3.009,0h0l-4.879,4.879-4.879-4.879a2.128,2.128,0,0,0-3.009,0,2.128,2.128,0,0,0,0,3.009h0l4.879,4.879-4.879,4.879a2.128,2.128,0,0,0,0,3.009,2.128,2.128,0,0,0,3.009,0l4.879-4.879,4.879,4.879a2.128,2.128,0,0,0,3.009,0,2.128,2.128,0,0,0,0-3.009l-4.879-4.879,4.879-4.879a2.127,2.127,0,0,0,0-3.009Z" transform="translate(7062.292 6138.995)"/>
  </g>
</svg>
