<svg id="p3-8" xmlns="http://www.w3.org/2000/svg" width="141.338" height="141.354" viewBox="0 0 141.338 141.354">
  <g id="Group_355" data-name="Group 355" transform="translate(0)">
    <path id="Shape" d="M1092.427-3678.428l-19.585-8.132a4.712,4.712,0,0,0-4.424.433l-9.658,6.452-8.716-6.766a4.711,4.711,0,0,0-5.972.16l-9.533,8.245a4.711,4.711,0,0,0-1.59,4.153l1.663,13.176-9.92,8.9a4.711,4.711,0,0,0-1.208,5.307l7.1,17.176a4.712,4.712,0,0,0,2.792,2.646l18.014,6.334a4.713,4.713,0,0,0,4.179-.528l9.795-6.544,14.259,7.109a4.711,4.711,0,0,0,5.1-.58l12.624-10.4a4.711,4.711,0,0,0,.921-6.254l-5.484-8.207,8.309-12.773a4.712,4.712,0,0,0,.264-4.681l-6.516-12.994a4.711,4.711,0,0,0-2.405-2.233Z" transform="translate(-962.865 3758.807)" fill="#f5f5f5"/>
    <path id="Path_1007" data-name="Path 1007" d="M1218.519-3661.86,1212-3674.854a4.711,4.711,0,0,0-2.407-2.24l-19.585-8.132a4.712,4.712,0,0,0-4.424.433l-.613.407,17.555,7.291a4.71,4.71,0,0,1,2.405,2.24l6.516,12.994a4.711,4.711,0,0,1-.262,4.68l-8.311,12.773,5.484,8.207a4.711,4.711,0,0,1-.921,6.254l-12.32,10.144,1.666.832a4.711,4.711,0,0,0,5.1-.58l12.624-10.4a4.711,4.711,0,0,0,.921-6.254l-5.484-8.207,8.311-12.773a4.71,4.71,0,0,0,.264-4.68Z" transform="translate(-1080.034 3757.473)" fill="#cfd8dc"/>
    <path id="Path_1008" data-name="Path 1008" d="M1136.745-3576.815a2.356,2.356,0,0,1-2.175-1.453,2.356,2.356,0,0,1,.508-2.566l5.755-5.762a2.355,2.355,0,0,0,.292-2.975l-5.706-8.544a2.355,2.355,0,0,1-.217-2.4,2.355,2.355,0,0,1,2-1.337,2.356,2.356,0,0,1,2.131,1.119l5.708,8.54a7.089,7.089,0,0,1-.874,8.919l-5.755,5.769A2.357,2.357,0,0,1,1136.745-3576.815Z" transform="translate(-1043.414 3696.854)" fill="#9e9e9e"/>
    <path id="Path_1009" data-name="Path 1009" d="M1216.3-3567.046a2.356,2.356,0,0,1-2.271-1.734l-1.072-3.908a7.067,7.067,0,0,1,2.893-7.745l3.05-2.038a2.356,2.356,0,0,1,2.387-.2,2.356,2.356,0,0,1,1.331,1.992,2.356,2.356,0,0,1-1.1,2.127l-3.062,2.04a2.356,2.356,0,0,0-.964,2.591l1.072,3.908a2.356,2.356,0,0,1-.225,1.789,2.354,2.354,0,0,1-1.424,1.106,2.419,2.419,0,0,1-.615.076Z" transform="translate(-1100.113 3683.14)" fill="#9e9e9e"/>
    <path id="Path_1010" data-name="Path 1010" d="M913.447-3918.816l40.777-9.706a14.167,14.167,0,0,1,13,3.487l34.134,32.367a6.044,6.044,0,0,1,1.9,4.656,6.045,6.045,0,0,1-2.279,4.484,11.729,11.729,0,0,1-13.333.942l-29.823-17.526a7.087,7.087,0,0,0-6.62-.306l-11.5,5.465a4.712,4.712,0,0,0-2.907,3.232,4.711,4.711,0,0,0,.975,4.236l6.761,7.114a7.83,7.83,0,0,1-.424,10.647,7.067,7.067,0,0,1-9.164.707l-30.624-22.449Z" transform="translate(-876.864 3933.622)" fill="#ffe0b2"/>
    <path id="Path_1011" data-name="Path 1011" d="M1004.018-3814.543a4.711,4.711,0,0,1-.975-4.236,4.712,4.712,0,0,1,2.907-3.232l10.945-5.206a7.079,7.079,0,0,0-6.516-.261l-11.5,5.465a4.712,4.712,0,0,0-2.907,3.232,4.711,4.711,0,0,0,.975,4.236l6.761,7.114a7.83,7.83,0,0,1-.424,10.648,6.939,6.939,0,0,1-1.453,1.093,7.034,7.034,0,0,0,8.521-1.093,7.83,7.83,0,0,0,.424-10.648Z" transform="translate(-943.102 3860.679)" fill="#dfc49c"/>
    <path id="Path_1012" data-name="Path 1012" d="M1131.462-3892.668l-34.134-32.367a14.167,14.167,0,0,0-13-3.487l-.283.069a14.13,14.13,0,0,1,6.219,3.418l34.134,32.367a6.044,6.044,0,0,1,1.9,4.656,6.044,6.044,0,0,1-2.279,4.484,11.657,11.657,0,0,1-3.809,2,11.7,11.7,0,0,0,10.876-2,6.045,6.045,0,0,0,2.279-4.484A6.044,6.044,0,0,0,1131.462-3892.668Z" transform="translate(-1006.965 3933.622)" fill="#dfc49c"/>
    <path id="Path_1013" data-name="Path 1013" d="M848.215-3926.855,837.063-3893.4a4.711,4.711,0,0,1-5.826,3.032l-14.528-4.358a4.712,4.712,0,0,1-2.832-2.34,4.711,4.711,0,0,1-.291-3.662l11.154-33.451a4.712,4.712,0,0,1,5.83-3.032l14.528,4.358a4.711,4.711,0,0,1,2.828,2.342,4.711,4.711,0,0,1,.288,3.661Z" transform="translate(-810.997 3939.784)" fill="#9d27b0"/>
    <circle id="Oval" cx="2.356" cy="2.356" r="2.356" transform="translate(21.199 14.146)" fill="#f5f5f5"/>
    <g id="Group_354" data-name="Group 354">
      <path id="Path_1014" data-name="Path 1014" d="M1097.3-3670.408l-6.516-12.994a7.066,7.066,0,0,0-3.607-3.359l-19.588-8.134a7.048,7.048,0,0,0-6.636.65l-8.245,5.51-7.378-5.724a7.091,7.091,0,0,0-8.952.236l-9.536,8.245a7.068,7.068,0,0,0-2.382,6.229l1.508,11.953-9,8.068a7.067,7.067,0,0,0-1.814,7.962l7.093,17.173a7.067,7.067,0,0,0,4.186,3.981l18.014,6.335a7.116,7.116,0,0,0,6.271-.789l8.657-5.786,13.037,6.5a7.066,7.066,0,0,0,7.644-.869l12.627-10.4a7.045,7.045,0,0,0,1.383-9.383l-4.62-6.914,7.463-11.472a7.1,7.1,0,0,0,.389-7.02Zm-4.342,4.452-8.306,12.77-7.147,10.417a2.356,2.356,0,0,0,.609,3.276,2.356,2.356,0,0,0,3.276-.609l5.208-7.592,3.55,5.314a2.356,2.356,0,0,1-.471,3.126l-12.624,10.4a2.355,2.355,0,0,1-2.547.29l-10.615-5.3,2.5-1.67a2.357,2.357,0,0,0,.65-3.27,2.358,2.358,0,0,0-3.27-.65l-5.88,3.927-9.785,6.546a2.388,2.388,0,0,1-2.089.264L1028-3635.056a2.357,2.357,0,0,1-1.4-1.324l-7.1-17.173a2.355,2.355,0,0,1,.605-2.655l6.789-6.1,2.518,13.515a2.356,2.356,0,0,0,2.316,1.925,2.263,2.263,0,0,0,.433-.04,2.355,2.355,0,0,0,1.885-2.747l-3.277-17.581-1.649-13.1a2.357,2.357,0,0,1,.794-2.075l9.534-8.245a2.355,2.355,0,0,1,2.987-.08l8.69,6.744,13.029,11.048a2.356,2.356,0,0,0,3.275-.311,2.355,2.355,0,0,0-.229-3.281l-10.7-9.072,7.067-4.712a2.356,2.356,0,0,1,2.214-.217l19.583,8.134a2.355,2.355,0,0,1,1.2,1.119l6.518,12.98a2.375,2.375,0,0,1-.144,2.342Z" transform="translate(-956.706 3764.966)"/>
      <path id="Path_1015" data-name="Path 1015" d="M843.856-3937.81a7,7,0,0,0-4.24-3.512L825.1-3945.68a7.025,7.025,0,0,0-8.74,4.535L805.2-3907.687a7.067,7.067,0,0,0,.431,5.492,7.067,7.067,0,0,0,4.242,3.514l14.528,4.358a7.166,7.166,0,0,0,2.057.3,7.027,7.027,0,0,0,6.676-4.846l.386-1.164,28.014,20.537a9.463,9.463,0,0,0,12.221-.942,10.159,10.159,0,0,0,3-7.218,10.271,10.271,0,0,0-2.532-6.711l-6.681-7.024a2.305,2.305,0,0,1-.485-2.1,2.472,2.472,0,0,1,1.649-1.706l11.47-5.449a4.731,4.731,0,0,1,4.431.205l29.818,17.522a14.16,14.16,0,0,0,16-1.129,8.4,8.4,0,0,0,3.166-6.225,8.4,8.4,0,0,0-2.635-6.467l-34.137-32.376a16.442,16.442,0,0,0-15.168-4.066l-37.032,8.813a6.972,6.972,0,0,0-.763-3.442Zm-18.1,38.973-14.528-4.358a2.354,2.354,0,0,1-1.413-1.171,2.355,2.355,0,0,1-.144-1.83l11.154-33.451a2.356,2.356,0,0,1,2.224-1.621,2.4,2.4,0,0,1,.685.1l14.528,4.358a2.354,2.354,0,0,1,1.415,1.17,2.357,2.357,0,0,1,.145,1.831l-11.157,33.451A2.341,2.341,0,0,1,825.755-3898.837Zm56.989-39.762a11.762,11.762,0,0,1,10.836,2.9l34.137,32.37a3.656,3.656,0,0,1,1.178,2.669,3.706,3.706,0,0,1-1.413,2.921,9.423,9.423,0,0,1-10.664.75L887-3914.507a9.448,9.448,0,0,0-8.834-.407l-11.307,5.39a7.067,7.067,0,0,0-4.368,4.91,7.068,7.068,0,0,0,1.563,6.384l6.669,7.022a5.479,5.479,0,0,1-.306,7.46,4.711,4.711,0,0,1-6.1.471l-29.232-21.437,8.163-24.485Z" transform="translate(-804.838 3945.991)"/>
    </g>
  </g>
</svg>
