<svg id="p3-9" xmlns="http://www.w3.org/2000/svg" width="105.936" height="141.342" viewBox="0 0 105.936 141.342">
  <g id="Group_356" data-name="Group 356" transform="translate(4.283 2.07)">
    <path id="Path_1016" data-name="Path 1016" d="M1703.241-3591.34l-15.174-6.07h-53.11l-15.174,6.07a11.065,11.065,0,0,0-6.955,10.273v27.916h39.833l9.312-7.407,8.392,7.407H1710.2v-27.916a11.063,11.063,0,0,0-6.955-10.273Z" transform="translate(-1612.828 3690.352)" fill="#dad8db"/>
    <path id="Path_1017" data-name="Path 1017" d="M1721.216-3934.087H1702.8a11.065,11.065,0,0,0-9.206,4.927l-1.141,1.712h-4.426a11.065,11.065,0,0,0-11.065,11.064l5.676,26.555h56.286v-26.555A17.7,17.7,0,0,0,1721.216-3934.087Z" transform="translate(-1659.254 3934.087)" fill="#966a5b"/>
    <path id="Path_1018" data-name="Path 1018" d="M1692.448-3910.039h-4.426a11.065,11.065,0,0,0-11.065,11.065v26.555h15.49Z" transform="translate(-1659.254 3916.678)" fill="#785353"/>
    <path id="Path_1019" data-name="Path 1019" d="M1729.8-3838.435h-3.319a4.426,4.426,0,0,1-4.426-4.426v-4.426a6.639,6.639,0,0,0-6.639-6.639h-26.555a6.639,6.639,0,0,0-6.639,6.639v4.426a4.426,4.426,0,0,1-4.426,4.426h-3a5.749,5.749,0,0,0-5.819,4.962,5.533,5.533,0,0,0,5.5,6.1h3.319l3.085,2.213c0,13.443,7.813,24.342,21.256,24.342a24.342,24.342,0,0,0,24.342-24.342v-2.213h3a5.749,5.749,0,0,0,5.819-4.962A5.533,5.533,0,0,0,1729.8-3838.435Z" transform="translate(-1653.451 3876.055)" fill="#ffe09f"/>
    <path id="Path_1020" data-name="Path 1020" d="M1686.645-3824.091v-28.362a6.619,6.619,0,0,0-4.426,6.232v4.426a4.426,4.426,0,0,1-4.426,4.426h-3a5.749,5.749,0,0,0-5.819,4.962,5.533,5.533,0,0,0,5.5,6.1h3.319v2.213a24.342,24.342,0,0,0,24.342,24.342,24.413,24.413,0,0,0,4.426-.421,24.335,24.335,0,0,1-19.916-23.921Z" transform="translate(-1653.451 3874.989)" fill="#f6d190"/>
    <path id="Path_1021" data-name="Path 1021" d="M1719.048-3741.7c-14.619.268-26.058,12.81-26.058,27.431v43.378a2.213,2.213,0,0,0,2.213,2.213h48.684a2.213,2.213,0,0,0,2.213-2.213v-44.259a26.555,26.555,0,0,0-27.052-26.551Z" transform="translate(-1670.861 3794.81)" fill="#a4ccff"/>
    <path id="Path_1022" data-name="Path 1022" d="M1774.822-3696.443h-8.852v-8.767a4.426,4.426,0,0,0-4.426-4.426,4.426,4.426,0,0,0-4.426,4.426l6.639,70.813h11.065v-39.833l3.683-2.455a6.639,6.639,0,0,0,2.956-5.524v-7.6a6.639,6.639,0,0,0-6.639-6.639Z" transform="translate(-1717.286 3771.597)" fill="#ffe09f"/>
    <path id="Path_1023" data-name="Path 1023" d="M1701.842-3716.225a27.68,27.68,0,0,1,15.914-25.126c-13.99.962-24.766,13.155-24.766,27.339v43.378a2.213,2.213,0,0,0,2.213,2.213h6.639Z" transform="translate(-1670.861 3794.557)" fill="#8bb3ea"/>
    <path id="Path_1024" data-name="Path 1024" d="M1761.545-3709.635a4.426,4.426,0,0,0-4.426,4.426v70.813h6.639v-74.625a4.381,4.381,0,0,0-2.213-.614Z" transform="translate(-1717.286 3771.597)" fill="#f6d190"/>
  </g>
  <g id="Group_357" data-name="Group 357" transform="translate(0 0)">
    <path id="Path_1025" data-name="Path 1025" d="M1698.581-3703.149l-13.872-5.549v-11.876a28.658,28.658,0,0,0-28.625-28.625,28.658,28.658,0,0,0-28.625,28.625v11.876l-13.872,5.549a13.072,13.072,0,0,0-8.257,12.2v27.916a2.07,2.07,0,0,0,2.07,2.07,2.07,2.07,0,0,0,2.07-2.07v-27.916a8.951,8.951,0,0,1,5.654-8.351l12.335-4.934v30.136a2.07,2.07,0,0,0,2.07,2.07h15.633v8.994a2.07,2.07,0,0,0,2.07,2.07,2.07,2.07,0,0,0,2.07-2.07v-70.814a2.358,2.358,0,0,1,2.355-2.355,2.358,2.358,0,0,1,2.355,2.355v8.767a2.071,2.071,0,0,0,2.07,2.071h8.852a4.573,4.573,0,0,1,4.568,4.568v7.6a4.559,4.559,0,0,1-2.034,3.8l-3.683,2.455a2.071,2.071,0,0,0-.922,1.723v39.833a2.07,2.07,0,0,0,2.071,2.07,2.07,2.07,0,0,0,2.07-2.07v-8.994h15.633a2.07,2.07,0,0,0,2.07-2.071v-30.136l12.335,4.934a8.951,8.951,0,0,1,5.654,8.351v27.916a2.07,2.07,0,0,0,2.071,2.07,2.07,2.07,0,0,0,2.07-2.07v-27.916a13.071,13.071,0,0,0-8.256-12.2ZM1667-3676.173v-25.59l2.761-1.841a8.691,8.691,0,0,0,3.878-7.247v-7.6a8.719,8.719,0,0,0-8.709-8.709h-6.781v-6.7a6.5,6.5,0,0,0-6.5-6.5,6.5,6.5,0,0,0-6.5,6.5v57.679H1631.6v-44.4a24.512,24.512,0,0,1,24.484-24.484,24.512,24.512,0,0,1,24.484,24.484v44.4H1667Z" transform="translate(-1603.115 3802.309)"/>
    <path id="Path_1026" data-name="Path 1026" d="M1669.047-3888.762h1.249v4.568a2.071,2.071,0,0,0,2.07,2.071,2.071,2.071,0,0,0,2.07-2.071v-6.638a2.071,2.071,0,0,0-2.07-2.071h-3.319a3.469,3.469,0,0,1-2.568-1.14,3.442,3.442,0,0,1-.875-2.686,3.672,3.672,0,0,1,3.759-3.1h3a6.5,6.5,0,0,0,6.5-6.5v-4.426a4.573,4.573,0,0,1,4.568-4.568h26.555a4.573,4.573,0,0,1,4.568,4.568v4.426a6.5,6.5,0,0,0,6.5,6.5h3.319a3.47,3.47,0,0,1,2.568,1.14,3.442,3.442,0,0,1,.875,2.686,3.672,3.672,0,0,1-3.759,3.1h-3a2.07,2.07,0,0,0-1.464.606,2.071,2.071,0,0,0-.606,1.464v6.638a2.071,2.071,0,0,0,2.071,2.071,2.07,2.07,0,0,0,2.07-2.071v-4.568h.934a7.845,7.845,0,0,0,7.879-6.826,7.636,7.636,0,0,0-1.926-5.877c-.081-.089-.164-.176-.249-.26h0v-20.086a19.8,19.8,0,0,0-19.773-19.774h-18.421a13.108,13.108,0,0,0-10.929,5.849l-.526.79h-3.318a13.15,13.15,0,0,0-13.135,13.135v11.065a2.07,2.07,0,0,0,2.07,2.07,2.07,2.07,0,0,0,2.07-2.07v-11.065a9,9,0,0,1,8.994-8.994h4.426a2.071,2.071,0,0,0,1.723-.922l1.141-1.712a8.976,8.976,0,0,1,7.484-4.005h18.421a15.651,15.651,0,0,1,15.633,15.633v17.951a7.544,7.544,0,0,0-1.249-.1h-3.319a2.358,2.358,0,0,1-2.355-2.356v-4.426a8.719,8.719,0,0,0-8.709-8.709h-26.555a8.719,8.719,0,0,0-8.709,8.709v4.426a2.358,2.358,0,0,1-2.355,2.356h-3a7.845,7.845,0,0,0-7.879,6.826,7.638,7.638,0,0,0,1.925,5.877,7.619,7.619,0,0,0,5.638,2.5Z" transform="translate(-1643.741 3941.587)"/>
    <path id="Path_1027" data-name="Path 1027" d="M1733.846-3793.385a2.07,2.07,0,0,0,1.812,1.065,2.062,2.062,0,0,0,1-.261l7.967-4.426a2.071,2.071,0,0,0,1.065-1.81,2.071,2.071,0,0,0-1.065-1.81l-7.967-4.426a2.07,2.07,0,0,0-2.815.8,2.071,2.071,0,0,0,.8,2.816l4.709,2.616-4.709,2.616a2.07,2.07,0,0,0-.8,2.815Z" transform="translate(-1695.965 3842.932)"/>
    <path id="Path_1028" data-name="Path 1028" d="M1812.769-3804.249a2.07,2.07,0,0,0-2.815-.8l-7.967,4.426a2.071,2.071,0,0,0-1.065,1.81,2.071,2.071,0,0,0,1.065,1.81l7.967,4.426a2.06,2.06,0,0,0,1,.261,2.07,2.07,0,0,0,1.812-1.065,2.07,2.07,0,0,0-.8-2.815l-4.709-2.616,4.709-2.616A2.07,2.07,0,0,0,1812.769-3804.249Z" transform="translate(-1744.714 3842.933)"/>
    <path id="Path_1029" data-name="Path 1029" d="M1619.156-3731.1a2.07,2.07,0,0,0-2.07-2.07h-17.7a2.07,2.07,0,0,0-2.07,2.07,2.071,2.071,0,0,0,2.07,2.071h17.7A2.07,2.07,0,0,0,1619.156-3731.1Z" transform="translate(-1597.312 3790.704)"/>
    <path id="Path_1030" data-name="Path 1030" d="M1639.371-3700.886l-8.852,4.426a2.07,2.07,0,0,0-.926,2.778,2.07,2.07,0,0,0,1.853,1.145,2.061,2.061,0,0,0,.924-.219l8.852-4.426a2.07,2.07,0,0,0,.926-2.778,2.07,2.07,0,0,0-2.778-.926Z" transform="translate(-1620.523 3767.492)"/>
    <path id="Path_1031" data-name="Path 1031" d="M1921.7-3733.168H1904a2.07,2.07,0,0,0-2.07,2.07,2.071,2.071,0,0,0,2.07,2.071h17.7a2.071,2.071,0,0,0,2.07-2.071A2.07,2.07,0,0,0,1921.7-3733.168Z" transform="translate(-1817.834 3790.704)"/>
    <path id="Path_1032" data-name="Path 1032" d="M1911.92-3692.756a2.058,2.058,0,0,0,.924.219,2.071,2.071,0,0,0,1.854-1.145,2.07,2.07,0,0,0-.926-2.778l-8.852-4.426a2.07,2.07,0,0,0-2.778.926,2.07,2.07,0,0,0,.926,2.778Z" transform="translate(-1817.833 3767.492)"/>
  </g>
</svg>
