<svg xmlns="http://www.w3.org/2000/svg" width="155.548" height="156.509" viewBox="0 0 155.548 156.509">
  <g id="p4-1" transform="translate(-6111.576 -5508.804)">
    <g id="p4-1-2" data-name="p4-1" transform="translate(2094 3323)">
      <path id="Path_1101" data-name="Path 1101" d="M-7163.537-3935.008v12.838H-7274.8v-12.838Z" transform="translate(11317.404 6122.951)" fill="#ff826e"/>
      <g id="Group_385" data-name="Group 385" transform="translate(4046.885 2200.781)">
        <path id="Path_1102" data-name="Path 1102" d="M-7258.8-3887.008h21.4v115.541h-21.4Z" transform="translate(7258.799 3887.008)" fill="#ccd1d9"/>
        <path id="Path_1103" data-name="Path 1103" d="M-6986.146-3887.008v17.117h-4.279a4.292,4.292,0,0,0-4.279,4.279v25.676H-7026.8a10.7,10.7,0,0,0,10.7-10.7,10.719,10.719,0,0,0-4.279-8.559v-27.815Z" transform="translate(7088.849 3887.008)" fill="#ccd1d9"/>
        <path id="Path_1104" data-name="Path 1104" d="M-6971.5-3619.1h-35.3a5.351,5.351,0,0,0,5.349-5.349v-50.282a4.292,4.292,0,0,1,4.279-4.279h17.117v17.117a4.292,4.292,0,0,0,4.279,4.279h4.279Z" transform="translate(7074.198 3734.639)" fill="#ccd1d9"/>
      </g>
      <path id="Path_1105" data-name="Path 1105" d="M-6881.123-3823.008h-21.4a4.292,4.292,0,0,0-4.279,4.279v51.352a4.292,4.292,0,0,0,4.279,4.279h21.4a4.292,4.292,0,0,0,4.279-4.279v-51.352A4.292,4.292,0,0,0-6881.123-3823.008Z" transform="translate(11047.828 6040.906)" fill="#969faa"/>
      <path id="Path_1106" data-name="Path 1106" d="M-7178.8-3887.008h47.072v115.541H-7178.8Z" transform="translate(11247.08 6087.789)" fill="#e6e9ed"/>
      <path id="Path_1107" data-name="Path 1107" d="M-7168.1-3591.008v31.025a5.353,5.353,0,0,1-1.562,3.787,5.354,5.354,0,0,1-3.787,1.562,5.351,5.351,0,0,1-5.35-5.349v-31.025Z" transform="translate(11247.08 5870.956)" fill="#cf9e76"/>
      <path id="Path_1108" data-name="Path 1108" d="M-7128.1-3591.008v31.025a5.354,5.354,0,0,1-1.562,3.787,5.353,5.353,0,0,1-3.787,1.562,5.351,5.351,0,0,1-5.349-5.349v-31.025h10.7Z" transform="translate(11217.778 5870.956)" fill="#cf9e76"/>
      <path id="Path_1109" data-name="Path 1109" d="M-7157.4-3669.332v2.14h-21.4v-27.815h17.117a12.842,12.842,0,0,1,6.312,1.648,12.536,12.536,0,0,0-2.033,6.911v17.117Z" transform="translate(11247.08 5947.141)" fill="#b4dd7f"/>
      <path id="Path_1110" data-name="Path 1110" d="M-7016.1-3591.008v31.025a5.351,5.351,0,0,1-5.35,5.349,5.354,5.354,0,0,1-3.787-1.562,5.353,5.353,0,0,1-1.562-3.787v-31.025Z" transform="translate(11135.733 5870.956)" fill="#cf9e76"/>
      <path id="Path_1111" data-name="Path 1111" d="M-7056.1-3591.008v31.025a5.351,5.351,0,0,1-5.35,5.349,5.354,5.354,0,0,1-3.787-1.562,5.353,5.353,0,0,1-1.562-3.787v-31.025Z" transform="translate(11165.035 5870.956)" fill="#cf9e76"/>
      <path id="Path_1112" data-name="Path 1112" d="M-7090.24-3678.913v4.279h-2.14a6.41,6.41,0,0,1-6.419-6.419v-17.117a12.536,12.536,0,0,1,2.032-6.911,12.826,12.826,0,0,1,10.806-5.927h47.072a4.292,4.292,0,0,1,4.279,4.279,4.2,4.2,0,0,1-1.263,3.038,4.252,4.252,0,0,1-3.017,1.241h-25.676a4.292,4.292,0,0,0-4.279,4.279v19.257h-21.4Z" transform="translate(11188.477 5958.861)" fill="#fcd770"/>
      <ellipse id="Ellipse_72" data-name="Ellipse 72" cx="11" cy="10.5" rx="11" ry="10.5" transform="translate(4068 2231)" fill="#f0d0b4"/>
      <path id="Path_1113" data-name="Path 1113" d="M-7049.682-3788.868a10.719,10.719,0,0,1,4.279,8.559,10.7,10.7,0,0,1-10.7,10.7,10.7,10.7,0,0,1-10.7-10.7,10.7,10.7,0,0,1,10.7-10.7A10.575,10.575,0,0,1-7049.682-3788.868Z" transform="translate(11165.035 6017.465)" fill="#f0d0b4"/>
      <path id="Path_1114" data-name="Path 1114" d="M-6868.38-3783.008l6.419,10.7H-6874.8Z" transform="translate(11024.387 6011.604)" fill="#ff826e"/>
      <path id="Path_1115" data-name="Path 1115" d="M-6861.961-3679.008l-6.419,10.7-6.419-10.7Z" transform="translate(11024.387 5935.42)" fill="#ff826e"/>
      <path id="Path_1116" data-name="Path 1116" d="M-7156.56-3913.053h-14.978v-12.838h4.279v-17.117H-7282.8v17.117h4.279v115.541h28.864l.021,0,.021,0h10.658l.021,0c.009,0,.011,0,.019,0h19.216l.021,0c.009,0,.011,0,.019,0H-7209l.021,0c.009,0,.011,0,.019,0h37.422v-38.514h14.978a6.427,6.427,0,0,0,6.419-6.419v-51.352A6.427,6.427,0,0,0-7156.56-3913.053Zm-19.257,0h-2.14a6.427,6.427,0,0,0-6.419,6.419v23.538h-20.414a12.768,12.768,0,0,0,3.3-8.561,12.8,12.8,0,0,0-4.279-9.543v-24.692h29.955Zm11.2,42.793-2.641,4.4-2.64-4.4Zm-9.049-4.279h-3.789l0,0h-21.9a6.427,6.427,0,0,0-6.419,6.419V-3851h-17.117v-17.115h-4.279v21.4a4.284,4.284,0,0,1-4.279-4.279v-17.117a10.71,10.71,0,0,1,10.7-10.7h47.072a2.142,2.142,0,0,1,2.14,2.14A2.14,2.14,0,0,1-7173.666-3874.539Zm-35.336,59.91a3.211,3.211,0,0,1-3.188-3.207v-28.887h6.419v28.887a3.211,3.211,0,0,1-3.188,3.207Zm-10.7,0a3.211,3.211,0,0,1-3.188-3.207v-28.887h6.419v28.887a3.211,3.211,0,0,1-3.188,3.207Zm-19.257,0a3.211,3.211,0,0,1-3.188-3.207v-28.887h6.419v28.887a3.211,3.211,0,0,1-3.188,3.207Zm-10.7,0a3.211,3.211,0,0,1-3.188-3.207v-28.887h6.419v28.887a3.211,3.211,0,0,1-3.188,3.207Zm39.6-111.262v22.146a12.783,12.783,0,0,0-4.279-.749,12.851,12.851,0,0,0-12.838,12.838,12.786,12.786,0,0,0,3.554,8.843,14.974,14.974,0,0,0-8.617,5.1,15.169,15.169,0,0,0-2.79-.8,12.78,12.78,0,0,0,3.573-8.865,12.851,12.851,0,0,0-12.838-12.838,12.772,12.772,0,0,0-8.559,3.3v-28.971Zm4.279,34.234a8.567,8.567,0,0,1-8.559,8.559,8.567,8.567,0,0,1-8.559-8.559,8.567,8.567,0,0,1,8.559-8.559A8.567,8.567,0,0,1-7205.771-3891.656ZM-7235.727-3851h-17.117v-23.536h8.559v0h6.419a10.758,10.758,0,0,1,3.338.554,14.9,14.9,0,0,0-1.2,5.865V-3851Zm-17.117-36.374a8.567,8.567,0,0,1,8.559-8.559,8.567,8.567,0,0,1,8.559,8.559,8.567,8.567,0,0,1-8.559,8.559A8.567,8.567,0,0,1-7252.844-3887.377Zm21.4,69.541v-25.8a8.471,8.471,0,0,0,4.279,1.19v24.606a7.384,7.384,0,0,0,.751,3.207h-5.779A7.41,7.41,0,0,0-7231.447-3817.836Zm-47.072-120.892h106.982v8.559H-7278.52Zm4.279,12.838h17.117v111.262h-17.117Zm98.424,111.262h-26.427a7.377,7.377,0,0,0,.751-3.207v-50.282a2.142,2.142,0,0,1,2.14-2.14h14.978v14.975a6.427,6.427,0,0,0,6.419,6.419h2.14Zm21.4-40.653a2.142,2.142,0,0,1-2.14,2.14h-21.4a2.142,2.142,0,0,1-2.14-2.14v-14.975h5.21l7.627,12.714,10.2-17h-10.591a6.331,6.331,0,0,0,.394-2.137,6.427,6.427,0,0,0-6.419-6.419h-6.419v-23.538a2.142,2.142,0,0,1,2.14-2.14h21.4a2.142,2.142,0,0,1,2.14,2.14Z" transform="translate(11323.265 6128.812)"/>
      <path id="Path_1117" data-name="Path 1117" d="M-6888.927-3781.557h20.4l-10.2-17Zm7.557-4.279,2.64-4.4,2.641,4.4Z" transform="translate(11034.736 6022.991)"/>
      <path id="Path_1118" data-name="Path 1118" d="M-7234.8-3863.008h4.279v4.279h-4.279Z" transform="translate(11288.103 6070.208)"/>
      <path id="Path_1119" data-name="Path 1119" d="M-7234.8-3831.008h4.279v4.279h-4.279Z" transform="translate(11288.103 6046.767)"/>
      <path id="Path_1120" data-name="Path 1120" d="M-7234.8-3799.008h4.279v4.279h-4.279Z" transform="translate(11288.103 6023.325)"/>
      <path id="Path_1121" data-name="Path 1121" d="M-6914.8-3863.008h4.279v4.279h-4.279Z" transform="translate(11053.688 6070.208)"/>
      <path id="Path_1122" data-name="Path 1122" d="M-6946.8-3863.008h4.279v4.279h-4.279Z" transform="translate(11077.13 6070.208)"/>
      <path id="Path_1123" data-name="Path 1123" d="M-6978.8-3863.008h4.279v4.279h-4.279Z" transform="translate(11100.571 6070.208)"/>
      <path id="Path_1124" data-name="Path 1124" d="M-6914.8-3495.008h4.279v4.279h-4.279Z" transform="translate(11053.688 5800.632)"/>
      <path id="Path_1125" data-name="Path 1125" d="M-6914.8-3575.008h4.279v17.117h-4.279Z" transform="translate(11053.688 5859.235)"/>
    </g>
    <g id="Group_660" data-name="Group 660" transform="translate(90 928)">
      <g id="Group_658" data-name="Group 658" transform="translate(6021.576 4669.819)">
        <ellipse id="Ellipse_56" data-name="Ellipse 56" cx="33.746" cy="33.747" rx="33.746" ry="33.747" fill="#e24c4b"/>
        <path id="Path_910" data-name="Path 910" d="M-4556.14-3516.047a33.846,33.846,0,0,1-33.747,33.746,33.206,33.206,0,0,1-26.364-12.655,33.292,33.292,0,0,0,21.092,7.382,33.846,33.846,0,0,0,33.746-33.747,33.294,33.294,0,0,0-7.382-21.092A33.208,33.208,0,0,1-4556.14-3516.047Z" transform="translate(4623.632 3549.796)" fill="#d1403f"/>
        <path id="Path_911" data-name="Path 911" d="M-4555.374-3481.537a3.309,3.309,0,0,1-4.64,0l-10.756-10.756-10.757,10.756a3.311,3.311,0,0,1-4.641,0,3.31,3.31,0,0,1,0-4.64l10.756-10.757-10.756-10.756a3.311,3.311,0,0,1,0-4.64,3.311,3.311,0,0,1,4.641,0l10.757,10.757,10.756-10.757a3.31,3.31,0,0,1,4.64,0,3.31,3.31,0,0,1,0,4.64l-10.757,10.756,10.757,10.757A3.309,3.309,0,0,1-4555.374-3481.537Z" transform="translate(4604.516 3530.68)" fill="#fff"/>
      </g>
    </g>
  </g>
</svg>
