<svg xmlns="http://www.w3.org/2000/svg" width="136.938" height="95.855" viewBox="0 0 136.938 95.855">
  <g id="p4-2" transform="translate(-4284.77 -2232.021)">
    <path id="Path_1126" data-name="Path 1126" d="M-6273.131-3709.21c-21.5-2.1-32.815-28.57-33.766-50.516a3.349,3.349,0,0,0-4-3.129l-45.193,8.883a3.355,3.355,0,0,0-2.709,3.3c.011,5.856,0,14.28-.087,22.223a289,289,0,0,1-2.845,36.428h0a153.71,153.71,0,0,0-.142,18.232,2.954,2.954,0,0,0,2.952,2.827h32.7a2.955,2.955,0,0,0,2.955-2.955v-5.048l3.488.268a65.3,65.3,0,0,1,13.83,2.713,94.418,94.418,0,0,0,72.776-5.027,7.479,7.479,0,0,0,4.135-6.7v-5.574C-6229.035-3710.158-6239.805-3705.958-6273.131-3709.21Z" transform="translate(10648.794 5996.889)" fill="#bf8f64"/>
    <path id="Path_1127" data-name="Path 1127" d="M-6297.507-3754.518c-.2-1.755-.338-3.5-.412-5.208a3.349,3.349,0,0,0-4-3.129l-45.193,8.883a3.355,3.355,0,0,0-2.709,3.3c0,1.792,0,3.826,0,6.012h0l41.912-7.8Z" transform="translate(10639.816 5996.889)" fill="#a06740"/>
    <g id="Group_386" data-name="Group 386" transform="translate(4287.065 2233.969)">
      <path id="Path_1128" data-name="Path 1128" d="M-6153.223-3709.661c-19.575-4.108-29.9-29.112-30.817-50.024a3.362,3.362,0,0,0-4-3.171l-6.3,1.238c-.7,24.5,11.033,50.268,30.616,58.786,4.5,1.959,10.5-1.917,10.5-6.829Z" transform="translate(6238.875 3762.92)" fill="#af794e"/>
      <path id="Path_1129" data-name="Path 1129" d="M-5979.887-3556.905c.5,4.708-1.1,19.383-8.146,29.156a120.515,120.515,0,0,0,33-11.056v-3.57C-5955.033-3555.438-5961.5-3555.866-5979.887-3556.905Z" transform="translate(6087.727 3612.005)" fill="#af794e"/>
      <path id="Path_1130" data-name="Path 1130" d="M-6358.231-3597.8c-.738,15-2.549,26.737-2.549,26.737l30.687,2.353h0C-6330.094-3585.952-6349.36-3594.693-6358.231-3597.8Z" transform="translate(6360.781 3641.965)" fill="#af794e"/>
    </g>
    <path id="Path_1131" data-name="Path 1131" d="M-5904.051-3541.18l0-.186c-.008-.265-.018-.525-.031-.78,0-.033,0-.065-.006-.1-.013-.23-.029-.456-.047-.677,0-.052-.008-.1-.013-.155-.021-.239-.045-.474-.073-.7,0-.043-.011-.085-.017-.127q-.039-.308-.085-.6c-.006-.037-.011-.074-.017-.111q-.054-.326-.118-.636l-.028-.131c-.042-.2-.086-.388-.134-.575,0-.015-.007-.032-.012-.047-.051-.2-.107-.391-.166-.579l-.038-.121c-.061-.188-.124-.373-.191-.552l0-.01c-.067-.176-.138-.346-.212-.512-.015-.034-.03-.068-.046-.1-.076-.167-.155-.329-.239-.487l-.03-.055q-.118-.218-.245-.425c-.016-.025-.031-.051-.047-.076-.093-.148-.189-.291-.291-.431l-.05-.067q-.144-.194-.3-.379l-.035-.042c-.111-.131-.228-.259-.347-.383l-.063-.064a8.215,8.215,0,0,0-.786-.7l-.072-.055c-.142-.109-.288-.215-.439-.317h0c-.151-.1-.308-.2-.468-.294l-.069-.041c-.162-.094-.328-.186-.5-.273l-.04-.02q-.249-.127-.512-.245l-.05-.023q-.275-.123-.565-.236l-.061-.023q-.592-.229-1.243-.424l-.067-.02q-.66-.2-1.383-.361l-.054-.012q-.743-.169-1.555-.311l-.016,0c-1.106-.193-2.308-.353-3.612-.49,4.751,2.483,6.682,6.652,6.682,13.791a62.216,62.216,0,0,1,0,7.151c2.651-1.105,5.246-2.3,7.7-3.582v-3.57h0C-5904.041-3540.634-5904.045-3540.909-5904.051-3541.18Z" transform="translate(10323.8 5843.949)" fill="#a06740"/>
    <path id="Path_1132" data-name="Path 1132" d="M-6229.035-3502.578a94.579,94.579,0,0,1-76.911,7.2,40.155,40.155,0,0,0-4.479-1.24c-.307-.069-.619-.137-.932-.2a68.577,68.577,0,0,0-8.418-1.27l-41.953-3.217h0a153.717,153.717,0,0,0-.142,18.233,2.954,2.954,0,0,0,2.952,2.827h32.7a2.955,2.955,0,0,0,2.955-2.955v-5.048l3.488.268a65.3,65.3,0,0,1,13.829,2.713,94.419,94.419,0,0,0,72.776-5.027,7.48,7.48,0,0,0,4.135-6.7Z" transform="translate(10648.794 5806.177)" fill="#686868"/>
    <path id="Path_1133" data-name="Path 1133" d="M-6236.508-3498.771c0,.121,0,.241,0,.36-.021,3.726-2.137,5.384-5.586,6.794-30.053,12.284-57.207,4.154-67.487.482a65.279,65.279,0,0,0-13.83-2.713l-2.477-.19a.94.94,0,0,0-1.011.937v2.151a2.956,2.956,0,0,1-2.955,2.955H-6361.9c.041,1.9.1,3.6.159,4.917a2.953,2.953,0,0,0,2.952,2.827h32.7a2.955,2.955,0,0,0,2.955-2.955v-5.048l3.489.268a65.3,65.3,0,0,1,13.829,2.713,94.321,94.321,0,0,0,68.866-3.193h0l.209-.093.006,0q.51-.227,1.02-.461h0c.175-.081.351-.163.526-.245l.012-.005c.255-.119.51-.237.765-.36h0q.67-.32,1.342-.652l.027-.013a7.48,7.48,0,0,0,4.135-6.7v-5.574Q-6232.735-3500.457-6236.508-3498.771Z" transform="translate(10648.669 5806.177)" fill="#4f4f4f"/>
    <g id="Group_387" data-name="Group 387" transform="translate(4284.771 2232.02)">
      <path id="Path_1134" data-name="Path 1134" d="M-6357.169-3752.793v.375q0,.739,0,1.487v.329c0,2.911-.012,5.88-.027,8.7a1.949,1.949,0,0,0,1.938,1.959,1.939,1.939,0,0,0,1.959-1.939c.011-2.109.019-4.3.023-6.494l38.256-7.122a76.49,76.49,0,0,0,7.363,24.8c5.835,11.65,14.092,20.059,23.879,24.316a8.3,8.3,0,0,0,3.331.681h0a10.305,10.305,0,0,0,6.742-2.661,9.48,9.48,0,0,0,2.822-4.38c.377.052.755.1,1.136.135,1.753.171,3.559.332,5.367.479.054,0,.107.007.16.007a1.949,1.949,0,0,0,1.94-1.791,1.949,1.949,0,0,0-1.784-2.1c-1.788-.145-3.572-.3-5.3-.474a25.213,25.213,0,0,1-2.98-.474l-.346-.079q-.3-.07-.591-.148c-.12-.031-.24-.062-.359-.1-.18-.05-.356-.1-.534-.157-.131-.04-.264-.077-.394-.119-.078-.025-.154-.053-.232-.079-.458-.152-.912-.315-1.358-.493l-.02-.008q-.386-.154-.767-.321l-.016-.007a30.328,30.328,0,0,1-10.3-7.685l-.038-.042c-.171-.191-.34-.385-.509-.581l-.149-.175q-.191-.225-.379-.454c-.087-.106-.174-.212-.26-.319s-.166-.207-.248-.311c-.123-.156-.246-.312-.365-.468l-.116-.152a47.137,47.137,0,0,1-3.131-4.694,63.367,63.367,0,0,1-5.97-14.113l0-.016c0-.014-.009-.027-.013-.04a75.23,75.23,0,0,1-2.267-10.54c0-.024-.006-.048-.01-.072q-.262-1.868-.431-3.746c0-.031-.006-.062-.008-.093q-.04-.45-.073-.9c0-.058-.009-.115-.013-.173-.022-.3-.042-.6-.06-.9,0-.051-.007-.1-.01-.153q-.031-.527-.054-1.054a5.274,5.274,0,0,0-2.011-3.92c-.116-.091-.236-.175-.358-.256l-.058-.038q-.175-.112-.357-.21l-.111-.058c-.115-.058-.23-.114-.349-.163-.044-.018-.089-.035-.134-.052q-.138-.054-.28-.1c-.062-.02-.124-.04-.187-.057-.1-.029-.209-.055-.314-.079-.05-.011-.1-.022-.149-.031-.128-.024-.258-.043-.388-.057l-.128-.013c-.14-.012-.28-.019-.421-.021l-.047,0-.057,0c-.145,0-.29.008-.436.021l-.068.008c-.156.017-.312.038-.469.069l-10.564,2.077-34.629,6.807a5.272,5.272,0,0,0-1.234.408c-.027.013-.057.024-.085.038l-.031.017a5.316,5.316,0,0,0-2.932,4.752c0,.5,0,1.016,0,1.531v.4Q-6357.168-3753.439-6357.169-3752.793Zm41.771-6.6-37.874,7.051v-.344c0-.5,0-1,0-1.476,0-.116,0-.231,0-.346,0-.516,0-1.021,0-1.5a1.408,1.408,0,0,1,.681-1.207,1.393,1.393,0,0,1,.456-.176l33.6-6.6,2.947-.579c0,.042,0,.084,0,.126,0,.369.006.739.014,1.108,0,.1.005.2.008.294q.011.476.028.953c0,.125.01.25.016.375.012.29.025.58.041.869q.011.215.024.43c.016.271.032.542.051.812C-6315.406-3759.541-6315.4-3759.468-6315.4-3759.4Zm40.684,45.862a5.639,5.639,0,0,1-1.586,2.262,6.45,6.45,0,0,1-4.146,1.671,4.42,4.42,0,0,1-1.776-.357c-15.622-6.795-27.074-26.1-29.14-47.815a2.084,2.084,0,0,0-.007-.213c-.209-2.215-.318-4.438-.327-6.637v-.192c0-.178,0-.356,0-.534l3.641-.716,1.107-.218h0a1.457,1.457,0,0,1,.256-.025h.045a1.381,1.381,0,0,1,.5.1h0a1.432,1.432,0,0,1,.868,1.265c.008.2.02.4.03.593q.129,2.5.422,5l-3.472.8a1.949,1.949,0,0,0-1.463,2.335,1.949,1.949,0,0,0,1.9,1.513,1.954,1.954,0,0,0,.438-.05l3.155-.725c.4,2.4.917,4.785,1.533,7.116l-3.03.8a1.948,1.948,0,0,0-1.385,2.383,1.949,1.949,0,0,0,1.882,1.451,1.96,1.96,0,0,0,.5-.065l3.126-.827a71.181,71.181,0,0,0,2.771,7.3l.063.14q.151.337.306.671l.017.038-3.156,1.191a1.949,1.949,0,0,0-1.135,2.511,1.949,1.949,0,0,0,1.823,1.261,1.947,1.947,0,0,0,.688-.126l3.536-1.335c.035.064.069.13.1.194.046.083.092.165.139.247q.135.245.273.487c.081.143.163.286.245.428.044.077.088.156.133.232s.079.129.117.2q.188.318.378.629c.071.117.142.234.214.35q.2.329.411.653l.2.309c.152.234.306.465.46.695.055.082.109.165.164.245q.3.447.615.883l.1.145-2.164,1.429a1.949,1.949,0,0,0-.552,2.7,1.946,1.946,0,0,0,1.628.875,1.941,1.941,0,0,0,1.072-.323l2.431-1.606a38.582,38.582,0,0,0,4.791,4.719l-1.687,1.762a1.949,1.949,0,0,0,.061,2.756,1.941,1.941,0,0,0,1.347.541,1.943,1.943,0,0,0,1.408-.6l2.05-2.143a29.679,29.679,0,0,0,7.885,3.578C-6274.833-3713.57-6274.774-3713.551-6274.714-3713.534Z" transform="translate(6360.45 3770.207)" fill="#051c1b"/>
      <path id="Path_1135" data-name="Path 1135" d="M-6232.429-3605.568c0-.027,0-.053,0-.08,0-.194-.009-.386-.016-.575,0-.033,0-.064,0-.1-.007-.182-.016-.364-.025-.542v-.019q-.018-.3-.041-.6v0a17.929,17.929,0,0,0-1.113-5.242l0-.009q-.086-.216-.179-.426l-.015-.032q-.087-.2-.181-.387c-.009-.018-.019-.035-.027-.053-.059-.118-.12-.235-.182-.35-.014-.026-.029-.051-.044-.077-.059-.1-.118-.21-.18-.312-.021-.034-.042-.066-.063-.1-.057-.092-.114-.185-.174-.274-.027-.041-.056-.08-.083-.12-.055-.081-.11-.161-.167-.24-.035-.047-.071-.093-.106-.14-.052-.069-.1-.139-.158-.207s-.088-.105-.132-.158-.1-.117-.147-.175-.106-.116-.159-.174-.088-.1-.133-.145c-.062-.064-.125-.126-.188-.188-.04-.039-.078-.079-.119-.118-.07-.067-.143-.132-.216-.2-.036-.032-.07-.065-.106-.1-.079-.069-.161-.136-.242-.2l-.094-.078c-.087-.07-.177-.138-.267-.205l-.084-.065c-.1-.07-.193-.138-.291-.205l-.076-.053c-.1-.068-.205-.135-.31-.2l-.073-.046c-.105-.066-.214-.129-.324-.192l-.074-.044c-.11-.062-.222-.123-.335-.182l-.079-.042c-.11-.057-.223-.112-.336-.168l-.081-.04-.016-.007-.049-.024c-.106-.05-.214-.1-.322-.146l-.027-.012c-3.122-1.372-7.289-1.934-12.929-2.341-2.064-.15-4.3-.276-6.711-.412h0l-.265-.015c-1.848-.1-3.757-.212-5.812-.341a1.947,1.947,0,0,0-2.066,1.823,1.949,1.949,0,0,0,1.824,2.067c1.519.095,2.955.178,4.346.258a54.032,54.032,0,0,1-5.232,21.8,92.6,92.6,0,0,1-14.627,1.156,89.918,89.918,0,0,1-29.677-4.909,41.639,41.639,0,0,0-4.706-1.306q-.475-.107-.959-.209a70.714,70.714,0,0,0-8.671-1.306l-9.535-.731c-1.216-16.516-18.9-25.22-28.007-28.624.12-2.7.2-5.5.232-8.33l0-.246a1.946,1.946,0,0,0-1.928-1.967h-.021a1.951,1.951,0,0,0-1.948,1.931l0,.244a291.678,291.678,0,0,1-2.727,35.5l0,.028-.014.1c-.048.332-.076.514-.078.528v.006c-.005.037-.01.074-.014.112-.263,2.84-.353,6.136-.355,9.279,0,3.562.107,6.929.206,9.217a4.893,4.893,0,0,0,4.9,4.692h32.7a4.91,4.91,0,0,0,4.9-4.9v-2.944l1.4.107c.989.071,2.193.21,3.488.4l.051.008.016,0a58.3,58.3,0,0,1,9.758,2.2c.465.166.977.342,1.527.525l.025.008c.179.06.363.119.551.18l.029.01.593.188.012,0a93.243,93.243,0,0,0,17.71,3.648l.12.013c.3.033.609.063.917.093l.269.027c.273.026.549.05.825.074l.384.033c.25.021.5.04.756.059l.475.035.7.046.552.033.66.035.608.029.639.026.645.022.631.017.317.009.215,0c.6.011,1.212.019,1.829.019h.027a96.515,96.515,0,0,0,43.283-10.252,9.369,9.369,0,0,0,5.216-8.45v-5.574Q-6232.423-3605.237-6232.429-3605.568Zm-29.184,8.9a57.616,57.616,0,0,0,4.414-20.691c12.354.728,17.74,1.434,19.789,5.682l.027.057.007.015a14.766,14.766,0,0,1,1.036,5.561l-.14.076q-.566.3-1.135.6l-.285.149A94.894,94.894,0,0,1-6261.613-3596.666Zm-76.825-6.72-26.407-2.025c.5-3.729,1.538-12.107,2.131-22.2C-6354.268-3624.287-6339.836-3616.705-6338.438-3603.386Zm102.117,4.066a5.565,5.565,0,0,1-3.053,4.959q-.717.356-1.431.7l-.361.17q-.574.271-1.146.532l-.284.128a93.048,93.048,0,0,1-68.031,3.411,57.413,57.413,0,0,0-8.859-2.122c-2.024-.342-3.964-.591-5.477-.7l-3.489-.268c-.05,0-.1-.005-.149-.005h-.026c-.03,0-.06,0-.089,0s-.067,0-.1.008-.063.008-.1.013l-.093.017-.093.022-.092.027-.088.03c-.032.012-.063.025-.094.039l-.079.035c-.034.017-.067.035-.1.053l-.066.037c-.039.024-.077.05-.114.076l-.044.031c-.052.039-.1.081-.15.125a1.95,1.95,0,0,0-.625,1.429h0v5.048a1.007,1.007,0,0,1-1.006,1.006h-32.7a1.013,1.013,0,0,1-.382-.074,1,1,0,0,1-.623-.887c-.005-.129-.011-.261-.017-.4,0-.016,0-.034,0-.05,0-.112-.01-.227-.014-.344,0-.049,0-.1-.006-.148,0-.09-.007-.18-.01-.272l-.006-.165c0-.093-.007-.186-.011-.281l-.006-.166c0-.1-.006-.2-.01-.294l-.006-.173q-.005-.148-.01-.3l-.006-.182c0-.1-.006-.2-.009-.305,0-.064,0-.127-.005-.192,0-.119-.007-.24-.01-.36,0-.045,0-.09,0-.136,0-.169-.009-.339-.013-.512,0-.048,0-.1,0-.147,0-.124-.006-.249-.009-.375,0-.075,0-.151,0-.226l-.006-.3c0-.086,0-.172,0-.258s0-.186,0-.28l0-.275,0-.273c0-.095,0-.19,0-.285l0-.269,0-.3c0-.087,0-.175,0-.262l0-.3v-.268c0-.1,0-.2,0-.307,0-.084,0-.169,0-.254q0-.622,0-1.252c0-.062,0-.125,0-.187l0-.352,0-.233c0-.115,0-.231,0-.346l0-.228q0-.176.006-.352c0-.077,0-.155,0-.231,0-.115,0-.229.007-.343l.005-.235q0-.173.009-.346l.006-.222q.005-.179.011-.357c0-.064,0-.127.006-.19q.007-.193.014-.385c0-.031,0-.062,0-.093q.027-.692.063-1.368c0-.06.006-.119.009-.179.006-.115.014-.229.02-.343,0-.052.006-.1.01-.154l28.743,2.2h.007l11.269.864a66.627,66.627,0,0,1,8.155,1.233c.3.064.608.13.906.2a38.261,38.261,0,0,1,4.252,1.175,93.919,93.919,0,0,0,30.988,5.136,96.53,96.53,0,0,0,43.678-10.438l.249-.126c.234-.118.468-.235.7-.355v2.324Z" transform="translate(6369.361 3676.474)" fill="#051c1b"/>
    </g>
  </g>
</svg>
