<svg xmlns="http://www.w3.org/2000/svg" width="138.491" height="149.998" viewBox="0 0 138.491 149.998">
  <g id="p4-3" transform="translate(-6940 -4614)">
    <g id="icon-18" transform="translate(6940 4614)">
      <path id="Path_427" data-name="Path 427" d="M1364.885-4656.542v-34.33a10.181,10.181,0,0,0-8.511-10.043l-.413-.069a5.882,5.882,0,0,1-4.488-5.715v-17.046a14.879,14.879,0,0,1,7.48-12.9h-14.96a23.214,23.214,0,0,0-23.213,23.214v6.755a5.883,5.883,0,0,1-4.456,5.707h0a10.181,10.181,0,0,0-8.44,10.032v34.452a10.181,10.181,0,0,0,8.44,10.032h0a5.884,5.884,0,0,1,4.456,5.708v7.271a23.214,23.214,0,0,0,23.213,23.214h14.96a14.879,14.879,0,0,1-7.48-12.9v-17.561a5.881,5.881,0,0,1,4.488-5.715l.413-.069A10.183,10.183,0,0,0,1364.885-4656.542Z" transform="translate(-1300.016 4738.576)" fill="#06cc93"/>
      <path id="Path_428" data-name="Path 428" d="M1386.325-4699.612l-3.813-.656a27.072,27.072,0,0,1,1.165-4.541l3.644,1.3A23.258,23.258,0,0,0,1386.325-4699.612Zm2.478-7.027-3.3-2.016c1.881-3.084,4.643-5.709,8.955-8.513l2.109,3.243C1392.71-4711.418,1390.389-4709.24,1388.8-4706.64Z" transform="translate(-1355.659 4724.057)" fill="#fff"/>
      <path id="Path_429" data-name="Path 429" d="M1500.633-4736.641H1486.7a14.879,14.879,0,0,0-7.48,12.9h10.833c14.245,0,18.055,6.39,18.055,20.635v59.323c0,14.245-3.81,20.634-18.055,20.634h-10.833a14.88,14.88,0,0,0,7.48,12.9h13.928a25.793,25.793,0,0,0,25.793-25.793v-74.8A25.793,25.793,0,0,0,1500.633-4736.641Z" transform="translate(-1427.768 4738.576)" fill="#06cc93"/>
      <g id="Group_214" data-name="Group 214" transform="translate(51.456 1.934)">
        <path id="Path_430" data-name="Path 430" d="M1610.979-4608.806v-5.158h-18.351l.038,5.158Z" transform="translate(-1563.779 4645.173)" fill="#00a371"/>
        <path id="Path_431" data-name="Path 431" d="M1487.479-4290.542h-8.254a14.88,14.88,0,0,0,7.48,12.9h8.254A14.88,14.88,0,0,1,1487.479-4290.542Z" transform="translate(-1479.225 4404.03)" fill="#00a371"/>
        <path id="Path_432" data-name="Path 432" d="M1479.225-4723.745h8.254a14.879,14.879,0,0,1,7.48-12.9H1486.7A14.879,14.879,0,0,0,1479.225-4723.745Z" transform="translate(-1479.225 4736.641)" fill="#00a371"/>
      </g>
      <path id="Path_433" data-name="Path 433" d="M1374.667-4524.12h-31.209a5.158,5.158,0,0,1-5.159-5.159v-25.792a5.158,5.158,0,0,1,5.159-5.159h31.209a5.158,5.158,0,0,1,5.158,5.159v25.792A5.158,5.158,0,0,1,1374.667-4524.12Z" transform="translate(-1322.694 4607.043)" fill="#eebf00"/>
      <path id="Path_434" data-name="Path 434" d="M1374.667-4514.159h-31.209a5.159,5.159,0,0,1-5.159-5.159v-15.476a5.159,5.159,0,0,1,5.159-5.159h31.209a5.158,5.158,0,0,1,5.158,5.159v15.476A5.159,5.159,0,0,1,1374.667-4514.159Z" transform="translate(-1322.694 4591.924)" fill="#ffda44"/>
      <path id="Path_435" data-name="Path 435" d="M1611.091-4552.118h-18.313v42.461a14.247,14.247,0,0,0,9.156,3.321,14.25,14.25,0,0,0,9.156-3.321Z" transform="translate(-1512.433 4600.996)" fill="#00a371"/>
      <path id="Path_436" data-name="Path 436" d="M1601.934-4497.132h0a9.156,9.156,0,0,1-9.156-9.156v-26.567h18.313v26.567A9.156,9.156,0,0,1,1601.934-4497.132Z" transform="translate(-1512.433 4586.633)" fill="#06cc93"/>
      <rect id="Rectangle_85" data-name="Rectangle 85" width="18.313" height="5.158" transform="translate(80.344 53.778)" fill="#00a371"/>
      <rect id="Rectangle_86" data-name="Rectangle 86" width="23.214" height="15.476" transform="translate(78.023 38.302)" fill="#eebf00"/>
      <g id="Group_215" data-name="Group 215" transform="translate(12.162 34.175)">
        <path id="Path_437" data-name="Path 437" d="M1368.962-4606.424l-.412-.068a5.88,5.88,0,0,1-4.018-3.417h-31.625a5.88,5.88,0,0,1-4,3.435h0a10.156,10.156,0,0,0-4.144,1.724h48.322A10.13,10.13,0,0,0,1368.962-4606.424Z" transform="translate(-1324.767 4609.909)" fill="#00a371"/>
        <path id="Path_438" data-name="Path 438" d="M1329.821-4385.845a10.2,10.2,0,0,0,2.859.949h0a5.882,5.882,0,0,1,4.261,4.209h31.09a5.881,5.881,0,0,1,4.286-4.189l.413-.069a10.166,10.166,0,0,0,2.806-.9Z" transform="translate(-1328.535 4442.847)" fill="#00a371"/>
      </g>
      <rect id="Rectangle_87" data-name="Rectangle 87" width="18.055" height="15.476" transform="translate(83.182 38.302)" fill="#ffda44"/>
      <path id="Path_439" data-name="Path 439" d="M1376.09-4534.948v-25.792a7.1,7.1,0,0,0-7.093-7.093h-31.209a7.1,7.1,0,0,0-7.093,7.093v25.792a7.1,7.1,0,0,0,7.093,7.093H1369A7.1,7.1,0,0,0,1376.09-4534.948Zm-41.526,0v-25.792a3.227,3.227,0,0,1,3.224-3.224H1369a3.228,3.228,0,0,1,3.224,3.224v25.792a3.227,3.227,0,0,1-3.224,3.224h-31.209A3.227,3.227,0,0,1,1334.564-4534.948Z" transform="translate(-1317.025 4612.712)"/>
      <rect id="Rectangle_88" data-name="Rectangle 88" width="3.869" height="3.869" transform="translate(87.437 74.67)"/>
      <rect id="Rectangle_89" data-name="Rectangle 89" width="3.869" height="3.869" transform="translate(87.437 66.932)"/>
      <rect id="Rectangle_90" data-name="Rectangle 90" width="3.869" height="3.869" transform="translate(87.437 59.194)"/>
      <path id="Path_440" data-name="Path 440" d="M1358.069-4504.449h11.606v-15.733h-11.606Zm3.869-11.865h3.869v8h-3.869v-8Z" transform="translate(-1337.435 4577.184)"/>
      <path id="Path_441" data-name="Path 441" d="M1449.77-4520.182h-11.607v15.733h11.607Zm-3.869,11.864h-3.869v-8h3.869v8Z" transform="translate(-1397.153 4577.184)"/>
      <rect id="Rectangle_91" data-name="Rectangle 91" width="3.869" height="7.738" transform="translate(0 46.814)"/>
      <rect id="Rectangle_92" data-name="Rectangle 92" width="3.869" height="7.738" transform="translate(0 75.444)"/>
      <rect id="Rectangle_93" data-name="Rectangle 93" width="3.869" height="3.869" transform="translate(34.562 66.932)"/>
      <rect id="Rectangle_94" data-name="Rectangle 94" width="3.869" height="3.869" transform="translate(34.562 59.194)"/>
      <path id="Path_442" data-name="Path 442" d="M1397.517-4707.877h-2.579v-8.64a27.758,27.758,0,0,0-27.727-27.728h-28.888a25.176,25.176,0,0,0-25.148,25.148v6.755a3.942,3.942,0,0,1-2.932,3.815,12.094,12.094,0,0,0-9.964,11.924v34.452a12.092,12.092,0,0,0,9.964,11.923,3.944,3.944,0,0,1,2.932,3.815v7.272a25.176,25.176,0,0,0,25.148,25.148h28.888a27.758,27.758,0,0,0,27.727-27.727v-46.814h2.579v-19.345Zm-3.869,15.476H1374.3v-11.607h19.344Zm-20.892,28.5v14.444c0,7.206-1,11.66-3.255,14.442-2.35,2.9-6.438,4.258-12.865,4.258h-8.9v-15.627a3.938,3.938,0,0,1,2.95-3.82l.334-.056a12.078,12.078,0,0,0,10.128-11.952v-34.33a12.077,12.077,0,0,0-10.128-11.951l-.334-.056a3.938,3.938,0,0,1-2.95-3.82v-15.111h8.9c6.427,0,10.515,1.353,12.865,4.257,2.251,2.782,3.255,7.236,3.255,14.442v.9h-2.321v19.345h2.321Zm-5.545-76.476a23.885,23.885,0,0,1,23.858,23.859v8.64h-14.444v-.9c0-8.152-1.269-13.357-4.116-16.875-3.143-3.884-8.187-5.693-15.873-5.693h-8.75c.022-.151.046-.3.074-.451.012-.062.021-.126.033-.189q.077-.378.175-.75c.016-.06.035-.118.052-.177.053-.188.109-.375.17-.56.029-.085.059-.169.089-.254q.085-.238.179-.473c.035-.086.071-.173.108-.26.068-.159.14-.315.215-.471.037-.076.072-.153.11-.229q.153-.3.323-.6c.014-.025.027-.05.041-.075q.193-.33.407-.649c.044-.066.091-.13.137-.2.1-.147.206-.293.315-.436.057-.076.116-.151.175-.225q.158-.2.324-.393c.062-.072.123-.144.187-.215.124-.139.252-.275.383-.409.054-.055.105-.112.16-.166.187-.187.379-.368.579-.545.033-.029.068-.056.1-.085q.253-.221.519-.432c.072-.057.146-.111.219-.167.146-.111.294-.22.445-.326.082-.058.165-.114.248-.171.064-.042.131-.084.2-.127h13.36Zm-28.888,122.516a21.3,21.3,0,0,1-21.279-21.279v-7.272a7.8,7.8,0,0,0-5.921-7.583l-.138-.03a8.231,8.231,0,0,1-6.837-8.126V-4696.6a8.232,8.232,0,0,1,6.837-8.126l.138-.029a7.806,7.806,0,0,0,5.921-7.584v-6.755a21.3,21.3,0,0,1,21.279-21.279h9.644v0c-.149.169-.292.342-.433.517l-.116.146c-.108.136-.213.274-.316.413-.034.046-.068.091-.1.137-.13.18-.257.36-.379.544l-.061.094q-.153.234-.3.473c-.033.055-.067.11-.1.166q-.139.235-.27.473c-.02.037-.042.073-.061.11-.1.193-.2.388-.3.585-.024.049-.047.1-.071.149-.073.154-.145.311-.213.467-.025.059-.051.116-.075.175-.084.2-.166.4-.241.6l-.005.013c-.077.207-.149.415-.219.625-.02.061-.039.12-.058.181q-.077.245-.147.492c-.016.055-.032.109-.047.166q-.087.319-.161.642c-.009.04-.017.079-.025.119q-.06.27-.111.545c-.012.064-.024.129-.035.2-.032.182-.061.366-.086.55-.006.042-.012.083-.018.125q-.044.333-.074.67c-.006.058-.01.116-.014.174-.014.175-.026.352-.035.527,0,.066-.007.132-.01.2-.009.229-.015.459-.015.691v17.044a7.8,7.8,0,0,0,5.965,7.594l.553.1a8.221,8.221,0,0,1,6.894,8.135v34.33a8.22,8.22,0,0,1-6.894,8.135l-.412.069-.141.028a7.8,7.8,0,0,0-5.965,7.6v17.561c0,.231.006.462.015.69,0,.067.006.132.01.2q.014.265.035.528c0,.057.009.116.014.174.021.224.045.448.075.67.005.042.012.083.018.124.026.185.054.368.086.551.011.065.023.13.035.2q.051.275.111.545c.009.04.017.079.025.119q.074.324.161.642c.015.055.031.11.047.166q.07.248.147.491c.019.061.038.121.058.181.069.209.141.418.219.625a.106.106,0,0,0,.005.013c.076.2.157.4.241.6l.075.174q.1.236.213.468c.024.049.047.1.071.149.1.2.2.392.3.585.02.037.041.073.061.11q.131.238.27.473l.1.166q.145.239.3.473c.02.031.04.062.06.093q.184.277.379.545l.1.137q.155.208.316.413l.116.146c.141.174.284.347.433.517v0Zm28.888,0h-13.36c-.066-.043-.133-.084-.2-.127-.083-.056-.167-.113-.248-.17-.151-.106-.3-.216-.445-.327-.073-.055-.147-.11-.219-.167-.177-.14-.35-.285-.519-.431-.033-.029-.068-.057-.1-.086-.2-.176-.392-.358-.579-.544-.055-.054-.106-.111-.16-.166-.131-.134-.259-.271-.383-.409-.063-.071-.125-.143-.187-.215q-.166-.194-.324-.394c-.059-.074-.118-.149-.175-.224-.109-.144-.213-.289-.315-.437-.045-.065-.093-.129-.137-.2-.142-.213-.278-.429-.407-.649-.014-.025-.027-.05-.041-.075q-.17-.3-.323-.6c-.038-.076-.073-.153-.11-.229-.075-.155-.147-.312-.215-.471-.037-.086-.073-.172-.108-.26-.063-.157-.123-.314-.179-.473-.03-.084-.061-.168-.089-.253-.061-.185-.117-.372-.17-.56-.017-.06-.036-.119-.052-.178q-.1-.371-.175-.749c-.012-.063-.021-.126-.033-.188-.028-.15-.052-.3-.074-.452h8.75c7.687,0,12.73-1.809,15.873-5.693,2.847-3.518,4.116-8.724,4.116-16.876v-6.037a11.039,11.039,0,0,0,7.222,2.684,11.044,11.044,0,0,0,7.222-2.684v13.776A23.885,23.885,0,0,1,1367.21-4617.86Zm23.858-46.041a7.23,7.23,0,0,1-7.222,7.223,7.23,7.23,0,0,1-7.222-7.223v-24.632h14.444Z" transform="translate(-1294.346 4744.245)"/>
    </g>
    <ellipse id="Ellipse_56" data-name="Ellipse 56" cx="34.637" cy="34.637" rx="34.637" ry="34.637" transform="translate(7009.218 4694.724)" fill="#e24c4b"/>
    <path id="Path_910" data-name="Path 910" d="M-4554.554-3515.352a34.739,34.739,0,0,1-34.637,34.637,34.082,34.082,0,0,1-27.06-12.988,34.173,34.173,0,0,0,21.648,7.577,34.739,34.739,0,0,0,34.637-34.637,34.17,34.17,0,0,0-7.577-21.648A34.084,34.084,0,0,1-4554.554-3515.352Z" transform="translate(11633.044 8244.714)" fill="#d1403f"/>
    <path id="Path_911" data-name="Path 911" d="M-4554.537-3480.7a3.4,3.4,0,0,1-4.762,0l-11.04-11.04-11.041,11.04a3.4,3.4,0,0,1-4.763,0,3.4,3.4,0,0,1,0-4.762l11.04-11.041-11.04-11.041a3.4,3.4,0,0,1,0-4.762,3.4,3.4,0,0,1,4.763,0l11.041,11.041,11.04-11.041a3.4,3.4,0,0,1,4.762,0,3.4,3.4,0,0,1,0,4.762l-11.041,11.041,11.041,11.041A3.4,3.4,0,0,1-4554.537-3480.7Z" transform="translate(11614.193 8225.862)" fill="#fff"/>
  </g>
</svg>
