<svg xmlns="http://www.w3.org/2000/svg" width="128.379" height="128.379" viewBox="0 0 128.379 128.379">
  <g id="p4-4" transform="translate(-4646.093 -2216.692)">
    <path id="Path_1145" data-name="Path 1145" d="M-4917.561-3787.521h0v29.955H-4930.4v-17.117A12.838,12.838,0,0,1-4917.561-3787.521Z" transform="translate(9600.028 6014.911)" fill="#eba72e"/>
    <path id="Path_1146" data-name="Path 1146" d="M-4661.561-3757.566H-4674.4v-29.955h0a12.838,12.838,0,0,1,12.838,12.838v17.117Z" transform="translate(9412.497 6014.911)" fill="#eba72e"/>
    <circle id="Ellipse_73" data-name="Ellipse 73" cx="12.838" cy="12.838" r="12.838" transform="translate(4665.35 2253.065)" fill="#f0c6a4"/>
    <circle id="Ellipse_74" data-name="Ellipse 74" cx="12.838" cy="12.838" r="12.838" transform="translate(4729.54 2253.065)" fill="#f0c6a4"/>
    <path id="Path_1147" data-name="Path 1147" d="M-4898.4-3771.521h64.189v51.352a17.117,17.117,0,0,1-17.117,17.117h-29.955a17.117,17.117,0,0,1-17.117-17.117v-51.352Z" transform="translate(9576.587 6003.19)" fill="#f7cca9"/>
    <circle id="Ellipse_75" data-name="Ellipse 75" cx="4.279" cy="4.279" r="4.279" transform="translate(4691.026 2259.484)" fill="#596063"/>
    <circle id="Ellipse_76" data-name="Ellipse 76" cx="4.279" cy="4.279" r="4.279" transform="translate(4720.981 2259.484)" fill="#596063"/>
    <path id="Path_1148" data-name="Path 1148" d="M-4842.4-3595.521h34.234v4.279a8.558,8.558,0,0,1-8.559,8.559h-17.117a8.559,8.559,0,0,1-8.559-8.559v-4.279Z" transform="translate(9535.564 5874.262)" fill="#ed6f6d"/>
    <path id="Path_1149" data-name="Path 1149" d="M-4877.372-3502.683h-17.117v-12.838h-25.676v12.838h-17.117a17.117,17.117,0,0,0-17.117,17.117v12.838h94.145v-12.838A17.117,17.117,0,0,0-4877.372-3502.683Z" transform="translate(9617.609 5815.659)" fill="#f0c6a4"/>
    <path id="Path_1150" data-name="Path 1150" d="M-4714.4-3638.081a12.83,12.83,0,0,1,6.576-11.206,8.559,8.559,0,0,1,6.791-10.019,8.559,8.559,0,0,1,9.974,6.573,8.556,8.556,0,0,1,10.567,5.9,8.557,8.557,0,0,1-2.575,8.756A8.557,8.557,0,0,1-4682.3-3626a8.557,8.557,0,0,1-8.756,2.575,8.558,8.558,0,0,1-10.192,6.528,8.559,8.559,0,0,1-6.573-9.974A12.831,12.831,0,0,1-4714.4-3638.081Z" transform="translate(9441.799 5921.102)" fill="#6ed2f0"/>
    <path id="Path_1151" data-name="Path 1151" d="M-5007.1-3624.595a4.282,4.282,0,0,1,4.06-2.926h5.475l-4.279,12.838v8.559l12.838,17.117v34.234h-17.117v-29.955l-4.279-12.838v-17.117Z" transform="translate(9658.632 5897.704)" fill="#f7cca9"/>
    <path id="Path_1152" data-name="Path 1152" d="M-4608.306-3624.595a4.283,4.283,0,0,0-4.06-2.926h-5.475l4.279,12.838v8.559l-12.838,17.117v34.234h17.117v-29.955l4.279-12.838v-17.117Z" transform="translate(9377.335 5897.704)" fill="#f7cca9"/>
    <path id="Path_1153" data-name="Path 1153" d="M-4936.165-3638.081a12.831,12.831,0,0,0-6.576-11.206,8.559,8.559,0,0,0-6.791-10.019,8.558,8.558,0,0,0-9.974,6.573,8.557,8.557,0,0,0-10.568,5.9,8.557,8.557,0,0,0,2.576,8.756,8.557,8.557,0,0,0-.764,12.077,8.558,8.558,0,0,0,8.756,2.575,8.558,8.558,0,0,0,10.192,6.528,8.559,8.559,0,0,0,6.573-9.974,12.832,12.832,0,0,0,6.576-11.207Z" transform="translate(9629.33 5921.102)" fill="#6ed2f0"/>
    <circle id="Ellipse_77" data-name="Ellipse 77" cx="4.279" cy="4.279" r="4.279" transform="translate(4669.629 2274.462)" fill="#60b8d1"/>
    <circle id="Ellipse_78" data-name="Ellipse 78" cx="4.279" cy="4.279" r="4.279" transform="translate(4652.512 2244.507)" fill="#6ed2f0"/>
    <circle id="Ellipse_79" data-name="Ellipse 79" cx="4.279" cy="4.279" r="4.279" transform="translate(4742.377 2274.462)" fill="#60b8d1"/>
    <circle id="Ellipse_80" data-name="Ellipse 80" cx="4.279" cy="4.279" r="4.279" transform="translate(4759.495 2229.529)" fill="#6ed2f0"/>
    <path id="Path_1154" data-name="Path 1154" d="M-4869.372-3810.962v8.559h-59.91c-.161,0-.324,0-.484-.008q-.5-.012-.987-.056a17.115,17.115,0,0,1-15.646-17.053h68.469A8.558,8.558,0,0,1-4869.372-3810.962Z" transform="translate(9611.749 6038.352)" fill="#ffb632"/>
    <g id="Group_392" data-name="Group 392" transform="translate(4673.909 2218.831)">
      <path id="Path_1155" data-name="Path 1155" d="M-4855.142-3802.4h-11.171a.029.029,0,0,0-.014-.011,22.205,22.205,0,0,1-2.546-2.543,22.867,22.867,0,0,1-5.526-14.563h4.279a18.516,18.516,0,0,0,4.5,11.784,14.043,14.043,0,0,0,9.989,5.322C-4855.466-3802.406-4855.305-3802.4-4855.142-3802.4Z" transform="translate(4885.097 3819.521)" fill="#eba72e"/>
      <path id="Path_1156" data-name="Path 1156" d="M-4815.142-3802.4h-11.171a.029.029,0,0,0-.014-.011,22.205,22.205,0,0,1-2.546-2.543,22.867,22.867,0,0,1-5.526-14.563h4.279a18.516,18.516,0,0,0,4.5,11.784,14.043,14.043,0,0,0,9.989,5.322C-4815.466-3802.406-4815.305-3802.4-4815.142-3802.4Z" transform="translate(4855.795 3819.521)" fill="#eba72e"/>
      <path id="Path_1157" data-name="Path 1157" d="M-4775.142-3802.4h-11.171a.029.029,0,0,0-.014-.011,22.205,22.205,0,0,1-2.546-2.543,22.867,22.867,0,0,1-5.526-14.563h4.279a18.516,18.516,0,0,0,4.5,11.784,14.043,14.043,0,0,0,9.989,5.322c.163.008.324.011.487.011Z" transform="translate(4826.494 3819.521)" fill="#eba72e"/>
      <path id="Path_1158" data-name="Path 1158" d="M-4735.142-3802.4h-11.171a.029.029,0,0,0-.014-.011,22.205,22.205,0,0,1-2.546-2.543,22.867,22.867,0,0,1-5.526-14.563h4.279a18.516,18.516,0,0,0,4.5,11.784,14.152,14.152,0,0,0,9.628,5.3c.281.021.564.032.848.032Z" transform="translate(4797.192 3819.521)" fill="#eba72e"/>
      <path id="Path_1159" data-name="Path 1159" d="M-4895.142-3802.4h-10.7c-.161,0-.324,0-.484-.008a22.415,22.415,0,0,1-2.549-2.546,22.867,22.867,0,0,1-5.526-14.563h4.279a18.516,18.516,0,0,0,4.5,11.784,14.043,14.043,0,0,0,9.989,5.322C-4895.466-3802.406-4895.305-3802.4-4895.142-3802.4Z" transform="translate(4914.399 3819.521)" fill="#eba72e"/>
      <path id="Path_1160" data-name="Path 1160" d="M-4699.421-3803.027v.623h-7.229l-.037-.032a23.478,23.478,0,0,1-7.711-17.085h4.279C-4710.12-3812.284-4705.273-3804.889-4699.421-3803.027Z" transform="translate(4767.89 3819.521)" fill="#eba72e"/>
    </g>
    <path id="Path_1161" data-name="Path 1161" d="M-4872.259-3703.242h12.838a2.14,2.14,0,0,0,2.14-2.14,2.14,2.14,0,0,0-2.14-2.14h-12.838a2.14,2.14,0,0,0-2.14,2.14A2.14,2.14,0,0,0-4872.259-3703.242Z" transform="translate(9559.006 5956.307)"/>
    <path id="Path_1162" data-name="Path 1162" d="M-4744.259-3703.242h12.838a2.14,2.14,0,0,0,2.14-2.14,2.14,2.14,0,0,0-2.14-2.14h-12.838a2.14,2.14,0,0,0-2.14,2.14A2.14,2.14,0,0,0-4744.259-3703.242Z" transform="translate(9465.24 5956.307)"/>
    <path id="Path_1163" data-name="Path 1163" d="M-4851.98-3675.521a6.419,6.419,0,0,0-6.419,6.419,6.419,6.419,0,0,0,6.419,6.419,6.419,6.419,0,0,0,6.419-6.419A6.426,6.426,0,0,0-4851.98-3675.521Zm0,8.559a2.14,2.14,0,0,1-2.14-2.14,2.14,2.14,0,0,1,2.14-2.14,2.14,2.14,0,0,1,2.14,2.14A2.142,2.142,0,0,1-4851.98-3666.962Z" transform="translate(9547.285 5932.866)"/>
    <path id="Path_1164" data-name="Path 1164" d="M-4789.561-3633.381a2.14,2.14,0,0,0-2.14-2.14,2.14,2.14,0,0,0-2.14,2.14,2.14,2.14,0,0,1-2.14,2.14,2.14,2.14,0,0,1-2.14-2.14,2.14,2.14,0,0,0-2.14-2.14,2.14,2.14,0,0,0-2.14,2.14,6.419,6.419,0,0,0,6.419,6.419A6.419,6.419,0,0,0-4789.561-3633.381Z" transform="translate(9506.263 5903.564)"/>
    <path id="Path_1165" data-name="Path 1165" d="M-4739.98-3662.683a6.419,6.419,0,0,0,6.419-6.419,6.419,6.419,0,0,0-6.419-6.419,6.419,6.419,0,0,0-6.419,6.419A6.426,6.426,0,0,0-4739.98-3662.683Zm0-8.559a2.14,2.14,0,0,1,2.14,2.14,2.14,2.14,0,0,1-2.14,2.14,2.14,2.14,0,0,1-2.14-2.14A2.142,2.142,0,0,1-4739.98-3671.242Z" transform="translate(9465.24 5932.866)"/>
    <path id="Path_1166" data-name="Path 1166" d="M-4890.4-3571.521h4.279v4.279h-4.279Z" transform="translate(9570.727 5856.681)"/>
    <path id="Path_1167" data-name="Path 1167" d="M-4938.4-3555.521h4.279v4.279h-4.279Z" transform="translate(9605.889 5844.96)"/>
    <path id="Path_1168" data-name="Path 1168" d="M-4634.4-3555.521h4.279v4.279h-4.279Z" transform="translate(9383.195 5844.96)"/>
    <path id="Path_1169" data-name="Path 1169" d="M-4682.4-3571.521h4.279v4.279h-4.279Z" transform="translate(9418.357 5856.681)"/>
    <path id="Path_1170" data-name="Path 1170" d="M-4931.98-3606.683a6.419,6.419,0,0,0,6.419-6.419,6.419,6.419,0,0,0-6.419-6.419,6.419,6.419,0,0,0-6.419,6.419A6.426,6.426,0,0,0-4931.98-3606.683Zm0-8.559a2.14,2.14,0,0,1,2.14,2.14,2.14,2.14,0,0,1-2.14,2.14,2.14,2.14,0,0,1-2.14-2.14A2.142,2.142,0,0,1-4931.98-3615.242Z" transform="translate(9605.889 5891.843)"/>
    <path id="Path_1171" data-name="Path 1171" d="M-4995.98-3718.683a6.419,6.419,0,0,0,6.419-6.419,6.419,6.419,0,0,0-6.419-6.419,6.419,6.419,0,0,0-6.419,6.419A6.426,6.426,0,0,0-4995.98-3718.683Zm0-8.559a2.14,2.14,0,0,1,2.14,2.14,2.14,2.14,0,0,1-2.14,2.14,2.14,2.14,0,0,1-2.14-2.14A2.142,2.142,0,0,1-4995.98-3727.242Z" transform="translate(9652.771 5973.888)"/>
    <path id="Path_1172" data-name="Path 1172" d="M-4659.98-3619.521a6.419,6.419,0,0,0-6.419,6.419,6.419,6.419,0,0,0,6.419,6.419,6.419,6.419,0,0,0,6.419-6.419A6.426,6.426,0,0,0-4659.98-3619.521Zm0,8.559a2.14,2.14,0,0,1-2.14-2.14,2.14,2.14,0,0,1,2.14-2.14,2.14,2.14,0,0,1,2.14,2.14A2.142,2.142,0,0,1-4659.98-3610.962Z" transform="translate(9406.637 5891.843)"/>
    <path id="Path_1173" data-name="Path 1173" d="M-4589.561-3781.1a6.419,6.419,0,0,0-6.419-6.419,6.419,6.419,0,0,0-6.419,6.419,6.419,6.419,0,0,0,6.419,6.419A6.426,6.426,0,0,0-4589.561-3781.1Zm-8.559,0a2.14,2.14,0,0,1,2.14-2.14,2.14,2.14,0,0,1,2.14,2.14,2.14,2.14,0,0,1-2.14,2.14A2.142,2.142,0,0,1-4598.12-3781.1Z" transform="translate(9359.754 6014.911)"/>
    <path id="Path_1174" data-name="Path 1174" d="M-4893.433-3771.781a6.413,6.413,0,0,0-6.089-4.388h-5.483a10.709,10.709,0,0,0-2.162-1.257c.018-.294.029-.588.029-.883a14.922,14.922,0,0,0-4.279-10.468v-15.208A15.007,15.007,0,0,0-4920-3817.53a10.711,10.711,0,0,0-10.67-9.991h-68.469a2.14,2.14,0,0,0-2.14,2.14,19.207,19.207,0,0,0,6.171,14.111,14.962,14.962,0,0,0-1.892,7.286v15.208a14.924,14.924,0,0,0-4.279,10.468c0,.3.012.593.03.889a10.8,10.8,0,0,0-2.159,1.251h-5.485a6.413,6.413,0,0,0-6.09,4.389l-3.3,9.912a2.121,2.121,0,0,0-.11.676v17.117a2.155,2.155,0,0,0,.11.677l4.169,12.509v29.607a2.14,2.14,0,0,0,2.14,2.14h115.541a2.14,2.14,0,0,0,2.14-2.14v-29.607l4.169-12.509a2.142,2.142,0,0,0,.11-.677v-17.117a2.137,2.137,0,0,0-.11-.676Zm-21.834,34.982a2.136,2.136,0,0,0-.428,1.284v4.149a19.317,19.317,0,0,0-8.559-2.009h-14.978v-8.559a19.282,19.282,0,0,0,7.593-1.556,10.693,10.693,0,0,0,14.383,4.668,10.693,10.693,0,0,0,4.96-5.288q.438.036.879.036a10.794,10.794,0,0,0,1.708-.138Zm-77.883,0-5.56-7.413a10.794,10.794,0,0,0,1.708.138q.439,0,.879-.036a10.693,10.693,0,0,0,14.055,5.58,10.7,10.7,0,0,0,5.289-4.96,19.281,19.281,0,0,0,7.593,1.556v8.559h-14.978a19.317,19.317,0,0,0-8.559,2.009v-4.149A2.142,2.142,0,0,0-4993.151-3736.8Zm-3.852-37.23a6.486,6.486,0,0,1,1.757.244,2.14,2.14,0,0,0,2.638-1.482c.012-.042.022-.084.031-.127a6.419,6.419,0,0,1,7.682-4.837,6.419,6.419,0,0,1,4.889,7.432,2.139,2.139,0,0,0,1.057,2.27,10.7,10.7,0,0,1,4.125,14.553,10.7,10.7,0,0,1-4.125,4.125,2.139,2.139,0,0,0-1.057,2.27,6.419,6.419,0,0,1-5.139,7.483,6.419,6.419,0,0,1-7.432-4.889,2.139,2.139,0,0,0-2.542-1.641c-.042.009-.085.02-.127.031a6.515,6.515,0,0,1-1.757.242,6.416,6.416,0,0,1-6.419-6.413,6.415,6.415,0,0,1,2.178-4.821,2.14,2.14,0,0,0,.189-3.02,2.2,2.2,0,0,0-.189-.189,6.422,6.422,0,0,1-2.169-4.493l1.476-4.426a6.371,6.371,0,0,1,4.935-2.314Zm14.978-32.095h57.771v21.612a10.716,10.716,0,0,0-8.559,10.483c0,.178,0,.358.014.539a15,15,0,0,0-4.978,5.88h-32.866a15,15,0,0,0-4.978-5.88q.014-.272.014-.539a10.716,10.716,0,0,0-8.559-10.483v-21.733a19.339,19.339,0,0,0,2.14.122Zm70.608,32.095a6.416,6.416,0,0,1,6.419,6.415,6.416,6.416,0,0,1-2.176,4.819,2.139,2.139,0,0,0-.19,3.02,2.079,2.079,0,0,0,.19.19,6.418,6.418,0,0,1,.575,9.057,6.417,6.417,0,0,1-6.569,1.932,2.14,2.14,0,0,0-2.642,1.476c-.012.043-.023.087-.033.132a6.419,6.419,0,0,1-7.64,4.9,6.419,6.419,0,0,1-4.934-7.491,2.14,2.14,0,0,0-1.055-2.273,10.7,10.7,0,0,1-4.122-14.557,10.7,10.7,0,0,1,4.122-4.122,2.14,2.14,0,0,0,1.055-2.273,6.419,6.419,0,0,1,5.08-7.524,6.419,6.419,0,0,1,7.494,4.935,2.14,2.14,0,0,0,2.543,1.64c.044-.01.088-.02.132-.033A6.428,6.428,0,0,1-4911.417-3774.03Zm-31.939-49.212h6.386a19.253,19.253,0,0,0,6.932,12.762A15,15,0,0,1-4943.355-3823.242Zm2.643,12.764a15,15,0,0,1-13.341-12.764h6.385A19.243,19.243,0,0,0-4940.712-3810.478Zm-10.7,0a15,15,0,0,1-13.341-12.764h6.385A19.243,19.243,0,0,0-4951.411-3810.478Zm-10.7,0a15,15,0,0,1-13.341-12.764h6.385A19.243,19.243,0,0,0-4962.109-3810.478Zm-10.7,0a15,15,0,0,1-13.341-12.764h6.385A19.243,19.243,0,0,0-4972.807-3810.478Zm33.575,49.286a6.426,6.426,0,0,1-6.419,6.419h-17.117a6.426,6.426,0,0,1-6.419-6.419v-2.14h29.955Zm-29.955,14.978a14.994,14.994,0,0,1-6.443-1.454c.015-.227.024-.455.024-.686q0-.267-.014-.539a15.008,15.008,0,0,0,4.722-5.356,10.673,10.673,0,0,0,8.13,3.756h17.117a10.675,10.675,0,0,0,8.131-3.756,15.009,15.009,0,0,0,4.722,5.357q-.015.27-.015.539c0,.231.01.459.024.686a14.994,14.994,0,0,1-6.443,1.454Zm56.892-32.058a10.8,10.8,0,0,0-7.68-6.234v-4.285a10.716,10.716,0,0,1,8.559,10.483Q-4911.857-3778.309-4912.3-3778.273Zm-3.4-25.712v12.146a14.827,14.827,0,0,0-4.279-1.293v-19.412A10.721,10.721,0,0,1-4915.7-3803.985Zm-8.559-12.838v4.978a14.971,14.971,0,0,1-8.4-11.4h1.984A6.426,6.426,0,0,1-4924.254-3816.823Zm-72.6-6.419h6.388a19.246,19.246,0,0,0,6.956,12.764A15.008,15.008,0,0,1-4996.85-3823.242Zm8.406,16.013v14.1a14.827,14.827,0,0,0-4.279,1.293v-12.146a10.692,10.692,0,0,1,1.094-4.716A19.191,19.191,0,0,0-4988.444-3807.229Zm0,18.437v4.285a10.792,10.792,0,0,0-7.68,6.235q-.439-.036-.879-.036A10.716,10.716,0,0,1-4988.444-3788.792Zm-8.559,85.371h-12.838v-27.815a2.138,2.138,0,0,0-.11-.677l-4.169-12.509v-16.422l3.193-9.582a2.139,2.139,0,0,1,2.03-1.464h2.506l-3.34,10.022a2.151,2.151,0,0,0-.11.677v8.559a2.137,2.137,0,0,0,.428,1.284L-4997-3734.8Zm4.279-22.989a14.8,14.8,0,0,1,8.559-2.687h17.117a2.14,2.14,0,0,0,2.14-2.14v-10.7h21.4v10.7a2.14,2.14,0,0,0,2.14,2.14h17.117a14.8,14.8,0,0,1,8.559,2.687v22.989h-77.027Zm98.424-18.012-4.169,12.509a2.14,2.14,0,0,0-.11.677v27.815h-12.838V-3734.8l12.41-16.547a2.142,2.142,0,0,0,.428-1.284v-8.559a2.14,2.14,0,0,0-.11-.677l-2.039-6.118a10.635,10.635,0,0,0-.887-3.9h2.092a2.141,2.141,0,0,1,2.03,1.463l3.193,9.583Z" transform="translate(9664.492 6044.212)"/>
  </g>
</svg>
