<svg xmlns="http://www.w3.org/2000/svg" width="128.63" height="128.379" viewBox="0 0 128.63 128.379">
  <g id="p4-5" transform="translate(0)">
    <path id="Path_1175" data-name="Path 1175" d="M-4298.559-3550.516h94.145a4.279,4.279,0,0,1,4.279,4.279h0a4.279,4.279,0,0,1-4.279,4.279h-94.145a4.279,4.279,0,0,1-4.279-4.279h0A4.279,4.279,0,0,1-4298.559-3550.516Z" transform="translate(4304.979 3633.962)" fill="#2b7cd4"/>
    <path id="Path_1176" data-name="Path 1176" d="M-4260.14-3484.282l-10.7-34.234h85.586l-10.7,34.234Z" transform="translate(4281.538 3610.521)" fill="#3ea7ff"/>
    <path id="Path_1177" data-name="Path 1177" d="M-4042.464-3622.987v2.14h-36.374v-8.559a8.56,8.56,0,0,1,8.559-8.559l.42-1.674a9.087,9.087,0,0,1,11.019-6.614,9.087,9.087,0,0,1,6.794,7.531l.415,2.9.61,4.279a8.557,8.557,0,0,1,8.559,8.554Z" transform="translate(4140.889 3704.294)" fill="#65dcff"/>
    <path id="Path_1178" data-name="Path 1178" d="M-4144.883-3841.678l-14.978,4.279-4.279-6.419h-10.7v-2.14a8.559,8.559,0,0,1,8.559-8.559H-4162a26.131,26.131,0,0,1,14.071,9.029l.088.11Z" transform="translate(4211.213 3856.656)" fill="#ffc7cc"/>
    <path id="Path_1179" data-name="Path 1179" d="M-4110.838-3806.516h8.559v68.469h-8.559Z" transform="translate(4164.331 3821.494)" fill="#d9501a"/>
    <path id="Path_1180" data-name="Path 1180" d="M-4162.982-3818.531l.164-.164a6.419,6.419,0,0,1,9.078,0,6.42,6.42,0,0,1,1.88,4.539v65.81h-14.978v-34.234l1.988-31.812A6.42,6.42,0,0,1-4162.982-3818.531Z" transform="translate(4205.353 3831.792)" fill="#e05e1d"/>
    <path id="Path_1181" data-name="Path 1181" d="M-4194.982-3818.531l.164-.164a6.419,6.419,0,0,1,9.078,0,6.42,6.42,0,0,1,1.88,4.539v65.81h-14.978v-34.234l1.988-31.812A6.42,6.42,0,0,1-4194.982-3818.531Z" transform="translate(4228.794 3831.792)" fill="#ff6f35"/>
    <g id="Group_393" data-name="Group 393" transform="translate(19.258 2.14)">
      <path id="Path_1182" data-name="Path 1182" d="M-4210-3818.237a4.274,4.274,0,0,1-4.268,4.279h-4.291a4.279,4.279,0,0,1-4.279-4.279,4.279,4.279,0,0,1,4.279-4.279h4.279a4.278,4.278,0,0,1,4.279,4.277Z" transform="translate(4227.117 3831.075)" fill="#ffc7cc"/>
      <path id="Path_1183" data-name="Path 1183" d="M-4221.721-3786.237a4.274,4.274,0,0,1-4.268,4.279h-8.57a4.279,4.279,0,0,1-4.279-4.279,4.279,4.279,0,0,1,4.279-4.279H-4226a4.278,4.278,0,0,1,4.279,4.277Z" transform="translate(4238.838 3807.633)" fill="#ffc7cc"/>
      <path id="Path_1184" data-name="Path 1184" d="M-4215.86-3754.237a4.274,4.274,0,0,1-4.268,4.279h-6.43a4.279,4.279,0,0,1-4.279-4.279,4.279,4.279,0,0,1,4.279-4.279h6.419a4.278,4.278,0,0,1,4.279,4.277Z" transform="translate(4232.978 3784.192)" fill="#ffc7cc"/>
      <path id="Path_1185" data-name="Path 1185" d="M-4210-3722.237a4.274,4.274,0,0,1-4.268,4.279h-4.291a4.279,4.279,0,0,1-4.279-4.279,4.279,4.279,0,0,1,4.279-4.279h4.279a4.278,4.278,0,0,1,4.279,4.277Z" transform="translate(4227.117 3760.75)" fill="#ffc7cc"/>
      <path id="Path_1186" data-name="Path 1186" d="M-4035.95-3818.237v29.955l-36.374-4.279-10.7,4.279h-23.536a4.279,4.279,0,0,1-4.279-4.279,4.279,4.279,0,0,1,4.279-4.279,4.279,4.279,0,0,1-4.279-4.279,4.279,4.279,0,0,1,4.279-4.279,4.279,4.279,0,0,1-4.279-4.279,4.279,4.279,0,0,1,4.279-4.279,4.279,4.279,0,0,1-4.279-4.279,4.279,4.279,0,0,1,4.279-4.279h23.536l10.7,4.279Z" transform="translate(4145.072 3831.075)" fill="#ffc7cc"/>
      <path id="Path_1187" data-name="Path 1187" d="M-4048.883-3841.678l-10.7-4.279h-19.257a8.551,8.551,0,0,1,8.544-8.559H-4066a26.131,26.131,0,0,1,14.071,9.029l.53.663Z" transform="translate(4121.631 3854.516)" fill="#ffc7cc"/>
    </g>
    <path id="Path_1188" data-name="Path 1188" d="M-4263.3-3622.516v19.257h-23.536a8.557,8.557,0,0,1,8.554-8.559h0a10.7,10.7,0,0,1,10.7-10.7Z" transform="translate(4293.258 3686.706)" fill="#65dcff"/>
    <path id="Path_1189" data-name="Path 1189" d="M-4110.838-3573.958h6.419l2.14,19.257.964.964a6.324,6.324,0,0,0,8.944,0,6.313,6.313,0,0,0,.79-.964l-7.335-23.839a5.633,5.633,0,0,0-5.384-3.977,5.634,5.634,0,0,0-5.465,4.267Z" transform="translate(4164.331 3657.404)" fill="#f2e368"/>
    <path id="Path_1190" data-name="Path 1190" d="M-4065.244-3577.223l6.93,22.522a6.052,6.052,0,0,1,8.559,0h0l-7.67-24.928a4.09,4.09,0,0,0-3.909-2.887,4.09,4.09,0,0,0-4.09,4.09A4.091,4.091,0,0,0-4065.244-3577.223Z" transform="translate(4131.063 3657.404)" fill="#eacf4d"/>
    <path id="Path_1191" data-name="Path 1191" d="M-3936.419-3494.516a6.419,6.419,0,0,0-6.419,6.419,6.419,6.419,0,0,0,6.419,6.419A6.419,6.419,0,0,0-3930-3488.1,6.426,6.426,0,0,0-3936.419-3494.516Zm0,8.559a2.14,2.14,0,0,1-2.14-2.14,2.14,2.14,0,0,1,2.14-2.14,2.14,2.14,0,0,1,2.14,2.14A2.142,2.142,0,0,1-3936.419-3485.958Z" transform="translate(4041.263 3592.94)"/>
    <path id="Path_1192" data-name="Path 1192" d="M-3888.419-3534.516a6.419,6.419,0,0,0-6.419,6.419,6.419,6.419,0,0,0,6.419,6.419A6.419,6.419,0,0,0-3882-3528.1,6.426,6.426,0,0,0-3888.419-3534.516Zm0,8.559a2.14,2.14,0,0,1-2.14-2.14,2.14,2.14,0,0,1,2.14-2.14,2.14,2.14,0,0,1,2.14,2.14A2.142,2.142,0,0,1-3888.419-3525.958Z" transform="translate(4006.101 3622.242)"/>
    <path id="Path_1193" data-name="Path 1193" d="M-4218.587-3823.988a2.143,2.143,0,0,0-1.044.138l-10.315,4.126h-23.125a2.14,2.14,0,0,1-2.14-2.14,2.14,2.14,0,0,1,2.14-2.14h2.14a2.139,2.139,0,0,0,2.14-2.14,2.139,2.139,0,0,0-2.14-2.14h-2.14a2.14,2.14,0,0,1-2.14-2.14,2.14,2.14,0,0,1,2.14-2.14h2.14a2.139,2.139,0,0,0,2.14-2.14,2.139,2.139,0,0,0-2.14-2.14h-2.14a2.14,2.14,0,0,1-2.14-2.14,2.14,2.14,0,0,1,2.14-2.14h2.14a2.139,2.139,0,0,0,2.14-2.14,2.139,2.139,0,0,0-2.14-2.14h-2.14a2.14,2.14,0,0,1-2.14-2.14,2.14,2.14,0,0,1,2.14-2.14h17.117v-4.279h-10.33a6.428,6.428,0,0,1,6.05-4.279h4.01a24.136,24.136,0,0,1,12.668,8.226l3.048,3.809a2.138,2.138,0,0,0,1.67.8h36.374v-4.279h-35.345l-2.405-3.006a28.435,28.435,0,0,0-15.222-9.768,2.137,2.137,0,0,0-.519-.064h-4.279a10.707,10.707,0,0,0-9.536,5.858,28.219,28.219,0,0,0-11.342-5.794,2.137,2.137,0,0,0-.519-.064h-4.279a10.715,10.715,0,0,0-10.558,8.978,6.391,6.391,0,0,0-2.28-.42h-4.279a6.416,6.416,0,0,0-6.419,6.411,6.416,6.416,0,0,0,.454,2.374,6.415,6.415,0,0,0-4.509,7.873,6.413,6.413,0,0,0,2.745,3.729,6.406,6.406,0,0,0,2.14,8.559,6.414,6.414,0,0,0,2.431,8.74,6.409,6.409,0,0,0,3.159.829h.13l-.125,2.006c0,.044,0,.089,0,.133v12.838h-2.14a12.859,12.859,0,0,0-12.689,10.884,10.727,10.727,0,0,0-8.549,8.688,6.418,6.418,0,0,0-4.123,8.086,6.417,6.417,0,0,0,6.1,4.437h2.707l10.229,32.733a2.139,2.139,0,0,0,2.042,1.5h64.189a2.14,2.14,0,0,0,2.042-1.5l10.229-32.733h2.706a6.419,6.419,0,0,0,6.419-6.419,6.419,6.419,0,0,0-6.419-6.419,10.715,10.715,0,0,0-8.819-10.533l-.786-5.5a11.228,11.228,0,0,0-12.7-9.527,11.227,11.227,0,0,0-9.3,8.392l-.048.19a10.65,10.65,0,0,0-4.714,2.009v-19.262h17.117a2.141,2.141,0,0,0,.795-.153l10.193-4.077,35.834,4.216.5-4.25Zm-60.16,10.75.138-2.21a6.413,6.413,0,0,0,6.279-6.544,6.413,6.413,0,0,0-1.638-4.15,6.424,6.424,0,0,0,0-8.559,6.4,6.4,0,0,0,0-8.559,6.41,6.41,0,0,0,1.434-5.9,4.281,4.281,0,0,1,4.481,4.069c0,.069,0,.137,0,.206v63.67h-10.7Zm-6.419-15.044a2.14,2.14,0,0,1-2.14-2.14,2.14,2.14,0,0,1,2.14-2.14h6.419a2.139,2.139,0,0,1,2.14,2.14,2.139,2.139,0,0,1-2.14,2.14Zm20.328-20.744a4.282,4.282,0,0,1,5.213,3.08,4.286,4.286,0,0,1,.135,1.066v63.67h-4.279v-63.67A8.511,8.511,0,0,0-4264.839-3849.025Zm-1.071-9.211h4.01a23.945,23.945,0,0,1,8.67,4.283,6.413,6.413,0,0,0-4.98,2.571,8.56,8.56,0,0,0-9.843-.908,8.56,8.56,0,0,0-4.07-1.141A6.431,6.431,0,0,1-4265.91-3858.237Zm-17.117,8.559h4.279a2.139,2.139,0,0,1,2.14,2.14,2.139,2.139,0,0,1-2.14,2.14h-4.279a2.14,2.14,0,0,1-2.14-2.14A2.14,2.14,0,0,1-4283.027-3849.678Zm-4.279,8.559h8.559a2.139,2.139,0,0,1,2.14,2.14,2.139,2.139,0,0,1-2.14,2.14h-8.559a2.14,2.14,0,0,1-2.14-2.14A2.14,2.14,0,0,1-4287.306-3841.12Zm2.14,19.257a2.142,2.142,0,0,1,2.14-2.14h4.279a2.139,2.139,0,0,1,2.14,2.14,2.139,2.139,0,0,1-2.14,2.14h-4.279A2.142,2.142,0,0,1-4285.167-3821.863Zm-10.7,36.374h8.559v-4.279h-6.148a8.574,8.574,0,0,1,8.288-6.419h2.14v14.978h-18.89A6.431,6.431,0,0,1-4295.865-3785.489Zm-8.559,12.838a2.14,2.14,0,0,1-2.14-2.14,2.14,2.14,0,0,1,2.14-2.14h47.072a5.023,5.023,0,0,1,4.97,4.279Zm61.74-12.046a1.95,1.95,0,0,1,2.728-.41,1.952,1.952,0,0,1,.706,1l6.286,20.43a8.3,8.3,0,0,0-.85-.043,8.189,8.189,0,0,0-3.063.59l-6.1-19.829h0A1.933,1.933,0,0,1-4242.684-3784.7Zm-8.129-.792a3.476,3.476,0,0,1,3.339,2.466l7,22.74a4.187,4.187,0,0,1-5.838-.08l-.434-.433-1.348-12.131a9.3,9.3,0,0,0-6.609-7.9l.5-2.014A3.489,3.489,0,0,1-4250.813-3785.489Zm23.984,47.072h-61.043l-9.361-29.955h45.337l.978,8.8a2.139,2.139,0,0,0,.614,1.277l.964.964a8.43,8.43,0,0,0,5.976,2.479q.42,0,.844-.042a8.429,8.429,0,0,0,6.043-3.495,3.9,3.9,0,0,1,5.43.093,2.14,2.14,0,0,0,3.026,0,2.14,2.14,0,0,0,.532-2.142l-2.44-7.93h12.462Zm18.69-36.374a2.142,2.142,0,0,1-2.14,2.14h-20.968l-1.316-4.279h22.285A2.142,2.142,0,0,1-4208.139-3774.791Zm-32.095-19.257a2.14,2.14,0,0,0,2.076-1.62l.418-1.675a6.948,6.948,0,0,1,8.426-5.056,6.949,6.949,0,0,1,5.193,5.758l.676,4.732h-3.952v4.279h6.419a6.426,6.426,0,0,1,6.419,6.419h-19.322l-1.28-4.161a6.231,6.231,0,0,0-7.789-4.121,6.231,6.231,0,0,0-2.7,1.679,7.7,7.7,0,0,0-.94-.714A6.427,6.427,0,0,1-4240.234-3794.047Zm-10.7,4.284a7.753,7.753,0,0,0-4.279,1.361v-27.41a6.383,6.383,0,0,0,2.14.368h2.14Z" transform="translate(4310.844 3862.516)"/>
  </g>
</svg>
