<svg xmlns="http://www.w3.org/2000/svg" width="134.362" height="136.938" viewBox="0 0 134.362 136.938">
  <g id="p4-6" transform="translate(0 0)">
    <g id="Group_395" data-name="Group 395" transform="translate(2.675 2.672)">
      <path id="Path_1194" data-name="Path 1194" d="M-3424.344-3805.982l0,48.751h12.529c0-16.161.185-32.294.185-48.629.6-10.249,9.107-11.192,12.434-5.164a14.444,14.444,0,0,1,3.348-5.39,14.015,14.015,0,0,1,5.907-3.6C-3399.354-3835.49-3424.613-3829.3-3424.344-3805.982Z" transform="translate(3424.348 3828.524)" fill="#f0f0f0"/>
      <path id="Path_1195" data-name="Path 1195" d="M-3332.618-3789.412a15.43,15.43,0,0,0,3.243,15.453l20.476-20.82a14.605,14.605,0,0,0-14.464-3.621,13.984,13.984,0,0,0-4.951,2.709q-.493.417-.956.888A14.467,14.467,0,0,0-3332.618-3789.412Z" transform="translate(3357.765 3806.911)" fill="#d8d8e7"/>
      <path id="Path_1196" data-name="Path 1196" d="M-3401.406-3561.967h-22.941v60.3h22.941Z" transform="translate(3424.347 3633.259)" fill="#00baf7"/>
      <g id="Group_394" data-name="Group 394" transform="translate(32.341 50.422)">
        <path id="Path_1197" data-name="Path 1197" d="M-3298.942-3616.721c-6.525,7.176-5.71,10.643,1,17.038l20.639,19.659.057,17.8h44.333l.028-17.8,20.638-19.659c6.711-6.392,7.531-9.864,1-17.038l-16.82-19.412c-2.893-3.338-6.413-4.329-9.212-3.679a7.307,7.307,0,0,1,.492,2.646,7.317,7.317,0,0,1-3.041,5.944,19.793,19.793,0,0,1,4.315,9.031l11.9,13.729-18.609,15.216q-12.872.018-25.744,0l-18.609-15.216,12.1-13.96a19.788,19.788,0,0,1,3.819-8.247,7.329,7.329,0,0,1-3.931-6.5,7.3,7.3,0,0,1,.56-2.814c-2.58-.187-5.575.94-8.094,3.847Z" transform="translate(3303.428 3640.001)" fill="#ffd3a3"/>
        <path id="Path_1198" data-name="Path 1198" d="M-3196.681-3601.416a19.864,19.864,0,0,0,19.909,19.82,19.865,19.865,0,0,0,19.82-19.909,19.981,19.981,0,0,0-.357-3.721,19.791,19.791,0,0,0-4.315-9.03,7.3,7.3,0,0,1-4.288,1.385,7.3,7.3,0,0,1-5.06-2.028,7.3,7.3,0,0,1-5.061,2.028,7.328,7.328,0,0,1-6.514-3.969,7.328,7.328,0,0,1-6.515,3.969,7.292,7.292,0,0,1-3.4-.834,19.784,19.784,0,0,0-3.82,8.247A19.875,19.875,0,0,0-3196.681-3601.416Z" transform="translate(3225.231 3623.035)" fill="#ffd3a3"/>
      </g>
      <path id="Path_1199" data-name="Path 1199" d="M-3181.756-3667.387a7.328,7.328,0,0,0,6.514,3.969,7.3,7.3,0,0,0,5.061-2.028,7.3,7.3,0,0,0,5.06,2.028,7.3,7.3,0,0,0,4.288-1.385,7.319,7.319,0,0,0,3.041-5.944,7.3,7.3,0,0,0-.492-2.646,7.346,7.346,0,0,0-4.772-4.387,7.338,7.338,0,0,0-7.329-7.362,7.307,7.307,0,0,0-5.386,2.36,7.319,7.319,0,0,0-5.956-3.058,7.329,7.329,0,0,0-7.313,7.805,7.335,7.335,0,0,0-6,4.475,7.3,7.3,0,0,0-.56,2.814,7.327,7.327,0,0,0,3.932,6.5,7.291,7.291,0,0,0,3.4.833A7.326,7.326,0,0,0-3181.756-3667.387Z" transform="translate(3256.78 3724.002)" fill="#f0f0f0"/>
    </g>
    <path id="Path_1200" data-name="Path 1200" d="M-3216.562-3659.4l-16.8-19.388a12.76,12.76,0,0,0-9.742-4.792,10.065,10.065,0,0,0-3.747-3.382,9.876,9.876,0,0,0-2.718-5.189,9.955,9.955,0,0,0-7.127-2.989,10.025,10.025,0,0,0-5.165,1.44,10.027,10.027,0,0,0-6.177-2.138,10.037,10.037,0,0,0-7.294,3.157,10.049,10.049,0,0,0-2.564,5.167,9.965,9.965,0,0,0-5.084,4,13.186,13.186,0,0,0-8.485,4.73l-16.8,19.388c-2.745,3.023-5.494,6.671-5.126,10.823.316,3.57,2.741,6.55,6.285,9.926l19.812,18.872.053,16.658a2.675,2.675,0,0,0,2.675,2.666h44.332a2.674,2.674,0,0,0,2.675-2.67l.027-16.655,19.81-18.87c3.543-3.375,5.968-6.354,6.285-9.926C-3211.067-3652.731-3213.816-3656.378-3216.562-3659.4Zm-18.194,9.7-15.741,12.871c-3.582,0-7.185.007-10.788.007a22.375,22.375,0,0,0,14.923-6.611,22.369,22.369,0,0,0,6.292-12.4Zm-49.872-6.281a22.368,22.368,0,0,0,6.39,12.621,22.374,22.374,0,0,0,14.8,6.539c-3.639,0-7.276,0-10.893-.007l-15.741-12.871Zm10.046-12.089a9.973,9.973,0,0,0,6.515-2.406,9.973,9.973,0,0,0,6.514,2.406,9.961,9.961,0,0,0,5.06-1.372,9.962,9.962,0,0,0,5.06,1.372,9.953,9.953,0,0,0,3.5-.635,17.21,17.21,0,0,1,2.782,9.332,17.078,17.078,0,0,1-5.007,12.167,17.079,17.079,0,0,1-12.144,5.062,17.1,17.1,0,0,1-12.166-5.007,17.079,17.079,0,0,1-5.062-12.144,17.373,17.373,0,0,1,.334-3.437c.01-.046.018-.093.026-.139a16.9,16.9,0,0,1,2.2-5.488A10.028,10.028,0,0,0-3274.582-3668.066Zm-.492-14.633a2.674,2.674,0,0,0,2.391-2.831,4.622,4.622,0,0,1,1.252-3.492,4.6,4.6,0,0,1,3.392-1.467,4.67,4.67,0,0,1,3.784,1.944,2.674,2.674,0,0,0,2.009,1.109,2.674,2.674,0,0,0,2.129-.856,4.606,4.606,0,0,1,3.42-1.5,4.642,4.642,0,0,1,3.322,1.4,4.531,4.531,0,0,1,1.332,3.256,2.675,2.675,0,0,0,1.922,2.6,4.678,4.678,0,0,1,3.342,4.467,4.659,4.659,0,0,1-4.654,4.654,4.633,4.633,0,0,1-3.213-1.287,2.668,2.668,0,0,0-1.847-.74,2.666,2.666,0,0,0-1.847.74,4.634,4.634,0,0,1-3.214,1.287,4.644,4.644,0,0,1-4.139-2.522,2.674,2.674,0,0,0-2.376-1.447,2.675,2.675,0,0,0-2.376,1.447,4.643,4.643,0,0,1-4.139,2.522,4.659,4.659,0,0,1-4.654-4.654A4.639,4.639,0,0,1-3275.074-3682.7Zm58.31,33.649c-.143,1.608-1.533,3.56-4.646,6.526l-20.639,19.659a2.674,2.674,0,0,0-.83,1.933l-.024,15.128h-39l-.049-15.133a2.673,2.673,0,0,0-.83-1.928l-20.638-19.659c-3.115-2.967-4.5-4.918-4.647-6.525-.146-1.652,1.019-3.742,3.777-6.776l.042-.048,16.82-19.412a9.33,9.33,0,0,1,2.851-2.277,9.972,9.972,0,0,0,2.938,6.579,22.157,22.157,0,0,0-2.632,6.419l-11.65,13.445a2.675,2.675,0,0,0-.644,1.98,2.676,2.676,0,0,0,.972,1.842l18.609,15.216a2.675,2.675,0,0,0,1.689.6c4.272.006,8.574.009,12.876.009s8.6,0,12.876-.009a2.676,2.676,0,0,0,1.689-.6l18.609-15.216a2.675,2.675,0,0,0,.972-1.842,2.675,2.675,0,0,0-.644-1.98l-11.451-13.215a22.575,22.575,0,0,0-3.241-7.519,9.953,9.953,0,0,0,2.174-6.168,8.541,8.541,0,0,1,4.025,2.735l16.821,19.412.043.048C-3217.782-3652.792-3216.618-3650.7-3216.765-3649.05Z" transform="translate(3345.766 3733.998)"/>
    <path id="Path_1201" data-name="Path 1201" d="M-3380.9-3821.835a2.674,2.674,0,0,0,.768-1.9,2.675,2.675,0,0,0-.808-1.887,17.379,17.379,0,0,0-12.169-5,17.043,17.043,0,0,0-2.985.267,20.123,20.123,0,0,0-21.891-7.343,21.857,21.857,0,0,0-11.631,8.224,26.886,26.886,0,0,0-4.729,16.192l0,109.034h0a2.674,2.674,0,0,0,2.674,2.675h22.941a2.674,2.674,0,0,0,2.675-2.675v-60.3a2.674,2.674,0,0,0-2.675-2.675h-7.735c.009-7.185.05-14.446.09-21.494.045-7.969.093-16.209.093-24.379.216-3.421,1.526-5.809,3.428-6.241a3.473,3.473,0,0,1,3.406,1.424,17.862,17.862,0,0,0-.588,4.48,18.1,18.1,0,0,0,4.786,12.354,2.676,2.676,0,0,0,1.924.865h.045a2.675,2.675,0,0,0,1.907-.8Zm-30.508,114.907h-7.339v-10.3a2.674,2.674,0,0,0-2.674-2.675,2.675,2.675,0,0,0-2.675,2.675v10.3h-4.9v-54.949h17.592Zm-2.633-117.629c-3.4.771-7.177,4.124-7.589,11.221,0,.052,0,.1,0,.155,0,8.182-.047,16.442-.093,24.429-.041,7.057-.082,14.326-.09,21.525H-3429l0-46.076c0-.01,0-.021,0-.031-.133-11.5,6.361-17.475,12.482-19.228a14.619,14.619,0,0,1,15.092,4.129,16.878,16.878,0,0,0-3.664,2.822,17.2,17.2,0,0,0-2.077,2.565A8.475,8.475,0,0,0-3414.04-3824.556Zm12.769,2.7a11.363,11.363,0,0,1,8.161-3.419,11.906,11.906,0,0,1,6.309,1.814L-3402.99-3807A12.526,12.526,0,0,1-3401.27-3821.859Z" transform="translate(3434.348 3838.516)"/>
    <path id="Path_1202" data-name="Path 1202" d="M-3279.261-3708.13a2.674,2.674,0,0,0-3.767.34,2.674,2.674,0,0,0,.34,3.767l1.9,1.588a2.663,2.663,0,0,0,1.712.621,2.67,2.67,0,0,0,2.055-.961,2.675,2.675,0,0,0-.34-3.767Z" transform="translate(3323.954 3743.458)"/>
    <path id="Path_1203" data-name="Path 1203" d="M-3243.286-3720.639l-1.9-1.588a2.674,2.674,0,0,0-3.767.34,2.674,2.674,0,0,0,.34,3.767l1.9,1.588a2.663,2.663,0,0,0,1.712.621,2.669,2.669,0,0,0,2.055-.961A2.675,2.675,0,0,0-3243.286-3720.639Z" transform="translate(3298.996 3753.784)"/>
    <path id="Path_1204" data-name="Path 1204" d="M-3236.614-3754.862a2.675,2.675,0,0,0,.34,3.767l2.785,2.324a2.663,2.663,0,0,0,1.712.621,2.67,2.67,0,0,0,2.055-.961,2.675,2.675,0,0,0-.34-3.767l-2.785-2.324A2.675,2.675,0,0,0-3236.614-3754.862Z" transform="translate(3289.954 3777.94)"/>
    <path id="Path_1205" data-name="Path 1205" d="M-3393.338-3424.944a2.674,2.674,0,0,0-2.674,2.675v.1a2.674,2.674,0,0,0,2.674,2.675,2.675,2.675,0,0,0,2.675-2.675v-.1A2.675,2.675,0,0,0-3393.338-3424.944Z" transform="translate(3406.266 3535.556)"/>
  </g>
</svg>
