<svg id="p4-7" xmlns="http://www.w3.org/2000/svg" width="128.379" height="128.379" viewBox="0 0 128.379 128.379">
  <rect id="Rectangle_117" data-name="Rectangle 117" width="47.072" height="89.865" rx="16" transform="translate(2.14 2.14)" fill="#e9e9ea"/>
  <path id="Path_1206" data-name="Path 1206" d="M-2266-3567.008h29.955v55.631H-2266Z" transform="translate(2362.284 3637.616)" fill="#006df0"/>
  <path id="Path_1207" data-name="Path 1207" d="M-2250-3599.008h21.4v8.559H-2250Z" transform="translate(2350.563 3661.058)" fill="#e9e9ea"/>
  <path id="Path_1208" data-name="Path 1208" d="M-2266-3527.008h17.117v19.257H-2266Z" transform="translate(2362.284 3608.315)" fill="#ffda44"/>
  <path id="Path_1209" data-name="Path 1209" d="M-2266-3655.008h8.559v8.559H-2266Z" transform="translate(2362.284 3702.08)" fill="#e9e9ea"/>
  <path id="Path_1210" data-name="Path 1210" d="M-2234-3663.008h12.838v17.117H-2234Z" transform="translate(2338.843 3707.941)" fill="#2488ff"/>
  <circle id="Ellipse_81" data-name="Ellipse 81" cx="12.838" cy="12.838" r="12.838" transform="translate(12.838 10.698)" fill="#57565c"/>
  <path id="Path_1211" data-name="Path 1211" d="M-2547.581-3767.008h49.212v12.838h-49.212a6.419,6.419,0,0,1-6.419-6.419A6.419,6.419,0,0,1-2547.581-3767.008Z" transform="translate(2573.257 3784.125)" fill="#e9e9ea"/>
  <circle id="Ellipse_82" data-name="Ellipse 82" cx="4.279" cy="4.279" r="4.279" transform="translate(21.396 53.491)" fill="#2d2d30"/>
  <g id="Group_397" data-name="Group 397" transform="translate(0 0)">
    <path id="Path_1212" data-name="Path 1212" d="M-2241.905-3645.332h-2.14v-6.419a2.14,2.14,0,0,0-2.14-2.14h-2.14v-14.978a2.14,2.14,0,0,0-2.14-2.14H-2263.3a2.14,2.14,0,0,0-2.14,2.14h-6.419a2.14,2.14,0,0,0-2.14,2.14v8.559a2.14,2.14,0,0,0,2.14,2.14h6.419v2.14h-2.14a2.14,2.14,0,0,0-2.14,2.14v6.419h-2.14a2.14,2.14,0,0,0-2.14,2.14v55.631a2.14,2.14,0,0,0,2.14,2.14h29.955a2.14,2.14,0,0,0,2.14-2.14v-55.631A2.14,2.14,0,0,0-2241.905-3645.332Zm-19.257-21.4h8.559v12.838h-8.559Zm-8.559,6.419v-4.279h4.279v4.279Zm4.279,10.7h17.117v4.279h-17.117Zm-4.279,19.257h12.838v14.978h-12.838Zm25.676,40.653h-25.676v-21.4h14.978a2.14,2.14,0,0,0,2.14-2.14v-19.257a2.14,2.14,0,0,0-2.14-2.14h-14.978v-6.419h25.676Z" transform="translate(2368.145 3713.801)" fill="#231f20"/>
    <path id="Path_1213" data-name="Path 1213" d="M-2322-3647.008h4.279v4.279H-2322Z" transform="translate(2403.307 3696.22)" fill="#231f20"/>
    <path id="Path_1214" data-name="Path 1214" d="M-2354-3647.008h4.279v4.279H-2354Z" transform="translate(2426.748 3696.22)" fill="#231f20"/>
    <path id="Path_1215" data-name="Path 1215" d="M-2308.97-3686.87l3.026-3.026,3.025,3.026-3.025,3.025Z" transform="translate(2393.761 3727.637)" fill="#231f20"/>
    <path id="Path_1216" data-name="Path 1216" d="M-2331.585-3709.5l3.025-3.025,3.025,3.025-3.025,3.026Z" transform="translate(2410.328 3744.216)" fill="#231f20"/>
    <path id="Path_1217" data-name="Path 1217" d="M-2308.976-3607.685l3.025-3.025,3.025,3.025-3.025,3.025Z" transform="translate(2393.766 3669.63)" fill="#231f20"/>
    <path id="Path_1218" data-name="Path 1218" d="M-2331.6-3585.07l3.025-3.026,3.025,3.026-3.025,3.025Z" transform="translate(2410.339 3653.064)" fill="#231f20"/>
    <path id="Path_1219" data-name="Path 1219" d="M-2547.573-3639.008a6.4,6.4,0,0,0-6.416,6.392,6.4,6.4,0,0,0,4.276,6.052v15.371h4.279v-15.371a6.4,6.4,0,0,0,3.913-8.168A6.4,6.4,0,0,0-2547.573-3639.008Zm0,8.559a2.14,2.14,0,0,1-2.14-2.14,2.14,2.14,0,0,1,2.14-2.14,2.14,2.14,0,0,1,2.14,2.14A2.14,2.14,0,0,1-2547.573-3630.449Z" transform="translate(2573.249 3690.36)" fill="#231f20"/>
    <path id="Path_1220" data-name="Path 1220" d="M-2551.112-3816.031h-23.536v-8.559a6.439,6.439,0,0,0-6.419-6.419h-38.514a6.439,6.439,0,0,0-6.419,6.419v81.307a6.438,6.438,0,0,0,6.419,6.419h38.514a6.438,6.438,0,0,0,6.419-6.419v-55.631h23.536a2.14,2.14,0,0,0,2.14-2.14v-12.838A2.14,2.14,0,0,0-2551.112-3816.031Zm-27.815,72.748a2.14,2.14,0,0,1-2.14,2.14h-38.514a2.14,2.14,0,0,1-2.14-2.14v-81.307a2.14,2.14,0,0,1,2.14-2.14h38.514a2.14,2.14,0,0,1,2.14,2.14v8.559h-9.158a14.978,14.978,0,0,0-20.85-3.733,14.978,14.978,0,0,0-3.732,20.85,14.977,14.977,0,0,0,20.85,3.733,14.978,14.978,0,0,0,3.733-3.733h9.158Zm-21.4-55.631h6.4a10.7,10.7,0,0,1-14.978-2.14,10.7,10.7,0,0,1,2.14-14.978,10.7,10.7,0,0,1,12.838,0h-6.4a8.559,8.559,0,0,0-8.559,8.559A8.559,8.559,0,0,0-2600.324-3798.913Zm47.072-4.279h-47.072a4.279,4.279,0,0,1-4.279-4.279,4.279,4.279,0,0,1,4.279-4.279h47.072Z" transform="translate(2626 3831.008)" fill="#231f20"/>
  </g>
</svg>
