<svg xmlns="http://www.w3.org/2000/svg" width="81.307" height="121.96" viewBox="0 0 81.307 121.96">
  <g id="p4-8" transform="translate(0)">
    <g id="Group_388" data-name="Group 388" transform="translate(25.676 2.14)">
      <path id="Path_1136" data-name="Path 1136" d="M-5422.224-3832l-14.978,17.117L-5452.179-3832h8.559v-38.514h12.838V-3832Z" transform="translate(5452.179 3870.516)" fill="#ffeaa7"/>
    </g>
    <g id="Group_389" data-name="Group 389" transform="translate(2.14 68.469)">
      <path id="Path_1137" data-name="Path 1137" d="M-5467.431-3571.165H-5535.9a4.278,4.278,0,0,1-4.279-4.279v-42.793a4.278,4.278,0,0,1,4.279-4.279h68.469a4.278,4.278,0,0,1,4.279,4.279v42.793A4.278,4.278,0,0,1-5467.431-3571.165Z" transform="translate(5540.179 3622.516)" fill="#cf9e76"/>
    </g>
    <g id="Group_390" data-name="Group 390" transform="translate(27.815 68.469)">
      <path id="Path_1138" data-name="Path 1138" d="M-5444.179-3622.516h25.676v17.117h-25.676Z" transform="translate(5444.179 3622.516)" fill="#b27946"/>
    </g>
    <path id="Path_1139" data-name="Path 1139" d="M-5466.873-3600.561V-3624.1a6.427,6.427,0,0,0-6.419-6.419h-68.469a6.427,6.427,0,0,0-6.419,6.419v42.793a6.427,6.427,0,0,0,6.419,6.419h68.469a6.427,6.427,0,0,0,6.419-6.419v-2.14m-38.514-38.514v8.559h-4.279v-8.559h-4.279v8.559h-4.279v-12.838h21.4v12.838h-4.279v-8.559Zm34.234,40.653a2.14,2.14,0,0,1-2.14,2.14h-68.469a2.14,2.14,0,0,1-2.14-2.14V-3624.1a2.141,2.141,0,0,1,2.14-2.14h19.257v17.117h29.955v-17.117h19.257a2.141,2.141,0,0,1,2.14,2.14v42.793Z" transform="translate(5548.179 3696.845)"/>
    <path id="Path_1140" data-name="Path 1140" d="M-5430.424-3840h-11.135v-38.514h-17.117V-3840h-11.135l19.693,22.507Zm-23.973,4.279v-38.514h8.559v38.514h5.982L-5450.118-3824l-10.262-11.728Z" transform="translate(5490.771 3878.516)"/>
    <path id="Path_1141" data-name="Path 1141" d="M-5516.179-3470.516h4.279v4.279h-4.279Z" transform="translate(5524.738 3579.638)"/>
    <path id="Path_1142" data-name="Path 1142" d="M-5452.179-3470.516h4.279v4.279h-4.279Z" transform="translate(5477.855 3579.638)"/>
    <path id="Path_1143" data-name="Path 1143" d="M-5484.179-3470.516h4.279v4.279h-4.279Z" transform="translate(5501.296 3579.638)"/>
    <path id="Path_1144" data-name="Path 1144" d="M-5516.179-3502.516h21.4v4.279h-21.4Z" transform="translate(5524.738 3603.08)"/>
  </g>
</svg>
