<svg xmlns="http://www.w3.org/2000/svg" width="60.991" height="65.273" viewBox="0 0 60.991 65.273">
  <g id="postparto" transform="translate(-16.797)">
    <g id="XMLID_864_" transform="translate(18.072 1.275)">
      <path id="XMLID_2761_" d="M156.62,30.726a8.873,8.873,0,0,0-3.614-11.11,14.712,14.712,0,0,0-27.6,0,8.873,8.873,0,0,0-3.614,11.11,9.756,9.756,0,1,0,16.792,8.6h1.247a9.756,9.756,0,1,0,16.792-8.6Z" transform="translate(-107.504 -10)" fill="#ffd88e"/>
      <path id="XMLID_1272_" d="M318.906,374v7.119H307.464v9.2h8.542" transform="translate(-271.683 -327.596)" fill="#fff"/>
      <path id="XMLID_1486_" d="M110.981,292.453a7.777,7.777,0,0,0,7.777-7.777V278.8a16.966,16.966,0,0,0-16.966-16.966H82.18A16.966,16.966,0,0,0,65.214,278.8L96.1,292.453Z" transform="translate(-60.316 -229.731)" fill="#ff7a7a"/>
      <path id="XMLID_1681_" d="M35.234,283.255l-5.749-5.749a9.179,9.179,0,0,1,12.981-12.981l12.26,12.26a9.153,9.153,0,0,1,2.685,6.759L54.8,289.691l-.074.075a9.177,9.177,0,0,1-9.093,2.314Z" transform="translate(-26.797 -229.731)" fill="#cbf4fb"/>
      <circle id="XMLID_1137_" cx="9.179" cy="9.179" r="9.179" transform="translate(0 32.105)" fill="#ffd0c6"/>
      <path id="XMLID_1168_" d="M224.589,234.541V230.5h-7.817v4.039h-4.059a7.968,7.968,0,1,0,15.936,0Z" transform="translate(-189.011 -202.391)" fill="#f4c6af"/>
      <path id="XMLID_1206_" d="M224.4,112.566V117.8a8.7,8.7,0,1,1-17.391,0v-5.239h6.383a4.617,4.617,0,0,0,3.7-1.852,8.741,8.741,0,0,0,5.38,1.852Z" transform="translate(-184.03 -97.875)" fill="#f4c6af"/>
      <path id="XMLID_1242_" d="M43.276,429.846H34.861a4.6,4.6,0,1,0,0,9.2h8.416Z" transform="translate(-29.82 -376.322)" fill="#ff7a7a"/>
      <g id="Group_502" data-name="Group 502" transform="translate(13.456 53.524)">
        <path id="XMLID_1271_" d="M248.063,429.846h3.56v9.2h-3.56a4.6,4.6,0,0,1,0-9.2Z" transform="translate(-229.298 -429.846)" fill="#f4c6af"/>
        <path id="XMLID_1427_" d="M135.908,439.045h-3.56v-9.2h3.56a4.6,4.6,0,1,1,0,9.2Z" transform="translate(-132.348 -429.846)" fill="#f4c6af"/>
      </g>
    </g>
    <g id="XMLID_529_" transform="translate(16.797 0)">
      <path id="XMLID_656_" d="M98.237,335.7a2.431,2.431,0,0,0,2.428-2.428,1.275,1.275,0,0,0-2.544-.117,1.275,1.275,0,0,0,.117,2.544Z" transform="translate(-86.742 -289.677)"/>
      <path id="XMLID_657_" d="M256.534,180.191a3.372,3.372,0,0,0,2.392-.989,1.275,1.275,0,0,0-1.8-1.8.834.834,0,0,1-1.179,0,1.275,1.275,0,0,0-1.8,1.8A3.373,3.373,0,0,0,256.534,180.191Z" transform="translate(-223.558 -154.457)"/>
      <path id="XMLID_660_" d="M77.406,46.62a1.275,1.275,0,1,0-2.5.518,15.812,15.812,0,0,1,.328,3.208v5.875a6.509,6.509,0,0,1-6.5,6.5H55.127V56.073H65.294A1.275,1.275,0,0,0,66.569,54.8V47.679a1.275,1.275,0,0,0-2.55,0v5.845H50.293c-.138,0-.274.007-.409.016A10.5,10.5,0,0,0,46.9,47.427L34.941,35.466a15.6,15.6,0,0,1,4.994-.811h.653a9.241,9.241,0,0,0,18.305,0h.653A15.719,15.719,0,0,1,69.48,38.2,1.275,1.275,0,1,0,71.1,36.226a18.094,18.094,0,0,0-2.076-1.467,11.034,11.034,0,0,0-.374-13,10.149,10.149,0,0,0-4.034-11.721,15.987,15.987,0,0,0-29.676,0,10.193,10.193,0,0,0-1.6,1.3A10.091,10.091,0,0,0,30.9,21.758,11.09,11.09,0,0,0,29.262,32.3a10.558,10.558,0,0,0-2.012-.193,10.454,10.454,0,0,0-7.392,17.846l0,0,3.57,3.57h-.319a5.874,5.874,0,0,0,0,11.747H35.088a5.849,5.849,0,0,0,1.884-.312,10.441,10.441,0,0,0,8.823-1.79,5.863,5.863,0,0,0,4.5,2.1H68.736a9.062,9.062,0,0,0,9.051-9.051V50.346a18.369,18.369,0,0,0-.381-3.726ZM29.862,52.684A10.463,10.463,0,0,0,37.7,42.559c0-.253-.012-.5-.03-.754l7.147,7.147A17,17,0,0,1,29.862,52.684ZM49.741,40.07a6.7,6.7,0,0,1-6.571-5.415h2.663a1.275,1.275,0,0,0,1.275-1.275V30.819a9.929,9.929,0,0,0,5.267,0V33.38a1.275,1.275,0,0,0,1.275,1.275h2.663A6.7,6.7,0,0,1,49.741,40.07ZM42.32,17.241h4.034a6.917,6.917,0,0,0,4.718-1.855,6.329,6.329,0,0,0,4.475,1.855h1.614V21.2a7.421,7.421,0,0,1-14.842,0V17.241ZM33.53,21.5a7.6,7.6,0,0,1,3.1-9.514,1.275,1.275,0,0,0,.543-.653,13.437,13.437,0,0,1,25.21,0,1.275,1.275,0,0,0,.543.654,7.6,7.6,0,0,1,3.1,9.514,1.275,1.275,0,0,0,.224,1.353,8.427,8.427,0,0,1,.489,10.728,18.275,18.275,0,0,0-7.182-1.475H54.925V29.719A9.974,9.974,0,0,0,59.712,21.2V15.966a1.275,1.275,0,0,0-1.275-1.275H55.547a3.778,3.778,0,0,1-2.93-1.4,6.9,6.9,0,0,0,.681-3,1.275,1.275,0,0,0-2.55,0,4.4,4.4,0,0,1-4.394,4.394H41.045a1.275,1.275,0,0,0-1.275,1.275V21.2a9.974,9.974,0,0,0,4.787,8.514v2.387H39.935a18.079,18.079,0,0,0-7.135,1.45,8.508,8.508,0,0,1,.506-10.7A1.274,1.274,0,0,0,33.53,21.5ZM21.662,36.97a7.9,7.9,0,0,1,11.177,0h0a7.9,7.9,0,1,1-11.179,0ZM19.789,59.4a3.328,3.328,0,0,1,3.324-3.324h7.141v6.648H23.112A3.328,3.328,0,0,1,19.789,59.4ZM32.8,62.722V56.073h2.285a3.324,3.324,0,0,1,0,6.649Zm7.132-.011a5.861,5.861,0,0,0-1-7.75,19.366,19.366,0,0,0,7.477-4.007A7.8,7.8,0,0,1,47.4,54.29,5.873,5.873,0,0,0,44.6,60.862a7.9,7.9,0,0,1-4.669,1.85ZM46.968,59.4a3.328,3.328,0,0,1,3.324-3.324h2.285v6.649H50.293A3.328,3.328,0,0,1,46.968,59.4Z" transform="translate(-16.797 0)"/>
      <path id="XMLID_669_" d="M457.19,318.4a1.273,1.273,0,1,0-.9-.374A1.285,1.285,0,0,0,457.19,318.4Z" transform="translate(-399.934 -275.585)"/>
    </g>
  </g>
</svg>
