<svg xmlns="http://www.w3.org/2000/svg" width="129.462" height="129.462" viewBox="0 0 129.462 129.462">
  <g id="pulmonar" transform="translate(-1 -1)">
    <path id="Path_1551" data-name="Path 1551" d="M58.379,6V41.5l-6.264,6.264V43.586a8.353,8.353,0,0,0-8.352-8.352H31.233A29.233,29.233,0,0,0,2,64.467v50.114a8.353,8.353,0,0,0,8.352,8.352H22.881A29.233,29.233,0,0,0,52.114,93.7V67.927a8.343,8.343,0,0,1,2.447-5.905l7.129-7.129a4.175,4.175,0,0,1,5.905,0l7.129,7.129a8.355,8.355,0,0,1,2.447,5.905V93.7A29.233,29.233,0,0,0,106.4,122.933h12.529a8.353,8.353,0,0,0,8.352-8.352V64.467A29.233,29.233,0,0,0,98.052,35.233H85.524a8.353,8.353,0,0,0-8.352,8.352v4.176L70.907,41.5V6Z" transform="translate(1.088 5.44)" fill="#ed634a"/>
    <path id="Path_1552" data-name="Path 1552" d="M58.379,6V41.5l-6.264,6.264V43.586a8.353,8.353,0,0,0-8.352-8.352H31.233A29.233,29.233,0,0,0,2,64.467v50.114a8.353,8.353,0,0,0,8.352,8.352H22.881A29.233,29.233,0,0,0,52.114,93.7V67.927a8.343,8.343,0,0,1,2.447-5.905l7.129-7.129a4.175,4.175,0,0,1,5.905,0l7.129,7.129a8.355,8.355,0,0,1,2.447,5.905V93.7A29.233,29.233,0,0,0,106.4,122.933h12.529a8.353,8.353,0,0,0,8.352-8.352V64.467A29.233,29.233,0,0,0,98.052,35.233H85.524a8.353,8.353,0,0,0-8.352,8.352v4.176L70.907,41.5V6Z" transform="translate(1.088 5.44)" fill="#c66b60"/>
    <path id="Path_1553" data-name="Path 1553" d="M58.379,41.5l-6.264,6.264V43.586a8.353,8.353,0,0,0-8.352-8.352H31.233A29.233,29.233,0,0,0,2,64.467v16.6A68.363,68.363,0,0,0,66.687,12.809c0-2.3-.117-4.569-.338-6.809h-7.97Z" transform="translate(1.088 5.44)" fill="#e47c6e"/>
    <path id="Path_1554" data-name="Path 1554" d="M29,5H41.529V36.321H29Z" transform="translate(30.467 4.352)" fill="#d5cec2"/>
    <path id="Path_1555" data-name="Path 1555" d="M22,2A12.528,12.528,0,0,0,34.529,14.529a12.461,12.461,0,0,0,8.352-3.209,12.461,12.461,0,0,0,8.352,3.209A12.528,12.528,0,0,0,63.762,2Z" transform="translate(22.85 1.088)" fill="#8a8275"/>
    <path id="Path_1556" data-name="Path 1556" d="M43.217,2H22A12.528,12.528,0,0,0,34.529,14.529a12.461,12.461,0,0,0,8.352-3.209,12.7,12.7,0,0,0,1.883,1.389A68.155,68.155,0,0,0,43.217,2Z" transform="translate(22.85 1.088)" fill="#9d958c"/>
    <path id="Path_1557" data-name="Path 1557" d="M31.058,52.031l-7.726-9.657-3.262,2.61,3.351,4.191L16.828,54.12H15.437V43.679H11.263V54.12H5V58.3H17.525a2.088,2.088,0,0,0,1.255-.418l7.256-5.442,2.391,2.988a2.086,2.086,0,0,0,1.631.783h3.8l-1.439,8.626L21.359,66.675l.687,4.12,12.529-2.088a2.089,2.089,0,0,0,1.716-1.716l1.8-10.785H48.745c.05-.689.106-1.38.106-2.084v-2.09Z" transform="translate(4.351 45.019)" fill="#625d51"/>
    <path id="Path_1558" data-name="Path 1558" d="M45.532,51.909,34.507,48.6l4.341-5.788a2.08,2.08,0,0,0,.416-1.253V29.032H35.088V40.865l-4.844,6.458-3.717-1.115-1.9-13.295a2.085,2.085,0,0,0-1.407-1.685L10.69,27.052l-1.32,3.961,11.3,3.769.447,3.12L11.045,43.947a2.094,2.094,0,0,0-.908,1.132L8.049,51.343l3.961,1.32,1.844-5.531,7.906-4.744.819,5.734a2.083,2.083,0,0,0,1.466,1.7l11.04,3.312v5.128H28.821v4.176h8.35a2.086,2.086,0,0,0,2.088-2.088V54.389l6.273,1.879Z" transform="translate(7.67 28.347)" fill="#8a8275"/>
    <path id="Path_1559" data-name="Path 1559" d="M75.582,43.68H71.407v10.44H70.015L63.42,49.176l3.351-4.191-3.262-2.61-7.724,9.657H38v2.088c0,.7.056,1.395.1,2.088H48.754l1.8,10.785a2.089,2.089,0,0,0,1.716,1.716L64.8,70.8l.687-4.12L54.425,64.837,52.99,56.209h3.8a2.083,2.083,0,0,0,1.631-.783l2.391-2.988,7.256,5.442a2.088,2.088,0,0,0,1.255.418H81.85V54.121H75.582Z" transform="translate(40.26 45.02)" fill="#625d51"/>
    <path id="Path_1560" data-name="Path 1560" d="M71.514,52.66l3.961-1.32-2.088-6.264a2.083,2.083,0,0,0-.908-1.132L62.4,37.9l.447-3.12,11.3-3.769-1.32-3.961L60.305,31.226A2.091,2.091,0,0,0,58.9,32.911L57,46.206l-3.717,1.115-4.844-6.458V29.034H44.26V41.562a2.08,2.08,0,0,0,.416,1.253L49.017,48.6,38,51.909v4.36l6.262-1.879v5.966a2.088,2.088,0,0,0,2.088,2.088H54.7V58.267H48.438v-5.13l11.04-3.312a2.088,2.088,0,0,0,1.466-1.7l.819-5.734,7.906,4.744Z" transform="translate(40.26 28.345)" fill="#625d51"/>
    <g id="Group_457" data-name="Group 457" transform="translate(59.465 21.881)">
      <path id="Path_1561" data-name="Path 1561" d="M29,11H41.525v4.176H29Z" transform="translate(-28.999 -11)" fill="#8a8275"/>
      <path id="Path_1562" data-name="Path 1562" d="M29,15H41.525v4.176H29Z" transform="translate(-28.999 -6.648)" fill="#8a8275"/>
      <path id="Path_1563" data-name="Path 1563" d="M29,19H41.525v4.176H29Z" transform="translate(-28.999 -2.295)" fill="#8a8275"/>
    </g>
    <path id="Path_1564" data-name="Path 1564" d="M99.14,38.586H86.612A10.454,10.454,0,0,0,76.2,48.2l-2.122-2.122V17.7A14.634,14.634,0,0,0,88.7,3.088,2.088,2.088,0,0,0,86.612,1H44.85a2.088,2.088,0,0,0-2.088,2.088A14.634,14.634,0,0,0,57.379,17.7V46.074L55.257,48.2A10.454,10.454,0,0,0,44.85,38.586H32.321A31.357,31.357,0,0,0,1,69.907v50.114a10.452,10.452,0,0,0,10.44,10.44H23.969A31.357,31.357,0,0,0,55.29,99.14V73.367a6.3,6.3,0,0,1,1.835-4.429l7.129-7.129a2.088,2.088,0,0,1,2.953,0l7.129,7.131a6.291,6.291,0,0,1,1.835,4.427V99.14a31.357,31.357,0,0,0,31.321,31.321h12.529a10.452,10.452,0,0,0,10.44-10.44V69.907A31.357,31.357,0,0,0,99.14,38.586Zm-29.233,0H61.555V34.41h8.352Zm0-8.352H61.555V26.057h8.352ZM47.149,5.176H84.315a10.461,10.461,0,0,1-10.232,8.352,10.428,10.428,0,0,1-6.96-2.675,2.085,2.085,0,0,0-2.786,0,10.42,10.42,0,0,1-6.96,2.677A10.457,10.457,0,0,1,47.149,5.176Zm18.582,9.891a14.658,14.658,0,0,0,4.176,2.009v4.8H61.555v-4.8A14.6,14.6,0,0,0,65.731,15.067Zm60.555,104.954a6.272,6.272,0,0,1-6.264,6.264H107.493a27.164,27.164,0,0,1-27.039-25.057h8.565l1.8,10.785a2.089,2.089,0,0,0,1.716,1.716l12.529,2.088.685-4.12-11.056-1.844-1.439-8.626h3.8a2.089,2.089,0,0,0,1.631-.783l2.391-2.988,7.254,5.442a2.082,2.082,0,0,0,1.253.418H122.11V99.14h-6.264V88.7h-4.176V99.14h-1.393L103.682,94.2l3.353-4.191L103.774,87.4,96.05,97.052h-15.7V83.989l4.176-1.253V88.7a2.088,2.088,0,0,0,2.088,2.088h8.352V86.612H88.7V81.484l11.04-3.312a2.094,2.094,0,0,0,1.468-1.7l.819-5.734,7.906,4.742,1.846,5.531,3.959-1.322-2.088-6.264a2.084,2.084,0,0,0-.906-1.13l-10.077-6.045.445-3.12,11.3-3.769L113.093,55.4l-12.529,4.176a2.091,2.091,0,0,0-1.407,1.685l-1.9,13.3L93.544,75.67,88.7,69.212V57.379H84.524V69.907a2.087,2.087,0,0,0,.418,1.253l4.341,5.788-8.935,2.681V73.367a10.374,10.374,0,0,0-3.059-7.381L70.16,58.855a6.276,6.276,0,0,0-8.858,0l-7.129,7.131a10.374,10.374,0,0,0-3.059,7.381v6.262l-8.935-2.681L46.52,71.16a2.087,2.087,0,0,0,.418-1.253V57.379H42.762V69.212l-4.844,6.461L34.2,74.557l-1.9-13.3a2.085,2.085,0,0,0-1.407-1.685L18.365,55.4,17.043,59.36l11.3,3.769.445,3.12L18.715,72.294a2.1,2.1,0,0,0-.906,1.13l-2.088,6.264L19.68,81.01l1.846-5.531,7.906-4.742.819,5.734a2.091,2.091,0,0,0,1.468,1.7l11.044,3.31v5.128H36.5v4.176H44.85A2.088,2.088,0,0,0,46.938,88.7V82.736l4.176,1.253V97.052h-15.7l-7.724-9.657L24.426,90l3.353,4.191L21.186,99.14H19.793V88.7H15.617V99.14H9.352v4.176H21.881a2.082,2.082,0,0,0,1.253-.418l7.256-5.442,2.391,2.988a2.082,2.082,0,0,0,1.629.783h3.8l-1.439,8.626L25.715,111.7l.685,4.12,12.529-2.088a2.084,2.084,0,0,0,1.716-1.716l1.8-10.785h8.565a27.164,27.164,0,0,1-27.039,25.057H11.44a6.272,6.272,0,0,1-6.264-6.264V69.907A27.177,27.177,0,0,1,32.321,42.762H44.85a6.272,6.272,0,0,1,6.264,6.264V53.2a2.088,2.088,0,0,0,3.564,1.476l6.264-6.264a2.083,2.083,0,0,0,.612-1.476V42.762h8.352v4.176a2.083,2.083,0,0,0,.612,1.476l6.264,6.264A2.088,2.088,0,0,0,80.348,53.2V49.026a6.272,6.272,0,0,1,6.264-6.264H99.14a27.177,27.177,0,0,1,27.145,27.145Z"/>
  </g>
</svg>
