<svg xmlns="http://www.w3.org/2000/svg" width="162.396" height="161.879" viewBox="0 0 162.396 161.879">
  <g id="renal" transform="translate(0 -0.293)">
    <path id="Path_1515" data-name="Path 1515" d="M219.6,42.52A33.993,33.993,0,0,1,205.364,14.81v-9.3H189.7v9.3a34.035,34.035,0,0,1-13.934,27.5l-3.069-4.227a28.415,28.415,0,0,0,11.781-23.27V.293h26.109V14.81a28.756,28.756,0,0,0,12.031,23.451Zm0,0" transform="translate(-116.333)"/>
    <path id="Path_1516" data-name="Path 1516" d="M339.148,126.288a25.509,25.509,0,0,1-10.865-2.449c-12.382-5.765-18.449-20.481-14.118-34.224a36.654,36.654,0,0,0,0-20.648c-4.331-13.747,1.736-28.459,14.118-34.224a25.5,25.5,0,0,1,10.865-2.449c18.715,0,33.942,21.083,33.942,47s-15.227,47-33.942,47Zm0,0" transform="translate(-210.694 -21.556)" fill="#f0bc5e"/>
    <path id="Path_1517" data-name="Path 1517" d="M339.07,156.846a18.277,18.277,0,0,1,0-36.553v5.222a13.055,13.055,0,1,0,0,26.109Zm0,0" transform="translate(-216.096 -80.836)"/>
    <path id="Path_1518" data-name="Path 1518" d="M378.9,90.737a32.713,32.713,0,0,1-14.026-2.8,27.823,27.823,0,0,0-12.083-2.425V80.293a32.74,32.74,0,0,1,14.026,2.8A27.821,27.821,0,0,0,378.9,85.515Zm0,0" transform="translate(-237.652 -53.89)"/>
    <path id="Path_1519" data-name="Path 1519" d="M368.793,162.737v-5.222a27.821,27.821,0,0,0,12.083-2.426,32.735,32.735,0,0,1,14.026-2.8v5.222a27.823,27.823,0,0,0-12.083,2.425A32.717,32.717,0,0,1,368.793,162.737Zm0,0" transform="translate(-248.431 -102.392)"/>
    <path id="Path_1520" data-name="Path 1520" d="M352.793,250.737v-5.222a27.821,27.821,0,0,0,12.083-2.426,32.735,32.735,0,0,1,14.026-2.8v5.222a27.824,27.824,0,0,0-12.083,2.425A32.717,32.717,0,0,1,352.793,250.737Zm0,0" transform="translate(-237.652 -161.671)"/>
    <path id="Path_1521" data-name="Path 1521" d="M223.433,90.174c.052-.817.087-1.645.087-2.477a35.82,35.82,0,0,0-1.04-8.664,38.982,38.982,0,0,1-20.106-34.26h-5.222a39.027,39.027,0,0,1-20.1,34.257,35.911,35.911,0,0,0-1.039,8.669c0,.76.037,1.509.078,2.255a46.366,46.366,0,0,1,16.1,35.188v61.77h-5.222v-61.77a41.337,41.337,0,0,0-9.11-25.913l-.034.025a29.735,29.735,0,0,1,.841,11.283,36.289,36.289,0,0,1,3.081,14.6v66.992H197.41V125.143a51.57,51.57,0,0,0-19.674-40.61,44.094,44.094,0,0,0,22.026-24.642A44.035,44.035,0,0,0,221.95,84.61a51.561,51.561,0,0,0-19.577,40.532v66.992h15.666V125.142a36.285,36.285,0,0,1,2.882-14.107,29.687,29.687,0,0,1,.668-11.348,41.334,41.334,0,0,0-8.772,25.454v61.77H207.6v-61.77a46.378,46.378,0,0,1,15.838-34.969Zm0,0" transform="translate(-118.564 -29.963)"/>
    <path id="Path_1522" data-name="Path 1522" d="M33.942,126.287C15.227,126.287,0,105.2,0,79.29s15.227-47,33.942-47a25.513,25.513,0,0,1,10.865,2.449c12.38,5.765,18.449,20.48,14.117,34.224a36.684,36.684,0,0,0,0,20.648c4.332,13.746-1.736,28.459-14.117,34.224a25.505,25.505,0,0,1-10.865,2.449Zm0,0" transform="translate(0 -21.556)" fill="#f0bc5e"/>
    <path id="Path_1523" data-name="Path 1523" d="M120.793,156.846v-5.222a13.055,13.055,0,1,0,0-26.109v-5.222a18.277,18.277,0,0,1,0,36.553Zm0,0" transform="translate(-81.37 -80.836)"/>
    <path id="Path_1524" data-name="Path 1524" d="M64.793,90.737V85.515a27.821,27.821,0,0,0,12.083-2.426,32.735,32.735,0,0,1,14.026-2.8v5.222A27.823,27.823,0,0,0,78.819,87.94,32.717,32.717,0,0,1,64.793,90.737Zm0,0" transform="translate(-43.647 -53.89)"/>
    <path id="Path_1525" data-name="Path 1525" d="M74.9,162.737a32.713,32.713,0,0,1-14.026-2.8,27.823,27.823,0,0,0-12.083-2.425v-5.222a32.739,32.739,0,0,1,14.026,2.8A27.821,27.821,0,0,0,74.9,157.515Zm0,0" transform="translate(-32.868 -102.392)"/>
    <path id="Path_1526" data-name="Path 1526" d="M90.9,250.737a32.712,32.712,0,0,1-14.026-2.8,27.824,27.824,0,0,0-12.083-2.425v-5.222a32.74,32.74,0,0,1,14.026,2.8A27.821,27.821,0,0,0,90.9,245.515Zm0,0" transform="translate(-43.647 -161.671)"/>
  </g>
</svg>
