<svg xmlns="http://www.w3.org/2000/svg" width="40.813" height="47.67" viewBox="0 0 40.813 47.67">
  <g id="salida" transform="translate(-34.942 -177.374)">
    <g id="empresa" transform="translate(33.192 177.374)">
      <g id="Group_568" data-name="Group 568" transform="translate(27.959 11.1)">
        <path id="Path_1984" data-name="Path 1984" d="M383.487,184.746h6.524a.389.389,0,0,0,.387-.389v-22.89a.388.388,0,0,0-.387-.387h-6.524l-1.4,10.359Z" transform="translate(-382.082 -161.081)" fill="#c8c5c9" fill-rule="evenodd"/>
      </g>
      <g id="Group_569" data-name="Group 569" transform="translate(12.545 8.153)">
        <path id="Path_1985" data-name="Path 1985" d="M158.4,144.92h5.085v-6.188h6.649v6.188h5.084V119.045a.74.74,0,0,0-.738-.738H159.143a.74.74,0,0,0-.738.738V144.92Z" transform="translate(-158.405 -118.307)" fill="#eceaec" fill-rule="evenodd"/>
      </g>
      <g id="Group_570" data-name="Group 570" transform="translate(2.267 11.846)">
        <path id="Path_1986" data-name="Path 1986" d="M19.528,171.91l-9.227,4.2c-.525.24-1.051.475-1.051,1.051v17.342a.322.322,0,0,0,.32.322h9.958v-12C19.528,180.432,19.528,177.291,19.528,171.91Z" transform="translate(-9.25 -171.91)" fill="#c8c5c9" fill-rule="evenodd"/>
      </g>
      <g id="Group_571" data-name="Group 571" transform="translate(17.63 28.577)">
        <path id="Path_1987" data-name="Path 1987" d="M232.19,414.7h3.325v6.188H232.19Z" transform="translate(-232.19 -414.698)" fill="#9fd4fe" fill-rule="evenodd"/>
      </g>
      <g id="Group_572" data-name="Group 572" transform="translate(20.954 28.577)">
        <path id="Path_1988" data-name="Path 1988" d="M280.434,414.7h3.325v6.188h-3.325Z" transform="translate(-280.434 -414.698)" fill="#9fd4fe" fill-rule="evenodd"/>
      </g>
      <g id="Group_573" data-name="Group 573" transform="translate(26.748 8.153)">
        <path id="Path_1989" data-name="Path 1989" d="M365.242,119.045V144.92h1.881V119.045a.74.74,0,0,0-.738-.738h-1.877A.741.741,0,0,1,365.242,119.045Z" transform="translate(-364.508 -118.307)" fill="#dad8db" fill-rule="evenodd"/>
      </g>
      <g id="Group_574" data-name="Group 574" transform="translate(10.617 31.974)">
        <path id="Path_1990" data-name="Path 1990" d="M130.428,466.784h1.928v-2.791h-1.928Z" transform="translate(-130.428 -463.993)" fill="#b6b1b7" fill-rule="evenodd"/>
      </g>
      <g id="Group_575" data-name="Group 575" transform="translate(34.067 11.1)">
        <path id="Path_1991" data-name="Path 1991" d="M471.107,161.468v22.89a.389.389,0,0,1-.387.389h1.82a.389.389,0,0,0,.387-.389v-22.89a.388.388,0,0,0-.387-.387h-1.82A.388.388,0,0,1,471.107,161.468Z" transform="translate(-470.72 -161.081)" fill="#b6b1b7" fill-rule="evenodd"/>
      </g>
      <g id="Group_576" data-name="Group 576" transform="translate(29.363 14.544)">
        <path id="Path_1992" data-name="Path 1992" d="M402.463,213.662h3.522a.337.337,0,0,0,.336-.336v-1.934a.336.336,0,0,0-.336-.336h-3.522Z" transform="translate(-402.463 -211.056)" fill="#9fd4fe" fill-rule="evenodd"/>
      </g>
      <g id="Group_577" data-name="Group 577" transform="translate(29.363 20.162)">
        <path id="Path_1993" data-name="Path 1993" d="M402.463,295.186h3.522a.336.336,0,0,0,.336-.334v-1.936a.336.336,0,0,0-.336-.334h-3.522Z" transform="translate(-402.463 -292.582)" fill="#9fd4fe" fill-rule="evenodd"/>
      </g>
      <g id="Group_578" data-name="Group 578" transform="translate(29.363 25.778)">
        <path id="Path_1994" data-name="Path 1994" d="M402.463,376.682h3.522a.336.336,0,0,0,.336-.334v-1.936a.336.336,0,0,0-.336-.334h-3.522Z" transform="translate(-402.463 -374.078)" fill="#9fd4fe" fill-rule="evenodd"/>
      </g>
      <g id="Group_579" data-name="Group 579" transform="translate(6.027 29.37)">
        <path id="Path_1995" data-name="Path 1995" d="M64.15,428.811h6.184v-2.6H64.15a.335.335,0,0,0-.334.334v1.936A.335.335,0,0,0,64.15,428.811Z" transform="translate(-63.816 -426.207)" fill="#9fd4fe" fill-rule="evenodd"/>
      </g>
      <g id="Group_580" data-name="Group 580" transform="translate(6.027 23.752)">
        <path id="Path_1996" data-name="Path 1996" d="M64.15,347.288h6.184v-2.606H64.15a.337.337,0,0,0-.334.336v1.934A.335.335,0,0,0,64.15,347.288Z" transform="translate(-63.816 -344.682)" fill="#9fd4fe" fill-rule="evenodd"/>
      </g>
      <g id="Group_581" data-name="Group 581" transform="translate(6.027 18.136)">
        <path id="Path_1997" data-name="Path 1997" d="M64.15,265.79h6.184v-2.6H64.15a.335.335,0,0,0-.334.334v1.936A.335.335,0,0,0,64.15,265.79Z" transform="translate(-63.816 -263.186)" fill="#9fd4fe" fill-rule="evenodd"/>
      </g>
      <g id="Group_582" data-name="Group 582" transform="translate(15.872 21.949)">
        <path id="Path_1998" data-name="Path 1998" d="M206.678,318.718v2.354a.2.2,0,0,0,.2.2h3.09a.2.2,0,0,0,.2-.2v-2.354a.2.2,0,0,0-.2-.2h-3.09A.2.2,0,0,0,206.678,318.718Z" transform="translate(-206.678 -318.519)" fill="#9fd4fe" fill-rule="evenodd"/>
      </g>
      <g id="Group_583" data-name="Group 583" transform="translate(15.872 16.525)">
        <path id="Path_1999" data-name="Path 1999" d="M206.878,242.552h3.09a.2.2,0,0,0,.2-.2V240a.2.2,0,0,0-.2-.2h-3.09a.2.2,0,0,0-.2.2v2.352A.2.2,0,0,0,206.878,242.552Z" transform="translate(-206.679 -239.8)" fill="#9fd4fe" fill-rule="evenodd"/>
      </g>
      <g id="Group_584" data-name="Group 584" transform="translate(15.872 11.102)">
        <path id="Path_2000" data-name="Path 2000" d="M206.878,163.862h3.09a.2.2,0,0,0,.2-.2v-2.354a.2.2,0,0,0-.2-.2h-3.09a.2.2,0,0,0-.2.2v2.354A.2.2,0,0,0,206.878,163.862Z" transform="translate(-206.679 -161.11)" fill="#9fd4fe" fill-rule="evenodd"/>
      </g>
      <g id="Group_585" data-name="Group 585" transform="translate(22.548 11.102)">
        <path id="Path_2001" data-name="Path 2001" d="M303.764,163.862h3.09a.2.2,0,0,0,.2-.2v-2.354a.2.2,0,0,0-.2-.2h-3.09a.2.2,0,0,0-.2.2v2.354A.2.2,0,0,0,303.764,163.862Z" transform="translate(-303.565 -161.11)" fill="#9fd4fe" fill-rule="evenodd"/>
      </g>
      <g id="Group_586" data-name="Group 586" transform="translate(22.548 21.949)">
        <path id="Path_2002" data-name="Path 2002" d="M303.764,321.271h3.09a.2.2,0,0,0,.2-.2v-2.354a.2.2,0,0,0-.2-.2h-3.09a.2.2,0,0,0-.2.2v2.354A.2.2,0,0,0,303.764,321.271Z" transform="translate(-303.565 -318.519)" fill="#9fd4fe" fill-rule="evenodd"/>
      </g>
      <g id="Group_587" data-name="Group 587" transform="translate(22.548 16.525)">
        <path id="Path_2003" data-name="Path 2003" d="M303.764,242.552h3.09a.2.2,0,0,0,.2-.2V240a.2.2,0,0,0-.2-.2h-3.09a.2.2,0,0,0-.2.2v2.352A.2.2,0,0,0,303.764,242.552Z" transform="translate(-303.565 -239.8)" fill="#9fd4fe" fill-rule="evenodd"/>
      </g>
      <g id="Group_588" data-name="Group 588" transform="translate(14.749 5.912)">
        <path id="Path_2004" data-name="Path 2004" d="M190.38,88.034h12.411v-1.74a.5.5,0,0,0-.5-.5H190.88a.5.5,0,0,0-.5.5Z" transform="translate(-190.38 -85.793)" fill="#c8c5c9" fill-rule="evenodd"/>
      </g>
      <g id="Group_589" data-name="Group 589" transform="translate(6.027 18.136)">
        <path id="Path_2005" data-name="Path 2005" d="M64.15,264.18h6.184v-.994H64.15a.335.335,0,0,0-.334.334v.992A.337.337,0,0,1,64.15,264.18Z" transform="translate(-63.816 -263.186)" fill="#72bffc" fill-rule="evenodd"/>
      </g>
      <g id="Group_590" data-name="Group 590" transform="translate(6.027 23.752)">
        <path id="Path_2006" data-name="Path 2006" d="M64.15,345.678h6.184v-1H64.15a.337.337,0,0,0-.334.336v.99A.336.336,0,0,1,64.15,345.678Z" transform="translate(-63.816 -344.682)" fill="#72bffc" fill-rule="evenodd"/>
      </g>
      <g id="Group_591" data-name="Group 591" transform="translate(6.027 29.37)">
        <path id="Path_2007" data-name="Path 2007" d="M64.15,427.2h6.184v-.994H64.15a.335.335,0,0,0-.334.334v.992A.336.336,0,0,1,64.15,427.2Z" transform="translate(-63.816 -426.207)" fill="#72bffc" fill-rule="evenodd"/>
      </g>
      <g id="Group_592" data-name="Group 592" transform="translate(15.872 11.102)">
        <path id="Path_2008" data-name="Path 2008" d="M206.878,162.3h3.09a.2.2,0,0,1,.2.2v-1.19a.2.2,0,0,0-.2-.2h-3.09a.2.2,0,0,0-.2.2v1.19A.2.2,0,0,1,206.878,162.3Z" transform="translate(-206.679 -161.11)" fill="#72bffc" fill-rule="evenodd"/>
      </g>
      <g id="Group_593" data-name="Group 593" transform="translate(22.548 11.102)">
        <path id="Path_2009" data-name="Path 2009" d="M303.764,162.3h3.09a.2.2,0,0,1,.2.2v-1.19a.2.2,0,0,0-.2-.2h-3.09a.2.2,0,0,0-.2.2v1.19A.2.2,0,0,1,303.764,162.3Z" transform="translate(-303.565 -161.11)" fill="#72bffc" fill-rule="evenodd"/>
      </g>
      <g id="Group_594" data-name="Group 594" transform="translate(22.548 16.525)">
        <path id="Path_2010" data-name="Path 2010" d="M303.764,240.99h3.09a.2.2,0,0,1,.2.2V240a.2.2,0,0,0-.2-.2h-3.09a.2.2,0,0,0-.2.2v1.188A.2.2,0,0,1,303.764,240.99Z" transform="translate(-303.565 -239.8)" fill="#72bffc" fill-rule="evenodd"/>
      </g>
      <g id="Group_595" data-name="Group 595" transform="translate(15.872 16.525)">
        <path id="Path_2011" data-name="Path 2011" d="M206.878,240.99h3.09a.2.2,0,0,1,.2.2V240a.2.2,0,0,0-.2-.2h-3.09a.2.2,0,0,0-.2.2v1.188A.2.2,0,0,1,206.878,240.99Z" transform="translate(-206.679 -239.8)" fill="#72bffc" fill-rule="evenodd"/>
      </g>
      <g id="Group_596" data-name="Group 596" transform="translate(15.872 21.949)">
        <path id="Path_2012" data-name="Path 2012" d="M206.878,319.707h3.09a.2.2,0,0,1,.2.2v-1.19a.2.2,0,0,0-.2-.2h-3.09a.2.2,0,0,0-.2.2v1.19A.2.2,0,0,1,206.878,319.707Z" transform="translate(-206.679 -318.519)" fill="#72bffc" fill-rule="evenodd"/>
      </g>
      <g id="Group_597" data-name="Group 597" transform="translate(22.548 21.949)">
        <path id="Path_2013" data-name="Path 2013" d="M303.764,319.707h3.09a.2.2,0,0,1,.2.2v-1.19a.2.2,0,0,0-.2-.2h-3.09a.2.2,0,0,0-.2.2v1.19A.2.2,0,0,1,303.764,319.707Z" transform="translate(-303.565 -318.519)" fill="#72bffc" fill-rule="evenodd"/>
      </g>
      <g id="Group_598" data-name="Group 598" transform="translate(29.363 14.544)">
        <path id="Path_2014" data-name="Path 2014" d="M402.463,212.024h3.522a.335.335,0,0,1,.336.334v-.967a.336.336,0,0,0-.336-.336h-3.522Z" transform="translate(-402.463 -211.055)" fill="#72bffc" fill-rule="evenodd"/>
      </g>
      <g id="Group_599" data-name="Group 599" transform="translate(29.363 20.162)">
        <path id="Path_2015" data-name="Path 2015" d="M402.463,293.548h3.522a.335.335,0,0,1,.336.334v-.967a.336.336,0,0,0-.336-.334h-3.522Z" transform="translate(-402.463 -292.581)" fill="#72bffc" fill-rule="evenodd"/>
      </g>
      <g id="Group_600" data-name="Group 600" transform="translate(29.363 25.778)">
        <path id="Path_2016" data-name="Path 2016" d="M402.463,375.045h3.522a.336.336,0,0,1,.336.336v-.969a.336.336,0,0,0-.336-.334h-3.522Z" transform="translate(-402.463 -374.078)" fill="#72bffc" fill-rule="evenodd"/>
      </g>
      <g id="Group_601" data-name="Group 601" transform="translate(24.779 5.912)">
        <path id="Path_2017" data-name="Path 2017" d="M336.437,88.034h1.879v-1.74a.5.5,0,0,0-.5-.5h-1.881a.5.5,0,0,1,.5.5Z" transform="translate(-335.935 -85.793)" fill="#b6b1b7" fill-rule="evenodd"/>
      </g>
      <g id="Group_602" data-name="Group 602" transform="translate(10.617 11.846)">
        <path id="Path_2018" data-name="Path 2018" d="M130.428,178.2h1.928v-6.29l-1.928.879Z" transform="translate(-130.428 -171.91)" fill="#b6b1b7" fill-rule="evenodd"/>
      </g>
      <g id="Group_603" data-name="Group 603" transform="translate(10.617 19.13)">
        <path id="Path_2019" data-name="Path 2019" d="M130.428,277.614h1.928v1.61h-1.928Z" transform="translate(-130.428 -277.614)" fill="#72bffc" fill-rule="evenodd"/>
      </g>
      <g id="Group_604" data-name="Group 604" transform="translate(10.617 24.748)">
        <path id="Path_2020" data-name="Path 2020" d="M130.428,360.748h1.928v-1.61h-1.928Z" transform="translate(-130.428 -359.138)" fill="#72bffc" fill-rule="evenodd"/>
      </g>
      <g id="Group_605" data-name="Group 605" transform="translate(10.617 26.358)">
        <path id="Path_2021" data-name="Path 2021" d="M130.428,385.509h1.928V382.5h-1.928Z" transform="translate(-130.428 -382.497)" fill="#b6b1b7" fill-rule="evenodd"/>
      </g>
      <g id="Group_606" data-name="Group 606" transform="translate(10.617 30.364)">
        <path id="Path_2022" data-name="Path 2022" d="M130.428,442.245h1.928v-1.61h-1.928Z" transform="translate(-130.428 -440.635)" fill="#72bffc" fill-rule="evenodd"/>
      </g>
      <g id="Group_607" data-name="Group 607" transform="translate(10.617 20.74)">
        <path id="Path_2023" data-name="Path 2023" d="M130.428,300.972h1.928v3.012h-1.928Z" transform="translate(-130.428 -300.972)" fill="#b6b1b7" fill-rule="evenodd"/>
      </g>
      <g id="Group_608" data-name="Group 608" transform="translate(1.75)">
        <path id="Path_2024" data-name="Path 2024" d="M35.887,10.583H29.88V8.891a1.257,1.257,0,0,0-1.255-1.255h-.948V6.412A1.018,1.018,0,0,0,26.66,5.4h-.548V.517a.517.517,0,0,0-1.034,0V5.4H23.9V2.437a.517.517,0,1,0-1.034,0V5.4H15.249a1.018,1.018,0,0,0-1.017,1.017V7.634h-.948a1.257,1.257,0,0,0-1.255,1.255v2.623L8.264,13.23a.517.517,0,1,0,.429.94l3.336-1.52v4.969H6.361a.852.852,0,0,0-.851.851v1.936a.852.852,0,0,0,.851.851h5.667v1.978H6.361a.853.853,0,0,0-.851.853v1.934a.853.853,0,0,0,.851.853h5.667v1.978H6.361a.852.852,0,0,0-.851.851V31.64a.852.852,0,0,0,.851.851h5.667v1.758H2.784V17.1c0-.2.183-.322.733-.574l2.994-1.365a.517.517,0,0,0-.429-.941L3.1,15.58l-.016.007c-.564.258-1.337.611-1.337,1.514V34.443a.839.839,0,0,0,.837.839h33.3a.906.906,0,0,0,.9-.906V11.487a.9.9,0,0,0-.9-.9ZM29.88,15.061H32.7v1.572H29.88Zm0,5.618H32.7v1.57H29.88Zm0,5.616H32.7v1.57H29.88ZM6.544,20.223v-1.57h5.485v1.57Zm0,5.618V24.269h5.485v1.572Zm0,5.616v-1.57h5.485v1.57ZM13.062,8.891a.225.225,0,0,1,.222-.222l6.577-.01a.517.517,0,0,0,0-1.034h0l-4.594.007v-1.2H26.643V7.636H22.255a.517.517,0,0,0,0,1.034h6.37a.225.225,0,0,1,.222.222V34.248H24.8V29.094h1.089a.517.517,0,1,0,0-1.034h-9.86a.517.517,0,0,0,0,1.034h1.089v5.155H13.062V8.891Zm5.084,20.2h2.291v5.155H18.146Zm3.325,5.155V29.094h2.291v5.155Zm14.286,0H29.88V28.9h3a.853.853,0,0,0,.853-.851V26.112a.853.853,0,0,0-.853-.851h-3V23.283h3a.853.853,0,0,0,.853-.851V20.5a.853.853,0,0,0-.853-.851h-3V17.667h3a.854.854,0,0,0,.853-.853V14.88a.854.854,0,0,0-.853-.853h-3v-2.41h5.877Z" transform="translate(-1.75)"/>
        <path id="Path_2025" data-name="Path 2025" d="M199.894,157.4h3.09a.717.717,0,0,0,.716-.716v-2.354a.717.717,0,0,0-.716-.716h-3.09a.717.717,0,0,0-.716.716v2.354A.717.717,0,0,0,199.894,157.4Zm.318-2.752h2.455v1.719h-2.455Z" transform="translate(-185.573 -143.024)"/>
        <path id="Path_2026" data-name="Path 2026" d="M296.78,157.4h3.09a.717.717,0,0,0,.716-.716v-2.354a.717.717,0,0,0-.716-.716h-3.09a.717.717,0,0,0-.716.716v2.354A.717.717,0,0,0,296.78,157.4Zm.318-2.752h2.455v1.719H297.1Z" transform="translate(-275.783 -143.024)"/>
        <path id="Path_2027" data-name="Path 2027" d="M199.894,236.086h3.09a.717.717,0,0,0,.716-.716v-2.352a.718.718,0,0,0-.716-.718h-3.09a.718.718,0,0,0-.716.718v2.352A.717.717,0,0,0,199.894,236.086Zm.318-2.752h2.455v1.719h-2.455Z" transform="translate(-185.573 -216.292)"/>
        <path id="Path_2028" data-name="Path 2028" d="M296.78,236.086h3.09a.717.717,0,0,0,.716-.716v-2.352a.718.718,0,0,0-.716-.718h-3.09a.718.718,0,0,0-.716.718v2.352A.717.717,0,0,0,296.78,236.086Zm.318-2.752h2.455v1.719H297.1Z" transform="translate(-275.783 -216.292)"/>
        <path id="Path_2029" data-name="Path 2029" d="M199.894,314.8h3.09a.717.717,0,0,0,.716-.716v-2.354a.717.717,0,0,0-.716-.716h-3.09a.717.717,0,0,0-.716.716v2.354A.717.717,0,0,0,199.894,314.8Zm.318-2.752h2.455v1.719h-2.455Z" transform="translate(-185.573 -289.586)"/>
        <path id="Path_2030" data-name="Path 2030" d="M296.78,314.8h3.09a.717.717,0,0,0,.716-.716v-2.354a.717.717,0,0,0-.716-.716h-3.09a.717.717,0,0,0-.716.716v2.354A.717.717,0,0,0,296.78,314.8Zm.318-2.752h2.455v1.719H297.1Z" transform="translate(-275.783 -289.586)"/>
      </g>
    </g>
    <g id="Group_615" data-name="Group 615" transform="translate(44.819 -388.261)">
      <path id="Path_2037" data-name="Path 2037" d="M33.224,609.627c0,4.1.011,4.1-.026,4.322a1.9,1.9,0,0,0-2.969,1.521v.137H16.26v.154a1.9,1.9,0,0,1-3.231,1.306L9.22,613.349a3.093,3.093,0,0,1,0-4.451l3.808-3.717a1.9,1.9,0,0,1,3.231,1.306v1.143H31.228a2,2,0,0,1,2,2Z" transform="translate(-7.775 -7.797)" fill="#ffe773"/>
      <g id="Group_612" data-name="Group 612" transform="translate(3.503 603.93)">
        <path id="Path_2038" data-name="Path 2038" d="M421.162,721.978Z" transform="translate(-399.217 -721.978)" fill="#f4da6e"/>
        <path id="Path_2039" data-name="Path 2039" d="M79.917,721.978c-.284.269-2.2,0-3.1.649a6.3,6.3,0,0,1-4.13,1.338c-2.293-.019-4.719.443-6.786-.548-.971-.465-1.932-1.255-2.984-1.032-1.382.294-1.852,2.091-3.062,2.821a3.452,3.452,0,0,1-1.88.4l1.75,1.708a1.9,1.9,0,0,0,3.231-1.306v-.154H79.918v-2.131C79.919,723.439,79.917,722.938,79.917,721.978Z" transform="translate(-57.972 -721.978)" fill="#f4da6e"/>
      </g>
      <g id="Group_613" data-name="Group 613" transform="translate(2.496 602.33)">
        <path id="Path_2040" data-name="Path 2040" d="M42.012,698.047a1.093,1.093,0,0,0,.466.287.539.539,0,0,0,.515-.119.547.547,0,0,0,.118-.495c-.085-.392-.415-.585-.508-.888a2.445,2.445,0,0,1-.03-.567.829.829,0,0,0-.425-.7c-1.01-.488-1.191,1.478-.137,2.483Z" transform="translate(-41.302 -695.487)" fill="#fff"/>
      </g>
      <g id="Group_614" data-name="Group 614" transform="translate(0 596.339)">
        <path id="Path_2041" data-name="Path 2041" d="M8.483,600.333H23.452a.5.5,0,0,0,0-1H8.982v-.644A2.4,2.4,0,0,0,4.9,597.028L1.1,600.744a3.591,3.591,0,0,0,0,5.165L4.9,609.626a2.4,2.4,0,0,0,4.052-1.31l8.944-.006h5.552a.5.5,0,0,0,0-1h-1.47v0l-4.159,0H15.57l-6.588,0v-1.5a.5.5,0,0,0-1,0v2.141a1.4,1.4,0,0,1-2.383.949l-3.808-3.716a2.593,2.593,0,0,1,0-3.736L5.6,597.742a1.4,1.4,0,0,1,2.383.949v1.143A.5.5,0,0,0,8.483,600.333Z" transform="translate(0 -596.339)"/>
        <path id="Path_2042" data-name="Path 2042" d="M2.509,860.623h-2a.5.5,0,1,0,0,1h2a.5.5,0,1,0,0-1Z" transform="translate(-0.013 -844.654)"/>
        <path id="Path_2043" data-name="Path 2043" d="M448.919,646.424a.5.5,0,0,0-.5-.5h-2a.5.5,0,0,0,0,1h2A.5.5,0,0,0,448.919,646.424Z" transform="translate(-418.981 -642.929)"/>
        <path id="Path_2044" data-name="Path 2044" d="M480.452,703.729h-1a.5.5,0,0,0,0,1h1a.5.5,0,1,0,0-1Z" transform="translate(-450.015 -697.24)"/>
      </g>
    </g>
  </g>
</svg>
