<svg xmlns="http://www.w3.org/2000/svg" width="54.769" height="54.777" viewBox="0 0 54.769 54.777">
  <g id="sodimac__tamizaje" transform="translate(-8.512 -9.02)">
    <path id="Path_2309" data-name="Path 2309" d="M69.672,18.273a2.738,2.738,0,1,0,2.738,2.738,2.738,2.738,0,0,0-2.738-2.738Zm0,3.651a.913.913,0,1,1,.913-.913.913.913,0,0,1-.913.913Zm0,0" transform="translate(-41.078 -6.506)" fill="#0054a2"/>
    <rect id="Rectangle_304" data-name="Rectangle 304" width="3.651" height="1.826" transform="translate(16.727 37.325)" fill="#0054a2"/>
    <rect id="Rectangle_305" data-name="Rectangle 305" width="13.692" height="1.826" transform="translate(22.204 37.325)" fill="#0054a2"/>
    <rect id="Rectangle_306" data-name="Rectangle 306" width="3.651" height="1.826" transform="translate(16.727 42.802)" fill="#0054a2"/>
    <rect id="Rectangle_307" data-name="Rectangle 307" width="3.651" height="1.826" transform="translate(16.727 48.279)" fill="#0054a2"/>
    <g id="Group_692" data-name="Group 692" transform="translate(8.512 9.02)">
      <rect id="Rectangle_308" data-name="Rectangle 308" width="3.651" height="1.826" transform="translate(8.215 44.736)" fill="#0054a2"/>
      <path id="Path_2310" data-name="Path 2310" d="M62.368,39.151h-.913a13.793,13.793,0,0,1-8.215-2.739l-2.19-1.643a.9.9,0,0,0-1.1,0l-1.278.959V17.244a2.747,2.747,0,0,0-2.738-2.739H38.471A2.748,2.748,0,0,0,35.9,12.68H33.761a5.477,5.477,0,0,0-10.333,0H21.291a2.748,2.748,0,0,0-2.574,1.825H11.251a2.747,2.747,0,0,0-2.739,2.739V61.059A2.747,2.747,0,0,0,11.251,63.8H45.937a2.754,2.754,0,0,0,2.145-1.049l2.026.958a.888.888,0,0,0,.784,0L58.909,59.9a8.18,8.18,0,0,0,4.372-7.257V40.064a.913.913,0,0,0-.913-.913ZM38.635,16.331h7.3a.913.913,0,0,1,.913.913v19.8A13.955,13.955,0,0,1,45.024,38V19.069a.913.913,0,0,0-.913-.913H38.635Zm-18.256-.913a.913.913,0,0,1,.913-.913h2.83a.9.9,0,0,0,.894-.73,3.651,3.651,0,0,1,7.156,0,.9.9,0,0,0,.894.73H35.9a.913.913,0,0,1,.913.913v3.651H20.379ZM19.466,20.9H37.722a.913.913,0,0,0,.913-.913H43.2V38.64a13.716,13.716,0,0,1-3.651.511h-.913a.913.913,0,0,0-.913.913V42.8H22.2v1.825H37.722v3.651H22.2V50.1H37.722v2.538a8.945,8.945,0,0,0,.073,1.114H22.2v1.826H38.279a8.247,8.247,0,0,0,1.744,2.738H13.989V19.982h4.564a.913.913,0,0,0,.913.913ZM45.937,61.971H11.251a.913.913,0,0,1-.913-.913V17.244a.913.913,0,0,1,.913-.913h7.3v1.825H13.076a.913.913,0,0,0-.913.913V59.233a.913.913,0,0,0,.913.913H42.615l3.67,1.744a.93.93,0,0,1-.347.082Zm15.518-9.329a6.346,6.346,0,0,1-3.368,5.623L50.5,61.871l-7.567-3.6a6.365,6.365,0,0,1-3.387-5.632V40.977a15.61,15.61,0,0,0,9.311-3.1L50.5,36.641l1.643,1.233a15.608,15.608,0,0,0,9.31,3.1Zm0,0" transform="translate(-8.512 -9.02)" fill="#0054a2"/>
    </g>
    <path id="Path_2311" data-name="Path 2311" d="M66.5,58.821H63.762V56.083a.913.913,0,0,0-.913-.913H59.2a.913.913,0,0,0-.913.913v2.739H55.547a.913.913,0,0,0-.913.913v3.651a.913.913,0,0,0,.913.913h2.738v2.739a.913.913,0,0,0,.913.913h3.651a.913.913,0,0,0,.913-.913V64.3H66.5a.913.913,0,0,0,.913-.913V59.734a.913.913,0,0,0-.913-.913Zm-.913,3.651H62.849a.913.913,0,0,0-.913.913v2.738H60.111V63.386a.913.913,0,0,0-.913-.913H56.46V60.647H59.2a.913.913,0,0,0,.913-.913V57h1.826v2.738a.913.913,0,0,0,.913.913h2.739Zm0,0" transform="translate(-32.43 -32.45)" fill="#0054a2"/>
    <path id="Path_2312" data-name="Path 2312" d="M136.685,113.961a17.372,17.372,0,0,1-7.8-3.268.9.9,0,0,0-1.1,0,17.372,17.372,0,0,1-7.8,3.268.921.921,0,0,0-.776.9V124a4.558,4.558,0,0,0,2.355,3.989l.055.027,6.326,3a.886.886,0,0,0,.784,0l6.381-3.031A4.569,4.569,0,0,0,137.461,124v-9.137a.921.921,0,0,0-.776-.9ZM135.635,124a2.7,2.7,0,0,1-1.369,2.364l-5.933,2.821-5.915-2.8A2.737,2.737,0,0,1,121.03,124v-8.37a19.259,19.259,0,0,0,7.3-3.085,19.258,19.258,0,0,0,7.3,3.085Zm0,0" transform="translate(-77.832 -71.359)" fill="#0054a2"/>
    <path id="Path_2313" data-name="Path 2313" d="M133.7,137.505,132.4,138.8l2.738,2.738a.913.913,0,0,0,1.291,0l7.3-7.3-1.29-1.291-6.657,6.657Zm0,0" transform="translate(-87.113 -87.133)" fill="#0054a2"/>
  </g>
</svg>
