<svg xmlns="http://www.w3.org/2000/svg" width="49.426" height="49.429" viewBox="0 0 49.426 49.429">
  <g id="sodimac__logout" transform="translate(-6.087 -10.177)">
    <path id="Path_2307" data-name="Path 2307" d="M81.211,10.177H58.262a5.3,5.3,0,0,0-5.3,5.3V26.065a1.765,1.765,0,0,0,3.531,0V15.473a1.765,1.765,0,0,1,1.765-1.765H81.211a1.766,1.766,0,0,1,1.765,1.765V54.31a1.766,1.766,0,0,1-1.765,1.765H58.262A1.765,1.765,0,0,1,56.5,54.31V43.718a1.765,1.765,0,0,0-3.531,0V54.31a5.3,5.3,0,0,0,5.3,5.3H81.211a5.3,5.3,0,0,0,5.3-5.3V15.473A5.3,5.3,0,0,0,81.211,10.177Z" transform="translate(-30.994)" fill="#0054a2"/>
    <path id="Path_2308" data-name="Path 2308" d="M6.221,61.813a1.765,1.765,0,0,0,0,1.349,1.746,1.746,0,0,0,.383.575l8.826,8.827a1.765,1.765,0,0,0,2.54-2.453l-.043-.044-5.815-5.815H41.391a1.765,1.765,0,1,0,0-3.53H12.112l5.813-5.813a1.765,1.765,0,0,0-2.5-2.5L6.6,61.24A1.747,1.747,0,0,0,6.221,61.813Z" transform="translate(0 -27.596)" fill="#0054a2"/>
  </g>
</svg>
