<svg id="sos" xmlns="http://www.w3.org/2000/svg" width="60.558" height="60.558" viewBox="0 0 60.558 60.558">
  <path id="Path_1954" data-name="Path 1954" d="M392.034,0h-3.655V60.558h3.655A11,11,0,0,0,403,49.592V10.966A11,11,0,0,0,392.034,0Z" transform="translate(-342.443)" fill="#e0230d"/>
  <path id="Path_1955" data-name="Path 1955" d="M56.9,10.966V49.591A11,11,0,0,1,45.936,60.558H10.966A11,11,0,0,1,0,49.592V10.966A11,11,0,0,1,10.966,0h34.97A11,11,0,0,1,56.9,10.966Z" fill="#ff5440"/>
  <g id="Group_547" data-name="Group 547" transform="translate(7.25 16.754)">
    <path id="Path_1956" data-name="Path 1956" d="M67.753,168.7a6.465,6.465,0,0,1-6.458-6.458,1.828,1.828,0,1,1,3.655,0,2.8,2.8,0,0,0,5.6,0V159.8a2.806,2.806,0,0,0-2.8-2.8,6.465,6.465,0,0,1-6.458-6.458v-2.437a6.458,6.458,0,1,1,12.916,0,1.828,1.828,0,0,1-3.655,0,2.8,2.8,0,0,0-5.6,0v2.437a2.806,2.806,0,0,0,2.8,2.8,6.465,6.465,0,0,1,6.458,6.458v2.437A6.465,6.465,0,0,1,67.753,168.7Z" transform="translate(-61.295 -141.648)" fill="#fff"/>
    <path id="Path_1957" data-name="Path 1957" d="M347.963,168.7a6.465,6.465,0,0,1-6.458-6.458,1.828,1.828,0,1,1,3.655,0,2.8,2.8,0,0,0,5.6,0V159.8a2.805,2.805,0,0,0-2.8-2.8,6.465,6.465,0,0,1-6.458-6.458v-2.437a6.458,6.458,0,1,1,12.916,0,1.828,1.828,0,1,1-3.655,0,2.8,2.8,0,0,0-5.6,0v2.437a2.805,2.805,0,0,0,2.8,2.8,6.465,6.465,0,0,1,6.458,6.458v2.437A6.465,6.465,0,0,1,347.963,168.7Z" transform="translate(-308.363 -141.648)" fill="#fff"/>
    <path id="Path_1958" data-name="Path 1958" d="M207.858,168.7a6.465,6.465,0,0,1-6.458-6.458V148.107a6.458,6.458,0,0,1,12.916,0v14.134A6.465,6.465,0,0,1,207.858,168.7Zm0-23.395a2.806,2.806,0,0,0-2.8,2.8v14.134a2.8,2.8,0,0,0,5.6,0V148.107A2.806,2.806,0,0,0,207.858,145.3Z" transform="translate(-184.829 -141.649)" fill="#fff"/>
  </g>
</svg>
