<svg xmlns="http://www.w3.org/2000/svg" width="87.139" height="87.139" viewBox="0 0 87.139 87.139">
  <path id="spinner" d="M51.739,8.169A8.169,8.169,0,1,1,43.569,0,8.169,8.169,0,0,1,51.739,8.169ZM43.569,70.8a8.169,8.169,0,1,0,8.169,8.169A8.169,8.169,0,0,0,43.569,70.8Zm35.4-35.4a8.169,8.169,0,1,0,8.169,8.169A8.169,8.169,0,0,0,78.969,35.4ZM16.339,43.569a8.169,8.169,0,1,0-8.169,8.169A8.169,8.169,0,0,0,16.339,43.569Zm2.2,16.862A8.169,8.169,0,1,0,26.707,68.6,8.169,8.169,0,0,0,18.538,60.432Zm50.063,0A8.169,8.169,0,1,0,76.77,68.6,8.169,8.169,0,0,0,68.6,60.432ZM18.538,10.368a8.169,8.169,0,1,0,8.169,8.169,8.169,8.169,0,0,0-8.169-8.169Z" fill="#202020"/>
</svg>
