<svg xmlns="http://www.w3.org/2000/svg" width="67.945" height="53.727" viewBox="0 0 67.945 53.727">
  <g id="taxi" transform="translate(0 -53.571)">
    <g id="Group_620" data-name="Group 620" transform="translate(0 69.045)">
      <path id="Path_2098" data-name="Path 2098" d="M435.409,170.178h-3.821a3.082,3.082,0,0,0-3.079,3.079v2.972l-1.269,3.432,1.95.721,1.083-2.928h4.018a4.2,4.2,0,0,0,4.2-4.2A3.082,3.082,0,0,0,435.409,170.178Z" transform="translate(-370.543 -170.178)" fill="#e5ba03"/>
      <path id="Path_2099" data-name="Path 2099" d="M9.979,173.257A3.082,3.082,0,0,0,6.9,170.178H3.079A3.082,3.082,0,0,0,0,173.257a4.2,4.2,0,0,0,4.2,4.2H8.215L9.3,180.382l1.95-.721-1.269-3.432v-2.972Z" transform="translate(0 -170.178)" fill="#e5ba03"/>
    </g>
    <path id="Path_2100" data-name="Path 2100" d="M180.3,53.571H157.853l-2.079,10.558h26.6Z" transform="translate(-135.102)" fill="#f9ca00"/>
    <g id="Group_621" data-name="Group 621" transform="translate(3.967 93.962)">
      <path id="Path_2101" data-name="Path 2101" d="M29.893,364.166v9.787a2.071,2.071,0,0,0,2.071,2.071h7.986a2.071,2.071,0,0,0,2.071-2.071V363.414" transform="translate(-29.893 -362.687)" fill="#2b2a32"/>
      <path id="Path_2102" data-name="Path 2102" d="M390.73,358.666V369.2a2.071,2.071,0,0,0,2.071,2.071h7.986a2.071,2.071,0,0,0,2.071-2.071V357.939" transform="translate(-342.845 -357.939)" fill="#2b2a32"/>
    </g>
    <path id="Path_2103" data-name="Path 2103" d="M174.836,381.351H152.385a2.911,2.911,0,0,1-2.911-2.911h0l18.65-2.494,9.623,2.494h0A2.911,2.911,0,0,1,174.836,381.351Z" transform="translate(-129.638 -279.594)" fill="#0d1b24"/>
    <path id="Path_2104" data-name="Path 2104" d="M76.071,244.354h-55.9a3.859,3.859,0,0,0-3.859,3.859v11.941H79.93V248.213A3.859,3.859,0,0,0,76.071,244.354Z" transform="translate(-14.151 -165.465)" fill="#f9ca00"/>
    <path id="Path_2105" data-name="Path 2105" d="M26.365,244.354H20.175a3.859,3.859,0,0,0-3.859,3.859v11.941h6.191V248.213A3.859,3.859,0,0,1,26.365,244.354Z" transform="translate(-14.151 -165.465)" fill="#e5ba03"/>
    <rect id="Rectangle_252" data-name="Rectangle 252" width="31.599" height="6.029" transform="translate(18.173 82.558)" fill="#616970"/>
    <path id="Path_2106" data-name="Path 2106" d="M68.038,344.755v3.453a1.7,1.7,0,0,1-1.7,1.7H1.827a1.7,1.7,0,0,1-1.7-1.7v-3.453a1.7,1.7,0,0,1,1.7-1.7H66.335A1.7,1.7,0,0,1,68.038,344.755Z" transform="translate(-0.108 -251.066)" fill="#8292a3"/>
    <path id="Path_2107" data-name="Path 2107" d="M100.041,344.755v3.453a1.7,1.7,0,0,1-1.7,1.7H38.727a1.7,1.7,0,0,1-1.7-1.7v-3.453a1.7,1.7,0,0,1,1.7-1.7H98.338A1.7,1.7,0,0,1,100.041,344.755Z" transform="translate(-32.111 -251.066)" fill="#9aa7b8"/>
    <path id="Path_2108" data-name="Path 2108" d="M124.808,147.892h-47.4l3.867-11.611a4.6,4.6,0,0,1,4.367-3.149h30.931a4.6,4.6,0,0,1,4.367,3.149Z" transform="translate(-67.136 -69.003)" fill="#c0eaf9"/>
    <path id="Path_2109" data-name="Path 2109" d="M125.774,169.632H78.724l2.872-8.284a4.779,4.779,0,0,1,4.548-3.149h32.212a4.78,4.78,0,0,1,4.548,3.149Z" transform="translate(-68.277 -90.743)" fill="#a0d9f2"/>
    <path id="Path_2110" data-name="Path 2110" d="M115.561,142.408l-4.194-12.6a3.559,3.559,0,0,0-3.381-2.438H77.054a3.559,3.559,0,0,0-3.381,2.438l-4.194,12.6-1.973-.657,4.194-12.6a5.635,5.635,0,0,1,5.353-3.86h30.933a5.635,5.635,0,0,1,5.354,3.86l4.194,12.6Z" transform="translate(-58.548 -62.205)" fill="#f9ca00"/>
    <path id="Path_2111" data-name="Path 2111" d="M161.747,272.279h-31.6a1.039,1.039,0,0,1-1.039-1.039V265.21a1.039,1.039,0,0,1,1.039-1.039h31.6a1.039,1.039,0,0,1,1.039,1.039v6.029A1.039,1.039,0,0,1,161.747,272.279Zm-30.56-2.079h29.52v-3.95h-29.52Z" transform="translate(-111.975 -182.652)" fill="#e5ba03"/>
    <g id="Group_622" data-name="Group 622" transform="translate(5.699 84.017)">
      <rect id="Rectangle_253" data-name="Rectangle 253" width="8.731" height="4.574" transform="translate(47.814 0)" fill="#feffff"/>
      <rect id="Rectangle_254" data-name="Rectangle 254" width="8.731" height="4.574" transform="translate(0 0)" fill="#feffff"/>
    </g>
    <g id="Group_623" data-name="Group 623" transform="translate(24.7 55.665)">
      <path id="Path_2112" data-name="Path 2112" d="M190.546,69.77c.3,0,.434.332.434.637,0,.351-.157.655-.434.655h-1.273v5.01c0,.3-.36.443-.72.443s-.72-.148-.72-.443v-5.01H186.56c-.277,0-.434-.3-.434-.655,0-.3.129-.637.434-.637Z" transform="translate(-186.126 -69.715)" fill="#2b2a32"/>
      <path id="Path_2113" data-name="Path 2113" d="M222.628,75.563a.48.48,0,0,1,.018-.1l1.716-5.629c.1-.323.517-.48.941-.48s.84.157.941.48l1.725,5.629a.474.474,0,0,1,.018.1c0,.341-.526.591-.923.591-.231,0-.415-.074-.471-.268l-.314-1.153h-1.947l-.314,1.153c-.055.194-.24.268-.471.268C223.154,76.153,222.628,75.9,222.628,75.563Zm3.349-1.938-.674-2.473-.674,2.473Z" transform="translate(-217.784 -69.353)" fill="#2b2a32"/>
      <path id="Path_2114" data-name="Path 2114" d="M269.98,73.773l-1.347,2.288a.388.388,0,0,1-.341.148c-.4,0-.96-.314-.96-.71a.5.5,0,0,1,.083-.258l1.6-2.464-1.532-2.454a.522.522,0,0,1-.092-.286c0-.387.526-.683.932-.683a.449.449,0,0,1,.434.24l1.227,2.141,1.227-2.141a.449.449,0,0,1,.434-.24c.406,0,.932.3.932.683a.522.522,0,0,1-.092.286l-1.532,2.454,1.6,2.464a.5.5,0,0,1,.083.258c0,.4-.563.71-.96.71a.377.377,0,0,1-.341-.148Z" transform="translate(-256.556 -69.353)" fill="#2b2a32"/>
      <path id="Path_2115" data-name="Path 2115" d="M315.027,70.2c0-.3.36-.434.72-.434s.72.129.72.434v5.868c0,.3-.36.443-.72.443s-.72-.148-.72-.443Z" transform="translate(-297.921 -69.715)" fill="#2b2a32"/>
    </g>
    <g id="Group_624" data-name="Group 624" transform="translate(17.134 82.558)">
      <rect id="Rectangle_255" data-name="Rectangle 255" width="2.079" height="6.029" transform="translate(0 0)" fill="#e5ba03"/>
      <rect id="Rectangle_256" data-name="Rectangle 256" width="2.079" height="6.029" transform="translate(5.265 0)" fill="#e5ba03"/>
      <rect id="Rectangle_257" data-name="Rectangle 257" width="2.079" height="6.029" transform="translate(10.532 0)" fill="#e5ba03"/>
      <rect id="Rectangle_258" data-name="Rectangle 258" width="2.079" height="6.029" transform="translate(15.799 0)" fill="#e5ba03"/>
      <rect id="Rectangle_259" data-name="Rectangle 259" width="2.079" height="6.029" transform="translate(21.066 0)" fill="#e5ba03"/>
      <rect id="Rectangle_260" data-name="Rectangle 260" width="2.079" height="6.029" transform="translate(26.333 0)" fill="#e5ba03"/>
      <rect id="Rectangle_261" data-name="Rectangle 261" width="2.079" height="6.029" transform="translate(31.599 0)" fill="#e5ba03"/>
    </g>
  </g>
</svg>
