<svg id="td11" xmlns="http://www.w3.org/2000/svg" width="71.653" height="71.653" viewBox="0 0 71.653 71.653">
  <g id="Group_111" data-name="Group 111" transform="translate(11.557 1.156)">
    <g id="Group_98" data-name="Group 98" transform="translate(9.246 62.408)">
      <path id="Path_206" data-name="Path 206" d="M-2839.971-1227.138v6.934h-23.114v-6.934h23.114Z" transform="translate(2863.085 1227.138)" fill="#fcd770"/>
    </g>
    <g id="Group_99" data-name="Group 99" transform="translate(0 35.075)">
      <path id="Path_207" data-name="Path 207" d="M-2894.725-1400.563v4.623h-8.09l-1.33-1.33a3.36,3.36,0,0,0-2.369-.982,3.35,3.35,0,0,0-3.005,1.861l-.23.451h-8.09v-4.623h-9.246v-3.7a11.859,11.859,0,0,1,4.265-9.107,11.9,11.9,0,0,1,6.114-2.647l2.542-.323,3.259,6.53,4.623-3.467,4.623,3.467,3.259-6.53,2.542.323a11.9,11.9,0,0,1,6.113,2.647,11.84,11.84,0,0,1,3.144,4.08,11.873,11.873,0,0,1,1.121,5.027v3.7Z" transform="translate(2927.085 1416.338)" fill="#fcd770"/>
    </g>
    <g id="Group_100" data-name="Group 100" transform="translate(12.921 34.671)">
      <path id="Path_208" data-name="Path 208" d="M-2829.763-1415.671l-4.623,3.467-3.259-6.53,3.259-.4Z" transform="translate(2837.645 1419.138)" fill="#b4dd7f"/>
    </g>
    <g id="Group_101" data-name="Group 101" transform="translate(20.803 34.671)">
      <path id="Path_209" data-name="Path 209" d="M-2775.2-1418.734l-3.259,6.53-4.623-3.467,4.623-3.467Z" transform="translate(2783.085 1419.138)" fill="#b4dd7f"/>
    </g>
    <g id="Group_102" data-name="Group 102" transform="translate(5.778 0)">
      <path id="Path_210" data-name="Path 210" d="M-2863.023-1646.61a4.666,4.666,0,0,1-3.259,1.341h-.3a28.3,28.3,0,0,1-10.563-2.034,3.864,3.864,0,0,0-1.445-.278,3.89,3.89,0,0,0-2.739,1.132,3.918,3.918,0,0,0-1.132,2.751v1.9h-1.156a3.435,3.435,0,0,0-2.369.936l-.729-2.924a12.515,12.515,0,0,1-.37-3,12.341,12.341,0,0,1,12.343-12.343h5.362a12.309,12.309,0,0,1,8.726,3.617,12.306,12.306,0,0,1,3.617,8.725,12.515,12.515,0,0,1-.37,3l-.728,2.924a3.438,3.438,0,0,0-2.37-.936h-1.155v-1.075a5.8,5.8,0,0,0-1.364-3.733Z" transform="translate(2887.085 1659.138)" fill="#656d78"/>
    </g>
    <g id="Group_103" data-name="Group 103" transform="translate(40.449 9.246)">
      <path id="Path_211" data-name="Path 211" d="M-2628.594-1592.827v11.557a2.319,2.319,0,0,1-2.312,2.312h-8.968a2.312,2.312,0,0,0-2.069,1.283l-1.086,2.161a2.142,2.142,0,0,1-1.919,1.179,2.14,2.14,0,0,1-2.137-2.138v-16.353a2.318,2.318,0,0,1,2.312-2.311h13.868a2.318,2.318,0,0,1,2.312,2.311Z" transform="translate(2647.085 1595.138)" fill="#e6e9ed"/>
    </g>
    <g id="Group_104" data-name="Group 104" transform="translate(47.384 13.868)">
      <path id="Path_212" data-name="Path 212" d="M-2594.462-1558.515a2.318,2.318,0,0,1-2.312,2.311,2.318,2.318,0,0,1-2.311-2.311c0-1.156,2.311-4.623,2.311-4.623S-2594.462-1559.671-2594.462-1558.515Z" transform="translate(2599.085 1563.138)" fill="#ff826e"/>
    </g>
    <g id="Group_105" data-name="Group 105" transform="translate(16.18 30.291)">
      <path id="Path_213" data-name="Path 213" d="M-2805.84-1449.458v4.38l-4.623,3.467-4.623-3.467v-4.38a9.932,9.932,0,0,0,4.149.913h.937A10.022,10.022,0,0,0-2805.84-1449.458Z" transform="translate(2815.085 1449.458)" fill="#f0d0b4"/>
    </g>
    <g id="Group_106" data-name="Group 106" transform="translate(30.742 17.335)">
      <path id="Path_214" data-name="Path 214" d="M-2710.217-1533.221a3.459,3.459,0,0,1-2.45,1.017h-1.618c.462-2.82.462-2.912.462-3v-3.929h1.156a3.439,3.439,0,0,1,2.369.936,3.448,3.448,0,0,1,1.1,2.531,3.459,3.459,0,0,1-1.017,2.45Z" transform="translate(2714.285 1539.138)" fill="#f0d0b4"/>
    </g>
    <g id="Group_107" data-name="Group 107" transform="translate(10.401 11.557)">
      <path id="Path_215" data-name="Path 215" d="M-2834.283-1569.43c0,.093,0,.185-.462,3l-1.214,2.508a9.953,9.953,0,0,1-4.1,3.513,10.024,10.024,0,0,1-4.161.913h-.936a9.93,9.93,0,0,1-4.149-.913c-.185-.081-.358-.173-.532-.266a9.922,9.922,0,0,1-3.571-3.247,10.073,10.073,0,0,1-1.213-2.508,10.084,10.084,0,0,1-.462-3v-5.825a3.916,3.916,0,0,1,1.132-2.75,3.889,3.889,0,0,1,2.739-1.133,3.87,3.87,0,0,1,1.444.277,28.291,28.291,0,0,0,10.563,2.034h.3a4.665,4.665,0,0,0,3.259-1.341,5.8,5.8,0,0,1,1.363,3.733v5Z" transform="translate(2855.085 1579.138)" fill="#f0d0b4"/>
    </g>
    <g id="Group_108" data-name="Group 108" transform="translate(5.778 17.335)">
      <path id="Path_216" data-name="Path 216" d="M-2882.462-1535.208a10.063,10.063,0,0,0,.462,3h-1.618a3.459,3.459,0,0,1-2.45-1.017,3.459,3.459,0,0,1-1.017-2.45,3.446,3.446,0,0,1,1.1-2.531,3.437,3.437,0,0,1,2.369-.936h1.156Z" transform="translate(2887.085 1539.138)" fill="#f0d0b4"/>
    </g>
    <g id="Group_109" data-name="Group 109" transform="translate(25.425 50.851)">
      <path id="Path_217" data-name="Path 217" d="M-2744.151-1302.515v-4.623h9.246v5.778a5.78,5.78,0,0,1-5.778,5.779h-10.4a3.462,3.462,0,0,0,3.466-3.467,3.457,3.457,0,0,0-1.017-2.45,3.457,3.457,0,0,0-2.45-1.017Z" transform="translate(2751.085 1307.138)" fill="#f0d0b4"/>
    </g>
    <g id="Group_110" data-name="Group 110" transform="translate(0 50.851)">
      <path id="Path_218" data-name="Path 218" d="M-2901.659-1302.515a3.459,3.459,0,0,1,2.45,1.017,3.458,3.458,0,0,1,1.016,2.45,3.462,3.462,0,0,1-3.466,3.467h-19.647a5.781,5.781,0,0,1-5.779-5.779v-5.778h9.246v4.623h8.09l.23-.451a3.35,3.35,0,0,1,3.005-1.861,3.359,3.359,0,0,1,2.369.982l1.33,1.329Z" transform="translate(2927.085 1307.138)" fill="#f0d0b4"/>
    </g>
  </g>
  <g id="Group_112" data-name="Group 112">
    <path id="Path_219" data-name="Path 219" d="M-2813.279-1487.548a4.676,4.676,0,0,0,3.331-1.379l.116-.115-1.634-1.634-.117.117a2.444,2.444,0,0,1-2.768.448l-.809-.4a4.791,4.791,0,0,0-5.434.877l-.114.115,1.625,1.643.12-.12a2.437,2.437,0,0,1,2.768-.448l.809.4a4.734,4.734,0,0,0,2.108.5Z" transform="translate(2847.633 1516.443)"/>
    <path id="Path_220" data-name="Path 220" d="M-2834.248-1545.794l-1.285,1.923,2.026,1.352-2.023,1.348,1.28,1.923,4.911-3.268Z" transform="translate(2860.316 1563.324)"/>
    <path id="Path_221" data-name="Path 221" d="M-2767.318-1541.171l-2.023-1.348,2.025-1.352-1.285-1.923-4.909,3.278,4.911,3.268Z" transform="translate(2807.252 1563.324)"/>
    <path id="Path_222" data-name="Path 222" d="M-2891.168-1618.825a12.973,12.973,0,0,0-4.681-9.993,12.982,12.982,0,0,0-6.715-2.914l-4.784-.6v-2.65a11.089,11.089,0,0,0,3.914-3.581,10.97,10.97,0,0,0,1.024-1.991h.84a4.628,4.628,0,0,0,4.623-4.623,4.575,4.575,0,0,0-.993-2.828l.589-2.354a13.5,13.5,0,0,0,.4-3.275,13.518,13.518,0,0,0-13.5-13.5h-5.352a13.518,13.518,0,0,0-13.5,13.5,13.431,13.431,0,0,0,.4,3.275l.588,2.355a4.572,4.572,0,0,0-.993,2.827,4.628,4.628,0,0,0,4.623,4.623h.84a11.224,11.224,0,0,0,1.024,1.991,11.075,11.075,0,0,0,3.915,3.581v2.65l-4.786.6a12.994,12.994,0,0,0-6.713,2.914,12.98,12.98,0,0,0-4.68,10v9.472a6.941,6.941,0,0,0,6.934,6.935h2.312v6.934h25.425v-6.934h2.312a6.941,6.941,0,0,0,6.935-6.935Zm-23.884-9.019-2.282,1.712-1.913-3.828,1.179-.147Zm6.869-2.263,1.179.147-1.913,3.828-2.284-1.712Zm6.614-12.758h-.168a11.165,11.165,0,0,0,.168-1.854v-2.769a2.314,2.314,0,0,1,2.312,2.311A2.314,2.314,0,0,1-2901.57-1642.865Zm-23.114,0a2.314,2.314,0,0,1-2.312-2.311,2.314,2.314,0,0,1,2.312-2.311v2.768a11.014,11.014,0,0,0,.17,1.855Zm0-7.681v.747a4.579,4.579,0,0,0-1.621.309l-.357-1.428a11.268,11.268,0,0,1-.334-2.715,11.206,11.206,0,0,1,11.193-11.193h5.352a11.206,11.206,0,0,1,11.192,11.193,11.282,11.282,0,0,1-.334,2.716l-.357,1.429a4.571,4.571,0,0,0-1.62-.309h-.005a6.945,6.945,0,0,0-1.054-3.6,5.755,5.755,0,0,0,1.06-3.333,5.785,5.785,0,0,0-5.778-5.779,5.785,5.785,0,0,0-5.779,5.779v1.156h2.312v-1.156a3.472,3.472,0,0,1,3.467-3.467,3.471,3.471,0,0,1,3.467,3.467,3.471,3.471,0,0,1-3.467,3.467h-.3a27.185,27.185,0,0,1-10.135-1.951,5.012,5.012,0,0,0-1.867-.361,5.037,5.037,0,0,0-5.032,5.032Zm3.788,10.7a8.756,8.756,0,0,1-1.477-4.876v-5.825a2.724,2.724,0,0,1,2.721-2.72,2.714,2.714,0,0,1,1.01.2,29.464,29.464,0,0,0,10.992,2.116h.3a5.746,5.746,0,0,0,2.979-.829,4.617,4.617,0,0,1,.487,2.067v5a8.751,8.751,0,0,1-1.476,4.874,8.763,8.763,0,0,1-7.3,3.911h-.937a8.759,8.759,0,0,1-7.3-3.91Zm7.3,6.221h.937a11.133,11.133,0,0,0,3-.427v2.16l-3.467,2.6-3.467-2.6v-2.161a11.02,11.02,0,0,0,2.995.426Zm-15.326,6.581a10.656,10.656,0,0,1,5.52-2.4l1.723-.215,3.517,7.034,5.037-3.778,5.037,3.778,3.517-7.034,1.723.215a10.672,10.672,0,0,1,5.521,2.4,10.667,10.667,0,0,1,3.848,8.217v2.539h-6.935v-4.623h-2.312v9.246h-6.456l-.988-.988a4.478,4.478,0,0,0-3.192-1.323,4.49,4.49,0,0,0-3.941,2.312h-6.225v-9.246h-2.311v4.623h-6.934v-2.538A10.665,10.665,0,0,1-2928.924-1627.043Zm-3.849,17.69v-4.623h6.934v2.312h-2.312v2.311h12.272l.545-1.092a2.19,2.19,0,0,1,1.971-1.219,2.189,2.189,0,0,1,1.559.646l1.666,1.665h1.634a2.314,2.314,0,0,1,2.312,2.312,2.314,2.314,0,0,1-2.312,2.311h-19.647A4.627,4.627,0,0,1-2932.773-1609.353Zm30.047,11.557h-20.8v-4.623h20.8Zm4.623-6.934h-6.421a4.576,4.576,0,0,0,.642-2.311,4.577,4.577,0,0,0-.642-2.312h6.421v-2.311h-2.312v-2.312h6.935v4.623A4.628,4.628,0,0,1-2898.1-1604.73Z" transform="translate(2945.486 1667.138)"/>
    <path id="Path_223" data-name="Path 223" d="M-2603.618-1577.562l-.961,1.442c-.753,1.13-2.506,3.905-2.506,5.264a3.471,3.471,0,0,0,3.467,3.467,3.471,3.471,0,0,0,3.467-3.467c0-1.359-1.752-4.134-2.505-5.264Zm0,7.862a1.153,1.153,0,0,1-1.155-1.144,9.781,9.781,0,0,1,1.155-2.449,9.868,9.868,0,0,1,1.156,2.445A1.157,1.157,0,0,1-2603.618-1569.7Z" transform="translate(2664.87 1590.502)"/>
    <path id="Path_224" data-name="Path 224" d="M-2637.75-1603.138h-13.869a3.471,3.471,0,0,0-3.467,3.467v16.349a3.3,3.3,0,0,0,3.3,3.3,3.282,3.282,0,0,0,2.951-1.824l1.08-2.16a1.148,1.148,0,0,1,1.034-.639h8.973a3.471,3.471,0,0,0,3.467-3.467v-11.557a3.471,3.471,0,0,0-3.467-3.467Zm1.155,15.024a1.156,1.156,0,0,1-1.155,1.156h-8.973a3.45,3.45,0,0,0-3.1,1.916l-1.081,2.16a.977.977,0,0,1-.882.547.989.989,0,0,1-.987-.987v-16.349a1.156,1.156,0,0,1,1.155-1.156h13.869a1.156,1.156,0,0,1,1.155,1.156Z" transform="translate(2705.936 1612.384)"/>
    <path id="Path_225" data-name="Path 225" d="M-3000.9-1278.83l.278-1.121a1.157,1.157,0,0,1,1.123-.876h.506v-2.311h-.506a3.464,3.464,0,0,0-3.364,2.626l-.279,1.121a1.159,1.159,0,0,1-1.123.876h-2.818v2.311h2.818A3.466,3.466,0,0,0-3000.9-1278.83Z" transform="translate(3007.085 1338.612)"/>
    <path id="Path_226" data-name="Path 226" d="M-3000.9-1342.83l.278-1.121a1.156,1.156,0,0,1,1.123-.876h.506v-2.311h-.506a3.464,3.464,0,0,0-3.364,2.626l-.279,1.121a1.159,1.159,0,0,1-1.123.876h-2.818v2.311h2.818A3.466,3.466,0,0,0-3000.9-1342.83Z" transform="translate(3007.085 1393.366)"/>
    <path id="Path_227" data-name="Path 227" d="M-2980.487-1233.91a3.938,3.938,0,0,0-2.19,3.542,1.641,1.641,0,0,1-.912,1.475l-3.071,1.536,1.034,2.067,3.072-1.536a3.937,3.937,0,0,0,2.189-3.542,1.64,1.64,0,0,1,.912-1.475l.761-.38-1.035-2.068Z" transform="translate(2989.611 1296.82)"/>
    <path id="Path_228" data-name="Path 228" d="M-2610.934-1279.39l-.281-1.123a3.462,3.462,0,0,0-3.364-2.625h-.506v2.311h.506a1.155,1.155,0,0,1,1.121.875l.281,1.123a3.462,3.462,0,0,0,3.364,2.625H-2607v-2.311h-2.818A1.153,1.153,0,0,1-2610.934-1279.39Z" transform="translate(2671.714 1338.612)"/>
    <path id="Path_229" data-name="Path 229" d="M-2610.934-1343.39l-.281-1.123a3.463,3.463,0,0,0-3.364-2.625h-.506v2.311h.506a1.154,1.154,0,0,1,1.121.875l.281,1.124a3.463,3.463,0,0,0,3.364,2.624H-2607v-2.311h-2.818A1.153,1.153,0,0,1-2610.934-1343.39Z" transform="translate(2671.714 1393.366)"/>
    <path id="Path_230" data-name="Path 230" d="M-2630.684-1230.367a3.937,3.937,0,0,0-2.19-3.542l-.76-.38-1.035,2.068.76.38a1.639,1.639,0,0,1,.913,1.475,3.938,3.938,0,0,0,2.19,3.542l3.072,1.536,1.034-2.067-3.072-1.536A1.64,1.64,0,0,1-2630.684-1230.367Z" transform="translate(2688.469 1296.82)"/>
  </g>
</svg>
