<svg xmlns="http://www.w3.org/2000/svg" width="37.666" height="62.544" viewBox="0 0 37.666 62.544">
  <g id="td12" transform="translate(-1169.918 1847.101)">
    <path id="Path_1467" data-name="Path 1467" d="M1242.76-1577.442h-17.9a3.255,3.255,0,0,0-3.255,3.255v24.207h24.414v-24.207A3.255,3.255,0,0,0,1242.76-1577.442Z" transform="translate(-45.057 -235.09)" fill="#6bdddd"/>
    <path id="Path_1468" data-name="Path 1468" d="M1175.515-1550.994l5.711,4v-12.274a3.245,3.245,0,0,1,.181-1.062l-6.022,8.6a.528.528,0,0,0,.13.736Z" transform="translate(-4.683 -250.008)" fill="#6bdddd"/>
    <path id="Path_1469" data-name="Path 1469" d="M1410.844-1552.135V-1547l5.711-4a.528.528,0,0,0,.13-.736l-6.019-8.6,0,0a3.245,3.245,0,0,1,.181,1.062v7.141Z" transform="translate(-209.882 -250.001)" fill="#6bdddd"/>
    <path id="Path_1470" data-name="Path 1470" d="M1242.528-1552.954h-24.414a.513.513,0,0,1-.513-.513v-24.207a3.772,3.772,0,0,1,3.768-3.768h17.9a3.772,3.772,0,0,1,3.768,3.768v24.207A.513.513,0,0,1,1242.528-1552.954Zm-23.9-1.026h23.389v-23.694a2.745,2.745,0,0,0-2.742-2.742h-17.9a2.745,2.745,0,0,0-2.742,2.742v23.694Z" transform="translate(-41.57 -231.602)"/>
    <path id="Path_1471" data-name="Path 1471" d="M1242.528-1563.509h-24.414a.513.513,0,0,1-.513-.513v-24.207a3.772,3.772,0,0,1,3.768-3.768H1224v-1.039a.512.512,0,0,1,.251-.441.512.512,0,0,1,.507-.009,11.489,11.489,0,0,0,4.713,1.381l.141.011.217.011c.329.014.662.015.99,0l.219-.011.138-.01a11.493,11.493,0,0,0,4.715-1.381.513.513,0,0,1,.507.009.512.512,0,0,1,.251.441V-1592h2.627a3.772,3.772,0,0,1,3.768,3.768v24.207a.512.512,0,0,1-.512.513Zm-23.9-1.026h23.389v-23.694a2.746,2.746,0,0,0-2.742-2.742h-3.145a.513.513,0,0,1-.368-.155.512.512,0,0,1-.145-.372l0-.056c0-.032,0-.065,0-.1v-.553a12.523,12.523,0,0,1-4.371,1.122l-.15.011-.238.012c-.356.016-.721.016-1.079,0l-.236-.012-.154-.011a12.518,12.518,0,0,1-4.369-1.122v.553c0,.034,0,.068,0,.1l0,.05a.513.513,0,0,1-.145.372.513.513,0,0,1-.368.155h-3.144a2.746,2.746,0,0,0-2.742,2.742Z" transform="translate(-41.57 -221.048)"/>
    <path id="Path_1472" data-name="Path 1472" d="M1403.616-1603.76a.513.513,0,0,1-.513-.513,4.621,4.621,0,0,0-4.616-4.615.513.513,0,0,1-.513-.513.513.513,0,0,1,.513-.513,5.647,5.647,0,0,1,5.641,5.641A.513.513,0,0,1,1403.616-1603.76Z" transform="translate(-198.821 -206.781)"/>
    <path id="Path_1473" data-name="Path 1473" d="M1397.935-1589.035a.513.513,0,0,1-.513-.513,3.06,3.06,0,0,0-3.057-3.057.513.513,0,0,1-.513-.512.513.513,0,0,1,.513-.513,4.087,4.087,0,0,1,4.082,4.082A.513.513,0,0,1,1397.935-1589.035Z" transform="translate(-195.227 -220.977)"/>
    <path id="Path_1474" data-name="Path 1474" d="M1188.18-1603.76a.513.513,0,0,1-.513-.513,5.647,5.647,0,0,1,5.641-5.641.513.513,0,0,1,.513.513.513.513,0,0,1-.513.513,4.62,4.62,0,0,0-4.615,4.615A.513.513,0,0,1,1188.18-1603.76Z" transform="translate(-15.473 -206.781)"/>
    <path id="Path_1475" data-name="Path 1475" d="M1204.464-1589.035a.513.513,0,0,1-.513-.513,4.087,4.087,0,0,1,4.082-4.082.513.513,0,0,1,.513.513.513.513,0,0,1-.513.512,3.06,3.06,0,0,0-3.057,3.057A.513.513,0,0,1,1204.464-1589.035Z" transform="translate(-29.67 -220.977)"/>
    <path id="Path_1476" data-name="Path 1476" d="M1409.987-1451.436a.511.511,0,0,1-.3-.1l-1.4-1.013a.513.513,0,0,1-.115-.716.513.513,0,0,1,.716-.115l1.4,1.013a.513.513,0,0,1,.115.716A.512.512,0,0,1,1409.987-1451.436Z" transform="translate(-207.624 -343.165)"/>
    <path id="Path_1477" data-name="Path 1477" d="M1309.942-1504.666l-2.743,1.1a1.588,1.588,0,0,1-.925.079l-.491-.105-10.114-8.9a9.948,9.948,0,0,1-4.2-3.151h0l-.011-.016c-.136-.176-.266-.357-.39-.543l-.731-1.018,0,0a1.267,1.267,0,0,1,.022-1.576l2.042-2.49a2.115,2.115,0,0,1,2.215-.692,2.189,2.189,0,0,1,.793.431l1.673,1.372a9.957,9.957,0,0,1,1.779,1.9l1.293,1.8,4.679,3.2.312.214.567.3v-.877l3.6-2.519s1.574,5.148,2.383,7.846a2.993,2.993,0,0,1-.622,2.84,3,3,0,0,1-1.13.8Z" transform="translate(-104.751 -283.372)" fill="#f9cfcf"/>
    <path id="Path_1478" data-name="Path 1478" d="M1303.106-1506.418a2.1,2.1,0,0,1-.442-.047l-.49-.105a.509.509,0,0,1-.231-.117l-10.048-8.846a10.473,10.473,0,0,1-4.313-3.254.5.5,0,0,1-.032-.04c-.138-.179-.272-.365-.411-.572l-.722-1a.4.4,0,0,1-.023-.035,1.771,1.771,0,0,1,.067-2.167l2.042-2.49a2.637,2.637,0,0,1,2.749-.86,2.7,2.7,0,0,1,.981.528l1.673,1.372a10.454,10.454,0,0,1,1.871,2l1.24,1.73,4.682,3.2a.512.512,0,0,1,.219-.407l3.6-2.519a.512.512,0,0,1,.461-.065.513.513,0,0,1,.323.335c.016.052,1.583,5.18,2.384,7.848a3.487,3.487,0,0,1-.728,3.326,3.525,3.525,0,0,1-1.324.936l-2.744,1.1a2.1,2.1,0,0,1-.782.152Zm-.587-1.127.36.077a1.073,1.073,0,0,0,.626-.053l2.743-1.1a2.494,2.494,0,0,0,.937-.662,2.467,2.467,0,0,0,.515-2.354c-.626-2.086-1.722-5.68-2.176-7.168l-2.8,1.961v.61a.513.513,0,0,1-.25.44.513.513,0,0,1-.506.011l-.567-.3-.047-.028-4.992-3.416a.514.514,0,0,1-.127-.124l-1.293-1.8a9.448,9.448,0,0,0-1.687-1.8l-1.673-1.372a1.684,1.684,0,0,0-.606-.333,1.611,1.611,0,0,0-1.681.523l-2.042,2.49a.751.751,0,0,0-.013.938.55.55,0,0,1,.037.055l.7.977c.135.2.256.369.38.528h0l.01.013a9.445,9.445,0,0,0,3.984,2.989.505.505,0,0,1,.15.092Zm3.921-.6h0Z" transform="translate(-101.249 -279.89)"/>
    <path id="Path_1479" data-name="Path 1479" d="M1175.814-1504.682l2.743,1.1a1.588,1.588,0,0,0,.925.079l.491-.105,10.114-8.9a9.952,9.952,0,0,0,4.2-3.151h0l.011-.016c.136-.176.266-.357.39-.543l.731-1.018,0,0a1.267,1.267,0,0,0-.022-1.576l-2.042-2.49a2.116,2.116,0,0,0-2.215-.692,2.192,2.192,0,0,0-.793.431l-1.673,1.372a9.946,9.946,0,0,0-1.779,1.9l-1.293,1.8-4.679,3.2-.312.214-.567.3v-.877l-3.6-2.519s-1.574,5.148-2.383,7.846a2.994,2.994,0,0,0,.622,2.84,3,3,0,0,0,1.13.8Z" transform="translate(-3.502 -283.358)" fill="#f9cfcf"/>
    <path id="Path_1480" data-name="Path 1480" d="M1278.191-1588.106l-.146.011-.227.012c-.172.008-.344.013-.517.013s-.346-.005-.518-.013l-.228-.012-.145-.011a12.056,12.056,0,0,1-4.921-1.442v1.385a5.73,5.73,0,0,0,5.625,5.83h.374a5.73,5.73,0,0,0,5.625-5.83v-1.385a12.052,12.052,0,0,1-4.921,1.442Z" transform="translate(-88.55 -224.536)" fill="#f9cfcf"/>
    <path id="Path_1481" data-name="Path 1481" d="M1221.468-1795.19c-.026,0-.051,0-.076,0v-1.127a11.99,11.99,0,0,0-12.052-11.927,11.99,11.99,0,0,0-12.052,11.927v1.127c-.026,0-.051,0-.076,0a3.658,3.658,0,0,0-3.677,3.639,3.658,3.658,0,0,0,3.677,3.639,3.764,3.764,0,0,0,.395-.022,12.028,12.028,0,0,0,11.734,9.208,12.028,12.028,0,0,0,11.734-9.208,3.756,3.756,0,0,0,.395.022,3.658,3.658,0,0,0,3.677-3.639,3.658,3.658,0,0,0-3.677-3.639Z" transform="translate(-20.589 -33.879)" fill="#f9cfcf"/>
    <path id="Path_1482" data-name="Path 1482" d="M1205.853-1781.7a12.485,12.485,0,0,1-12.127-9.187h0a4.176,4.176,0,0,1-4.19-4.152,4.172,4.172,0,0,1,3.753-4.129v-.633a12.517,12.517,0,0,1,12.565-12.44,12.517,12.517,0,0,1,12.565,12.44v.633a4.172,4.172,0,0,1,3.753,4.129,4.175,4.175,0,0,1-4.19,4.152h0a12.484,12.484,0,0,1-12.127,9.187Zm-11.734-10.234a.513.513,0,0,1,.5.4,11.459,11.459,0,0,0,11.235,8.813,11.459,11.459,0,0,0,11.234-8.813.515.515,0,0,1,.553-.392,3.234,3.234,0,0,0,.341.019,3.149,3.149,0,0,0,3.164-3.126,3.149,3.149,0,0,0-3.159-3.126l-.071,0a.494.494,0,0,1-.369-.146.513.513,0,0,1-.154-.366v-1.127a11.49,11.49,0,0,0-11.539-11.414,11.49,11.49,0,0,0-11.539,11.414v1.127a.512.512,0,0,1-.154.366.494.494,0,0,1-.369.146l-.062,0h0a3.149,3.149,0,0,0-3.167,3.125,3.149,3.149,0,0,0,3.164,3.126,3.237,3.237,0,0,0,.341-.019.475.475,0,0,1,.054,0Z" transform="translate(-17.102 -30.39)"/>
    <path id="Path_1483" data-name="Path 1483" d="M1188.938-1804.067a6.953,6.953,0,0,1-.11-4.547l.041-.128a6.952,6.952,0,0,1,5.324-4.715,6.95,6.95,0,0,1,3.542.25l.133.045a1.622,1.622,0,0,0,.036.207,16.278,16.278,0,0,0,2.916,6.068,15.594,15.594,0,0,1-3.738,6.222h0l-1.45,1.471-2.811-.652a3.685,3.685,0,0,0-2.071.632Z" transform="translate(-16.198 -29.225)" fill="#4671c6"/>
    <path id="Path_1484" data-name="Path 1484" d="M1282.878-1834.911a10.378,10.378,0,0,0-5.867-6.415h0c-9.707-4.778-15.017.987-15.017.987a1.612,1.612,0,0,0-.445,1.543,16.1,16.1,0,0,0,8.226,10.507l.006,0a16.1,16.1,0,0,0,2.767,1.115.264.264,0,0,0,.285-.409l-2-2.848a.262.262,0,0,1,.369-.365c2.207,1.728,6.5,4.592,10.833,4.735l.706-1.934A10.657,10.657,0,0,0,1282.878-1834.911Z" transform="translate(-79.844 -3.382)" fill="#4671c6"/>
    <ellipse id="Ellipse_97" data-name="Ellipse 97" cx="3.853" cy="3.106" rx="3.853" ry="3.106" transform="translate(1184.898 -1821.716)" fill="#f9a7a7"/>
    <path id="Path_1485" data-name="Path 1485" d="M1192.157-1802.164a.515.515,0,0,1-.116-.013l-2.751-.638a3.172,3.172,0,0,0-1.727.544.513.513,0,0,1-.443.064.514.514,0,0,1-.324-.309l-1.812-4.854a7.5,7.5,0,0,1-.118-4.882l.041-.128a7.459,7.459,0,0,1,5.717-5.063,7.484,7.484,0,0,1,3.8.268l.133.045a.512.512,0,0,1,.344.428,1.15,1.15,0,0,0,.025.142,15.671,15.671,0,0,0,2.824,5.878.513.513,0,0,1,.077.486,16.134,16.134,0,0,1-3.869,6.422l-1.436,1.458a.513.513,0,0,1-.366.153Zm-2.811-1.677a.515.515,0,0,1,.116.013l2.531.587,1.248-1.267a14.9,14.9,0,0,0,3.525-5.776,16.682,16.682,0,0,1-2.821-5.97,6.449,6.449,0,0,0-3.133-.182,6.432,6.432,0,0,0-4.931,4.368l-.041.128a6.468,6.468,0,0,0,.1,4.211l1.6,4.291a4.2,4.2,0,0,1,1.8-.4Z" transform="translate(-12.723 -25.74)"/>
    <path id="Path_1486" data-name="Path 1486" d="M1278.557-1828.929h-.017c-3.763-.125-7.466-2.213-9.88-3.914l1.111,1.585a.783.783,0,0,1-.006.906.761.761,0,0,1-.845.288,16.633,16.633,0,0,1-2.855-1.15,16.6,16.6,0,0,1-8.495-10.844,2.128,2.128,0,0,1,.581-2.028c.332-.342,5.925-5.849,15.6-1.083l.007,0a10.873,10.873,0,0,1,6.121,6.716,11.209,11.209,0,0,1-.139,7.25l-.706,1.935a.513.513,0,0,1-.482.337Zm-10.992-5.817a.768.768,0,0,1,.475.165c2.068,1.619,6.087,4.323,10.165,4.607l.576-1.579a10.179,10.179,0,0,0,.126-6.583,9.849,9.849,0,0,0-5.576-6.1.528.528,0,0,1-.063-.032c-9.2-4.51-14.172.669-14.38.892l-.021.021a1.1,1.1,0,0,0-.3,1.052,15.571,15.571,0,0,0,7.963,10.173,15.63,15.63,0,0,0,1.978.853l-1.571-2.242a.777.777,0,0,1,.1-1.017.766.766,0,0,1,.528-.212Z" transform="translate(-76.361 0)"/>
    <path id="Path_1487" data-name="Path 1487" d="M1345.01-1700.56a7.172,7.172,0,0,1-4.922-2.041.512.512,0,0,1,.023-.725.513.513,0,0,1,.724.021,6.207,6.207,0,0,0,4.695,1.7.512.512,0,0,1,.556.465.513.513,0,0,1-.465.556C1345.412-1700.568,1345.208-1700.56,1345.01-1700.56Z" transform="translate(-148.233 -125.222)"/>
    <path id="Path_1488" data-name="Path 1488" d="M1345.123-1673.608h-4.663a.513.513,0,0,1-.513-.513.513.513,0,0,1,.513-.513h4.663a.513.513,0,0,1,.513.513A.513.513,0,0,1,1345.123-1673.608Z" transform="translate(-148.232 -150.357)"/>
    <path id="Path_1489" data-name="Path 1489" d="M1246.89-1700.557q-.3,0-.61-.027a.513.513,0,0,1-.465-.556.513.513,0,0,1,.557-.465,6.145,6.145,0,0,0,4.694-1.695.513.513,0,0,1,.725-.023.513.513,0,0,1,.022.725,7.174,7.174,0,0,1-4.922,2.041Z" transform="translate(-66.165 -125.225)"/>
    <path id="Path_1490" data-name="Path 1490" d="M1254.791-1673.608h-4.663a.513.513,0,0,1-.513-.513.513.513,0,0,1,.513-.513h4.663a.513.513,0,0,1,.513.513A.513.513,0,0,1,1254.791-1673.608Z" transform="translate(-69.48 -150.357)"/>
    <g id="Group_450" data-name="Group 450" transform="translate(1169.918 -1822.1)">
      <path id="Path_1491" data-name="Path 1491" d="M1175.646-1506.433a2.1,2.1,0,0,1-.782-.152l-2.743-1.1a3.522,3.522,0,0,1-1.323-.936,3.487,3.487,0,0,1-.729-3.327c.8-2.668,2.368-7.8,2.384-7.848a.514.514,0,0,1,.324-.335.513.513,0,0,1,.461.065l3.6,2.519a.513.513,0,0,1,.219.408l4.682-3.2,1.24-1.73a10.455,10.455,0,0,1,1.871-2l1.673-1.372a2.7,2.7,0,0,1,.981-.528,2.641,2.641,0,0,1,2.75.86l2.041,2.49a1.772,1.772,0,0,1,.065,2.17l-.021.032-.731,1.018c-.126.188-.264.38-.4.557l-.013.016a10.474,10.474,0,0,1-4.332,3.28l-10.048,8.846a.512.512,0,0,1-.231.117l-.491.1a2.075,2.075,0,0,1-.442.048Zm-3.143-2.206,2.743,1.1a1.068,1.068,0,0,0,.626.053l.36-.077,10.014-8.816a.517.517,0,0,1,.15-.092,9.444,9.444,0,0,0,3.984-2.989l.011-.013h0c.123-.16.248-.333.37-.515l.714-.993a.554.554,0,0,1,.036-.053.751.751,0,0,0-.013-.938l-2.041-2.49a1.614,1.614,0,0,0-1.681-.523,1.676,1.676,0,0,0-.605.333l-1.673,1.372a9.463,9.463,0,0,0-1.688,1.8l-1.293,1.8a.516.516,0,0,1-.127.124l-4.991,3.416a.452.452,0,0,1-.047.029l-.567.3a.513.513,0,0,1-.506-.011.513.513,0,0,1-.25-.44v-.61l-2.8-1.961c-.454,1.488-1.55,5.082-2.176,7.168a2.467,2.467,0,0,0,.515,2.354,2.49,2.49,0,0,0,.937.663Z" transform="translate(-1169.918 1542.224)"/>
      <path id="Path_1492" data-name="Path 1492" d="M1207.151-1451.451a.512.512,0,0,1-.416-.213.513.513,0,0,1,.115-.716l1.4-1.013a.513.513,0,0,1,.716.115.513.513,0,0,1-.115.716l-1.4,1.013A.511.511,0,0,1,1207.151-1451.451Z" transform="translate(-1201.931 1478.949)"/>
      <path id="Path_1493" data-name="Path 1493" d="M1177.74-1549.969a.512.512,0,0,1-.294-.093l-5.711-4a1.035,1.035,0,0,1-.428-.672,1.034,1.034,0,0,1,.173-.778l6.021-8.6a.513.513,0,0,1,.653-.163.512.512,0,0,1,.252.624,2.726,2.726,0,0,0-.153.894v12.274a.513.513,0,0,1-.276.455.516.516,0,0,1-.237.058Zm-5.417-4.932,4.9,3.434v-10.466l-4.908,7.01-.291.442Z" transform="translate(-1171.114 1575.58)"/>
      <path id="Path_1494" data-name="Path 1494" d="M1407.355-1549.976a.514.514,0,0,1-.237-.058.513.513,0,0,1-.276-.455v-12.274a2.725,2.725,0,0,0-.153-.894.513.513,0,0,1,.25-.624.513.513,0,0,1,.653.159l6.024,8.6a1.036,1.036,0,0,1,.172.778,1.034,1.034,0,0,1-.429.672l-5.711,4a.514.514,0,0,1-.294.093Zm.513-11.959v10.461l4.9-3.434Z" transform="translate(-1376.311 1575.586)"/>
      <path id="Path_1495" data-name="Path 1495" d="M1288.006-1645.1c-2.336,0-4.237-1.566-4.237-3.491s1.9-3.491,4.237-3.491,4.237,1.566,4.237,3.491S1290.343-1645.1,1288.006-1645.1Zm0-6.213c-1.912,0-3.468,1.221-3.468,2.722s1.556,2.722,3.468,2.722,3.468-1.221,3.468-2.722S1289.919-1651.313,1288.006-1651.313Z" transform="translate(-1269.174 1652.082)"/>
    </g>
    <path id="Path_1496" data-name="Path 1496" d="M1288.7-1584.8a.528.528,0,0,1-.48-.573l.57-6.517a.528.528,0,0,1,.573-.48.528.528,0,0,1,.48.573l-.57,6.517A.529.529,0,0,1,1288.7-1584.8Z" transform="translate(-103.13 -222.07)" fill="#fff"/>
    <path id="Path_1497" data-name="Path 1497" d="M1335.084-1584.8a.529.529,0,0,1-.573-.48l-.57-6.517a.529.529,0,0,1,.48-.573.529.529,0,0,1,.573.48l.57,6.517A.529.529,0,0,1,1335.084-1584.8Z" transform="translate(-142.994 -222.07)" fill="#fff"/>
    <path id="Path_1498" data-name="Path 1498" d="M1314.282-1604.8a.529.529,0,0,1-.529-.529v-6.542a.529.529,0,0,1,.529-.529.529.529,0,0,1,.529.529v6.542A.529.529,0,0,1,1314.282-1604.8Z" transform="translate(-125.396 -204.61)" fill="#fff"/>
  </g>
</svg>
