<svg xmlns="http://www.w3.org/2000/svg" width="65.326" height="72.022" viewBox="0 0 65.326 72.022">
  <g id="td13" transform="translate(0 0)">
    <g id="Group_164" data-name="Group 164" transform="translate(1.055 1.068)">
      <g id="Group_155" data-name="Group 155" transform="translate(0 15.738)">
        <g id="Group_148" data-name="Group 148" transform="translate(13.243)">
          <path id="Path_284" data-name="Path 284" d="M-5102.036-1610.037v4.793h-20.675v-5.68a4.991,4.991,0,0,1,4.991-4.99h3.116a5.937,5.937,0,0,0,4.407-1.959l1.591-1.794A10.344,10.344,0,0,1-5102.036-1610.037Z" transform="translate(5122.711 1619.667)" fill="#6e4848"/>
        </g>
        <g id="Group_149" data-name="Group 149" transform="translate(26.061)">
          <path id="Path_285" data-name="Path 285" d="M-5030.3-1619.667l-1.288,1.452a10.322,10.322,0,0,1,4.016,8.178v4.793h3.842v-4.793A10.343,10.343,0,0,0-5030.3-1619.667Z" transform="translate(5031.59 1619.667)" fill="#633c3e"/>
        </g>
        <g id="Group_150" data-name="Group 150" transform="translate(0 29.442)">
          <path id="Path_286" data-name="Path 286" d="M-5216.857-1385.635v-8.917a8.485,8.485,0,0,1,5.195-7.822l18.386-7.994,18.533,7.943a8.487,8.487,0,0,1,5.048,7.759v9.031" transform="translate(5216.857 1410.368)" fill="#c2ddff"/>
        </g>
        <g id="Group_151" data-name="Group 151" transform="translate(11.8 29.442)">
          <path id="Path_287" data-name="Path 287" d="M-5121.191-1396.617a12.354,12.354,0,0,0,11.8-8.694h0l-11.8-5.057-11.78,5.122h0a12.357,12.357,0,0,0,11.778,8.628Z" transform="translate(5132.97 1410.368)" fill="#a4ccff"/>
        </g>
        <g id="Group_152" data-name="Group 152" transform="translate(17.076 26.131)">
          <path id="Path_288" data-name="Path 288" d="M-5088.962-1422.08a6.505,6.505,0,0,1-6.506-6.506v-5.32h13.011v5.32A6.505,6.505,0,0,1-5088.962-1422.08Z" transform="translate(5095.468 1433.906)" fill="#f7d4ad"/>
        </g>
        <g id="Group_153" data-name="Group 153" transform="translate(17.075 26.131)">
          <path id="Path_289" data-name="Path 289" d="M-5095.469-1431.5a10.293,10.293,0,0,0,6.5,2.3,10.29,10.29,0,0,0,6.507-2.307v-2.408h-13.011v2.411Z" transform="translate(5095.469 1433.906)" fill="#ecbd83"/>
        </g>
        <g id="Group_154" data-name="Group 154" transform="translate(13.243 9.927)">
          <path id="Path_290" data-name="Path 290" d="M-5116.229-1549.1a12.938,12.938,0,0,0,9.012,3.638,12.908,12.908,0,0,0,4.909-.961,4.967,4.967,0,0,1,.269,1.82v3.985a10.336,10.336,0,0,1-10.337,10.336,10.335,10.335,0,0,1-10.335-10.336v-3.985a4.08,4.08,0,0,0,1.934-.456,4.085,4.085,0,0,0,1.315-1.091" transform="translate(5122.711 1549.096)" fill="#f7d4ad"/>
        </g>
      </g>
      <g id="Group_156" data-name="Group 156" transform="translate(36.484 0)">
        <path id="Path_291" data-name="Path 291" d="M-4944.134-1731.545a13.366,13.366,0,0,0-13.366,13.366,13.347,13.347,0,0,0,5.464,10.78,14.532,14.532,0,0,1-.488,1.52,14.6,14.6,0,0,1-2.15,3.783,1.238,1.238,0,0,0,1.373,1.935,16.654,16.654,0,0,0,4.348-2.2,16.577,16.577,0,0,0,2.885-2.6,13.5,13.5,0,0,0,1.934.14,13.366,13.366,0,0,0,13.366-13.366,13.365,13.365,0,0,0-13.366-13.366Z" transform="translate(4957.5 1731.545)" fill="#fee07d"/>
      </g>
      <g id="Group_157" data-name="Group 157" transform="translate(39.041 0)">
        <path id="Path_292" data-name="Path 292" d="M-4928.509-1731.545a13.479,13.479,0,0,0-2.428.22A13.37,13.37,0,0,1-4920-1718.179a13.366,13.366,0,0,1-13.366,13.366,13.467,13.467,0,0,1-1.934-.14,16.6,16.6,0,0,1-2.885,2.6q-.548.386-1.093.708a1.243,1.243,0,0,0,1.6,1.487,16.6,16.6,0,0,0,4.348-2.2,16.577,16.577,0,0,0,2.885-2.6,13.477,13.477,0,0,0,1.934.14,13.365,13.365,0,0,0,13.365-13.366,13.365,13.365,0,0,0-13.365-13.366Z" transform="translate(4939.316 1731.545)" fill="#ffc269"/>
      </g>
      <g id="Group_158" data-name="Group 158" transform="translate(31.442 33.306)">
        <path id="Path_293" data-name="Path 293" d="M-4988.388-1490.338a2.478,2.478,0,0,1-2.478,2.478,2.477,2.477,0,0,1-2.478-2.478c0-2.383,2.478-4.441,2.478-4.441S-4988.388-1492.82-4988.388-1490.338Z" transform="translate(4993.343 1494.779)" fill="#c2ddff"/>
      </g>
      <g id="Group_163" data-name="Group 163" transform="translate(44.994 4.864)">
        <g id="Group_159" data-name="Group 159" transform="translate(3.801 15.176)">
          <circle id="Ellipse_27" data-name="Ellipse 27" cx="1.055" cy="1.055" r="1.055" fill="#ff6b61"/>
        </g>
        <g id="Group_162" data-name="Group 162">
          <g id="Group_161" data-name="Group 161">
            <g id="Group_160" data-name="Group 160">
              <path id="Path_294" data-name="Path 294" d="M-4892.147-1683.279a1.055,1.055,0,0,1-1.056-1.055v-3.975a1.055,1.055,0,0,1,1.056-1.055,2.723,2.723,0,0,0,1.991-.856,2.726,2.726,0,0,0,.751-2.038,2.753,2.753,0,0,0-2.685-2.6h-.056a2.745,2.745,0,0,0-2.72,2.362,2.789,2.789,0,0,0-.027.384,1.055,1.055,0,0,1-1.055,1.055,1.055,1.055,0,0,1-1.055-1.055,4.8,4.8,0,0,1,.047-.676,4.861,4.861,0,0,1,4.908-4.179,4.87,4.87,0,0,1,4.75,4.6,4.82,4.82,0,0,1-1.328,3.6,4.877,4.877,0,0,1-2.466,1.4v3.037a1.055,1.055,0,0,1-1.055,1.055Z" transform="translate(4897.003 1696.965)" fill="#ff6b61"/>
            </g>
          </g>
        </g>
      </g>
    </g>
    <g id="Group_165" data-name="Group 165" transform="translate(0 0)">
      <path id="Path_295" data-name="Path 295" d="M-5180.773-1589.788l-6.726-2.882-.019-.008-4.646-1.991c0-.028,0-.056,0-.084v-4.524a11.351,11.351,0,0,0,1.506-1.624,3.507,3.507,0,0,0,1.272.238,3.536,3.536,0,0,0,3.532-3.532,7.289,7.289,0,0,0-2.481-4.92l0-7.458a11.323,11.323,0,0,0-2.032-6.494,11.383,11.383,0,0,0-5.209-4.118,1.056,1.056,0,0,0-1.174.282l-1.585,1.787a4.886,4.886,0,0,1-3.622,1.61h-3.117a6.053,6.053,0,0,0-6.046,6.046v5.68h0v3.984a11.339,11.339,0,0,0,3.832,8.521v4.522c0,.042,0,.084,0,.126l-4.642,2.018h0l-6.595,2.867a9.519,9.519,0,0,0-5.841,8.794v8.917a1.055,1.055,0,0,0,1.055,1.055,1.055,1.055,0,0,0,1.055-1.055v-8.917a7.418,7.418,0,0,1,4.561-6.854l5.58-2.426a13.463,13.463,0,0,0,2.817,4.253,1.05,1.05,0,0,0,.753.316,1.054,1.054,0,0,0,.739-.3,1.056,1.056,0,0,0,.013-1.492,11.367,11.367,0,0,1-2.388-3.616l3.24-1.409a7.57,7.57,0,0,0,7.211,5.283,7.556,7.556,0,0,0,7.223-5.325l3.248,1.392a11.415,11.415,0,0,1-3.709,4.811,11.2,11.2,0,0,1-6.764,2.248,11.176,11.176,0,0,1-5.044-1.186,1.056,1.056,0,0,0-1.416.472,1.056,1.056,0,0,0,.473,1.416,13.263,13.263,0,0,0,5.987,1.409,13.3,13.3,0,0,0,8.029-2.669,13.537,13.537,0,0,0,4.383-5.669l5.695,2.441a7.434,7.434,0,0,1,4.421,6.793v9.031a1.055,1.055,0,0,0,1.055,1.055,1.055,1.055,0,0,0,1.055-1.055v-9.031a9.548,9.548,0,0,0-5.688-8.727Zm-7.187-14.407a1.423,1.423,0,0,1-1.422,1.422,1.424,1.424,0,0,1-1.422-1.422,4.985,4.985,0,0,1,1.433-2.972A4.749,4.749,0,0,1-5187.96-1604.2Zm-21.043-3.6v-3.028a5.091,5.091,0,0,0,1.364-.477,5.079,5.079,0,0,0,1.657-1.373,1.054,1.054,0,0,0-.173-1.482,1.055,1.055,0,0,0-1.482.174,2.987,2.987,0,0,1-.976.809,2.881,2.881,0,0,1-.389.168v-4.457a3.94,3.94,0,0,1,3.936-3.936h3.117a7,7,0,0,0,5.2-2.313l1.083-1.22a9.226,9.226,0,0,1,5.234,8.357v2.143a11.838,11.838,0,0,1-4.127.737,11.874,11.874,0,0,1-8.279-3.342,1.056,1.056,0,0,0-1.491.027,1.056,1.056,0,0,0,.027,1.492,13.977,13.977,0,0,0,9.744,3.933,13.969,13.969,0,0,0,4.121-.615c0,.074,0,3.1,0,3.1-.782.761-2.474,2.665-2.474,4.9a3.509,3.509,0,0,0,.609,1.981,9.222,9.222,0,0,1-1.575,1.63,9.3,9.3,0,0,1-5.842,2.07,9.291,9.291,0,0,1-5.84-2.068A9.243,9.243,0,0,1-5209-1607.8Zm9.283,18.493a5.452,5.452,0,0,1-5.409-4.781,5.382,5.382,0,0,1-.042-.669v-3.042a11.424,11.424,0,0,0,5.449,1.39,11.421,11.421,0,0,0,5.452-1.392v3.044a5.529,5.529,0,0,1-.038.639,5.443,5.443,0,0,1-5.412,4.811Z" transform="translate(5224.357 1642.997)"/>
      <path id="Path_296" data-name="Path 296" d="M-5156.468-1285.034a1.054,1.054,0,0,0-1.055,1.055v6.034a1.054,1.054,0,0,0,1.055,1.055,1.055,1.055,0,0,0,1.055-1.055v-6.034A1.055,1.055,0,0,0-5156.468-1285.034Z" transform="translate(5166.924 1348.912)"/>
      <path id="Path_297" data-name="Path 297" d="M-4954.667-1285.034a1.055,1.055,0,0,0-1.055,1.055v6.034a1.055,1.055,0,0,0,1.055,1.055,1.055,1.055,0,0,0,1.055-1.055v-6.034A1.055,1.055,0,0,0-4954.667-1285.034Z" transform="translate(4993.511 1348.912)"/>
      <path id="Path_298" data-name="Path 298" d="M-4942.069-1736.361a1.055,1.055,0,0,0-1.474.228,1.055,1.055,0,0,0,.229,1.475,12.363,12.363,0,0,1,5.048,9.941,12.325,12.325,0,0,1-12.312,12.311,12.46,12.46,0,0,1-1.781-.129,1.055,1.055,0,0,0-.944.347,15.6,15.6,0,0,1-2.7,2.432,15.6,15.6,0,0,1-4.073,2.056.17.17,0,0,1-.216-.07.158.158,0,0,1,.007-.213,15.681,15.681,0,0,0,2.3-4.056,15.528,15.528,0,0,0,.523-1.631,1.055,1.055,0,0,0-.4-1.118,12.365,12.365,0,0,1-5.033-9.93,12.325,12.325,0,0,1,12.31-12.311,12.289,12.289,0,0,1,3.88.624,1.054,1.054,0,0,0,1.333-.669,1.054,1.054,0,0,0-.669-1.333,14.4,14.4,0,0,0-4.544-.731A14.438,14.438,0,0,0-4965-1724.717a14.487,14.487,0,0,0,5.308,11.175c-.08.255-.167.5-.26.748a13.559,13.559,0,0,1-1.995,3.51,2.275,2.275,0,0,0-.072,2.73,2.282,2.282,0,0,0,1.872.976,2.326,2.326,0,0,0,.736-.12,17.684,17.684,0,0,0,4.624-2.335,17.669,17.669,0,0,0,2.689-2.344,14.562,14.562,0,0,0,1.52.08,14.438,14.438,0,0,0,14.421-14.421,14.479,14.479,0,0,0-5.913-11.644Z" transform="translate(5001.482 1739.138)"/>
      <circle id="Ellipse_28" data-name="Ellipse 28" cx="1.055" cy="1.055" r="1.055" transform="translate(49.85 21.095)"/>
      <path id="Path_299" data-name="Path 299" d="M-4887.3-1692.461a4.87,4.87,0,0,0-4.75-4.6h-.1a4.856,4.856,0,0,0-4.809,4.18,4.8,4.8,0,0,0-.047.676,1.055,1.055,0,0,0,1.055,1.055,1.055,1.055,0,0,0,1.055-1.055,2.8,2.8,0,0,1,.027-.384,2.746,2.746,0,0,1,2.776-2.361,2.752,2.752,0,0,1,2.685,2.6,2.723,2.723,0,0,1-.75,2.037,2.723,2.723,0,0,1-1.991.856,1.055,1.055,0,0,0-1.056,1.055v3.975a1.055,1.055,0,0,0,1.056,1.055,1.055,1.055,0,0,0,1.055-1.055v-3.037a4.881,4.881,0,0,0,2.466-1.4,4.821,4.821,0,0,0,1.328-3.6Z" transform="translate(4943.053 1702.979)"/>
    </g>
  </g>
</svg>
