<svg xmlns="http://www.w3.org/2000/svg" width="69" height="69" viewBox="0 0 69 69">
  <g id="td15" transform="translate(-0.5 -0.5)">
    <g id="XMLID_28_">
      <g id="Group_444" data-name="Group 444">
        <g id="XMLID_696_">
          <g id="XMLID_697_">
            <g id="XMLID_698_">
              <g id="XMLID_699_">
                <g id="XMLID_700_">
                  <g id="XMLID_701_">
                    <g id="XMLID_702_">
                      <g id="XMLID_723_">
                        <g id="XMLID_724_">
                          <g id="XMLID_738_">
                            <g id="XMLID_756_">
                              <g id="XMLID_757_">
                                <g id="XMLID_758_">
                                  <g id="XMLID_759_">
                                    <circle id="Ellipse_96" data-name="Ellipse 96" cx="34.5" cy="34.5" r="34.5" transform="translate(0.5 0.5)" fill="#ffe670"/>
                                  </g>
                                </g>
                              </g>
                            </g>
                          </g>
                        </g>
                      </g>
                    </g>
                  </g>
                </g>
              </g>
            </g>
          </g>
        </g>
      </g>
    </g>
    <path id="Path_1457" data-name="Path 1457" d="M88.606,237.5l-3.052-3.052H22.662l36.963,36.963A34.506,34.506,0,0,0,88.606,237.5Z" transform="translate(-19.608 -202.856)" fill="#ffcd50"/>
    <g id="Group_447" data-name="Group 447" transform="translate(3.054 16.846)">
      <g id="Group_446" data-name="Group 446">
        <path id="Path_1458" data-name="Path 1458" d="M105.156,187.673H65.45l-7.406,7.6,27.5,8.328,27.5-9.8Z" transform="translate(-53.276 -179.227)" fill="#fff"/>
        <g id="Group_445" data-name="Group 445" transform="translate(31.446 8.446)">
          <path id="Path_1459" data-name="Path 1459" d="M284.312,193.8l-27.5,9.8-.817-.248V187.673h20.435Z" transform="translate(-256 -187.673)" fill="#cffffb"/>
        </g>
        <path id="Path_1460" data-name="Path 1460" d="M64.014,125.518a5.966,5.966,0,0,0-5.969.645l-1.071.782a4.833,4.833,0,0,1-5.732,0l-1.071-.782a5.966,5.966,0,0,0-5.969-.645c-4.939,2.2-21.54,14.232-21.54,14.232s9.267,6.627,13.039,11.59c3.242,4.266,8.6,7.532,15.117,6.075a15.051,15.051,0,0,1,6.579,0c6.519,1.457,11.875-1.809,15.117-6.075,3.772-4.964,13.039-11.59,13.039-11.59s-16.6-12.032-21.54-14.232Zm-5.253,19.676a12.988,12.988,0,0,1-9.307,0c-4.6-1.759-11.994-4.631-19.407-5.443,0,0,14.928-1.149,21.994-3.41l2.066-.661,2.066.661c7.066,2.261,21.994,3.41,21.994,3.41C70.755,140.563,63.357,143.435,58.761,145.194Z" transform="translate(-22.662 -125)" fill="#243eff"/>
        <path id="Path_1461" data-name="Path 1461" d="M278.528,133.459c-4.768-3.282-10.153-6.841-12.622-7.94a5.963,5.963,0,0,0-5.969.646l-1.071.782a4.854,4.854,0,0,1-2.866.942v7.791l2.066.661c7.067,2.261,21.994,3.41,21.994,3.41-7.413.813-14.811,3.684-19.406,5.443a13.024,13.024,0,0,1-4.654.863v11a15.1,15.1,0,0,1,3.289.365c6.52,1.457,11.876-1.81,15.118-6.075,3.772-4.964,13.038-11.591,13.038-11.591S283.3,136.742,278.528,133.459Z" transform="translate(-224.554 -125)" fill="#1472ba"/>
      </g>
    </g>
  </g>
</svg>
