<svg xmlns="http://www.w3.org/2000/svg" width="56.933" height="63.33" viewBox="0 0 56.933 63.33">
  <g id="td2" transform="translate(0)">
    <path id="Path_231" data-name="Path 231" d="M-3569.322-1479.056v5.277a4.222,4.222,0,0,1-4.222,4.222,4.222,4.222,0,0,1-4.222-4.222v-5.277Z" transform="translate(3605.209 1510.721)" fill="#ffc477"/>
    <path id="Path_232" data-name="Path 232" d="M-3663.546-1426.02v12.3h-42.22v-12.3a10.543,10.543,0,0,1,7.41-10.07l9.479-2.966a4.222,4.222,0,0,0,4.222,4.222,4.222,4.222,0,0,0,4.222-4.222l9.479,2.966a10.477,10.477,0,0,1,6.354,5.489A10.338,10.338,0,0,1-3663.546-1426.02Z" transform="translate(3716.321 1475.999)" fill="#3d9ae2"/>
    <path id="Path_233" data-name="Path 233" d="M-3405.238-1601.414a2.124,2.124,0,0,1,1.71,2.449,2.1,2.1,0,0,1-2.431,1.713l-.019,0c-1.15-.2-3.789-2.808-3.789-2.808S-3406.389-1601.614-3405.238-1601.414Z" transform="translate(3459.375 1616.951)" fill="#78b9eb"/>
    <path id="Path_234" data-name="Path 234" d="M-3404.911-1674.856a2.112,2.112,0,0,1-.261,2.974l0,0c-.9.749-4.591,1.1-4.591,1.1s.981-3.578,1.878-4.328A2.12,2.12,0,0,1-3404.911-1674.856Z" transform="translate(3459.375 1681.337)" fill="#78b9eb"/>
    <path id="Path_235" data-name="Path 235" d="M-3462.473-1598.127a3.166,3.166,0,0,1,0,4.478,3.169,3.169,0,0,1-2.235.926h-1.055v-6.333h1.055A3.157,3.157,0,0,1-3462.473-1598.127Z" transform="translate(3507.986 1614.889)" fill="#ffb655"/>
    <path id="Path_236" data-name="Path 236" d="M-3604.656-1700.5v2.111h-3.167l-3.166-3.166-4.222,3.166h-10.555v-2.111a10.555,10.555,0,0,1,10.555-10.555A10.555,10.555,0,0,1-3604.656-1700.5Z" transform="translate(3646.876 1712.111)" fill="#57565c"/>
    <path id="Path_237" data-name="Path 237" d="M-3653.544-1599.056v6.333h-1.056a3.166,3.166,0,0,1-3.166-3.167,3.166,3.166,0,0,1,3.166-3.167Z" transform="translate(3674.654 1614.889)" fill="#ffb655"/>
    <path id="Path_238" data-name="Path 238" d="M-3695.933-1704.531c.96.665,2.248,4.148,2.248,4.148s-3.715-.021-4.665-.7a2.112,2.112,0,0,1-.333-2.967A2.111,2.111,0,0,1-3695.933-1704.531Z" transform="translate(3710.573 1706.717)" fill="#78b9eb"/>
    <path id="Path_239" data-name="Path 239" d="M-3701.685-1631.056s-1.288,3.483-2.249,4.148a2.111,2.111,0,0,1-2.9-.7,2.11,2.11,0,0,1,.485-2.75C-3705.4-1631.035-3701.685-1631.056-3701.685-1631.056Z" transform="translate(3717.518 1642.666)" fill="#78b9eb"/>
    <path id="Path_240" data-name="Path 240" d="M-3569.322-1479.056v2.28a10.5,10.5,0,0,1-8.444,0v-2.28Z" transform="translate(3605.209 1510.721)" fill="#ffb655"/>
    <path id="Path_241" data-name="Path 241" d="M-3604.656-1633.779v6.333a10.555,10.555,0,0,1-10.555,10.555,10.555,10.555,0,0,1-10.555-10.555v-8.444h10.555l4.222-3.167,3.166,3.167h3.167Z" transform="translate(3646.876 1649.611)" fill="#ffc477"/>
    <path id="Path_242" data-name="Path 242" d="M-3676.824-1668.392h-2.111v10.555h-25.332v-10.555h-2.111v10.555h-5.277v-11.239a9.458,9.458,0,0,1,6.666-9.067l8.315-2.6a5.249,5.249,0,0,0,6.419,3.729,5.247,5.247,0,0,0,3.729-3.729l8.316,2.6a9.436,9.436,0,0,1,2.865,1.466l1.267-1.689a11.561,11.561,0,0,0-3.506-1.794l-8.738-2.729v-3.672a11.619,11.619,0,0,0,6.279-9.274h.054a4.222,4.222,0,0,0,4.222-4.222,4.222,4.222,0,0,0-4.222-4.221v-3.167a11.611,11.611,0,0,0-11.61-11.611,11.611,11.611,0,0,0-11.611,11.611v3.167a4.222,4.222,0,0,0-4.222,4.221,4.221,4.221,0,0,0,4.222,4.222h.054a11.622,11.622,0,0,0,6.279,9.274v3.672l-8.74,2.731a11.562,11.562,0,0,0-8.148,11.082v12.294a1.055,1.055,0,0,0,1.055,1.055h39.055v-2.111h-3.167Zm-1.056-31.665a2.111,2.111,0,0,1-2.111,2.111v-4.222A2.111,2.111,0,0,1-3677.88-1700.057Zm-13.721-16.888a9.511,9.511,0,0,1,9.5,9.5v1.056h-1.674l-2.858-2.857a1.055,1.055,0,0,0-1.379-.1l-3.94,2.956h-9.149v-1.056A9.511,9.511,0,0,1-3691.6-1716.945Zm-13.722,16.888a2.111,2.111,0,0,1,2.111-2.111v4.222A2.111,2.111,0,0,1-3705.323-1700.057Zm4.221,3.167v-7.388h9.5a1.058,1.058,0,0,0,.633-.211l3.489-2.618,2.52,2.52a1.059,1.059,0,0,0,.747.31h2.111v7.388a9.5,9.5,0,0,1-9.5,9.5A9.5,9.5,0,0,1-3701.1-1696.89Zm9.5,11.611a11.6,11.6,0,0,0,3.167-.449v3.616a3.166,3.166,0,0,1-3.167,3.167,3.166,3.166,0,0,1-3.167-3.167v-3.616A11.6,11.6,0,0,0-3691.6-1685.28Z" transform="translate(3723.266 1719.056)"/>
    <path id="Path_243" data-name="Path 243" d="M-3596.613-1591.245a1.055,1.055,0,0,0-.053-1.084l-2.111-3.167-1.757,1.172,1.018,1.525h-2.25v2.111h4.222A1.056,1.056,0,0,0-3596.613-1591.245Z" transform="translate(3626.042 1611.798)"/>
    <path id="Path_244" data-name="Path 244" d="M-3528.712-1590.688h4.222v-2.111h-2.25l1.018-1.525-1.757-1.172-2.111,3.167a1.055,1.055,0,0,0,.292,1.464A1.055,1.055,0,0,0-3528.712-1590.688Z" transform="translate(3563.544 1611.798)"/>
    <path id="Path_245" data-name="Path 245" d="M-3571.433-1538.834h2.111a4.223,4.223,0,0,0-4.222-4.222,4.222,4.222,0,0,0-4.222,4.222h2.11a2.111,2.111,0,0,1,2.111-2.111A2.111,2.111,0,0,1-3571.433-1538.834Z" transform="translate(3605.209 1566.277)"/>
    <path id="Path_246" data-name="Path 246" d="M-3416.7-1676.683h.1c1.209-.114,4.137-.472,5.172-1.339a3.168,3.168,0,0,0,.393-4.463,3.168,3.168,0,0,0-4.462-.393c-1.035.868-1.9,3.688-2.217,4.856a1.055,1.055,0,0,0,.732,1.3A1.046,1.046,0,0,0-3416.7-1676.683Zm2.557-4.578a1.055,1.055,0,0,1,1.489.094,1.057,1.057,0,0,1-.094,1.49l-.039.032a7.928,7.928,0,0,1-2.415.649A7.823,7.823,0,0,1-3414.147-1681.261Z" transform="translate(3466.313 1688.294)"/>
    <path id="Path_247" data-name="Path 247" d="M-3412-1609.337c-1.328-.232-4.042.919-5.148,1.426a1.055,1.055,0,0,0-.518,1.4,1.063,1.063,0,0,0,.216.31c.865.855,3.021,2.867,4.35,3.1a3.166,3.166,0,0,0,3.668-2.568A3.167,3.167,0,0,0-3412-1609.337Zm-.732,4.158a7.9,7.9,0,0,1-2.05-1.432,8.015,8.015,0,0,1,2.415-.646,1.055,1.055,0,0,1,.9,1.194,1.055,1.055,0,0,1-1.194.9l-.066-.011Z" transform="translate(3466.315 1623.839)"/>
    <path id="Path_248" data-name="Path 248" d="M-3706.343-1707.433h0c1.106.772,4.052.875,5.268.882h.01a1.056,1.056,0,0,0,1.055-1.056,1.037,1.037,0,0,0-.066-.367c-.421-1.14-1.525-3.875-2.63-4.644a3.167,3.167,0,0,0-4.4.852A3.167,3.167,0,0,0-3706.343-1707.433Zm.95-3.2a1.057,1.057,0,0,1,.682-.434,1.04,1.04,0,0,1,.787.174,7.858,7.858,0,0,1,1.25,2.165,7.87,7.87,0,0,1-2.462-.437A1.055,1.055,0,0,1-3705.393-1710.632Z" transform="translate(3717.953 1713.938)"/>
    <path id="Path_249" data-name="Path 249" d="M-3713.365-1632.46a3.193,3.193,0,0,0,.556.049,3.131,3.131,0,0,0,1.809-.573c1.106-.773,2.211-3.508,2.633-4.644a1.055,1.055,0,0,0-.617-1.359,1.046,1.046,0,0,0-.37-.068h-.008c-1.214.007-4.161.106-5.267.883h0a3.166,3.166,0,0,0-.778,4.41,3.168,3.168,0,0,0,2.045,1.3Zm-.057-3.982a7.88,7.88,0,0,1,2.462-.436,7.852,7.852,0,0,1-1.244,2.165,1.056,1.056,0,0,1-1.471-.259,1.055,1.055,0,0,1,.258-1.47Z" transform="translate(3725.186 1649.611)"/>
    <path id="Path_250" data-name="Path 250" d="M-3781.544-1431.056h-2.111a2.386,2.386,0,0,1-.8,1.776,4.446,4.446,0,0,0-.013,6.287l.013.013a2.366,2.366,0,0,1,.21,3.342,2.372,2.372,0,0,1-.21.21,4.394,4.394,0,0,0-1.308,3.149h2.11a2.381,2.381,0,0,1,.8-1.774,4.441,4.441,0,0,0,.018-6.282l-.018-.018a2.369,2.369,0,0,1-.21-3.343,2.37,2.37,0,0,1,.21-.21A4.408,4.408,0,0,0-3781.544-1431.056Z" transform="translate(3785.766 1469.054)"/>
    <path id="Path_251" data-name="Path 251" d="M-3742.854-1496.353a2.368,2.368,0,0,1-.209-3.343,2.429,2.429,0,0,1,.209-.21,4.4,4.4,0,0,0,1.31-3.15h-2.111a2.383,2.383,0,0,1-.8,1.776,4.445,4.445,0,0,0-.013,6.287l.013.013a2.369,2.369,0,0,1,.21,3.342,2.552,2.552,0,0,1-.21.21,4.4,4.4,0,0,0-1.309,3.148h2.111a2.385,2.385,0,0,1,.8-1.774,4.441,4.441,0,0,0,.018-6.281Z" transform="translate(3751.044 1531.555)"/>
  </g>
</svg>
