<svg xmlns="http://www.w3.org/2000/svg" width="71.326" height="71.326" viewBox="0 0 71.326 71.326">
  <g id="td3" transform="translate(0 0)">
    <g id="Group_79" data-name="Group 79" transform="translate(1.045 1.045)">
      <g id="Group_76" data-name="Group 76" transform="translate(0 0)">
        <path id="Path_129" data-name="Path 129" d="M-245.324-1448.708v17.425a5.188,5.188,0,0,1-5.189,5.188h-58.858a5.189,5.189,0,0,1-5.189-5.188v-17.479a12.96,12.96,0,0,1,3.409-1.638,12.991,12.991,0,0,1,3.852-.581h54.634a13,13,0,0,1,2.744.291c.293.063.581.136.867.219A12.881,12.881,0,0,1-245.324-1448.708Z" transform="translate(314.561 1495.331)" fill="#9fc3d7"/>
        <path id="Path_130" data-name="Path 130" d="M121.984-1446.909v17.425a5.189,5.189,0,0,1-5.189,5.188h-4.6a5.187,5.187,0,0,0,5.188-5.188v-19.407c.293.063.581.136.866.219a12.88,12.88,0,0,1,3.731,1.763Z" transform="translate(-52.747 1493.533)" fill="#7ca3bf"/>
        <path id="Path_131" data-name="Path 131" d="M-228-1450.471v.071a44.053,44.053,0,0,1-31.049,12.566,44.049,44.049,0,0,1-31.048-12.566,12.991,12.991,0,0,1,3.852-.581h54.634a12.967,12.967,0,0,1,3.611.51Z" transform="translate(293.501 1495.331)" fill="#e4f4ff"/>
        <path id="Path_132" data-name="Path 132" d="M-196.245-1561.391l-.032.026a40.28,40.28,0,0,1-49.711-.026,9.473,9.473,0,0,0,4.706-1.286,13.37,13.37,0,0,0,3.923-3.491,23.845,23.845,0,0,0,3.667-8.76,21.852,21.852,0,0,0,.51-4.333h24.132a21.919,21.919,0,0,0,.52,4.378,23.823,23.823,0,0,0,3.657,8.714c2.278,2.941,5.308,4.777,8.629,4.777Z" transform="translate(255.541 1605.74)" fill="#ffeac5"/>
        <path id="Path_133" data-name="Path 133" d="M-132.566-1574.882q-.74.627-1.506,1.247a17.509,17.509,0,0,1-11.01,3.907h-.065a17.531,17.531,0,0,1-11.035-3.921q-.794-.644-1.546-1.279a21.853,21.853,0,0,0,.51-4.333h24.132a21.92,21.92,0,0,0,.52,4.378Z" transform="translate(179.576 1605.74)" fill="#ffc69f"/>
        <path id="Path_134" data-name="Path 134" d="M-181.567-1758.763c0,4.561-3.356,9.89-9.988,15.877q-1.544,1.392-3.324,2.833a13.848,13.848,0,0,1-8.768,3.1,13.865,13.865,0,0,1-8.779-3.109c-8.828-7.144-13.305-13.438-13.305-18.7,0-.559.019-1.119.068-1.655.091-.924.153-2.614.188-4.744.021-1.261.031-2.676.032-4.179h43.587c0,4.034.077,7.44.221,8.909.046.55.068,1.11.068,1.669Z" transform="translate(238.107 1769.341)" fill="#ffeac5"/>
        <g id="Group_74" data-name="Group 74" transform="translate(31.914 39.87)">
          <circle id="Ellipse_20" data-name="Ellipse 20" cx="2.543" cy="2.543" r="2.543" fill="#ff2261"/>
          <path id="Path_135" data-name="Path 135" d="M-72.523-1480.6a2.542,2.542,0,0,1-2.542,2.542,2.519,2.519,0,0,1-1.271-.341,2.54,2.54,0,0,0,1.271-2.2,2.54,2.54,0,0,0-1.271-2.2,2.517,2.517,0,0,1,1.271-.342A2.542,2.542,0,0,1-72.523-1480.6Z" transform="translate(77.608 1483.14)" fill="#b7305d"/>
        </g>
        <path id="Path_136" data-name="Path 136" d="M29.338-1760.432c.046.55.068,1.11.068,1.669,0,4.561-3.356,9.89-9.988,15.877h-.029s6.2-9.848,5.44-15.877c-.071-.554-.024-1.119-.068-1.669-.145-1.468-.219-4.875-.222-8.909h4.578c0,4.034.077,7.44.222,8.909Z" transform="translate(27.133 1769.341)" fill="#ffc69f"/>
        <path id="Path_137" data-name="Path 137" d="M-100.279-1651.2a27.992,27.992,0,0,0-6.385-.734,27.975,27.975,0,0,0-6.384.734c1.312-2.152,2.956-4.843,6.384-4.843S-101.591-1653.354-100.279-1651.2Z" transform="translate(141.121 1671.828)" fill="#ffc69f"/>
        <g id="Group_75" data-name="Group 75" transform="translate(0 18.3)">
          <path id="Path_138" data-name="Path 138" d="M-310.441-1628.2l2.854-2.135-6.971-3.455,3-2.241,2.608-1.949,7.935,6.432-2.21,1.771,4.108,6.263Z" transform="translate(314.558 1637.98)" fill="#ffe527"/>
        </g>
      </g>
      <path id="Path_139" data-name="Path 139" d="M-305.6-1619.779l-1.988,1.485-6.971-3.455,3-2.241Z" transform="translate(314.558 1644.239)" fill="#ffbd29"/>
      <g id="Group_78" data-name="Group 78" transform="translate(53.798 18.353)">
        <g id="Group_77" data-name="Group 77" transform="translate(0)">
          <path id="Path_140" data-name="Path 140" d="M82.941-1627.815l-2.854-2.135,6.971-3.455-3-2.241-2.608-1.949-7.935,6.432,2.209,1.771-4.108,6.263Z" transform="translate(-71.619 1637.596)" fill="#ffe527"/>
        </g>
        <path id="Path_141" data-name="Path 141" d="M118.129-1619.395l1.988,1.485,6.971-3.455-3-2.241Z" transform="translate(-111.65 1625.555)" fill="#ffbd29"/>
      </g>
    </g>
    <g id="Group_80" data-name="Group 80" transform="translate(0)">
      <path id="Path_142" data-name="Path 142" d="M-97.242-1732.662a2.387,2.387,0,0,1,2.384-2.384,2.387,2.387,0,0,1,2.384,2.384,1.045,1.045,0,0,0,1.045,1.045,1.045,1.045,0,0,0,1.045-1.045,4.479,4.479,0,0,0-4.474-4.474,4.479,4.479,0,0,0-4.474,4.474,1.045,1.045,0,0,0,1.045,1.045,1.045,1.045,0,0,0,1.045-1.045Z" transform="translate(130.36 1742.667)"/>
      <path id="Path_143" data-name="Path 143" d="M-251.188-1730.032a13.951,13.951,0,0,0-7.933-2.458h-2.566c-2.842,0-5.608-1.547-7.79-4.356a23.917,23.917,0,0,1-3.962-12.019c6.644-6.082,10.008-11.571,10.008-16.352,0-.589-.024-1.18-.072-1.757l0-.016c-.134-1.361-.213-4.571-.216-8.806a1.045,1.045,0,0,0-1.045-1.044h-4.578a1.045,1.045,0,0,0-1.045,1.045,1.045,1.045,0,0,0,1.045,1.045h3.536c.015,3.778.094,6.645.223,7.957.043.517.064,1.047.064,1.576,0,4.937-4.349,10.958-12.927,17.9a12.839,12.839,0,0,1-8.078,2.869h-.058a12.859,12.859,0,0,1-8.095-2.877c-8.572-6.937-12.919-12.956-12.919-17.891,0-.557.022-1.083.064-1.553.113-1.153.167-3.262.193-4.828.016-.963.026-2.02.03-3.152h33.122a1.045,1.045,0,0,0,1.045-1.045,1.045,1.045,0,0,0-1.045-1.045h-34.165a1.045,1.045,0,0,0-1.045,1.044c0,1.52-.012,2.92-.032,4.163-.036,2.19-.1,3.8-.184,4.667-.048.542-.073,1.13-.073,1.748,0,4.781,3.365,10.27,10.009,16.351a23.918,23.918,0,0,1-3.962,12.02c-2.182,2.809-4.948,4.356-7.79,4.356h-2.325a14.034,14.034,0,0,0-4.144.623l-.029.01a13.957,13.957,0,0,0-3.673,1.766,1.045,1.045,0,0,0-.46.866v17.479a6.24,6.24,0,0,0,6.233,6.233,1.045,1.045,0,0,0,1.045-1.045,1.045,1.045,0,0,0-1.045-1.045,4.148,4.148,0,0,1-4.144-4.144v-16.909a11.87,11.87,0,0,1,2.094-1.012,43.186,43.186,0,0,0,14.271,9.166,46.43,46.43,0,0,0,17.05,3.248,46.469,46.469,0,0,0,20.912-4.993,1.045,1.045,0,0,0,.456-1.406,1.045,1.045,0,0,0-1.405-.456,44.366,44.366,0,0,1-19.963,4.765,44.33,44.33,0,0,1-16.281-3.1,41.217,41.217,0,0,1-12.637-7.831,12.026,12.026,0,0,1,1.72-.124h1.97a41.191,41.191,0,0,0,11.886,6.387,41.264,41.264,0,0,0,13.319,2.208h.022a41.264,41.264,0,0,0,13.3-2.195,41.193,41.193,0,0,0,11.927-6.4h2.211a12.09,12.09,0,0,1,1.508.1,40.657,40.657,0,0,1-5.042,3.91,1.044,1.044,0,0,0-.3,1.447,1.044,1.044,0,0,0,.874.472,1.038,1.038,0,0,0,.572-.171,42.641,42.641,0,0,0,6.334-5.084,11.868,11.868,0,0,1,2.351,1.125v16.86a4.148,4.148,0,0,1-4.144,4.144H-310.98a1.045,1.045,0,0,0-1.045,1.045,1.045,1.045,0,0,0,1.045,1.045h54.012a6.24,6.24,0,0,0,6.234-6.233v-17.425a1.044,1.044,0,0,0-.453-.861Zm-22.743,4.055a39.185,39.185,0,0,1-12.627,2.083h-.021a39.18,39.18,0,0,1-12.646-2.1,39.036,39.036,0,0,1-9.517-4.775,13.1,13.1,0,0,0,6.766-4.817l.025-.033a25.918,25.918,0,0,0,4.224-11.526q.837.714,1.732,1.439a14.948,14.948,0,0,0,9.407,3.344h.067a14.932,14.932,0,0,0,9.39-3.335q.9-.728,1.74-1.446a25.915,25.915,0,0,0,4.224,11.524l.025.033a13.1,13.1,0,0,0,6.767,4.816,39.044,39.044,0,0,1-9.556,4.789Z" transform="translate(322.061 1776.839)"/>
      <path id="Path_144" data-name="Path 144" d="M-120.4-1658.2a1.045,1.045,0,0,0,.046,1.156,1.045,1.045,0,0,0,1.085.4,27.222,27.222,0,0,1,12.293,0,1.043,1.043,0,0,0,.238.028,1.045,1.045,0,0,0,.846-.432,1.045,1.045,0,0,0,.046-1.156c-1.375-2.255-3.257-5.344-7.278-5.344s-5.9,3.088-7.277,5.344Zm7.277-3.254a5.1,5.1,0,0,1,4.153,2.315,29.223,29.223,0,0,0-4.153-.3,29.239,29.239,0,0,0-4.152.3A5.105,5.105,0,0,1-113.121-1661.456Z" transform="translate(148.623 1679.328)"/>
      <path id="Path_145" data-name="Path 145" d="M-101.266-1505.311h-1.9a3.555,3.555,0,0,0-.267-.642l.913-.913a1.045,1.045,0,0,0,0-1.478,1.045,1.045,0,0,0-1.478,0l-.913.913a3.556,3.556,0,0,0-.642-.267v-1.9a1.045,1.045,0,0,0-1.045-1.045,1.045,1.045,0,0,0-1.045,1.045v1.9a3.575,3.575,0,0,0-.642.267l-2.455-2.455a1.045,1.045,0,0,0-1.478,0,1.045,1.045,0,0,0,0,1.478l2.455,2.455a3.572,3.572,0,0,0-.267.642h-1.9a1.045,1.045,0,0,0-1.045,1.045,1.045,1.045,0,0,0,1.045,1.045h1.9a3.57,3.57,0,0,0,.267.642l-.913.914a1.045,1.045,0,0,0,0,1.478,1.042,1.042,0,0,0,.739.306,1.042,1.042,0,0,0,.739-.306l.913-.914a3.556,3.556,0,0,0,.643.267v1.9a1.045,1.045,0,0,0,1.045,1.045,1.045,1.045,0,0,0,1.045-1.045v-1.9a3.557,3.557,0,0,0,.642-.267l2.455,2.455a1.043,1.043,0,0,0,.739.306,1.041,1.041,0,0,0,.739-.306,1.045,1.045,0,0,0,0-1.478l-2.455-2.455a3.569,3.569,0,0,0,.267-.642h1.9a1.045,1.045,0,0,0,1.045-1.045A1.045,1.045,0,0,0-101.266-1505.311Zm-5.329,2.542a1.5,1.5,0,0,1-1.5-1.5,1.5,1.5,0,0,1,1.5-1.5,1.5,1.5,0,0,1,1.5,1.5A1.5,1.5,0,0,1-106.594-1502.768Z" transform="translate(142.097 1547.723)"/>
      <path id="Path_146" data-name="Path 146" d="M-321.48-1639.312l5.449,2.7-1.494,1.117a1.045,1.045,0,0,0-.411.967,1.045,1.045,0,0,0,.637.835l11.322,4.685a1.041,1.041,0,0,0,.4.08,1.044,1.044,0,0,0,.805-.379,1.045,1.045,0,0,0,.069-1.239l-3.587-5.469,1.468-1.177a1.045,1.045,0,0,0,.391-.812,1.046,1.046,0,0,0-.387-.814l-7.935-6.432a1.045,1.045,0,0,0-1.284-.025l-5.6,4.191a1.045,1.045,0,0,0-.415.932,1.045,1.045,0,0,0,.576.842Zm6.043-3.8,6.3,5.1-1.2.961a1.045,1.045,0,0,0-.22,1.388l2.248,3.428-6.492-2.687,1.384-1.035a1.045,1.045,0,0,0,.415-.932,1.045,1.045,0,0,0-.576-.841l-5.449-2.7Z" transform="translate(322.061 1663.782)"/>
      <path id="Path_147" data-name="Path 147" d="M-297.008-1519.388a1.045,1.045,0,0,0,.833.642l5.521.717a1.109,1.109,0,0,0,.136.009,1.045,1.045,0,0,0,1.035-.91,1.045,1.045,0,0,0-.9-1.171l-3.693-.479,1.09-1.381a1.045,1.045,0,0,0,.148-1.042,1.044,1.044,0,0,0-.833-.642l-5.521-.716a1.045,1.045,0,0,0-1.17.9,1.045,1.045,0,0,0,.9,1.17l3.693.479-1.09,1.381a1.045,1.045,0,0,0-.148,1.042Z" transform="translate(303.395 1559.542)"/>
      <path id="Path_148" data-name="Path 148" d="M66.016-1637.617a1.045,1.045,0,0,0,.391.813l1.468,1.177-3.587,5.469a1.045,1.045,0,0,0,.069,1.239,1.044,1.044,0,0,0,.805.379,1.04,1.04,0,0,0,.4-.079l11.322-4.685a1.045,1.045,0,0,0,.637-.835,1.044,1.044,0,0,0-.411-.967l-1.494-1.117,5.449-2.7a1.045,1.045,0,0,0,.577-.841,1.045,1.045,0,0,0-.415-.932l-5.6-4.191a1.045,1.045,0,0,0-1.284.025l-7.935,6.432a1.044,1.044,0,0,0-.387.814Zm3.907.954-1.2-.961,6.3-5.1,3.592,2.686-5.449,2.7a1.045,1.045,0,0,0-.577.841,1.045,1.045,0,0,0,.415.932l1.384,1.035-6.492,2.687,2.248-3.428a1.045,1.045,0,0,0-.22-1.388Z" transform="translate(-10.319 1663.448)"/>
      <path id="Path_149" data-name="Path 149" d="M100.91-1523.075a1.045,1.045,0,0,0-1.17-.9l-5.521.716a1.045,1.045,0,0,0-.833.642,1.045,1.045,0,0,0,.148,1.042l1.09,1.381-3.693.479a1.045,1.045,0,0,0-.9,1.171,1.045,1.045,0,0,0,1.035.91,1.067,1.067,0,0,0,.136-.009l5.521-.716a1.045,1.045,0,0,0,.833-.642,1.045,1.045,0,0,0-.148-1.042l-1.09-1.381,3.693-.479a1.045,1.045,0,0,0,.9-1.171Z" transform="translate(-32.614 1559.21)"/>
      <circle id="Ellipse_21" data-name="Ellipse 21" cx="1.044" cy="1.044" r="1.044" transform="translate(25.315 47.031)"/>
      <circle id="Ellipse_22" data-name="Ellipse 22" cx="1.044" cy="1.044" r="1.044" transform="translate(24.776 40.303)"/>
      <circle id="Ellipse_23" data-name="Ellipse 23" cx="1.044" cy="1.044" r="1.044" transform="translate(43.026 35.009)"/>
      <circle id="Ellipse_24" data-name="Ellipse 24" cx="1.044" cy="1.044" r="1.044" transform="translate(43.862 44.343)"/>
    </g>
  </g>
</svg>
