<svg xmlns="http://www.w3.org/2000/svg" width="68.483" height="68.483" viewBox="0 0 68.483 68.483">
  <g id="td4" transform="translate(0 0)">
    <g id="Group_94" data-name="Group 94" transform="translate(3.968 38.286)">
      <path id="Path_192" data-name="Path 192" d="M-1978.8-1474.552v3.259a3,3,0,0,1-3,3h-.045a16.525,16.525,0,0,0-16.525,16.524v3.906h49.8v-3.906a16.524,16.524,0,0,0-16.524-16.524,3,3,0,0,1-3-3v-3.281Z" transform="translate(1998.376 1474.573)" fill="#f5c6af"/>
    </g>
    <g id="Group_95" data-name="Group 95" transform="translate(51.094 1.337)">
      <path id="Path_193" data-name="Path 193" d="M-1632.667-1729.1v-16.358a5.351,5.351,0,0,0-5.35-5.351,5.35,5.35,0,0,0-5.35,5.351v16.358a8,8,0,0,0-2.675,5.98,8.025,8.025,0,0,0,8.025,8.025,8.026,8.026,0,0,0,8.025-8.025A8,8,0,0,0-1632.667-1729.1Z" transform="translate(1646.042 1750.81)" fill="#a0c8ff"/>
      <ellipse id="Ellipse_26" data-name="Ellipse 26" cx="2.294" cy="3.058" rx="2.294" ry="3.058" transform="translate(6.084 25.258)" fill="#ff5c7d"/>
    </g>
    <path id="Path_194" data-name="Path 194" d="M-1871.756-1601.336v7.42a10.851,10.851,0,0,1-10.851,10.852,10.852,10.852,0,0,1-10.852-10.852v-7.42" transform="translate(1911.46 1622.667)" fill="#f2ccac"/>
    <path id="Path_195" data-name="Path 195" d="M-1871.756-1601.336v7.42a10.851,10.851,0,0,1-10.851,10.852,10.852,10.852,0,0,1-10.852-10.852v-7.42Z" transform="translate(1911.46 1622.667)" fill="#f5c6af"/>
    <path id="Path_196" data-name="Path 196" d="M-1882.608-1707.078a10.851,10.851,0,0,0-10.851,10.851v3.292h21.7v-3.292a10.851,10.851,0,0,0-10.852-10.851Z" transform="translate(1911.46 1714.265)" fill="#ffd88e"/>
    <path id="Path_197" data-name="Path 197" d="M-1844.089-1632.81h-6.938a2.015,2.015,0,0,0-2.015,2.015v3.193a2.015,2.015,0,0,0,2.015,2.015h6.938a2.015,2.015,0,0,0,2.015-2.015v-3.193A2.015,2.015,0,0,0-1844.089-1632.81Z" transform="translate(1876.449 1649.931)" fill="#fff"/>
    <path id="Path_198" data-name="Path 198" d="M-1966.657-1330.81h-47.706a3.679,3.679,0,0,0-3.678,3.678v5.952h55.063v-5.952A3.678,3.678,0,0,0-1966.657-1330.81Z" transform="translate(2019.38 1388.325)" fill="#a0c8ff"/>
    <g id="Group_96" data-name="Group 96" transform="translate(0 0)">
      <path id="Path_199" data-name="Path 199" d="M-1610.692-1674.063v-14.409a1.338,1.338,0,0,0-1.338-1.338,1.337,1.337,0,0,0-1.337,1.338v14.409a4.019,4.019,0,0,0-2.675,3.783,4.017,4.017,0,0,0,4.012,4.012,4.017,4.017,0,0,0,4.012-4.012A4.019,4.019,0,0,0-1610.692-1674.063Zm-1.338,5.12a1.339,1.339,0,0,1-1.337-1.338,1.339,1.339,0,0,1,1.337-1.338,1.339,1.339,0,0,1,1.338,1.338A1.339,1.339,0,0,1-1612.029-1668.943Z" transform="translate(1671.149 1699.307)"/>
      <path id="Path_200" data-name="Path 200" d="M-1639.991-1738.335v-15.787a6.7,6.7,0,0,0-6.688-6.688,6.7,6.7,0,0,0-6.688,6.688v15.787a9.379,9.379,0,0,0-2.675,6.551,9.374,9.374,0,0,0,9.363,9.363,9.374,9.374,0,0,0,9.363-9.363A9.378,9.378,0,0,0-1639.991-1738.335Zm-6.688,13.239a6.7,6.7,0,0,1-6.688-6.688,6.7,6.7,0,0,1,2.23-4.984,1.338,1.338,0,0,0,.445-1v-16.358a4.017,4.017,0,0,1,4.012-4.013,4.017,4.017,0,0,1,4.012,4.013v16.358a1.339,1.339,0,0,0,.446,1,6.7,6.7,0,0,1,2.229,4.984A6.7,6.7,0,0,1-1646.679-1725.1Z" transform="translate(1705.799 1760.81)"/>
      <path id="Path_201" data-name="Path 201" d="M-2026.7-1473.259a1.338,1.338,0,0,0,1.338-1.338.6.6,0,0,1,.6-.6,3.278,3.278,0,0,0,3.274-3.275.965.965,0,0,1,.963-.964,3.559,3.559,0,0,0,3.555-3.555.6.6,0,0,1,.6-.6,1.338,1.338,0,0,0,1.337-1.337,1.337,1.337,0,0,0-1.337-1.338,3.278,3.278,0,0,0-3.274,3.274.881.881,0,0,1-.88.88,3.643,3.643,0,0,0-3.638,3.64.6.6,0,0,1-.6.6,3.278,3.278,0,0,0-3.274,3.274A1.338,1.338,0,0,0-2026.7-1473.259Z" transform="translate(2028.042 1522.985)"/>
      <path id="Path_202" data-name="Path 202" d="M-1692.5-1483.588a.6.6,0,0,1,.6.6,3.559,3.559,0,0,0,3.555,3.555.965.965,0,0,1,.963.965,3.278,3.278,0,0,0,3.274,3.274.6.6,0,0,1,.6.6,1.337,1.337,0,0,0,1.337,1.338,1.337,1.337,0,0,0,1.338-1.338,3.278,3.278,0,0,0-3.274-3.274.6.6,0,0,1-.6-.6,3.643,3.643,0,0,0-3.638-3.639.881.881,0,0,1-.88-.88,3.278,3.278,0,0,0-3.274-3.274,1.338,1.338,0,0,0-1.338,1.338A1.338,1.338,0,0,0-1692.5-1483.588Z" transform="translate(1738.535 1522.985)"/>
      <path id="Path_203" data-name="Path 203" d="M-1832.616-1538.681a3.913,3.913,0,0,0-2.785,1.154,1.338,1.338,0,0,0,0,1.892,1.337,1.337,0,0,0,1.892,0,1.255,1.255,0,0,1,.893-.37,1.256,1.256,0,0,1,.894.37,1.332,1.332,0,0,0,.946.392,1.333,1.333,0,0,0,.946-.392,1.338,1.338,0,0,0,0-1.892,3.914,3.914,0,0,0-2.785-1.154Z" transform="translate(1861.507 1568.392)"/>
      <path id="Path_204" data-name="Path 204" d="M-1973.53-1666.418a17.943,17.943,0,0,0-6.008-9.281,17.9,17.9,0,0,0-11.26-3.995,1.668,1.668,0,0,1-1.666-1.666v-2.656a12.187,12.187,0,0,0,5.462-10.159v-10.713a12.2,12.2,0,0,0-12.189-12.189,12.2,12.2,0,0,0-12.189,12.189v10.713a12.189,12.189,0,0,0,5.54,10.21v2.6a1.668,1.668,0,0,1-1.666,1.666h-.045a17.9,17.9,0,0,0-11.26,3.995,17.943,17.943,0,0,0-6.008,9.281,5.023,5.023,0,0,0-3.226,4.684v5.952a1.338,1.338,0,0,0,1.338,1.337,1.337,1.337,0,0,0,1.338-1.337v-5.952a2.344,2.344,0,0,1,2.341-2.341h17.856a1.338,1.338,0,0,0,1.338-1.338,1.338,1.338,0,0,0-1.338-1.338h-16.748a15.292,15.292,0,0,1,14.369-10.269h.045a4.346,4.346,0,0,0,4.341-4.341v-1.292a12.132,12.132,0,0,0,3.974.666,12.126,12.126,0,0,0,4.051-.693v1.32a4.346,4.346,0,0,0,4.342,4.341,15.293,15.293,0,0,1,14.369,10.269h-16.7a1.338,1.338,0,0,0-1.338,1.338,1.338,1.338,0,0,0,1.338,1.338h17.812a2.343,2.343,0,0,1,2.341,2.341v5.952a1.337,1.337,0,0,0,1.338,1.337,1.338,1.338,0,0,0,1.338-1.337v-5.952A5.023,5.023,0,0,0-1973.53-1666.418Zm-35.173-38.471a9.524,9.524,0,0,1,9.513-9.514,9.525,9.525,0,0,1,9.514,9.514v1.955h-2.654v-.857a3.357,3.357,0,0,0-3.353-3.353h-6.937a3.356,3.356,0,0,0-3.353,3.353v.857h-2.731Zm13.7,1.1v3.192a.678.678,0,0,1-.678.677h-6.937a.678.678,0,0,1-.677-.677v-3.192a.678.678,0,0,1,.677-.678h6.938A.679.679,0,0,1-1995-1703.792Zm-13.7,9.615v-6.083h2.748a3.357,3.357,0,0,0,3.335,3.013h6.938a3.358,3.358,0,0,0,3.336-3.013h2.671v6.083a9.524,9.524,0,0,1-9.514,9.513A9.524,9.524,0,0,1-2008.7-1694.176Z" transform="translate(2028.042 1722.928)"/>
      <path id="Path_205" data-name="Path 205" d="M-1820.875-1340.81a1.342,1.342,0,0,0-.946.392,1.349,1.349,0,0,0-.392.946,1.348,1.348,0,0,0,.392.945,1.347,1.347,0,0,0,.946.392,1.348,1.348,0,0,0,.946-.392,1.341,1.341,0,0,0,.392-.945,1.342,1.342,0,0,0-.392-.946A1.341,1.341,0,0,0-1820.875-1340.81Z" transform="translate(1849.743 1396.987)"/>
    </g>
  </g>
</svg>
