<svg xmlns="http://www.w3.org/2000/svg" width="82.691" height="65.198" viewBox="0 0 82.691 65.198">
  <g id="td8" transform="translate(-237.5 -675)">
    <g id="sal" transform="translate(237.5 675.59)">
      <path id="Path_1959" data-name="Path 1959" d="M17.833,376H9.967A1.966,1.966,0,0,0,8,377.967v1.967A1.966,1.966,0,0,0,9.967,381.9h7.867a1.966,1.966,0,0,0,1.967-1.967v-1.967A1.966,1.966,0,0,0,17.833,376Z" transform="translate(-7.017 -329.962)" fill="#68c9ba"/>
      <path id="Path_1960" data-name="Path 1960" d="M209.967,379.933a1.966,1.966,0,0,0,1.967-1.967v2.458a2.458,2.458,0,1,0,4.917,0V376H208v1.967A1.966,1.966,0,0,0,209.967,379.933Z" transform="translate(-182.433 -329.962)" fill="#f7ba21"/>
      <path id="Path_1961" data-name="Path 1961" d="M188.783,380.425a2.458,2.458,0,1,1-4.917,0v-2.458a1.967,1.967,0,1,1-3.933,0V376H176v3.933a7.867,7.867,0,0,0,7.867,7.867h20.65a7.867,7.867,0,0,0,7.867-7.867V376h-23.6Z" transform="translate(-154.367 -329.962)" fill="#efe5d3"/>
      <path id="Path_1962" data-name="Path 1962" d="M172.1,132.235l-5.985-7.695a3.936,3.936,0,0,0-2.333-1.443l-1.418-.283a3.934,3.934,0,0,0-3.553,1.076l-2.923,2.923a3.933,3.933,0,0,0-1.076,3.553l.283,1.418a3.932,3.932,0,0,0,1.443,2.333l7.7,5.984Z" transform="translate(-135.712 -107.831)" fill="#68c9ba"/>
      <g id="Group_558" data-name="Group 558" transform="translate(28.517 10.638)">
        <path id="Path_1963" data-name="Path 1963" d="M312.709,97.019a3.934,3.934,0,0,0,5.563,0l1.151-1.152L311.556,88,310.4,89.152a3.934,3.934,0,0,0,0,5.563Z" transform="translate(-299.756 -88)" fill="#efe5d3"/>
        <path id="Path_1964" data-name="Path 1964" d="M233.152,209.019a3.934,3.934,0,0,0,5.563,0l2.3-2.3a3.934,3.934,0,0,0,0-5.563L239.867,200,232,207.867Z" transform="translate(-232 -186.233)" fill="#efe5d3"/>
      </g>
      <path id="Path_1965" data-name="Path 1965" d="M343.5,21.748a3.933,3.933,0,0,0,1.465-2.458l.4-2.389a3.935,3.935,0,0,0-1.1-3.428l-2.054-2.054a3.932,3.932,0,0,0-3.428-1.1l-2.389.4a3.933,3.933,0,0,0-2.458,1.465L328,19.821l7.867,7.867Zm-8.621-2.91A1.967,1.967,0,1,1,336.85,20.8,1.966,1.966,0,0,1,334.883,18.838Z" transform="translate(-287.683 -9.184)" fill="#f7ba21"/>
      <circle id="Ellipse_117" data-name="Ellipse 117" cx="2" cy="2" r="2" transform="translate(47.5 7.41)" fill="#efe5d3"/>
      <g id="Group_559" data-name="Group 559" transform="translate(0 -0.24)">
        <path id="Path_1966" data-name="Path 1966" d="M58.017,368H21.633a.983.983,0,0,0-.983.983v.983H13.586A2.946,2.946,0,0,0,10.817,368H2.95A2.954,2.954,0,0,0,0,370.95v1.967a2.954,2.954,0,0,0,2.95,2.95h7.867a2.954,2.954,0,0,0,2.95-2.95v-.983H20.65v.983a8.86,8.86,0,0,0,8.85,8.85H50.15a8.86,8.86,0,0,0,8.85-8.85v-3.933A.983.983,0,0,0,58.017,368ZM11.8,372.917a.984.984,0,0,1-.983.983H2.95a.984.984,0,0,1-.983-.983V370.95a.984.984,0,0,1,.983-.983h7.867a.984.984,0,0,1,.983.983Zm14.75-2.95h1.967v.983a.983.983,0,0,1-1.967,0Zm3.933,0h2.95v3.442a1.475,1.475,0,1,1-2.95,0Zm26.55,2.95A6.892,6.892,0,0,1,50.15,379.8H29.5a6.892,6.892,0,0,1-6.883-6.883v-2.95h1.967v.983a2.954,2.954,0,0,0,2.95,2.95,2.921,2.921,0,0,0,1-.174,3.442,3.442,0,0,0,6.869-.318v-3.442H57.033Z" transform="translate(0 -322.705)" fill="#202020"/>
        <path id="Path_1967" data-name="Path 1967" d="M146.828,123.547l.283,1.417a4.918,4.918,0,0,0,1.8,2.917l7.645,5.946,1.11,1.11a4.924,4.924,0,0,0,6.954,0l2.3-2.3a4.914,4.914,0,0,0,0-6.952l-1.106-1.106-5.95-7.649a4.919,4.919,0,0,0-2.918-1.8l-1.417-.283a4.91,4.91,0,0,0-4.441,1.344l-2.923,2.923A4.909,4.909,0,0,0,146.828,123.547Zm18.708,7.695-2.3,2.3a2.958,2.958,0,0,1-4.172,0l-.456-.457,6.476-6.476.456.457a2.948,2.948,0,0,1,0,4.171ZM149.564,120.5l2.923-2.923a2.949,2.949,0,0,1,2.084-.864,2.986,2.986,0,0,1,.581.058l1.417.283a2.953,2.953,0,0,1,1.75,1.083l5.452,7.009-6.638,6.639-7.009-5.452a2.957,2.957,0,0,1-1.083-1.75l-.284-1.418A2.945,2.945,0,0,1,149.564,120.5Z" transform="translate(-128.697 -100.578)" fill="#202020"/>
        <path id="Path_1968" data-name="Path 1968" d="M313.056,21.413l7.587-5.9a4.9,4.9,0,0,0,1.831-3.074l.4-2.389A4.923,4.923,0,0,0,321.5,5.766l-2.054-2.055a4.925,4.925,0,0,0-4.284-1.373l-2.389.4A4.9,4.9,0,0,0,309.7,4.566l-5.9,7.592-1.106,1.106a4.914,4.914,0,0,0,0,6.952l2.3,2.3a4.924,4.924,0,0,0,6.954,0Zm-1.8-15.637a2.941,2.941,0,0,1,1.844-1.1l2.389-.4a2.961,2.961,0,0,1,2.57.823l2.054,2.055a2.953,2.953,0,0,1,.824,2.57l-.4,2.389a2.944,2.944,0,0,1-1.1,1.844l-6.952,5.407-6.638-6.639Zm-.7,15.357a2.958,2.958,0,0,1-4.172,0l-2.3-2.3a2.948,2.948,0,0,1,0-4.171l.456-.457,6.476,6.476Z" transform="translate(-264.22 -1.931)" fill="#202020"/>
        <rect id="Rectangle_233" data-name="Rectangle 233" width="2" height="2" transform="translate(33.5 40.651)" fill="#202020"/>
        <rect id="Rectangle_234" data-name="Rectangle 234" width="2" height="2" transform="translate(37.5 38.651)" fill="#202020"/>
        <rect id="Rectangle_235" data-name="Rectangle 235" width="2" height="2" transform="translate(41.5 41.651)" fill="#202020"/>
        <rect id="Rectangle_236" data-name="Rectangle 236" width="2" height="2" transform="translate(43.5 30.651)" fill="#202020"/>
        <rect id="Rectangle_237" data-name="Rectangle 237" width="2" height="2" transform="translate(43.5 25.651)" fill="#202020"/>
        <rect id="Rectangle_238" data-name="Rectangle 238" width="2" height="2" transform="translate(42.5 35.651)" fill="#202020"/>
        <rect id="Rectangle_239" data-name="Rectangle 239" width="5.563" height="1.967" transform="translate(30.194 22.391) rotate(135)" fill="#202020"/>
        <path id="Path_1969" data-name="Path 1969" d="M381.9,58.95a2.95,2.95,0,1,0-2.95,2.95A2.954,2.954,0,0,0,381.9,58.95Zm-3.933,0a.983.983,0,1,1,.983.983A.984.984,0,0,1,377.967,58.95Z" transform="translate(-329.783 -49.055)" fill="#202020"/>
        <rect id="Rectangle_240" data-name="Rectangle 240" width="2" height="8" transform="translate(23.5 3.651)" fill="#202020"/>
        <rect id="Rectangle_241" data-name="Rectangle 241" width="2" height="2" transform="translate(23.5 -0.349)" fill="#202020"/>
        <rect id="Rectangle_242" data-name="Rectangle 242" width="2" height="8" transform="translate(18.5 5.651)" fill="#202020"/>
        <rect id="Rectangle_243" data-name="Rectangle 243" width="2" height="2" transform="translate(18.5 1.651)" fill="#202020"/>
      </g>
    </g>
    <g id="Group_566" data-name="Group 566" transform="translate(286.316 706.212)">
      <g id="Group_564" data-name="Group 564" transform="translate(0.846 0.847)">
        <g id="Group_560" data-name="Group 560">
          <path id="Path_1971" data-name="Path 1971" d="M116.936,223.963V204.028h-8.465q0,9.968,0,19.935Z" transform="translate(-84.754 -203.418)" fill="#afd1f2" fill-rule="evenodd"/>
          <path id="Path_1972" data-name="Path 1972" d="M207.188,118.793V102.244h-5.606l-3.3-2.3H187.8a2.565,2.565,0,1,0,0,5.13c-1.723,0-3.567.326-3.567,2.565A2.573,2.573,0,0,0,186.8,110.2a2.621,2.621,0,1,0-.315,5.223c-1.629,0-3.013.9-3.013,2.663a2.671,2.671,0,0,0,2.663,2.663h7.615v8.819a2.671,2.671,0,0,0,2.663,2.663h2.663v-6.141l4.449-7.3Z" transform="translate(-183.471 -99.941)" fill="#fedbad" fill-rule="evenodd"/>
          <path id="Path_1973" data-name="Path 1973" d="M111.01,223.963h-2.539V204.028h2.539Z" transform="translate(-78.829 -203.418)" fill="#99c5f2" fill-rule="evenodd"/>
          <path id="Path_1974" data-name="Path 1974" d="M194.122,116.491V99.942h-2.539v14.009h-2.114l-6,9.84v6.14h2.539v-6.14l4.449-7.3Z" transform="translate(-170.405 -97.639)" fill="#fab684" fill-rule="evenodd"/>
        </g>
        <g id="Group_562" data-name="Group 562" transform="translate(26.256 9.541)">
          <path id="Path_1977" data-name="Path 1977" d="M145.971,226.527h1.693v5.079h-1.693Zm0,6.772h1.693v1.693h-1.693Z" transform="translate(-145.971 -226.527)" fill="#fff"/>
        </g>
      </g>
      <g id="Group_565" data-name="Group 565" transform="translate(0 0)">
        <path id="Path_1981" data-name="Path 1981" d="M278.881,213.173a3.514,3.514,0,0,0,3.51,3.51h10.285V214.99H282.391a1.819,1.819,0,0,1-1.817-1.817c0-1.686,1.658-1.817,2.166-1.817h2.67v-1.693h-2.67a1.767,1.767,0,0,1-1.765-1.765c0-1.3,1.075-1.765,2.081-1.765h2.354V204.44h-2.354a1.72,1.72,0,0,1-1.718-1.718c0-1.061.455-1.718,2.72-1.718h1.352V199.31h-1.352a1.718,1.718,0,0,1,0-3.437h4.392V194.18h-4.392a3.41,3.41,0,0,0-2.634,5.577q-.1.045-.194.1a3.014,3.014,0,0,0-1.585,2.869,3.4,3.4,0,0,0,1.013,2.424,3.28,3.28,0,0,0-1.375,2.752,3.448,3.448,0,0,0,1.033,2.463A3.321,3.321,0,0,0,278.881,213.173Z" transform="translate(-278.881 -194.18)"/>
        <path id="Path_1982" data-name="Path 1982" d="M123.584,300.452H113.426v1.693h-4.494l-3.3-2.3h-4.658v1.693H105.1l3.3,2.3h5.026v6.582h1.693v-8.275h6.772v4.232h1.693Z" transform="translate(-89.71 -299.842)"/>
        <path id="Path_1983" data-name="Path 1983" d="M124.567,106.452V92.442h-1.693v12.317H116.1V96.484h-1.693v6.582h-3.291l-4.821,7.909v5.532h-1.817a1.819,1.819,0,0,1-1.817-1.817v-6.28h-1.693v6.28a3.514,3.514,0,0,0,3.51,3.51h3.51V111.45l4.078-6.691h2.34v1.693Z" transform="translate(-90.692 -84.214)"/>
      </g>
    </g>
  </g>
</svg>
