<svg xmlns="http://www.w3.org/2000/svg" width="38.263" height="38.266" viewBox="0 0 38.263 38.266">
  <g id="teleconsulta" transform="translate(-15.536 -16)">
    <path id="Path_1902" data-name="Path 1902" d="M60.987,54.485l-1.053,1.58q-.322.482-.67.945-.258.344-.533.678c-.089.108-.179.217-.271.324q-.519.606-1.084,1.173a6.162,6.162,0,0,1-5.664,1.664A32.183,32.183,0,0,1,35.8,52.158L32.83,49.191a32.194,32.194,0,0,1-8.691-15.917A6.162,6.162,0,0,1,25.8,27.61a20.509,20.509,0,0,1,3.119-2.557L30.5,24l7.622,7.621-3.811,3.811-.646.646a1.4,1.4,0,0,0,0,1.975L46.935,51.321a1.4,1.4,0,0,0,1.975,0l.646-.646,3.811-3.811Z" transform="translate(-7.826 -7.362)" fill="#348fd9"/>
    <path id="Path_1903" data-name="Path 1903" d="M79.343,212.527l-1.149.554c.269.559.56,1.117.863,1.658l1.113-.624C79.879,213.6,79.6,213.062,79.343,212.527Z" transform="translate(-57.701 -180.861)" fill="#459de6"/>
    <path id="Path_1904" data-name="Path 1904" d="M106.045,256.451a29.08,29.08,0,0,1-3.867-4.788l-1.072.691a30.359,30.359,0,0,0,4.037,5l1.482,1.482.9-.9Z" transform="translate(-78.786 -216.877)" fill="#459de6"/>
    <path id="Path_1905" data-name="Path 1905" d="M384.724,366.05q-.258.344-.532.678c-.089.108-.179.217-.271.324l-6.271-6.345.907-.9Z" transform="translate(-333.285 -316.403)" fill="#206cab"/>
    <path id="Path_1906" data-name="Path 1906" d="M87.482,68.9l-.9.9-6.61-6.738.91-.894Z" transform="translate(-59.335 -42.49)" fill="#206cab"/>
    <path id="Path_1907" data-name="Path 1907" d="M205.392,24a10.155,10.155,0,0,0-5.414,1.554,7.921,7.921,0,0,0-7.978.359,6.336,6.336,0,0,1,4.9,2.63A10.2,10.2,0,1,0,205.392,24Z" transform="translate(-162.435 -7.362)" fill="#4db7e5"/>
    <path id="Path_1908" data-name="Path 1908" d="M292.755,76.464h-4.464V72h-3.826v4.464H280v3.826h4.464v4.464h3.826V80.291h4.464Z" transform="translate(-243.42 -51.536)" fill="#e0e0de"/>
    <path id="Path_1909" data-name="Path 1909" d="M421.31,248.217l-.51-1.169a12.173,12.173,0,0,0,4.847-3.838l1.02.766A13.451,13.451,0,0,1,421.31,248.217Z" transform="translate(-372.996 -209.098)" fill="#e0e0de"/>
    <path id="Path_1910" data-name="Path 1910" d="M87.61,161.089a7.009,7.009,0,0,1-3.573-.922l.632-1.108a5.786,5.786,0,0,0,3.372.74.638.638,0,0,1,.084,1.272Q87.868,161.088,87.61,161.089Z" transform="translate(-63.078 -131.654)" fill="#206cab"/>
    <path id="Path_1911" data-name="Path 1911" d="M328.949,373.431a6.95,6.95,0,0,1-.653-3.559.638.638,0,0,1,1.273.088,5.682,5.682,0,0,0,.535,2.931Z" transform="translate(-287.845 -325.121)" fill="#206cab"/>
    <path id="Path_1912" data-name="Path 1912" d="M27.888,20.7a19.877,19.877,0,0,1,3.022-2.478l1.145-.763,6.8,6.8L37.219,25.9,31,19.681l-.9.9L36.317,26.8l-1.346,1.346a6.147,6.147,0,0,1-3.921-.739l-.632,1.108a7.428,7.428,0,0,0,3.674.972c.058,0,.117,0,.175,0a2.031,2.031,0,0,0,.582,1.661L48.118,44.414a2.034,2.034,0,0,0,1.751.57,7.369,7.369,0,0,0,.695,3.33l1.155-.54a6.1,6.1,0,0,1-.5-3.59L55,40.408l4.108,4.108.9-.9-4.559-4.559a.638.638,0,0,0-.9,0l-4.457,4.457a.759.759,0,0,1-1.072,0L35.751,30.243a.759.759,0,0,1,0-1.072l4.457-4.457a.638.638,0,0,0,0-.9l-7.621-7.621a.638.638,0,0,0-.8-.08L30.2,17.165A21.149,21.149,0,0,0,26.986,19.8a6.788,6.788,0,0,0-1.212,1.646l1.129.593a5.515,5.515,0,0,1,.984-1.337Z" transform="translate(-9.46 -0.004)"/>
    <path id="Path_1913" data-name="Path 1913" d="M51.417,123.563l-.9.9,1.826,1.826-.763,1.145q-.271.407-.563.8l-5.745-5.745-.9.9,5.849,5.849c-.356.421-.728.827-1.116,1.216a5.5,5.5,0,0,1-5.077,1.491,31.478,31.478,0,0,1-15.6-8.518l-2.966-2.966a31.479,31.479,0,0,1-8.518-15.6,5.546,5.546,0,0,1,.061-2.6l-1.232-.329a6.827,6.827,0,0,0-.075,3.2,32.753,32.753,0,0,0,8.862,16.233l2.966,2.966a38.562,38.562,0,0,0,11.936,7.617,32.912,32.912,0,0,0,4.3,1.246,6.85,6.85,0,0,0,1.456.157A6.765,6.765,0,0,0,50,131.36a21.148,21.148,0,0,0,2.638-3.217l1.053-1.58C53.861,126.31,53.827,125.973,51.417,123.563Z" transform="translate(0 -79.086)"/>
    <path id="Path_1914" data-name="Path 1914" d="M78.194,213.084c.269.559.56,1.117.863,1.658l1.113-.624c-.29-.518-.569-1.052-.827-1.588Z" transform="translate(-57.701 -180.864)"/>
    <path id="Path_1915" data-name="Path 1915" d="M106.625,258.835l.9-.9-1.482-1.482a29.08,29.08,0,0,1-3.867-4.788l-1.072.691a30.359,30.359,0,0,0,4.037,5Z" transform="translate(-78.786 -216.877)"/>
    <path id="Path_1916" data-name="Path 1916" d="M184.637,19.189a5.765,5.765,0,0,1,4.13,2.016,10.843,10.843,0,1,0,19.563,9.024l-1.212-.4a9.568,9.568,0,1,1-17.05-8.3.638.638,0,0,0,0-.71,6.5,6.5,0,0,0-3.4-2.541,7.344,7.344,0,0,1,5.669.48.638.638,0,0,0,.621-.032A9.567,9.567,0,0,1,207.6,26.841a9.666,9.666,0,0,1-.168,1.8l1.253.236A10.851,10.851,0,0,0,198.029,16a10.815,10.815,0,0,0-5.452,1.47,8.563,8.563,0,0,0-8.278.541.638.638,0,0,0,.338,1.179Z" transform="translate(-155.072 0)"/>
    <path id="Path_1917" data-name="Path 1917" d="M277.1,78.03h3.826a.638.638,0,0,0,.638-.638V73.566h3.826a.638.638,0,0,0,.638-.638V69.1a.638.638,0,0,0-.638-.638h-3.826V64.638a.638.638,0,0,0-.638-.638H277.1a.638.638,0,0,0-.638.638v3.826h-3.826A.638.638,0,0,0,272,69.1v3.826a.638.638,0,0,0,.638.638h3.826v3.826A.638.638,0,0,0,277.1,78.03Zm-3.826-5.74V69.74H277.1a.638.638,0,0,0,.638-.638V65.275h2.551V69.1a.638.638,0,0,0,.638.638h3.826v2.551h-3.826a.638.638,0,0,0-.638.638v3.826H277.74V72.928a.638.638,0,0,0-.638-.638Z" transform="translate(-236.057 -44.174)"/>
    <path id="Path_1918" data-name="Path 1918" d="M420.8,247.048l.511,1.169a13.451,13.451,0,0,0,5.356-4.241l-1.02-.766A12.173,12.173,0,0,1,420.8,247.048Z" transform="translate(-372.995 -209.098)"/>
  </g>
</svg>
