<svg xmlns="http://www.w3.org/2000/svg" width="104.724" height="58.5" viewBox="0 0 104.724 58.5">
  <g id="tempandtrans" transform="translate(-227.979 -700)">
    <g id="termometro" transform="translate(163.3 700)">
      <g id="Group_635" data-name="Group 635" transform="translate(79.797 19.249)">
        <path id="Path_2193" data-name="Path 2193" d="M203.648,168.477a78.153,78.153,0,0,0,.644,9.92,1.614,1.614,0,0,1-1.59,1.89H197s2.759-8.388,6.645-11.81Z" transform="translate(-197.003 -168.477)" fill="#7acaa6"/>
      </g>
      <g id="Group_636" data-name="Group 636" transform="translate(83.323 19.249)">
        <path id="Path_2194" data-name="Path 2194" d="M230.037,180.29h-2.173a1.615,1.615,0,0,0,1.59-1.891,60.959,60.959,0,0,1-.6-7.459,13.85,13.85,0,0,1,2.126-2.46,78.088,78.088,0,0,0,.644,9.919A1.615,1.615,0,0,1,230.037,180.29Z" transform="translate(-227.864 -168.48)" fill="#57be92"/>
      </g>
      <g id="Group_637" data-name="Group 637" transform="translate(65.544 0.857)">
        <path id="Path_2195" data-name="Path 2195" d="M100.089,8.611v14.82c-6.1,1.261-9.411,7.52-9.411,7.52-4.333,6.567-4.284,21.576-3.961,29,.029.668.061,1.275.091,1.808a2.384,2.384,0,0,1-2.38,2.522H76.377A2.393,2.393,0,0,1,74.168,62.8a23.894,23.894,0,0,1-.968-2.843c-2.617-9.6.976-19.066.976-19.066a55.242,55.242,0,0,0,2.693-10.114,4.945,4.945,0,0,0-1.237-3.659,6.481,6.481,0,0,1-1.45-4.172A46.612,46.612,0,0,1,76.394,9.653,3.117,3.117,0,0,1,79.53,7.5Z" transform="translate(-72.246 -7.5)" fill="#f9f3f1"/>
      </g>
      <g id="Group_638" data-name="Group 638" transform="translate(76.918 1.845)">
        <path id="Path_2196" data-name="Path 2196" d="M188.273,16.273v14.82c-6.1,1.261-9.411,7.52-9.411,7.52-4.333,6.567-4.284,21.576-3.961,29,.03.668.061,1.275.091,1.809a2.384,2.384,0,0,1-2.38,2.521H171.8a2.373,2.373,0,0,0,.9-2.008c-.031-.534-.062-1.14-.091-1.809-.061-1.388-.113-4.585-.146-5.974a91.13,91.13,0,0,1,.513-13.631,27.868,27.868,0,0,1,3.98-11.893c1.838-2.864,4.442-5.679,7.723-6.844a1.956,1.956,0,0,0,1.3-1.844V16.15Z" transform="translate(-171.804 -16.15)" fill="#efe2dd"/>
      </g>
      <g id="Group_639" data-name="Group 639" transform="translate(93.387 1.968)">
        <path id="Path_2197" data-name="Path 2197" d="M315.954,17.226l2.531.129A1.6,1.6,0,0,1,320,18.948V30.043a1.6,1.6,0,0,1-1.423,1.586l-2.623.417Z" transform="translate(-315.954 -17.226)" fill="#7acaa6"/>
      </g>
      <g id="Group_640" data-name="Group 640" transform="translate(94.433 2.039)">
        <path id="Path_2198" data-name="Path 2198" d="M328.1,19.492V30.587a1.6,1.6,0,0,1-1.422,1.587l-1.578.25a1.688,1.688,0,0,0,.978-1.531V19.17a1.682,1.682,0,0,0-.65-1.33l1.159.058a1.6,1.6,0,0,1,1.514,1.594Z" transform="translate(-325.104 -17.84)" fill="#57be92"/>
      </g>
      <g id="Group_641" data-name="Group 641" transform="translate(71.648 4.852)">
        <path id="Path_2199" data-name="Path 2199" d="M142.53,42.467h-14.2a1.161,1.161,0,0,0-1.108.812,31.906,31.906,0,0,0-1.546,8.65,1.165,1.165,0,0,0,1.281,1.169l15.689-1.6a1.163,1.163,0,0,0,1.045-1.157V43.63A1.163,1.163,0,0,0,142.53,42.467Z" transform="translate(-125.678 -42.467)" fill="#cdbfba"/>
      </g>
      <g id="Group_642" data-name="Group 642" transform="translate(86.859 4.853)">
        <path id="Path_2200" data-name="Path 2200" d="M261.618,43.632v6.71a1.162,1.162,0,0,1-1.044,1.156l-1.759.179a1.252,1.252,0,0,0,.519-1.015V43.449a1.249,1.249,0,0,0-.472-.979h1.594A1.162,1.162,0,0,1,261.618,43.632Z" transform="translate(-258.814 -42.47)" fill="#b9acac"/>
      </g>
      <g id="Group_645" data-name="Group 645" transform="translate(75.838 7.69)">
        <g id="Group_643" data-name="Group 643" transform="translate(0)">
          <circle id="Ellipse_127" data-name="Ellipse 127" cx="1.873" cy="1.873" r="1.873" fill="#7acaa6"/>
        </g>
        <g id="Group_644" data-name="Group 644" transform="translate(6.924)">
          <circle id="Ellipse_128" data-name="Ellipse 128" cx="1.873" cy="1.873" r="1.873" fill="#7acaa6"/>
        </g>
      </g>
      <g id="Group_648" data-name="Group 648" transform="translate(75.979 7.717)">
        <g id="Group_646" data-name="Group 646" transform="translate(0)">
          <path id="Path_2201" data-name="Path 2201" d="M167.19,69.386a1.873,1.873,0,0,1-3.606.711,1.849,1.849,0,0,0,.311.026,1.873,1.873,0,0,0,1.874-1.874,1.853,1.853,0,0,0-.139-.709A1.873,1.873,0,0,1,167.19,69.386Z" transform="translate(-163.584 -67.54)" fill="#57be92"/>
        </g>
        <g id="Group_647" data-name="Group 647" transform="translate(6.924)">
          <path id="Path_2202" data-name="Path 2202" d="M227.79,69.386a1.873,1.873,0,0,1-3.606.711,1.849,1.849,0,0,0,.311.026,1.873,1.873,0,0,0,1.874-1.874,1.852,1.852,0,0,0-.139-.709A1.873,1.873,0,0,1,227.79,69.386Z" transform="translate(-224.184 -67.54)" fill="#57be92"/>
        </g>
      </g>
      <g id="Group_649" data-name="Group 649" transform="translate(66.499 53.314)">
        <path id="Path_2203" data-name="Path 2203" d="M91.832,470.97H83.78a2.393,2.393,0,0,1-2.209-1.487,23.893,23.893,0,0,1-.968-2.843H94.121c.029.668.061,1.275.091,1.808A2.384,2.384,0,0,1,91.832,470.97Z" transform="translate(-80.604 -466.64)" fill="#7acaa6"/>
      </g>
      <g id="Group_650" data-name="Group 650" transform="translate(76.918 53.314)">
        <path id="Path_2204" data-name="Path 2204" d="M172.613,470.97H171.8a2.373,2.373,0,0,0,.9-2.008c-.031-.534-.062-1.14-.091-1.809-.007-.151-.013-.323-.019-.513h2.3c.03.668.061,1.275.091,1.809A2.384,2.384,0,0,1,172.613,470.97Z" transform="translate(-171.804 -466.64)" fill="#57be92"/>
      </g>
      <g id="Group_651" data-name="Group 651" transform="translate(64.679 0)">
        <path id="Path_2205" data-name="Path 2205" d="M80.764,45.162a.857.857,0,1,0-1.713-.032c-.045,2.363-.02,4.824.074,7.327H67.163c-2.192-8.994,1.078-17.815,1.112-17.9l.008-.023a55.641,55.641,0,0,0,2.734-10.293,5.735,5.735,0,0,0-1.421-4.3,5.632,5.632,0,0,1-1.259-3.62,46.092,46.092,0,0,1,2.17-13.041,2.263,2.263,0,0,1,2.275-1.557l3.377.182A.857.857,0,1,0,76.251.188L72.874.006a3.979,3.979,0,0,0-4,2.741,47.138,47.138,0,0,0-2.253,13.541,7.349,7.349,0,0,0,1.64,4.724,4.023,4.023,0,0,1,1.054,3.015,55.284,55.284,0,0,1-2.648,9.929c-.2.544-3.634,9.906-1,19.583.07.257.382,1.275.467,1.522.165.484.344.96.536,1.424a3.241,3.241,0,0,0,3,2.016h8.052a3.239,3.239,0,0,0,3.238-3.146c0-.1,0-.186,0-.281C80.773,51.794,80.7,48.448,80.764,45.162ZM78.837,56.308a1.512,1.512,0,0,1-1.11.478H69.675a1.533,1.533,0,0,1-1.417-.957c-.225-.545-.425-1.1-.607-1.659H79.2c0,.015.05.94.053,1a1.514,1.514,0,0,1-.414,1.137Z" transform="translate(-64.679 0)"/>
        <path id="Path_2206" data-name="Path 2206" d="M208.538,4.333l-15.766-.841A.857.857,0,1,0,192.68,5.2l12.426.669V19.2c-5.805,1.567-8.979,7.183-9.291,7.758-2.218,3.385-3.576,9.179-4.038,17.223a.857.857,0,0,0,.806.9h.05a.857.857,0,0,0,.855-.808,62.914,62.914,0,0,1,1.137-9.276h3.447a2.471,2.471,0,0,0,2.434-2.891,62.927,62.927,0,0,1-.6-7.747,12.368,12.368,0,0,1,6.212-3.645l2.58-.41a2.449,2.449,0,0,0,2.164-2.435V6.783a2.451,2.451,0,0,0-2.328-2.449Zm-9.889,28.692a.745.745,0,0,1-.577.268H195.03a18.469,18.469,0,0,1,2.237-5.42c.015-.023.029-.047.043-.072a14.113,14.113,0,0,1,.953-1.473,53.214,53.214,0,0,0,.554,6.077A.752.752,0,0,1,198.649,33.025Zm10.5-15.148a.738.738,0,0,1-.659.734l-1.673.265V5.962l1.631.083a.738.738,0,0,1,.7.738Z" transform="translate(-177.255 -3.092)"/>
        <path id="Path_2207" data-name="Path 2207" d="M119.764,36.377a32.39,32.39,0,0,0-1.586,8.9,2.021,2.021,0,0,0,2.225,2.027l15.689-1.6a2.014,2.014,0,0,0,1.814-2.009V36.986a2.022,2.022,0,0,0-2.019-2.019h-14.2A2.011,2.011,0,0,0,119.764,36.377Zm16.428.609V43.7a.3.3,0,0,1-.275.3l-15.689,1.6a.3.3,0,0,1-.235-.077.31.31,0,0,1-.1-.234,31.309,31.309,0,0,1,1.507-8.4.3.3,0,0,1,.291-.213h14.2A.306.306,0,0,1,136.192,36.986Z" transform="translate(-112.066 -30.972)"/>
        <path id="Path_2208" data-name="Path 2208" d="M157.584,65.266a2.73,2.73,0,1,0-2.73-2.73A2.733,2.733,0,0,0,157.584,65.266Zm0-3.746a1.016,1.016,0,1,1-1.016,1.016,1.018,1.018,0,0,1,1.016-1.016Z" transform="translate(-144.552 -52.973)"/>
        <path id="Path_2209" data-name="Path 2209" d="M218.187,65.266a2.73,2.73,0,1,0-2.73-2.73A2.733,2.733,0,0,0,218.187,65.266Zm0-3.746a1.016,1.016,0,1,1-1.016,1.016,1.018,1.018,0,0,1,1.016-1.016Z" transform="translate(-198.231 -52.973)"/>
        <path id="Path_2210" data-name="Path 2210" d="M410.452,25.389a.857.857,0,0,0-1.085,1.327,6.392,6.392,0,0,1,.079,9.836.857.857,0,1,0,1.106,1.309,8.106,8.106,0,0,0-.1-12.471Z" transform="translate(-369.708 -22.317)"/>
        <path id="Path_2211" data-name="Path 2211" d="M394.829,56.485a.857.857,0,1,0-1.085,1.327,1.774,1.774,0,0,1,.022,2.73.857.857,0,1,0,1.106,1.309,3.488,3.488,0,0,0-.043-5.366Z" transform="translate(-355.87 -49.86)"/>
      </g>
    </g>
    <g id="metropolitano" transform="translate(256.918 586.852)">
      <path id="Path_2139" data-name="Path 2139" d="M69.858,135.883H5.926A5.933,5.933,0,0,0,0,141.809V166.7a1.185,1.185,0,0,0,1.185,1.185H74.6a1.185,1.185,0,0,0,1.185-1.185V141.809A5.933,5.933,0,0,0,69.858,135.883Z" fill="#f26b6b"/>
      <path id="Path_2140" data-name="Path 2140" d="M2.371,166.7V141.809A5.933,5.933,0,0,1,8.3,135.883H5.926A5.933,5.933,0,0,0,0,141.809V166.7a1.185,1.185,0,0,0,1.185,1.185H3.556A1.185,1.185,0,0,1,2.371,166.7Z" fill="#e26161"/>
      <path id="Path_2141" data-name="Path 2141" d="M8.132,159.573H.519A5.888,5.888,0,0,0,0,161.993v5.926H9.482v-7A1.351,1.351,0,0,0,8.132,159.573Z" transform="translate(0 -20.183)" fill="#9be8e8"/>
      <path id="Path_2142" data-name="Path 2142" d="M8.369,159.573H.519A5.888,5.888,0,0,0,0,161.993v5.926H4.346l5.136-5.136v-2.1A1.113,1.113,0,0,0,8.369,159.573Z" transform="translate(0 -20.183)" fill="#79d1d1"/>
      <path id="Path_2143" data-name="Path 2143" d="M2.889,159.573H.519A5.888,5.888,0,0,0,0,161.993v5.926H2.371v-5.926A5.888,5.888,0,0,1,2.889,159.573Z" transform="translate(0 -20.183)" fill="#73bfbf"/>
      <path id="Path_2144" data-name="Path 2144" d="M376.49,159.573h-6.781a1.351,1.351,0,0,0-1.351,1.351v7h9.482v-7A1.351,1.351,0,0,0,376.49,159.573Z" transform="translate(-313.835 -20.183)" fill="#9be8e8"/>
      <path id="Path_2145" data-name="Path 2145" d="M376.728,159.573h-7.256a1.113,1.113,0,0,0-1.113,1.113v7.233h3.753l5.729-5.729v-1.5A1.113,1.113,0,0,0,376.728,159.573Z" transform="translate(-313.836 -20.183)" fill="#79d1d1"/>
      <path id="Path_2146" data-name="Path 2146" d="M88.21,159.573H81.429a1.351,1.351,0,0,0-1.351,1.351v7H89.56v-7A1.351,1.351,0,0,0,88.21,159.573Z" transform="translate(-68.225 -20.183)" fill="#9be8e8"/>
      <path id="Path_2147" data-name="Path 2147" d="M88.448,159.573H81.192a1.113,1.113,0,0,0-1.113,1.113v7.233h4.445l5.037-5.037v-2.2A1.113,1.113,0,0,0,88.448,159.573Z" transform="translate(-68.226 -20.183)" fill="#79d1d1"/>
      <path id="Path_2148" data-name="Path 2148" d="M168.287,159.573h-6.781a1.351,1.351,0,0,0-1.351,1.351v7h9.482v-7A1.351,1.351,0,0,0,168.287,159.573Z" transform="translate(-136.449 -20.183)" fill="#9be8e8"/>
      <path id="Path_2149" data-name="Path 2149" d="M168.525,159.573h-7.256a1.113,1.113,0,0,0-1.113,1.113v7.233H164.7l4.939-4.939v-2.294A1.113,1.113,0,0,0,168.525,159.573Z" transform="translate(-136.45 -20.183)" fill="#79d1d1"/>
      <rect id="Rectangle_262" data-name="Rectangle 262" width="2.371" height="28.496" transform="translate(64.006 139.39)" fill="#f26b6b"/>
      <path id="Path_2150" data-name="Path 2150" d="M457.845,161.993a5.888,5.888,0,0,0-.519-2.42h-7.539a1.351,1.351,0,0,0-1.351,1.351v7.045h9.408v-5.976Z" transform="translate(-382.061 -20.183)" fill="#9be8e8"/>
      <path id="Path_2151" data-name="Path 2151" d="M457.846,161.993a5.888,5.888,0,0,0-.519-2.42h-7.776a1.113,1.113,0,0,0-1.113,1.113v7.282h4.593l4.815-4.815v-1.161Z" transform="translate(-382.062 -20.183)" fill="#79d1d1"/>
      <path id="Path_2152" data-name="Path 2152" d="M244.239,191.764V164.5a.593.593,0,0,1,.593-.593h14.224a.593.593,0,0,1,.593.593v27.262Z" transform="translate(-208.087 -23.879)" fill="#9be8e8"/>
      <g id="Group_626" data-name="Group 626" transform="translate(36.151 140.031)">
        <path id="Path_2153" data-name="Path 2153" d="M307.633,317.412h6.025v-6.025Z" transform="translate(-298.249 -289.558)" fill="#79d1d1"/>
        <path id="Path_2154" data-name="Path 2154" d="M244.239,196v9.976h4.544l10.865-10.865v-14.52Z" transform="translate(-244.239 -178.124)" fill="#79d1d1"/>
        <path id="Path_2155" data-name="Path 2155" d="M244.831,163.91a.593.593,0,0,0-.593.593v10.766L255.6,163.91Z" transform="translate(-244.238 -163.91)" fill="#79d1d1"/>
      </g>
      <path id="Path_2156" data-name="Path 2156" d="M383.479,280.023a7.112,7.112,0,1,0,7.112,7.112A7.12,7.12,0,0,0,383.479,280.023Z" transform="translate(-320.658 -122.805)" fill="#645ba5"/>
      <path id="Path_2157" data-name="Path 2157" d="M397.124,296.039a4.741,4.741,0,1,0,4.741,4.741A4.747,4.747,0,0,0,397.124,296.039Z" transform="translate(-334.304 -136.45)" fill="#494170"/>
      <path id="Path_2158" data-name="Path 2158" d="M403.947,304.047A3.556,3.556,0,1,0,407.5,307.6,3.56,3.56,0,0,0,403.947,304.047Z" transform="translate(-341.126 -143.273)" fill="#edecf1"/>
      <path id="Path_2159" data-name="Path 2159" d="M47.151,280.023a7.112,7.112,0,1,0,7.112,7.112A7.12,7.12,0,0,0,47.151,280.023Z" transform="translate(-34.113 -122.805)" fill="#645ba5"/>
      <path id="Path_2160" data-name="Path 2160" d="M60.8,296.039a4.741,4.741,0,1,0,4.741,4.741A4.746,4.746,0,0,0,60.8,296.039Z" transform="translate(-47.758 -136.45)" fill="#494170"/>
      <path id="Path_2161" data-name="Path 2161" d="M67.619,304.047a3.556,3.556,0,1,0,3.556,3.556A3.56,3.56,0,0,0,67.619,304.047Z" transform="translate(-54.581 -143.273)" fill="#edecf1"/>
      <rect id="Rectangle_263" data-name="Rectangle 263" width="35.559" height="9.482" transform="translate(0 147.736)" fill="#edbc53"/>
      <rect id="Rectangle_264" data-name="Rectangle 264" width="2.371" height="9.482" transform="translate(0 147.736)" fill="#f09c48"/>
      <rect id="Rectangle_265" data-name="Rectangle 265" width="23.632" height="9.482" transform="translate(52.153 147.736)" fill="#edbc53"/>
      <g id="Group_627" data-name="Group 627" transform="translate(35.559 139.439)">
        <path id="Path_2162" data-name="Path 2162" d="M255.643,159.906H241.419a1.185,1.185,0,0,0-1.185,1.185v27.262h1.185v-26.5a.766.766,0,0,1,.766-.766h4.4a.766.766,0,0,1,.766.766v26.5h2.371v-26.5a.766.766,0,0,1,.766-.766h4.4a.766.766,0,0,1,.766.766v26.5h1.185V161.091A1.186,1.186,0,0,0,255.643,159.906Z" transform="translate(-240.234 -159.906)" fill="#d65151"/>
        <path id="Path_2163" data-name="Path 2163" d="M312.637,250.363h-.148a1.185,1.185,0,0,1,0-2.371h.148a1.185,1.185,0,0,1,0,2.371Z" transform="translate(-300.784 -234.954)" fill="#d65151"/>
        <path id="Path_2164" data-name="Path 2164" d="M265.591,250.363h-.148a1.185,1.185,0,0,1,0-2.371h.148a1.185,1.185,0,0,1,0,2.371Z" transform="translate(-260.702 -234.954)" fill="#d65151"/>
      </g>
    </g>
  </g>
</svg>
