<svg id="termometro" xmlns="http://www.w3.org/2000/svg" width="30.184" height="40.387" viewBox="0 0 30.184 40.387">
  <g id="Group_635" data-name="Group 635" transform="translate(10.437 13.288)">
    <path id="Path_2193" data-name="Path 2193" d="M201.591,168.477a53.957,53.957,0,0,0,.444,6.848,1.114,1.114,0,0,1-1.1,1.3H197s1.9-5.791,4.588-8.153Z" transform="translate(-197.003 -168.477)" fill="#7acaa6"/>
  </g>
  <g id="Group_636" data-name="Group 636" transform="translate(12.871 13.289)">
    <path id="Path_2194" data-name="Path 2194" d="M229.364,176.633h-1.5a1.115,1.115,0,0,0,1.1-1.305,42.084,42.084,0,0,1-.413-5.15,9.562,9.562,0,0,1,1.468-1.7,53.91,53.91,0,0,0,.445,6.848A1.115,1.115,0,0,1,229.364,176.633Z" transform="translate(-227.864 -168.48)" fill="#57be92"/>
  </g>
  <g id="Group_637" data-name="Group 637" transform="translate(0.597 0.591)">
    <path id="Path_2195" data-name="Path 2195" d="M91.468,8.267V18.5c-4.215.871-6.5,5.192-6.5,5.192-2.992,4.534-2.958,14.9-2.735,20.024.02.461.042.88.063,1.248A1.646,1.646,0,0,1,80.657,46.7H75.1a1.652,1.652,0,0,1-1.525-1.026,16.494,16.494,0,0,1-.668-1.963,23.813,23.813,0,0,1,.674-13.163,38.138,38.138,0,0,0,1.859-6.983,3.414,3.414,0,0,0-.854-2.526,4.474,4.474,0,0,1-1-2.88,32.18,32.18,0,0,1,1.527-9.175A2.152,2.152,0,0,1,77.275,7.5Z" transform="translate(-72.246 -7.5)" fill="#f9f3f1"/>
  </g>
  <g id="Group_638" data-name="Group 638" transform="translate(8.449 1.274)">
    <path id="Path_2196" data-name="Path 2196" d="M183.174,16.235V26.467c-4.214.871-6.5,5.192-6.5,5.192-2.992,4.534-2.958,14.9-2.735,20.024.021.461.042.88.063,1.249a1.646,1.646,0,0,1-1.643,1.741H171.8a1.638,1.638,0,0,0,.624-1.387c-.021-.368-.043-.787-.063-1.249-.042-.958-.078-3.165-.1-4.124a62.915,62.915,0,0,1,.354-9.41,19.239,19.239,0,0,1,2.748-8.211,11.283,11.283,0,0,1,5.332-4.725,1.351,1.351,0,0,0,.9-1.273V16.15Z" transform="translate(-171.804 -16.15)" fill="#efe2dd"/>
  </g>
  <g id="Group_639" data-name="Group 639" transform="translate(19.819 1.359)">
    <path id="Path_2197" data-name="Path 2197" d="M315.954,17.226l1.748.089a1.1,1.1,0,0,1,1.046,1.1v7.659a1.1,1.1,0,0,1-.983,1.1l-1.811.288Z" transform="translate(-315.954 -17.226)" fill="#7acaa6"/>
  </g>
  <g id="Group_640" data-name="Group 640" transform="translate(20.541 1.407)">
    <path id="Path_2198" data-name="Path 2198" d="M327.175,18.981V26.64a1.1,1.1,0,0,1-.982,1.1l-1.089.173a1.165,1.165,0,0,0,.675-1.057V18.758a1.161,1.161,0,0,0-.449-.918l.8.04a1.1,1.1,0,0,1,1.045,1.1Z" transform="translate(-325.104 -17.84)" fill="#57be92"/>
  </g>
  <g id="Group_641" data-name="Group 641" transform="translate(4.811 3.35)">
    <path id="Path_2199" data-name="Path 2199" d="M137.312,42.467h-9.8a.8.8,0,0,0-.765.56A22.027,22.027,0,0,0,125.678,49a.8.8,0,0,0,.885.807L137.393,48.7a.8.8,0,0,0,.721-.8V43.27A.8.8,0,0,0,137.312,42.467Z" transform="translate(-125.678 -42.467)" fill="#cdbfba"/>
  </g>
  <g id="Group_642" data-name="Group 642" transform="translate(15.312 3.35)">
    <path id="Path_2200" data-name="Path 2200" d="M260.75,43.272V47.9a.8.8,0,0,1-.721.8l-1.215.124a.864.864,0,0,0,.358-.7v-4.98a.862.862,0,0,0-.326-.676h1.1A.8.8,0,0,1,260.75,43.272Z" transform="translate(-258.814 -42.47)" fill="#b9acac"/>
  </g>
  <g id="Group_645" data-name="Group 645" transform="translate(7.704 5.309)">
    <g id="Group_643" data-name="Group 643" transform="translate(0)">
      <ellipse id="Ellipse_127" data-name="Ellipse 127" cx="1.293" cy="1.293" rx="1.293" ry="1.293" fill="#7acaa6"/>
    </g>
    <g id="Group_644" data-name="Group 644" transform="translate(4.78)">
      <ellipse id="Ellipse_128" data-name="Ellipse 128" cx="1.293" cy="1.293" rx="1.293" ry="1.293" fill="#7acaa6"/>
    </g>
  </g>
  <g id="Group_648" data-name="Group 648" transform="translate(7.801 5.327)">
    <g id="Group_646" data-name="Group 646" transform="translate(0)">
      <path id="Path_2201" data-name="Path 2201" d="M166.073,68.815a1.293,1.293,0,0,1-2.489.491,1.277,1.277,0,0,0,.215.018,1.293,1.293,0,0,0,1.294-1.294,1.279,1.279,0,0,0-.1-.49A1.293,1.293,0,0,1,166.073,68.815Z" transform="translate(-163.584 -67.54)" fill="#57be92"/>
    </g>
    <g id="Group_647" data-name="Group 647" transform="translate(4.78)">
      <path id="Path_2202" data-name="Path 2202" d="M226.673,68.815a1.293,1.293,0,0,1-2.489.491,1.277,1.277,0,0,0,.215.018,1.293,1.293,0,0,0,1.294-1.294,1.279,1.279,0,0,0-.1-.49A1.293,1.293,0,0,1,226.673,68.815Z" transform="translate(-224.184 -67.54)" fill="#57be92"/>
    </g>
  </g>
  <g id="Group_649" data-name="Group 649" transform="translate(1.256 36.806)">
    <path id="Path_2203" data-name="Path 2203" d="M88.356,469.629H82.8a1.652,1.652,0,0,1-1.525-1.026,16.5,16.5,0,0,1-.668-1.963h9.332c.02.461.042.88.063,1.248A1.646,1.646,0,0,1,88.356,469.629Z" transform="translate(-80.604 -466.64)" fill="#7acaa6"/>
  </g>
  <g id="Group_650" data-name="Group 650" transform="translate(8.449 36.806)">
    <path id="Path_2204" data-name="Path 2204" d="M172.362,469.629H171.8a1.639,1.639,0,0,0,.624-1.387c-.021-.368-.043-.787-.063-1.249,0-.1-.009-.223-.013-.354h1.591c.02.461.042.88.063,1.249A1.646,1.646,0,0,1,172.362,469.629Z" transform="translate(-171.804 -466.64)" fill="#57be92"/>
  </g>
  <g id="Group_651" data-name="Group 651" transform="translate(0 0)">
    <path id="Path_2205" data-name="Path 2205" d="M75.783,31.178a.592.592,0,1,0-1.183-.022c-.031,1.631-.013,3.33.051,5.059H66.394a23.6,23.6,0,0,1,.768-12.361l.006-.016a38.412,38.412,0,0,0,1.888-7.106,3.959,3.959,0,0,0-.981-2.97,3.888,3.888,0,0,1-.87-2.5,31.821,31.821,0,0,1,1.5-9,1.562,1.562,0,0,1,1.57-1.075l2.331.126A.592.592,0,0,0,72.668.13L70.337,0A2.747,2.747,0,0,0,67.577,1.9a32.543,32.543,0,0,0-1.556,9.348,5.074,5.074,0,0,0,1.132,3.261,2.777,2.777,0,0,1,.728,2.081,38.166,38.166,0,0,1-1.828,6.854,24.169,24.169,0,0,0-.688,13.52c.048.177.264.88.322,1.05.114.334.237.663.37.983a2.238,2.238,0,0,0,2.072,1.392h5.559a2.236,2.236,0,0,0,2.235-2.172c0-.066,0-.128,0-.194C75.79,35.757,75.741,33.448,75.783,31.178Zm-1.33,7.7a1.044,1.044,0,0,1-.766.33H68.128a1.058,1.058,0,0,1-.978-.661c-.155-.376-.294-.759-.419-1.146H74.7c0,.011.035.649.037.691a1.045,1.045,0,0,1-.286.785Z" transform="translate(-64.679 0)"/>
    <path id="Path_2206" data-name="Path 2206" d="M203.348,4.072l-10.884-.581a.592.592,0,0,0-.064,1.181l8.579.462v9.2c-4.008,1.082-6.2,4.959-6.414,5.356-1.531,2.337-2.469,6.337-2.788,11.89a.592.592,0,0,0,.557.625h.034a.592.592,0,0,0,.59-.558,43.433,43.433,0,0,1,.785-6.4h2.38a1.706,1.706,0,0,0,1.681-2,43.441,43.441,0,0,1-.411-5.349,8.539,8.539,0,0,1,4.289-2.517l1.781-.283a1.691,1.691,0,0,0,1.494-1.681V5.763a1.692,1.692,0,0,0-1.607-1.691Zm-6.827,19.808a.515.515,0,0,1-.4.185h-2.1a12.75,12.75,0,0,1,1.545-3.742c.011-.016.02-.033.029-.05a9.745,9.745,0,0,1,.658-1.017,36.74,36.74,0,0,0,.383,4.2A.519.519,0,0,1,196.521,23.881Zm7.251-10.458a.509.509,0,0,1-.455.507l-1.155.183V5.2l1.126.057a.51.51,0,0,1,.484.509Z" transform="translate(-181.751 -3.216)"/>
    <path id="Path_2207" data-name="Path 2207" d="M119.273,35.941a22.361,22.361,0,0,0-1.1,6.146,1.4,1.4,0,0,0,1.536,1.4l10.831-1.106a1.39,1.39,0,0,0,1.253-1.387V36.361a1.4,1.4,0,0,0-1.394-1.394h-9.8A1.388,1.388,0,0,0,119.273,35.941Zm11.342.421v4.632a.21.21,0,0,1-.19.21l-10.831,1.106a.206.206,0,0,1-.162-.053.214.214,0,0,1-.07-.161,21.615,21.615,0,0,1,1.04-5.8.21.21,0,0,1,.2-.147h9.8A.211.211,0,0,1,130.614,36.361Z" transform="translate(-113.958 -32.209)"/>
    <path id="Path_2208" data-name="Path 2208" d="M156.739,63.576a1.885,1.885,0,1,0-1.885-1.885A1.887,1.887,0,0,0,156.739,63.576Zm0-2.586a.7.7,0,1,1-.7.7A.7.7,0,0,1,156.739,60.989Z" transform="translate(-147.742 -55.089)"/>
    <path id="Path_2209" data-name="Path 2209" d="M217.342,63.576a1.885,1.885,0,1,0-1.885-1.885A1.887,1.887,0,0,0,217.342,63.576Zm0-2.586a.7.7,0,1,1-.7.7A.7.7,0,0,1,217.342,60.989Z" transform="translate(-203.564 -55.089)"/>
    <path id="Path_2210" data-name="Path 2210" d="M410.018,25.329a.592.592,0,0,0-.749.916,4.413,4.413,0,0,1,.055,6.79.592.592,0,1,0,.763.9,5.6,5.6,0,0,0-.069-8.61Z" transform="translate(-381.89 -23.208)"/>
    <path id="Path_2211" data-name="Path 2211" d="M394.4,56.425a.592.592,0,1,0-.749.916,1.225,1.225,0,0,1,.015,1.885.592.592,0,1,0,.763.9,2.408,2.408,0,0,0-.03-3.7Z" transform="translate(-367.5 -51.851)"/>
  </g>
</svg>
