<svg xmlns="http://www.w3.org/2000/svg" width="127.484" height="157.799" viewBox="0 0 127.484 157.799">
  <g id="traffic-green" transform="translate(5294.787 826.642)">
    <g id="Group_243" data-name="Group 243" transform="translate(-5294.787 -812.512)">
      <path id="Path_464" data-name="Path 464" d="M-5263.541-780.795h-18.274a12.987,12.987,0,0,0-12.973,12.972,2.319,2.319,0,0,0,2.016,2.294,31.717,31.717,0,0,1,11.789,4.783c8.1,5.3,13.206,13.512,15.166,24.4a2.313,2.313,0,0,0,2.274,1.9q.1,0,.208-.009a2.313,2.313,0,0,0,2.107-2.3v-41.728A2.314,2.314,0,0,0-5263.541-780.795Z" transform="translate(5294.787 780.795)" fill="#334347"/>
      <path id="Path_465" data-name="Path 465" d="M-5263.541-634.4h-18.274a12.987,12.987,0,0,0-12.973,12.972,2.313,2.313,0,0,0,2.021,2.295,31.234,31.234,0,0,1,11.612,4.671c8.2,5.3,13.362,13.544,15.337,24.512a2.313,2.313,0,0,0,2.274,1.9q.1,0,.208-.009a2.313,2.313,0,0,0,2.107-2.3v-41.728A2.314,2.314,0,0,0-5263.541-634.4Z" transform="translate(5294.787 679.516)" fill="#334347"/>
      <path id="Path_466" data-name="Path 466" d="M-5263.541-488h-18.274a12.987,12.987,0,0,0-12.973,12.972,2.313,2.313,0,0,0,2.021,2.295,31.228,31.228,0,0,1,11.612,4.671c8.2,5.3,13.362,13.544,15.337,24.512a2.313,2.313,0,0,0,2.274,1.9q.1,0,.208-.009a2.313,2.313,0,0,0,2.107-2.3v-41.727A2.314,2.314,0,0,0-5263.541-488Z" transform="translate(5294.787 578.237)" fill="#334347"/>
    </g>
    <g id="Group_244" data-name="Group 244" transform="translate(-5271.614 -812.512)">
      <path id="Path_467" data-name="Path 467" d="M-5211.524-488h-8.073v29.347a39.872,39.872,0,0,1,5.8,15.1,2.313,2.313,0,0,0,2.274,1.9q.1,0,.208-.009a2.313,2.313,0,0,0,2.107-2.3v-41.727A2.313,2.313,0,0,0-5211.524-488Z" transform="translate(5219.597 578.237)" fill="#2b373a"/>
      <path id="Path_468" data-name="Path 468" d="M-5211.524-634.4h-8.073v29.347a39.872,39.872,0,0,1,5.8,15.1,2.313,2.313,0,0,0,2.274,1.9q.1,0,.208-.009a2.313,2.313,0,0,0,2.107-2.3v-41.728A2.313,2.313,0,0,0-5211.524-634.4Z" transform="translate(5219.597 679.516)" fill="#2b373a"/>
      <path id="Path_469" data-name="Path 469" d="M-5211.524-780.795h-8.073v29.35a39.868,39.868,0,0,1,5.8,15.1,2.313,2.313,0,0,0,2.274,1.9q.1,0,.208-.009a2.313,2.313,0,0,0,2.107-2.3v-41.727A2.313,2.313,0,0,0-5211.524-780.795Z" transform="translate(5219.597 780.795)" fill="#2b373a"/>
    </g>
    <g id="Group_245" data-name="Group 245" transform="translate(-5200.863 -812.512)">
      <path id="Path_470" data-name="Path 470" d="M-4987.723-780.795h18.274a12.987,12.987,0,0,1,12.973,12.972,2.32,2.32,0,0,1-2.016,2.294,31.717,31.717,0,0,0-11.789,4.783c-8.1,5.3-13.206,13.512-15.166,24.4a2.314,2.314,0,0,1-2.274,1.9q-.1,0-.208-.009a2.313,2.313,0,0,1-2.107-2.3v-41.728A2.314,2.314,0,0,1-4987.723-780.795Z" transform="translate(4990.036 780.795)" fill="#334347"/>
      <path id="Path_471" data-name="Path 471" d="M-4987.723-634.4h18.274a12.987,12.987,0,0,1,12.973,12.972,2.313,2.313,0,0,1-2.021,2.295,31.231,31.231,0,0,0-11.612,4.671c-8.2,5.3-13.362,13.544-15.337,24.512a2.314,2.314,0,0,1-2.274,1.9q-.1,0-.208-.009a2.313,2.313,0,0,1-2.107-2.3v-41.728A2.313,2.313,0,0,1-4987.723-634.4Z" transform="translate(4990.036 679.516)" fill="#334347"/>
      <path id="Path_472" data-name="Path 472" d="M-4987.723-488h18.274a12.987,12.987,0,0,1,12.973,12.972,2.313,2.313,0,0,1-2.021,2.295,31.225,31.225,0,0,0-11.612,4.671c-8.2,5.3-13.362,13.544-15.337,24.512a2.314,2.314,0,0,1-2.274,1.9q-.1,0-.208-.009a2.313,2.313,0,0,1-2.107-2.3v-41.727A2.314,2.314,0,0,1-4987.723-488Z" transform="translate(4990.036 578.237)" fill="#334347"/>
    </g>
    <g id="Group_246" data-name="Group 246" transform="translate(-5200.862 -812.512)">
      <path id="Path_473" data-name="Path 473" d="M-4987.722-488h8.073v29.347a39.872,39.872,0,0,0-5.8,15.1,2.313,2.313,0,0,1-2.274,1.9q-.1,0-.208-.009a2.313,2.313,0,0,1-2.107-2.3v-41.727A2.313,2.313,0,0,1-4987.722-488Z" transform="translate(4990.035 578.237)" fill="#2b373a"/>
      <path id="Path_474" data-name="Path 474" d="M-4987.722-634.4h8.073v29.347a39.872,39.872,0,0,0-5.8,15.1,2.313,2.313,0,0,1-2.274,1.9q-.1,0-.208-.009a2.313,2.313,0,0,1-2.107-2.3v-41.728A2.313,2.313,0,0,1-4987.722-634.4Z" transform="translate(4990.035 679.516)" fill="#2b373a"/>
      <path id="Path_475" data-name="Path 475" d="M-4987.722-780.795h8.073v29.35a39.86,39.86,0,0,0-5.8,15.1,2.313,2.313,0,0,1-2.274,1.9q-.1,0-.208-.009a2.313,2.313,0,0,1-2.107-2.3v-41.727A2.313,2.313,0,0,1-4987.722-780.795Z" transform="translate(4990.035 780.795)" fill="#2b373a"/>
    </g>
    <path id="Path_476" data-name="Path 476" d="M-5139.573-826.642h-53.054a8.291,8.291,0,0,0-8.282,8.282v141.235a8.291,8.291,0,0,0,8.282,8.282h53.054a8.292,8.292,0,0,0,8.282-8.282V-818.36A8.292,8.292,0,0,0-5139.573-826.642Z" transform="translate(-64.945)" fill="#546f7a"/>
    <path id="Path_477" data-name="Path 477" d="M-5025.771-826.642h-10.637a8.291,8.291,0,0,1,8.282,8.282v141.235a8.291,8.291,0,0,1-8.282,8.282h10.637a8.292,8.292,0,0,0,8.282-8.282V-818.36A8.292,8.292,0,0,0-5025.771-826.642Z" transform="translate(-178.746)" fill="#475d63"/>
    <path id="Path_478" data-name="Path 478" d="M-5132.536-488a19.878,19.878,0,0,0-19.855,19.855,19.878,19.878,0,0,0,19.855,19.855,19.878,19.878,0,0,0,19.855-19.855A19.878,19.878,0,0,0-5132.536-488Z" transform="translate(-98.509 -234.275)" fill="#4ce166"/>
    <path id="Path_479" data-name="Path 479" d="M-5132.536-634.4a19.878,19.878,0,0,0-19.855,19.856,19.878,19.878,0,0,0,19.855,19.855,19.878,19.878,0,0,0,19.855-19.855A19.878,19.878,0,0,0-5132.536-634.4Z" transform="translate(-98.509 -132.996)" fill="#c1c1c1"/>
    <path id="Path_480" data-name="Path 480" d="M-5132.536-780.795a19.878,19.878,0,0,0-19.855,19.856,19.878,19.878,0,0,0,19.855,19.855,19.878,19.878,0,0,0,19.855-19.855A19.878,19.878,0,0,0-5132.536-780.795Z" transform="translate(-98.509 -31.717)" fill="#c1c1c1"/>
    <path id="Path_481" data-name="Path 481" d="M-5132.536-420.371A19.888,19.888,0,0,1-5152-436.3a19.832,19.832,0,0,0-.391,3.924,19.878,19.878,0,0,0,19.855,19.855,19.878,19.878,0,0,0,19.855-19.855,19.837,19.837,0,0,0-.391-3.924A19.888,19.888,0,0,1-5132.536-420.371Z" transform="translate(-98.509 -270.036)" fill="#44c868"/>
    <path id="Path_482" data-name="Path 482" d="M-5132.536-566.769A19.888,19.888,0,0,1-5152-582.7a19.832,19.832,0,0,0-.391,3.924,19.878,19.878,0,0,0,19.855,19.856,19.878,19.878,0,0,0,19.855-19.856,19.836,19.836,0,0,0-.391-3.924A19.888,19.888,0,0,1-5132.536-566.769Z" transform="translate(-98.509 -168.758)" fill="#5f5f5f"/>
    <path id="Path_483" data-name="Path 483" d="M-5132.536-713.169A19.888,19.888,0,0,1-5152-729.1a19.832,19.832,0,0,0-.391,3.924,19.878,19.878,0,0,0,19.855,19.856,19.878,19.878,0,0,0,19.855-19.856,19.836,19.836,0,0,0-.391-3.924A19.888,19.888,0,0,1-5132.536-713.169Z" transform="translate(-98.509 -67.479)" fill="#5f5f5f"/>
  </g>
</svg>
