<svg xmlns="http://www.w3.org/2000/svg" width="66.57" height="66.569" viewBox="0 0 66.57 66.569">
  <g id="tren" transform="translate(0 -0.003)">
    <g id="Group_632" data-name="Group 632" transform="translate(1.109 1.112)">
      <path id="Path_2165" data-name="Path 2165" d="M68.166,71.886H26.749a1.109,1.109,0,0,1-.643-.2L8,58.905A1.125,1.125,0,0,1,7.533,58V25.82a1.109,1.109,0,0,1,.422-.865L29.423,7.78a1.083,1.083,0,0,1,.688-.244H67.678a1.109,1.109,0,0,1,.544,2.075L38.6,26.4l1.109,24.409L68.776,69.845a1.109,1.109,0,0,1-.61,2.041Z" transform="translate(-7.533 -7.536)" fill="#424242"/>
      <path id="Path_2166" data-name="Path 2166" d="M73.015,71.886H38.252a1.109,1.109,0,0,1-.643-.2L19.5,58.9a1.125,1.125,0,0,1-.466-.91V25.82a1.109,1.109,0,0,1,.422-.865L40.926,7.78a1.084,1.084,0,0,1,.69-.244h30.91a1.109,1.109,0,0,1,.544,2.075L43.445,26.4l1.109,24.409L73.623,69.845a1.109,1.109,0,0,1-.608,2.041Z" transform="translate(-17.54 -7.536)" fill="#9e9e9e"/>
      <path id="Path_2167" data-name="Path 2167" d="M38.6,376.264H26.749a1.109,1.109,0,0,1-.643-.2L8,363.283a1.125,1.125,0,0,1-.466-.91V357.4Z" transform="translate(-7.533 -311.914)" fill="#283593"/>
      <path id="Path_2168" data-name="Path 2168" d="M33.051,391.068h-6.3a1.109,1.109,0,0,1-.643-.2L8,378.087a1.125,1.125,0,0,1-.466-.91V374.47Z" transform="translate(-7.533 -326.762)" fill="#3f51b5"/>
      <path id="Path_2169" data-name="Path 2169" d="M241.522,95.431v29.956c0,3.595-2.8,6.657-9.985,6.657H213.785c-7.189,0-9.985-3.062-9.985-6.657V95.431c0-8.088,4.438-7.766,4.438-7.766s1.054-3.328,5.547-3.328h17.752c4.493,0,5.547,3.328,5.547,3.328S241.522,87.343,241.522,95.431Z" transform="translate(-178.282 -74.351)" fill="#f57c00"/>
      <path id="Path_2170" data-name="Path 2170" d="M238.194,95.431v29.956c0,3.595-2.8,6.657-9.985,6.657H213.785c-7.189,0-9.985-3.062-9.985-6.657V95.431c0-8.088,4.438-7.766,4.438-7.766s1.054-3.328,5.547-3.328h14.423c4.493,0,5.547,3.328,5.547,3.328S238.194,87.343,238.194,95.431Z" transform="translate(-178.282 -74.351)" fill="#ff9801"/>
      <g id="Group_628" data-name="Group 628" transform="translate(29.67 39.506)">
        <path id="Path_2171" data-name="Path 2171" d="M409.176,312.552l-.488,1.461a1.7,1.7,0,0,0,1.842,2.229c2.219-.323,5.013-1.138,5.013-3.2,0-1.184-2.877-1.546-4.634-1.655A1.706,1.706,0,0,0,409.176,312.552Z" transform="translate(-386.123 -311.387)" fill="#f4f4f4"/>
        <path id="Path_2172" data-name="Path 2172" d="M242.1,312.552l.488,1.461a1.7,1.7,0,0,1-1.842,2.229c-2.219-.323-5.013-1.138-5.013-3.2,0-1.184,2.877-1.546,4.634-1.655A1.706,1.706,0,0,1,242.1,312.552Z" transform="translate(-235.732 -311.387)" fill="#f4f4f4"/>
      </g>
      <path id="Path_2173" data-name="Path 2173" d="M268.737,152.6a61.38,61.38,0,0,1-3.151,13.125,3.628,3.628,0,0,1-3.417,2.408H247.146a3.628,3.628,0,0,1-3.417-2.408,61.384,61.384,0,0,1-3.151-13.125Z" transform="translate(-210.278 -133.742)" fill="#0377bc"/>
      <path id="Path_2174" data-name="Path 2174" d="M265.751,152.6a61.38,61.38,0,0,1-3.151,13.125,3.628,3.628,0,0,1-3.417,2.408H247.145a3.628,3.628,0,0,1-3.417-2.408,61.382,61.382,0,0,1-3.151-13.125Z" transform="translate(-210.277 -133.742)" fill="#02a9f4"/>
      <path id="Path_2175" data-name="Path 2175" d="M266.78,87.664c0,.577-.011,1.143-.033,1.709-.022.4-.033.8-.067,1.187-.056.9-.144,1.786-.244,2.652H238.278c-.1-.865-.189-1.753-.244-2.652-.033-.388-.044-.788-.067-1.187-.022-.566-.033-1.132-.033-1.709,0,0,1.054-3.328,5.547-3.328h17.752C265.726,84.336,266.78,87.664,266.78,87.664Z" transform="translate(-207.978 -74.351)" fill="#37474f"/>
      <g id="Group_629" data-name="Group 629" transform="translate(29.956 9.985)">
        <path id="Path_2176" data-name="Path 2176" d="M263.452,87.664c0,.577-.011,1.143-.033,1.709-.022.4-.033.8-.067,1.187-.056.9-.144,1.786-.244,2.652h-24.83c-.1-.865-.189-1.753-.244-2.652-.033-.388-.044-.788-.067-1.187-.022-.566-.033-1.132-.033-1.709,0,0,1.054-3.328,5.547-3.328H257.9C262.4,84.336,263.452,87.664,263.452,87.664Z" transform="translate(-237.934 -84.336)" fill="#607d8b"/>
        <path id="Path_2177" data-name="Path 2177" d="M323.267,249.8a3.328,3.328,0,1,1,6.657,0Z" transform="translate(-312.172 -225.389)" fill="#607d8b"/>
      </g>
      <path id="Path_2178" data-name="Path 2178" d="M57.958,165.356a13.943,13.943,0,0,0,.666,4.549l-7.933-4.471a11.321,11.321,0,0,1-.5-3.406V146.494a10.673,10.673,0,0,1,.888-4.427l8.332-2.862a11.445,11.445,0,0,0-1.453,6.18Z" transform="translate(-44.644 -122.086)" fill="#ff9801"/>
      <path id="Path_2179" data-name="Path 2179" d="M127.8,95.515a4.868,4.868,0,0,0-1.32,1.875s-4.438-.322-4.438,7.766v29.956A5.682,5.682,0,0,0,124,139.495l-5.093-2.862-8.4-4.737a13.943,13.943,0,0,1-.666-4.549V107.375a11.445,11.445,0,0,1,1.453-6.18l8.388-2.885,3.606-1.243,1.831-.632Z" transform="translate(-96.524 -84.076)" fill="#f57c00"/>
      <g id="Group_630" data-name="Group 630" transform="translate(0 12.992)">
        <path id="Path_2180" data-name="Path 2180" d="M123.285,107.461c-.089.2-.133.322-.133.322s-4.438-.322-4.438,7.766v29.956a5.77,5.77,0,0,0,.189,1.52l-8.4-4.737a13.943,13.943,0,0,1-.666-4.549V117.768a11.445,11.445,0,0,1,1.453-6.18l8.388-2.885Z" transform="translate(-96.524 -107.461)" fill="#ff9801"/>
        <path id="Path_2181" data-name="Path 2181" d="M13.08,181.181a11.32,11.32,0,0,0,.5,3.406L9.23,182.135a3.312,3.312,0,0,1-1.7-2.9V165.8a3.335,3.335,0,0,1,2.241-3.151l4.194-1.431a10.675,10.675,0,0,0-.888,4.427v15.533Z" transform="translate(-7.533 -154.231)" fill="#ff9801"/>
      </g>
      <path id="Path_2182" data-name="Path 2182" d="M116.59,198.479v12.681a1.11,1.11,0,0,1-1.409,1.076l-2.041-.566-3.206-.888V198.568l3.151-.7,2.152-.477a1.109,1.109,0,0,1,1.353,1.087Z" transform="translate(-96.619 -172.684)" fill="#0377bc"/>
      <g id="Group_631" data-name="Group 631" transform="translate(0 25.185)">
        <path id="Path_2183" data-name="Path 2183" d="M113.261,201.852v12.681a1.084,1.084,0,0,1-.122.51l-3.206-.888V201.941l3.151-.7A1.1,1.1,0,0,1,113.261,201.852Z" transform="translate(-96.619 -201.242)" fill="#02a9f4"/>
        <path id="Path_2184" data-name="Path 2184" d="M13.08,219.931v8.321L7.533,226.71v-5.547Z" transform="translate(-7.533 -217.501)" fill="#02a9f4"/>
        <path id="Path_2185" data-name="Path 2185" d="M57.966,206.619v12.215L50.2,216.671V208.35Z" transform="translate(-44.653 -205.92)" fill="#02a9f4"/>
      </g>
      <path id="Path_2186" data-name="Path 2186" d="M305.775,393.755V399.3H289.133v-5.547a2.226,2.226,0,0,1,2.219-2.219h12.2A2.226,2.226,0,0,1,305.775,393.755Z" transform="translate(-252.52 -341.609)" fill="#c52828"/>
      <path id="Path_2187" data-name="Path 2187" d="M302.447,393.755V399.3H289.133v-5.547a2.226,2.226,0,0,1,2.219-2.219h8.876A2.226,2.226,0,0,1,302.447,393.755Z" transform="translate(-252.52 -341.609)" fill="#f44335"/>
    </g>
    <g id="Group_633" data-name="Group 633" transform="translate(0 0.003)">
      <path id="Path_2188" data-name="Path 2188" d="M404.553,303.856a2.807,2.807,0,0,0-2.855,1.917l-.488,1.462a2.808,2.808,0,0,0,.52,2.708,2.773,2.773,0,0,0,2.132,1,2.965,2.965,0,0,0,.407-.029c4.926-.719,5.961-2.733,5.961-4.295C410.227,304.462,406.988,304.01,404.553,303.856Zm-.6,4.861a.548.548,0,0,1-.518-.2.592.592,0,0,1-.111-.578l.488-1.462a.6.6,0,0,1,.611-.4,8.765,8.765,0,0,1,3.58.706C407.772,308.058,404.862,308.584,403.95,308.717Z" transform="translate(-348.919 -264.344)"/>
      <path id="Path_2189" data-name="Path 2189" d="M236.728,305.773a2.8,2.8,0,0,0-2.855-1.917c-2.441.153-5.674.606-5.674,2.763,0,1.562,1.035,3.576,5.962,4.295a2.949,2.949,0,0,0,.406.029,2.773,2.773,0,0,0,2.132-1,2.8,2.8,0,0,0,.515-2.7ZM235,308.515a.555.555,0,0,1-.517.2c-.917-.133-3.827-.658-4.05-1.941a8.764,8.764,0,0,1,3.58-.706.6.6,0,0,1,.611.4l.487,1.461A.591.591,0,0,1,235,308.515Z" transform="translate(-198.529 -264.343)"/>
      <path id="Path_2190" data-name="Path 2190" d="M282.709,113.156h15.533a1.109,1.109,0,1,0,0-2.219H282.709a1.109,1.109,0,0,0,0,2.219Z" transform="translate(-244.987 -96.514)"/>
      <path id="Path_2191" data-name="Path 2191" d="M.469,53.055,19.331,66.369a1.11,1.11,0,0,0,.64.2H65.46a1.109,1.109,0,0,0,.616-2.033L58.519,59.5c6.348-1.362,6.941-5.818,6.941-7.354V22.193c0-3.543-.811-6.094-2.413-7.585a4.754,4.754,0,0,0-2.393-1.227l-.008-.012c-.068-.125-.152-.264-.245-.408l-.078-.116a6.38,6.38,0,0,0-.838-.986l-.131-.121a6.291,6.291,0,0,0-1.34-.926c-.067-.034-.133-.067-.2-.1a6.5,6.5,0,0,0-.894-.357,7.791,7.791,0,0,0-1.04-.235c-.093-.015-.186-.029-.283-.041a9.253,9.253,0,0,0-1.23-.089H51.944L66,2.08A1.11,1.11,0,0,0,65.46,0H23.3a1.109,1.109,0,0,0-.693.243L.416,18c-.017.013-.023.033-.039.047a1.134,1.134,0,0,0-.148.176,1.14,1.14,0,0,0-.111.166,1.136,1.136,0,0,0-.06.192,1.123,1.123,0,0,0-.046.222c0,.024-.013.042-.013.063V52.149A1.109,1.109,0,0,0,.469,53.055Zm19.853,11.3L2.219,51.574v-3L28.21,64.353H20.322Zm41.476,0H32.486L2.219,45.977V42.949c.014.008.025.018.04.025l12.275,6.919L27.966,57.46c1.617,1.376,4.267,2.455,8.647,2.455H54.365c.258,0,.486-.02.733-.027ZM13.886,20.085a15.473,15.473,0,0,0-.572,4.327v1.7L7.766,27.343V25.521a9.816,9.816,0,0,1,.627-3.55ZM49.769,34.4a4.417,4.417,0,0,0-8.561,0H37.973a2.525,2.525,0,0,1-2.367-1.671,61.219,61.219,0,0,1-2.928-11.643H58.3a61.163,61.163,0,0,1-2.927,11.643A2.525,2.525,0,0,1,53,34.4H49.769Zm-2.36,0H43.568a2.219,2.219,0,0,1,3.841,0ZM26.83,16.018c-.1.177-.2.365-.289.555-.03.064-.063.124-.092.19a8.8,8.8,0,0,0-.311.827c-.023.072-.042.152-.064.222-.067.222-.129.452-.183.69-.025.111-.048.232-.071.348-.043.215-.082.435-.111.666-.019.127-.037.254-.052.385-.03.243-.052.495-.072.75-.009.12-.02.235-.028.357-.021.382-.034.777-.034,1.179V52.149c0,.153.01.344.027.549a7.23,7.23,0,0,0,.111.913l-9.653-5.436a13.536,13.536,0,0,1-.475-3.792V40.665l3.844,1.067a2.219,2.219,0,0,0,2.813-2.137V26.9a2.219,2.219,0,0,0-2.7-2.167l-3.956.88V24.411a10.934,10.934,0,0,1,1.085-5.267l10.515-3.609c-.056.079-.1.169-.156.252S26.876,15.937,26.83,16.018ZM8.127,43.734a10.263,10.263,0,0,1-.361-2.681V38.5l5.547,1.541v4.339a18.229,18.229,0,0,0,.152,2.359ZM7.766,29.616l5.547-1.233v9.362L7.766,36.2ZM5.547,35.587l-3.328-.924V30.847l3.328-.739Zm9.985-7.7,4.438-.985v12.69l-4.438-1.234V27.89ZM3.717,23.579l2.1-.721a13.12,13.12,0,0,0-.266,2.663v2.315l-3.328.74v-2.9A2.219,2.219,0,0,1,3.717,23.579Zm-1.5,13.386,3.328.925v3.163c0,.427.02.848.058,1.259L3.348,41.042a2.219,2.219,0,0,1-1.129-1.933ZM53.255,57.7H38.832V53.258a1.109,1.109,0,0,1,1.109-1.109h12.2a1.109,1.109,0,0,1,1.109,1.109Zm9.985-35.5V52.149c0,3.287-2.815,5.266-7.766,5.519V53.258a3.329,3.329,0,0,0-3.328-3.328h-12.2a3.329,3.329,0,0,0-3.328,3.328V57.7c-3.4,0-5.921-.74-7.391-2.1a4.815,4.815,0,0,1-.572-.618c-.028-.035-.049-.075-.074-.111a4.286,4.286,0,0,1-.381-.648c-.027-.057-.058-.111-.082-.17a4.546,4.546,0,0,1-.252-.794c-.013-.063-.023-.128-.035-.191a5.222,5.222,0,0,1-.088-.919V22.193c0-3.559.9-5.182,1.664-5.917a2.838,2.838,0,0,1,.287-.245c.051-.039.1-.069.153-.1s.083-.059.123-.082l.021-.01c.013.436.035.87.062,1.3v.111c.06.963.149,1.912.261,2.839v.019a62.706,62.706,0,0,0,3.209,13.369,4.749,4.749,0,0,0,4.456,3.139H53a4.749,4.749,0,0,0,4.453-3.139,62.689,62.689,0,0,0,3.209-13.369v-.023c.111-.928.2-1.876.261-2.839v-.111c.027-.433.049-.865.062-1.3a2.773,2.773,0,0,1,.585.444C62.338,17.01,63.241,18.633,63.241,22.193Zm-7.725-9.885c.111.019.2.05.3.073l.033.009a5.245,5.245,0,0,1,.615.173c.111.042.214.091.317.139a4.586,4.586,0,0,1,.444.222,3.1,3.1,0,0,1,.264.173c.118.084.23.169.333.255.071.061.141.123.2.185.088.088.166.173.239.258.049.059.1.119.144.174.062.085.111.163.163.24.03.047.067.1.091.142.041.072.07.129.1.185.014.03.037.069.048.094,0,.625-.024,1.264-.058,1.909-.006.111-.012.233-.019.351-.038.649-.087,1.3-.153,1.969H32.406c-.068-.666-.111-1.331-.154-1.978-.007-.111-.012-.227-.019-.342-.032-.643-.053-1.28-.058-1.9a3.994,3.994,0,0,1,.872-1.188,2.975,2.975,0,0,1,.245-.222l.027-.02a4.3,4.3,0,0,1,.514-.339c.027-.014.051-.03.078-.046a4.8,4.8,0,0,1,.643-.282l.134-.047a5.555,5.555,0,0,1,.79-.194l.138-.019a6.9,6.9,0,0,1,1-.073H54.365A6.612,6.612,0,0,1,55.515,12.307ZM23.689,2.222H61.225L47.417,9.988h-10.8a9.237,9.237,0,0,0-1.229.088c-.1.012-.19.025-.283.041a7.227,7.227,0,0,0-1.936.594c-.068.032-.134.064-.2.1a6.375,6.375,0,0,0-1.169.777L7.188,20.039,3,21.48a4.388,4.388,0,0,0-.777.364V19.4Z" transform="translate(0 -0.003)"/>
    </g>
  </g>
</svg>
