<svg xmlns="http://www.w3.org/2000/svg" width="75.296" height="76.914" viewBox="0 0 75.296 76.914">
  <g id="walking" transform="translate(-5.385 0)">
    <path id="Path_2045" data-name="Path 2045" d="M80.681,48.419A37.648,37.648,0,1,1,43.033,10.771,37.644,37.644,0,0,1,80.681,48.419Z" transform="translate(0 -9.153)" fill="#87dcfa"/>
    <path id="Path_2046" data-name="Path 2046" d="M261.61,116.371l-5.419-10.65a1.889,1.889,0,0,1,.9-2.508h0a1.889,1.889,0,0,1,2.579.675l4.9,9.578Z" transform="translate(-212.967 -87.499)" fill="#fa875a"/>
    <path id="Path_2047" data-name="Path 2047" d="M300.794,103.225a1.73,1.73,0,0,1,.616,2.332l-6.115,10.85a2.371,2.371,0,0,1-3.272.734h0a2.371,2.371,0,0,1-.734-3.272l7.2-10.162a1.73,1.73,0,0,1,2.3-.482Z" transform="translate(-242.641 -87.508)" fill="#ffaf82"/>
    <ellipse id="Ellipse_118" data-name="Ellipse 118" cx="22.165" cy="1.338" rx="22.165" ry="1.338" transform="translate(20.868 67.298)" fill="#6acff2"/>
    <path id="Path_2048" data-name="Path 2048" d="M144.481,320.106,141.8,317.9a.42.42,0,0,1-.041-.6l8.717-11.493a.59.59,0,0,1,.83-.069l3.67,3.108a.59.59,0,0,1,.069.829L145.1,320.046A.446.446,0,0,1,144.481,320.106Z" transform="translate(-115.799 -259.688)" fill="#ffaf82"/>
    <path id="Path_2049" data-name="Path 2049" d="M143.025,318.067l8.946-10.839c.277-.327.656-.465.843-.307l-1.643-1.391c-.187-.158-.566-.02-.843.307l-8.5,11.241c-.209.24-.268.529-.132.641l1.2.989C142.757,318.6,142.816,318.307,143.025,318.067Z" transform="translate(-115.77 -259.577)" fill="#fa875a"/>
    <path id="Path_2050" data-name="Path 2050" d="M123.313,393.948l-.191.225a.425.425,0,0,1-.6.049l-7.541-6.409a.425.425,0,0,1-.049-.6l3.137-3.691a.41.41,0,0,1,.577-.047l3.679,3.127a.41.41,0,0,1,.046.576l-1.044,1.228a.571.571,0,0,0,.065.8l1.577,1.34a2.459,2.459,0,0,1,.34,3.395Z" transform="translate(-93.006 -325.786)" fill="#aa6100"/>
    <path id="Path_2051" data-name="Path 2051" d="M117.872,387.942l2.827-3.326a.41.41,0,0,1,.576-.047l-1.287-1.094a.41.41,0,0,0-.576.047l-3,3.532h0l1.492,1.268A.269.269,0,0,1,117.872,387.942Z" transform="translate(-94.347 -325.786)" fill="#884d00"/>
    <path id="Path_2052" data-name="Path 2052" d="M136.208,380.272l-4.512-3.835a.283.283,0,0,1-.032-.4l1.079-1.27a.283.283,0,0,1,.4-.033l4.512,3.835a.283.283,0,0,1,.032.4l-1.079,1.27A.282.282,0,0,1,136.208,380.272Z" transform="translate(-107.251 -318.386)" fill="#cc7400"/>
    <path id="Path_2053" data-name="Path 2053" d="M132.989,377.046l.99-1.165c.126-.148.305-.2.4-.121l-1.287-1.094c-.1-.081-.275-.027-.4.121l-.99,1.165c-.126.148-.15.334-.055.415l1.287,1.094C132.839,377.38,132.863,377.194,132.989,377.046Z" transform="translate(-107.245 -318.351)" fill="#aa6100"/>
    <path id="Path_2054" data-name="Path 2054" d="M121.57,414.8l-.253.3c-.283.333-.658.48-.836.328l-7.541-6.409c-.179-.152-.094-.545.189-.878l.253-.3Z" transform="translate(-91.318 -346.576)" fill="#ffb655"/>
    <path id="Path_2055" data-name="Path 2055" d="M114.226,410.113l-1.287-1.094c-.179-.152-.094-.546.189-.879l.252-.3,1.287,1.094-.252.3C114.132,409.567,114.047,409.961,114.226,410.113Z" transform="translate(-91.317 -346.576)" fill="#ff9811"/>
    <path id="Path_2056" data-name="Path 2056" d="M185.246,247.035l2-11.664,9,.554-3.264,14.111a.375.375,0,0,1-.52.255l-2.891-.864a14.443,14.443,0,0,1-3.611-1.648l-.5-.317A.376.376,0,0,1,185.246,247.035Z" transform="translate(-152.833 -200.013)" fill="#80391b"/>
    <path id="Path_2057" data-name="Path 2057" d="M244.549,89.491l-4.462,2.566a.586.586,0,0,1-.8-.216l-2.732-4.75a3.16,3.16,0,0,1,1.164-4.315h0a3.16,3.16,0,0,1,4.315,1.164l2.732,4.75A.587.587,0,0,1,244.549,89.491Z" transform="translate(-196.084 -69.983)" fill="#46738c"/>
    <path id="Path_2058" data-name="Path 2058" d="M272.869,317.676l-2.951,1.869a.422.422,0,0,1-.587-.149l-7.071-9.929c-.171-.277-3.065-5.388-2.788-5.559l4.12-2.537a.594.594,0,0,1,.815.194l8.6,15.5A.448.448,0,0,1,272.869,317.676Z" transform="translate(-215.902 -256.025)" fill="#ffaf82"/>
    <path id="Path_2059" data-name="Path 2059" d="M269.93,327.287,260.574,312.6c-.226-.367-.24-.773-.03-.9l-1.845,1.136c-.21.129,2.786,5.279,3.012,5.646l6.9,9.644c.164.275.422.422.572.327l1.321-.837C270.352,327.709,270.094,327.562,269.93,327.287Z" transform="translate(-215.252 -264.875)" fill="#fa875a"/>
    <path id="Path_2060" data-name="Path 2060" d="M335.993,407.764l.156.253a.427.427,0,0,1-.14.588l-8.479,5.221a.427.427,0,0,1-.588-.14l-2.555-4.15a.413.413,0,0,1,.135-.566l4.137-2.547a.412.412,0,0,1,.566.135l.85,1.381a.574.574,0,0,0,.79.188l1.774-1.092a2.474,2.474,0,0,1,3.354.731Z" transform="translate(-271.029 -345.316)" fill="#aa6100"/>
    <path id="Path_2061" data-name="Path 2061" d="M328.137,422.1l-2.3-3.74a.412.412,0,0,1,.135-.566l-1.447.891a.412.412,0,0,0-.135.566l2.445,3.971h0l1.678-1.033A.271.271,0,0,1,328.137,422.1Z" transform="translate(-271.03 -355.029)" fill="#884d00"/>
    <path id="Path_2062" data-name="Path 2062" d="M323.106,400.249l-5.073,3.123a.284.284,0,0,1-.391-.093l-.879-1.428a.284.284,0,0,1,.093-.391l5.073-3.124a.284.284,0,0,1,.391.093l.879,1.428A.284.284,0,0,1,323.106,400.249Z" transform="translate(-264.566 -338.462)" fill="#cc7400"/>
    <path id="Path_2063" data-name="Path 2063" d="M319.078,415.362l-.806-1.31c-.1-.166-.1-.355.009-.421l-1.447.891c-.107.066-.112.255-.009.421l.806,1.309c.1.166.272.247.38.181l1.447-.891C319.351,415.61,319.181,415.528,319.078,415.362Z" transform="translate(-264.592 -351.495)" fill="#aa6100"/>
    <path id="Path_2064" data-name="Path 2064" d="M350.211,416.185l.206.334c.231.375.255.779.053.9l-8.479,5.221c-.2.124-.551-.079-.782-.454l-.206-.334Z" transform="translate(-285.202 -353.665)" fill="#ffb655"/>
    <path id="Path_2065" data-name="Path 2065" d="M343.437,448.778l-1.447.891c-.2.124-.551-.08-.782-.454l-.206-.334,1.447-.891.206.334C342.885,448.7,343.236,448.9,343.437,448.778Z" transform="translate(-285.2 -380.692)" fill="#ff9811"/>
    <path id="Path_2066" data-name="Path 2066" d="M206.421,244.041a97.689,97.689,0,0,1-6.817-9.226,8.425,8.425,0,0,1-1.205-4.823l.072-1.366,10.732.5,4.267,9.985a.653.653,0,0,1-.159.737l-1.509,1.384a16.7,16.7,0,0,1-4.163,2.8l-.4.189A.679.679,0,0,1,206.421,244.041Z" transform="translate(-164.008 -194.281)" fill="#965028"/>
    <path id="Path_2067" data-name="Path 2067" d="M233.2,57.739h-4.341l1.03-5.916,3.462.234Z" transform="translate(-189.905 -44.038)" fill="#ffaf82"/>
    <path id="Path_2068" data-name="Path 2068" d="M231.042,51.9l-.97,5.576-1.216.263,1.031-5.916Z" transform="translate(-189.901 -44.035)" fill="#ff9b69"/>
    <path id="Path_2069" data-name="Path 2069" d="M208.223,102.08c.023.452-.589.382-3.224,1.157a11.837,11.837,0,0,1-6.725-.265l-2.109-.636a.153.153,0,0,1-.108-.165l2.657-19.77a4.181,4.181,0,0,1,2.473-3.486l3.2.894C207.805,80.764,207.01,79.986,208.223,102.08Z" transform="translate(-162.028 -67.06)" fill="#87afb9"/>
    <path id="Path_2070" data-name="Path 2070" d="M202.752,79.354a4.166,4.166,0,0,0-1.716,3.048l-2.762,20.571-2.109-.636a.153.153,0,0,1-.108-.165l2.657-19.77a4.181,4.181,0,0,1,2.473-3.486Z" transform="translate(-162.028 -67.061)" fill="#55879b"/>
    <path id="Path_2071" data-name="Path 2071" d="M230.587,4.554a3.931,3.931,0,0,1,1.1,3.285c-.048.311.555,1.233.886,1.757a.588.588,0,0,1-.23.837c-.27.139-.509.033-.535.224-.081.6-.452,3.331-.465,3.346-1.248,1.4-3.238-.817-5.006-2.3-.54-.453-1.218-.13-1.647-.512-1.833-1.629-2.378-4.614-.748-6.447A4.9,4.9,0,0,1,230.587,4.554Z" transform="translate(-184.899 -2.847)" fill="#ffaf82"/>
    <circle id="Ellipse_119" data-name="Ellipse 119" cx="0.375" cy="0.375" r="0.375" transform="translate(45.608 4.87)" fill="#aa6432"/>
    <path id="Path_2072" data-name="Path 2072" d="M231.192,29.243c-1.254,1.081-3.156-1.025-4.855-2.449-.54-.453-1.218-.131-1.646-.511a4.994,4.994,0,0,1-1.491-5.174,6.047,6.047,0,0,0,2.005,4.46c.5.445,1.292.069,1.923.6C228.477,27.3,229.936,28.8,231.192,29.243Z" transform="translate(-184.902 -17.938)" fill="#ff9b69"/>
    <path id="Path_2073" data-name="Path 2073" d="M227.579,2.079c-.129,2.092-2.424,2.2-2.437,2.608a.246.246,0,0,1-.4.187.751.751,0,0,0-.839-.156c-.274.16-.494.7-.187,1.444a.5.5,0,0,1-.015.42,6.613,6.613,0,0,1-1.513,2.164c-.693.411-.328.288-.961.466-1.781.055-3.043-2.007-3.526-4.015A4.012,4.012,0,0,1,220.37.21C222.388-.275,227.708-.013,227.579,2.079Z" transform="translate(-180.311 -0.001)" fill="#aa6432"/>
    <path id="Path_2074" data-name="Path 2074" d="M219.678,5.195a5.915,5.915,0,0,0,2.287,3.691,1.466,1.466,0,0,1-.733.325c-1.78.054-3.041-2.008-3.525-4.016A4.011,4.011,0,0,1,220.374.209a11.639,11.639,0,0,1,3.2-.175,7.892,7.892,0,0,0-1.226.175A4.011,4.011,0,0,0,219.678,5.195Z" transform="translate(-180.314)" fill="#965028"/>
    <path id="Path_2075" data-name="Path 2075" d="M156.845,103.175l7.779-9.071a1.889,1.889,0,0,1,2.663-.12h0a1.889,1.889,0,0,1,.359,2.642l-6.987,8.181Z" transform="translate(-128.707 -79.45)" fill="#fa875a"/>
    <path id="Path_2076" data-name="Path 2076" d="M170.034,156.107a1.73,1.73,0,0,1-1.921,1.459l-12.362-1.515a2.371,2.371,0,0,1-1.926-2.745h0a2.371,2.371,0,0,1,2.745-1.926l12.141,2.783a1.731,1.731,0,0,1,1.324,1.946Z" transform="translate(-126.11 -128.608)" fill="#ffaf82"/>
    <path id="Path_2077" data-name="Path 2077" d="M191,86.7l-3.953-3.3a.586.586,0,0,1-.075-.826l3.51-4.208a3.16,3.16,0,0,1,4.451-.4h0a3.16,3.16,0,0,1,.4,4.451l-3.51,4.208A.587.587,0,0,1,191,86.7Z" transform="translate(-154.196 -65.634)" fill="#46738c"/>
  </g>
</svg>
